<?xml version="1.0" encoding="utf-8"?>
<svg xmlns="http://www.w3.org/2000/svg" xmlns:xlink="http://www.w3.org/1999/xlink" width="4800" height="3200" viewBox="0 0 19200 12800">
<defs>
  <clipPath id="clip8600">
    <rect x="0" y="0" width="19200" height="12800"/>
  </clipPath>
</defs>
<path clip-path="url(#clip8600)" d="
M0 12800 L19200 12800 L19200 0 L0 0  Z
  " fill="#ffffff" fill-rule="evenodd" fill-opacity="1"/>
<defs>
  <clipPath id="clip8601">
    <rect x="3840" y="0" width="13441" height="12800"/>
  </clipPath>
</defs>
<path clip-path="url(#clip8600)" d="
M2332.08 11385.4 L18822 11385.4 L18822 987.777 L2332.08 987.777  Z
  " fill="#ffffff" fill-rule="evenodd" fill-opacity="1"/>
<defs>
  <clipPath id="clip8602">
    <rect x="2332" y="987" width="16491" height="10399"/>
  </clipPath>
</defs>
<polyline clip-path="url(#clip8602)" style="stroke:#000000; stroke-width:16; stroke-opacity:0.1; fill:none" points="
  2798.3,11385.4 2798.3,987.777 
  "/>
<polyline clip-path="url(#clip8602)" style="stroke:#000000; stroke-width:16; stroke-opacity:0.1; fill:none" points="
  5172.12,11385.4 5172.12,987.777 
  "/>
<polyline clip-path="url(#clip8602)" style="stroke:#000000; stroke-width:16; stroke-opacity:0.1; fill:none" points="
  7545.93,11385.4 7545.93,987.777 
  "/>
<polyline clip-path="url(#clip8602)" style="stroke:#000000; stroke-width:16; stroke-opacity:0.1; fill:none" points="
  9919.75,11385.4 9919.75,987.777 
  "/>
<polyline clip-path="url(#clip8602)" style="stroke:#000000; stroke-width:16; stroke-opacity:0.1; fill:none" points="
  12293.6,11385.4 12293.6,987.777 
  "/>
<polyline clip-path="url(#clip8602)" style="stroke:#000000; stroke-width:16; stroke-opacity:0.1; fill:none" points="
  14667.4,11385.4 14667.4,987.777 
  "/>
<polyline clip-path="url(#clip8602)" style="stroke:#000000; stroke-width:16; stroke-opacity:0.1; fill:none" points="
  17041.2,11385.4 17041.2,987.777 
  "/>
<polyline clip-path="url(#clip8602)" style="stroke:#000000; stroke-width:16; stroke-opacity:0.1; fill:none" points="
  2332.08,10157.6 18822,10157.6 
  "/>
<polyline clip-path="url(#clip8602)" style="stroke:#000000; stroke-width:16; stroke-opacity:0.1; fill:none" points="
  2332.08,8682.59 18822,8682.59 
  "/>
<polyline clip-path="url(#clip8602)" style="stroke:#000000; stroke-width:16; stroke-opacity:0.1; fill:none" points="
  2332.08,7207.6 18822,7207.6 
  "/>
<polyline clip-path="url(#clip8602)" style="stroke:#000000; stroke-width:16; stroke-opacity:0.1; fill:none" points="
  2332.08,5732.61 18822,5732.61 
  "/>
<polyline clip-path="url(#clip8602)" style="stroke:#000000; stroke-width:16; stroke-opacity:0.1; fill:none" points="
  2332.08,4257.62 18822,4257.62 
  "/>
<polyline clip-path="url(#clip8602)" style="stroke:#000000; stroke-width:16; stroke-opacity:0.1; fill:none" points="
  2332.08,2782.63 18822,2782.63 
  "/>
<polyline clip-path="url(#clip8602)" style="stroke:#000000; stroke-width:16; stroke-opacity:0.1; fill:none" points="
  2332.08,1307.64 18822,1307.64 
  "/>
<polyline clip-path="url(#clip8600)" style="stroke:#000000; stroke-width:32; stroke-opacity:1; fill:none" points="
  2332.08,11385.4 18822,11385.4 
  "/>
<polyline clip-path="url(#clip8600)" style="stroke:#000000; stroke-width:32; stroke-opacity:1; fill:none" points="
  2332.08,11385.4 2332.08,987.777 
  "/>
<polyline clip-path="url(#clip8600)" style="stroke:#000000; stroke-width:32; stroke-opacity:1; fill:none" points="
  2798.3,11385.4 2798.3,11260.7 
  "/>
<polyline clip-path="url(#clip8600)" style="stroke:#000000; stroke-width:32; stroke-opacity:1; fill:none" points="
  5172.12,11385.4 5172.12,11260.7 
  "/>
<polyline clip-path="url(#clip8600)" style="stroke:#000000; stroke-width:32; stroke-opacity:1; fill:none" points="
  7545.93,11385.4 7545.93,11260.7 
  "/>
<polyline clip-path="url(#clip8600)" style="stroke:#000000; stroke-width:32; stroke-opacity:1; fill:none" points="
  9919.75,11385.4 9919.75,11260.7 
  "/>
<polyline clip-path="url(#clip8600)" style="stroke:#000000; stroke-width:32; stroke-opacity:1; fill:none" points="
  12293.6,11385.4 12293.6,11260.7 
  "/>
<polyline clip-path="url(#clip8600)" style="stroke:#000000; stroke-width:32; stroke-opacity:1; fill:none" points="
  14667.4,11385.4 14667.4,11260.7 
  "/>
<polyline clip-path="url(#clip8600)" style="stroke:#000000; stroke-width:32; stroke-opacity:1; fill:none" points="
  17041.2,11385.4 17041.2,11260.7 
  "/>
<polyline clip-path="url(#clip8600)" style="stroke:#000000; stroke-width:32; stroke-opacity:1; fill:none" points="
  2332.08,10157.6 2529.95,10157.6 
  "/>
<polyline clip-path="url(#clip8600)" style="stroke:#000000; stroke-width:32; stroke-opacity:1; fill:none" points="
  2332.08,8682.59 2529.95,8682.59 
  "/>
<polyline clip-path="url(#clip8600)" style="stroke:#000000; stroke-width:32; stroke-opacity:1; fill:none" points="
  2332.08,7207.6 2529.95,7207.6 
  "/>
<polyline clip-path="url(#clip8600)" style="stroke:#000000; stroke-width:32; stroke-opacity:1; fill:none" points="
  2332.08,5732.61 2529.95,5732.61 
  "/>
<polyline clip-path="url(#clip8600)" style="stroke:#000000; stroke-width:32; stroke-opacity:1; fill:none" points="
  2332.08,4257.62 2529.95,4257.62 
  "/>
<polyline clip-path="url(#clip8600)" style="stroke:#000000; stroke-width:32; stroke-opacity:1; fill:none" points="
  2332.08,2782.63 2529.95,2782.63 
  "/>
<polyline clip-path="url(#clip8600)" style="stroke:#000000; stroke-width:32; stroke-opacity:1; fill:none" points="
  2332.08,1307.64 2529.95,1307.64 
  "/>
<path clip-path="url(#clip8600)" d="M 0 0 M2798.3 11561.4 Q2769.41 11561.4 2754.78 11589.9 Q2740.34 11618.2 2740.34 11675.3 Q2740.34 11732.1 2754.78 11760.6 Q2769.41 11789 2798.3 11789 Q2827.37 11789 2841.82 11760.6 Q2856.45 11732.1 2856.45 11675.3 Q2856.45 11618.2 2841.82 11589.9 Q2827.37 11561.4 2798.3 11561.4 M2798.3 11531.7 Q2844.78 11531.7 2869.22 11568.6 Q2893.85 11605.3 2893.85 11675.3 Q2893.85 11745.1 2869.22 11781.9 Q2844.78 11818.6 2798.3 11818.6 Q2751.82 11818.6 2727.19 11781.9 Q2702.74 11745.1 2702.74 11675.3 Q2702.74 11605.3 2727.19 11568.6 Q2751.82 11531.7 2798.3 11531.7 Z" fill="#000000" fill-rule="evenodd" fill-opacity="1" /><path clip-path="url(#clip8600)" d="M 0 0 M4868.69 11954 L4929.8 11954 L4929.8 11743.1 L4863.32 11756.4 L4863.32 11722.3 L4929.43 11709 L4966.84 11709 L4966.84 11954 L5027.95 11954 L5027.95 11985.5 L4868.69 11985.5 L4868.69 11954 Z" fill="#000000" fill-rule="evenodd" fill-opacity="1" /><path clip-path="url(#clip8600)" d="M 0 0 M5066.65 11741.1 L5101.1 11741.1 L5101.1 12022.5 L5066.65 12022.5 L5066.65 11741.1 Z" fill="#000000" fill-rule="evenodd" fill-opacity="1" /><path clip-path="url(#clip8600)" d="M 0 0 M5221.65 11733.6 Q5192.76 11733.6 5178.13 11762.2 Q5163.69 11790.5 5163.69 11847.5 Q5163.69 11904.4 5178.13 11932.9 Q5192.76 11961.2 5221.65 11961.2 Q5250.73 11961.2 5265.17 11932.9 Q5279.8 11904.4 5279.8 11847.5 Q5279.8 11790.5 5265.17 11762.2 Q5250.73 11733.6 5221.65 11733.6 M5221.65 11704 Q5268.13 11704 5292.58 11740.9 Q5317.21 11777.5 5317.21 11847.5 Q5317.21 11917.3 5292.58 11954.2 Q5268.13 11990.9 5221.65 11990.9 Q5175.17 11990.9 5150.54 11954.2 Q5126.1 11917.3 5126.1 11847.5 Q5126.1 11777.5 5150.54 11740.9 Q5175.17 11704 5221.65 11704 Z" fill="#000000" fill-rule="evenodd" fill-opacity="1" /><path clip-path="url(#clip8600)" d="M 0 0 M5418.62 11568.1 L5341.88 11688 L5418.62 11688 L5418.62 11568.1 M5410.64 11541.6 L5448.86 11541.6 L5448.86 11688 L5480.91 11688 L5480.91 11713.3 L5448.86 11713.3 L5448.86 11766.2 L5418.62 11766.2 L5418.62 11713.3 L5317.21 11713.3 L5317.21 11683.9 L5410.64 11541.6 Z" fill="#000000" fill-rule="evenodd" fill-opacity="1" /><path clip-path="url(#clip8600)" d="M 0 0 M7276.68 11954 L7407.23 11954 L7407.23 11985.5 L7231.68 11985.5 L7231.68 11954 Q7252.97 11932 7289.64 11894.9 Q7326.49 11857.7 7335.93 11847 Q7353.9 11826.8 7360.93 11812.9 Q7368.16 11798.8 7368.16 11785.3 Q7368.16 11763.3 7352.6 11749.4 Q7337.23 11735.5 7312.42 11735.5 Q7294.82 11735.5 7275.19 11741.6 Q7255.75 11747.7 7233.53 11760.1 L7233.53 11722.3 Q7256.12 11713.3 7275.75 11708.6 Q7295.38 11704 7311.68 11704 Q7354.64 11704 7380.19 11725.5 Q7405.75 11747 7405.75 11782.9 Q7405.75 11799.9 7399.27 11815.3 Q7392.97 11830.5 7376.12 11851.2 Q7371.49 11856.6 7346.68 11882.3 Q7321.86 11907.9 7276.68 11954 Z" fill="#000000" fill-rule="evenodd" fill-opacity="1" /><path clip-path="url(#clip8600)" d="M 0 0 M7445.93 11741.1 L7480.38 11741.1 L7480.38 12022.5 L7445.93 12022.5 L7445.93 11741.1 Z" fill="#000000" fill-rule="evenodd" fill-opacity="1" /><path clip-path="url(#clip8600)" d="M 0 0 M7600.93 11733.6 Q7572.04 11733.6 7557.41 11762.2 Q7542.97 11790.5 7542.97 11847.5 Q7542.97 11904.4 7557.41 11932.9 Q7572.04 11961.2 7600.93 11961.2 Q7630.01 11961.2 7644.45 11932.9 Q7659.08 11904.4 7659.08 11847.5 Q7659.08 11790.5 7644.45 11762.2 Q7630.01 11733.6 7600.93 11733.6 M7600.93 11704 Q7647.41 11704 7671.86 11740.9 Q7696.49 11777.5 7696.49 11847.5 Q7696.49 11917.3 7671.86 11954.2 Q7647.41 11990.9 7600.93 11990.9 Q7554.45 11990.9 7529.82 11954.2 Q7505.38 11917.3 7505.38 11847.5 Q7505.38 11777.5 7529.82 11740.9 Q7554.45 11704 7600.93 11704 Z" fill="#000000" fill-rule="evenodd" fill-opacity="1" /><path clip-path="url(#clip8600)" d="M 0 0 M7797.9 11568.1 L7721.16 11688 L7797.9 11688 L7797.9 11568.1 M7789.93 11541.6 L7828.14 11541.6 L7828.14 11688 L7860.19 11688 L7860.19 11713.3 L7828.14 11713.3 L7828.14 11766.2 L7797.9 11766.2 L7797.9 11713.3 L7696.49 11713.3 L7696.49 11683.9 L7789.93 11541.6 Z" fill="#000000" fill-rule="evenodd" fill-opacity="1" /><path clip-path="url(#clip8600)" d="M 0 0 M9727.25 11836.4 Q9754.1 11842.2 9769.1 11860.3 Q9784.29 11878.5 9784.29 11905.1 Q9784.29 11946.1 9756.14 11968.5 Q9727.99 11990.9 9676.14 11990.9 Q9658.73 11990.9 9640.22 11987.3 Q9621.88 11984 9602.25 11977.2 L9602.25 11941.1 Q9617.81 11950.1 9636.33 11954.8 Q9654.85 11959.4 9675.03 11959.4 Q9710.22 11959.4 9728.55 11945.5 Q9747.07 11931.6 9747.07 11905.1 Q9747.07 11880.7 9729.84 11867 Q9712.81 11853.1 9682.25 11853.1 L9650.03 11853.1 L9650.03 11822.3 L9683.73 11822.3 Q9711.33 11822.3 9725.96 11811.4 Q9740.59 11800.3 9740.59 11779.6 Q9740.59 11758.3 9725.4 11747 Q9710.4 11735.5 9682.25 11735.5 Q9666.88 11735.5 9649.29 11738.8 Q9631.7 11742.2 9610.59 11749.2 L9610.59 11715.9 Q9631.88 11709.9 9650.4 11707 Q9669.1 11704 9685.59 11704 Q9728.18 11704 9752.99 11723.5 Q9777.81 11742.7 9777.81 11775.7 Q9777.81 11798.6 9764.66 11814.6 Q9751.51 11830.3 9727.25 11836.4 Z" fill="#000000" fill-rule="evenodd" fill-opacity="1" /><path clip-path="url(#clip8600)" d="M 0 0 M9822.99 11741.1 L9857.44 11741.1 L9857.44 12022.5 L9822.99 12022.5 L9822.99 11741.1 Z" fill="#000000" fill-rule="evenodd" fill-opacity="1" /><path clip-path="url(#clip8600)" d="M 0 0 M9977.99 11733.6 Q9949.1 11733.6 9934.47 11762.2 Q9920.03 11790.5 9920.03 11847.5 Q9920.03 11904.4 9934.47 11932.9 Q9949.1 11961.2 9977.99 11961.2 Q10007.1 11961.2 10021.5 11932.9 Q10036.1 11904.4 10036.1 11847.5 Q10036.1 11790.5 10021.5 11762.2 Q10007.1 11733.6 9977.99 11733.6 M9977.99 11704 Q10024.5 11704 10048.9 11740.9 Q10073.5 11777.5 10073.5 11847.5 Q10073.5 11917.3 10048.9 11954.2 Q10024.5 11990.9 9977.99 11990.9 Q9931.51 11990.9 9906.88 11954.2 Q9882.44 11917.3 9882.44 11847.5 Q9882.44 11777.5 9906.88 11740.9 Q9931.51 11704 9977.99 11704 Z" fill="#000000" fill-rule="evenodd" fill-opacity="1" /><path clip-path="url(#clip8600)" d="M 0 0 M10175 11568.1 L10098.2 11688 L10175 11688 L10175 11568.1 M10167 11541.6 L10205.2 11541.6 L10205.2 11688 L10237.2 11688 L10237.2 11713.3 L10205.2 11713.3 L10205.2 11766.2 L10175 11766.2 L10175 11713.3 L10073.5 11713.3 L10073.5 11683.9 L10167 11541.6 Z" fill="#000000" fill-rule="evenodd" fill-opacity="1" /><path clip-path="url(#clip8600)" d="M 0 0 M12091.2 11741.6 L11996.7 11889.2 L12091.2 11889.2 L12091.2 11741.6 M12081.3 11709 L12128.4 11709 L12128.4 11889.2 L12167.8 11889.2 L12167.8 11920.3 L12128.4 11920.3 L12128.4 11985.5 L12091.2 11985.5 L12091.2 11920.3 L11966.3 11920.3 L11966.3 11884.2 L12081.3 11709 Z" fill="#000000" fill-rule="evenodd" fill-opacity="1" /><path clip-path="url(#clip8600)" d="M 0 0 M12206.5 11741.1 L12241 11741.1 L12241 12022.5 L12206.5 12022.5 L12206.5 11741.1 Z" fill="#000000" fill-rule="evenodd" fill-opacity="1" /><path clip-path="url(#clip8600)" d="M 0 0 M12361.5 11733.6 Q12332.6 11733.6 12318 11762.2 Q12303.6 11790.5 12303.6 11847.5 Q12303.6 11904.4 12318 11932.9 Q12332.6 11961.2 12361.5 11961.2 Q12390.6 11961.2 12405 11932.9 Q12419.7 11904.4 12419.7 11847.5 Q12419.7 11790.5 12405 11762.2 Q12390.6 11733.6 12361.5 11733.6 M12361.5 11704 Q12408 11704 12432.5 11740.9 Q12457.1 11777.5 12457.1 11847.5 Q12457.1 11917.3 12432.5 11954.2 Q12408 11990.9 12361.5 11990.9 Q12315.1 11990.9 12290.4 11954.2 Q12266 11917.3 12266 11847.5 Q12266 11777.5 12290.4 11740.9 Q12315.1 11704 12361.5 11704 Z" fill="#000000" fill-rule="evenodd" fill-opacity="1" /><path clip-path="url(#clip8600)" d="M 0 0 M12558.5 11568.1 L12481.8 11688 L12558.5 11688 L12558.5 11568.1 M12550.5 11541.6 L12588.7 11541.6 L12588.7 11688 L12620.8 11688 L12620.8 11713.3 L12588.7 11713.3 L12588.7 11766.2 L12558.5 11766.2 L12558.5 11713.3 L12457.1 11713.3 L12457.1 11683.9 L12550.5 11541.6 Z" fill="#000000" fill-rule="evenodd" fill-opacity="1" /><path clip-path="url(#clip8600)" d="M 0 0 M14363.1 11709 L14510 11709 L14510 11740.5 L14397.4 11740.5 L14397.4 11808.3 Q14405.5 11805.5 14413.7 11804.2 Q14421.8 11802.7 14430 11802.7 Q14476.3 11802.7 14503.3 11828.1 Q14530.4 11853.5 14530.4 11896.8 Q14530.4 11941.4 14502.6 11966.2 Q14474.8 11990.9 14424.2 11990.9 Q14406.8 11990.9 14388.7 11987.9 Q14370.7 11984.9 14351.5 11979 L14351.5 11941.4 Q14368.1 11950.5 14385.9 11954.9 Q14403.7 11959.4 14423.5 11959.4 Q14455.5 11959.4 14474.2 11942.5 Q14492.9 11925.7 14492.9 11896.8 Q14492.9 11867.9 14474.2 11851.1 Q14455.5 11834.2 14423.5 11834.2 Q14408.5 11834.2 14393.5 11837.5 Q14378.7 11840.9 14363.1 11847.9 L14363.1 11709 Z" fill="#000000" fill-rule="evenodd" fill-opacity="1" /><path clip-path="url(#clip8600)" d="M 0 0 M14569.1 11741.1 L14603.5 11741.1 L14603.5 12022.5 L14569.1 12022.5 L14569.1 11741.1 Z" fill="#000000" fill-rule="evenodd" fill-opacity="1" /><path clip-path="url(#clip8600)" d="M 0 0 M14724.1 11733.6 Q14695.2 11733.6 14680.5 11762.2 Q14666.1 11790.5 14666.1 11847.5 Q14666.1 11904.4 14680.5 11932.9 Q14695.2 11961.2 14724.1 11961.2 Q14753.1 11961.2 14767.6 11932.9 Q14782.2 11904.4 14782.2 11847.5 Q14782.2 11790.5 14767.6 11762.2 Q14753.1 11733.6 14724.1 11733.6 M14724.1 11704 Q14770.5 11704 14795 11740.9 Q14819.6 11777.5 14819.6 11847.5 Q14819.6 11917.3 14795 11954.2 Q14770.5 11990.9 14724.1 11990.9 Q14677.6 11990.9 14652.9 11954.2 Q14628.5 11917.3 14628.5 11847.5 Q14628.5 11777.5 14652.9 11740.9 Q14677.6 11704 14724.1 11704 Z" fill="#000000" fill-rule="evenodd" fill-opacity="1" /><path clip-path="url(#clip8600)" d="M 0 0 M14921 11568.1 L14844.3 11688 L14921 11688 L14921 11568.1 M14913 11541.6 L14951.3 11541.6 L14951.3 11688 L14983.3 11688 L14983.3 11713.3 L14951.3 11713.3 L14951.3 11766.2 L14921 11766.2 L14921 11713.3 L14819.6 11713.3 L14819.6 11683.9 L14913 11541.6 Z" fill="#000000" fill-rule="evenodd" fill-opacity="1" /><path clip-path="url(#clip8600)" d="M 0 0 M16818 11832.3 Q16792.8 11832.3 16778 11849.6 Q16763.3 11866.8 16763.3 11896.8 Q16763.3 11926.6 16778 11944 Q16792.8 11961.2 16818 11961.2 Q16843.1 11961.2 16857.8 11944 Q16872.6 11926.6 16872.6 11896.8 Q16872.6 11866.8 16857.8 11849.6 Q16843.1 11832.3 16818 11832.3 M16892.2 11715.1 L16892.2 11749.2 Q16878.1 11742.5 16863.7 11739 Q16849.4 11735.5 16835.4 11735.5 Q16798.3 11735.5 16778.7 11760.5 Q16759.3 11785.5 16756.5 11836.1 Q16767.4 11819.9 16783.9 11811.4 Q16800.4 11802.7 16820.2 11802.7 Q16861.9 11802.7 16885.9 11828.1 Q16910.2 11853.3 16910.2 11896.8 Q16910.2 11939.4 16885 11965.1 Q16859.8 11990.9 16818 11990.9 Q16770 11990.9 16744.6 11954.2 Q16719.3 11917.3 16719.3 11847.5 Q16719.3 11782 16750.4 11743.1 Q16781.5 11704 16833.9 11704 Q16848 11704 16862.2 11706.8 Q16876.7 11709.6 16892.2 11715.1 Z" fill="#000000" fill-rule="evenodd" fill-opacity="1" /><path clip-path="url(#clip8600)" d="M 0 0 M16948.9 11741.1 L16983.3 11741.1 L16983.3 12022.5 L16948.9 12022.5 L16948.9 11741.1 Z" fill="#000000" fill-rule="evenodd" fill-opacity="1" /><path clip-path="url(#clip8600)" d="M 0 0 M17103.9 11733.6 Q17075 11733.6 17060.4 11762.2 Q17045.9 11790.5 17045.9 11847.5 Q17045.9 11904.4 17060.4 11932.9 Q17075 11961.2 17103.9 11961.2 Q17133 11961.2 17147.4 11932.9 Q17162 11904.4 17162 11847.5 Q17162 11790.5 17147.4 11762.2 Q17133 11733.6 17103.9 11733.6 M17103.9 11704 Q17150.4 11704 17174.8 11740.9 Q17199.4 11777.5 17199.4 11847.5 Q17199.4 11917.3 17174.8 11954.2 Q17150.4 11990.9 17103.9 11990.9 Q17057.4 11990.9 17032.8 11954.2 Q17008.3 11917.3 17008.3 11847.5 Q17008.3 11777.5 17032.8 11740.9 Q17057.4 11704 17103.9 11704 Z" fill="#000000" fill-rule="evenodd" fill-opacity="1" /><path clip-path="url(#clip8600)" d="M 0 0 M17300.9 11568.1 L17224.1 11688 L17300.9 11688 L17300.9 11568.1 M17292.9 11541.6 L17331.1 11541.6 L17331.1 11688 L17363.1 11688 L17363.1 11713.3 L17331.1 11713.3 L17331.1 11766.2 L17300.9 11766.2 L17300.9 11713.3 L17199.4 11713.3 L17199.4 11683.9 L17292.9 11541.6 Z" fill="#000000" fill-rule="evenodd" fill-opacity="1" /><path clip-path="url(#clip8600)" d="M 0 0 M1108.41 10044 Q1079.53 10044 1064.9 10072.5 Q1050.45 10100.8 1050.45 10157.9 Q1050.45 10214.7 1064.9 10243.2 Q1079.53 10271.6 1108.41 10271.6 Q1137.49 10271.6 1151.93 10243.2 Q1166.56 10214.7 1166.56 10157.9 Q1166.56 10100.8 1151.93 10072.5 Q1137.49 10044 1108.41 10044 M1108.41 10014.3 Q1154.9 10014.3 1179.34 10051.2 Q1203.97 10087.9 1203.97 10157.9 Q1203.97 10227.7 1179.34 10264.5 Q1154.9 10301.2 1108.41 10301.2 Q1061.93 10301.2 1037.3 10264.5 Q1012.86 10227.7 1012.86 10157.9 Q1012.86 10087.9 1037.3 10051.2 Q1061.93 10014.3 1108.41 10014.3 Z" fill="#000000" fill-rule="evenodd" fill-opacity="1" /><path clip-path="url(#clip8600)" d="M 0 0 M1244.52 10248.8 L1283.6 10248.8 L1283.6 10295.8 L1244.52 10295.8 L1244.52 10248.8 Z" fill="#000000" fill-rule="evenodd" fill-opacity="1" /><path clip-path="url(#clip8600)" d="M 0 0 M1404.15 10044 Q1375.26 10044 1360.63 10072.5 Q1346.19 10100.8 1346.19 10157.9 Q1346.19 10214.7 1360.63 10243.2 Q1375.26 10271.6 1404.15 10271.6 Q1433.23 10271.6 1447.67 10243.2 Q1462.3 10214.7 1462.3 10157.9 Q1462.3 10100.8 1447.67 10072.5 Q1433.23 10044 1404.15 10044 M1404.15 10014.3 Q1450.63 10014.3 1475.08 10051.2 Q1499.71 10087.9 1499.71 10157.9 Q1499.71 10227.7 1475.08 10264.5 Q1450.63 10301.2 1404.15 10301.2 Q1357.67 10301.2 1333.04 10264.5 Q1308.6 10227.7 1308.6 10157.9 Q1308.6 10087.9 1333.04 10051.2 Q1357.67 10014.3 1404.15 10014.3 Z" fill="#000000" fill-rule="evenodd" fill-opacity="1" /><path clip-path="url(#clip8600)" d="M 0 0 M1620.26 10044 Q1591.37 10044 1576.74 10072.5 Q1562.3 10100.8 1562.3 10157.9 Q1562.3 10214.7 1576.74 10243.2 Q1591.37 10271.6 1620.26 10271.6 Q1649.34 10271.6 1663.78 10243.2 Q1678.41 10214.7 1678.41 10157.9 Q1678.41 10100.8 1663.78 10072.5 Q1649.34 10044 1620.26 10044 M1620.26 10014.3 Q1666.74 10014.3 1691.19 10051.2 Q1715.82 10087.9 1715.82 10157.9 Q1715.82 10227.7 1691.19 10264.5 Q1666.74 10301.2 1620.26 10301.2 Q1573.78 10301.2 1549.15 10264.5 Q1524.71 10227.7 1524.71 10157.9 Q1524.71 10087.9 1549.15 10051.2 Q1573.78 10014.3 1620.26 10014.3 Z" fill="#000000" fill-rule="evenodd" fill-opacity="1" /><path clip-path="url(#clip8600)" d="M 0 0 M1836.37 10044 Q1807.48 10044 1792.85 10072.5 Q1778.41 10100.8 1778.41 10157.9 Q1778.41 10214.7 1792.85 10243.2 Q1807.48 10271.6 1836.37 10271.6 Q1865.45 10271.6 1879.89 10243.2 Q1894.52 10214.7 1894.52 10157.9 Q1894.52 10100.8 1879.89 10072.5 Q1865.45 10044 1836.37 10044 M1836.37 10014.3 Q1882.85 10014.3 1907.3 10051.2 Q1931.93 10087.9 1931.93 10157.9 Q1931.93 10227.7 1907.3 10264.5 Q1882.85 10301.2 1836.37 10301.2 Q1789.89 10301.2 1765.26 10264.5 Q1740.82 10227.7 1740.82 10157.9 Q1740.82 10087.9 1765.26 10051.2 Q1789.89 10014.3 1836.37 10014.3 Z" fill="#000000" fill-rule="evenodd" fill-opacity="1" /><path clip-path="url(#clip8600)" d="M 0 0 M1972.85 10019.3 L2119.7 10019.3 L2119.7 10050.8 L2007.11 10050.8 L2007.11 10118.6 Q2015.26 10115.8 2023.41 10114.5 Q2031.56 10113 2039.71 10113 Q2086 10113 2113.04 10138.4 Q2140.08 10163.8 2140.08 10207.1 Q2140.08 10251.7 2112.3 10276.6 Q2084.52 10301.2 2033.96 10301.2 Q2016.56 10301.2 1998.41 10298.2 Q1980.45 10295.3 1961.19 10289.3 L1961.19 10251.7 Q1977.85 10260.8 1995.63 10265.3 Q2013.41 10269.7 2033.22 10269.7 Q2065.26 10269.7 2083.96 10252.9 Q2102.67 10236 2102.67 10207.1 Q2102.67 10178.2 2083.96 10161.4 Q2065.26 10144.5 2033.22 10144.5 Q2018.22 10144.5 2003.22 10147.9 Q1988.41 10151.2 1972.85 10158.2 L1972.85 10019.3 Z" fill="#000000" fill-rule="evenodd" fill-opacity="1" /><path clip-path="url(#clip8600)" d="M 0 0 M1110.27 8568.98 Q1081.38 8568.98 1066.75 8597.5 Q1052.3 8625.83 1052.3 8682.87 Q1052.3 8739.72 1066.75 8768.24 Q1081.38 8796.57 1110.27 8796.57 Q1139.34 8796.57 1153.78 8768.24 Q1168.41 8739.72 1168.41 8682.87 Q1168.41 8625.83 1153.78 8597.5 Q1139.34 8568.98 1110.27 8568.98 M1110.27 8539.35 Q1156.75 8539.35 1181.19 8576.2 Q1205.82 8612.87 1205.82 8682.87 Q1205.82 8752.68 1181.19 8789.54 Q1156.75 8826.2 1110.27 8826.2 Q1063.78 8826.2 1039.16 8789.54 Q1014.71 8752.68 1014.71 8682.87 Q1014.71 8612.87 1039.16 8576.2 Q1063.78 8539.35 1110.27 8539.35 Z" fill="#000000" fill-rule="evenodd" fill-opacity="1" /><path clip-path="url(#clip8600)" d="M 0 0 M1246.38 8773.8 L1285.45 8773.8 L1285.45 8820.83 L1246.38 8820.83 L1246.38 8773.8 Z" fill="#000000" fill-rule="evenodd" fill-opacity="1" /><path clip-path="url(#clip8600)" d="M 0 0 M1406.01 8568.98 Q1377.12 8568.98 1362.49 8597.5 Q1348.04 8625.83 1348.04 8682.87 Q1348.04 8739.72 1362.49 8768.24 Q1377.12 8796.57 1406.01 8796.57 Q1435.08 8796.57 1449.52 8768.24 Q1464.15 8739.72 1464.15 8682.87 Q1464.15 8625.83 1449.52 8597.5 Q1435.08 8568.98 1406.01 8568.98 M1406.01 8539.35 Q1452.49 8539.35 1476.93 8576.2 Q1501.56 8612.87 1501.56 8682.87 Q1501.56 8752.68 1476.93 8789.54 Q1452.49 8826.2 1406.01 8826.2 Q1359.52 8826.2 1334.89 8789.54 Q1310.45 8752.68 1310.45 8682.87 Q1310.45 8612.87 1334.89 8576.2 Q1359.52 8539.35 1406.01 8539.35 Z" fill="#000000" fill-rule="evenodd" fill-opacity="1" /><path clip-path="url(#clip8600)" d="M 0 0 M1622.12 8568.98 Q1593.23 8568.98 1578.6 8597.5 Q1564.15 8625.83 1564.15 8682.87 Q1564.15 8739.72 1578.6 8768.24 Q1593.23 8796.57 1622.12 8796.57 Q1651.19 8796.57 1665.63 8768.24 Q1680.26 8739.72 1680.26 8682.87 Q1680.26 8625.83 1665.63 8597.5 Q1651.19 8568.98 1622.12 8568.98 M1622.12 8539.35 Q1668.6 8539.35 1693.04 8576.2 Q1717.67 8612.87 1717.67 8682.87 Q1717.67 8752.68 1693.04 8789.54 Q1668.6 8826.2 1622.12 8826.2 Q1575.63 8826.2 1551 8789.54 Q1526.56 8752.68 1526.56 8682.87 Q1526.56 8612.87 1551 8576.2 Q1575.63 8539.35 1622.12 8539.35 Z" fill="#000000" fill-rule="evenodd" fill-opacity="1" /><path clip-path="url(#clip8600)" d="M 0 0 M1764.71 8789.35 L1825.82 8789.35 L1825.82 8578.43 L1759.34 8591.76 L1759.34 8557.69 L1825.45 8544.35 L1862.85 8544.35 L1862.85 8789.35 L1923.97 8789.35 L1923.97 8820.83 L1764.71 8820.83 L1764.71 8789.35 Z" fill="#000000" fill-rule="evenodd" fill-opacity="1" /><path clip-path="url(#clip8600)" d="M 0 0 M2044.52 8568.98 Q2015.63 8568.98 2001 8597.5 Q1986.56 8625.83 1986.56 8682.87 Q1986.56 8739.72 2001 8768.24 Q2015.63 8796.57 2044.52 8796.57 Q2073.59 8796.57 2088.04 8768.24 Q2102.67 8739.72 2102.67 8682.87 Q2102.67 8625.83 2088.04 8597.5 Q2073.59 8568.98 2044.52 8568.98 M2044.52 8539.35 Q2091 8539.35 2115.45 8576.2 Q2140.08 8612.87 2140.08 8682.87 Q2140.08 8752.68 2115.45 8789.54 Q2091 8826.2 2044.52 8826.2 Q1998.04 8826.2 1973.41 8789.54 Q1948.97 8752.68 1948.97 8682.87 Q1948.97 8612.87 1973.41 8576.2 Q1998.04 8539.35 2044.52 8539.35 Z" fill="#000000" fill-rule="evenodd" fill-opacity="1" /><path clip-path="url(#clip8600)" d="M 0 0 M1118.23 7093.99 Q1089.34 7093.99 1074.71 7122.51 Q1060.27 7150.84 1060.27 7207.88 Q1060.27 7264.73 1074.71 7293.25 Q1089.34 7321.58 1118.23 7321.58 Q1147.3 7321.58 1161.75 7293.25 Q1176.38 7264.73 1176.38 7207.88 Q1176.38 7150.84 1161.75 7122.51 Q1147.3 7093.99 1118.23 7093.99 M1118.23 7064.36 Q1164.71 7064.36 1189.15 7101.21 Q1213.78 7137.88 1213.78 7207.88 Q1213.78 7277.69 1189.15 7314.54 Q1164.71 7351.21 1118.23 7351.21 Q1071.75 7351.21 1047.12 7314.54 Q1022.67 7277.69 1022.67 7207.88 Q1022.67 7137.88 1047.12 7101.21 Q1071.75 7064.36 1118.23 7064.36 Z" fill="#000000" fill-rule="evenodd" fill-opacity="1" /><path clip-path="url(#clip8600)" d="M 0 0 M1254.34 7298.8 L1293.41 7298.8 L1293.41 7345.84 L1254.34 7345.84 L1254.34 7298.8 Z" fill="#000000" fill-rule="evenodd" fill-opacity="1" /><path clip-path="url(#clip8600)" d="M 0 0 M1413.97 7093.99 Q1385.08 7093.99 1370.45 7122.51 Q1356.01 7150.84 1356.01 7207.88 Q1356.01 7264.73 1370.45 7293.25 Q1385.08 7321.58 1413.97 7321.58 Q1443.04 7321.58 1457.49 7293.25 Q1472.12 7264.73 1472.12 7207.88 Q1472.12 7150.84 1457.49 7122.51 Q1443.04 7093.99 1413.97 7093.99 M1413.97 7064.36 Q1460.45 7064.36 1484.89 7101.21 Q1509.52 7137.88 1509.52 7207.88 Q1509.52 7277.69 1484.89 7314.54 Q1460.45 7351.21 1413.97 7351.21 Q1367.49 7351.21 1342.86 7314.54 Q1318.41 7277.69 1318.41 7207.88 Q1318.41 7137.88 1342.86 7101.21 Q1367.49 7064.36 1413.97 7064.36 Z" fill="#000000" fill-rule="evenodd" fill-opacity="1" /><path clip-path="url(#clip8600)" d="M 0 0 M1630.08 7093.99 Q1601.19 7093.99 1586.56 7122.51 Q1572.12 7150.84 1572.12 7207.88 Q1572.12 7264.73 1586.56 7293.25 Q1601.19 7321.58 1630.08 7321.58 Q1659.15 7321.58 1673.6 7293.25 Q1688.23 7264.73 1688.23 7207.88 Q1688.23 7150.84 1673.6 7122.51 Q1659.15 7093.99 1630.08 7093.99 M1630.08 7064.36 Q1676.56 7064.36 1701 7101.21 Q1725.63 7137.88 1725.63 7207.88 Q1725.63 7277.69 1701 7314.54 Q1676.56 7351.21 1630.08 7351.21 Q1583.6 7351.21 1558.97 7314.54 Q1534.52 7277.69 1534.52 7207.88 Q1534.52 7137.88 1558.97 7101.21 Q1583.6 7064.36 1630.08 7064.36 Z" fill="#000000" fill-rule="evenodd" fill-opacity="1" /><path clip-path="url(#clip8600)" d="M 0 0 M1772.67 7314.36 L1833.78 7314.36 L1833.78 7103.43 L1767.3 7116.77 L1767.3 7082.69 L1833.41 7069.36 L1870.82 7069.36 L1870.82 7314.36 L1931.93 7314.36 L1931.93 7345.84 L1772.67 7345.84 L1772.67 7314.36 Z" fill="#000000" fill-rule="evenodd" fill-opacity="1" /><path clip-path="url(#clip8600)" d="M 0 0 M1972.85 7069.36 L2119.7 7069.36 L2119.7 7100.84 L2007.11 7100.84 L2007.11 7168.62 Q2015.26 7165.84 2023.41 7164.55 Q2031.56 7163.06 2039.71 7163.06 Q2086 7163.06 2113.04 7188.43 Q2140.08 7213.8 2140.08 7257.14 Q2140.08 7301.77 2112.3 7326.58 Q2084.52 7351.21 2033.96 7351.21 Q2016.56 7351.21 1998.41 7348.25 Q1980.45 7345.29 1961.19 7339.36 L1961.19 7301.77 Q1977.85 7310.84 1995.63 7315.29 Q2013.41 7319.73 2033.22 7319.73 Q2065.26 7319.73 2083.96 7302.88 Q2102.67 7286.03 2102.67 7257.14 Q2102.67 7228.25 2083.96 7211.4 Q2065.26 7194.55 2033.22 7194.55 Q2018.22 7194.55 2003.22 7197.88 Q1988.41 7201.21 1972.85 7208.25 L1972.85 7069.36 Z" fill="#000000" fill-rule="evenodd" fill-opacity="1" /><path clip-path="url(#clip8600)" d="M 0 0 M1113.23 5619 Q1084.34 5619 1069.71 5647.52 Q1055.27 5675.85 1055.27 5732.89 Q1055.27 5789.74 1069.71 5818.26 Q1084.34 5846.59 1113.23 5846.59 Q1142.3 5846.59 1156.75 5818.26 Q1171.38 5789.74 1171.38 5732.89 Q1171.38 5675.85 1156.75 5647.52 Q1142.3 5619 1113.23 5619 M1113.23 5589.37 Q1159.71 5589.37 1184.15 5626.22 Q1208.78 5662.89 1208.78 5732.89 Q1208.78 5802.7 1184.15 5839.55 Q1159.71 5876.22 1113.23 5876.22 Q1066.75 5876.22 1042.12 5839.55 Q1017.67 5802.7 1017.67 5732.89 Q1017.67 5662.89 1042.12 5626.22 Q1066.75 5589.37 1113.23 5589.37 Z" fill="#000000" fill-rule="evenodd" fill-opacity="1" /><path clip-path="url(#clip8600)" d="M 0 0 M1249.34 5823.81 L1288.41 5823.81 L1288.41 5870.85 L1249.34 5870.85 L1249.34 5823.81 Z" fill="#000000" fill-rule="evenodd" fill-opacity="1" /><path clip-path="url(#clip8600)" d="M 0 0 M1408.97 5619 Q1380.08 5619 1365.45 5647.52 Q1351.01 5675.85 1351.01 5732.89 Q1351.01 5789.74 1365.45 5818.26 Q1380.08 5846.59 1408.97 5846.59 Q1438.04 5846.59 1452.49 5818.26 Q1467.12 5789.74 1467.12 5732.89 Q1467.12 5675.85 1452.49 5647.52 Q1438.04 5619 1408.97 5619 M1408.97 5589.37 Q1455.45 5589.37 1479.89 5626.22 Q1504.52 5662.89 1504.52 5732.89 Q1504.52 5802.7 1479.89 5839.55 Q1455.45 5876.22 1408.97 5876.22 Q1362.49 5876.22 1337.86 5839.55 Q1313.41 5802.7 1313.41 5732.89 Q1313.41 5662.89 1337.86 5626.22 Q1362.49 5589.37 1408.97 5589.37 Z" fill="#000000" fill-rule="evenodd" fill-opacity="1" /><path clip-path="url(#clip8600)" d="M 0 0 M1625.08 5619 Q1596.19 5619 1581.56 5647.52 Q1567.12 5675.85 1567.12 5732.89 Q1567.12 5789.74 1581.56 5818.26 Q1596.19 5846.59 1625.08 5846.59 Q1654.15 5846.59 1668.6 5818.26 Q1683.23 5789.74 1683.23 5732.89 Q1683.23 5675.85 1668.6 5647.52 Q1654.15 5619 1625.08 5619 M1625.08 5589.37 Q1671.56 5589.37 1696 5626.22 Q1720.63 5662.89 1720.63 5732.89 Q1720.63 5802.7 1696 5839.55 Q1671.56 5876.22 1625.08 5876.22 Q1578.6 5876.22 1553.97 5839.55 Q1529.52 5802.7 1529.52 5732.89 Q1529.52 5662.89 1553.97 5626.22 Q1578.6 5589.37 1625.08 5589.37 Z" fill="#000000" fill-rule="evenodd" fill-opacity="1" /><path clip-path="url(#clip8600)" d="M 0 0 M1793.41 5839.37 L1923.97 5839.37 L1923.97 5870.85 L1748.41 5870.85 L1748.41 5839.37 Q1769.71 5817.33 1806.37 5780.3 Q1843.22 5743.07 1852.67 5732.33 Q1870.63 5712.15 1877.67 5698.26 Q1884.89 5684.18 1884.89 5670.67 Q1884.89 5648.63 1869.34 5634.74 Q1853.97 5620.85 1829.15 5620.85 Q1811.56 5620.85 1791.93 5626.96 Q1772.48 5633.07 1750.26 5645.48 L1750.26 5607.7 Q1772.85 5598.63 1792.48 5594 Q1812.11 5589.37 1828.41 5589.37 Q1871.37 5589.37 1896.93 5610.85 Q1922.48 5632.33 1922.48 5668.26 Q1922.48 5685.3 1916 5700.67 Q1909.71 5715.85 1892.85 5736.59 Q1888.22 5741.96 1863.41 5767.7 Q1838.6 5793.26 1793.41 5839.37 Z" fill="#000000" fill-rule="evenodd" fill-opacity="1" /><path clip-path="url(#clip8600)" d="M 0 0 M2044.52 5619 Q2015.63 5619 2001 5647.52 Q1986.56 5675.85 1986.56 5732.89 Q1986.56 5789.74 2001 5818.26 Q2015.63 5846.59 2044.52 5846.59 Q2073.59 5846.59 2088.04 5818.26 Q2102.67 5789.74 2102.67 5732.89 Q2102.67 5675.85 2088.04 5647.52 Q2073.59 5619 2044.52 5619 M2044.52 5589.37 Q2091 5589.37 2115.45 5626.22 Q2140.08 5662.89 2140.08 5732.89 Q2140.08 5802.7 2115.45 5839.55 Q2091 5876.22 2044.52 5876.22 Q1998.04 5876.22 1973.41 5839.55 Q1948.97 5802.7 1948.97 5732.89 Q1948.97 5662.89 1973.41 5626.22 Q1998.04 5589.37 2044.52 5589.37 Z" fill="#000000" fill-rule="evenodd" fill-opacity="1" /><path clip-path="url(#clip8600)" d="M 0 0 M1121.19 4144.01 Q1092.3 4144.01 1077.67 4172.53 Q1063.23 4200.86 1063.23 4257.9 Q1063.23 4314.75 1077.67 4343.27 Q1092.3 4371.6 1121.19 4371.6 Q1150.27 4371.6 1164.71 4343.27 Q1179.34 4314.75 1179.34 4257.9 Q1179.34 4200.86 1164.71 4172.53 Q1150.27 4144.01 1121.19 4144.01 M1121.19 4114.38 Q1167.67 4114.38 1192.12 4151.23 Q1216.75 4187.9 1216.75 4257.9 Q1216.75 4327.71 1192.12 4364.56 Q1167.67 4401.23 1121.19 4401.23 Q1074.71 4401.23 1050.08 4364.56 Q1025.64 4327.71 1025.64 4257.9 Q1025.64 4187.9 1050.08 4151.23 Q1074.71 4114.38 1121.19 4114.38 Z" fill="#000000" fill-rule="evenodd" fill-opacity="1" /><path clip-path="url(#clip8600)" d="M 0 0 M1257.3 4348.82 L1296.38 4348.82 L1296.38 4395.86 L1257.3 4395.86 L1257.3 4348.82 Z" fill="#000000" fill-rule="evenodd" fill-opacity="1" /><path clip-path="url(#clip8600)" d="M 0 0 M1416.93 4144.01 Q1388.04 4144.01 1373.41 4172.53 Q1358.97 4200.86 1358.97 4257.9 Q1358.97 4314.75 1373.41 4343.27 Q1388.04 4371.6 1416.93 4371.6 Q1446 4371.6 1460.45 4343.27 Q1475.08 4314.75 1475.08 4257.9 Q1475.08 4200.86 1460.45 4172.53 Q1446 4144.01 1416.93 4144.01 M1416.93 4114.38 Q1463.41 4114.38 1487.86 4151.23 Q1512.49 4187.9 1512.49 4257.9 Q1512.49 4327.71 1487.86 4364.56 Q1463.41 4401.23 1416.93 4401.23 Q1370.45 4401.23 1345.82 4364.56 Q1321.38 4327.71 1321.38 4257.9 Q1321.38 4187.9 1345.82 4151.23 Q1370.45 4114.38 1416.93 4114.38 Z" fill="#000000" fill-rule="evenodd" fill-opacity="1" /><path clip-path="url(#clip8600)" d="M 0 0 M1633.04 4144.01 Q1604.15 4144.01 1589.52 4172.53 Q1575.08 4200.86 1575.08 4257.9 Q1575.08 4314.75 1589.52 4343.27 Q1604.15 4371.6 1633.04 4371.6 Q1662.11 4371.6 1676.56 4343.27 Q1691.19 4314.75 1691.19 4257.9 Q1691.19 4200.86 1676.56 4172.53 Q1662.11 4144.01 1633.04 4144.01 M1633.04 4114.38 Q1679.52 4114.38 1703.97 4151.23 Q1728.6 4187.9 1728.6 4257.9 Q1728.6 4327.71 1703.97 4364.56 Q1679.52 4401.23 1633.04 4401.23 Q1586.56 4401.23 1561.93 4364.56 Q1537.49 4327.71 1537.49 4257.9 Q1537.49 4187.9 1561.93 4151.23 Q1586.56 4114.38 1633.04 4114.38 Z" fill="#000000" fill-rule="evenodd" fill-opacity="1" /><path clip-path="url(#clip8600)" d="M 0 0 M1801.37 4364.38 L1931.93 4364.38 L1931.93 4395.86 L1756.37 4395.86 L1756.37 4364.38 Q1777.67 4342.34 1814.34 4305.3 Q1851.19 4268.08 1860.63 4257.34 Q1878.6 4237.16 1885.63 4223.27 Q1892.85 4209.19 1892.85 4195.68 Q1892.85 4173.64 1877.3 4159.75 Q1861.93 4145.86 1837.11 4145.86 Q1819.52 4145.86 1799.89 4151.97 Q1780.45 4158.08 1758.23 4170.49 L1758.23 4132.71 Q1780.82 4123.64 1800.45 4119.01 Q1820.08 4114.38 1836.37 4114.38 Q1879.34 4114.38 1904.89 4135.86 Q1930.45 4157.34 1930.45 4193.27 Q1930.45 4210.3 1923.97 4225.68 Q1917.67 4240.86 1900.82 4261.6 Q1896.19 4266.97 1871.37 4292.71 Q1846.56 4318.27 1801.37 4364.38 Z" fill="#000000" fill-rule="evenodd" fill-opacity="1" /><path clip-path="url(#clip8600)" d="M 0 0 M1972.85 4119.38 L2119.7 4119.38 L2119.7 4150.86 L2007.11 4150.86 L2007.11 4218.64 Q2015.26 4215.86 2023.41 4214.56 Q2031.56 4213.08 2039.71 4213.08 Q2086 4213.08 2113.04 4238.45 Q2140.08 4263.82 2140.08 4307.16 Q2140.08 4351.79 2112.3 4376.6 Q2084.52 4401.23 2033.96 4401.23 Q2016.56 4401.23 1998.41 4398.27 Q1980.45 4395.3 1961.19 4389.38 L1961.19 4351.79 Q1977.85 4360.86 1995.63 4365.3 Q2013.41 4369.75 2033.22 4369.75 Q2065.26 4369.75 2083.96 4352.9 Q2102.67 4336.05 2102.67 4307.16 Q2102.67 4278.27 2083.96 4261.42 Q2065.26 4244.56 2033.22 4244.56 Q2018.22 4244.56 2003.22 4247.9 Q1988.41 4251.23 1972.85 4258.27 L1972.85 4119.38 Z" fill="#000000" fill-rule="evenodd" fill-opacity="1" /><path clip-path="url(#clip8600)" d="M 0 0 M1105.64 2669.02 Q1076.75 2669.02 1062.12 2697.54 Q1047.67 2725.87 1047.67 2782.91 Q1047.67 2839.76 1062.12 2868.28 Q1076.75 2896.61 1105.64 2896.61 Q1134.71 2896.61 1149.15 2868.28 Q1163.78 2839.76 1163.78 2782.91 Q1163.78 2725.87 1149.15 2697.54 Q1134.71 2669.02 1105.64 2669.02 M1105.64 2639.39 Q1152.12 2639.39 1176.56 2676.24 Q1201.19 2712.91 1201.19 2782.91 Q1201.19 2852.72 1176.56 2889.57 Q1152.12 2926.24 1105.64 2926.24 Q1059.16 2926.24 1034.53 2889.57 Q1010.08 2852.72 1010.08 2782.91 Q1010.08 2712.91 1034.53 2676.24 Q1059.16 2639.39 1105.64 2639.39 Z" fill="#000000" fill-rule="evenodd" fill-opacity="1" /><path clip-path="url(#clip8600)" d="M 0 0 M1241.75 2873.83 L1280.82 2873.83 L1280.82 2920.87 L1241.75 2920.87 L1241.75 2873.83 Z" fill="#000000" fill-rule="evenodd" fill-opacity="1" /><path clip-path="url(#clip8600)" d="M 0 0 M1401.38 2669.02 Q1372.49 2669.02 1357.86 2697.54 Q1343.41 2725.87 1343.41 2782.91 Q1343.41 2839.76 1357.86 2868.28 Q1372.49 2896.61 1401.38 2896.61 Q1430.45 2896.61 1444.89 2868.28 Q1459.52 2839.76 1459.52 2782.91 Q1459.52 2725.87 1444.89 2697.54 Q1430.45 2669.02 1401.38 2669.02 M1401.38 2639.39 Q1447.86 2639.39 1472.3 2676.24 Q1496.93 2712.91 1496.93 2782.91 Q1496.93 2852.72 1472.3 2889.57 Q1447.86 2926.24 1401.38 2926.24 Q1354.89 2926.24 1330.26 2889.57 Q1305.82 2852.72 1305.82 2782.91 Q1305.82 2712.91 1330.26 2676.24 Q1354.89 2639.39 1401.38 2639.39 Z" fill="#000000" fill-rule="evenodd" fill-opacity="1" /><path clip-path="url(#clip8600)" d="M 0 0 M1617.49 2669.02 Q1588.6 2669.02 1573.97 2697.54 Q1559.52 2725.87 1559.52 2782.91 Q1559.52 2839.76 1573.97 2868.28 Q1588.6 2896.61 1617.49 2896.61 Q1646.56 2896.61 1661 2868.28 Q1675.63 2839.76 1675.63 2782.91 Q1675.63 2725.87 1661 2697.54 Q1646.56 2669.02 1617.49 2669.02 M1617.49 2639.39 Q1663.97 2639.39 1688.41 2676.24 Q1713.04 2712.91 1713.04 2782.91 Q1713.04 2852.72 1688.41 2889.57 Q1663.97 2926.24 1617.49 2926.24 Q1571 2926.24 1546.37 2889.57 Q1521.93 2852.72 1521.93 2782.91 Q1521.93 2712.91 1546.37 2676.24 Q1571 2639.39 1617.49 2639.39 Z" fill="#000000" fill-rule="evenodd" fill-opacity="1" /><path clip-path="url(#clip8600)" d="M 0 0 M1866.93 2771.8 Q1893.78 2777.54 1908.78 2795.68 Q1923.97 2813.83 1923.97 2840.5 Q1923.97 2881.42 1895.82 2903.83 Q1867.67 2926.24 1815.82 2926.24 Q1798.41 2926.24 1779.89 2922.72 Q1761.56 2919.39 1741.93 2912.54 L1741.93 2876.42 Q1757.48 2885.5 1776 2890.13 Q1794.52 2894.76 1814.71 2894.76 Q1849.89 2894.76 1868.22 2880.87 Q1886.74 2866.98 1886.74 2840.5 Q1886.74 2816.05 1869.52 2802.35 Q1852.48 2788.46 1821.93 2788.46 L1789.71 2788.46 L1789.71 2757.72 L1823.41 2757.72 Q1851 2757.72 1865.63 2746.8 Q1880.26 2735.68 1880.26 2714.94 Q1880.26 2693.65 1865.08 2682.35 Q1850.08 2670.87 1821.93 2670.87 Q1806.56 2670.87 1788.97 2674.2 Q1771.37 2677.54 1750.26 2684.57 L1750.26 2651.24 Q1771.56 2645.31 1790.08 2642.35 Q1808.78 2639.39 1825.26 2639.39 Q1867.85 2639.39 1892.67 2658.83 Q1917.48 2678.09 1917.48 2711.06 Q1917.48 2734.02 1904.34 2749.94 Q1891.19 2765.68 1866.93 2771.8 Z" fill="#000000" fill-rule="evenodd" fill-opacity="1" /><path clip-path="url(#clip8600)" d="M 0 0 M2044.52 2669.02 Q2015.63 2669.02 2001 2697.54 Q1986.56 2725.87 1986.56 2782.91 Q1986.56 2839.76 2001 2868.28 Q2015.63 2896.61 2044.52 2896.61 Q2073.59 2896.61 2088.04 2868.28 Q2102.67 2839.76 2102.67 2782.91 Q2102.67 2725.87 2088.04 2697.54 Q2073.59 2669.02 2044.52 2669.02 M2044.52 2639.39 Q2091 2639.39 2115.45 2676.24 Q2140.08 2712.91 2140.08 2782.91 Q2140.08 2852.72 2115.45 2889.57 Q2091 2926.24 2044.52 2926.24 Q1998.04 2926.24 1973.41 2889.57 Q1948.97 2852.72 1948.97 2782.91 Q1948.97 2712.91 1973.41 2676.24 Q1998.04 2639.39 2044.52 2639.39 Z" fill="#000000" fill-rule="evenodd" fill-opacity="1" /><path clip-path="url(#clip8600)" d="M 0 0 M1113.6 1194.03 Q1084.71 1194.03 1070.08 1222.55 Q1055.64 1250.88 1055.64 1307.92 Q1055.64 1364.77 1070.08 1393.29 Q1084.71 1421.62 1113.6 1421.62 Q1142.67 1421.62 1157.12 1393.29 Q1171.75 1364.77 1171.75 1307.92 Q1171.75 1250.88 1157.12 1222.55 Q1142.67 1194.03 1113.6 1194.03 M1113.6 1164.4 Q1160.08 1164.4 1184.52 1201.25 Q1209.15 1237.92 1209.15 1307.92 Q1209.15 1377.73 1184.52 1414.58 Q1160.08 1451.25 1113.6 1451.25 Q1067.12 1451.25 1042.49 1414.58 Q1018.04 1377.73 1018.04 1307.92 Q1018.04 1237.92 1042.49 1201.25 Q1067.12 1164.4 1113.6 1164.4 Z" fill="#000000" fill-rule="evenodd" fill-opacity="1" /><path clip-path="url(#clip8600)" d="M 0 0 M1249.71 1398.84 L1288.78 1398.84 L1288.78 1445.88 L1249.71 1445.88 L1249.71 1398.84 Z" fill="#000000" fill-rule="evenodd" fill-opacity="1" /><path clip-path="url(#clip8600)" d="M 0 0 M1409.34 1194.03 Q1380.45 1194.03 1365.82 1222.55 Q1351.38 1250.88 1351.38 1307.92 Q1351.38 1364.77 1365.82 1393.29 Q1380.45 1421.62 1409.34 1421.62 Q1438.41 1421.62 1452.86 1393.29 Q1467.49 1364.77 1467.49 1307.92 Q1467.49 1250.88 1452.86 1222.55 Q1438.41 1194.03 1409.34 1194.03 M1409.34 1164.4 Q1455.82 1164.4 1480.26 1201.25 Q1504.89 1237.92 1504.89 1307.92 Q1504.89 1377.73 1480.26 1414.58 Q1455.82 1451.25 1409.34 1451.25 Q1362.86 1451.25 1338.23 1414.58 Q1313.78 1377.73 1313.78 1307.92 Q1313.78 1237.92 1338.23 1201.25 Q1362.86 1164.4 1409.34 1164.4 Z" fill="#000000" fill-rule="evenodd" fill-opacity="1" /><path clip-path="url(#clip8600)" d="M 0 0 M1625.45 1194.03 Q1596.56 1194.03 1581.93 1222.55 Q1567.49 1250.88 1567.49 1307.92 Q1567.49 1364.77 1581.93 1393.29 Q1596.56 1421.62 1625.45 1421.62 Q1654.52 1421.62 1668.97 1393.29 Q1683.6 1364.77 1683.6 1307.92 Q1683.6 1250.88 1668.97 1222.55 Q1654.52 1194.03 1625.45 1194.03 M1625.45 1164.4 Q1671.93 1164.4 1696.37 1201.25 Q1721 1237.92 1721 1307.92 Q1721 1377.73 1696.37 1414.58 Q1671.93 1451.25 1625.45 1451.25 Q1578.97 1451.25 1554.34 1414.58 Q1529.89 1377.73 1529.89 1307.92 Q1529.89 1237.92 1554.34 1201.25 Q1578.97 1164.4 1625.45 1164.4 Z" fill="#000000" fill-rule="evenodd" fill-opacity="1" /><path clip-path="url(#clip8600)" d="M 0 0 M1874.89 1296.8 Q1901.74 1302.55 1916.74 1320.69 Q1931.93 1338.84 1931.93 1365.51 Q1931.93 1406.43 1903.78 1428.84 Q1875.63 1451.25 1823.78 1451.25 Q1806.37 1451.25 1787.85 1447.73 Q1769.52 1444.4 1749.89 1437.54 L1749.89 1401.43 Q1765.45 1410.51 1783.97 1415.14 Q1802.48 1419.77 1822.67 1419.77 Q1857.85 1419.77 1876.19 1405.88 Q1894.71 1391.99 1894.71 1365.51 Q1894.71 1341.06 1877.48 1327.36 Q1860.45 1313.47 1829.89 1313.47 L1797.67 1313.47 L1797.67 1282.73 L1831.37 1282.73 Q1858.97 1282.73 1873.6 1271.8 Q1888.22 1260.69 1888.22 1239.95 Q1888.22 1218.66 1873.04 1207.36 Q1858.04 1195.88 1829.89 1195.88 Q1814.52 1195.88 1796.93 1199.21 Q1779.34 1202.55 1758.23 1209.58 L1758.23 1176.25 Q1779.52 1170.32 1798.04 1167.36 Q1816.74 1164.4 1833.22 1164.4 Q1875.82 1164.4 1900.63 1183.84 Q1925.45 1203.1 1925.45 1236.06 Q1925.45 1259.03 1912.3 1274.95 Q1899.15 1290.69 1874.89 1296.8 Z" fill="#000000" fill-rule="evenodd" fill-opacity="1" /><path clip-path="url(#clip8600)" d="M 0 0 M1972.85 1169.4 L2119.7 1169.4 L2119.7 1200.88 L2007.11 1200.88 L2007.11 1268.66 Q2015.26 1265.88 2023.41 1264.58 Q2031.56 1263.1 2039.71 1263.1 Q2086 1263.1 2113.04 1288.47 Q2140.08 1313.84 2140.08 1357.17 Q2140.08 1401.8 2112.3 1426.62 Q2084.52 1451.25 2033.96 1451.25 Q2016.56 1451.25 1998.41 1448.29 Q1980.45 1445.32 1961.19 1439.4 L1961.19 1401.8 Q1977.85 1410.88 1995.63 1415.32 Q2013.41 1419.77 2033.22 1419.77 Q2065.26 1419.77 2083.96 1402.92 Q2102.67 1386.06 2102.67 1357.17 Q2102.67 1328.29 2083.96 1311.43 Q2065.26 1294.58 2033.22 1294.58 Q2018.22 1294.58 2003.22 1297.92 Q1988.41 1301.25 1972.85 1308.29 L1972.85 1169.4 Z" fill="#000000" fill-rule="evenodd" fill-opacity="1" /><path clip-path="url(#clip8600)" d="M 0 0 M2670.02 384.22 L2670.02 413.387 L2395.86 413.387 Q2399.74 474.96 2432.8 507.368 Q2466.18 539.451 2525.48 539.451 Q2559.84 539.451 2591.92 531.025 Q2624.33 522.599 2656.09 505.747 L2656.09 562.136 Q2624 575.747 2590.3 582.877 Q2556.59 590.006 2521.92 590.006 Q2435.07 590.006 2384.19 539.451 Q2333.63 488.896 2333.63 402.692 Q2333.63 313.572 2381.6 261.397 Q2429.88 208.897 2511.55 208.897 Q2584.79 208.897 2627.24 256.212 Q2670.02 303.202 2670.02 384.22 M2610.39 366.72 Q2609.74 317.785 2582.84 288.619 Q2556.27 259.452 2512.2 259.452 Q2462.29 259.452 2432.15 287.647 Q2402.34 315.841 2397.8 367.044 L2610.39 366.72 Z" fill="#000000" fill-rule="evenodd" fill-opacity="1" /><path clip-path="url(#clip8600)" d="M 0 0 M2942.89 273.387 Q2932.84 267.554 2920.85 264.962 Q2909.19 262.045 2894.93 262.045 Q2844.37 262.045 2817.15 295.1 Q2790.25 327.832 2790.25 389.405 L2790.25 580.608 L2730.3 580.608 L2730.3 217.647 L2790.25 217.647 L2790.25 274.036 Q2809.05 240.98 2839.19 225.101 Q2869.32 208.897 2912.43 208.897 Q2918.58 208.897 2926.04 209.869 Q2933.49 210.517 2942.57 212.138 L2942.89 273.387 Z" fill="#000000" fill-rule="evenodd" fill-opacity="1" /><path clip-path="url(#clip8600)" d="M 0 0 M3204.09 273.387 Q3194.05 267.554 3182.05 264.962 Q3170.39 262.045 3156.13 262.045 Q3105.57 262.045 3078.35 295.1 Q3051.45 327.832 3051.45 389.405 L3051.45 580.608 L2991.5 580.608 L2991.5 217.647 L3051.45 217.647 L3051.45 274.036 Q3070.25 240.98 3100.39 225.101 Q3130.53 208.897 3173.63 208.897 Q3179.79 208.897 3187.24 209.869 Q3194.69 210.517 3203.77 212.138 L3204.09 273.387 Z" fill="#000000" fill-rule="evenodd" fill-opacity="1" /><path clip-path="url(#clip8600)" d="M 0 0 M3392.7 259.452 Q3344.74 259.452 3316.87 297.045 Q3289 334.313 3289 399.452 Q3289 464.59 3316.54 502.182 Q3344.41 539.451 3392.7 539.451 Q3440.34 539.451 3468.21 501.858 Q3496.08 464.266 3496.08 399.452 Q3496.08 334.961 3468.21 297.369 Q3440.34 259.452 3392.7 259.452 M3392.7 208.897 Q3470.48 208.897 3514.88 259.452 Q3559.27 310.008 3559.27 399.452 Q3559.27 488.571 3514.88 539.451 Q3470.48 590.006 3392.7 590.006 Q3314.6 590.006 3270.2 539.451 Q3226.13 488.571 3226.13 399.452 Q3226.13 310.008 3270.2 259.452 Q3314.6 208.897 3392.7 208.897 Z" fill="#000000" fill-rule="evenodd" fill-opacity="1" /><path clip-path="url(#clip8600)" d="M 0 0 M3832.14 273.387 Q3822.1 267.554 3810.11 264.962 Q3798.44 262.045 3784.18 262.045 Q3733.63 262.045 3706.4 295.1 Q3679.51 327.832 3679.51 389.405 L3679.51 580.608 L3619.55 580.608 L3619.55 217.647 L3679.51 217.647 L3679.51 274.036 Q3698.3 240.98 3728.44 225.101 Q3758.58 208.897 3801.68 208.897 Q3807.84 208.897 3815.29 209.869 Q3822.75 210.517 3831.82 212.138 L3832.14 273.387 Z" fill="#000000" fill-rule="evenodd" fill-opacity="1" /><path clip-path="url(#clip8600)" d="M 0 0 M4070.98 217.647 L4130.61 217.647 L4205.15 500.886 L4279.36 217.647 L4349.69 217.647 L4424.22 500.886 L4498.44 217.647 L4558.07 217.647 L4463.11 580.608 L4392.79 580.608 L4314.69 283.11 L4236.26 580.608 L4165.94 580.608 L4070.98 217.647 Z" fill="#000000" fill-rule="evenodd" fill-opacity="1" /><path clip-path="url(#clip8600)" d="M 0 0 M4620.61 217.647 L4680.24 217.647 L4680.24 580.608 L4620.61 580.608 L4620.61 217.647 M4620.61 76.3514 L4680.24 76.3514 L4680.24 151.86 L4620.61 151.86 L4620.61 76.3514 Z" fill="#000000" fill-rule="evenodd" fill-opacity="1" /><path clip-path="url(#clip8600)" d="M 0 0 M4801.77 114.592 L4801.77 217.647 L4924.59 217.647 L4924.59 263.989 L4801.77 263.989 L4801.77 461.025 Q4801.77 505.423 4813.76 518.062 Q4826.07 530.701 4863.34 530.701 L4924.59 530.701 L4924.59 580.608 L4863.34 580.608 Q4794.31 580.608 4768.06 555.006 Q4741.81 529.08 4741.81 461.025 L4741.81 263.989 L4698.06 263.989 L4698.06 217.647 L4741.81 217.647 L4741.81 114.592 L4801.77 114.592 Z" fill="#000000" fill-rule="evenodd" fill-opacity="1" /><path clip-path="url(#clip8600)" d="M 0 0 M5288.85 361.535 L5288.85 580.608 L5229.22 580.608 L5229.22 363.48 Q5229.22 311.952 5209.13 286.35 Q5189.03 260.749 5148.85 260.749 Q5100.56 260.749 5072.69 291.535 Q5044.82 322.322 5044.82 375.47 L5044.82 580.608 L4984.87 580.608 L4984.87 76.3514 L5044.82 76.3514 L5044.82 274.036 Q5066.21 241.304 5095.05 225.101 Q5124.22 208.897 5162.14 208.897 Q5224.68 208.897 5256.77 247.786 Q5288.85 286.35 5288.85 361.535 Z" fill="#000000" fill-rule="evenodd" fill-opacity="1" /><path clip-path="url(#clip8600)" d="M 0 0 M5801.21 272.739 L5801.21 76.3514 L5860.84 76.3514 L5860.84 580.608 L5801.21 580.608 L5801.21 526.164 Q5782.41 558.571 5753.57 574.451 Q5725.05 590.006 5684.87 590.006 Q5619.08 590.006 5577.6 537.506 Q5536.44 485.007 5536.44 399.452 Q5536.44 313.896 5577.6 261.397 Q5619.08 208.897 5684.87 208.897 Q5725.05 208.897 5753.57 224.777 Q5782.41 240.332 5801.21 272.739 M5598.01 399.452 Q5598.01 465.238 5624.91 502.831 Q5652.13 540.099 5699.45 540.099 Q5746.76 540.099 5773.99 502.831 Q5801.21 465.238 5801.21 399.452 Q5801.21 333.665 5773.99 296.397 Q5746.76 258.804 5699.45 258.804 Q5652.13 258.804 5624.91 296.397 Q5598.01 333.665 5598.01 399.452 Z" fill="#000000" fill-rule="evenodd" fill-opacity="1" /><path clip-path="url(#clip8600)" d="M 0 0 M5923.38 217.647 L5983.01 217.647 L5983.01 580.608 L5923.38 580.608 L5923.38 217.647 M5923.38 76.3514 L5983.01 76.3514 L5983.01 151.86 L5923.38 151.86 L5923.38 76.3514 Z" fill="#000000" fill-rule="evenodd" fill-opacity="1" /><path clip-path="url(#clip8600)" d="M 0 0 M6229.31 76.3514 L6229.31 125.935 L6172.27 125.935 Q6140.19 125.935 6127.55 138.897 Q6115.23 151.86 6115.23 185.564 L6115.23 217.647 L6213.43 217.647 L6213.43 263.989 L6115.23 263.989 L6115.23 580.608 L6055.28 580.608 L6055.28 263.989 L5998.24 263.989 L5998.24 217.647 L6055.28 217.647 L6055.28 192.369 Q6055.28 131.768 6083.47 104.222 Q6111.67 76.3514 6172.92 76.3514 L6229.31 76.3514 Z" fill="#000000" fill-rule="evenodd" fill-opacity="1" /><path clip-path="url(#clip8600)" d="M 0 0 M6475.6 76.3514 L6475.6 125.935 L6418.56 125.935 Q6386.48 125.935 6373.84 138.897 Q6361.53 151.86 6361.53 185.564 L6361.53 217.647 L6459.72 217.647 L6459.72 263.989 L6361.53 263.989 L6361.53 580.608 L6301.57 580.608 L6301.57 263.989 L6244.54 263.989 L6244.54 217.647 L6301.57 217.647 L6301.57 192.369 Q6301.57 131.768 6329.77 104.222 Q6357.96 76.3514 6419.21 76.3514 L6475.6 76.3514 Z" fill="#000000" fill-rule="evenodd" fill-opacity="1" /><path clip-path="url(#clip8600)" d="M 0 0 M6848.61 384.22 L6848.61 413.387 L6574.44 413.387 Q6578.33 474.96 6611.39 507.368 Q6644.77 539.451 6704.07 539.451 Q6738.42 539.451 6770.51 531.025 Q6802.91 522.599 6834.67 505.747 L6834.67 562.136 Q6802.59 575.747 6768.89 582.877 Q6735.18 590.006 6700.51 590.006 Q6613.66 590.006 6562.78 539.451 Q6512.22 488.896 6512.22 402.692 Q6512.22 313.572 6560.18 261.397 Q6608.47 208.897 6690.14 208.897 Q6763.38 208.897 6805.83 256.212 Q6848.61 303.202 6848.61 384.22 M6788.98 366.72 Q6788.33 317.785 6761.43 288.619 Q6734.86 259.452 6690.79 259.452 Q6640.88 259.452 6610.74 287.647 Q6580.93 315.841 6576.39 367.044 L6788.98 366.72 Z" fill="#000000" fill-rule="evenodd" fill-opacity="1" /><path clip-path="url(#clip8600)" d="M 0 0 M7121.48 273.387 Q7111.43 267.554 7099.44 264.962 Q7087.77 262.045 7073.52 262.045 Q7022.96 262.045 6995.74 295.1 Q6968.84 327.832 6968.84 389.405 L6968.84 580.608 L6908.89 580.608 L6908.89 217.647 L6968.84 217.647 L6968.84 274.036 Q6987.64 240.98 7017.77 225.101 Q7047.91 208.897 7091.02 208.897 Q7097.17 208.897 7104.63 209.869 Q7112.08 210.517 7121.15 212.138 L7121.48 273.387 Z" fill="#000000" fill-rule="evenodd" fill-opacity="1" /><path clip-path="url(#clip8600)" d="M 0 0 M7479.9 384.22 L7479.9 413.387 L7205.74 413.387 Q7209.63 474.96 7242.68 507.368 Q7276.06 539.451 7335.37 539.451 Q7369.72 539.451 7401.8 531.025 Q7434.21 522.599 7465.97 505.747 L7465.97 562.136 Q7433.88 575.747 7400.18 582.877 Q7366.48 590.006 7331.8 590.006 Q7244.95 590.006 7194.07 539.451 Q7143.51 488.896 7143.51 402.692 Q7143.51 313.572 7191.48 261.397 Q7239.76 208.897 7321.43 208.897 Q7394.67 208.897 7437.12 256.212 Q7479.9 303.202 7479.9 384.22 M7420.27 366.72 Q7419.62 317.785 7392.73 288.619 Q7366.15 259.452 7322.08 259.452 Q7272.17 259.452 7242.03 287.647 Q7212.22 315.841 7207.68 367.044 L7420.27 366.72 Z" fill="#000000" fill-rule="evenodd" fill-opacity="1" /><path clip-path="url(#clip8600)" d="M 0 0 M7844.16 361.535 L7844.16 580.608 L7784.53 580.608 L7784.53 363.48 Q7784.53 311.952 7764.44 286.35 Q7744.34 260.749 7704.16 260.749 Q7655.87 260.749 7628 291.535 Q7600.13 322.322 7600.13 375.47 L7600.13 580.608 L7540.18 580.608 L7540.18 217.647 L7600.13 217.647 L7600.13 274.036 Q7621.52 241.304 7650.36 225.101 Q7679.53 208.897 7717.45 208.897 Q7779.99 208.897 7812.08 247.786 Q7844.16 286.35 7844.16 361.535 Z" fill="#000000" fill-rule="evenodd" fill-opacity="1" /><path clip-path="url(#clip8600)" d="M 0 0 M7965.69 114.592 L7965.69 217.647 L8088.51 217.647 L8088.51 263.989 L7965.69 263.989 L7965.69 461.025 Q7965.69 505.423 7977.68 518.062 Q7989.99 530.701 8027.26 530.701 L8088.51 530.701 L8088.51 580.608 L8027.26 580.608 Q7958.23 580.608 7931.98 555.006 Q7905.73 529.08 7905.73 461.025 L7905.73 263.989 L7861.98 263.989 L7861.98 217.647 L7905.73 217.647 L7905.73 114.592 L7965.69 114.592 Z" fill="#000000" fill-rule="evenodd" fill-opacity="1" /><path clip-path="url(#clip8600)" d="M 0 0 M8622.58 399.452 Q8622.58 333.665 8595.36 296.397 Q8568.46 258.804 8521.15 258.804 Q8473.83 258.804 8446.61 296.397 Q8419.71 333.665 8419.71 399.452 Q8419.71 465.238 8446.61 502.831 Q8473.83 540.099 8521.15 540.099 Q8568.46 540.099 8595.36 502.831 Q8622.58 465.238 8622.58 399.452 M8419.71 272.739 Q8438.51 240.332 8467.03 224.777 Q8495.87 208.897 8535.73 208.897 Q8601.84 208.897 8643 261.397 Q8684.48 313.896 8684.48 399.452 Q8684.48 485.007 8643 537.506 Q8601.84 590.006 8535.73 590.006 Q8495.87 590.006 8467.03 574.451 Q8438.51 558.571 8419.71 526.164 L8419.71 580.608 L8359.76 580.608 L8359.76 76.3514 L8419.71 76.3514 L8419.71 272.739 Z" fill="#000000" fill-rule="evenodd" fill-opacity="1" /><path clip-path="url(#clip8600)" d="M 0 0 M8747.02 217.647 L8806.65 217.647 L8806.65 580.608 L8747.02 580.608 L8747.02 217.647 M8747.02 76.3514 L8806.65 76.3514 L8806.65 151.86 L8747.02 151.86 L8747.02 76.3514 Z" fill="#000000" fill-rule="evenodd" fill-opacity="1" /><path clip-path="url(#clip8600)" d="M 0 0 M9170.91 361.535 L9170.91 580.608 L9111.28 580.608 L9111.28 363.48 Q9111.28 311.952 9091.19 286.35 Q9071.1 260.749 9030.91 260.749 Q8982.63 260.749 8954.76 291.535 Q8926.88 322.322 8926.88 375.47 L8926.88 580.608 L8866.93 580.608 L8866.93 217.647 L8926.88 217.647 L8926.88 274.036 Q8948.27 241.304 8977.12 225.101 Q9006.28 208.897 9044.2 208.897 Q9106.75 208.897 9138.83 247.786 Q9170.91 286.35 9170.91 361.535 Z" fill="#000000" fill-rule="evenodd" fill-opacity="1" /><path clip-path="url(#clip8600)" d="M 0 0 M9675.82 228.341 L9675.82 284.73 Q9650.54 271.767 9623.32 265.286 Q9596.09 258.804 9566.93 258.804 Q9522.53 258.804 9500.17 272.415 Q9478.13 286.026 9478.13 313.248 Q9478.13 333.989 9494.01 345.98 Q9509.89 357.646 9557.85 368.341 L9578.27 372.878 Q9641.79 386.489 9668.36 411.442 Q9695.26 436.072 9695.26 480.47 Q9695.26 531.025 9655.08 560.516 Q9615.21 590.006 9545.21 590.006 Q9516.05 590.006 9484.29 584.173 Q9452.85 578.664 9417.85 567.321 L9417.85 505.747 Q9450.91 522.923 9482.99 531.673 Q9515.08 540.099 9546.51 540.099 Q9588.64 540.099 9611.33 525.84 Q9634.01 511.257 9634.01 485.007 Q9634.01 460.701 9617.48 447.738 Q9601.28 434.775 9545.86 422.785 L9525.12 417.924 Q9469.71 406.257 9445.08 382.276 Q9420.45 357.97 9420.45 315.841 Q9420.45 264.637 9456.74 236.767 Q9493.04 208.897 9559.8 208.897 Q9592.85 208.897 9622.02 213.758 Q9651.19 218.619 9675.82 228.341 Z" fill="#000000" fill-rule="evenodd" fill-opacity="1" /><path clip-path="url(#clip8600)" d="M 0 0 M9757.81 217.647 L9817.44 217.647 L9817.44 580.608 L9757.81 580.608 L9757.81 217.647 M9757.81 76.3514 L9817.44 76.3514 L9817.44 151.86 L9757.81 151.86 L9757.81 76.3514 Z" fill="#000000" fill-rule="evenodd" fill-opacity="1" /><path clip-path="url(#clip8600)" d="M 0 0 M9854.06 217.647 L10137.3 217.647 L10137.3 272.091 L9913.04 532.969 L10137.3 532.969 L10137.3 580.608 L9845.95 580.608 L9845.95 526.164 L10070.2 265.286 L9854.06 265.286 L9854.06 217.647 Z" fill="#000000" fill-rule="evenodd" fill-opacity="1" /><path clip-path="url(#clip8600)" d="M 0 0 M10510.3 384.22 L10510.3 413.387 L10236.1 413.387 Q10240 474.96 10273.1 507.368 Q10306.5 539.451 10365.8 539.451 Q10400.1 539.451 10432.2 531.025 Q10464.6 522.599 10496.4 505.747 L10496.4 562.136 Q10464.3 575.747 10430.6 582.877 Q10396.9 590.006 10362.2 590.006 Q10275.3 590.006 10224.5 539.451 Q10173.9 488.896 10173.9 402.692 Q10173.9 313.572 10221.9 261.397 Q10270.2 208.897 10351.8 208.897 Q10425.1 208.897 10467.5 256.212 Q10510.3 303.202 10510.3 384.22 M10450.7 366.72 Q10450 317.785 10423.1 288.619 Q10396.6 259.452 10352.5 259.452 Q10302.6 259.452 10272.4 287.647 Q10242.6 315.841 10238.1 367.044 L10450.7 366.72 Z" fill="#000000" fill-rule="evenodd" fill-opacity="1" /><path clip-path="url(#clip8600)" d="M 0 0 M10804.2 228.341 L10804.2 284.73 Q10779 271.767 10751.7 265.286 Q10724.5 258.804 10695.3 258.804 Q10650.9 258.804 10628.6 272.415 Q10606.6 286.026 10606.6 313.248 Q10606.6 333.989 10622.4 345.98 Q10638.3 357.646 10686.3 368.341 L10706.7 372.878 Q10770.2 386.489 10796.8 411.442 Q10823.7 436.072 10823.7 480.47 Q10823.7 531.025 10783.5 560.516 Q10743.6 590.006 10673.6 590.006 Q10644.5 590.006 10612.7 584.173 Q10581.3 578.664 10546.3 567.321 L10546.3 505.747 Q10579.3 522.923 10611.4 531.673 Q10643.5 540.099 10674.9 540.099 Q10717.1 540.099 10739.7 525.84 Q10762.4 511.257 10762.4 485.007 Q10762.4 460.701 10745.9 447.738 Q10729.7 434.775 10674.3 422.785 L10653.5 417.924 Q10598.1 406.257 10573.5 382.276 Q10548.9 357.97 10548.9 315.841 Q10548.9 264.637 10585.2 236.767 Q10621.5 208.897 10688.2 208.897 Q10721.3 208.897 10750.4 213.758 Q10779.6 218.619 10804.2 228.341 Z" fill="#000000" fill-rule="evenodd" fill-opacity="1" /><path clip-path="url(#clip8600)" d="M 0 0 M11262.2 398.155 Q11189.9 398.155 11162 414.683 Q11134.1 431.211 11134.1 471.072 Q11134.1 502.831 11154.9 521.627 Q11175.9 540.099 11211.9 540.099 Q11261.5 540.099 11291.3 505.099 Q11321.5 469.775 11321.5 411.442 L11321.5 398.155 L11262.2 398.155 M11381.1 373.526 L11381.1 580.608 L11321.5 580.608 L11321.5 525.516 Q11301 558.571 11270.6 574.451 Q11240.1 590.006 11196 590.006 Q11140.3 590.006 11107.2 558.895 Q11074.5 527.46 11074.5 474.96 Q11074.5 413.711 11115.3 382.6 Q11156.5 351.489 11237.8 351.489 L11321.5 351.489 L11321.5 345.656 Q11321.5 304.498 11294.2 282.137 Q11267.3 259.452 11218.4 259.452 Q11187.3 259.452 11157.8 266.906 Q11128.3 274.36 11101.1 289.267 L11101.1 234.175 Q11133.8 221.536 11164.6 215.378 Q11195.4 208.897 11224.6 208.897 Q11303.3 208.897 11342.2 249.73 Q11381.1 290.563 11381.1 373.526 Z" fill="#000000" fill-rule="evenodd" fill-opacity="1" /><path clip-path="url(#clip8600)" d="M 0 0 M11502.6 114.592 L11502.6 217.647 L11625.4 217.647 L11625.4 263.989 L11502.6 263.989 L11502.6 461.025 Q11502.6 505.423 11514.6 518.062 Q11526.9 530.701 11564.2 530.701 L11625.4 530.701 L11625.4 580.608 L11564.2 580.608 Q11495.2 580.608 11468.9 555.006 Q11442.7 529.08 11442.7 461.025 L11442.7 263.989 L11398.9 263.989 L11398.9 217.647 L11442.7 217.647 L11442.7 114.592 L11502.6 114.592 Z" fill="#000000" fill-rule="evenodd" fill-opacity="1" /><path clip-path="url(#clip8600)" d="M 0 0 M12137.8 272.739 L12137.8 76.3514 L12197.4 76.3514 L12197.4 580.608 L12137.8 580.608 L12137.8 526.164 Q12119 558.571 12090.2 574.451 Q12061.6 590.006 12021.5 590.006 Q11955.7 590.006 11914.2 537.506 Q11873 485.007 11873 399.452 Q11873 313.896 11914.2 261.397 Q11955.7 208.897 12021.5 208.897 Q12061.6 208.897 12090.2 224.777 Q12119 240.332 12137.8 272.739 M11934.6 399.452 Q11934.6 465.238 11961.5 502.831 Q11988.7 540.099 12036 540.099 Q12083.3 540.099 12110.6 502.831 Q12137.8 465.238 12137.8 399.452 Q12137.8 333.665 12110.6 296.397 Q12083.3 258.804 12036 258.804 Q11988.7 258.804 11961.5 296.397 Q11934.6 333.665 11934.6 399.452 Z" fill="#000000" fill-rule="evenodd" fill-opacity="1" /><path clip-path="url(#clip8600)" d="M 0 0 M12260 217.647 L12319.6 217.647 L12319.6 580.608 L12260 580.608 L12260 217.647 M12260 76.3514 L12319.6 76.3514 L12319.6 151.86 L12260 151.86 L12260 76.3514 Z" fill="#000000" fill-rule="evenodd" fill-opacity="1" /><path clip-path="url(#clip8600)" d="M 0 0 M12565.9 76.3514 L12565.9 125.935 L12508.9 125.935 Q12476.8 125.935 12464.1 138.897 Q12451.8 151.86 12451.8 185.564 L12451.8 217.647 L12550 217.647 L12550 263.989 L12451.8 263.989 L12451.8 580.608 L12391.9 580.608 L12391.9 263.989 L12334.8 263.989 L12334.8 217.647 L12391.9 217.647 L12391.9 192.369 Q12391.9 131.768 12420.1 104.222 Q12448.3 76.3514 12509.5 76.3514 L12565.9 76.3514 Z" fill="#000000" fill-rule="evenodd" fill-opacity="1" /><path clip-path="url(#clip8600)" d="M 0 0 M12812.2 76.3514 L12812.2 125.935 L12755.2 125.935 Q12723.1 125.935 12710.4 138.897 Q12698.1 151.86 12698.1 185.564 L12698.1 217.647 L12796.3 217.647 L12796.3 263.989 L12698.1 263.989 L12698.1 580.608 L12638.2 580.608 L12638.2 263.989 L12581.1 263.989 L12581.1 217.647 L12638.2 217.647 L12638.2 192.369 Q12638.2 131.768 12666.4 104.222 Q12694.5 76.3514 12755.8 76.3514 L12812.2 76.3514 Z" fill="#000000" fill-rule="evenodd" fill-opacity="1" /><path clip-path="url(#clip8600)" d="M 0 0 M13185.2 384.22 L13185.2 413.387 L12911 413.387 Q12914.9 474.96 12948 507.368 Q12981.4 539.451 13040.7 539.451 Q13075 539.451 13107.1 531.025 Q13139.5 522.599 13171.3 505.747 L13171.3 562.136 Q13139.2 575.747 13105.5 582.877 Q13071.8 590.006 13037.1 590.006 Q12950.2 590.006 12899.4 539.451 Q12848.8 488.896 12848.8 402.692 Q12848.8 313.572 12896.8 261.397 Q12945.1 208.897 13026.7 208.897 Q13100 208.897 13142.4 256.212 Q13185.2 303.202 13185.2 384.22 M13125.6 366.72 Q13124.9 317.785 13098 288.619 Q13071.4 259.452 13027.4 259.452 Q12977.5 259.452 12947.3 287.647 Q12917.5 315.841 12913 367.044 L13125.6 366.72 Z" fill="#000000" fill-rule="evenodd" fill-opacity="1" /><path clip-path="url(#clip8600)" d="M 0 0 M13458.1 273.387 Q13448 267.554 13436 264.962 Q13424.4 262.045 13410.1 262.045 Q13359.5 262.045 13332.3 295.1 Q13305.4 327.832 13305.4 389.405 L13305.4 580.608 L13245.5 580.608 L13245.5 217.647 L13305.4 217.647 L13305.4 274.036 Q13324.2 240.98 13354.4 225.101 Q13384.5 208.897 13427.6 208.897 Q13433.8 208.897 13441.2 209.869 Q13448.7 210.517 13457.7 212.138 L13458.1 273.387 Z" fill="#000000" fill-rule="evenodd" fill-opacity="1" /><path clip-path="url(#clip8600)" d="M 0 0 M13816.5 384.22 L13816.5 413.387 L13542.3 413.387 Q13546.2 474.96 13579.3 507.368 Q13612.6 539.451 13672 539.451 Q13706.3 539.451 13738.4 531.025 Q13770.8 522.599 13802.6 505.747 L13802.6 562.136 Q13770.5 575.747 13736.8 582.877 Q13703.1 590.006 13668.4 590.006 Q13581.5 590.006 13530.7 539.451 Q13480.1 488.896 13480.1 402.692 Q13480.1 313.572 13528.1 261.397 Q13576.4 208.897 13658 208.897 Q13731.3 208.897 13773.7 256.212 Q13816.5 303.202 13816.5 384.22 M13756.9 366.72 Q13756.2 317.785 13729.3 288.619 Q13702.7 259.452 13658.7 259.452 Q13608.8 259.452 13578.6 287.647 Q13548.8 315.841 13544.3 367.044 L13756.9 366.72 Z" fill="#000000" fill-rule="evenodd" fill-opacity="1" /><path clip-path="url(#clip8600)" d="M 0 0 M14180.7 361.535 L14180.7 580.608 L14121.1 580.608 L14121.1 363.48 Q14121.1 311.952 14101 286.35 Q14080.9 260.749 14040.7 260.749 Q13992.5 260.749 13964.6 291.535 Q13936.7 322.322 13936.7 375.47 L13936.7 580.608 L13876.8 580.608 L13876.8 217.647 L13936.7 217.647 L13936.7 274.036 Q13958.1 241.304 13987 225.101 Q14016.1 208.897 14054 208.897 Q14116.6 208.897 14148.7 247.786 Q14180.7 286.35 14180.7 361.535 Z" fill="#000000" fill-rule="evenodd" fill-opacity="1" /><path clip-path="url(#clip8600)" d="M 0 0 M14302.3 114.592 L14302.3 217.647 L14425.1 217.647 L14425.1 263.989 L14302.3 263.989 L14302.3 461.025 Q14302.3 505.423 14314.3 518.062 Q14326.6 530.701 14363.8 530.701 L14425.1 530.701 L14425.1 580.608 L14363.8 580.608 Q14294.8 580.608 14268.6 555.006 Q14242.3 529.08 14242.3 461.025 L14242.3 263.989 L14198.6 263.989 L14198.6 217.647 L14242.3 217.647 L14242.3 114.592 L14302.3 114.592 Z" fill="#000000" fill-rule="evenodd" fill-opacity="1" /><path clip-path="url(#clip8600)" d="M 0 0 M14634.1 96.768 L15043.4 96.768 L15043.4 151.86 L14871.7 151.86 L14871.7 580.608 L14805.9 580.608 L14805.9 151.86 L14634.1 151.86 L14634.1 96.768 Z" fill="#000000" fill-rule="evenodd" fill-opacity="1" /><path clip-path="url(#clip8600)" d="M 0 0 M15303.7 384.22 L15303.7 413.387 L15029.5 413.387 Q15033.4 474.96 15066.4 507.368 Q15099.8 539.451 15159.1 539.451 Q15193.5 539.451 15225.6 531.025 Q15258 522.599 15289.7 505.747 L15289.7 562.136 Q15257.6 575.747 15223.9 582.877 Q15190.2 590.006 15155.6 590.006 Q15068.7 590.006 15017.8 539.451 Q14967.3 488.896 14967.3 402.692 Q14967.3 313.572 15015.2 261.397 Q15063.5 208.897 15145.2 208.897 Q15218.4 208.897 15260.9 256.212 Q15303.7 303.202 15303.7 384.22 M15244 366.72 Q15243.4 317.785 15216.5 288.619 Q15189.9 259.452 15145.8 259.452 Q15095.9 259.452 15065.8 287.647 Q15036 315.841 15031.4 367.044 L15244 366.72 Z" fill="#000000" fill-rule="evenodd" fill-opacity="1" /><path clip-path="url(#clip8600)" d="M 0 0 M15648.8 287.323 Q15671.2 247.138 15702.3 228.017 Q15733.4 208.897 15775.5 208.897 Q15832.2 208.897 15863 248.758 Q15893.8 288.295 15893.8 361.535 L15893.8 580.608 L15833.8 580.608 L15833.8 363.48 Q15833.8 311.304 15815.4 286.026 Q15796.9 260.749 15759 260.749 Q15712.6 260.749 15685.7 291.535 Q15658.8 322.322 15658.8 375.47 L15658.8 580.608 L15598.9 580.608 L15598.9 363.48 Q15598.9 310.98 15580.4 286.026 Q15561.9 260.749 15523.4 260.749 Q15477.7 260.749 15450.8 291.86 Q15423.9 322.646 15423.9 375.47 L15423.9 580.608 L15363.9 580.608 L15363.9 217.647 L15423.9 217.647 L15423.9 274.036 Q15444.3 240.656 15472.8 224.777 Q15501.3 208.897 15540.6 208.897 Q15580.1 208.897 15607.6 228.99 Q15635.5 249.082 15648.8 287.323 Z" fill="#000000" fill-rule="evenodd" fill-opacity="1" /><path clip-path="url(#clip8600)" d="M 0 0 M16014 526.164 L16014 718.663 L15954.1 718.663 L15954.1 217.647 L16014 217.647 L16014 272.739 Q16032.8 240.332 16061.3 224.777 Q16090.2 208.897 16130 208.897 Q16196.2 208.897 16237.3 261.397 Q16278.8 313.896 16278.8 399.452 Q16278.8 485.007 16237.3 537.506 Q16196.2 590.006 16130 590.006 Q16090.2 590.006 16061.3 574.451 Q16032.8 558.571 16014 526.164 M16216.9 399.452 Q16216.9 333.665 16189.7 296.397 Q16162.8 258.804 16115.5 258.804 Q16068.1 258.804 16040.9 296.397 Q16014 333.665 16014 399.452 Q16014 465.238 16040.9 502.831 Q16068.1 540.099 16115.5 540.099 Q16162.8 540.099 16189.7 502.831 Q16216.9 465.238 16216.9 399.452 Z" fill="#000000" fill-rule="evenodd" fill-opacity="1" /><path clip-path="url(#clip8600)" d="M 0 0 M16651.8 384.22 L16651.8 413.387 L16377.6 413.387 Q16381.5 474.96 16414.6 507.368 Q16448 539.451 16507.3 539.451 Q16541.6 539.451 16573.7 531.025 Q16606.1 522.599 16637.9 505.747 L16637.9 562.136 Q16605.8 575.747 16572.1 582.877 Q16538.4 590.006 16503.7 590.006 Q16416.8 590.006 16366 539.451 Q16315.4 488.896 16315.4 402.692 Q16315.4 313.572 16363.4 261.397 Q16411.7 208.897 16493.3 208.897 Q16566.6 208.897 16609 256.212 Q16651.8 303.202 16651.8 384.22 M16592.2 366.72 Q16591.5 317.785 16564.6 288.619 Q16538 259.452 16494 259.452 Q16444.1 259.452 16413.9 287.647 Q16384.1 315.841 16379.6 367.044 L16592.2 366.72 Z" fill="#000000" fill-rule="evenodd" fill-opacity="1" /><path clip-path="url(#clip8600)" d="M 0 0 M16924.7 273.387 Q16914.6 267.554 16902.6 264.962 Q16891 262.045 16876.7 262.045 Q16826.1 262.045 16798.9 295.1 Q16772 327.832 16772 389.405 L16772 580.608 L16712.1 580.608 L16712.1 217.647 L16772 217.647 L16772 274.036 Q16790.8 240.98 16821 225.101 Q16851.1 208.897 16894.2 208.897 Q16900.4 208.897 16907.8 209.869 Q16915.3 210.517 16924.3 212.138 L16924.7 273.387 Z" fill="#000000" fill-rule="evenodd" fill-opacity="1" /><path clip-path="url(#clip8600)" d="M 0 0 M17152.2 398.155 Q17079.9 398.155 17052 414.683 Q17024.2 431.211 17024.2 471.072 Q17024.2 502.831 17044.9 521.627 Q17066 540.099 17101.9 540.099 Q17151.5 540.099 17181.3 505.099 Q17211.5 469.775 17211.5 411.442 L17211.5 398.155 L17152.2 398.155 M17271.1 373.526 L17271.1 580.608 L17211.5 580.608 L17211.5 525.516 Q17191.1 558.571 17160.6 574.451 Q17130.1 590.006 17086.1 590.006 Q17030.3 590.006 16997.3 558.895 Q16964.5 527.46 16964.5 474.96 Q16964.5 413.711 17005.4 382.6 Q17046.5 351.489 17127.9 351.489 L17211.5 351.489 L17211.5 345.656 Q17211.5 304.498 17184.2 282.137 Q17157.4 259.452 17108.4 259.452 Q17077.3 259.452 17047.8 266.906 Q17018.3 274.36 16991.1 289.267 L16991.1 234.175 Q17023.8 221.536 17054.6 215.378 Q17085.4 208.897 17114.6 208.897 Q17193.3 208.897 17232.2 249.73 Q17271.1 290.563 17271.1 373.526 Z" fill="#000000" fill-rule="evenodd" fill-opacity="1" /><path clip-path="url(#clip8600)" d="M 0 0 M17392.6 114.592 L17392.6 217.647 L17515.4 217.647 L17515.4 263.989 L17392.6 263.989 L17392.6 461.025 Q17392.6 505.423 17404.6 518.062 Q17416.9 530.701 17454.2 530.701 L17515.4 530.701 L17515.4 580.608 L17454.2 580.608 Q17385.2 580.608 17358.9 555.006 Q17332.7 529.08 17332.7 461.025 L17332.7 263.989 L17288.9 263.989 L17288.9 217.647 L17332.7 217.647 L17332.7 114.592 L17392.6 114.592 Z" fill="#000000" fill-rule="evenodd" fill-opacity="1" /><path clip-path="url(#clip8600)" d="M 0 0 M17571.8 437.368 L17571.8 217.647 L17631.5 217.647 L17631.5 435.1 Q17631.5 486.627 17651.6 512.553 Q17671.7 538.155 17711.8 538.155 Q17760.1 538.155 17788 507.368 Q17816.2 476.581 17816.2 423.433 L17816.2 217.647 L17875.8 217.647 L17875.8 580.608 L17816.2 580.608 L17816.2 524.868 Q17794.5 557.923 17765.6 574.127 Q17737.1 590.006 17699.2 590.006 Q17636.7 590.006 17604.2 551.117 Q17571.8 512.229 17571.8 437.368 M17721.9 208.897 L17721.9 208.897 Z" fill="#000000" fill-rule="evenodd" fill-opacity="1" /><path clip-path="url(#clip8600)" d="M 0 0 M18148.7 273.387 Q18138.6 267.554 18126.7 264.962 Q18115 262.045 18100.7 262.045 Q18050.2 262.045 18022.9 295.1 Q17996 327.832 17996 389.405 L17996 580.608 L17936.1 580.608 L17936.1 217.647 L17996 217.647 L17996 274.036 Q18014.8 240.98 18045 225.101 Q18075.1 208.897 18118.2 208.897 Q18124.4 208.897 18131.8 209.869 Q18139.3 210.517 18148.4 212.138 L18148.7 273.387 Z" fill="#000000" fill-rule="evenodd" fill-opacity="1" /><path clip-path="url(#clip8600)" d="M 0 0 M18507.1 384.22 L18507.1 413.387 L18232.9 413.387 Q18236.8 474.96 18269.9 507.368 Q18303.3 539.451 18362.6 539.451 Q18396.9 539.451 18429 531.025 Q18461.4 522.599 18493.2 505.747 L18493.2 562.136 Q18461.1 575.747 18427.4 582.877 Q18393.7 590.006 18359 590.006 Q18272.2 590.006 18221.3 539.451 Q18170.7 488.896 18170.7 402.692 Q18170.7 313.572 18218.7 261.397 Q18267 208.897 18348.6 208.897 Q18421.9 208.897 18464.3 256.212 Q18507.1 303.202 18507.1 384.22 M18447.5 366.72 Q18446.8 317.785 18419.9 288.619 Q18393.4 259.452 18349.3 259.452 Q18299.4 259.452 18269.2 287.647 Q18239.4 315.841 18234.9 367.044 L18447.5 366.72 Z" fill="#000000" fill-rule="evenodd" fill-opacity="1" /><path clip-path="url(#clip8600)" d="M 0 0 M18801 228.341 L18801 284.73 Q18775.8 271.767 18748.5 265.286 Q18721.3 258.804 18692.2 258.804 Q18647.8 258.804 18625.4 272.415 Q18603.4 286.026 18603.4 313.248 Q18603.4 333.989 18619.2 345.98 Q18635.1 357.646 18683.1 368.341 L18703.5 372.878 Q18767 386.489 18793.6 411.442 Q18820.5 436.072 18820.5 480.47 Q18820.5 531.025 18780.3 560.516 Q18740.4 590.006 18670.4 590.006 Q18641.3 590.006 18609.5 584.173 Q18578.1 578.664 18543.1 567.321 L18543.1 505.747 Q18576.1 522.923 18608.2 531.673 Q18640.3 540.099 18671.7 540.099 Q18713.9 540.099 18736.6 525.84 Q18759.2 511.257 18759.2 485.007 Q18759.2 460.701 18742.7 447.738 Q18726.5 434.775 18671.1 422.785 L18650.4 417.924 Q18594.9 406.257 18570.3 382.276 Q18545.7 357.97 18545.7 315.841 Q18545.7 264.637 18582 236.767 Q18618.3 208.897 18685 208.897 Q18718.1 208.897 18747.2 213.758 Q18776.4 218.619 18801 228.341 Z" fill="#000000" fill-rule="evenodd" fill-opacity="1" /><path clip-path="url(#clip8600)" d="M 0 0 M9938.71 12306 Q9938.71 12254.3 9917.32 12225 Q9896.19 12195.5 9859.01 12195.5 Q9821.83 12195.5 9800.45 12225 Q9779.31 12254.3 9779.31 12306 Q9779.31 12357.7 9800.45 12387.2 Q9821.83 12416.5 9859.01 12416.5 Q9896.19 12416.5 9917.32 12387.2 Q9938.71 12357.7 9938.71 12306 M9779.31 12206.5 Q9794.08 12181 9816.49 12168.8 Q9839.15 12156.3 9870.47 12156.3 Q9922.41 12156.3 9954.75 12197.5 Q9987.34 12238.8 9987.34 12306 Q9987.34 12373.2 9954.75 12414.5 Q9922.41 12455.7 9870.47 12455.7 Q9839.15 12455.7 9816.49 12443.5 Q9794.08 12431 9779.31 12405.6 L9779.31 12448.4 L9732.2 12448.4 L9732.2 12052.1 L9779.31 12052.1 L9779.31 12206.5 Z" fill="#000000" fill-rule="evenodd" fill-opacity="1" /><path clip-path="url(#clip8600)" d="M 0 0 M10036.5 12163.2 L10083.3 12163.2 L10083.3 12448.4 L10036.5 12448.4 L10036.5 12163.2 M10036.5 12052.1 L10083.3 12052.1 L10083.3 12111.5 L10036.5 12111.5 L10036.5 12052.1 Z" fill="#000000" fill-rule="evenodd" fill-opacity="1" /><path clip-path="url(#clip8600)" d="M 0 0 M10369.5 12276.2 L10369.5 12448.4 L10322.7 12448.4 L10322.7 12277.7 Q10322.7 12237.3 10306.9 12217.1 Q10291.1 12197 10259.5 12197 Q10221.6 12197 10199.7 12221.2 Q10177.8 12245.4 10177.8 12287.2 L10177.8 12448.4 L10130.7 12448.4 L10130.7 12163.2 L10177.8 12163.2 L10177.8 12207.5 Q10194.6 12181.8 10217.3 12169 Q10240.2 12156.3 10270 12156.3 Q10319.1 12156.3 10344.3 12186.8 Q10369.5 12217.1 10369.5 12276.2 Z" fill="#000000" fill-rule="evenodd" fill-opacity="1" /><path clip-path="url(#clip8600)" d="M 0 0 M10766.3 12171.6 L10766.3 12215.9 Q10746.4 12205.7 10725 12200.6 Q10703.6 12195.5 10680.7 12195.5 Q10645.8 12195.5 10628.2 12206.2 Q10610.9 12216.9 10610.9 12238.3 Q10610.9 12254.6 10623.4 12264 Q10635.9 12273.2 10673.6 12281.6 L10689.6 12285.1 Q10739.5 12295.8 10760.4 12315.4 Q10781.5 12334.8 10781.5 12369.7 Q10781.5 12409.4 10750 12432.6 Q10718.6 12455.7 10663.6 12455.7 Q10640.7 12455.7 10615.8 12451.2 Q10591.1 12446.8 10563.6 12437.9 L10563.6 12389.5 Q10589.5 12403 10614.7 12409.9 Q10640 12416.5 10664.7 12416.5 Q10697.8 12416.5 10715.6 12405.3 Q10733.4 12393.9 10733.4 12373.2 Q10733.4 12354.1 10720.4 12344 Q10707.7 12333.8 10664.1 12324.3 L10647.8 12320.5 Q10604.3 12311.4 10585 12292.5 Q10565.6 12273.4 10565.6 12240.3 Q10565.6 12200.1 10594.1 12178.2 Q10622.6 12156.3 10675.1 12156.3 Q10701.1 12156.3 10724 12160.1 Q10746.9 12163.9 10766.3 12171.6 Z" fill="#000000" fill-rule="evenodd" fill-opacity="1" /><path clip-path="url(#clip8600)" d="M 0 0 M10830.7 12163.2 L10877.5 12163.2 L10877.5 12448.4 L10830.7 12448.4 L10830.7 12163.2 M10830.7 12052.1 L10877.5 12052.1 L10877.5 12111.5 L10830.7 12111.5 L10830.7 12052.1 Z" fill="#000000" fill-rule="evenodd" fill-opacity="1" /><path clip-path="url(#clip8600)" d="M 0 0 M10906.3 12163.2 L11128.8 12163.2 L11128.8 12205.9 L10952.6 12410.9 L11128.8 12410.9 L11128.8 12448.4 L10899.9 12448.4 L10899.9 12405.6 L11076.1 12200.6 L10906.3 12200.6 L10906.3 12163.2 Z" fill="#000000" fill-rule="evenodd" fill-opacity="1" /><path clip-path="url(#clip8600)" d="M 0 0 M11421.9 12294 L11421.9 12317 L11206.5 12317 Q11209.6 12365.3 11235.5 12390.8 Q11261.8 12416 11308.4 12416 Q11335.3 12416 11360.6 12409.4 Q11386 12402.8 11411 12389.5 L11411 12433.8 Q11385.8 12444.5 11359.3 12450.1 Q11332.8 12455.7 11305.6 12455.7 Q11237.3 12455.7 11197.3 12416 Q11157.6 12376.3 11157.6 12308.6 Q11157.6 12238.5 11195.3 12197.5 Q11233.2 12156.3 11297.4 12156.3 Q11355 12156.3 11388.3 12193.5 Q11421.9 12230.4 11421.9 12294 M11375.1 12280.3 Q11374.6 12241.8 11353.4 12218.9 Q11332.5 12196 11297.9 12196 Q11258.7 12196 11235 12218.2 Q11211.6 12240.3 11208 12280.6 L11375.1 12280.3 Z" fill="#000000" fill-rule="evenodd" fill-opacity="1" /><path clip-path="url(#clip8600)" d="M 0 0 M549.729 6511 L572.645 6511 L572.645 6726.42 Q621.024 6723.36 646.487 6697.39 Q671.695 6671.17 671.695 6624.57 Q671.695 6597.58 665.075 6572.37 Q658.455 6546.91 645.214 6521.95 L689.519 6521.95 Q700.214 6547.16 705.816 6573.64 Q711.417 6600.12 711.417 6627.37 Q711.417 6695.61 671.695 6735.59 Q631.973 6775.31 564.242 6775.31 Q494.22 6775.31 453.224 6737.62 Q411.975 6699.68 411.975 6635.52 Q411.975 6577.97 449.15 6544.62 Q486.071 6511 549.729 6511 M535.979 6557.86 Q497.53 6558.37 474.613 6579.5 Q451.697 6600.38 451.697 6635.01 Q451.697 6674.22 473.849 6697.9 Q496.002 6721.33 536.233 6724.89 L535.979 6557.86 Z" fill="#000000" fill-rule="evenodd" fill-opacity="1" /><path clip-path="url(#clip8600)" d="M 0 0 M462.646 6296.61 Q458.062 6304.5 456.025 6313.92 Q453.734 6323.09 453.734 6334.29 Q453.734 6374.01 479.706 6395.4 Q505.423 6416.54 553.803 6416.54 L704.033 6416.54 L704.033 6463.64 L418.85 6463.64 L418.85 6416.54 L463.155 6416.54 Q437.183 6401.77 424.706 6378.09 Q411.975 6354.41 411.975 6320.54 Q411.975 6315.7 412.739 6309.85 Q413.248 6303.99 414.521 6296.86 L462.646 6296.61 Z" fill="#000000" fill-rule="evenodd" fill-opacity="1" /><path clip-path="url(#clip8600)" d="M 0 0 M462.646 6091.38 Q458.062 6099.27 456.025 6108.69 Q453.734 6117.86 453.734 6129.06 Q453.734 6168.78 479.706 6190.17 Q505.423 6211.31 553.803 6211.31 L704.033 6211.31 L704.033 6258.41 L418.85 6258.41 L418.85 6211.31 L463.155 6211.31 Q437.183 6196.54 424.706 6172.86 Q411.975 6149.18 411.975 6115.31 Q411.975 6110.47 412.739 6104.62 Q413.248 6098.76 414.521 6091.63 L462.646 6091.38 Z" fill="#000000" fill-rule="evenodd" fill-opacity="1" /><path clip-path="url(#clip8600)" d="M 0 0 M451.697 5943.18 Q451.697 5980.87 481.234 6002.77 Q510.516 6024.66 561.696 6024.66 Q612.876 6024.66 642.413 6003.02 Q671.695 5981.12 671.695 5943.18 Q671.695 5905.75 642.159 5883.85 Q612.622 5861.96 561.696 5861.96 Q511.025 5861.96 481.488 5883.85 Q451.697 5905.75 451.697 5943.18 M411.975 5943.18 Q411.975 5882.07 451.697 5847.19 Q491.419 5812.3 561.696 5812.3 Q631.719 5812.3 671.695 5847.19 Q711.417 5882.07 711.417 5943.18 Q711.417 6004.55 671.695 6039.43 Q631.719 6074.06 561.696 6074.06 Q491.419 6074.06 451.697 6039.43 Q411.975 6004.55 411.975 5943.18 Z" fill="#000000" fill-rule="evenodd" fill-opacity="1" /><path clip-path="url(#clip8600)" d="M 0 0 M462.646 5597.91 Q458.062 5605.8 456.025 5615.22 Q453.734 5624.39 453.734 5635.59 Q453.734 5675.31 479.706 5696.7 Q505.423 5717.84 553.803 5717.84 L704.033 5717.84 L704.033 5764.94 L418.85 5764.94 L418.85 5717.84 L463.155 5717.84 Q437.183 5703.07 424.706 5679.39 Q411.975 5655.71 411.975 5621.84 Q411.975 5617 412.739 5611.15 Q413.248 5605.29 414.521 5598.16 L462.646 5597.91 Z" fill="#000000" fill-rule="evenodd" fill-opacity="1" /><polyline clip-path="url(#clip8602)" style="stroke:#009af9; stroke-width:32; stroke-opacity:1; fill:none" points="
  2798.77,9629.44 2799.25,9316.06 2800.2,9101.69 2802.1,9003.78 2805.89,8960.34 2813.49,8927.53 2828.68,9000.71 2859.07,9040.72 2919.84,8995.48 3041.38,8926.47 
  3284.46,8777.59 3770.61,8707.69 4742.93,9794.71 6687.56,9367.31 10576.8,9123.09 
  "/>
<polyline clip-path="url(#clip8602)" style="stroke:#e26f46; stroke-width:32; stroke-opacity:1; fill:none" points="
  2798.77,9178.18 2799.25,8694.91 2800.2,8310.1 2802.1,8056.32 2805.89,7951.58 2813.49,7946.98 2828.68,7848.54 2859.07,7829.04 2919.84,7819.21 3041.38,8223.19 
  3284.46,8201.4 3770.61,8716.05 4742.93,8572.82 6687.56,8763.26 10576.8,11091.2 
  "/>
<polyline clip-path="url(#clip8602)" style="stroke:#3da44d; stroke-width:32; stroke-opacity:1; fill:none" points="
  2798.77,8795.13 2799.25,8125.79 2800.2,7527.59 2802.1,7152.41 2805.89,6940.91 2813.49,6982.6 2828.68,6841.39 2859.07,6793.46 2919.84,6279.89 3041.38,6003.49 
  3284.46,5980.47 3770.61,4795.54 4742.93,4266.01 6687.56,1984.42 10576.8,5093.16 
  "/>
<polyline clip-path="url(#clip8602)" style="stroke:#c271d2; stroke-width:32; stroke-opacity:1; fill:none" points="
  2798.77,8662.22 2799.25,7889.46 2800.2,7169.98 2802.1,6635.17 2805.89,6399.75 2813.49,6097.87 2828.68,5960.75 2859.07,5997.01 2919.84,6002.27 3041.38,5929.03 
  3284.46,6202.06 3770.61,5352.44 4742.93,5549.62 6687.56,5405.1 10576.8,1282.05 
  "/>
<path clip-path="url(#clip8600)" d="
M15070.5 4075.14 L18246 4075.14 L18246 1655.94 L15070.5 1655.94  Z
  " fill="#ffffff" fill-rule="evenodd" fill-opacity="1"/>
<polyline clip-path="url(#clip8600)" style="stroke:#000000; stroke-width:32; stroke-opacity:1; fill:none" points="
  15070.5,4075.14 18246,4075.14 18246,1655.94 15070.5,1655.94 15070.5,4075.14 
  "/>
<polyline clip-path="url(#clip8600)" style="stroke:#009af9; stroke-width:32; stroke-opacity:1; fill:none" points="
  15262.5,2139.78 16414.5,2139.78 
  "/>
<path clip-path="url(#clip8600)" d="M 0 0 M16606.5 2001.54 L16840.4 2001.54 L16840.4 2033.02 L16742.2 2033.02 L16742.2 2278.02 L16704.6 2278.02 L16704.6 2033.02 L16606.5 2033.02 L16606.5 2001.54 Z" fill="#000000" fill-rule="evenodd" fill-opacity="1" /><path clip-path="url(#clip8600)" d="M 0 0 M17001.1 2105.8 L17238.5 2105.8 L17238.5 2136.91 L17001.1 2136.91 L17001.1 2105.8 M17001.1 2181.35 L17238.5 2181.35 L17238.5 2212.83 L17001.1 2212.83 L17001.1 2181.35 Z" fill="#000000" fill-rule="evenodd" fill-opacity="1" /><path clip-path="url(#clip8600)" d="M 0 0 M17431.9 2246.54 L17562.4 2246.54 L17562.4 2278.02 L17386.9 2278.02 L17386.9 2246.54 Q17408.2 2224.5 17444.8 2187.46 Q17481.7 2150.24 17491.1 2139.5 Q17509.1 2119.31 17516.1 2105.43 Q17523.3 2091.35 17523.3 2077.83 Q17523.3 2055.8 17507.8 2041.91 Q17492.4 2028.02 17467.6 2028.02 Q17450 2028.02 17430.4 2034.13 Q17410.9 2040.24 17388.7 2052.65 L17388.7 2014.87 Q17411.3 2005.8 17430.9 2001.17 Q17450.6 1996.54 17466.9 1996.54 Q17509.8 1996.54 17535.4 2018.02 Q17560.9 2039.5 17560.9 2075.43 Q17560.9 2092.46 17554.5 2107.83 Q17548.2 2123.02 17531.3 2143.76 Q17526.7 2149.13 17501.9 2174.87 Q17477 2200.42 17431.9 2246.54 Z" fill="#000000" fill-rule="evenodd" fill-opacity="1" /><path clip-path="url(#clip8600)" d="M 0 0 M17603 2230.98 L17642 2230.98 L17642 2278.02 L17603 2278.02 L17603 2230.98 Z" fill="#000000" fill-rule="evenodd" fill-opacity="1" /><path clip-path="url(#clip8600)" d="M 0 0 M17689.1 2246.54 L17750.2 2246.54 L17750.2 2035.61 L17683.7 2048.94 L17683.7 2014.87 L17749.8 2001.54 L17787.2 2001.54 L17787.2 2246.54 L17848.3 2246.54 L17848.3 2278.02 L17689.1 2278.02 L17689.1 2246.54 Z" fill="#000000" fill-rule="evenodd" fill-opacity="1" /><polyline clip-path="url(#clip8600)" style="stroke:#e26f46; stroke-width:32; stroke-opacity:1; fill:none" points="
  15262.5,2623.62 16414.5,2623.62 
  "/>
<path clip-path="url(#clip8600)" d="M 0 0 M16606.5 2485.38 L16840.4 2485.38 L16840.4 2516.86 L16742.2 2516.86 L16742.2 2761.86 L16704.6 2761.86 L16704.6 2516.86 L16606.5 2516.86 L16606.5 2485.38 Z" fill="#000000" fill-rule="evenodd" fill-opacity="1" /><path clip-path="url(#clip8600)" d="M 0 0 M17001.1 2589.64 L17238.5 2589.64 L17238.5 2620.75 L17001.1 2620.75 L17001.1 2589.64 M17001.1 2665.19 L17238.5 2665.19 L17238.5 2696.67 L17001.1 2696.67 L17001.1 2665.19 Z" fill="#000000" fill-rule="evenodd" fill-opacity="1" /><path clip-path="url(#clip8600)" d="M 0 0 M17431.9 2730.38 L17562.4 2730.38 L17562.4 2761.86 L17386.9 2761.86 L17386.9 2730.38 Q17408.2 2708.34 17444.8 2671.3 Q17481.7 2634.08 17491.1 2623.34 Q17509.1 2603.15 17516.1 2589.27 Q17523.3 2575.19 17523.3 2561.67 Q17523.3 2539.64 17507.8 2525.75 Q17492.4 2511.86 17467.6 2511.86 Q17450 2511.86 17430.4 2517.97 Q17410.9 2524.08 17388.7 2536.49 L17388.7 2498.71 Q17411.3 2489.64 17430.9 2485.01 Q17450.6 2480.38 17466.9 2480.38 Q17509.8 2480.38 17535.4 2501.86 Q17560.9 2523.34 17560.9 2559.27 Q17560.9 2576.3 17554.5 2591.67 Q17548.2 2606.86 17531.3 2627.6 Q17526.7 2632.97 17501.9 2658.71 Q17477 2684.26 17431.9 2730.38 Z" fill="#000000" fill-rule="evenodd" fill-opacity="1" /><path clip-path="url(#clip8600)" d="M 0 0 M17603 2714.82 L17642 2714.82 L17642 2761.86 L17603 2761.86 L17603 2714.82 Z" fill="#000000" fill-rule="evenodd" fill-opacity="1" /><path clip-path="url(#clip8600)" d="M 0 0 M17714.8 2730.38 L17845.4 2730.38 L17845.4 2761.86 L17669.8 2761.86 L17669.8 2730.38 Q17691.1 2708.34 17727.8 2671.3 Q17764.6 2634.08 17774.1 2623.34 Q17792 2603.15 17799.1 2589.27 Q17806.3 2575.19 17806.3 2561.67 Q17806.3 2539.64 17790.8 2525.75 Q17775.4 2511.86 17750.6 2511.86 Q17733 2511.86 17713.3 2517.97 Q17693.9 2524.08 17671.7 2536.49 L17671.7 2498.71 Q17694.3 2489.64 17713.9 2485.01 Q17733.5 2480.38 17749.8 2480.38 Q17792.8 2480.38 17818.3 2501.86 Q17843.9 2523.34 17843.9 2559.27 Q17843.9 2576.3 17837.4 2591.67 Q17831.1 2606.86 17814.3 2627.6 Q17809.6 2632.97 17784.8 2658.71 Q17760 2684.26 17714.8 2730.38 Z" fill="#000000" fill-rule="evenodd" fill-opacity="1" /><polyline clip-path="url(#clip8600)" style="stroke:#3da44d; stroke-width:32; stroke-opacity:1; fill:none" points="
  15262.5,3107.46 16414.5,3107.46 
  "/>
<path clip-path="url(#clip8600)" d="M 0 0 M16606.5 2969.22 L16840.4 2969.22 L16840.4 3000.7 L16742.2 3000.7 L16742.2 3245.7 L16704.6 3245.7 L16704.6 3000.7 L16606.5 3000.7 L16606.5 2969.22 Z" fill="#000000" fill-rule="evenodd" fill-opacity="1" /><path clip-path="url(#clip8600)" d="M 0 0 M17001.1 3073.48 L17238.5 3073.48 L17238.5 3104.59 L17001.1 3104.59 L17001.1 3073.48 M17001.1 3149.03 L17238.5 3149.03 L17238.5 3180.51 L17001.1 3180.51 L17001.1 3149.03 Z" fill="#000000" fill-rule="evenodd" fill-opacity="1" /><path clip-path="url(#clip8600)" d="M 0 0 M17431.9 3214.22 L17562.4 3214.22 L17562.4 3245.7 L17386.9 3245.7 L17386.9 3214.22 Q17408.2 3192.18 17444.8 3155.14 Q17481.7 3117.92 17491.1 3107.18 Q17509.1 3086.99 17516.1 3073.11 Q17523.3 3059.03 17523.3 3045.51 Q17523.3 3023.48 17507.8 3009.59 Q17492.4 2995.7 17467.6 2995.7 Q17450 2995.7 17430.4 3001.81 Q17410.9 3007.92 17388.7 3020.33 L17388.7 2982.55 Q17411.3 2973.48 17430.9 2968.85 Q17450.6 2964.22 17466.9 2964.22 Q17509.8 2964.22 17535.4 2985.7 Q17560.9 3007.18 17560.9 3043.11 Q17560.9 3060.14 17554.5 3075.51 Q17548.2 3090.7 17531.3 3111.44 Q17526.7 3116.81 17501.9 3142.55 Q17477 3168.1 17431.9 3214.22 Z" fill="#000000" fill-rule="evenodd" fill-opacity="1" /><path clip-path="url(#clip8600)" d="M 0 0 M17603 3198.66 L17642 3198.66 L17642 3245.7 L17603 3245.7 L17603 3198.66 Z" fill="#000000" fill-rule="evenodd" fill-opacity="1" /><path clip-path="url(#clip8600)" d="M 0 0 M17795.9 3096.62 Q17822.8 3102.36 17837.8 3120.51 Q17853 3138.66 17853 3165.33 Q17853 3206.25 17824.8 3228.66 Q17796.7 3251.07 17744.8 3251.07 Q17727.4 3251.07 17708.9 3247.55 Q17690.6 3244.22 17670.9 3237.36 L17670.9 3201.25 Q17686.5 3210.33 17705 3214.96 Q17723.5 3219.59 17743.7 3219.59 Q17778.9 3219.59 17797.2 3205.7 Q17815.8 3191.81 17815.8 3165.33 Q17815.8 3140.88 17798.5 3127.18 Q17781.5 3113.29 17750.9 3113.29 L17718.7 3113.29 L17718.7 3082.55 L17752.4 3082.55 Q17780 3082.55 17794.6 3071.62 Q17809.3 3060.51 17809.3 3039.77 Q17809.3 3018.48 17794.1 3007.18 Q17779.1 2995.7 17750.9 2995.7 Q17735.6 2995.7 17718 2999.03 Q17700.4 3002.36 17679.3 3009.4 L17679.3 2976.07 Q17700.6 2970.14 17719.1 2967.18 Q17737.8 2964.22 17754.3 2964.22 Q17796.9 2964.22 17821.7 2983.66 Q17846.5 3002.92 17846.5 3035.88 Q17846.5 3058.85 17833.3 3074.77 Q17820.2 3090.51 17795.9 3096.62 Z" fill="#000000" fill-rule="evenodd" fill-opacity="1" /><polyline clip-path="url(#clip8600)" style="stroke:#c271d2; stroke-width:32; stroke-opacity:1; fill:none" points="
  15262.5,3591.3 16414.5,3591.3 
  "/>
<path clip-path="url(#clip8600)" d="M 0 0 M16606.5 3453.06 L16840.4 3453.06 L16840.4 3484.54 L16742.2 3484.54 L16742.2 3729.54 L16704.6 3729.54 L16704.6 3484.54 L16606.5 3484.54 L16606.5 3453.06 Z" fill="#000000" fill-rule="evenodd" fill-opacity="1" /><path clip-path="url(#clip8600)" d="M 0 0 M17001.1 3557.32 L17238.5 3557.32 L17238.5 3588.43 L17001.1 3588.43 L17001.1 3557.32 M17001.1 3632.87 L17238.5 3632.87 L17238.5 3664.35 L17001.1 3664.35 L17001.1 3632.87 Z" fill="#000000" fill-rule="evenodd" fill-opacity="1" /><path clip-path="url(#clip8600)" d="M 0 0 M17431.9 3698.06 L17562.4 3698.06 L17562.4 3729.54 L17386.9 3729.54 L17386.9 3698.06 Q17408.2 3676.02 17444.8 3638.98 Q17481.7 3601.76 17491.1 3591.02 Q17509.1 3570.83 17516.1 3556.95 Q17523.3 3542.87 17523.3 3529.35 Q17523.3 3507.32 17507.8 3493.43 Q17492.4 3479.54 17467.6 3479.54 Q17450 3479.54 17430.4 3485.65 Q17410.9 3491.76 17388.7 3504.17 L17388.7 3466.39 Q17411.3 3457.32 17430.9 3452.69 Q17450.6 3448.06 17466.9 3448.06 Q17509.8 3448.06 17535.4 3469.54 Q17560.9 3491.02 17560.9 3526.95 Q17560.9 3543.98 17554.5 3559.35 Q17548.2 3574.54 17531.3 3595.28 Q17526.7 3600.65 17501.9 3626.39 Q17477 3651.94 17431.9 3698.06 Z" fill="#000000" fill-rule="evenodd" fill-opacity="1" /><path clip-path="url(#clip8600)" d="M 0 0 M17603 3682.5 L17642 3682.5 L17642 3729.54 L17603 3729.54 L17603 3682.5 Z" fill="#000000" fill-rule="evenodd" fill-opacity="1" /><path clip-path="url(#clip8600)" d="M 0 0 M17785.4 3485.65 L17690.9 3633.24 L17785.4 3633.24 L17785.4 3485.65 M17775.6 3453.06 L17822.6 3453.06 L17822.6 3633.24 L17862 3633.24 L17862 3664.35 L17822.6 3664.35 L17822.6 3729.54 L17785.4 3729.54 L17785.4 3664.35 L17660.6 3664.35 L17660.6 3628.24 L17775.6 3453.06 Z" fill="#000000" fill-rule="evenodd" fill-opacity="1" /></svg>
