<?xml version="1.0" encoding="utf-8"?>
<svg xmlns="http://www.w3.org/2000/svg" xmlns:xlink="http://www.w3.org/1999/xlink" width="600" height="400" viewBox="0 0 2400 1600">
<defs>
  <clipPath id="clip7000">
    <rect x="0" y="0" width="2400" height="1600"/>
  </clipPath>
</defs>
<path clip-path="url(#clip7000)" d="
M0 1600 L2400 1600 L2400 0 L0 0  Z
  " fill="#ffffff" fill-rule="evenodd" fill-opacity="1"/>
<defs>
  <clipPath id="clip7001">
    <rect x="480" y="0" width="1681" height="1600"/>
  </clipPath>
</defs>
<path clip-path="url(#clip7000)" d="
M145.904 1486.45 L2352.76 1486.45 L2352.76 47.2441 L145.904 47.2441  Z
  " fill="#ffffff" fill-rule="evenodd" fill-opacity="1"/>
<defs>
  <clipPath id="clip7002">
    <rect x="145" y="47" width="2208" height="1440"/>
  </clipPath>
</defs>
<polyline clip-path="url(#clip7002)" style="stroke:#000000; stroke-width:2; stroke-opacity:0.1; fill:none" points="
  531.58,1486.45 531.58,47.2441 
  "/>
<polyline clip-path="url(#clip7002)" style="stroke:#000000; stroke-width:2; stroke-opacity:0.1; fill:none" points="
  1005.35,1486.45 1005.35,47.2441 
  "/>
<polyline clip-path="url(#clip7002)" style="stroke:#000000; stroke-width:2; stroke-opacity:0.1; fill:none" points="
  1479.11,1486.45 1479.11,47.2441 
  "/>
<polyline clip-path="url(#clip7002)" style="stroke:#000000; stroke-width:2; stroke-opacity:0.1; fill:none" points="
  1952.88,1486.45 1952.88,47.2441 
  "/>
<polyline clip-path="url(#clip7002)" style="stroke:#000000; stroke-width:2; stroke-opacity:0.1; fill:none" points="
  145.904,1158.84 2352.76,1158.84 
  "/>
<polyline clip-path="url(#clip7002)" style="stroke:#000000; stroke-width:2; stroke-opacity:0.1; fill:none" points="
  145.904,827.352 2352.76,827.352 
  "/>
<polyline clip-path="url(#clip7002)" style="stroke:#000000; stroke-width:2; stroke-opacity:0.1; fill:none" points="
  145.904,495.866 2352.76,495.866 
  "/>
<polyline clip-path="url(#clip7002)" style="stroke:#000000; stroke-width:2; stroke-opacity:0.1; fill:none" points="
  145.904,164.379 2352.76,164.379 
  "/>
<polyline clip-path="url(#clip7000)" style="stroke:#000000; stroke-width:4; stroke-opacity:1; fill:none" points="
  145.904,1486.45 2352.76,1486.45 
  "/>
<polyline clip-path="url(#clip7000)" style="stroke:#000000; stroke-width:4; stroke-opacity:1; fill:none" points="
  145.904,1486.45 145.904,47.2441 
  "/>
<polyline clip-path="url(#clip7000)" style="stroke:#000000; stroke-width:4; stroke-opacity:1; fill:none" points="
  531.58,1486.45 531.58,1469.18 
  "/>
<polyline clip-path="url(#clip7000)" style="stroke:#000000; stroke-width:4; stroke-opacity:1; fill:none" points="
  1005.35,1486.45 1005.35,1469.18 
  "/>
<polyline clip-path="url(#clip7000)" style="stroke:#000000; stroke-width:4; stroke-opacity:1; fill:none" points="
  1479.11,1486.45 1479.11,1469.18 
  "/>
<polyline clip-path="url(#clip7000)" style="stroke:#000000; stroke-width:4; stroke-opacity:1; fill:none" points="
  1952.88,1486.45 1952.88,1469.18 
  "/>
<polyline clip-path="url(#clip7000)" style="stroke:#000000; stroke-width:4; stroke-opacity:1; fill:none" points="
  145.904,1158.84 172.386,1158.84 
  "/>
<polyline clip-path="url(#clip7000)" style="stroke:#000000; stroke-width:4; stroke-opacity:1; fill:none" points="
  145.904,827.352 172.386,827.352 
  "/>
<polyline clip-path="url(#clip7000)" style="stroke:#000000; stroke-width:4; stroke-opacity:1; fill:none" points="
  145.904,495.866 172.386,495.866 
  "/>
<polyline clip-path="url(#clip7000)" style="stroke:#000000; stroke-width:4; stroke-opacity:1; fill:none" points="
  145.904,164.379 172.386,164.379 
  "/>
<path clip-path="url(#clip7000)" d="M 0 0 M495.539 1535.98 L511.858 1535.98 L511.858 1539.92 L489.914 1539.92 L489.914 1535.98 Q492.576 1533.23 497.159 1528.6 Q501.766 1523.95 502.946 1522.61 Q505.192 1520.08 506.071 1518.35 Q506.974 1516.59 506.974 1514.9 Q506.974 1512.14 505.03 1510.41 Q503.108 1508.67 500.006 1508.67 Q497.807 1508.67 495.354 1509.43 Q492.923 1510.2 490.145 1511.75 L490.145 1507.03 Q492.969 1505.89 495.423 1505.31 Q497.877 1504.73 499.914 1504.73 Q505.284 1504.73 508.479 1507.42 Q511.673 1510.11 511.673 1514.6 Q511.673 1516.73 510.863 1518.65 Q510.076 1520.54 507.969 1523.14 Q507.391 1523.81 504.289 1527.03 Q501.187 1530.22 495.539 1535.98 Z" fill="#000000" fill-rule="evenodd" fill-opacity="1" /><path clip-path="url(#clip7000)" d="M 0 0 M516.928 1534.04 L521.812 1534.04 L521.812 1539.92 L516.928 1539.92 L516.928 1534.04 Z" fill="#000000" fill-rule="evenodd" fill-opacity="1" /><path clip-path="url(#clip7000)" d="M 0 0 M530.909 1535.98 L547.228 1535.98 L547.228 1539.92 L525.284 1539.92 L525.284 1535.98 Q527.946 1533.23 532.529 1528.6 Q537.136 1523.95 538.316 1522.61 Q540.562 1520.08 541.441 1518.35 Q542.344 1516.59 542.344 1514.9 Q542.344 1512.14 540.4 1510.41 Q538.479 1508.67 535.377 1508.67 Q533.178 1508.67 530.724 1509.43 Q528.293 1510.2 525.516 1511.75 L525.516 1507.03 Q528.34 1505.89 530.793 1505.31 Q533.247 1504.73 535.284 1504.73 Q540.654 1504.73 543.849 1507.42 Q547.043 1510.11 547.043 1514.6 Q547.043 1516.73 546.233 1518.65 Q545.446 1520.54 543.34 1523.14 Q542.761 1523.81 539.659 1527.03 Q536.557 1530.22 530.909 1535.98 Z" fill="#000000" fill-rule="evenodd" fill-opacity="1" /><path clip-path="url(#clip7000)" d="M 0 0 M552.344 1505.36 L570.701 1505.36 L570.701 1509.3 L556.627 1509.3 L556.627 1517.77 Q557.645 1517.42 558.664 1517.26 Q559.682 1517.07 560.701 1517.07 Q566.488 1517.07 569.867 1520.24 Q573.247 1523.42 573.247 1528.83 Q573.247 1534.41 569.775 1537.51 Q566.302 1540.59 559.983 1540.59 Q557.807 1540.59 555.539 1540.22 Q553.293 1539.85 550.886 1539.11 L550.886 1534.41 Q552.969 1535.54 555.191 1536.1 Q557.414 1536.66 559.89 1536.66 Q563.895 1536.66 566.233 1534.55 Q568.571 1532.44 568.571 1528.83 Q568.571 1525.22 566.233 1523.11 Q563.895 1521.01 559.89 1521.01 Q558.015 1521.01 556.14 1521.42 Q554.289 1521.84 552.344 1522.72 L552.344 1505.36 Z" fill="#000000" fill-rule="evenodd" fill-opacity="1" /><path clip-path="url(#clip7000)" d="M 0 0 M968.505 1535.98 L984.825 1535.98 L984.825 1539.92 L962.88 1539.92 L962.88 1535.98 Q965.542 1533.23 970.126 1528.6 Q974.732 1523.95 975.913 1522.61 Q978.158 1520.08 979.038 1518.35 Q979.94 1516.59 979.94 1514.9 Q979.94 1512.14 977.996 1510.41 Q976.075 1508.67 972.973 1508.67 Q970.774 1508.67 968.32 1509.43 Q965.89 1510.2 963.112 1511.75 L963.112 1507.03 Q965.936 1505.89 968.39 1505.31 Q970.843 1504.73 972.88 1504.73 Q978.251 1504.73 981.445 1507.42 Q984.639 1510.11 984.639 1514.6 Q984.639 1516.73 983.829 1518.65 Q983.042 1520.54 980.936 1523.14 Q980.357 1523.81 977.255 1527.03 Q974.153 1530.22 968.505 1535.98 Z" fill="#000000" fill-rule="evenodd" fill-opacity="1" /><path clip-path="url(#clip7000)" d="M 0 0 M989.894 1534.04 L994.778 1534.04 L994.778 1539.92 L989.894 1539.92 L989.894 1534.04 Z" fill="#000000" fill-rule="evenodd" fill-opacity="1" /><path clip-path="url(#clip7000)" d="M 0 0 M999.894 1505.36 L1018.25 1505.36 L1018.25 1509.3 L1004.18 1509.3 L1004.18 1517.77 Q1005.19 1517.42 1006.21 1517.26 Q1007.23 1517.07 1008.25 1517.07 Q1014.04 1517.07 1017.42 1520.24 Q1020.8 1523.42 1020.8 1528.83 Q1020.8 1534.41 1017.32 1537.51 Q1013.85 1540.59 1007.53 1540.59 Q1005.36 1540.59 1003.09 1540.22 Q1000.84 1539.85 998.436 1539.11 L998.436 1534.41 Q1000.52 1535.54 1002.74 1536.1 Q1004.96 1536.66 1007.44 1536.66 Q1011.44 1536.66 1013.78 1534.55 Q1016.12 1532.44 1016.12 1528.83 Q1016.12 1525.22 1013.78 1523.11 Q1011.44 1521.01 1007.44 1521.01 Q1005.57 1521.01 1003.69 1521.42 Q1001.84 1521.84 999.894 1522.72 L999.894 1505.36 Z" fill="#000000" fill-rule="evenodd" fill-opacity="1" /><path clip-path="url(#clip7000)" d="M 0 0 M1035.87 1508.44 Q1032.25 1508.44 1030.43 1512 Q1028.62 1515.55 1028.62 1522.67 Q1028.62 1529.78 1030.43 1533.35 Q1032.25 1536.89 1035.87 1536.89 Q1039.5 1536.89 1041.31 1533.35 Q1043.13 1529.78 1043.13 1522.67 Q1043.13 1515.55 1041.31 1512 Q1039.5 1508.44 1035.87 1508.44 M1035.87 1504.73 Q1041.68 1504.73 1044.73 1509.34 Q1047.81 1513.92 1047.81 1522.67 Q1047.81 1531.4 1044.73 1536.01 Q1041.68 1540.59 1035.87 1540.59 Q1030.06 1540.59 1026.98 1536.01 Q1023.92 1531.4 1023.92 1522.67 Q1023.92 1513.92 1026.98 1509.34 Q1030.06 1504.73 1035.87 1504.73 Z" fill="#000000" fill-rule="evenodd" fill-opacity="1" /><path clip-path="url(#clip7000)" d="M 0 0 M1442.72 1535.98 L1459.04 1535.98 L1459.04 1539.92 L1437.1 1539.92 L1437.1 1535.98 Q1439.76 1533.23 1444.34 1528.6 Q1448.95 1523.95 1450.13 1522.61 Q1452.37 1520.08 1453.25 1518.35 Q1454.16 1516.59 1454.16 1514.9 Q1454.16 1512.14 1452.21 1510.41 Q1450.29 1508.67 1447.19 1508.67 Q1444.99 1508.67 1442.54 1509.43 Q1440.11 1510.2 1437.33 1511.75 L1437.33 1507.03 Q1440.15 1505.89 1442.61 1505.31 Q1445.06 1504.73 1447.1 1504.73 Q1452.47 1504.73 1455.66 1507.42 Q1458.86 1510.11 1458.86 1514.6 Q1458.86 1516.73 1458.05 1518.65 Q1457.26 1520.54 1455.15 1523.14 Q1454.57 1523.81 1451.47 1527.03 Q1448.37 1530.22 1442.72 1535.98 Z" fill="#000000" fill-rule="evenodd" fill-opacity="1" /><path clip-path="url(#clip7000)" d="M 0 0 M1464.11 1534.04 L1468.99 1534.04 L1468.99 1539.92 L1464.11 1539.92 L1464.11 1534.04 Z" fill="#000000" fill-rule="evenodd" fill-opacity="1" /><path clip-path="url(#clip7000)" d="M 0 0 M1472.88 1505.36 L1495.11 1505.36 L1495.11 1507.35 L1482.56 1539.92 L1477.68 1539.92 L1489.48 1509.3 L1472.88 1509.3 L1472.88 1505.36 Z" fill="#000000" fill-rule="evenodd" fill-opacity="1" /><path clip-path="url(#clip7000)" d="M 0 0 M1500.22 1505.36 L1518.58 1505.36 L1518.58 1509.3 L1504.5 1509.3 L1504.5 1517.77 Q1505.52 1517.42 1506.54 1517.26 Q1507.56 1517.07 1508.58 1517.07 Q1514.36 1517.07 1517.74 1520.24 Q1521.12 1523.42 1521.12 1528.83 Q1521.12 1534.41 1517.65 1537.51 Q1514.18 1540.59 1507.86 1540.59 Q1505.68 1540.59 1503.42 1540.22 Q1501.17 1539.85 1498.76 1539.11 L1498.76 1534.41 Q1500.85 1535.54 1503.07 1536.1 Q1505.29 1536.66 1507.77 1536.66 Q1511.77 1536.66 1514.11 1534.55 Q1516.45 1532.44 1516.45 1528.83 Q1516.45 1525.22 1514.11 1523.11 Q1511.77 1521.01 1507.77 1521.01 Q1505.89 1521.01 1504.02 1521.42 Q1502.17 1521.84 1500.22 1522.72 L1500.22 1505.36 Z" fill="#000000" fill-rule="evenodd" fill-opacity="1" /><path clip-path="url(#clip7000)" d="M 0 0 M1925.13 1521.29 Q1928.49 1522 1930.36 1524.27 Q1932.26 1526.54 1932.26 1529.87 Q1932.26 1534.99 1928.74 1537.79 Q1925.22 1540.59 1918.74 1540.59 Q1916.57 1540.59 1914.25 1540.15 Q1911.96 1539.73 1909.51 1538.88 L1909.51 1534.36 Q1911.45 1535.5 1913.77 1536.08 Q1916.08 1536.66 1918.6 1536.66 Q1923 1536.66 1925.29 1534.92 Q1927.61 1533.18 1927.61 1529.87 Q1927.61 1526.82 1925.46 1525.11 Q1923.33 1523.37 1919.51 1523.37 L1915.48 1523.37 L1915.48 1519.53 L1919.69 1519.53 Q1923.14 1519.53 1924.97 1518.16 Q1926.8 1516.77 1926.8 1514.18 Q1926.8 1511.52 1924.9 1510.11 Q1923.03 1508.67 1919.51 1508.67 Q1917.59 1508.67 1915.39 1509.09 Q1913.19 1509.5 1910.55 1510.38 L1910.55 1506.22 Q1913.21 1505.48 1915.53 1505.11 Q1917.86 1504.73 1919.92 1504.73 Q1925.25 1504.73 1928.35 1507.17 Q1931.45 1509.57 1931.45 1513.69 Q1931.45 1516.56 1929.81 1518.55 Q1928.16 1520.52 1925.13 1521.29 Z" fill="#000000" fill-rule="evenodd" fill-opacity="1" /><path clip-path="url(#clip7000)" d="M 0 0 M1937.33 1534.04 L1942.22 1534.04 L1942.22 1539.92 L1937.33 1539.92 L1937.33 1534.04 Z" fill="#000000" fill-rule="evenodd" fill-opacity="1" /><path clip-path="url(#clip7000)" d="M 0 0 M1957.28 1508.44 Q1953.67 1508.44 1951.85 1512 Q1950.04 1515.55 1950.04 1522.67 Q1950.04 1529.78 1951.85 1533.35 Q1953.67 1536.89 1957.28 1536.89 Q1960.92 1536.89 1962.72 1533.35 Q1964.55 1529.78 1964.55 1522.67 Q1964.55 1515.55 1962.72 1512 Q1960.92 1508.44 1957.28 1508.44 M1957.28 1504.73 Q1963.1 1504.73 1966.15 1509.34 Q1969.23 1513.92 1969.23 1522.67 Q1969.23 1531.4 1966.15 1536.01 Q1963.1 1540.59 1957.28 1540.59 Q1951.47 1540.59 1948.4 1536.01 Q1945.34 1531.4 1945.34 1522.67 Q1945.34 1513.92 1948.4 1509.34 Q1951.47 1504.73 1957.28 1504.73 Z" fill="#000000" fill-rule="evenodd" fill-opacity="1" /><path clip-path="url(#clip7000)" d="M 0 0 M1984.3 1508.44 Q1980.69 1508.44 1978.86 1512 Q1977.05 1515.55 1977.05 1522.67 Q1977.05 1529.78 1978.86 1533.35 Q1980.69 1536.89 1984.3 1536.89 Q1987.93 1536.89 1989.74 1533.35 Q1991.57 1529.78 1991.57 1522.67 Q1991.57 1515.55 1989.74 1512 Q1987.93 1508.44 1984.3 1508.44 M1984.3 1504.73 Q1990.11 1504.73 1993.16 1509.34 Q1996.24 1513.92 1996.24 1522.67 Q1996.24 1531.4 1993.16 1536.01 Q1990.11 1540.59 1984.3 1540.59 Q1978.49 1540.59 1975.41 1536.01 Q1972.35 1531.4 1972.35 1522.67 Q1972.35 1513.92 1975.41 1509.34 Q1978.49 1504.73 1984.3 1504.73 Z" fill="#000000" fill-rule="evenodd" fill-opacity="1" /><path clip-path="url(#clip7000)" d="M 0 0 M65.0292 1172.18 L72.668 1172.18 L72.668 1145.82 L64.3579 1147.48 L64.3579 1143.23 L72.6217 1141.56 L77.2976 1141.56 L77.2976 1172.18 L84.9365 1172.18 L84.9365 1176.12 L65.0292 1176.12 L65.0292 1172.18 Z" fill="#000000" fill-rule="evenodd" fill-opacity="1" /><path clip-path="url(#clip7000)" d="M 0 0 M90.0059 1170.24 L94.8901 1170.24 L94.8901 1176.12 L90.0059 1176.12 L90.0059 1170.24 Z" fill="#000000" fill-rule="evenodd" fill-opacity="1" /><path clip-path="url(#clip7000)" d="M 0 0 M109.959 1144.64 Q106.348 1144.64 104.52 1148.2 Q102.714 1151.74 102.714 1158.87 Q102.714 1165.98 104.52 1169.54 Q106.348 1173.09 109.959 1173.09 Q113.594 1173.09 115.399 1169.54 Q117.228 1165.98 117.228 1158.87 Q117.228 1151.74 115.399 1148.2 Q113.594 1144.64 109.959 1144.64 M109.959 1140.93 Q115.77 1140.93 118.825 1145.54 Q121.904 1150.12 121.904 1158.87 Q121.904 1167.6 118.825 1172.21 Q115.77 1176.79 109.959 1176.79 Q104.149 1176.79 101.071 1172.21 Q98.0151 1167.6 98.0151 1158.87 Q98.0151 1150.12 101.071 1145.54 Q104.149 1140.93 109.959 1140.93 Z" fill="#000000" fill-rule="evenodd" fill-opacity="1" /><path clip-path="url(#clip7000)" d="M 0 0 M66.0245 840.697 L73.6634 840.697 L73.6634 814.331 L65.3532 815.998 L65.3532 811.739 L73.6171 810.072 L78.293 810.072 L78.293 840.697 L85.9318 840.697 L85.9318 844.632 L66.0245 844.632 L66.0245 840.697 Z" fill="#000000" fill-rule="evenodd" fill-opacity="1" /><path clip-path="url(#clip7000)" d="M 0 0 M91.0012 838.753 L95.8855 838.753 L95.8855 844.632 L91.0012 844.632 L91.0012 838.753 Z" fill="#000000" fill-rule="evenodd" fill-opacity="1" /><path clip-path="url(#clip7000)" d="M 0 0 M101.001 810.072 L119.358 810.072 L119.358 814.007 L105.284 814.007 L105.284 822.48 Q106.302 822.132 107.321 821.97 Q108.339 821.785 109.358 821.785 Q115.145 821.785 118.524 824.956 Q121.904 828.128 121.904 833.544 Q121.904 839.123 118.432 842.225 Q114.959 845.304 108.64 845.304 Q106.464 845.304 104.196 844.933 Q101.95 844.563 99.5429 843.822 L99.5429 839.123 Q101.626 840.257 103.848 840.813 Q106.071 841.368 108.547 841.368 Q112.552 841.368 114.89 839.262 Q117.228 837.155 117.228 833.544 Q117.228 829.933 114.89 827.827 Q112.552 825.72 108.547 825.72 Q106.672 825.72 104.797 826.137 Q102.946 826.554 101.001 827.433 L101.001 810.072 Z" fill="#000000" fill-rule="evenodd" fill-opacity="1" /><path clip-path="url(#clip7000)" d="M 0 0 M68.6171 509.211 L84.9365 509.211 L84.9365 513.146 L62.9921 513.146 L62.9921 509.211 Q65.6541 506.456 70.2375 501.826 Q74.8439 497.174 76.0245 495.831 Q78.2698 493.308 79.1494 491.572 Q80.0522 489.812 80.0522 488.123 Q80.0522 485.368 78.1078 483.632 Q76.1865 481.896 73.0847 481.896 Q70.8856 481.896 68.4319 482.66 Q66.0014 483.424 63.2236 484.975 L63.2236 480.252 Q66.0477 479.118 68.5014 478.539 Q70.955 477.961 72.9921 477.961 Q78.3624 477.961 81.5568 480.646 Q84.7513 483.331 84.7513 487.822 Q84.7513 489.951 83.9411 491.873 Q83.1541 493.771 81.0476 496.363 Q80.4689 497.035 77.367 500.252 Q74.2652 503.447 68.6171 509.211 Z" fill="#000000" fill-rule="evenodd" fill-opacity="1" /><path clip-path="url(#clip7000)" d="M 0 0 M90.0059 507.266 L94.8901 507.266 L94.8901 513.146 L90.0059 513.146 L90.0059 507.266 Z" fill="#000000" fill-rule="evenodd" fill-opacity="1" /><path clip-path="url(#clip7000)" d="M 0 0 M109.959 481.664 Q106.348 481.664 104.52 485.229 Q102.714 488.771 102.714 495.9 Q102.714 503.007 104.52 506.572 Q106.348 510.113 109.959 510.113 Q113.594 510.113 115.399 506.572 Q117.228 503.007 117.228 495.9 Q117.228 488.771 115.399 485.229 Q113.594 481.664 109.959 481.664 M109.959 477.961 Q115.77 477.961 118.825 482.567 Q121.904 487.15 121.904 495.9 Q121.904 504.627 118.825 509.234 Q115.77 513.817 109.959 513.817 Q104.149 513.817 101.071 509.234 Q98.0151 504.627 98.0151 495.9 Q98.0151 487.15 101.071 482.567 Q104.149 477.961 109.959 477.961 Z" fill="#000000" fill-rule="evenodd" fill-opacity="1" /><path clip-path="url(#clip7000)" d="M 0 0 M69.6125 177.724 L85.9318 177.724 L85.9318 181.659 L63.9875 181.659 L63.9875 177.724 Q66.6495 174.969 71.2328 170.34 Q75.8393 165.687 77.0198 164.344 Q79.2652 161.821 80.1448 160.085 Q81.0476 158.326 81.0476 156.636 Q81.0476 153.881 79.1032 152.145 Q77.1819 150.409 74.08 150.409 Q71.881 150.409 69.4273 151.173 Q66.9967 151.937 64.219 153.488 L64.219 148.766 Q67.043 147.631 69.4967 147.053 Q71.9504 146.474 73.9874 146.474 Q79.3578 146.474 82.5522 149.159 Q85.7466 151.844 85.7466 156.335 Q85.7466 158.465 84.9365 160.386 Q84.1494 162.284 82.0429 164.877 Q81.4642 165.548 78.3624 168.766 Q75.2606 171.96 69.6125 177.724 Z" fill="#000000" fill-rule="evenodd" fill-opacity="1" /><path clip-path="url(#clip7000)" d="M 0 0 M91.0012 175.779 L95.8855 175.779 L95.8855 181.659 L91.0012 181.659 L91.0012 175.779 Z" fill="#000000" fill-rule="evenodd" fill-opacity="1" /><path clip-path="url(#clip7000)" d="M 0 0 M101.001 147.099 L119.358 147.099 L119.358 151.034 L105.284 151.034 L105.284 159.506 Q106.302 159.159 107.321 158.997 Q108.339 158.812 109.358 158.812 Q115.145 158.812 118.524 161.983 Q121.904 165.155 121.904 170.571 Q121.904 176.15 118.432 179.252 Q114.959 182.33 108.64 182.33 Q106.464 182.33 104.196 181.96 Q101.95 181.59 99.5429 180.849 L99.5429 176.15 Q101.626 177.284 103.848 177.84 Q106.071 178.395 108.547 178.395 Q112.552 178.395 114.89 176.289 Q117.228 174.182 117.228 170.571 Q117.228 166.96 114.89 164.854 Q112.552 162.747 108.547 162.747 Q106.672 162.747 104.797 163.164 Q102.946 163.58 101.001 164.46 L101.001 147.099 Z" fill="#000000" fill-rule="evenodd" fill-opacity="1" /><polyline clip-path="url(#clip7002)" style="stroke:#009af9; stroke-width:4; stroke-opacity:1; fill:none" points="
  208.362,1445.72 976.743,996.656 1521.92,683.383 2290.3,87.9763 
  "/>
<path clip-path="url(#clip7000)" d="
M1989.74 251.724 L2280.76 251.724 L2280.76 130.764 L1989.74 130.764  Z
  " fill="#ffffff" fill-rule="evenodd" fill-opacity="1"/>
<polyline clip-path="url(#clip7000)" style="stroke:#000000; stroke-width:4; stroke-opacity:1; fill:none" points="
  1989.74,251.724 2280.76,251.724 2280.76,130.764 1989.74,130.764 1989.74,251.724 
  "/>
<polyline clip-path="url(#clip7000)" style="stroke:#009af9; stroke-width:4; stroke-opacity:1; fill:none" points="
  2013.74,191.244 2157.74,191.244 
  "/>
<path clip-path="url(#clip7000)" d="M 0 0 M2195.58 210.931 Q2193.77 215.561 2192.06 216.973 Q2190.35 218.385 2187.48 218.385 L2184.08 218.385 L2184.08 214.82 L2186.58 214.82 Q2188.33 214.82 2189.31 213.987 Q2190.28 213.154 2191.46 210.052 L2192.22 208.107 L2181.74 182.598 L2186.25 182.598 L2194.35 202.876 L2202.46 182.598 L2206.97 182.598 L2195.58 210.931 Z" fill="#000000" fill-rule="evenodd" fill-opacity="1" /><path clip-path="url(#clip7000)" d="M 0 0 M2212.85 204.589 L2220.49 204.589 L2220.49 178.223 L2212.18 179.89 L2212.18 175.631 L2220.44 173.964 L2225.12 173.964 L2225.12 204.589 L2232.76 204.589 L2232.76 208.524 L2212.85 208.524 L2212.85 204.589 Z" fill="#000000" fill-rule="evenodd" fill-opacity="1" /></svg>
