<?xml version="1.0" encoding="utf-8"?>
<svg xmlns="http://www.w3.org/2000/svg" xmlns:xlink="http://www.w3.org/1999/xlink" width="600" height="400" viewBox="0 0 2400 1600">
<defs>
  <clipPath id="clip6600">
    <rect x="0" y="0" width="2400" height="1600"/>
  </clipPath>
</defs>
<path clip-path="url(#clip6600)" d="
M0 1600 L2400 1600 L2400 0 L0 0  Z
  " fill="#ffffff" fill-rule="evenodd" fill-opacity="1"/>
<defs>
  <clipPath id="clip6601">
    <rect x="480" y="0" width="1681" height="1600"/>
  </clipPath>
</defs>
<path clip-path="url(#clip6600)" d="
M239.426 1423.18 L2352.76 1423.18 L2352.76 123.472 L239.426 123.472  Z
  " fill="#ffffff" fill-rule="evenodd" fill-opacity="1"/>
<defs>
  <clipPath id="clip6602">
    <rect x="239" y="123" width="2114" height="1301"/>
  </clipPath>
</defs>
<polyline clip-path="url(#clip6602)" style="stroke:#000000; stroke-width:2; stroke-opacity:0.1; fill:none" points="
  458.734,1423.18 458.734,123.472 
  "/>
<polyline clip-path="url(#clip6602)" style="stroke:#000000; stroke-width:2; stroke-opacity:0.1; fill:none" points="
  937.224,1423.18 937.224,123.472 
  "/>
<polyline clip-path="url(#clip6602)" style="stroke:#000000; stroke-width:2; stroke-opacity:0.1; fill:none" points="
  1415.71,1423.18 1415.71,123.472 
  "/>
<polyline clip-path="url(#clip6602)" style="stroke:#000000; stroke-width:2; stroke-opacity:0.1; fill:none" points="
  1894.2,1423.18 1894.2,123.472 
  "/>
<polyline clip-path="url(#clip6602)" style="stroke:#000000; stroke-width:2; stroke-opacity:0.1; fill:none" points="
  239.426,1189.79 2352.76,1189.79 
  "/>
<polyline clip-path="url(#clip6602)" style="stroke:#000000; stroke-width:2; stroke-opacity:0.1; fill:none" points="
  239.426,924.391 2352.76,924.391 
  "/>
<polyline clip-path="url(#clip6602)" style="stroke:#000000; stroke-width:2; stroke-opacity:0.1; fill:none" points="
  239.426,658.992 2352.76,658.992 
  "/>
<polyline clip-path="url(#clip6602)" style="stroke:#000000; stroke-width:2; stroke-opacity:0.1; fill:none" points="
  239.426,393.594 2352.76,393.594 
  "/>
<polyline clip-path="url(#clip6602)" style="stroke:#000000; stroke-width:2; stroke-opacity:0.1; fill:none" points="
  239.426,128.196 2352.76,128.196 
  "/>
<polyline clip-path="url(#clip6600)" style="stroke:#000000; stroke-width:4; stroke-opacity:1; fill:none" points="
  239.426,1423.18 2352.76,1423.18 
  "/>
<polyline clip-path="url(#clip6600)" style="stroke:#000000; stroke-width:4; stroke-opacity:1; fill:none" points="
  239.426,1423.18 239.426,123.472 
  "/>
<polyline clip-path="url(#clip6600)" style="stroke:#000000; stroke-width:4; stroke-opacity:1; fill:none" points="
  458.734,1423.18 458.734,1407.58 
  "/>
<polyline clip-path="url(#clip6600)" style="stroke:#000000; stroke-width:4; stroke-opacity:1; fill:none" points="
  937.224,1423.18 937.224,1407.58 
  "/>
<polyline clip-path="url(#clip6600)" style="stroke:#000000; stroke-width:4; stroke-opacity:1; fill:none" points="
  1415.71,1423.18 1415.71,1407.58 
  "/>
<polyline clip-path="url(#clip6600)" style="stroke:#000000; stroke-width:4; stroke-opacity:1; fill:none" points="
  1894.2,1423.18 1894.2,1407.58 
  "/>
<polyline clip-path="url(#clip6600)" style="stroke:#000000; stroke-width:4; stroke-opacity:1; fill:none" points="
  239.426,1189.79 264.786,1189.79 
  "/>
<polyline clip-path="url(#clip6600)" style="stroke:#000000; stroke-width:4; stroke-opacity:1; fill:none" points="
  239.426,924.391 264.786,924.391 
  "/>
<polyline clip-path="url(#clip6600)" style="stroke:#000000; stroke-width:4; stroke-opacity:1; fill:none" points="
  239.426,658.992 264.786,658.992 
  "/>
<polyline clip-path="url(#clip6600)" style="stroke:#000000; stroke-width:4; stroke-opacity:1; fill:none" points="
  239.426,393.594 264.786,393.594 
  "/>
<polyline clip-path="url(#clip6600)" style="stroke:#000000; stroke-width:4; stroke-opacity:1; fill:none" points="
  239.426,128.196 264.786,128.196 
  "/>
<path clip-path="url(#clip6600)" d="M 0 0 M435.517 1472.72 L451.836 1472.72 L451.836 1476.65 L429.892 1476.65 L429.892 1472.72 Q432.554 1469.96 437.137 1465.33 Q441.743 1460.68 442.924 1459.34 Q445.169 1456.81 446.049 1455.08 Q446.952 1453.32 446.952 1451.63 Q446.952 1448.87 445.007 1447.14 Q443.086 1445.4 439.984 1445.4 Q437.785 1445.4 435.331 1446.17 Q432.901 1446.93 430.123 1448.48 L430.123 1443.76 Q432.947 1442.62 435.401 1442.05 Q437.855 1441.47 439.892 1441.47 Q445.262 1441.47 448.456 1444.15 Q451.651 1446.84 451.651 1451.33 Q451.651 1453.46 450.841 1455.38 Q450.054 1457.28 447.947 1459.87 Q447.368 1460.54 444.267 1463.76 Q441.165 1466.95 435.517 1472.72 Z" fill="#000000" fill-rule="evenodd" fill-opacity="1" /><path clip-path="url(#clip6600)" d="M 0 0 M456.905 1470.77 L461.79 1470.77 L461.79 1476.65 L456.905 1476.65 L456.905 1470.77 Z" fill="#000000" fill-rule="evenodd" fill-opacity="1" /><path clip-path="url(#clip6600)" d="M 0 0 M467.669 1472.72 L475.308 1472.72 L475.308 1446.35 L466.998 1448.02 L466.998 1443.76 L475.262 1442.09 L479.938 1442.09 L479.938 1472.72 L487.577 1472.72 L487.577 1476.65 L467.669 1476.65 L467.669 1472.72 Z" fill="#000000" fill-rule="evenodd" fill-opacity="1" /><path clip-path="url(#clip6600)" d="M 0 0 M913.15 1472.72 L929.469 1472.72 L929.469 1476.65 L907.525 1476.65 L907.525 1472.72 Q910.187 1469.96 914.77 1465.33 Q919.377 1460.68 920.557 1459.34 Q922.803 1456.81 923.682 1455.08 Q924.585 1453.32 924.585 1451.63 Q924.585 1448.87 922.641 1447.14 Q920.719 1445.4 917.617 1445.4 Q915.418 1445.4 912.965 1446.17 Q910.534 1446.93 907.756 1448.48 L907.756 1443.76 Q910.58 1442.62 913.034 1442.05 Q915.488 1441.47 917.525 1441.47 Q922.895 1441.47 926.09 1444.15 Q929.284 1446.84 929.284 1451.33 Q929.284 1453.46 928.474 1455.38 Q927.687 1457.28 925.58 1459.87 Q925.002 1460.54 921.9 1463.76 Q918.798 1466.95 913.15 1472.72 Z" fill="#000000" fill-rule="evenodd" fill-opacity="1" /><path clip-path="url(#clip6600)" d="M 0 0 M934.539 1470.77 L939.423 1470.77 L939.423 1476.65 L934.539 1476.65 L934.539 1470.77 Z" fill="#000000" fill-rule="evenodd" fill-opacity="1" /><path clip-path="url(#clip6600)" d="M 0 0 M957.339 1446.17 L945.534 1464.61 L957.339 1464.61 L957.339 1446.17 M956.113 1442.09 L961.992 1442.09 L961.992 1464.61 L966.923 1464.61 L966.923 1468.5 L961.992 1468.5 L961.992 1476.65 L957.339 1476.65 L957.339 1468.5 L941.738 1468.5 L941.738 1463.99 L956.113 1442.09 Z" fill="#000000" fill-rule="evenodd" fill-opacity="1" /><path clip-path="url(#clip6600)" d="M 0 0 M1392.33 1472.72 L1408.65 1472.72 L1408.65 1476.65 L1386.71 1476.65 L1386.71 1472.72 Q1389.37 1469.96 1393.95 1465.33 Q1398.56 1460.68 1399.74 1459.34 Q1401.99 1456.81 1402.87 1455.08 Q1403.77 1453.32 1403.77 1451.63 Q1403.77 1448.87 1401.82 1447.14 Q1399.9 1445.4 1396.8 1445.4 Q1394.6 1445.4 1392.15 1446.17 Q1389.72 1446.93 1386.94 1448.48 L1386.94 1443.76 Q1389.76 1442.62 1392.22 1442.05 Q1394.67 1441.47 1396.71 1441.47 Q1402.08 1441.47 1405.27 1444.15 Q1408.47 1446.84 1408.47 1451.33 Q1408.47 1453.46 1407.66 1455.38 Q1406.87 1457.28 1404.76 1459.87 Q1404.19 1460.54 1401.08 1463.76 Q1397.98 1466.95 1392.33 1472.72 Z" fill="#000000" fill-rule="evenodd" fill-opacity="1" /><path clip-path="url(#clip6600)" d="M 0 0 M1413.72 1470.77 L1418.61 1470.77 L1418.61 1476.65 L1413.72 1476.65 L1413.72 1470.77 Z" fill="#000000" fill-rule="evenodd" fill-opacity="1" /><path clip-path="url(#clip6600)" d="M 0 0 M1422.5 1442.09 L1444.72 1442.09 L1444.72 1444.08 L1432.17 1476.65 L1427.29 1476.65 L1439.09 1446.03 L1422.5 1446.03 L1422.5 1442.09 Z" fill="#000000" fill-rule="evenodd" fill-opacity="1" /><path clip-path="url(#clip6600)" d="M 0 0 M1879.97 1458.02 Q1883.32 1458.74 1885.2 1461 Q1887.1 1463.27 1887.1 1466.61 Q1887.1 1471.72 1883.58 1474.52 Q1880.06 1477.32 1873.58 1477.32 Q1871.4 1477.32 1869.09 1476.88 Q1866.8 1476.47 1864.34 1475.61 L1864.34 1471.1 Q1866.29 1472.23 1868.6 1472.81 Q1870.92 1473.39 1873.44 1473.39 Q1877.84 1473.39 1880.13 1471.65 Q1882.44 1469.92 1882.44 1466.61 Q1882.44 1463.55 1880.29 1461.84 Q1878.16 1460.1 1874.34 1460.1 L1870.31 1460.1 L1870.31 1456.26 L1874.53 1456.26 Q1877.98 1456.26 1879.81 1454.89 Q1881.63 1453.5 1881.63 1450.91 Q1881.63 1448.25 1879.74 1446.84 Q1877.86 1445.4 1874.34 1445.4 Q1872.42 1445.4 1870.22 1445.82 Q1868.02 1446.24 1865.38 1447.11 L1865.38 1442.95 Q1868.05 1442.21 1870.36 1441.84 Q1872.7 1441.47 1874.76 1441.47 Q1880.08 1441.47 1883.18 1443.9 Q1886.29 1446.3 1886.29 1450.43 Q1886.29 1453.3 1884.64 1455.29 Q1883 1457.25 1879.97 1458.02 Z" fill="#000000" fill-rule="evenodd" fill-opacity="1" /><path clip-path="url(#clip6600)" d="M 0 0 M1892.17 1470.77 L1897.05 1470.77 L1897.05 1476.65 L1892.17 1476.65 L1892.17 1470.77 Z" fill="#000000" fill-rule="evenodd" fill-opacity="1" /><path clip-path="url(#clip6600)" d="M 0 0 M1912.12 1445.17 Q1908.51 1445.17 1906.68 1448.74 Q1904.87 1452.28 1904.87 1459.41 Q1904.87 1466.51 1906.68 1470.08 Q1908.51 1473.62 1912.12 1473.62 Q1915.75 1473.62 1917.56 1470.08 Q1919.39 1466.51 1919.39 1459.41 Q1919.39 1452.28 1917.56 1448.74 Q1915.75 1445.17 1912.12 1445.17 M1912.12 1441.47 Q1917.93 1441.47 1920.99 1446.07 Q1924.06 1450.66 1924.06 1459.41 Q1924.06 1468.13 1920.99 1472.74 Q1917.93 1477.32 1912.12 1477.32 Q1906.31 1477.32 1903.23 1472.74 Q1900.18 1468.13 1900.18 1459.41 Q1900.18 1450.66 1903.23 1446.07 Q1906.31 1441.47 1912.12 1441.47 Z" fill="#000000" fill-rule="evenodd" fill-opacity="1" /><path clip-path="url(#clip6600)" d="M 0 0 M144.316 1188.43 Q147.672 1189.15 149.547 1191.42 Q151.445 1193.69 151.445 1197.02 Q151.445 1202.14 147.927 1204.94 Q144.408 1207.74 137.927 1207.74 Q135.751 1207.74 133.436 1207.3 Q131.144 1206.88 128.691 1206.03 L128.691 1201.51 Q130.635 1202.65 132.95 1203.23 Q135.265 1203.8 137.788 1203.8 Q142.186 1203.8 144.478 1202.07 Q146.792 1200.33 146.792 1197.02 Q146.792 1193.97 144.64 1192.25 Q142.51 1190.52 138.691 1190.52 L134.663 1190.52 L134.663 1186.68 L138.876 1186.68 Q142.325 1186.68 144.154 1185.31 Q145.982 1183.92 145.982 1181.33 Q145.982 1178.67 144.084 1177.25 Q142.209 1175.82 138.691 1175.82 Q136.769 1175.82 134.57 1176.24 Q132.371 1176.65 129.732 1177.53 L129.732 1173.37 Q132.394 1172.62 134.709 1172.25 Q137.047 1171.88 139.107 1171.88 Q144.431 1171.88 147.533 1174.31 Q150.635 1176.72 150.635 1180.84 Q150.635 1183.71 148.992 1185.7 Q147.348 1187.67 144.316 1188.43 Z" fill="#000000" fill-rule="evenodd" fill-opacity="1" /><path clip-path="url(#clip6600)" d="M 0 0 M156.515 1201.19 L161.399 1201.19 L161.399 1207.07 L156.515 1207.07 L156.515 1201.19 Z" fill="#000000" fill-rule="evenodd" fill-opacity="1" /><path clip-path="url(#clip6600)" d="M 0 0 M176.468 1175.59 Q172.857 1175.59 171.028 1179.15 Q169.223 1182.69 169.223 1189.82 Q169.223 1196.93 171.028 1200.49 Q172.857 1204.04 176.468 1204.04 Q180.102 1204.04 181.908 1200.49 Q183.737 1196.93 183.737 1189.82 Q183.737 1182.69 181.908 1179.15 Q180.102 1175.59 176.468 1175.59 M176.468 1171.88 Q182.278 1171.88 185.334 1176.49 Q188.413 1181.07 188.413 1189.82 Q188.413 1198.55 185.334 1203.16 Q182.278 1207.74 176.468 1207.74 Q170.658 1207.74 167.579 1203.16 Q164.524 1198.55 164.524 1189.82 Q164.524 1181.07 167.579 1176.49 Q170.658 1171.88 176.468 1171.88 Z" fill="#000000" fill-rule="evenodd" fill-opacity="1" /><path clip-path="url(#clip6600)" d="M 0 0 M203.482 1175.59 Q199.871 1175.59 198.042 1179.15 Q196.237 1182.69 196.237 1189.82 Q196.237 1196.93 198.042 1200.49 Q199.871 1204.04 203.482 1204.04 Q207.116 1204.04 208.922 1200.49 Q210.75 1196.93 210.75 1189.82 Q210.75 1182.69 208.922 1179.15 Q207.116 1175.59 203.482 1175.59 M203.482 1171.88 Q209.292 1171.88 212.348 1176.49 Q215.426 1181.07 215.426 1189.82 Q215.426 1198.55 212.348 1203.16 Q209.292 1207.74 203.482 1207.74 Q197.672 1207.74 194.593 1203.16 Q191.538 1198.55 191.538 1189.82 Q191.538 1181.07 194.593 1176.49 Q197.672 1171.88 203.482 1171.88 Z" fill="#000000" fill-rule="evenodd" fill-opacity="1" /><path clip-path="url(#clip6600)" d="M 0 0 M146.908 923.036 Q150.265 923.754 152.14 926.023 Q154.038 928.291 154.038 931.624 Q154.038 936.74 150.519 939.541 Q147.001 942.342 140.519 942.342 Q138.343 942.342 136.029 941.902 Q133.737 941.485 131.283 940.629 L131.283 936.115 Q133.228 937.249 135.543 937.828 Q137.857 938.407 140.38 938.407 Q144.779 938.407 147.07 936.671 Q149.385 934.935 149.385 931.624 Q149.385 928.569 147.232 926.856 Q145.103 925.12 141.283 925.12 L137.255 925.12 L137.255 921.277 L141.468 921.277 Q144.917 921.277 146.746 919.911 Q148.575 918.523 148.575 915.93 Q148.575 913.268 146.677 911.856 Q144.802 910.421 141.283 910.421 Q139.362 910.421 137.163 910.837 Q134.964 911.254 132.325 912.134 L132.325 907.967 Q134.987 907.226 137.302 906.856 Q139.64 906.486 141.7 906.486 Q147.024 906.486 150.126 908.916 Q153.228 911.324 153.228 915.444 Q153.228 918.314 151.584 920.305 Q149.941 922.273 146.908 923.036 Z" fill="#000000" fill-rule="evenodd" fill-opacity="1" /><path clip-path="url(#clip6600)" d="M 0 0 M159.107 935.791 L163.991 935.791 L163.991 941.671 L159.107 941.671 L159.107 935.791 Z" fill="#000000" fill-rule="evenodd" fill-opacity="1" /><path clip-path="url(#clip6600)" d="M 0 0 M173.089 937.735 L189.408 937.735 L189.408 941.671 L167.464 941.671 L167.464 937.735 Q170.126 934.981 174.709 930.351 Q179.315 925.698 180.496 924.356 Q182.741 921.833 183.621 920.097 Q184.524 918.337 184.524 916.648 Q184.524 913.893 182.579 912.157 Q180.658 910.421 177.556 910.421 Q175.357 910.421 172.903 911.185 Q170.473 911.949 167.695 913.499 L167.695 908.777 Q170.519 907.643 172.973 907.064 Q175.427 906.486 177.464 906.486 Q182.834 906.486 186.028 909.171 Q189.223 911.856 189.223 916.347 Q189.223 918.476 188.413 920.398 Q187.626 922.296 185.519 924.888 Q184.94 925.56 181.839 928.777 Q178.737 931.972 173.089 937.735 Z" fill="#000000" fill-rule="evenodd" fill-opacity="1" /><path clip-path="url(#clip6600)" d="M 0 0 M194.524 907.111 L212.88 907.111 L212.88 911.046 L198.806 911.046 L198.806 919.518 Q199.825 919.171 200.843 919.009 Q201.862 918.823 202.88 918.823 Q208.667 918.823 212.047 921.995 Q215.426 925.166 215.426 930.583 Q215.426 936.161 211.954 939.263 Q208.482 942.342 202.163 942.342 Q199.987 942.342 197.718 941.972 Q195.473 941.601 193.065 940.86 L193.065 936.161 Q195.149 937.296 197.371 937.851 Q199.593 938.407 202.07 938.407 Q206.075 938.407 208.412 936.3 Q210.75 934.194 210.75 930.583 Q210.75 926.972 208.412 924.865 Q206.075 922.759 202.07 922.759 Q200.195 922.759 198.32 923.175 Q196.468 923.592 194.524 924.472 L194.524 907.111 Z" fill="#000000" fill-rule="evenodd" fill-opacity="1" /><path clip-path="url(#clip6600)" d="M 0 0 M145.311 657.638 Q148.667 658.356 150.542 660.624 Q152.441 662.893 152.441 666.226 Q152.441 671.342 148.922 674.143 Q145.404 676.944 138.922 676.944 Q136.746 676.944 134.431 676.504 Q132.14 676.087 129.686 675.231 L129.686 670.717 Q131.63 671.851 133.945 672.43 Q136.26 673.009 138.783 673.009 Q143.181 673.009 145.473 671.272 Q147.788 669.536 147.788 666.226 Q147.788 663.171 145.635 661.458 Q143.505 659.722 139.686 659.722 L135.658 659.722 L135.658 655.879 L139.871 655.879 Q143.32 655.879 145.149 654.513 Q146.978 653.124 146.978 650.532 Q146.978 647.87 145.08 646.458 Q143.205 645.023 139.686 645.023 Q137.765 645.023 135.566 645.439 Q133.367 645.856 130.728 646.736 L130.728 642.569 Q133.39 641.828 135.705 641.458 Q138.043 641.087 140.103 641.087 Q145.427 641.087 148.529 643.518 Q151.63 645.925 151.63 650.046 Q151.63 652.916 149.987 654.907 Q148.343 656.874 145.311 657.638 Z" fill="#000000" fill-rule="evenodd" fill-opacity="1" /><path clip-path="url(#clip6600)" d="M 0 0 M157.51 670.393 L162.394 670.393 L162.394 676.272 L157.51 676.272 L157.51 670.393 Z" fill="#000000" fill-rule="evenodd" fill-opacity="1" /><path clip-path="url(#clip6600)" d="M 0 0 M167.51 641.712 L185.866 641.712 L185.866 645.648 L171.792 645.648 L171.792 654.12 Q172.811 653.773 173.829 653.611 Q174.848 653.425 175.866 653.425 Q181.653 653.425 185.033 656.597 Q188.413 659.768 188.413 665.185 Q188.413 670.763 184.94 673.865 Q181.468 676.944 175.149 676.944 Q172.973 676.944 170.704 676.573 Q168.459 676.203 166.052 675.462 L166.052 670.763 Q168.135 671.897 170.357 672.453 Q172.579 673.009 175.056 673.009 Q179.061 673.009 181.399 670.902 Q183.737 668.796 183.737 665.185 Q183.737 661.573 181.399 659.467 Q179.061 657.361 175.056 657.361 Q173.181 657.361 171.306 657.777 Q169.454 658.194 167.51 659.073 L167.51 641.712 Z" fill="#000000" fill-rule="evenodd" fill-opacity="1" /><path clip-path="url(#clip6600)" d="M 0 0 M203.482 644.791 Q199.871 644.791 198.042 648.356 Q196.237 651.898 196.237 659.027 Q196.237 666.134 198.042 669.698 Q199.871 673.24 203.482 673.24 Q207.116 673.24 208.922 669.698 Q210.75 666.134 210.75 659.027 Q210.75 651.898 208.922 648.356 Q207.116 644.791 203.482 644.791 M203.482 641.087 Q209.292 641.087 212.348 645.694 Q215.426 650.277 215.426 659.027 Q215.426 667.754 212.348 672.36 Q209.292 676.944 203.482 676.944 Q197.672 676.944 194.593 672.36 Q191.538 667.754 191.538 659.027 Q191.538 650.277 194.593 645.694 Q197.672 641.087 203.482 641.087 Z" fill="#000000" fill-rule="evenodd" fill-opacity="1" /><path clip-path="url(#clip6600)" d="M 0 0 M146.214 392.24 Q149.57 392.958 151.445 395.226 Q153.343 397.495 153.343 400.828 Q153.343 405.944 149.825 408.745 Q146.306 411.546 139.825 411.546 Q137.649 411.546 135.334 411.106 Q133.043 410.689 130.589 409.833 L130.589 405.319 Q132.533 406.453 134.848 407.032 Q137.163 407.61 139.686 407.61 Q144.084 407.61 146.376 405.874 Q148.691 404.138 148.691 400.828 Q148.691 397.773 146.538 396.06 Q144.408 394.324 140.589 394.324 L136.561 394.324 L136.561 390.481 L140.774 390.481 Q144.223 390.481 146.052 389.115 Q147.88 387.726 147.88 385.134 Q147.88 382.472 145.982 381.06 Q144.107 379.625 140.589 379.625 Q138.667 379.625 136.468 380.041 Q134.269 380.458 131.63 381.337 L131.63 377.171 Q134.293 376.43 136.607 376.06 Q138.945 375.689 141.005 375.689 Q146.329 375.689 149.431 378.12 Q152.533 380.527 152.533 384.648 Q152.533 387.518 150.89 389.509 Q149.246 391.476 146.214 392.24 Z" fill="#000000" fill-rule="evenodd" fill-opacity="1" /><path clip-path="url(#clip6600)" d="M 0 0 M158.413 404.995 L163.297 404.995 L163.297 410.874 L158.413 410.874 L158.413 404.995 Z" fill="#000000" fill-rule="evenodd" fill-opacity="1" /><path clip-path="url(#clip6600)" d="M 0 0 M167.186 376.314 L189.408 376.314 L189.408 378.305 L176.862 410.874 L171.978 410.874 L183.783 380.25 L167.186 380.25 L167.186 376.314 Z" fill="#000000" fill-rule="evenodd" fill-opacity="1" /><path clip-path="url(#clip6600)" d="M 0 0 M194.524 376.314 L212.88 376.314 L212.88 380.25 L198.806 380.25 L198.806 388.722 Q199.825 388.374 200.843 388.212 Q201.862 388.027 202.88 388.027 Q208.667 388.027 212.047 391.199 Q215.426 394.37 215.426 399.786 Q215.426 405.365 211.954 408.467 Q208.482 411.546 202.163 411.546 Q199.987 411.546 197.718 411.175 Q195.473 410.805 193.065 410.064 L193.065 405.365 Q195.149 406.499 197.371 407.055 Q199.593 407.61 202.07 407.61 Q206.075 407.61 208.412 405.504 Q210.75 403.398 210.75 399.786 Q210.75 396.175 208.412 394.069 Q206.075 391.962 202.07 391.962 Q200.195 391.962 198.32 392.379 Q196.468 392.796 194.524 393.675 L194.524 376.314 Z" fill="#000000" fill-rule="evenodd" fill-opacity="1" /><path clip-path="url(#clip6600)" d="M 0 0 M141.862 114.99 L130.056 133.439 L141.862 133.439 L141.862 114.99 M140.635 110.916 L146.515 110.916 L146.515 133.439 L151.445 133.439 L151.445 137.328 L146.515 137.328 L146.515 145.476 L141.862 145.476 L141.862 137.328 L126.26 137.328 L126.26 132.814 L140.635 110.916 Z" fill="#000000" fill-rule="evenodd" fill-opacity="1" /><path clip-path="url(#clip6600)" d="M 0 0 M156.515 139.597 L161.399 139.597 L161.399 145.476 L156.515 145.476 L156.515 139.597 Z" fill="#000000" fill-rule="evenodd" fill-opacity="1" /><path clip-path="url(#clip6600)" d="M 0 0 M176.468 113.995 Q172.857 113.995 171.028 117.56 Q169.223 121.101 169.223 128.231 Q169.223 135.337 171.028 138.902 Q172.857 142.444 176.468 142.444 Q180.102 142.444 181.908 138.902 Q183.737 135.337 183.737 128.231 Q183.737 121.101 181.908 117.56 Q180.102 113.995 176.468 113.995 M176.468 110.291 Q182.278 110.291 185.334 114.898 Q188.413 119.481 188.413 128.231 Q188.413 136.958 185.334 141.564 Q182.278 146.148 176.468 146.148 Q170.658 146.148 167.579 141.564 Q164.524 136.958 164.524 128.231 Q164.524 119.481 167.579 114.898 Q170.658 110.291 176.468 110.291 Z" fill="#000000" fill-rule="evenodd" fill-opacity="1" /><path clip-path="url(#clip6600)" d="M 0 0 M203.482 113.995 Q199.871 113.995 198.042 117.56 Q196.237 121.101 196.237 128.231 Q196.237 135.337 198.042 138.902 Q199.871 142.444 203.482 142.444 Q207.116 142.444 208.922 138.902 Q210.75 135.337 210.75 128.231 Q210.75 121.101 208.922 117.56 Q207.116 113.995 203.482 113.995 M203.482 110.291 Q209.292 110.291 212.348 114.898 Q215.426 119.481 215.426 128.231 Q215.426 136.958 212.348 141.564 Q209.292 146.148 203.482 146.148 Q197.672 146.148 194.593 141.564 Q191.538 136.958 191.538 128.231 Q191.538 119.481 194.593 114.898 Q197.672 110.291 203.482 110.291 Z" fill="#000000" fill-rule="evenodd" fill-opacity="1" /><path clip-path="url(#clip6600)" d="M 0 0 M1004.91 16.7545 L1004.91 25.383 Q1000.78 21.5346 996.081 19.6307 Q991.423 17.7268 986.156 17.7268 Q975.786 17.7268 970.277 24.0867 Q964.768 30.4061 964.768 42.3968 Q964.768 54.3469 970.277 60.7069 Q975.786 67.0263 986.156 67.0263 Q991.423 67.0263 996.081 65.1223 Q1000.78 63.2184 1004.91 59.3701 L1004.91 67.9175 Q1000.62 70.8341 995.798 72.2924 Q991.018 73.7508 985.67 73.7508 Q971.938 73.7508 964.039 65.3654 Q956.139 56.9395 956.139 42.3968 Q956.139 27.8135 964.039 19.4281 Q971.938 11.0023 985.67 11.0023 Q991.099 11.0023 995.879 12.4606 Q1000.7 13.8784 1004.91 16.7545 Z" fill="#000000" fill-rule="evenodd" fill-opacity="1" /><path clip-path="url(#clip6600)" d="M 0 0 M1048.05 35.9153 Q1050.85 30.8922 1054.74 28.5022 Q1058.63 26.1121 1063.89 26.1121 Q1070.98 26.1121 1074.83 31.0947 Q1078.68 36.0368 1078.68 45.1919 L1078.68 72.576 L1071.18 72.576 L1071.18 45.4349 Q1071.18 38.913 1068.88 35.7533 Q1066.57 32.5936 1061.83 32.5936 Q1056.03 32.5936 1052.67 36.4419 Q1049.31 40.2903 1049.31 46.9338 L1049.31 72.576 L1041.82 72.576 L1041.82 45.4349 Q1041.82 38.8725 1039.51 35.7533 Q1037.2 32.5936 1032.38 32.5936 Q1026.67 32.5936 1023.3 36.4824 Q1019.94 40.3308 1019.94 46.9338 L1019.94 72.576 L1012.45 72.576 L1012.45 27.2059 L1019.94 27.2059 L1019.94 34.2544 Q1022.49 30.082 1026.06 28.0971 Q1029.62 26.1121 1034.52 26.1121 Q1039.47 26.1121 1042.91 28.6237 Q1046.39 31.1352 1048.05 35.9153 Z" fill="#000000" fill-rule="evenodd" fill-opacity="1" /><path clip-path="url(#clip6600)" d="M 0 0 M1107.12 49.7694 Q1098.08 49.7694 1094.6 51.8354 Q1091.12 53.9013 1091.12 58.8839 Q1091.12 62.8538 1093.71 65.2034 Q1096.34 67.5124 1100.84 67.5124 Q1107.04 67.5124 1110.76 63.1374 Q1114.53 58.7219 1114.53 51.4303 L1114.53 49.7694 L1107.12 49.7694 M1121.98 46.6907 L1121.98 72.576 L1114.53 72.576 L1114.53 65.6895 Q1111.98 69.8214 1108.17 71.8063 Q1104.36 73.7508 1098.85 73.7508 Q1091.89 73.7508 1087.75 69.8619 Q1083.66 65.9325 1083.66 59.3701 Q1083.66 51.7138 1088.77 47.825 Q1093.91 43.9361 1104.08 43.9361 L1114.53 43.9361 L1114.53 43.2069 Q1114.53 38.0623 1111.13 35.2672 Q1107.76 32.4315 1101.65 32.4315 Q1097.76 32.4315 1094.07 33.3632 Q1090.39 34.295 1086.98 36.1584 L1086.98 29.2718 Q1091.07 27.692 1094.92 26.9223 Q1098.77 26.1121 1102.42 26.1121 Q1112.26 26.1121 1117.12 31.2163 Q1121.98 36.3204 1121.98 46.6907 Z" fill="#000000" fill-rule="evenodd" fill-opacity="1" /><path clip-path="url(#clip6600)" d="M 0 0 M1167.52 27.2059 L1151.11 49.2833 L1168.37 72.576 L1159.58 72.576 L1146.37 54.752 L1133.16 72.576 L1124.37 72.576 L1141.99 48.8377 L1125.87 27.2059 L1134.66 27.2059 L1146.69 43.369 L1158.72 27.2059 L1167.52 27.2059 Z" fill="#000000" fill-rule="evenodd" fill-opacity="1" /><path clip-path="url(#clip6600)" d="M 0 0 M1194.09 9.62495 Q1188.66 18.942 1186.03 28.0566 Q1183.39 37.1711 1183.39 46.5287 Q1183.39 55.8863 1186.03 65.0818 Q1188.7 74.2369 1194.09 83.5134 L1187.61 83.5134 Q1181.53 73.9938 1178.49 64.7983 Q1175.5 55.6027 1175.5 46.5287 Q1175.5 37.4952 1178.49 28.3401 Q1181.49 19.1851 1187.61 9.62495 L1194.09 9.62495 Z" fill="#000000" fill-rule="evenodd" fill-opacity="1" /><path clip-path="url(#clip6600)" d="M 0 0 M1202.23 12.096 L1210.41 12.096 L1210.41 65.6895 L1239.86 65.6895 L1239.86 72.576 L1202.23 72.576 L1202.23 12.096 Z" fill="#000000" fill-rule="evenodd" fill-opacity="1" /><path clip-path="url(#clip6600)" d="M 0 0 M1246.51 9.62495 L1252.99 9.62495 Q1259.07 19.1851 1262.06 28.3401 Q1265.1 37.4952 1265.1 46.5287 Q1265.1 55.6027 1262.06 64.7983 Q1259.07 73.9938 1252.99 83.5134 L1246.51 83.5134 Q1251.9 74.2369 1254.53 65.0818 Q1257.2 55.8863 1257.2 46.5287 Q1257.2 37.1711 1254.53 28.0566 Q1251.9 18.942 1246.51 9.62495 Z" fill="#000000" fill-rule="evenodd" fill-opacity="1" /><path clip-path="url(#clip6600)" d="M 0 0 M1293.94 27.2059 L1301.84 27.2059 L1316.02 65.2844 L1330.2 27.2059 L1338.1 27.2059 L1321.09 72.576 L1310.96 72.576 L1293.94 27.2059 Z" fill="#000000" fill-rule="evenodd" fill-opacity="1" /><path clip-path="url(#clip6600)" d="M 0 0 M1374.84 28.5427 L1374.84 35.5912 Q1371.68 33.9709 1368.28 33.1607 Q1364.88 32.3505 1361.23 32.3505 Q1355.68 32.3505 1352.88 34.0519 Q1350.13 35.7533 1350.13 39.156 Q1350.13 41.7486 1352.12 43.2475 Q1354.1 44.7058 1360.1 46.0426 L1362.65 46.6097 Q1370.59 48.3111 1373.91 51.4303 Q1377.27 54.509 1377.27 60.0587 Q1377.27 66.3781 1372.25 70.0644 Q1367.27 73.7508 1358.52 73.7508 Q1354.87 73.7508 1350.9 73.0216 Q1346.97 72.3329 1342.6 70.9151 L1342.6 63.2184 Q1346.73 65.3654 1350.74 66.4591 Q1354.75 67.5124 1358.68 67.5124 Q1363.94 67.5124 1366.78 65.73 Q1369.62 63.9071 1369.62 60.6258 Q1369.62 57.5877 1367.55 55.9673 Q1365.52 54.3469 1358.6 52.8481 L1356 52.2405 Q1349.08 50.7821 1346 47.7845 Q1342.92 44.7463 1342.92 39.4801 Q1342.92 33.0797 1347.46 29.5959 Q1351.99 26.1121 1360.34 26.1121 Q1364.47 26.1121 1368.12 26.7198 Q1371.76 27.3274 1374.84 28.5427 Z" fill="#000000" fill-rule="evenodd" fill-opacity="1" /><path clip-path="url(#clip6600)" d="M 0 0 M1411.78 12.096 L1419.97 12.096 L1419.97 65.6895 L1449.42 65.6895 L1449.42 72.576 L1411.78 72.576 L1411.78 12.096 Z" fill="#000000" fill-rule="evenodd" fill-opacity="1" /><path clip-path="url(#clip6600)" d="M 0 0 M1473.36 32.4315 Q1467.36 32.4315 1463.88 37.1306 Q1460.4 41.7891 1460.4 49.9314 Q1460.4 58.0738 1463.84 62.7728 Q1467.32 67.4314 1473.36 67.4314 Q1479.31 67.4314 1482.8 62.7323 Q1486.28 58.0333 1486.28 49.9314 Q1486.28 41.8701 1482.8 37.1711 Q1479.31 32.4315 1473.36 32.4315 M1473.36 26.1121 Q1483.08 26.1121 1488.63 32.4315 Q1494.18 38.7509 1494.18 49.9314 Q1494.18 61.0714 1488.63 67.4314 Q1483.08 73.7508 1473.36 73.7508 Q1463.6 73.7508 1458.05 67.4314 Q1452.54 61.0714 1452.54 49.9314 Q1452.54 38.7509 1458.05 32.4315 Q1463.6 26.1121 1473.36 26.1121 Z" fill="#000000" fill-rule="evenodd" fill-opacity="1" /><path clip-path="url(#clip6600)" d="M 0 0 M1531.85 49.3643 Q1531.85 41.2625 1528.49 36.8065 Q1525.17 32.3505 1519.13 32.3505 Q1513.14 32.3505 1509.78 36.8065 Q1506.45 41.2625 1506.45 49.3643 Q1506.45 57.4256 1509.78 61.8816 Q1513.14 66.3376 1519.13 66.3376 Q1525.17 66.3376 1528.49 61.8816 Q1531.85 57.4256 1531.85 49.3643 M1539.31 66.9452 Q1539.31 78.5308 1534.16 84.1616 Q1529.02 89.8329 1518.4 89.8329 Q1514.48 89.8329 1510.99 89.2252 Q1507.51 88.6581 1504.23 87.4428 L1504.23 80.1917 Q1507.51 81.9741 1510.71 82.8248 Q1513.91 83.6755 1517.23 83.6755 Q1524.56 83.6755 1528.21 79.8271 Q1531.85 76.0193 1531.85 68.282 L1531.85 64.5957 Q1529.54 68.6061 1525.94 70.5911 Q1522.33 72.576 1517.31 72.576 Q1508.97 72.576 1503.86 66.2161 Q1498.76 59.8562 1498.76 49.3643 Q1498.76 38.832 1503.86 32.472 Q1508.97 26.1121 1517.31 26.1121 Q1522.33 26.1121 1525.94 28.0971 Q1529.54 30.082 1531.85 34.0924 L1531.85 27.2059 L1539.31 27.2059 L1539.31 66.9452 Z" fill="#000000" fill-rule="evenodd" fill-opacity="1" /><path clip-path="url(#clip6600)" d="M 0 0 M1565.03 9.62495 Q1559.6 18.942 1556.97 28.0566 Q1554.34 37.1711 1554.34 46.5287 Q1554.34 55.8863 1556.97 65.0818 Q1559.64 74.2369 1565.03 83.5134 L1558.55 83.5134 Q1552.47 73.9938 1549.43 64.7983 Q1546.44 55.6027 1546.44 46.5287 Q1546.44 37.4952 1549.43 28.3401 Q1552.43 19.1851 1558.55 9.62495 L1565.03 9.62495 Z" fill="#000000" fill-rule="evenodd" fill-opacity="1" /><path clip-path="url(#clip6600)" d="M 0 0 M1573.17 12.096 L1581.36 12.096 L1581.36 65.6895 L1610.81 65.6895 L1610.81 72.576 L1573.17 72.576 L1573.17 12.096 Z" fill="#000000" fill-rule="evenodd" fill-opacity="1" /><path clip-path="url(#clip6600)" d="M 0 0 M1617.45 9.62495 L1623.93 9.62495 Q1630.01 19.1851 1633 28.3401 Q1636.04 37.4952 1636.04 46.5287 Q1636.04 55.6027 1633 64.7983 Q1630.01 73.9938 1623.93 83.5134 L1617.45 83.5134 Q1622.84 74.2369 1625.47 65.0818 Q1628.14 55.8863 1628.14 46.5287 Q1628.14 37.1711 1625.47 28.0566 Q1622.84 18.942 1617.45 9.62495 Z" fill="#000000" fill-rule="evenodd" fill-opacity="1" /><path clip-path="url(#clip6600)" d="M 0 0 M1207.99 1508.52 L1214.42 1508.52 L1214.42 1550.63 L1237.56 1550.63 L1237.56 1556.04 L1207.99 1556.04 L1207.99 1508.52 Z" fill="#000000" fill-rule="evenodd" fill-opacity="1" /><path clip-path="url(#clip6600)" d="M 0 0 M1256.37 1524.5 Q1251.66 1524.5 1248.92 1528.19 Q1246.18 1531.85 1246.18 1538.25 Q1246.18 1544.65 1248.89 1548.34 Q1251.63 1552 1256.37 1552 Q1261.05 1552 1263.79 1548.31 Q1266.52 1544.62 1266.52 1538.25 Q1266.52 1531.92 1263.79 1528.23 Q1261.05 1524.5 1256.37 1524.5 M1256.37 1519.54 Q1264.01 1519.54 1268.37 1524.5 Q1272.73 1529.47 1272.73 1538.25 Q1272.73 1547 1268.37 1552 Q1264.01 1556.97 1256.37 1556.97 Q1248.7 1556.97 1244.34 1552 Q1240.01 1547 1240.01 1538.25 Q1240.01 1529.47 1244.34 1524.5 Q1248.7 1519.54 1256.37 1519.54 Z" fill="#000000" fill-rule="evenodd" fill-opacity="1" /><path clip-path="url(#clip6600)" d="M 0 0 M1302.33 1537.81 Q1302.33 1531.44 1299.69 1527.94 Q1297.08 1524.44 1292.34 1524.44 Q1287.62 1524.44 1284.98 1527.94 Q1282.37 1531.44 1282.37 1537.81 Q1282.37 1544.14 1284.98 1547.64 Q1287.62 1551.14 1292.34 1551.14 Q1297.08 1551.14 1299.69 1547.64 Q1302.33 1544.14 1302.33 1537.81 M1308.19 1551.62 Q1308.19 1560.72 1304.14 1565.15 Q1300.1 1569.6 1291.76 1569.6 Q1288.68 1569.6 1285.94 1569.13 Q1283.2 1568.68 1280.62 1567.72 L1280.62 1562.03 Q1283.2 1563.43 1285.72 1564.1 Q1288.23 1564.76 1290.84 1564.76 Q1296.6 1564.76 1299.46 1561.74 Q1302.33 1558.75 1302.33 1552.67 L1302.33 1549.77 Q1300.52 1552.92 1297.68 1554.48 Q1294.85 1556.04 1290.9 1556.04 Q1284.35 1556.04 1280.34 1551.05 Q1276.33 1546.05 1276.33 1537.81 Q1276.33 1529.53 1280.34 1524.53 Q1284.35 1519.54 1290.9 1519.54 Q1294.85 1519.54 1297.68 1521.1 Q1300.52 1522.66 1302.33 1525.81 L1302.33 1520.4 L1308.19 1520.4 L1308.19 1551.62 Z" fill="#000000" fill-rule="evenodd" fill-opacity="1" /><path clip-path="url(#clip6600)" d="M 0 0 M1328.4 1506.58 Q1324.13 1513.9 1322.06 1521.06 Q1319.99 1528.23 1319.99 1535.58 Q1319.99 1542.93 1322.06 1550.16 Q1324.16 1557.35 1328.4 1564.64 L1323.3 1564.64 Q1318.53 1557.16 1316.14 1549.93 Q1313.79 1542.71 1313.79 1535.58 Q1313.79 1528.48 1316.14 1521.29 Q1318.5 1514.09 1323.3 1506.58 L1328.4 1506.58 Z" fill="#000000" fill-rule="evenodd" fill-opacity="1" /><path clip-path="url(#clip6600)" d="M 0 0 M1334.79 1508.52 L1341.22 1508.52 L1341.22 1550.63 L1364.36 1550.63 L1364.36 1556.04 L1334.79 1556.04 L1334.79 1508.52 Z" fill="#000000" fill-rule="evenodd" fill-opacity="1" /><path clip-path="url(#clip6600)" d="M 0 0 M1369.58 1506.58 L1374.68 1506.58 Q1379.45 1514.09 1381.81 1521.29 Q1384.19 1528.48 1384.19 1535.58 Q1384.19 1542.71 1381.81 1549.93 Q1379.45 1557.16 1374.68 1564.64 L1369.58 1564.64 Q1373.82 1557.35 1375.89 1550.16 Q1377.99 1542.93 1377.99 1535.58 Q1377.99 1528.23 1375.89 1521.06 Q1373.82 1513.9 1369.58 1506.58 Z" fill="#000000" fill-rule="evenodd" fill-opacity="1" /><path clip-path="url(#clip6600)" d="M 0 0 M44.1444 818.379 L50.9239 818.379 Q47.9002 821.626 46.4043 825.318 Q44.9083 828.978 44.9083 833.116 Q44.9083 841.264 49.9054 845.593 Q54.8707 849.921 64.2919 849.921 Q73.6813 849.921 78.6784 845.593 Q83.6436 841.264 83.6436 833.116 Q83.6436 828.978 82.1477 825.318 Q80.6518 821.626 77.6281 818.379 L84.3439 818.379 Q86.6355 821.753 87.7814 825.541 Q88.9272 829.296 88.9272 833.498 Q88.9272 844.288 82.3387 850.494 Q75.7183 856.701 64.2919 856.701 Q52.8336 856.701 46.2451 850.494 Q39.6248 844.288 39.6248 833.498 Q39.6248 829.233 40.7706 825.477 Q41.8846 821.689 44.1444 818.379 Z" fill="#000000" fill-rule="evenodd" fill-opacity="1" /><path clip-path="url(#clip6600)" d="M 0 0 M59.1993 784.482 Q55.2526 782.286 53.3747 779.23 Q51.4968 776.175 51.4968 772.037 Q51.4968 766.467 55.4117 763.443 Q59.2948 760.42 66.4881 760.42 L88.0042 760.42 L88.0042 766.308 L66.679 766.308 Q61.5546 766.308 59.072 768.122 Q56.5894 769.936 56.5894 773.66 Q56.5894 778.212 59.6131 780.853 Q62.6368 783.495 67.8567 783.495 L88.0042 783.495 L88.0042 789.383 L66.679 789.383 Q61.5228 789.383 59.072 791.198 Q56.5894 793.012 56.5894 796.8 Q56.5894 801.287 59.6449 803.929 Q62.6686 806.571 67.8567 806.571 L88.0042 806.571 L88.0042 812.459 L52.3562 812.459 L52.3562 806.571 L57.8944 806.571 Q54.616 804.566 53.0564 801.765 Q51.4968 798.964 51.4968 795.113 Q51.4968 791.23 53.4702 788.524 Q55.4436 785.787 59.1993 784.482 Z" fill="#000000" fill-rule="evenodd" fill-opacity="1" /><path clip-path="url(#clip6600)" d="M 0 0 M70.0847 738.076 Q70.0847 745.174 71.7079 747.911 Q73.3312 750.648 77.2461 750.648 Q80.3653 750.648 82.2114 748.611 Q84.0256 746.542 84.0256 743.009 Q84.0256 738.14 80.5881 735.211 Q77.1188 732.251 71.3897 732.251 L70.0847 732.251 L70.0847 738.076 M67.6657 726.395 L88.0042 726.395 L88.0042 732.251 L82.5933 732.251 Q85.8398 734.256 87.3994 737.248 Q88.9272 740.24 88.9272 744.569 Q88.9272 750.043 85.8716 753.29 Q82.7843 756.505 77.6281 756.505 Q71.6125 756.505 68.5569 752.494 Q65.5014 748.452 65.5014 740.463 L65.5014 732.251 L64.9285 732.251 Q60.8862 732.251 58.6901 734.925 Q56.4621 737.567 56.4621 742.373 Q56.4621 745.428 57.1941 748.325 Q57.9262 751.221 59.3903 753.895 L53.9795 753.895 Q52.7381 750.68 52.1334 747.656 Q51.4968 744.633 51.4968 741.768 Q51.4968 734.034 55.5072 730.214 Q59.5176 726.395 67.6657 726.395 Z" fill="#000000" fill-rule="evenodd" fill-opacity="1" /><path clip-path="url(#clip6600)" d="M 0 0 M52.3562 690.62 L69.7028 703.51 L88.0042 689.951 L88.0042 696.858 L73.9996 707.234 L88.0042 717.61 L88.0042 724.517 L69.3526 710.672 L52.3562 723.339 L52.3562 716.432 L65.0558 706.979 L52.3562 697.526 L52.3562 690.62 Z" fill="#000000" fill-rule="evenodd" fill-opacity="1" /><circle clip-path="url(#clip6602)" cx="425.944" cy="1262.9" r="7" fill="#009af9" fill-rule="evenodd" fill-opacity="1" stroke="#000000" stroke-opacity="1" stroke-width="0.96"/>
<circle clip-path="url(#clip6602)" cx="1072.65" cy="1057.61" r="7" fill="#009af9" fill-rule="evenodd" fill-opacity="1" stroke="#000000" stroke-opacity="1" stroke-width="0.96"/>
<circle clip-path="url(#clip6602)" cx="1531.49" cy="495.487" r="7" fill="#009af9" fill-rule="evenodd" fill-opacity="1" stroke="#000000" stroke-opacity="1" stroke-width="0.96"/>
<circle clip-path="url(#clip6602)" cx="2178.19" cy="258.076" r="7" fill="#009af9" fill-rule="evenodd" fill-opacity="1" stroke="#000000" stroke-opacity="1" stroke-width="0.96"/>
<polyline clip-path="url(#clip6602)" style="stroke:#e26f46; stroke-width:4; stroke-opacity:1; fill:none" points="
  299.238,1386.4 318.708,1374.42 498.738,1263.7 606.928,1197.16 698.402,1140.91 797.768,1079.8 889.375,1023.46 987.587,963.058 1101.38,893.077 1202.5,830.887 
  1291.17,776.352 1387.85,716.894 1485.1,657.082 1592.63,590.953 1694.94,528.033 1801.32,462.61 1890.86,407.538 2000.19,340.302 2102.96,277.098 2267.61,175.839 
  2292.94,160.256 
  "/>
<path clip-path="url(#clip6600)" d="
M311.426 388.432 L749.087 388.432 L749.087 206.992 L311.426 206.992  Z
  " fill="#ffffff" fill-rule="evenodd" fill-opacity="1"/>
<polyline clip-path="url(#clip6600)" style="stroke:#000000; stroke-width:4; stroke-opacity:1; fill:none" points="
  311.426,388.432 749.087,388.432 749.087,206.992 311.426,206.992 311.426,388.432 
  "/>
<circle clip-path="url(#clip6600)" cx="419.426" cy="267.472" r="21" fill="#009af9" fill-rule="evenodd" fill-opacity="1" stroke="#000000" stroke-opacity="1" stroke-width="0.96"/>
<path clip-path="url(#clip6600)" d="M 0 0 M531.297 252.854 L531.297 257.785 Q528.935 255.586 526.25 254.498 Q523.588 253.41 520.579 253.41 Q514.653 253.41 511.505 257.044 Q508.357 260.655 508.357 267.507 Q508.357 274.336 511.505 277.97 Q514.653 281.581 520.579 281.581 Q523.588 281.581 526.25 280.493 Q528.935 279.405 531.297 277.206 L531.297 282.09 Q528.843 283.757 526.088 284.59 Q523.357 285.423 520.301 285.423 Q512.454 285.423 507.94 280.632 Q503.426 275.817 503.426 267.507 Q503.426 259.174 507.94 254.382 Q512.454 249.567 520.301 249.567 Q523.403 249.567 526.135 250.4 Q528.889 251.211 531.297 252.854 Z" fill="#000000" fill-rule="evenodd" fill-opacity="1" /><path clip-path="url(#clip6600)" d="M 0 0 M555.949 263.803 Q557.546 260.933 559.769 259.567 Q561.991 258.201 565 258.201 Q569.051 258.201 571.25 261.049 Q573.449 263.873 573.449 269.104 L573.449 284.752 L569.167 284.752 L569.167 269.243 Q569.167 265.516 567.847 263.711 Q566.528 261.905 563.82 261.905 Q560.509 261.905 558.588 264.104 Q556.667 266.303 556.667 270.099 L556.667 284.752 L552.384 284.752 L552.384 269.243 Q552.384 265.493 551.065 263.711 Q549.746 261.905 546.991 261.905 Q543.727 261.905 541.806 264.127 Q539.884 266.326 539.884 270.099 L539.884 284.752 L535.602 284.752 L535.602 258.826 L539.884 258.826 L539.884 262.854 Q541.343 260.47 543.38 259.336 Q545.417 258.201 548.218 258.201 Q551.042 258.201 553.009 259.637 Q555 261.072 555.949 263.803 Z" fill="#000000" fill-rule="evenodd" fill-opacity="1" /><path clip-path="url(#clip6600)" d="M 0 0 M589.699 271.72 Q584.537 271.72 582.546 272.9 Q580.556 274.081 580.556 276.928 Q580.556 279.197 582.037 280.539 Q583.542 281.859 586.111 281.859 Q589.653 281.859 591.782 279.359 Q593.935 276.836 593.935 272.669 L593.935 271.72 L589.699 271.72 M598.194 269.961 L598.194 284.752 L593.935 284.752 L593.935 280.817 Q592.477 283.178 590.301 284.312 Q588.125 285.423 584.977 285.423 Q580.995 285.423 578.634 283.201 Q576.296 280.956 576.296 277.206 Q576.296 272.831 579.213 270.609 Q582.153 268.386 587.963 268.386 L593.935 268.386 L593.935 267.97 Q593.935 265.03 591.991 263.433 Q590.069 261.812 586.574 261.812 Q584.352 261.812 582.245 262.345 Q580.139 262.877 578.194 263.942 L578.194 260.007 Q580.532 259.104 582.731 258.664 Q584.931 258.201 587.014 258.201 Q592.639 258.201 595.417 261.118 Q598.194 264.035 598.194 269.961 Z" fill="#000000" fill-rule="evenodd" fill-opacity="1" /><path clip-path="url(#clip6600)" d="M 0 0 M624.213 258.826 L614.838 271.442 L624.699 284.752 L619.676 284.752 L612.129 274.567 L604.583 284.752 L599.56 284.752 L609.629 271.187 L600.417 258.826 L605.44 258.826 L612.315 268.062 L619.19 258.826 L624.213 258.826 Z" fill="#000000" fill-rule="evenodd" fill-opacity="1" /><polyline clip-path="url(#clip6600)" style="stroke:#e26f46; stroke-width:4; stroke-opacity:1; fill:none" points="
  335.426,327.952 479.426,327.952 
  "/>
<path clip-path="url(#clip6600)" d="M 0 0 M503.426 310.672 L523.287 310.672 L523.287 314.607 L508.102 314.607 L508.102 324.792 L521.806 324.792 L521.806 328.728 L508.102 328.728 L508.102 345.232 L503.426 345.232 L503.426 310.672 Z" fill="#000000" fill-rule="evenodd" fill-opacity="1" /><path clip-path="url(#clip6600)" d="M 0 0 M524.306 319.306 L528.565 319.306 L528.565 345.232 L524.306 345.232 L524.306 319.306 M524.306 309.214 L528.565 309.214 L528.565 314.607 L524.306 314.607 L524.306 309.214 Z" fill="#000000" fill-rule="evenodd" fill-opacity="1" /><path clip-path="url(#clip6600)" d="M 0 0 M537.246 311.945 L537.246 319.306 L546.019 319.306 L546.019 322.617 L537.246 322.617 L537.246 336.691 Q537.246 339.862 538.102 340.765 Q538.982 341.667 541.644 341.667 L546.019 341.667 L546.019 345.232 L541.644 345.232 Q536.713 345.232 534.838 343.403 Q532.963 341.552 532.963 336.691 L532.963 322.617 L529.838 322.617 L529.838 319.306 L532.963 319.306 L532.963 311.945 L537.246 311.945 Z" fill="#000000" fill-rule="evenodd" fill-opacity="1" /><path clip-path="url(#clip6600)" d="M 0 0 M554.699 311.945 L554.699 319.306 L563.472 319.306 L563.472 322.617 L554.699 322.617 L554.699 336.691 Q554.699 339.862 555.556 340.765 Q556.435 341.667 559.097 341.667 L563.472 341.667 L563.472 345.232 L559.097 345.232 Q554.167 345.232 552.292 343.403 Q550.417 341.552 550.417 336.691 L550.417 322.617 L547.292 322.617 L547.292 319.306 L550.417 319.306 L550.417 311.945 L554.699 311.945 Z" fill="#000000" fill-rule="evenodd" fill-opacity="1" /><path clip-path="url(#clip6600)" d="M 0 0 M590.116 331.204 L590.116 333.288 L570.532 333.288 Q570.81 337.686 573.171 340.001 Q575.556 342.292 579.792 342.292 Q582.245 342.292 584.537 341.69 Q586.852 341.089 589.12 339.885 L589.12 343.913 Q586.829 344.885 584.421 345.394 Q582.014 345.903 579.537 345.903 Q573.333 345.903 569.699 342.292 Q566.088 338.681 566.088 332.524 Q566.088 326.158 569.514 322.431 Q572.963 318.681 578.796 318.681 Q584.028 318.681 587.06 322.061 Q590.116 325.417 590.116 331.204 M585.856 329.954 Q585.81 326.459 583.889 324.376 Q581.991 322.292 578.843 322.292 Q575.278 322.292 573.125 324.306 Q570.995 326.32 570.671 329.978 L585.856 329.954 Z" fill="#000000" fill-rule="evenodd" fill-opacity="1" /><path clip-path="url(#clip6600)" d="M 0 0 M611.643 323.242 L611.643 309.214 L615.903 309.214 L615.903 345.232 L611.643 345.232 L611.643 341.343 Q610.301 343.658 608.241 344.792 Q606.204 345.903 603.333 345.903 Q598.634 345.903 595.671 342.153 Q592.731 338.403 592.731 332.292 Q592.731 326.181 595.671 322.431 Q598.634 318.681 603.333 318.681 Q606.204 318.681 608.241 319.816 Q610.301 320.927 611.643 323.242 M597.13 332.292 Q597.13 336.991 599.051 339.677 Q600.995 342.339 604.375 342.339 Q607.754 342.339 609.699 339.677 Q611.643 336.991 611.643 332.292 Q611.643 327.593 609.699 324.931 Q607.754 322.246 604.375 322.246 Q600.995 322.246 599.051 324.931 Q597.13 327.593 597.13 332.292 Z" fill="#000000" fill-rule="evenodd" fill-opacity="1" /><path clip-path="url(#clip6600)" d="M 0 0 M635.44 309.214 L639.699 309.214 L639.699 345.232 L635.44 345.232 L635.44 309.214 Z" fill="#000000" fill-rule="evenodd" fill-opacity="1" /><path clip-path="url(#clip6600)" d="M 0 0 M644.166 319.306 L648.426 319.306 L648.426 345.232 L644.166 345.232 L644.166 319.306 M644.166 309.214 L648.426 309.214 L648.426 314.607 L644.166 314.607 L644.166 309.214 Z" fill="#000000" fill-rule="evenodd" fill-opacity="1" /><path clip-path="url(#clip6600)" d="M 0 0 M674.444 329.584 L674.444 345.232 L670.185 345.232 L670.185 329.723 Q670.185 326.042 668.75 324.214 Q667.314 322.385 664.444 322.385 Q660.995 322.385 659.004 324.584 Q657.013 326.783 657.013 330.579 L657.013 345.232 L652.731 345.232 L652.731 319.306 L657.013 319.306 L657.013 323.334 Q658.541 320.996 660.601 319.839 Q662.685 318.681 665.393 318.681 Q669.861 318.681 672.152 321.459 Q674.444 324.214 674.444 329.584 Z" fill="#000000" fill-rule="evenodd" fill-opacity="1" /><path clip-path="url(#clip6600)" d="M 0 0 M701.087 331.204 L701.087 333.288 L681.504 333.288 Q681.782 337.686 684.143 340.001 Q686.527 342.292 690.763 342.292 Q693.217 342.292 695.509 341.69 Q697.823 341.089 700.092 339.885 L700.092 343.913 Q697.8 344.885 695.393 345.394 Q692.986 345.903 690.509 345.903 Q684.305 345.903 680.671 342.292 Q677.06 338.681 677.06 332.524 Q677.06 326.158 680.486 322.431 Q683.935 318.681 689.768 318.681 Q694.999 318.681 698.032 322.061 Q701.087 325.417 701.087 331.204 M696.828 329.954 Q696.782 326.459 694.861 324.376 Q692.962 322.292 689.814 322.292 Q686.249 322.292 684.097 324.306 Q681.967 326.32 681.643 329.978 L696.828 329.954 Z" fill="#000000" fill-rule="evenodd" fill-opacity="1" /></svg>
