<?xml version="1.0" encoding="utf-8"?>
<svg xmlns="http://www.w3.org/2000/svg" xmlns:xlink="http://www.w3.org/1999/xlink" width="600" height="400" viewBox="0 0 2400 1600">
<defs>
  <clipPath id="clip6200">
    <rect x="0" y="0" width="2400" height="1600"/>
  </clipPath>
</defs>
<path clip-path="url(#clip6200)" d="
M0 1600 L2400 1600 L2400 0 L0 0  Z
  " fill="#ffffff" fill-rule="evenodd" fill-opacity="1"/>
<defs>
  <clipPath id="clip6201">
    <rect x="480" y="0" width="1681" height="1600"/>
  </clipPath>
</defs>
<path clip-path="url(#clip6200)" d="
M209.658 1423.18 L2352.76 1423.18 L2352.76 123.472 L209.658 123.472  Z
  " fill="#ffffff" fill-rule="evenodd" fill-opacity="1"/>
<defs>
  <clipPath id="clip6202">
    <rect x="209" y="123" width="2144" height="1301"/>
  </clipPath>
</defs>
<polyline clip-path="url(#clip6202)" style="stroke:#000000; stroke-width:2; stroke-opacity:0.1; fill:none" points="
  270.312,1423.18 270.312,123.472 
  "/>
<polyline clip-path="url(#clip6202)" style="stroke:#000000; stroke-width:2; stroke-opacity:0.1; fill:none" points="
  944.242,1423.18 944.242,123.472 
  "/>
<polyline clip-path="url(#clip6202)" style="stroke:#000000; stroke-width:2; stroke-opacity:0.1; fill:none" points="
  1618.17,1423.18 1618.17,123.472 
  "/>
<polyline clip-path="url(#clip6202)" style="stroke:#000000; stroke-width:2; stroke-opacity:0.1; fill:none" points="
  2292.1,1423.18 2292.1,123.472 
  "/>
<polyline clip-path="url(#clip6202)" style="stroke:#000000; stroke-width:2; stroke-opacity:0.1; fill:none" points="
  209.658,1189.78 2352.76,1189.78 
  "/>
<polyline clip-path="url(#clip6202)" style="stroke:#000000; stroke-width:2; stroke-opacity:0.1; fill:none" points="
  209.658,936.833 2352.76,936.833 
  "/>
<polyline clip-path="url(#clip6202)" style="stroke:#000000; stroke-width:2; stroke-opacity:0.1; fill:none" points="
  209.658,683.891 2352.76,683.891 
  "/>
<polyline clip-path="url(#clip6202)" style="stroke:#000000; stroke-width:2; stroke-opacity:0.1; fill:none" points="
  209.658,430.949 2352.76,430.949 
  "/>
<polyline clip-path="url(#clip6202)" style="stroke:#000000; stroke-width:2; stroke-opacity:0.1; fill:none" points="
  209.658,178.007 2352.76,178.007 
  "/>
<polyline clip-path="url(#clip6200)" style="stroke:#000000; stroke-width:4; stroke-opacity:1; fill:none" points="
  209.658,1423.18 2352.76,1423.18 
  "/>
<polyline clip-path="url(#clip6200)" style="stroke:#000000; stroke-width:4; stroke-opacity:1; fill:none" points="
  209.658,1423.18 209.658,123.472 
  "/>
<polyline clip-path="url(#clip6200)" style="stroke:#000000; stroke-width:4; stroke-opacity:1; fill:none" points="
  270.312,1423.18 270.312,1407.58 
  "/>
<polyline clip-path="url(#clip6200)" style="stroke:#000000; stroke-width:4; stroke-opacity:1; fill:none" points="
  944.242,1423.18 944.242,1407.58 
  "/>
<polyline clip-path="url(#clip6200)" style="stroke:#000000; stroke-width:4; stroke-opacity:1; fill:none" points="
  1618.17,1423.18 1618.17,1407.58 
  "/>
<polyline clip-path="url(#clip6200)" style="stroke:#000000; stroke-width:4; stroke-opacity:1; fill:none" points="
  2292.1,1423.18 2292.1,1407.58 
  "/>
<polyline clip-path="url(#clip6200)" style="stroke:#000000; stroke-width:4; stroke-opacity:1; fill:none" points="
  209.658,1189.78 235.375,1189.78 
  "/>
<polyline clip-path="url(#clip6200)" style="stroke:#000000; stroke-width:4; stroke-opacity:1; fill:none" points="
  209.658,936.833 235.375,936.833 
  "/>
<polyline clip-path="url(#clip6200)" style="stroke:#000000; stroke-width:4; stroke-opacity:1; fill:none" points="
  209.658,683.891 235.375,683.891 
  "/>
<polyline clip-path="url(#clip6200)" style="stroke:#000000; stroke-width:4; stroke-opacity:1; fill:none" points="
  209.658,430.949 235.375,430.949 
  "/>
<polyline clip-path="url(#clip6200)" style="stroke:#000000; stroke-width:4; stroke-opacity:1; fill:none" points="
  209.658,178.007 235.375,178.007 
  "/>
<path clip-path="url(#clip6200)" d="M 0 0 M238.321 1445.17 Q234.71 1445.17 232.881 1448.74 Q231.076 1452.28 231.076 1459.41 Q231.076 1466.51 232.881 1470.08 Q234.71 1473.62 238.321 1473.62 Q241.955 1473.62 243.761 1470.08 Q245.59 1466.51 245.59 1459.41 Q245.59 1452.28 243.761 1448.74 Q241.955 1445.17 238.321 1445.17 M238.321 1441.47 Q244.131 1441.47 247.187 1446.07 Q250.266 1450.66 250.266 1459.41 Q250.266 1468.13 247.187 1472.74 Q244.131 1477.32 238.321 1477.32 Q232.511 1477.32 229.432 1472.74 Q226.377 1468.13 226.377 1459.41 Q226.377 1450.66 229.432 1446.07 Q232.511 1441.47 238.321 1441.47 Z" fill="#000000" fill-rule="evenodd" fill-opacity="1" /><path clip-path="url(#clip6200)" d="M 0 0 M255.335 1470.77 L260.219 1470.77 L260.219 1476.65 L255.335 1476.65 L255.335 1470.77 Z" fill="#000000" fill-rule="evenodd" fill-opacity="1" /><path clip-path="url(#clip6200)" d="M 0 0 M275.289 1445.17 Q271.677 1445.17 269.849 1448.74 Q268.043 1452.28 268.043 1459.41 Q268.043 1466.51 269.849 1470.08 Q271.677 1473.62 275.289 1473.62 Q278.923 1473.62 280.728 1470.08 Q282.557 1466.51 282.557 1459.41 Q282.557 1452.28 280.728 1448.74 Q278.923 1445.17 275.289 1445.17 M275.289 1441.47 Q281.099 1441.47 284.154 1446.07 Q287.233 1450.66 287.233 1459.41 Q287.233 1468.13 284.154 1472.74 Q281.099 1477.32 275.289 1477.32 Q269.478 1477.32 266.4 1472.74 Q263.344 1468.13 263.344 1459.41 Q263.344 1450.66 266.4 1446.07 Q269.478 1441.47 275.289 1441.47 Z" fill="#000000" fill-rule="evenodd" fill-opacity="1" /><path clip-path="url(#clip6200)" d="M 0 0 M302.302 1445.17 Q298.691 1445.17 296.862 1448.74 Q295.057 1452.28 295.057 1459.41 Q295.057 1466.51 296.862 1470.08 Q298.691 1473.62 302.302 1473.62 Q305.937 1473.62 307.742 1470.08 Q309.571 1466.51 309.571 1459.41 Q309.571 1452.28 307.742 1448.74 Q305.937 1445.17 302.302 1445.17 M302.302 1441.47 Q308.112 1441.47 311.168 1446.07 Q314.247 1450.66 314.247 1459.41 Q314.247 1468.13 311.168 1472.74 Q308.112 1477.32 302.302 1477.32 Q296.492 1477.32 293.413 1472.74 Q290.358 1468.13 290.358 1459.41 Q290.358 1450.66 293.413 1446.07 Q296.492 1441.47 302.302 1441.47 Z" fill="#000000" fill-rule="evenodd" fill-opacity="1" /><path clip-path="url(#clip6200)" d="M 0 0 M912.749 1445.17 Q909.138 1445.17 907.309 1448.74 Q905.504 1452.28 905.504 1459.41 Q905.504 1466.51 907.309 1470.08 Q909.138 1473.62 912.749 1473.62 Q916.383 1473.62 918.189 1470.08 Q920.017 1466.51 920.017 1459.41 Q920.017 1452.28 918.189 1448.74 Q916.383 1445.17 912.749 1445.17 M912.749 1441.47 Q918.559 1441.47 921.615 1446.07 Q924.693 1450.66 924.693 1459.41 Q924.693 1468.13 921.615 1472.74 Q918.559 1477.32 912.749 1477.32 Q906.939 1477.32 903.86 1472.74 Q900.805 1468.13 900.805 1459.41 Q900.805 1450.66 903.86 1446.07 Q906.939 1441.47 912.749 1441.47 Z" fill="#000000" fill-rule="evenodd" fill-opacity="1" /><path clip-path="url(#clip6200)" d="M 0 0 M929.763 1470.77 L934.647 1470.77 L934.647 1476.65 L929.763 1476.65 L929.763 1470.77 Z" fill="#000000" fill-rule="evenodd" fill-opacity="1" /><path clip-path="url(#clip6200)" d="M 0 0 M949.716 1445.17 Q946.105 1445.17 944.277 1448.74 Q942.471 1452.28 942.471 1459.41 Q942.471 1466.51 944.277 1470.08 Q946.105 1473.62 949.716 1473.62 Q953.351 1473.62 955.156 1470.08 Q956.985 1466.51 956.985 1459.41 Q956.985 1452.28 955.156 1448.74 Q953.351 1445.17 949.716 1445.17 M949.716 1441.47 Q955.527 1441.47 958.582 1446.07 Q961.661 1450.66 961.661 1459.41 Q961.661 1468.13 958.582 1472.74 Q955.527 1477.32 949.716 1477.32 Q943.906 1477.32 940.828 1472.74 Q937.772 1468.13 937.772 1459.41 Q937.772 1450.66 940.828 1446.07 Q943.906 1441.47 949.716 1441.47 Z" fill="#000000" fill-rule="evenodd" fill-opacity="1" /><path clip-path="url(#clip6200)" d="M 0 0 M966.776 1442.09 L985.133 1442.09 L985.133 1446.03 L971.059 1446.03 L971.059 1454.5 Q972.077 1454.15 973.096 1453.99 Q974.114 1453.8 975.133 1453.8 Q980.92 1453.8 984.3 1456.98 Q987.679 1460.15 987.679 1465.56 Q987.679 1471.14 984.207 1474.24 Q980.735 1477.32 974.415 1477.32 Q972.239 1477.32 969.971 1476.95 Q967.726 1476.58 965.318 1475.84 L965.318 1471.14 Q967.401 1472.28 969.624 1472.83 Q971.846 1473.39 974.323 1473.39 Q978.327 1473.39 980.665 1471.28 Q983.003 1469.18 983.003 1465.56 Q983.003 1461.95 980.665 1459.85 Q978.327 1457.74 974.323 1457.74 Q972.448 1457.74 970.573 1458.16 Q968.721 1458.57 966.776 1459.45 L966.776 1442.09 Z" fill="#000000" fill-rule="evenodd" fill-opacity="1" /><path clip-path="url(#clip6200)" d="M 0 0 M1586.79 1445.17 Q1583.18 1445.17 1581.36 1448.74 Q1579.55 1452.28 1579.55 1459.41 Q1579.55 1466.51 1581.36 1470.08 Q1583.18 1473.62 1586.79 1473.62 Q1590.43 1473.62 1592.23 1470.08 Q1594.06 1466.51 1594.06 1459.41 Q1594.06 1452.28 1592.23 1448.74 Q1590.43 1445.17 1586.79 1445.17 M1586.79 1441.47 Q1592.61 1441.47 1595.66 1446.07 Q1598.74 1450.66 1598.74 1459.41 Q1598.74 1468.13 1595.66 1472.74 Q1592.61 1477.32 1586.79 1477.32 Q1580.98 1477.32 1577.91 1472.74 Q1574.85 1468.13 1574.85 1459.41 Q1574.85 1450.66 1577.91 1446.07 Q1580.98 1441.47 1586.79 1441.47 Z" fill="#000000" fill-rule="evenodd" fill-opacity="1" /><path clip-path="url(#clip6200)" d="M 0 0 M1603.81 1470.77 L1608.69 1470.77 L1608.69 1476.65 L1603.81 1476.65 L1603.81 1470.77 Z" fill="#000000" fill-rule="evenodd" fill-opacity="1" /><path clip-path="url(#clip6200)" d="M 0 0 M1614.57 1472.72 L1622.21 1472.72 L1622.21 1446.35 L1613.9 1448.02 L1613.9 1443.76 L1622.17 1442.09 L1626.84 1442.09 L1626.84 1472.72 L1634.48 1472.72 L1634.48 1476.65 L1614.57 1476.65 L1614.57 1472.72 Z" fill="#000000" fill-rule="evenodd" fill-opacity="1" /><path clip-path="url(#clip6200)" d="M 0 0 M1649.55 1445.17 Q1645.94 1445.17 1644.11 1448.74 Q1642.3 1452.28 1642.3 1459.41 Q1642.3 1466.51 1644.11 1470.08 Q1645.94 1473.62 1649.55 1473.62 Q1653.18 1473.62 1654.99 1470.08 Q1656.82 1466.51 1656.82 1459.41 Q1656.82 1452.28 1654.99 1448.74 Q1653.18 1445.17 1649.55 1445.17 M1649.55 1441.47 Q1655.36 1441.47 1658.41 1446.07 Q1661.49 1450.66 1661.49 1459.41 Q1661.49 1468.13 1658.41 1472.74 Q1655.36 1477.32 1649.55 1477.32 Q1643.74 1477.32 1640.66 1472.74 Q1637.6 1468.13 1637.6 1459.41 Q1637.6 1450.66 1640.66 1446.07 Q1643.74 1441.47 1649.55 1441.47 Z" fill="#000000" fill-rule="evenodd" fill-opacity="1" /><path clip-path="url(#clip6200)" d="M 0 0 M2261.22 1445.17 Q2257.61 1445.17 2255.78 1448.74 Q2253.98 1452.28 2253.98 1459.41 Q2253.98 1466.51 2255.78 1470.08 Q2257.61 1473.62 2261.22 1473.62 Q2264.86 1473.62 2266.66 1470.08 Q2268.49 1466.51 2268.49 1459.41 Q2268.49 1452.28 2266.66 1448.74 Q2264.86 1445.17 2261.22 1445.17 M2261.22 1441.47 Q2267.03 1441.47 2270.09 1446.07 Q2273.17 1450.66 2273.17 1459.41 Q2273.17 1468.13 2270.09 1472.74 Q2267.03 1477.32 2261.22 1477.32 Q2255.41 1477.32 2252.33 1472.74 Q2249.28 1468.13 2249.28 1459.41 Q2249.28 1450.66 2252.33 1446.07 Q2255.41 1441.47 2261.22 1441.47 Z" fill="#000000" fill-rule="evenodd" fill-opacity="1" /><path clip-path="url(#clip6200)" d="M 0 0 M2278.24 1470.77 L2283.12 1470.77 L2283.12 1476.65 L2278.24 1476.65 L2278.24 1470.77 Z" fill="#000000" fill-rule="evenodd" fill-opacity="1" /><path clip-path="url(#clip6200)" d="M 0 0 M2289 1472.72 L2296.64 1472.72 L2296.64 1446.35 L2288.33 1448.02 L2288.33 1443.76 L2296.59 1442.09 L2301.27 1442.09 L2301.27 1472.72 L2308.91 1472.72 L2308.91 1476.65 L2289 1476.65 L2289 1472.72 Z" fill="#000000" fill-rule="evenodd" fill-opacity="1" /><path clip-path="url(#clip6200)" d="M 0 0 M2314.02 1442.09 L2332.38 1442.09 L2332.38 1446.03 L2318.31 1446.03 L2318.31 1454.5 Q2319.32 1454.15 2320.34 1453.99 Q2321.36 1453.8 2322.38 1453.8 Q2328.17 1453.8 2331.55 1456.98 Q2334.93 1460.15 2334.93 1465.56 Q2334.93 1471.14 2331.45 1474.24 Q2327.98 1477.32 2321.66 1477.32 Q2319.49 1477.32 2317.22 1476.95 Q2314.97 1476.58 2312.57 1475.84 L2312.57 1471.14 Q2314.65 1472.28 2316.87 1472.83 Q2319.09 1473.39 2321.57 1473.39 Q2325.57 1473.39 2327.91 1471.28 Q2330.25 1469.18 2330.25 1465.56 Q2330.25 1461.95 2327.91 1459.85 Q2325.57 1457.74 2321.57 1457.74 Q2319.69 1457.74 2317.82 1458.16 Q2315.97 1458.57 2314.02 1459.45 L2314.02 1442.09 Z" fill="#000000" fill-rule="evenodd" fill-opacity="1" /><path clip-path="url(#clip6200)" d="M 0 0 M130.381 1203.12 L138.019 1203.12 L138.019 1176.75 L129.709 1178.42 L129.709 1174.16 L137.973 1172.5 L142.649 1172.5 L142.649 1203.12 L150.288 1203.12 L150.288 1207.06 L130.381 1207.06 L130.381 1203.12 Z" fill="#000000" fill-rule="evenodd" fill-opacity="1" /><path clip-path="url(#clip6200)" d="M 0 0 M155.357 1201.18 L160.241 1201.18 L160.241 1207.06 L155.357 1207.06 L155.357 1201.18 Z" fill="#000000" fill-rule="evenodd" fill-opacity="1" /><path clip-path="url(#clip6200)" d="M 0 0 M169.339 1203.12 L185.658 1203.12 L185.658 1207.06 L163.714 1207.06 L163.714 1203.12 Q166.376 1200.37 170.959 1195.74 Q175.565 1191.08 176.746 1189.74 Q178.991 1187.22 179.871 1185.48 Q180.774 1183.72 180.774 1182.03 Q180.774 1179.28 178.829 1177.54 Q176.908 1175.81 173.806 1175.81 Q171.607 1175.81 169.153 1176.57 Q166.723 1177.33 163.945 1178.88 L163.945 1174.16 Q166.769 1173.03 169.223 1172.45 Q171.677 1171.87 173.714 1171.87 Q179.084 1171.87 182.278 1174.56 Q185.473 1177.24 185.473 1181.73 Q185.473 1183.86 184.663 1185.78 Q183.876 1187.68 181.769 1190.27 Q181.19 1190.94 178.089 1194.16 Q174.987 1197.36 169.339 1203.12 Z" fill="#000000" fill-rule="evenodd" fill-opacity="1" /><path clip-path="url(#clip6200)" d="M 0 0 M129.779 950.178 L137.418 950.178 L137.418 923.812 L129.107 925.479 L129.107 921.22 L137.371 919.553 L142.047 919.553 L142.047 950.178 L149.686 950.178 L149.686 954.113 L129.779 954.113 L129.779 950.178 Z" fill="#000000" fill-rule="evenodd" fill-opacity="1" /><path clip-path="url(#clip6200)" d="M 0 0 M154.755 948.234 L159.64 948.234 L159.64 954.113 L154.755 954.113 L154.755 948.234 Z" fill="#000000" fill-rule="evenodd" fill-opacity="1" /><path clip-path="url(#clip6200)" d="M 0 0 M164.755 919.553 L183.112 919.553 L183.112 923.488 L169.038 923.488 L169.038 931.96 Q170.056 931.613 171.075 931.451 Q172.093 931.266 173.112 931.266 Q178.899 931.266 182.278 934.437 Q185.658 937.609 185.658 943.025 Q185.658 948.604 182.186 951.706 Q178.714 954.784 172.394 954.784 Q170.218 954.784 167.95 954.414 Q165.704 954.044 163.297 953.303 L163.297 948.604 Q165.38 949.738 167.603 950.294 Q169.825 950.849 172.302 950.849 Q176.306 950.849 178.644 948.743 Q180.982 946.636 180.982 943.025 Q180.982 939.414 178.644 937.308 Q176.306 935.201 172.302 935.201 Q170.427 935.201 168.552 935.618 Q166.7 936.035 164.755 936.914 L164.755 919.553 Z" fill="#000000" fill-rule="evenodd" fill-opacity="1" /><path clip-path="url(#clip6200)" d="M 0 0 M128.876 697.236 L136.515 697.236 L136.515 670.87 L128.205 672.537 L128.205 668.278 L136.468 666.611 L141.144 666.611 L141.144 697.236 L148.783 697.236 L148.783 701.171 L128.876 701.171 L128.876 697.236 Z" fill="#000000" fill-rule="evenodd" fill-opacity="1" /><path clip-path="url(#clip6200)" d="M 0 0 M153.853 695.291 L158.737 695.291 L158.737 701.171 L153.853 701.171 L153.853 695.291 Z" fill="#000000" fill-rule="evenodd" fill-opacity="1" /><path clip-path="url(#clip6200)" d="M 0 0 M173.806 684.759 Q170.473 684.759 168.552 686.541 Q166.653 688.324 166.653 691.449 Q166.653 694.574 168.552 696.356 Q170.473 698.139 173.806 698.139 Q177.14 698.139 179.061 696.356 Q180.982 694.551 180.982 691.449 Q180.982 688.324 179.061 686.541 Q177.163 684.759 173.806 684.759 M169.13 682.768 Q166.121 682.028 164.431 679.967 Q162.765 677.907 162.765 674.944 Q162.765 670.801 165.704 668.393 Q168.667 665.986 173.806 665.986 Q178.968 665.986 181.908 668.393 Q184.848 670.801 184.848 674.944 Q184.848 677.907 183.158 679.967 Q181.491 682.028 178.505 682.768 Q181.885 683.555 183.76 685.847 Q185.658 688.139 185.658 691.449 Q185.658 696.472 182.579 699.157 Q179.524 701.842 173.806 701.842 Q168.089 701.842 165.01 699.157 Q161.954 696.472 161.954 691.449 Q161.954 688.139 163.853 685.847 Q165.751 683.555 169.13 682.768 M167.417 675.384 Q167.417 678.069 169.084 679.574 Q170.774 681.078 173.806 681.078 Q176.815 681.078 178.505 679.574 Q180.218 678.069 180.218 675.384 Q180.218 672.699 178.505 671.194 Q176.815 669.69 173.806 669.69 Q170.774 669.69 169.084 671.194 Q167.417 672.699 167.417 675.384 Z" fill="#000000" fill-rule="evenodd" fill-opacity="1" /><path clip-path="url(#clip6200)" d="M 0 0 M133.598 444.294 L149.917 444.294 L149.917 448.229 L127.973 448.229 L127.973 444.294 Q130.635 441.539 135.218 436.909 Q139.825 432.257 141.005 430.914 Q143.251 428.391 144.13 426.655 Q145.033 424.896 145.033 423.206 Q145.033 420.451 143.089 418.715 Q141.167 416.979 138.066 416.979 Q135.867 416.979 133.413 417.743 Q130.982 418.507 128.205 420.058 L128.205 415.335 Q131.029 414.201 133.482 413.623 Q135.936 413.044 137.973 413.044 Q143.343 413.044 146.538 415.729 Q149.732 418.414 149.732 422.905 Q149.732 425.034 148.922 426.956 Q148.135 428.854 146.029 431.446 Q145.45 432.118 142.348 435.335 Q139.246 438.53 133.598 444.294 Z" fill="#000000" fill-rule="evenodd" fill-opacity="1" /><path clip-path="url(#clip6200)" d="M 0 0 M154.987 442.349 L159.871 442.349 L159.871 448.229 L154.987 448.229 L154.987 442.349 Z" fill="#000000" fill-rule="evenodd" fill-opacity="1" /><path clip-path="url(#clip6200)" d="M 0 0 M165.751 444.294 L173.39 444.294 L173.39 417.928 L165.079 419.595 L165.079 415.335 L173.343 413.669 L178.019 413.669 L178.019 444.294 L185.658 444.294 L185.658 448.229 L165.751 448.229 L165.751 444.294 Z" fill="#000000" fill-rule="evenodd" fill-opacity="1" /><path clip-path="url(#clip6200)" d="M 0 0 M131.885 191.351 L148.204 191.351 L148.204 195.287 L126.26 195.287 L126.26 191.351 Q128.922 188.597 133.505 183.967 Q138.112 179.314 139.292 177.972 Q141.538 175.449 142.417 173.713 Q143.32 171.953 143.32 170.264 Q143.32 167.509 141.376 165.773 Q139.455 164.037 136.353 164.037 Q134.154 164.037 131.7 164.801 Q129.269 165.565 126.492 167.115 L126.492 162.393 Q129.316 161.259 131.769 160.68 Q134.223 160.102 136.26 160.102 Q141.63 160.102 144.825 162.787 Q148.019 165.472 148.019 169.963 Q148.019 172.092 147.209 174.014 Q146.422 175.912 144.316 178.504 Q143.737 179.176 140.635 182.393 Q137.533 185.588 131.885 191.351 Z" fill="#000000" fill-rule="evenodd" fill-opacity="1" /><path clip-path="url(#clip6200)" d="M 0 0 M153.274 189.407 L158.158 189.407 L158.158 195.287 L153.274 195.287 L153.274 189.407 Z" fill="#000000" fill-rule="evenodd" fill-opacity="1" /><path clip-path="url(#clip6200)" d="M 0 0 M176.075 164.801 L164.269 183.25 L176.075 183.25 L176.075 164.801 M174.848 160.727 L180.727 160.727 L180.727 183.25 L185.658 183.25 L185.658 187.139 L180.727 187.139 L180.727 195.287 L176.075 195.287 L176.075 187.139 L160.473 187.139 L160.473 182.625 L174.848 160.727 Z" fill="#000000" fill-rule="evenodd" fill-opacity="1" /><path clip-path="url(#clip6200)" d="M 0 0 M916.301 12.096 L967.464 12.096 L967.464 18.9825 L945.995 18.9825 L945.995 72.576 L937.771 72.576 L937.771 18.9825 L916.301 18.9825 L916.301 12.096 Z" fill="#000000" fill-rule="evenodd" fill-opacity="1" /><path clip-path="url(#clip6200)" d="M 0 0 M1016.03 16.7545 L1016.03 25.383 Q1011.9 21.5346 1007.2 19.6307 Q1002.55 17.7268 997.279 17.7268 Q986.909 17.7268 981.4 24.0867 Q975.89 30.4061 975.89 42.3968 Q975.89 54.3469 981.4 60.7069 Q986.909 67.0263 997.279 67.0263 Q1002.55 67.0263 1007.2 65.1223 Q1011.9 63.2184 1016.03 59.3701 L1016.03 67.9175 Q1011.74 70.8341 1006.92 72.2924 Q1002.14 73.7508 996.793 73.7508 Q983.06 73.7508 975.161 65.3654 Q967.262 56.9395 967.262 42.3968 Q967.262 27.8135 975.161 19.4281 Q983.06 11.0023 996.793 11.0023 Q1002.22 11.0023 1007 12.4606 Q1011.82 13.8784 1016.03 16.7545 Z" fill="#000000" fill-rule="evenodd" fill-opacity="1" /><path clip-path="url(#clip6200)" d="M 0 0 M1041.76 9.62495 Q1036.33 18.942 1033.7 28.0566 Q1031.06 37.1711 1031.06 46.5287 Q1031.06 55.8863 1033.7 65.0818 Q1036.37 74.2369 1041.76 83.5134 L1035.28 83.5134 Q1029.2 73.9938 1026.16 64.7983 Q1023.16 55.6027 1023.16 46.5287 Q1023.16 37.4952 1026.16 28.3401 Q1029.16 19.1851 1035.28 9.62495 L1041.76 9.62495 Z" fill="#000000" fill-rule="evenodd" fill-opacity="1" /><path clip-path="url(#clip6200)" d="M 0 0 M1049.9 12.096 L1058.08 12.096 L1058.08 65.6895 L1087.53 65.6895 L1087.53 72.576 L1049.9 72.576 L1049.9 12.096 Z" fill="#000000" fill-rule="evenodd" fill-opacity="1" /><path clip-path="url(#clip6200)" d="M 0 0 M1094.18 9.62495 L1100.66 9.62495 Q1106.73 19.1851 1109.73 28.3401 Q1112.77 37.4952 1112.77 46.5287 Q1112.77 55.6027 1109.73 64.7983 Q1106.73 73.9938 1100.66 83.5134 L1094.18 83.5134 Q1099.56 74.2369 1102.2 65.0818 Q1104.87 55.8863 1104.87 46.5287 Q1104.87 37.1711 1102.2 28.0566 Q1099.56 18.942 1094.18 9.62495 Z" fill="#000000" fill-rule="evenodd" fill-opacity="1" /><path clip-path="url(#clip6200)" d="M 0 0 M1141.61 27.2059 L1149.51 27.2059 L1163.69 65.2844 L1177.87 27.2059 L1185.77 27.2059 L1168.75 72.576 L1158.63 72.576 L1141.61 27.2059 Z" fill="#000000" fill-rule="evenodd" fill-opacity="1" /><path clip-path="url(#clip6200)" d="M 0 0 M1222.51 28.5427 L1222.51 35.5912 Q1219.35 33.9709 1215.95 33.1607 Q1212.54 32.3505 1208.9 32.3505 Q1203.35 32.3505 1200.55 34.0519 Q1197.8 35.7533 1197.8 39.156 Q1197.8 41.7486 1199.78 43.2475 Q1201.77 44.7058 1207.76 46.0426 L1210.32 46.6097 Q1218.26 48.3111 1221.58 51.4303 Q1224.94 54.509 1224.94 60.0587 Q1224.94 66.3781 1219.92 70.0644 Q1214.93 73.7508 1206.18 73.7508 Q1202.54 73.7508 1198.57 73.0216 Q1194.64 72.3329 1190.26 70.9151 L1190.26 63.2184 Q1194.4 65.3654 1198.41 66.4591 Q1202.42 67.5124 1206.35 67.5124 Q1211.61 67.5124 1214.45 65.73 Q1217.28 63.9071 1217.28 60.6258 Q1217.28 57.5877 1215.22 55.9673 Q1213.19 54.3469 1206.27 52.8481 L1203.67 52.2405 Q1196.75 50.7821 1193.67 47.7845 Q1190.59 44.7463 1190.59 39.4801 Q1190.59 33.0797 1195.13 29.5959 Q1199.66 26.1121 1208.01 26.1121 Q1212.14 26.1121 1215.78 26.7198 Q1219.43 27.3274 1222.51 28.5427 Z" fill="#000000" fill-rule="evenodd" fill-opacity="1" /><path clip-path="url(#clip6200)" d="M 0 0 M1259.45 12.096 L1267.64 12.096 L1267.64 65.6895 L1297.09 65.6895 L1297.09 72.576 L1259.45 72.576 L1259.45 12.096 Z" fill="#000000" fill-rule="evenodd" fill-opacity="1" /><path clip-path="url(#clip6200)" d="M 0 0 M1335.81 12.096 L1357.81 34.6595 L1349.67 34.6595 L1331.84 18.6585 L1314.02 34.6595 L1305.88 34.6595 L1327.87 12.096 L1335.81 12.096 Z" fill="#000000" fill-rule="evenodd" fill-opacity="1" /><path clip-path="url(#clip6200)" d="M 0 0 M1361.86 46.5287 L1383.69 46.5287 L1383.69 53.1722 L1361.86 53.1722 L1361.86 46.5287 Z" fill="#000000" fill-rule="evenodd" fill-opacity="1" /><path clip-path="url(#clip6200)" d="M 0 0 M1393.98 65.6895 L1407.35 65.6895 L1407.35 19.5497 L1392.81 22.4663 L1392.81 15.0127 L1407.27 12.096 L1415.45 12.096 L1415.45 65.6895 L1428.82 65.6895 L1428.82 72.576 L1393.98 72.576 L1393.98 65.6895 Z" fill="#000000" fill-rule="evenodd" fill-opacity="1" /><path clip-path="url(#clip6200)" d="M 0 0 M1485.98 9.54393 L1485.98 15.7418 L1478.85 15.7418 Q1474.84 15.7418 1473.26 17.3622 Q1471.72 18.9825 1471.72 23.1955 L1471.72 27.2059 L1484 27.2059 L1484 32.9987 L1471.72 32.9987 L1471.72 72.576 L1464.23 72.576 L1464.23 32.9987 L1457.1 32.9987 L1457.1 27.2059 L1464.23 27.2059 L1464.23 24.0462 Q1464.23 16.471 1467.75 13.0277 Q1471.28 9.54393 1478.93 9.54393 L1485.98 9.54393 Z" fill="#000000" fill-rule="evenodd" fill-opacity="1" /><path clip-path="url(#clip6200)" d="M 0 0 M1511.38 32.4315 Q1505.38 32.4315 1501.9 37.1306 Q1498.42 41.7891 1498.42 49.9314 Q1498.42 58.0738 1501.86 62.7728 Q1505.34 67.4314 1511.38 67.4314 Q1517.33 67.4314 1520.82 62.7323 Q1524.3 58.0333 1524.3 49.9314 Q1524.3 41.8701 1520.82 37.1711 Q1517.33 32.4315 1511.38 32.4315 M1511.38 26.1121 Q1521.1 26.1121 1526.65 32.4315 Q1532.2 38.7509 1532.2 49.9314 Q1532.2 61.0714 1526.65 67.4314 Q1521.1 73.7508 1511.38 73.7508 Q1501.62 73.7508 1496.07 67.4314 Q1490.56 61.0714 1490.56 49.9314 Q1490.56 38.7509 1496.07 32.4315 Q1501.62 26.1121 1511.38 26.1121 Z" fill="#000000" fill-rule="evenodd" fill-opacity="1" /><path clip-path="url(#clip6200)" d="M 0 0 M1566.31 34.1734 Q1565.05 33.4443 1563.55 33.1202 Q1562.1 32.7556 1560.31 32.7556 Q1553.99 32.7556 1550.59 36.8875 Q1547.23 40.9789 1547.23 48.6757 L1547.23 72.576 L1539.74 72.576 L1539.74 27.2059 L1547.23 27.2059 L1547.23 34.2544 Q1549.58 30.1225 1553.35 28.1376 Q1557.11 26.1121 1562.5 26.1121 Q1563.27 26.1121 1564.2 26.2337 Q1565.13 26.3147 1566.27 26.5172 L1566.31 34.1734 Z" fill="#000000" fill-rule="evenodd" fill-opacity="1" /><path clip-path="url(#clip6200)" d="M 0 0 M1646.11 16.7545 L1646.11 25.383 Q1641.98 21.5346 1637.28 19.6307 Q1632.62 17.7268 1627.36 17.7268 Q1616.99 17.7268 1611.48 24.0867 Q1605.97 30.4061 1605.97 42.3968 Q1605.97 54.3469 1611.48 60.7069 Q1616.99 67.0263 1627.36 67.0263 Q1632.62 67.0263 1637.28 65.1223 Q1641.98 63.2184 1646.11 59.3701 L1646.11 67.9175 Q1641.82 70.8341 1637 72.2924 Q1632.22 73.7508 1626.87 73.7508 Q1613.14 73.7508 1605.24 65.3654 Q1597.34 56.9395 1597.34 42.3968 Q1597.34 27.8135 1605.24 19.4281 Q1613.14 11.0023 1626.87 11.0023 Q1632.3 11.0023 1637.08 12.4606 Q1641.9 13.8784 1646.11 16.7545 Z" fill="#000000" fill-rule="evenodd" fill-opacity="1" /><path clip-path="url(#clip6200)" d="M 0 0 M1214.67 1508.52 L1221.1 1508.52 L1221.1 1550.63 L1244.24 1550.63 L1244.24 1556.04 L1214.67 1556.04 L1214.67 1508.52 Z" fill="#000000" fill-rule="evenodd" fill-opacity="1" /><path clip-path="url(#clip6200)" d="M 0 0 M1274.67 1508.52 L1291.95 1526.25 L1285.55 1526.25 L1271.55 1513.68 L1257.54 1526.25 L1251.14 1526.25 L1268.43 1508.52 L1274.67 1508.52 Z" fill="#000000" fill-rule="evenodd" fill-opacity="1" /><path clip-path="url(#clip6200)" d="M 0 0 M1295.13 1535.58 L1312.29 1535.58 L1312.29 1540.8 L1295.13 1540.8 L1295.13 1535.58 Z" fill="#000000" fill-rule="evenodd" fill-opacity="1" /><path clip-path="url(#clip6200)" d="M 0 0 M1320.37 1550.63 L1330.88 1550.63 L1330.88 1514.38 L1319.45 1516.67 L1319.45 1510.82 L1330.81 1508.52 L1337.24 1508.52 L1337.24 1550.63 L1347.74 1550.63 L1347.74 1556.04 L1320.37 1556.04 L1320.37 1550.63 Z" fill="#000000" fill-rule="evenodd" fill-opacity="1" /><path clip-path="url(#clip6200)" d="M 0 0 M40.4842 812.507 L40.4842 772.307 L45.895 772.307 L45.895 789.177 L88.0042 789.177 L88.0042 795.638 L45.895 795.638 L45.895 812.507 L40.4842 812.507 Z" fill="#000000" fill-rule="evenodd" fill-opacity="1" /><path clip-path="url(#clip6200)" d="M 0 0 M44.1444 734.145 L50.9239 734.145 Q47.9002 737.392 46.4043 741.084 Q44.9083 744.744 44.9083 748.882 Q44.9083 757.03 49.9054 761.358 Q54.8707 765.687 64.2919 765.687 Q73.6813 765.687 78.6784 761.358 Q83.6436 757.03 83.6436 748.882 Q83.6436 744.744 82.1477 741.084 Q80.6518 737.392 77.6281 734.145 L84.3439 734.145 Q86.6355 737.519 87.7814 741.306 Q88.9272 745.062 88.9272 749.264 Q88.9272 760.053 82.3387 766.26 Q75.7183 772.467 64.2919 772.467 Q52.8336 772.467 46.2451 766.26 Q39.6248 760.053 39.6248 749.264 Q39.6248 744.999 40.7706 741.243 Q41.8846 737.455 44.1444 734.145 Z" fill="#000000" fill-rule="evenodd" fill-opacity="1" /><circle clip-path="url(#clip6202)" cx="1955.14" cy="160.256" r="7" fill="#009af9" fill-rule="evenodd" fill-opacity="1" stroke="#000000" stroke-opacity="1" stroke-width="0.96"/>
<circle clip-path="url(#clip6202)" cx="1393.53" cy="222.382" r="7" fill="#009af9" fill-rule="evenodd" fill-opacity="1" stroke="#000000" stroke-opacity="1" stroke-width="0.96"/>
<circle clip-path="url(#clip6202)" cx="1112.72" cy="232.737" r="7" fill="#009af9" fill-rule="evenodd" fill-opacity="1" stroke="#000000" stroke-opacity="1" stroke-width="0.96"/>
<circle clip-path="url(#clip6202)" cx="831.92" cy="253.446" r="7" fill="#009af9" fill-rule="evenodd" fill-opacity="1" stroke="#000000" stroke-opacity="1" stroke-width="0.96"/>
<polyline clip-path="url(#clip6202)" style="stroke:#e26f46; stroke-width:4; stroke-opacity:1; fill:none" points="
  270.312,1386.4 290.056,1385.25 472.622,1374.7 582.336,1368.36 675.099,1363 775.864,1357.17 868.761,1351.81 968.357,1346.05 1083.75,1339.38 1186.29,1333.45 
  1276.22,1328.25 1374.26,1322.59 1472.88,1316.89 1581.92,1310.58 1685.67,1304.59 1793.55,1298.35 1884.36,1293.1 1995.22,1286.7 2099.44,1280.67 2266.41,1271.02 
  2292.1,1269.54 
  "/>
<path clip-path="url(#clip6200)" d="
M281.658 388.432 L719.319 388.432 L719.319 206.992 L281.658 206.992  Z
  " fill="#ffffff" fill-rule="evenodd" fill-opacity="1"/>
<polyline clip-path="url(#clip6200)" style="stroke:#000000; stroke-width:4; stroke-opacity:1; fill:none" points="
  281.658,388.432 719.319,388.432 719.319,206.992 281.658,206.992 281.658,388.432 
  "/>
<circle clip-path="url(#clip6200)" cx="389.658" cy="267.472" r="21" fill="#009af9" fill-rule="evenodd" fill-opacity="1" stroke="#000000" stroke-opacity="1" stroke-width="0.96"/>
<path clip-path="url(#clip6200)" d="M 0 0 M473.658 250.192 L502.894 250.192 L502.894 254.127 L490.625 254.127 L490.625 284.752 L485.926 284.752 L485.926 254.127 L473.658 254.127 L473.658 250.192 Z" fill="#000000" fill-rule="evenodd" fill-opacity="1" /><path clip-path="url(#clip6200)" d="M 0 0 M517.963 259.822 L517.963 263.803 Q516.158 262.808 514.329 262.322 Q512.524 261.812 510.672 261.812 Q506.528 261.812 504.237 264.451 Q501.945 267.067 501.945 271.812 Q501.945 276.558 504.237 279.197 Q506.528 281.812 510.672 281.812 Q512.524 281.812 514.329 281.326 Q516.158 280.817 517.963 279.822 L517.963 283.757 Q516.181 284.59 514.26 285.007 Q512.361 285.423 510.209 285.423 Q504.352 285.423 500.903 281.743 Q497.454 278.062 497.454 271.812 Q497.454 265.47 500.926 261.836 Q504.422 258.201 510.486 258.201 Q512.454 258.201 514.329 258.618 Q516.204 259.012 517.963 259.822 Z" fill="#000000" fill-rule="evenodd" fill-opacity="1" /><polyline clip-path="url(#clip6200)" style="stroke:#e26f46; stroke-width:4; stroke-opacity:1; fill:none" points="
  305.658,327.952 449.658,327.952 
  "/>
<path clip-path="url(#clip6200)" d="M 0 0 M473.658 310.672 L493.519 310.672 L493.519 314.607 L478.334 314.607 L478.334 324.792 L492.038 324.792 L492.038 328.728 L478.334 328.728 L478.334 345.232 L473.658 345.232 L473.658 310.672 Z" fill="#000000" fill-rule="evenodd" fill-opacity="1" /><path clip-path="url(#clip6200)" d="M 0 0 M494.538 319.306 L498.797 319.306 L498.797 345.232 L494.538 345.232 L494.538 319.306 M494.538 309.214 L498.797 309.214 L498.797 314.607 L494.538 314.607 L494.538 309.214 Z" fill="#000000" fill-rule="evenodd" fill-opacity="1" /><path clip-path="url(#clip6200)" d="M 0 0 M507.477 311.945 L507.477 319.306 L516.25 319.306 L516.25 322.617 L507.477 322.617 L507.477 336.691 Q507.477 339.862 508.334 340.765 Q509.213 341.667 511.875 341.667 L516.25 341.667 L516.25 345.232 L511.875 345.232 Q506.945 345.232 505.07 343.403 Q503.195 341.552 503.195 336.691 L503.195 322.617 L500.07 322.617 L500.07 319.306 L503.195 319.306 L503.195 311.945 L507.477 311.945 Z" fill="#000000" fill-rule="evenodd" fill-opacity="1" /><path clip-path="url(#clip6200)" d="M 0 0 M524.931 311.945 L524.931 319.306 L533.704 319.306 L533.704 322.617 L524.931 322.617 L524.931 336.691 Q524.931 339.862 525.787 340.765 Q526.667 341.667 529.329 341.667 L533.704 341.667 L533.704 345.232 L529.329 345.232 Q524.398 345.232 522.523 343.403 Q520.648 341.552 520.648 336.691 L520.648 322.617 L517.523 322.617 L517.523 319.306 L520.648 319.306 L520.648 311.945 L524.931 311.945 Z" fill="#000000" fill-rule="evenodd" fill-opacity="1" /><path clip-path="url(#clip6200)" d="M 0 0 M560.347 331.204 L560.347 333.288 L540.764 333.288 Q541.042 337.686 543.403 340.001 Q545.787 342.292 550.023 342.292 Q552.477 342.292 554.769 341.69 Q557.083 341.089 559.352 339.885 L559.352 343.913 Q557.06 344.885 554.653 345.394 Q552.246 345.903 549.769 345.903 Q543.565 345.903 539.931 342.292 Q536.32 338.681 536.32 332.524 Q536.32 326.158 539.746 322.431 Q543.195 318.681 549.028 318.681 Q554.259 318.681 557.292 322.061 Q560.347 325.417 560.347 331.204 M556.088 329.954 Q556.042 326.459 554.121 324.376 Q552.222 322.292 549.074 322.292 Q545.509 322.292 543.357 324.306 Q541.227 326.32 540.903 329.978 L556.088 329.954 Z" fill="#000000" fill-rule="evenodd" fill-opacity="1" /><path clip-path="url(#clip6200)" d="M 0 0 M581.875 323.242 L581.875 309.214 L586.134 309.214 L586.134 345.232 L581.875 345.232 L581.875 341.343 Q580.532 343.658 578.472 344.792 Q576.435 345.903 573.565 345.903 Q568.866 345.903 565.903 342.153 Q562.963 338.403 562.963 332.292 Q562.963 326.181 565.903 322.431 Q568.866 318.681 573.565 318.681 Q576.435 318.681 578.472 319.816 Q580.532 320.927 581.875 323.242 M567.361 332.292 Q567.361 336.991 569.282 339.677 Q571.227 342.339 574.607 342.339 Q577.986 342.339 579.931 339.677 Q581.875 336.991 581.875 332.292 Q581.875 327.593 579.931 324.931 Q577.986 322.246 574.607 322.246 Q571.227 322.246 569.282 324.931 Q567.361 327.593 567.361 332.292 Z" fill="#000000" fill-rule="evenodd" fill-opacity="1" /><path clip-path="url(#clip6200)" d="M 0 0 M605.671 309.214 L609.93 309.214 L609.93 345.232 L605.671 345.232 L605.671 309.214 Z" fill="#000000" fill-rule="evenodd" fill-opacity="1" /><path clip-path="url(#clip6200)" d="M 0 0 M614.398 319.306 L618.657 319.306 L618.657 345.232 L614.398 345.232 L614.398 319.306 M614.398 309.214 L618.657 309.214 L618.657 314.607 L614.398 314.607 L614.398 309.214 Z" fill="#000000" fill-rule="evenodd" fill-opacity="1" /><path clip-path="url(#clip6200)" d="M 0 0 M644.676 329.584 L644.676 345.232 L640.416 345.232 L640.416 329.723 Q640.416 326.042 638.981 324.214 Q637.546 322.385 634.676 322.385 Q631.227 322.385 629.236 324.584 Q627.245 326.783 627.245 330.579 L627.245 345.232 L622.963 345.232 L622.963 319.306 L627.245 319.306 L627.245 323.334 Q628.773 320.996 630.833 319.839 Q632.916 318.681 635.625 318.681 Q640.092 318.681 642.384 321.459 Q644.676 324.214 644.676 329.584 Z" fill="#000000" fill-rule="evenodd" fill-opacity="1" /><path clip-path="url(#clip6200)" d="M 0 0 M671.319 331.204 L671.319 333.288 L651.736 333.288 Q652.014 337.686 654.375 340.001 Q656.759 342.292 660.995 342.292 Q663.449 342.292 665.74 341.69 Q668.055 341.089 670.324 339.885 L670.324 343.913 Q668.032 344.885 665.625 345.394 Q663.217 345.903 660.74 345.903 Q654.537 345.903 650.902 342.292 Q647.291 338.681 647.291 332.524 Q647.291 326.158 650.717 322.431 Q654.166 318.681 660 318.681 Q665.231 318.681 668.263 322.061 Q671.319 325.417 671.319 331.204 M667.06 329.954 Q667.013 326.459 665.092 324.376 Q663.194 322.292 660.046 322.292 Q656.481 322.292 654.328 324.306 Q652.199 326.32 651.875 329.978 L667.06 329.954 Z" fill="#000000" fill-rule="evenodd" fill-opacity="1" /></svg>
