<?xml version="1.0" encoding="utf-8"?>
<svg xmlns="http://www.w3.org/2000/svg" xmlns:xlink="http://www.w3.org/1999/xlink" width="600" height="400" viewBox="0 0 2400 1600">
<defs>
  <clipPath id="clip7400">
    <rect x="0" y="0" width="2400" height="1600"/>
  </clipPath>
</defs>
<path clip-path="url(#clip7400)" d="
M0 1600 L2400 1600 L2400 0 L0 0  Z
  " fill="#ffffff" fill-rule="evenodd" fill-opacity="1"/>
<defs>
  <clipPath id="clip7401">
    <rect x="480" y="0" width="1681" height="1600"/>
  </clipPath>
</defs>
<path clip-path="url(#clip7400)" d="
M210.121 1423.18 L2352.76 1423.18 L2352.76 123.472 L210.121 123.472  Z
  " fill="#ffffff" fill-rule="evenodd" fill-opacity="1"/>
<defs>
  <clipPath id="clip7402">
    <rect x="210" y="123" width="2144" height="1301"/>
  </clipPath>
</defs>
<polyline clip-path="url(#clip7402)" style="stroke:#000000; stroke-width:2; stroke-opacity:0.1; fill:none" points="
  229.509,1423.18 229.509,123.472 
  "/>
<polyline clip-path="url(#clip7402)" style="stroke:#000000; stroke-width:2; stroke-opacity:0.1; fill:none" points="
  642.031,1423.18 642.031,123.472 
  "/>
<polyline clip-path="url(#clip7402)" style="stroke:#000000; stroke-width:2; stroke-opacity:0.1; fill:none" points="
  1054.55,1423.18 1054.55,123.472 
  "/>
<polyline clip-path="url(#clip7402)" style="stroke:#000000; stroke-width:2; stroke-opacity:0.1; fill:none" points="
  1467.07,1423.18 1467.07,123.472 
  "/>
<polyline clip-path="url(#clip7402)" style="stroke:#000000; stroke-width:2; stroke-opacity:0.1; fill:none" points="
  1879.59,1423.18 1879.59,123.472 
  "/>
<polyline clip-path="url(#clip7402)" style="stroke:#000000; stroke-width:2; stroke-opacity:0.1; fill:none" points="
  2292.12,1423.18 2292.12,123.472 
  "/>
<polyline clip-path="url(#clip7402)" style="stroke:#000000; stroke-width:2; stroke-opacity:0.1; fill:none" points="
  210.121,1165.72 2352.76,1165.72 
  "/>
<polyline clip-path="url(#clip7402)" style="stroke:#000000; stroke-width:2; stroke-opacity:0.1; fill:none" points="
  210.121,872.302 2352.76,872.302 
  "/>
<polyline clip-path="url(#clip7402)" style="stroke:#000000; stroke-width:2; stroke-opacity:0.1; fill:none" points="
  210.121,578.884 2352.76,578.884 
  "/>
<polyline clip-path="url(#clip7402)" style="stroke:#000000; stroke-width:2; stroke-opacity:0.1; fill:none" points="
  210.121,285.466 2352.76,285.466 
  "/>
<polyline clip-path="url(#clip7400)" style="stroke:#000000; stroke-width:4; stroke-opacity:1; fill:none" points="
  210.121,1423.18 2352.76,1423.18 
  "/>
<polyline clip-path="url(#clip7400)" style="stroke:#000000; stroke-width:4; stroke-opacity:1; fill:none" points="
  210.121,1423.18 210.121,123.472 
  "/>
<polyline clip-path="url(#clip7400)" style="stroke:#000000; stroke-width:4; stroke-opacity:1; fill:none" points="
  229.509,1423.18 229.509,1407.58 
  "/>
<polyline clip-path="url(#clip7400)" style="stroke:#000000; stroke-width:4; stroke-opacity:1; fill:none" points="
  642.031,1423.18 642.031,1407.58 
  "/>
<polyline clip-path="url(#clip7400)" style="stroke:#000000; stroke-width:4; stroke-opacity:1; fill:none" points="
  1054.55,1423.18 1054.55,1407.58 
  "/>
<polyline clip-path="url(#clip7400)" style="stroke:#000000; stroke-width:4; stroke-opacity:1; fill:none" points="
  1467.07,1423.18 1467.07,1407.58 
  "/>
<polyline clip-path="url(#clip7400)" style="stroke:#000000; stroke-width:4; stroke-opacity:1; fill:none" points="
  1879.59,1423.18 1879.59,1407.58 
  "/>
<polyline clip-path="url(#clip7400)" style="stroke:#000000; stroke-width:4; stroke-opacity:1; fill:none" points="
  2292.12,1423.18 2292.12,1407.58 
  "/>
<polyline clip-path="url(#clip7400)" style="stroke:#000000; stroke-width:4; stroke-opacity:1; fill:none" points="
  210.121,1165.72 235.833,1165.72 
  "/>
<polyline clip-path="url(#clip7400)" style="stroke:#000000; stroke-width:4; stroke-opacity:1; fill:none" points="
  210.121,872.302 235.833,872.302 
  "/>
<polyline clip-path="url(#clip7400)" style="stroke:#000000; stroke-width:4; stroke-opacity:1; fill:none" points="
  210.121,578.884 235.833,578.884 
  "/>
<polyline clip-path="url(#clip7400)" style="stroke:#000000; stroke-width:4; stroke-opacity:1; fill:none" points="
  210.121,285.466 235.833,285.466 
  "/>
<path clip-path="url(#clip7400)" d="M 0 0 M229.509 1445.17 Q225.898 1445.17 224.07 1448.74 Q222.264 1452.28 222.264 1459.41 Q222.264 1466.51 224.07 1470.08 Q225.898 1473.62 229.509 1473.62 Q233.144 1473.62 234.949 1470.08 Q236.778 1466.51 236.778 1459.41 Q236.778 1452.28 234.949 1448.74 Q233.144 1445.17 229.509 1445.17 M229.509 1441.47 Q235.32 1441.47 238.375 1446.07 Q241.454 1450.66 241.454 1459.41 Q241.454 1468.13 238.375 1472.74 Q235.32 1477.32 229.509 1477.32 Q223.699 1477.32 220.621 1472.74 Q217.565 1468.13 217.565 1459.41 Q217.565 1450.66 220.621 1446.07 Q223.699 1441.47 229.509 1441.47 Z" fill="#000000" fill-rule="evenodd" fill-opacity="1" /><path clip-path="url(#clip7400)" d="M 0 0 M632.413 1472.72 L640.051 1472.72 L640.051 1446.35 L631.741 1448.02 L631.741 1443.76 L640.005 1442.09 L644.681 1442.09 L644.681 1472.72 L652.32 1472.72 L652.32 1476.65 L632.413 1476.65 L632.413 1472.72 Z" fill="#000000" fill-rule="evenodd" fill-opacity="1" /><path clip-path="url(#clip7400)" d="M 0 0 M1049.2 1472.72 L1065.52 1472.72 L1065.52 1476.65 L1043.58 1476.65 L1043.58 1472.72 Q1046.24 1469.96 1050.82 1465.33 Q1055.43 1460.68 1056.61 1459.34 Q1058.86 1456.81 1059.74 1455.08 Q1060.64 1453.32 1060.64 1451.63 Q1060.64 1448.87 1058.7 1447.14 Q1056.77 1445.4 1053.67 1445.4 Q1051.47 1445.4 1049.02 1446.17 Q1046.59 1446.93 1043.81 1448.48 L1043.81 1443.76 Q1046.64 1442.62 1049.09 1442.05 Q1051.54 1441.47 1053.58 1441.47 Q1058.95 1441.47 1062.14 1444.15 Q1065.34 1446.84 1065.34 1451.33 Q1065.34 1453.46 1064.53 1455.38 Q1063.74 1457.28 1061.64 1459.87 Q1061.06 1460.54 1057.95 1463.76 Q1054.85 1466.95 1049.2 1472.72 Z" fill="#000000" fill-rule="evenodd" fill-opacity="1" /><path clip-path="url(#clip7400)" d="M 0 0 M1471.32 1458.02 Q1474.68 1458.74 1476.55 1461 Q1478.45 1463.27 1478.45 1466.61 Q1478.45 1471.72 1474.93 1474.52 Q1471.41 1477.32 1464.93 1477.32 Q1462.76 1477.32 1460.44 1476.88 Q1458.15 1476.47 1455.7 1475.61 L1455.7 1471.1 Q1457.64 1472.23 1459.95 1472.81 Q1462.27 1473.39 1464.79 1473.39 Q1469.19 1473.39 1471.48 1471.65 Q1473.8 1469.92 1473.8 1466.61 Q1473.8 1463.55 1471.64 1461.84 Q1469.52 1460.1 1465.7 1460.1 L1461.67 1460.1 L1461.67 1456.26 L1465.88 1456.26 Q1469.33 1456.26 1471.16 1454.89 Q1472.99 1453.5 1472.99 1450.91 Q1472.99 1448.25 1471.09 1446.84 Q1469.21 1445.4 1465.7 1445.4 Q1463.77 1445.4 1461.58 1445.82 Q1459.38 1446.24 1456.74 1447.11 L1456.74 1442.95 Q1459.4 1442.21 1461.71 1441.84 Q1464.05 1441.47 1466.11 1441.47 Q1471.44 1441.47 1474.54 1443.9 Q1477.64 1446.3 1477.64 1450.43 Q1477.64 1453.3 1476 1455.29 Q1474.35 1457.25 1471.32 1458.02 Z" fill="#000000" fill-rule="evenodd" fill-opacity="1" /><path clip-path="url(#clip7400)" d="M 0 0 M1882.6 1446.17 L1870.8 1464.61 L1882.6 1464.61 L1882.6 1446.17 M1881.38 1442.09 L1887.26 1442.09 L1887.26 1464.61 L1892.19 1464.61 L1892.19 1468.5 L1887.26 1468.5 L1887.26 1476.65 L1882.6 1476.65 L1882.6 1468.5 L1867 1468.5 L1867 1463.99 L1881.38 1442.09 Z" fill="#000000" fill-rule="evenodd" fill-opacity="1" /><path clip-path="url(#clip7400)" d="M 0 0 M2282.39 1442.09 L2300.75 1442.09 L2300.75 1446.03 L2286.68 1446.03 L2286.68 1454.5 Q2287.69 1454.15 2288.71 1453.99 Q2289.73 1453.8 2290.75 1453.8 Q2296.54 1453.8 2299.92 1456.98 Q2303.3 1460.15 2303.3 1465.56 Q2303.3 1471.14 2299.82 1474.24 Q2296.35 1477.32 2290.03 1477.32 Q2287.86 1477.32 2285.59 1476.95 Q2283.34 1476.58 2280.93 1475.84 L2280.93 1471.14 Q2283.02 1472.28 2285.24 1472.83 Q2287.46 1473.39 2289.94 1473.39 Q2293.94 1473.39 2296.28 1471.28 Q2298.62 1469.18 2298.62 1465.56 Q2298.62 1461.95 2296.28 1459.85 Q2293.94 1457.74 2289.94 1457.74 Q2288.06 1457.74 2286.19 1458.16 Q2284.34 1458.57 2282.39 1459.45 L2282.39 1442.09 Z" fill="#000000" fill-rule="evenodd" fill-opacity="1" /><path clip-path="url(#clip7400)" d="M 0 0 M138.205 1151.52 Q134.593 1151.52 132.765 1155.08 Q130.959 1158.62 130.959 1165.75 Q130.959 1172.86 132.765 1176.43 Q134.593 1179.97 138.205 1179.97 Q141.839 1179.97 143.644 1176.43 Q145.473 1172.86 145.473 1165.75 Q145.473 1158.62 143.644 1155.08 Q141.839 1151.52 138.205 1151.52 M138.205 1147.81 Q144.015 1147.81 147.07 1152.42 Q150.149 1157 150.149 1165.75 Q150.149 1174.48 147.07 1179.09 Q144.015 1183.67 138.205 1183.67 Q132.394 1183.67 129.316 1179.09 Q126.26 1174.48 126.26 1165.75 Q126.26 1157 129.316 1152.42 Q132.394 1147.81 138.205 1147.81 Z" fill="#000000" fill-rule="evenodd" fill-opacity="1" /><path clip-path="url(#clip7400)" d="M 0 0 M155.218 1177.12 L160.103 1177.12 L160.103 1183 L155.218 1183 L155.218 1177.12 Z" fill="#000000" fill-rule="evenodd" fill-opacity="1" /><path clip-path="url(#clip7400)" d="M 0 0 M165.218 1148.44 L183.575 1148.44 L183.575 1152.37 L169.501 1152.37 L169.501 1160.85 Q170.519 1160.5 171.538 1160.34 Q172.556 1160.15 173.575 1160.15 Q179.362 1160.15 182.741 1163.32 Q186.121 1166.5 186.121 1171.91 Q186.121 1177.49 182.649 1180.59 Q179.177 1183.67 172.857 1183.67 Q170.681 1183.67 168.413 1183.3 Q166.167 1182.93 163.76 1182.19 L163.76 1177.49 Q165.843 1178.62 168.065 1179.18 Q170.288 1179.74 172.765 1179.74 Q176.769 1179.74 179.107 1177.63 Q181.445 1175.52 181.445 1171.91 Q181.445 1168.3 179.107 1166.19 Q176.769 1164.09 172.765 1164.09 Q170.89 1164.09 169.015 1164.5 Q167.163 1164.92 165.218 1165.8 L165.218 1148.44 Z" fill="#000000" fill-rule="evenodd" fill-opacity="1" /><path clip-path="url(#clip7400)" d="M 0 0 M129.246 885.647 L136.885 885.647 L136.885 859.281 L128.575 860.948 L128.575 856.688 L136.839 855.022 L141.515 855.022 L141.515 885.647 L149.154 885.647 L149.154 889.582 L129.246 889.582 L129.246 885.647 Z" fill="#000000" fill-rule="evenodd" fill-opacity="1" /><path clip-path="url(#clip7400)" d="M 0 0 M154.223 883.702 L159.107 883.702 L159.107 889.582 L154.223 889.582 L154.223 883.702 Z" fill="#000000" fill-rule="evenodd" fill-opacity="1" /><path clip-path="url(#clip7400)" d="M 0 0 M174.177 858.1 Q170.565 858.1 168.737 861.665 Q166.931 865.207 166.931 872.336 Q166.931 879.443 168.737 883.008 Q170.565 886.549 174.177 886.549 Q177.811 886.549 179.616 883.008 Q181.445 879.443 181.445 872.336 Q181.445 865.207 179.616 861.665 Q177.811 858.1 174.177 858.1 M174.177 854.397 Q179.987 854.397 183.042 859.003 Q186.121 863.587 186.121 872.336 Q186.121 881.063 183.042 885.67 Q179.987 890.253 174.177 890.253 Q168.366 890.253 165.288 885.67 Q162.232 881.063 162.232 872.336 Q162.232 863.587 165.288 859.003 Q168.366 854.397 174.177 854.397 Z" fill="#000000" fill-rule="evenodd" fill-opacity="1" /><path clip-path="url(#clip7400)" d="M 0 0 M130.242 592.229 L137.88 592.229 L137.88 565.863 L129.57 567.53 L129.57 563.27 L137.834 561.604 L142.51 561.604 L142.51 592.229 L150.149 592.229 L150.149 596.164 L130.242 596.164 L130.242 592.229 Z" fill="#000000" fill-rule="evenodd" fill-opacity="1" /><path clip-path="url(#clip7400)" d="M 0 0 M155.218 590.284 L160.103 590.284 L160.103 596.164 L155.218 596.164 L155.218 590.284 Z" fill="#000000" fill-rule="evenodd" fill-opacity="1" /><path clip-path="url(#clip7400)" d="M 0 0 M165.218 561.604 L183.575 561.604 L183.575 565.539 L169.501 565.539 L169.501 574.011 Q170.519 573.664 171.538 573.502 Q172.556 573.317 173.575 573.317 Q179.362 573.317 182.741 576.488 Q186.121 579.659 186.121 585.076 Q186.121 590.655 182.649 593.756 Q179.177 596.835 172.857 596.835 Q170.681 596.835 168.413 596.465 Q166.167 596.094 163.76 595.354 L163.76 590.655 Q165.843 591.789 168.065 592.344 Q170.288 592.9 172.765 592.9 Q176.769 592.9 179.107 590.793 Q181.445 588.687 181.445 585.076 Q181.445 581.465 179.107 579.358 Q176.769 577.252 172.765 577.252 Q170.89 577.252 169.015 577.669 Q167.163 578.085 165.218 578.965 L165.218 561.604 Z" fill="#000000" fill-rule="evenodd" fill-opacity="1" /><path clip-path="url(#clip7400)" d="M 0 0 M132.834 298.811 L149.154 298.811 L149.154 302.746 L127.209 302.746 L127.209 298.811 Q129.871 296.056 134.455 291.426 Q139.061 286.774 140.242 285.431 Q142.487 282.908 143.367 281.172 Q144.269 279.413 144.269 277.723 Q144.269 274.968 142.325 273.232 Q140.404 271.496 137.302 271.496 Q135.103 271.496 132.649 272.26 Q130.218 273.024 127.441 274.575 L127.441 269.853 Q130.265 268.718 132.718 268.14 Q135.172 267.561 137.209 267.561 Q142.58 267.561 145.774 270.246 Q148.968 272.931 148.968 277.422 Q148.968 279.552 148.158 281.473 Q147.371 283.371 145.265 285.964 Q144.686 286.635 141.584 289.852 Q138.482 293.047 132.834 298.811 Z" fill="#000000" fill-rule="evenodd" fill-opacity="1" /><path clip-path="url(#clip7400)" d="M 0 0 M154.223 296.866 L159.107 296.866 L159.107 302.746 L154.223 302.746 L154.223 296.866 Z" fill="#000000" fill-rule="evenodd" fill-opacity="1" /><path clip-path="url(#clip7400)" d="M 0 0 M174.177 271.265 Q170.565 271.265 168.737 274.829 Q166.931 278.371 166.931 285.501 Q166.931 292.607 168.737 296.172 Q170.565 299.713 174.177 299.713 Q177.811 299.713 179.616 296.172 Q181.445 292.607 181.445 285.501 Q181.445 278.371 179.616 274.829 Q177.811 271.265 174.177 271.265 M174.177 267.561 Q179.987 267.561 183.042 272.167 Q186.121 276.751 186.121 285.501 Q186.121 294.227 183.042 298.834 Q179.987 303.417 174.177 303.417 Q168.366 303.417 165.288 298.834 Q162.232 294.227 162.232 285.501 Q162.232 276.751 165.288 272.167 Q168.366 267.561 174.177 267.561 Z" fill="#000000" fill-rule="evenodd" fill-opacity="1" /><path clip-path="url(#clip7400)" d="M 0 0 M970.41 12.096 L978.593 12.096 L978.593 72.576 L970.41 72.576 L970.41 12.096 Z" fill="#000000" fill-rule="evenodd" fill-opacity="1" /><path clip-path="url(#clip7400)" d="M 0 0 M1024.12 45.1919 L1024.12 72.576 L1016.67 72.576 L1016.67 45.4349 Q1016.67 38.994 1014.16 35.7938 Q1011.65 32.5936 1006.63 32.5936 Q1000.59 32.5936 997.105 36.4419 Q993.622 40.2903 993.622 46.9338 L993.622 72.576 L986.128 72.576 L986.128 27.2059 L993.622 27.2059 L993.622 34.2544 Q996.295 30.163 999.901 28.1376 Q1003.55 26.1121 1008.29 26.1121 Q1016.1 26.1121 1020.11 30.9732 Q1024.12 35.7938 1024.12 45.1919 Z" fill="#000000" fill-rule="evenodd" fill-opacity="1" /><path clip-path="url(#clip7400)" d="M 0 0 M1039.32 14.324 L1039.32 27.2059 L1054.67 27.2059 L1054.67 32.9987 L1039.32 32.9987 L1039.32 57.6282 Q1039.32 63.1779 1040.81 64.7578 Q1042.35 66.3376 1047.01 66.3376 L1054.67 66.3376 L1054.67 72.576 L1047.01 72.576 Q1038.38 72.576 1035.1 69.3758 Q1031.82 66.1351 1031.82 57.6282 L1031.82 32.9987 L1026.35 32.9987 L1026.35 27.2059 L1031.82 27.2059 L1031.82 14.324 L1039.32 14.324 Z" fill="#000000" fill-rule="evenodd" fill-opacity="1" /><path clip-path="url(#clip7400)" d="M 0 0 M1101.29 48.0275 L1101.29 51.6733 L1067.02 51.6733 Q1067.51 59.3701 1071.64 63.421 Q1075.81 67.4314 1083.23 67.4314 Q1087.52 67.4314 1091.53 66.3781 Q1095.58 65.3249 1099.55 63.2184 L1099.55 70.267 Q1095.54 71.9684 1091.33 72.8596 Q1087.12 73.7508 1082.78 73.7508 Q1071.93 73.7508 1065.57 67.4314 Q1059.25 61.1119 1059.25 50.3365 Q1059.25 39.1965 1065.24 32.6746 Q1071.28 26.1121 1081.49 26.1121 Q1090.64 26.1121 1095.95 32.0264 Q1101.29 37.9003 1101.29 48.0275 M1093.84 45.84 Q1093.76 39.7232 1090.4 36.0774 Q1087.08 32.4315 1081.57 32.4315 Q1075.33 32.4315 1071.56 35.9558 Q1067.83 39.4801 1067.27 45.8805 L1093.84 45.84 Z" fill="#000000" fill-rule="evenodd" fill-opacity="1" /><path clip-path="url(#clip7400)" d="M 0 0 M1135.4 34.1734 Q1134.15 33.4443 1132.65 33.1202 Q1131.19 32.7556 1129.41 32.7556 Q1123.09 32.7556 1119.69 36.8875 Q1116.32 40.9789 1116.32 48.6757 L1116.32 72.576 L1108.83 72.576 L1108.83 27.2059 L1116.32 27.2059 L1116.32 34.2544 Q1118.67 30.1225 1122.44 28.1376 Q1126.21 26.1121 1131.6 26.1121 Q1132.37 26.1121 1133.3 26.2337 Q1134.23 26.3147 1135.36 26.5172 L1135.4 34.1734 Z" fill="#000000" fill-rule="evenodd" fill-opacity="1" /><path clip-path="url(#clip7400)" d="M 0 0 M1172.15 28.5427 L1172.15 35.5912 Q1168.99 33.9709 1165.58 33.1607 Q1162.18 32.3505 1158.53 32.3505 Q1152.98 32.3505 1150.19 34.0519 Q1147.43 35.7533 1147.43 39.156 Q1147.43 41.7486 1149.42 43.2475 Q1151.4 44.7058 1157.4 46.0426 L1159.95 46.6097 Q1167.89 48.3111 1171.21 51.4303 Q1174.58 54.509 1174.58 60.0587 Q1174.58 66.3781 1169.55 70.0644 Q1164.57 73.7508 1155.82 73.7508 Q1152.17 73.7508 1148.2 73.0216 Q1144.27 72.3329 1139.9 70.9151 L1139.9 63.2184 Q1144.03 65.3654 1148.04 66.4591 Q1152.05 67.5124 1155.98 67.5124 Q1161.25 67.5124 1164.08 65.73 Q1166.92 63.9071 1166.92 60.6258 Q1166.92 57.5877 1164.85 55.9673 Q1162.83 54.3469 1155.9 52.8481 L1153.31 52.2405 Q1146.38 50.7821 1143.3 47.7845 Q1140.22 44.7463 1140.22 39.4801 Q1140.22 33.0797 1144.76 29.5959 Q1149.3 26.1121 1157.64 26.1121 Q1161.77 26.1121 1165.42 26.7198 Q1169.07 27.3274 1172.15 28.5427 Z" fill="#000000" fill-rule="evenodd" fill-opacity="1" /><path clip-path="url(#clip7400)" d="M 0 0 M1221.2 48.0275 L1221.2 51.6733 L1186.93 51.6733 Q1187.42 59.3701 1191.55 63.421 Q1195.72 67.4314 1203.13 67.4314 Q1207.43 67.4314 1211.44 66.3781 Q1215.49 65.3249 1219.46 63.2184 L1219.46 70.267 Q1215.45 71.9684 1211.24 72.8596 Q1207.02 73.7508 1202.69 73.7508 Q1191.83 73.7508 1185.47 67.4314 Q1179.15 61.1119 1179.15 50.3365 Q1179.15 39.1965 1185.15 32.6746 Q1191.18 26.1121 1201.39 26.1121 Q1210.55 26.1121 1215.85 32.0264 Q1221.2 37.9003 1221.2 48.0275 M1213.75 45.84 Q1213.67 39.7232 1210.3 36.0774 Q1206.98 32.4315 1201.47 32.4315 Q1195.24 32.4315 1191.47 35.9558 Q1187.74 39.4801 1187.17 45.8805 L1213.75 45.84 Z" fill="#000000" fill-rule="evenodd" fill-opacity="1" /><path clip-path="url(#clip7400)" d="M 0 0 M1261.67 28.9478 L1261.67 35.9153 Q1258.51 34.1734 1255.31 33.3227 Q1252.15 32.4315 1248.91 32.4315 Q1241.66 32.4315 1237.65 37.0496 Q1233.64 41.6271 1233.64 49.9314 Q1233.64 58.2358 1237.65 62.8538 Q1241.66 67.4314 1248.91 67.4314 Q1252.15 67.4314 1255.31 66.5807 Q1258.51 65.6895 1261.67 63.9476 L1261.67 70.8341 Q1258.55 72.2924 1255.19 73.0216 Q1251.87 73.7508 1248.1 73.7508 Q1237.85 73.7508 1231.81 67.3098 Q1225.78 60.8689 1225.78 49.9314 Q1225.78 38.832 1231.86 32.472 Q1237.97 26.1121 1248.59 26.1121 Q1252.03 26.1121 1255.31 26.8413 Q1258.59 27.5299 1261.67 28.9478 Z" fill="#000000" fill-rule="evenodd" fill-opacity="1" /><path clip-path="url(#clip7400)" d="M 0 0 M1276.86 14.324 L1276.86 27.2059 L1292.21 27.2059 L1292.21 32.9987 L1276.86 32.9987 L1276.86 57.6282 Q1276.86 63.1779 1278.36 64.7578 Q1279.9 66.3376 1284.56 66.3376 L1292.21 66.3376 L1292.21 72.576 L1284.56 72.576 Q1275.93 72.576 1272.65 69.3758 Q1269.37 66.1351 1269.37 57.6282 L1269.37 32.9987 L1263.9 32.9987 L1263.9 27.2059 L1269.37 27.2059 L1269.37 14.324 L1276.86 14.324 Z" fill="#000000" fill-rule="evenodd" fill-opacity="1" /><path clip-path="url(#clip7400)" d="M 0 0 M1300.03 27.2059 L1307.49 27.2059 L1307.49 72.576 L1300.03 72.576 L1300.03 27.2059 M1300.03 9.54393 L1307.49 9.54393 L1307.49 18.9825 L1300.03 18.9825 L1300.03 9.54393 Z" fill="#000000" fill-rule="evenodd" fill-opacity="1" /><path clip-path="url(#clip7400)" d="M 0 0 M1332.88 32.4315 Q1326.89 32.4315 1323.41 37.1306 Q1319.92 41.7891 1319.92 49.9314 Q1319.92 58.0738 1323.37 62.7728 Q1326.85 67.4314 1332.88 67.4314 Q1338.84 67.4314 1342.32 62.7323 Q1345.81 58.0333 1345.81 49.9314 Q1345.81 41.8701 1342.32 37.1711 Q1338.84 32.4315 1332.88 32.4315 M1332.88 26.1121 Q1342.61 26.1121 1348.16 32.4315 Q1353.71 38.7509 1353.71 49.9314 Q1353.71 61.0714 1348.16 67.4314 Q1342.61 73.7508 1332.88 73.7508 Q1323.12 73.7508 1317.57 67.4314 Q1312.06 61.0714 1312.06 49.9314 Q1312.06 38.7509 1317.57 32.4315 Q1323.12 26.1121 1332.88 26.1121 Z" fill="#000000" fill-rule="evenodd" fill-opacity="1" /><path clip-path="url(#clip7400)" d="M 0 0 M1399.24 45.1919 L1399.24 72.576 L1391.79 72.576 L1391.79 45.4349 Q1391.79 38.994 1389.27 35.7938 Q1386.76 32.5936 1381.74 32.5936 Q1375.7 32.5936 1372.22 36.4419 Q1368.74 40.2903 1368.74 46.9338 L1368.74 72.576 L1361.24 72.576 L1361.24 27.2059 L1368.74 27.2059 L1368.74 34.2544 Q1371.41 30.163 1375.01 28.1376 Q1378.66 26.1121 1383.4 26.1121 Q1391.22 26.1121 1395.23 30.9732 Q1399.24 35.7938 1399.24 45.1919 Z" fill="#000000" fill-rule="evenodd" fill-opacity="1" /><path clip-path="url(#clip7400)" d="M 0 0 M1451.01 32.4315 Q1445.01 32.4315 1441.53 37.1306 Q1438.05 41.7891 1438.05 49.9314 Q1438.05 58.0738 1441.49 62.7728 Q1444.97 67.4314 1451.01 67.4314 Q1456.96 67.4314 1460.45 62.7323 Q1463.93 58.0333 1463.93 49.9314 Q1463.93 41.8701 1460.45 37.1711 Q1456.96 32.4315 1451.01 32.4315 M1451.01 26.1121 Q1460.73 26.1121 1466.28 32.4315 Q1471.83 38.7509 1471.83 49.9314 Q1471.83 61.0714 1466.28 67.4314 Q1460.73 73.7508 1451.01 73.7508 Q1441.25 73.7508 1435.7 67.4314 Q1430.19 61.0714 1430.19 49.9314 Q1430.19 38.7509 1435.7 32.4315 Q1441.25 26.1121 1451.01 26.1121 Z" fill="#000000" fill-rule="evenodd" fill-opacity="1" /><path clip-path="url(#clip7400)" d="M 0 0 M1502.62 9.54393 L1502.62 15.7418 L1495.49 15.7418 Q1491.48 15.7418 1489.9 17.3622 Q1488.36 18.9825 1488.36 23.1955 L1488.36 27.2059 L1500.63 27.2059 L1500.63 32.9987 L1488.36 32.9987 L1488.36 72.576 L1480.86 72.576 L1480.86 32.9987 L1473.73 32.9987 L1473.73 27.2059 L1480.86 27.2059 L1480.86 24.0462 Q1480.86 16.471 1484.39 13.0277 Q1487.91 9.54393 1495.57 9.54393 L1502.62 9.54393 Z" fill="#000000" fill-rule="evenodd" fill-opacity="1" /><path clip-path="url(#clip7400)" d="M 0 0 M1537.13 12.096 L1549.32 12.096 L1564.76 53.2532 L1580.27 12.096 L1592.47 12.096 L1592.47 72.576 L1584.49 72.576 L1584.49 19.4686 L1568.89 60.9499 L1560.67 60.9499 L1545.07 19.4686 L1545.07 72.576 L1537.13 72.576 L1537.13 12.096 Z" fill="#000000" fill-rule="evenodd" fill-opacity="1" /><path clip-path="url(#clip7400)" d="M 0 0 M1261.34 1508.52 L1301.54 1508.52 L1301.54 1513.93 L1284.67 1513.93 L1284.67 1556.04 L1278.21 1556.04 L1278.21 1513.93 L1261.34 1513.93 L1261.34 1508.52 Z" fill="#000000" fill-rule="evenodd" fill-opacity="1" /><path clip-path="url(#clip7400)" d="M 0 0 M40.4842 969.724 L40.4842 963.295 L82.5933 963.295 L82.5933 940.155 L88.0042 940.155 L88.0042 969.724 L40.4842 969.724 Z" fill="#000000" fill-rule="evenodd" fill-opacity="1" /><path clip-path="url(#clip7400)" d="M 0 0 M40.4842 909.727 L58.2127 892.444 L58.2127 898.842 L45.6404 912.846 L58.2127 926.851 L58.2127 933.248 L40.4842 915.966 L40.4842 909.727 Z" fill="#000000" fill-rule="evenodd" fill-opacity="1" /><path clip-path="url(#clip7400)" d="M 0 0 M38.5426 872.233 Q45.8632 876.498 53.0246 878.567 Q60.186 880.636 67.5384 880.636 Q74.8908 880.636 82.1159 878.567 Q89.3091 876.466 96.5979 872.233 L96.5979 877.326 Q89.1182 882.1 81.8931 884.487 Q74.668 886.842 67.5384 886.842 Q60.4406 886.842 53.2474 884.487 Q46.0542 882.132 38.5426 877.326 L38.5426 872.233 Z" fill="#000000" fill-rule="evenodd" fill-opacity="1" /><path clip-path="url(#clip7400)" d="M 0 0 M70.212 840.5 Q63.7508 840.5 60.0905 843.174 Q56.3984 845.815 56.3984 850.462 Q56.3984 855.109 60.0905 857.783 Q63.7508 860.425 70.212 860.425 Q76.6732 860.425 80.3653 857.783 Q84.0256 855.109 84.0256 850.462 Q84.0256 845.815 80.3653 843.174 Q76.6732 840.5 70.212 840.5 M57.7671 860.425 Q54.5842 858.579 53.0564 855.778 Q51.4968 852.945 51.4968 849.03 Q51.4968 842.537 56.6531 838.495 Q61.8093 834.421 70.212 834.421 Q78.6147 834.421 83.771 838.495 Q88.9272 842.537 88.9272 849.03 Q88.9272 852.945 87.3994 855.778 Q85.8398 858.579 82.657 860.425 L88.0042 860.425 L88.0042 866.313 L38.479 866.313 L38.479 860.425 L57.7671 860.425 Z" fill="#000000" fill-rule="evenodd" fill-opacity="1" /><path clip-path="url(#clip7400)" d="M 0 0 M68.7161 797.786 L71.5806 797.786 L71.5806 824.713 Q77.6281 824.331 80.8109 821.085 Q83.9619 817.806 83.9619 811.982 Q83.9619 808.608 83.1344 805.457 Q82.3069 802.274 80.6518 799.155 L86.1899 799.155 Q87.5267 802.306 88.227 805.616 Q88.9272 808.926 88.9272 812.332 Q88.9272 820.862 83.9619 825.859 Q78.9967 830.824 70.5303 830.824 Q61.7774 830.824 56.6531 826.114 Q51.4968 821.371 51.4968 813.35 Q51.4968 806.157 56.1438 801.988 Q60.7589 797.786 68.7161 797.786 M66.9973 803.643 Q62.1912 803.706 59.3266 806.348 Q56.4621 808.958 56.4621 813.287 Q56.4621 818.188 59.2312 821.148 Q62.0002 824.077 67.0292 824.522 L66.9973 803.643 Z" fill="#000000" fill-rule="evenodd" fill-opacity="1" /><path clip-path="url(#clip7400)" d="M 0 0 M42.2347 785.851 L52.3562 785.851 L52.3562 773.787 L56.9077 773.787 L56.9077 785.851 L76.2594 785.851 Q80.6199 785.851 81.8613 784.673 Q83.1026 783.463 83.1026 779.803 L83.1026 773.787 L88.0042 773.787 L88.0042 779.803 Q88.0042 786.583 85.4897 789.161 Q82.9434 791.739 76.2594 791.739 L56.9077 791.739 L56.9077 796.036 L52.3562 796.036 L52.3562 791.739 L42.2347 791.739 L42.2347 785.851 Z" fill="#000000" fill-rule="evenodd" fill-opacity="1" /><path clip-path="url(#clip7400)" d="M 0 0 M70.0847 751.444 Q70.0847 758.542 71.7079 761.279 Q73.3312 764.016 77.2461 764.016 Q80.3653 764.016 82.2114 761.979 Q84.0256 759.91 84.0256 756.377 Q84.0256 751.508 80.5881 748.579 Q77.1188 745.619 71.3897 745.619 L70.0847 745.619 L70.0847 751.444 M67.6657 739.763 L88.0042 739.763 L88.0042 745.619 L82.5933 745.619 Q85.8398 747.624 87.3994 750.616 Q88.9272 753.608 88.9272 757.937 Q88.9272 763.411 85.8716 766.658 Q82.7843 769.873 77.6281 769.873 Q71.6125 769.873 68.5569 765.862 Q65.5014 761.82 65.5014 753.831 L65.5014 745.619 L64.9285 745.619 Q60.8862 745.619 58.6901 748.293 Q56.4621 750.935 56.4621 755.741 Q56.4621 758.796 57.1941 761.693 Q57.9262 764.589 59.3903 767.263 L53.9795 767.263 Q52.7381 764.048 52.1334 761.024 Q51.4968 758.001 51.4968 755.136 Q51.4968 747.402 55.5072 743.582 Q59.5176 739.763 67.6657 739.763 Z" fill="#000000" fill-rule="evenodd" fill-opacity="1" /><path clip-path="url(#clip7400)" d="M 0 0 M40.4842 723.212 L40.4842 717.801 L94.0516 734.352 L94.0516 739.763 L40.4842 723.212 Z" fill="#000000" fill-rule="evenodd" fill-opacity="1" /><path clip-path="url(#clip7400)" d="M 0 0 M66.4881 682.026 L88.0042 682.026 L88.0042 687.882 L66.679 687.882 Q61.6183 687.882 59.1038 689.856 Q56.5894 691.829 56.5894 695.776 Q56.5894 700.518 59.6131 703.255 Q62.6368 705.993 67.8567 705.993 L88.0042 705.993 L88.0042 711.881 L52.3562 711.881 L52.3562 705.993 L57.8944 705.993 Q54.6797 703.892 53.0883 701.059 Q51.4968 698.195 51.4968 694.471 Q51.4968 688.328 55.3163 685.177 Q59.1038 682.026 66.4881 682.026 Z" fill="#000000" fill-rule="evenodd" fill-opacity="1" /><path clip-path="url(#clip7400)" d="M 0 0 M73.9359 676.488 L52.3562 676.488 L52.3562 670.631 L73.7131 670.631 Q78.7739 670.631 81.3202 668.658 Q83.8346 666.684 83.8346 662.738 Q83.8346 657.995 80.8109 655.258 Q77.7872 652.489 72.5673 652.489 L52.3562 652.489 L52.3562 646.633 L88.0042 646.633 L88.0042 652.489 L82.5296 652.489 Q85.7762 654.621 87.3676 657.454 Q88.9272 660.255 88.9272 663.979 Q88.9272 670.122 85.1078 673.305 Q81.2883 676.488 73.9359 676.488 M51.4968 661.751 L51.4968 661.751 Z" fill="#000000" fill-rule="evenodd" fill-opacity="1" /><path clip-path="url(#clip7400)" d="M 0 0 M38.5426 641.413 L38.5426 636.32 Q46.0542 631.546 53.2474 629.19 Q60.4406 626.803 67.5384 626.803 Q74.668 626.803 81.8931 629.19 Q89.1182 631.546 96.5979 636.32 L96.5979 641.413 Q89.3091 637.179 82.1159 635.111 Q74.8908 633.01 67.5384 633.01 Q60.186 633.01 53.0246 635.111 Q45.8632 637.179 38.5426 641.413 Z" fill="#000000" fill-rule="evenodd" fill-opacity="1" /><path clip-path="url(#clip7400)" d="M 0 0 M40.4842 620.406 L40.4842 610.825 L72.8219 598.699 L40.4842 586.508 L40.4842 576.928 L88.0042 576.928 L88.0042 583.198 L46.277 583.198 L78.8694 595.452 L78.8694 601.913 L46.277 614.167 L88.0042 614.167 L88.0042 620.406 L40.4842 620.406 Z" fill="#000000" fill-rule="evenodd" fill-opacity="1" /><polyline clip-path="url(#clip7402)" style="stroke:#009af9; stroke-width:4; stroke-opacity:1; fill:none" points="
  270.762,472.201 275.828,472.201 280.894,472.201 285.96,472.201 291.026,472.201 296.092,472.201 301.158,472.201 306.224,472.201 311.29,472.201 316.356,472.201 
  321.422,472.201 326.488,472.201 331.554,472.201 336.62,472.201 341.686,472.201 346.752,472.201 351.818,472.201 356.884,472.201 361.95,472.201 367.016,472.201 
  372.083,472.201 377.149,472.201 382.215,472.201 387.281,472.201 392.347,472.201 397.413,472.201 402.479,472.201 407.545,472.201 412.611,472.201 417.677,472.201 
  422.743,472.201 427.809,472.201 432.875,472.201 437.941,472.201 443.007,472.201 448.073,472.201 453.139,472.201 458.205,472.203 463.271,472.204 468.337,472.203 
  473.404,472.207 478.47,472.201 483.536,472.207 488.602,472.202 493.668,472.219 498.734,472.21 503.8,472.226 508.866,472.208 513.932,472.216 518.998,472.208 
  524.064,472.251 529.13,472.243 534.196,472.256 539.262,472.279 544.328,472.251 549.394,472.252 554.46,472.3 559.526,472.269 564.592,472.27 569.658,472.327 
  574.725,472.328 579.791,472.335 584.857,472.387 589.923,472.362 594.989,472.392 600.055,472.537 605.121,472.437 610.187,472.514 615.253,472.581 620.319,472.739 
  625.385,472.758 630.451,472.738 635.517,472.829 640.583,472.961 645.649,473.082 650.715,472.959 655.781,473.078 660.847,473.074 665.913,473.319 670.979,473.416 
  676.046,473.593 681.112,473.716 686.178,473.81 691.244,473.975 696.31,474.004 701.376,474.485 706.442,474.377 711.508,474.665 716.574,474.573 721.64,475.056 
  726.706,475.407 731.772,475.421 736.838,475.724 741.904,475.86 746.97,476.27 752.036,476.57 757.102,476.703 762.168,477.168 767.234,477.658 772.3,477.635 
  777.367,478.191 782.433,478.745 787.499,479.03 792.565,479.083 797.631,480.029 802.697,480.901 807.763,481.131 812.829,481.258 817.895,482.148 822.961,482.494 
  828.027,482.798 833.093,483.781 838.159,484.683 843.225,485.238 848.291,486.246 853.357,486.283 858.423,486.724 863.489,487.836 868.555,488.613 873.621,489.672 
  878.687,490.636 883.754,490.401 888.82,492.006 893.886,493.339 898.952,494.37 904.018,494.951 909.084,496.351 914.15,497.282 919.216,499.355 924.282,499.772 
  929.348,502.005 934.414,503.974 939.48,504.321 944.546,506.105 949.612,506.19 954.678,508.322 959.744,509.365 964.81,512.72 969.876,513.048 974.942,517.918 
  980.008,516.058 985.075,520.572 990.141,521.246 995.207,521.241 1000.27,527.005 1005.34,527.798 1010.4,528.128 1015.47,531.988 1020.54,539.091 1025.6,540.075 
  1030.67,545.529 1035.74,553.36 1040.8,549.105 1045.87,552.246 1050.93,555.225 1056,557.638 1061.07,557.881 1066.13,570.369 1071.2,567.105 1076.26,570.847 
  1081.33,586.158 1086.4,579.606 1091.46,595.595 1096.53,593.864 1101.59,595.952 1106.66,614.557 1111.73,609.875 1116.79,625.818 1121.86,627.566 1126.92,633.357 
  1131.99,630.639 1137.06,642.439 1142.12,655.952 1147.19,676.612 1152.25,655.307 1157.32,683.104 1162.39,688.518 1167.45,694.455 1172.52,706.266 1177.58,713.765 
  1182.65,717.995 1187.72,723.298 1192.78,737.283 1197.85,738.975 1202.91,737.862 1207.98,772.441 1213.05,783.729 1218.11,794.817 1223.18,804.872 1228.24,796.825 
  1233.31,810.467 1238.38,813.165 1243.44,825.481 1248.51,843.037 1253.58,846.253 1258.64,850.146 1263.71,868.312 1268.77,873.869 1273.84,867.094 1278.91,899.933 
  1283.97,908.256 1289.04,918.575 1294.1,919.047 1299.17,935.71 1304.24,928.932 1309.3,949.26 1314.37,953.039 1319.43,957.048 1324.5,965.686 1329.57,979.284 
  1334.63,986.166 1339.7,980.927 1344.76,994.263 1349.83,1002.04 1354.9,1021.62 1359.96,1022.45 1365.03,1021.95 1370.09,1021.57 1375.16,1029.91 1380.23,1035.13 
  1385.29,1041 1390.36,1042.89 1395.42,1055.08 1400.49,1057.31 1405.56,1066.44 1410.62,1080.91 1415.69,1078.95 1420.75,1076.8 1425.82,1071.69 1430.89,1100.54 
  1435.95,1089.23 1441.02,1086.02 1446.09,1102 1451.15,1110.55 1456.22,1110.88 1461.28,1123.22 1466.35,1108.51 1471.42,1124.46 1476.48,1126.6 1481.55,1122.98 
  1486.61,1126.11 1491.68,1133.3 1496.75,1143.42 1501.81,1136.64 1506.88,1155.45 1511.94,1141.72 1517.01,1148.84 1522.08,1154.7 1527.14,1150.95 1532.21,1153.01 
  1537.27,1162.9 1542.34,1158.26 1547.41,1155.33 1552.47,1166.85 1557.54,1165.46 1562.6,1168.4 1567.67,1184.58 1572.74,1173.23 1577.8,1182.6 1582.87,1180.44 
  1587.93,1185.74 1593,1187.89 1598.07,1184.54 1603.13,1189.91 1608.2,1195.9 1613.26,1194.96 1618.33,1196.35 1623.4,1196.06 1628.46,1193.53 1633.53,1194.52 
  1638.59,1202.69 1643.66,1208.12 1648.73,1203.88 1653.79,1209.52 1658.86,1214.15 1663.93,1210.22 1668.99,1213.55 1674.06,1207.27 1679.12,1210.68 1684.19,1209.03 
  1689.26,1215.09 1694.32,1222.24 1699.39,1216.8 1704.45,1220.3 1709.52,1220.12 1714.59,1221.57 1719.65,1220.88 1724.72,1218.88 1729.78,1228.86 1734.85,1224.9 
  1739.92,1229.22 1744.98,1232.25 1750.05,1227.99 1755.11,1234.37 1760.18,1233.17 1765.25,1238.67 1770.31,1235.23 1775.38,1232.74 1780.44,1230.52 1785.51,1232.63 
  1790.58,1238.53 1795.64,1233.4 1800.71,1235.05 1805.77,1239.57 1810.84,1242.32 1815.91,1242.79 1820.97,1245.82 1826.04,1243.98 1831.1,1245 1836.17,1244.76 
  1841.24,1251.22 1846.3,1245.97 1851.37,1252.17 1856.44,1245.25 1861.5,1253.18 1866.57,1246.11 1871.63,1249.58 1876.7,1256.13 1881.77,1252.32 1886.83,1254.72 
  1891.9,1251.84 1896.96,1255.09 1902.03,1259.19 1907.1,1254.83 1912.16,1253.82 1917.23,1260.89 1922.29,1263.6 1927.36,1260.56 1932.43,1257.17 1937.49,1259.89 
  1942.56,1265.36 1947.62,1262.59 1952.69,1260.39 1957.76,1257.45 1962.82,1262.13 1967.89,1264.71 1972.95,1266.42 1978.02,1267.46 1983.09,1266.91 1988.15,1268.69 
  1993.22,1270.07 1998.28,1268.54 2003.35,1269.46 2008.42,1269.95 2013.48,1270.46 2018.55,1265.96 2023.61,1272.29 2028.68,1270.36 2033.75,1273.48 2038.81,1272.55 
  2043.88,1271.14 2048.94,1271.28 2054.01,1273.03 2059.08,1271.27 2064.14,1275.6 2069.21,1278.96 2074.28,1276.07 2079.34,1272.49 2084.41,1277.36 2089.47,1277.78 
  2094.54,1279.05 2099.61,1278.98 2104.67,1279.22 2109.74,1279.08 2114.8,1279.58 2119.87,1280.6 2124.94,1282.46 2130,1281.41 2135.07,1278.75 2140.13,1283.89 
  2145.2,1280.01 2150.27,1281.39 2155.33,1282.47 2160.4,1283.18 2165.46,1282.56 2170.53,1284.61 2175.6,1281.56 2180.66,1283.23 2185.73,1283.61 2190.79,1283.33 
  2195.86,1286.67 2200.93,1289.87 2205.99,1285.99 2211.06,1287.89 2216.12,1287.76 2221.19,1288.34 2226.26,1287.24 2231.32,1289 2236.39,1289.34 2241.45,1287.59 
  2246.52,1286.37 2251.59,1290.08 2256.65,1286.96 2261.72,1290.17 2266.79,1290.57 2271.85,1291.09 2276.92,1292.08 2281.98,1290.47 2287.05,1291.26 2292.12,1291.08 
  
  "/>
<polyline clip-path="url(#clip7402)" style="stroke:#e26f46; stroke-width:4; stroke-opacity:1; fill:none" points="
  270.762,366.913 275.828,366.913 280.894,366.913 285.96,366.913 291.026,366.913 296.092,366.913 301.158,366.913 306.224,366.913 311.29,366.913 316.356,366.913 
  321.422,366.913 326.488,366.913 331.554,366.913 336.62,366.913 341.686,366.913 346.752,366.913 351.818,366.913 356.884,366.913 361.95,366.913 367.016,366.913 
  372.083,366.913 377.149,366.913 382.215,366.913 387.281,366.913 392.347,366.913 397.413,366.913 402.479,366.913 407.545,366.913 412.611,366.913 417.677,366.913 
  422.743,366.913 427.809,366.914 432.875,366.913 437.941,366.913 443.007,366.913 448.073,366.913 453.139,366.914 458.205,366.913 463.271,366.915 468.337,366.914 
  473.404,366.915 478.47,366.914 483.536,366.915 488.602,366.913 493.668,366.917 498.734,366.918 503.8,366.923 508.866,366.925 513.932,366.929 518.998,366.94 
  524.064,366.953 529.13,366.956 534.196,366.955 539.262,366.947 544.328,366.991 549.394,366.99 554.46,367.014 559.526,367.007 564.592,367.032 569.658,367.065 
  574.725,367.034 579.791,367.061 584.857,367.127 589.923,367.212 594.989,367.181 600.055,367.218 605.121,367.281 610.187,367.335 615.253,367.283 620.319,367.414 
  625.385,367.501 630.451,367.492 635.517,367.67 640.583,367.665 645.649,367.825 650.715,367.822 655.781,367.993 660.847,368.091 665.913,368.192 670.979,368.301 
  676.046,368.408 681.112,368.496 686.178,368.591 691.244,368.747 696.31,368.925 701.376,369.305 706.442,369.508 711.508,369.6 716.574,369.671 721.64,369.953 
  726.706,370.169 731.772,370.482 736.838,370.641 741.904,371.125 746.97,371.469 752.036,371.656 757.102,371.855 762.168,372.289 767.234,372.829 772.3,373.13 
  777.367,373.799 782.433,373.706 787.499,374.331 792.565,375.038 797.631,375.077 802.697,375.654 807.763,376.402 812.829,377.12 817.895,377.345 822.961,378.017 
  828.027,378.61 833.093,379.088 838.159,380.357 843.225,381.024 848.291,381.55 853.357,382.275 858.423,383.43 863.489,384.419 868.555,384.794 873.621,386.262 
  878.687,386.684 883.754,387.541 888.82,388.804 893.886,389.834 898.952,391.159 904.018,392.565 909.084,393.918 914.15,395.479 919.216,396.797 924.282,397.827 
  929.348,399.8 934.414,402.251 939.48,403.474 944.546,403.506 949.612,405.147 954.678,406.248 959.744,409.179 964.81,411.795 969.876,413.012 974.942,414.15 
  980.008,418.478 985.075,424.695 990.141,419.406 995.207,426.762 1000.27,427.316 1005.34,431.971 1010.4,432.185 1015.47,434.488 1020.54,439.709 1025.6,444.344 
  1030.67,441.704 1035.74,450.434 1040.8,455.86 1045.87,456.575 1050.93,461.083 1056,464.728 1061.07,469.707 1066.13,471.172 1071.2,473.077 1076.26,486.764 
  1081.33,489.679 1086.4,494.948 1091.46,511.391 1096.53,511.598 1101.59,521.046 1106.66,527.537 1111.73,545.841 1116.79,538.252 1121.86,546.241 1126.92,578.106 
  1131.99,575 1137.06,587.899 1142.12,604.589 1147.19,615.966 1152.25,630.732 1157.32,623.073 1162.39,636.814 1167.45,658.028 1172.52,651.504 1177.58,703.158 
  1182.65,693.723 1187.72,710.156 1192.78,718.898 1197.85,742.976 1202.91,781.767 1207.98,796.262 1213.05,770.776 1218.11,780.93 1223.18,841.13 1228.24,828.083 
  1233.31,875.203 1238.38,867.57 1243.44,882.853 1248.51,895.843 1253.58,911.715 1258.64,938.353 1263.71,943.38 1268.77,934.906 1273.84,983.208 1278.91,966.965 
  1283.97,972.244 1289.04,1003.11 1294.1,1022.44 1299.17,1045.8 1304.24,1053.42 1309.3,1049.52 1314.37,1042.93 1319.43,1054.92 1324.5,1072.49 1329.57,1077.82 
  1334.63,1096.37 1339.7,1092.56 1344.76,1092.81 1349.83,1110.84 1354.9,1101.56 1359.96,1106.7 1365.03,1124.01 1370.09,1138.93 1375.16,1125.95 1380.23,1130.33 
  1385.29,1145.05 1390.36,1157.93 1395.42,1155.44 1400.49,1141.43 1405.56,1169.61 1410.62,1171.99 1415.69,1173.59 1420.75,1186.87 1425.82,1186.92 1430.89,1184.18 
  1435.95,1190.33 1441.02,1186.37 1446.09,1193.35 1451.15,1188.86 1456.22,1198.88 1461.28,1202.05 1466.35,1198.84 1471.42,1207.98 1476.48,1207.01 1481.55,1212.09 
  1486.61,1225.19 1491.68,1225.57 1496.75,1220.22 1501.81,1227.99 1506.88,1227 1511.94,1227.85 1517.01,1230.3 1522.08,1242.08 1527.14,1250.1 1532.21,1234.78 
  1537.27,1240.94 1542.34,1236.75 1547.41,1241.46 1552.47,1245.96 1557.54,1250.37 1562.6,1240.08 1567.67,1251.64 1572.74,1243.33 1577.8,1251.9 1582.87,1257.49 
  1587.93,1262.43 1593,1255.4 1598.07,1259.17 1603.13,1252.68 1608.2,1262.43 1613.26,1259.79 1618.33,1269 1623.4,1266.62 1628.46,1273.39 1633.53,1263.22 
  1638.59,1270.96 1643.66,1274.87 1648.73,1266.47 1653.79,1274.64 1658.86,1272.79 1663.93,1277.8 1668.99,1277.95 1674.06,1281.26 1679.12,1273.96 1684.19,1283.35 
  1689.26,1282.21 1694.32,1284.18 1699.39,1280.99 1704.45,1285.9 1709.52,1280.92 1714.59,1284.56 1719.65,1282.78 1724.72,1287.81 1729.78,1287.07 1734.85,1290.54 
  1739.92,1290.35 1744.98,1293.3 1750.05,1293.26 1755.11,1288.92 1760.18,1295.87 1765.25,1293.4 1770.31,1292.72 1775.38,1294.38 1780.44,1296.75 1785.51,1298.39 
  1790.58,1298.66 1795.64,1295.22 1800.71,1300.05 1805.77,1300.99 1810.84,1298.29 1815.91,1300.25 1820.97,1300.11 1826.04,1300.81 1831.1,1297.64 1836.17,1302.05 
  1841.24,1305.5 1846.3,1304.51 1851.37,1306.4 1856.44,1303.04 1861.5,1308.66 1866.57,1307.26 1871.63,1306.68 1876.7,1305.97 1881.77,1310.48 1886.83,1309.44 
  1891.9,1309.19 1896.96,1312.32 1902.03,1311.78 1907.1,1311.5 1912.16,1311.94 1917.23,1310.39 1922.29,1310.25 1927.36,1311.06 1932.43,1312.45 1937.49,1314.34 
  1942.56,1313.54 1947.62,1315.89 1952.69,1316.22 1957.76,1314.27 1962.82,1317.78 1967.89,1318.65 1972.95,1318.7 1978.02,1317.3 1983.09,1318.98 1988.15,1316.67 
  1993.22,1315.85 1998.28,1320.19 2003.35,1318.8 2008.42,1319.83 2013.48,1319.93 2018.55,1322.05 2023.61,1323.02 2028.68,1322.59 2033.75,1319.59 2038.81,1318.6 
  2043.88,1320.99 2048.94,1320.99 2054.01,1322.65 2059.08,1322.61 2064.14,1326.13 2069.21,1324.16 2074.28,1326.79 2079.34,1326.13 2084.41,1327.12 2089.47,1325.03 
  2094.54,1324.18 2099.61,1326.49 2104.67,1327.88 2109.74,1324.71 2114.8,1326.93 2119.87,1327.27 2124.94,1329.01 2130,1326.7 2135.07,1328.53 2140.13,1327.41 
  2145.2,1330.13 2150.27,1328.26 2155.33,1331.06 2160.4,1327.65 2165.46,1329.22 2170.53,1327.64 2175.6,1330.93 2180.66,1332.02 2185.73,1331.83 2190.79,1332.13 
  2195.86,1331.81 2200.93,1330.97 2205.99,1331.82 2211.06,1330.22 2216.12,1334.99 2221.19,1331.97 2226.26,1332.47 2231.32,1335.22 2236.39,1334.74 2241.45,1334.35 
  2246.52,1334.96 2251.59,1335.03 2256.65,1335.45 2261.72,1333.2 2266.79,1335.33 2271.85,1334.33 2276.92,1335.44 2281.98,1336.73 2287.05,1336.46 2292.12,1335.01 
  
  "/>
<polyline clip-path="url(#clip7402)" style="stroke:#3da44d; stroke-width:4; stroke-opacity:1; fill:none" points="
  270.762,285.466 275.828,285.466 280.894,285.466 285.96,285.466 291.026,285.466 296.092,285.466 301.158,285.466 306.224,285.466 311.29,285.466 316.356,285.466 
  321.422,285.466 326.488,285.466 331.554,285.466 336.62,285.466 341.686,285.466 346.752,285.466 351.818,285.466 356.884,285.466 361.95,285.466 367.016,285.466 
  372.083,285.466 377.149,285.466 382.215,285.466 387.281,285.466 392.347,285.466 397.413,285.466 402.479,285.466 407.545,285.466 412.611,285.466 417.677,285.466 
  422.743,285.466 427.809,285.466 432.875,285.466 437.941,285.466 443.007,285.467 448.073,285.467 453.139,285.466 458.205,285.467 463.271,285.472 468.337,285.468 
  473.404,285.471 478.47,285.468 483.536,285.472 488.602,285.469 493.668,285.477 498.734,285.475 503.8,285.482 508.866,285.486 513.932,285.495 518.998,285.492 
  524.064,285.493 529.13,285.509 534.196,285.513 539.262,285.518 544.328,285.523 549.394,285.542 554.46,285.562 559.526,285.564 564.592,285.608 569.658,285.633 
  574.725,285.646 579.791,285.656 584.857,285.707 589.923,285.714 594.989,285.793 600.055,285.838 605.121,285.843 610.187,285.878 615.253,285.928 620.319,286.014 
  625.385,286.058 630.451,286.209 635.517,286.244 640.583,286.344 645.649,286.429 650.715,286.452 655.781,286.58 660.847,286.72 665.913,286.864 670.979,287.004 
  676.046,287.13 681.112,287.292 686.178,287.432 691.244,287.571 696.31,287.692 701.376,287.902 706.442,288.06 711.508,288.254 716.574,288.608 721.64,288.726 
  726.706,289.027 731.772,289.222 736.838,289.496 741.904,289.965 746.97,290.328 752.036,290.756 757.102,290.696 762.168,291.517 767.234,291.403 772.3,292.171 
  777.367,292.61 782.433,292.826 787.499,293.407 792.565,293.824 797.631,294.598 802.697,295.074 807.763,295.841 812.829,296.114 817.895,296.932 822.961,297.36 
  828.027,298.122 833.093,299.023 838.159,299.872 843.225,301.044 848.291,301.154 853.357,302.141 858.423,303.07 863.489,303.939 868.555,305.082 873.621,306.354 
  878.687,306.681 883.754,307.831 888.82,309.239 893.886,310.769 898.952,311.484 904.018,313.279 909.084,314.315 914.15,315.797 919.216,318.118 924.282,318.228 
  929.348,319.695 934.414,322.63 939.48,323.272 944.546,325.872 949.612,326.594 954.678,329.016 959.744,330.637 964.81,331.163 969.876,336.963 974.942,337.392 
  980.008,339.406 985.075,340.94 990.141,345.513 995.207,346.948 1000.27,349.904 1005.34,352.193 1010.4,357.128 1015.47,360.07 1020.54,360.29 1025.6,364.132 
  1030.67,369.321 1035.74,372.373 1040.8,378.629 1045.87,379.56 1050.93,385.526 1056,391.125 1061.07,393.868 1066.13,410.411 1071.2,406.213 1076.26,409.251 
  1081.33,421.197 1086.4,422.119 1091.46,432.996 1096.53,445.977 1101.59,444.176 1106.66,444.726 1111.73,459.239 1116.79,484.158 1121.86,492.848 1126.92,492.766 
  1131.99,501.824 1137.06,529.006 1142.12,507.922 1147.19,543.145 1152.25,566.469 1157.32,591.447 1162.39,631.258 1167.45,602.201 1172.52,660.082 1177.58,649.131 
  1182.65,664.401 1187.72,684.451 1192.78,734.729 1197.85,769.859 1202.91,769.752 1207.98,824.087 1213.05,852.597 1218.11,854.793 1223.18,878.614 1228.24,883.641 
  1233.31,886.653 1238.38,961.649 1243.44,955.561 1248.51,936.318 1253.58,972.259 1258.64,993.405 1263.71,1007.4 1268.77,1031.72 1273.84,1010.8 1278.91,1054.25 
  1283.97,1075.67 1289.04,1079.3 1294.1,1075.72 1299.17,1102.12 1304.24,1111.3 1309.3,1117.35 1314.37,1108.76 1319.43,1129.86 1324.5,1155.28 1329.57,1137.8 
  1334.63,1154.22 1339.7,1159.88 1344.76,1166.12 1349.83,1169.47 1354.9,1162.33 1359.96,1172.59 1365.03,1190.91 1370.09,1207.91 1375.16,1203.96 1380.23,1197.86 
  1385.29,1199.84 1390.36,1213.73 1395.42,1214.13 1400.49,1227.72 1405.56,1222.06 1410.62,1232.1 1415.69,1227.97 1420.75,1242.77 1425.82,1236.62 1430.89,1225.02 
  1435.95,1245.44 1441.02,1247.74 1446.09,1251.54 1451.15,1259.25 1456.22,1248.56 1461.28,1259.54 1466.35,1249.56 1471.42,1256.86 1476.48,1258.17 1481.55,1258.55 
  1486.61,1268.81 1491.68,1272.43 1496.75,1274.93 1501.81,1279.32 1506.88,1271.62 1511.94,1267.64 1517.01,1270.28 1522.08,1277.56 1527.14,1283.48 1532.21,1281.74 
  1537.27,1288.44 1542.34,1281.4 1547.41,1284.05 1552.47,1286.22 1557.54,1286.68 1562.6,1291 1567.67,1287.91 1572.74,1293.2 1577.8,1297.44 1582.87,1297.08 
  1587.93,1297.3 1593,1299.12 1598.07,1301.32 1603.13,1296.22 1608.2,1301.96 1613.26,1302.92 1618.33,1307.19 1623.4,1304.1 1628.46,1304.73 1633.53,1306.1 
  1638.59,1310.95 1643.66,1304.66 1648.73,1308.75 1653.79,1311.41 1658.86,1310.32 1663.93,1313.56 1668.99,1314.54 1674.06,1314.84 1679.12,1314.44 1684.19,1315.2 
  1689.26,1316.75 1694.32,1314.93 1699.39,1316.24 1704.45,1316.58 1709.52,1318.31 1714.59,1314.97 1719.65,1321.25 1724.72,1322.18 1729.78,1319.79 1734.85,1321.93 
  1739.92,1321.41 1744.98,1319.66 1750.05,1326.95 1755.11,1325.03 1760.18,1326.8 1765.25,1326.39 1770.31,1326.65 1775.38,1326.14 1780.44,1329.94 1785.51,1327.14 
  1790.58,1331.23 1795.64,1329.09 1800.71,1330.47 1805.77,1332.42 1810.84,1332.99 1815.91,1331.63 1820.97,1332.36 1826.04,1331.82 1831.1,1330.85 1836.17,1334.56 
  1841.24,1334.15 1846.3,1337.04 1851.37,1334.95 1856.44,1337.99 1861.5,1336.63 1866.57,1335.34 1871.63,1338.6 1876.7,1334.49 1881.77,1337.34 1886.83,1339.74 
  1891.9,1338.85 1896.96,1337.58 1902.03,1338.81 1907.1,1340.78 1912.16,1338.21 1917.23,1342.5 1922.29,1340.28 1927.36,1342.28 1932.43,1341.03 1937.49,1340.39 
  1942.56,1339.54 1947.62,1344.7 1952.69,1343.68 1957.76,1343.86 1962.82,1341.08 1967.89,1345.42 1972.95,1343.73 1978.02,1344.47 1983.09,1347 1988.15,1347.14 
  1993.22,1344 1998.28,1344.55 2003.35,1347.85 2008.42,1347.7 2013.48,1348.07 2018.55,1345.82 2023.61,1349.95 2028.68,1346.9 2033.75,1348.47 2038.81,1347.59 
  2043.88,1348.34 2048.94,1350.95 2054.01,1351.82 2059.08,1351.16 2064.14,1348.44 2069.21,1351.92 2074.28,1350.76 2079.34,1351.53 2084.41,1351.91 2089.47,1351.32 
  2094.54,1352.57 2099.61,1352.9 2104.67,1353.46 2109.74,1355.43 2114.8,1349.99 2119.87,1354.52 2124.94,1351.94 2130,1352.44 2135.07,1355.61 2140.13,1352.08 
  2145.2,1354.89 2150.27,1355.6 2155.33,1355.48 2160.4,1354.92 2165.46,1354.51 2170.53,1354.22 2175.6,1356.03 2180.66,1356.32 2185.73,1356.24 2190.79,1357.71 
  2195.86,1354.84 2200.93,1356.05 2205.99,1356.08 2211.06,1358.5 2216.12,1358.69 2221.19,1359.83 2226.26,1357.2 2231.32,1358.73 2236.39,1358.17 2241.45,1358.37 
  2246.52,1358.01 2251.59,1357.53 2256.65,1357.72 2261.72,1357.88 2266.79,1360.45 2271.85,1359.91 2276.92,1360.99 2281.98,1359.84 2287.05,1360.68 2292.12,1358.54 
  
  "/>
<polyline clip-path="url(#clip7402)" style="stroke:#c271d2; stroke-width:4; stroke-opacity:1; fill:none" points="
  270.762,160.256 275.828,160.256 280.894,160.256 285.96,160.256 291.026,160.256 296.092,160.256 301.158,160.256 306.224,160.256 311.29,160.256 316.356,160.256 
  321.422,160.256 326.488,160.256 331.554,160.256 336.62,160.256 341.686,160.256 346.752,160.256 351.818,160.256 356.884,160.256 361.95,160.256 367.016,160.256 
  372.083,160.256 377.149,160.256 382.215,160.256 387.281,160.256 392.347,160.256 397.413,160.256 402.479,160.256 407.545,160.256 412.611,160.256 417.677,160.256 
  422.743,160.257 427.809,160.257 432.875,160.256 437.941,160.257 443.007,160.257 448.073,160.256 453.139,160.257 458.205,160.257 463.271,160.257 468.337,160.259 
  473.404,160.257 478.47,160.265 483.536,160.264 488.602,160.262 493.668,160.266 498.734,160.267 503.8,160.27 508.866,160.275 513.932,160.278 518.998,160.284 
  524.064,160.284 529.13,160.296 534.196,160.309 539.262,160.308 544.328,160.335 549.394,160.333 554.46,160.368 559.526,160.371 564.592,160.401 569.658,160.424 
  574.725,160.435 579.791,160.49 584.857,160.505 589.923,160.54 594.989,160.577 600.055,160.642 605.121,160.673 610.187,160.694 615.253,160.791 620.319,160.86 
  625.385,160.914 630.451,160.96 635.517,161.083 640.583,161.142 645.649,161.26 650.715,161.373 655.781,161.483 660.847,161.619 665.913,161.756 670.979,161.841 
  676.046,162.06 681.112,162.164 686.178,162.339 691.244,162.558 696.31,162.787 701.376,162.895 706.442,163.117 711.508,163.405 716.574,163.814 721.64,164.04 
  726.706,164.321 731.772,164.556 736.838,164.821 741.904,165.14 746.97,165.626 752.036,166 757.102,166.479 762.168,166.811 767.234,167.101 772.3,167.597 
  777.367,168.103 782.433,168.567 787.499,169.128 792.565,169.505 797.631,170.18 802.697,170.922 807.763,171.451 812.829,172.072 817.895,172.933 822.961,173.735 
  828.027,174.413 833.093,175.014 838.159,175.912 843.225,177.098 848.291,177.893 853.357,178.667 858.423,179.72 863.489,180.782 868.555,181.836 873.621,183.288 
  878.687,184.538 883.754,185.396 888.82,186.345 893.886,187.481 898.952,188.856 904.018,190.537 909.084,191.575 914.15,193.225 919.216,195.276 924.282,196.855 
  929.348,198.514 934.414,200.481 939.48,202.941 944.546,204.61 949.612,207.913 954.678,208.101 959.744,211.35 964.81,213.691 969.876,215.845 974.942,217.915 
  980.008,218.909 985.075,222.993 990.141,226.09 995.207,228.279 1000.27,230.566 1005.34,234.996 1010.4,238.793 1015.47,241.007 1020.54,245.496 1025.6,249.686 
  1030.67,253.049 1035.74,259.197 1040.8,260.119 1045.87,267.108 1050.93,267.619 1056,278.658 1061.07,282.691 1066.13,289.224 1071.2,295.5 1076.26,305.241 
  1081.33,309.604 1086.4,321.989 1091.46,315.847 1096.53,331.234 1101.59,350.845 1106.66,347.948 1111.73,358.508 1116.79,366.419 1121.86,403.596 1126.92,406.935 
  1131.99,416.781 1137.06,421.07 1142.12,432.936 1147.19,473.16 1152.25,547.773 1157.32,571.142 1162.39,535.541 1167.45,660.351 1172.52,619.356 1177.58,629.673 
  1182.65,656.163 1187.72,686.742 1192.78,795.622 1197.85,806.98 1202.91,840.646 1207.98,887.934 1213.05,946.124 1218.11,957.088 1223.18,953.795 1228.24,976.906 
  1233.31,963.468 1238.38,1056.46 1243.44,1070.39 1248.51,1069.3 1253.58,1105.75 1258.64,1114.34 1263.71,1123.07 1268.77,1104.25 1273.84,1115.22 1278.91,1148.43 
  1283.97,1179.59 1289.04,1202.2 1294.1,1197 1299.17,1204.98 1304.24,1196.66 1309.3,1178.58 1314.37,1202.54 1319.43,1220.73 1324.5,1226.86 1329.57,1226.6 
  1334.63,1245.35 1339.7,1243.18 1344.76,1245.69 1349.83,1241.18 1354.9,1252.34 1359.96,1260.2 1365.03,1263.65 1370.09,1259.72 1375.16,1275.24 1380.23,1265.88 
  1385.29,1273.71 1390.36,1283.15 1395.42,1284.87 1400.49,1277.88 1405.56,1285.4 1410.62,1278.05 1415.69,1292.19 1420.75,1289.07 1425.82,1291.87 1430.89,1300.56 
  1435.95,1298.98 1441.02,1304.51 1446.09,1311.28 1451.15,1298.88 1456.22,1308.71 1461.28,1310.82 1466.35,1316.69 1471.42,1305.39 1476.48,1315.23 1481.55,1318.78 
  1486.61,1318.56 1491.68,1314.86 1496.75,1317.67 1501.81,1322.07 1506.88,1321.15 1511.94,1321.32 1517.01,1324.51 1522.08,1322.73 1527.14,1327.85 1532.21,1331.1 
  1537.27,1335.37 1542.34,1326.21 1547.41,1329.89 1552.47,1334.47 1557.54,1330.24 1562.6,1336.69 1567.67,1336.93 1572.74,1337.06 1577.8,1337.28 1582.87,1342.38 
  1587.93,1336.26 1593,1342.1 1598.07,1341.71 1603.13,1343.29 1608.2,1340.67 1613.26,1343.87 1618.33,1344.27 1623.4,1342.99 1628.46,1347.47 1633.53,1345.86 
  1638.59,1350.34 1643.66,1352.23 1648.73,1347.33 1653.79,1349.52 1658.86,1349.36 1663.93,1351.17 1668.99,1352.16 1674.06,1350.36 1679.12,1351.69 1684.19,1354.36 
  1689.26,1349.37 1694.32,1354.57 1699.39,1355.71 1704.45,1356.79 1709.52,1355.08 1714.59,1354.97 1719.65,1353.07 1724.72,1359.52 1729.78,1357.2 1734.85,1360.01 
  1739.92,1359.52 1744.98,1361.36 1750.05,1359.75 1755.11,1361.26 1760.18,1359.98 1765.25,1362.78 1770.31,1361.55 1775.38,1360.67 1780.44,1364.31 1785.51,1364.46 
  1790.58,1364.3 1795.64,1362.61 1800.71,1362.1 1805.77,1362.2 1810.84,1364.3 1815.91,1364.78 1820.97,1365.96 1826.04,1366.07 1831.1,1364.95 1836.17,1366.46 
  1841.24,1369.58 1846.3,1366.89 1851.37,1368.04 1856.44,1367.35 1861.5,1369.76 1866.57,1367.59 1871.63,1369.93 1876.7,1370.83 1881.77,1368.39 1886.83,1371.04 
  1891.9,1369.59 1896.96,1369.87 1902.03,1370.6 1907.1,1369.68 1912.16,1372.48 1917.23,1371.65 1922.29,1372.58 1927.36,1372.64 1932.43,1373.45 1937.49,1373.75 
  1942.56,1373.03 1947.62,1373.89 1952.69,1374 1957.76,1374.65 1962.82,1374.14 1967.89,1375.42 1972.95,1373.03 1978.02,1374.17 1983.09,1375.52 1988.15,1374.32 
  1993.22,1373.47 1998.28,1376.17 2003.35,1375.59 2008.42,1376.55 2013.48,1377.18 2018.55,1375.44 2023.61,1374.81 2028.68,1376.23 2033.75,1378.21 2038.81,1379.51 
  2043.88,1378.58 2048.94,1377.67 2054.01,1381.62 2059.08,1378.75 2064.14,1379.58 2069.21,1378.88 2074.28,1379.67 2079.34,1379.8 2084.41,1379.47 2089.47,1378.77 
  2094.54,1378.98 2099.61,1379.24 2104.67,1382 2109.74,1379.71 2114.8,1379.88 2119.87,1378.7 2124.94,1381.48 2130,1381.08 2135.07,1381.34 2140.13,1382.57 
  2145.2,1382.37 2150.27,1381.61 2155.33,1382.27 2160.4,1381.44 2165.46,1381.12 2170.53,1381.51 2175.6,1381.41 2180.66,1382.39 2185.73,1382.42 2190.79,1383.16 
  2195.86,1383.5 2200.93,1383.18 2205.99,1382.59 2211.06,1383.57 2216.12,1383.7 2221.19,1384.92 2226.26,1384.33 2231.32,1383.42 2236.39,1384.36 2241.45,1385.17 
  2246.52,1385.34 2251.59,1384.72 2256.65,1385.54 2261.72,1386.21 2266.79,1385.83 2271.85,1384.99 2276.92,1385.56 2281.98,1386.4 2287.05,1385.45 2292.12,1385.28 
  
  "/>
<path clip-path="url(#clip7400)" d="
M1612.15 509.392 L2280.76 509.392 L2280.76 206.992 L1612.15 206.992  Z
  " fill="#ffffff" fill-rule="evenodd" fill-opacity="1"/>
<polyline clip-path="url(#clip7400)" style="stroke:#000000; stroke-width:4; stroke-opacity:1; fill:none" points="
  1612.15,509.392 2280.76,509.392 2280.76,206.992 1612.15,206.992 1612.15,509.392 
  "/>
<polyline clip-path="url(#clip7400)" style="stroke:#009af9; stroke-width:4; stroke-opacity:1; fill:none" points="
  1636.15,267.472 1780.15,267.472 
  "/>
<path clip-path="url(#clip7400)" d="M 0 0 M1804.15 250.192 L1808.82 250.192 L1808.82 280.817 L1825.65 280.817 L1825.65 284.752 L1804.15 284.752 L1804.15 250.192 Z" fill="#000000" fill-rule="evenodd" fill-opacity="1" /><path clip-path="url(#clip7400)" d="M 0 0 M1847.78 250.192 L1860.35 263.086 L1855.7 263.086 L1845.51 253.942 L1835.33 263.086 L1830.67 263.086 L1843.24 250.192 L1847.78 250.192 Z" fill="#000000" fill-rule="evenodd" fill-opacity="1" /><path clip-path="url(#clip7400)" d="M 0 0 M1875.05 248.78 Q1871.95 254.104 1870.44 259.312 Q1868.94 264.521 1868.94 269.868 Q1868.94 275.215 1870.44 280.47 Q1871.97 285.701 1875.05 291.002 L1871.35 291.002 Q1867.87 285.562 1866.14 280.308 Q1864.42 275.053 1864.42 269.868 Q1864.42 264.706 1866.14 259.474 Q1867.85 254.243 1871.35 248.78 L1875.05 248.78 Z" fill="#000000" fill-rule="evenodd" fill-opacity="1" /><path clip-path="url(#clip7400)" d="M 0 0 M1898.13 271.812 Q1898.13 267.113 1896.18 264.451 Q1894.26 261.766 1890.88 261.766 Q1887.5 261.766 1885.56 264.451 Q1883.64 267.113 1883.64 271.812 Q1883.64 276.511 1885.56 279.197 Q1887.5 281.859 1890.88 281.859 Q1894.26 281.859 1896.18 279.197 Q1898.13 276.511 1898.13 271.812 M1883.64 262.762 Q1884.98 260.447 1887.02 259.336 Q1889.08 258.201 1891.92 258.201 Q1896.65 258.201 1899.59 261.951 Q1902.55 265.701 1902.55 271.812 Q1902.55 277.923 1899.59 281.673 Q1896.65 285.423 1891.92 285.423 Q1889.08 285.423 1887.02 284.312 Q1884.98 283.178 1883.64 280.863 L1883.64 284.752 L1879.36 284.752 L1879.36 248.734 L1883.64 248.734 L1883.64 262.762 Z" fill="#000000" fill-rule="evenodd" fill-opacity="1" /><path clip-path="url(#clip7400)" d="M 0 0 M1929.19 270.724 L1929.19 272.808 L1909.61 272.808 Q1909.89 277.206 1912.25 279.521 Q1914.63 281.812 1918.87 281.812 Q1921.32 281.812 1923.61 281.21 Q1925.93 280.609 1928.2 279.405 L1928.2 283.433 Q1925.91 284.405 1923.5 284.914 Q1921.09 285.423 1918.61 285.423 Q1912.41 285.423 1908.78 281.812 Q1905.17 278.201 1905.17 272.044 Q1905.17 265.678 1908.59 261.951 Q1912.04 258.201 1917.87 258.201 Q1923.1 258.201 1926.14 261.581 Q1929.19 264.937 1929.19 270.724 M1924.93 269.474 Q1924.89 265.979 1922.97 263.896 Q1921.07 261.812 1917.92 261.812 Q1914.35 261.812 1912.2 263.826 Q1910.07 265.84 1909.75 269.498 L1924.93 269.474 Z" fill="#000000" fill-rule="evenodd" fill-opacity="1" /><path clip-path="url(#clip7400)" d="M 0 0 M1937.87 251.465 L1937.87 258.826 L1946.65 258.826 L1946.65 262.137 L1937.87 262.137 L1937.87 276.211 Q1937.87 279.382 1938.73 280.285 Q1939.61 281.187 1942.27 281.187 L1946.65 281.187 L1946.65 284.752 L1942.27 284.752 Q1937.34 284.752 1935.47 282.923 Q1933.59 281.072 1933.59 276.211 L1933.59 262.137 L1930.47 262.137 L1930.47 258.826 L1933.59 258.826 L1933.59 251.465 L1937.87 251.465 Z" fill="#000000" fill-rule="evenodd" fill-opacity="1" /><path clip-path="url(#clip7400)" d="M 0 0 M1962.9 271.72 Q1957.73 271.72 1955.74 272.9 Q1953.75 274.081 1953.75 276.928 Q1953.75 279.197 1955.23 280.539 Q1956.74 281.859 1959.31 281.859 Q1962.85 281.859 1964.98 279.359 Q1967.13 276.836 1967.13 272.669 L1967.13 271.72 L1962.9 271.72 M1971.39 269.961 L1971.39 284.752 L1967.13 284.752 L1967.13 280.817 Q1965.67 283.178 1963.5 284.312 Q1961.32 285.423 1958.17 285.423 Q1954.19 285.423 1951.83 283.201 Q1949.49 280.956 1949.49 277.206 Q1949.49 272.831 1952.41 270.609 Q1955.35 268.386 1961.16 268.386 L1967.13 268.386 L1967.13 267.97 Q1967.13 265.03 1965.19 263.433 Q1963.27 261.812 1959.77 261.812 Q1957.55 261.812 1955.44 262.345 Q1953.34 262.877 1951.39 263.942 L1951.39 260.007 Q1953.73 259.104 1955.93 258.664 Q1958.13 258.201 1960.21 258.201 Q1965.84 258.201 1968.61 261.118 Q1971.39 264.035 1971.39 269.961 Z" fill="#000000" fill-rule="evenodd" fill-opacity="1" /><path clip-path="url(#clip7400)" d="M 0 0 M1983.43 250.192 L1987.36 250.192 L1975.33 289.15 L1971.39 289.15 L1983.43 250.192 Z" fill="#000000" fill-rule="evenodd" fill-opacity="1" /><path clip-path="url(#clip7400)" d="M 0 0 M2013.38 269.104 L2013.38 284.752 L2009.12 284.752 L2009.12 269.243 Q2009.12 265.562 2007.69 263.734 Q2006.25 261.905 2003.38 261.905 Q1999.93 261.905 1997.94 264.104 Q1995.95 266.303 1995.95 270.099 L1995.95 284.752 L1991.67 284.752 L1991.67 258.826 L1995.95 258.826 L1995.95 262.854 Q1997.48 260.516 1999.54 259.359 Q2001.62 258.201 2004.33 258.201 Q2008.8 258.201 2011.09 260.979 Q2013.38 263.734 2013.38 269.104 Z" fill="#000000" fill-rule="evenodd" fill-opacity="1" /><path clip-path="url(#clip7400)" d="M 0 0 M2017.41 274.521 L2017.41 258.826 L2021.67 258.826 L2021.67 274.359 Q2021.67 278.039 2023.1 279.891 Q2024.54 281.72 2027.41 281.72 Q2030.86 281.72 2032.85 279.521 Q2034.86 277.322 2034.86 273.525 L2034.86 258.826 L2039.12 258.826 L2039.12 284.752 L2034.86 284.752 L2034.86 280.771 Q2033.31 283.132 2031.25 284.289 Q2029.22 285.423 2026.51 285.423 Q2022.04 285.423 2019.72 282.646 Q2017.41 279.868 2017.41 274.521 M2028.13 258.201 L2028.13 258.201 Z" fill="#000000" fill-rule="evenodd" fill-opacity="1" /><path clip-path="url(#clip7400)" d="M 0 0 M2042.92 248.78 L2046.62 248.78 Q2050.09 254.243 2051.81 259.474 Q2053.54 264.706 2053.54 269.868 Q2053.54 275.053 2051.81 280.308 Q2050.09 285.562 2046.62 291.002 L2042.92 291.002 Q2046 285.701 2047.5 280.47 Q2049.03 275.215 2049.03 269.868 Q2049.03 264.521 2047.5 259.312 Q2046 254.104 2042.92 248.78 Z" fill="#000000" fill-rule="evenodd" fill-opacity="1" /><path clip-path="url(#clip7400)" d="M 0 0 M2058.2 250.192 L2065.16 250.192 L2073.98 273.711 L2082.85 250.192 L2089.82 250.192 L2089.82 284.752 L2085.26 284.752 L2085.26 254.405 L2076.34 278.109 L2071.65 278.109 L2062.73 254.405 L2062.73 284.752 L2058.2 284.752 L2058.2 250.192 Z" fill="#000000" fill-rule="evenodd" fill-opacity="1" /><path clip-path="url(#clip7400)" d="M 0 0 M2104.52 248.78 Q2101.41 254.104 2099.91 259.312 Q2098.4 264.521 2098.4 269.868 Q2098.4 275.215 2099.91 280.47 Q2101.44 285.701 2104.52 291.002 L2100.81 291.002 Q2097.34 285.562 2095.6 280.308 Q2093.89 275.053 2093.89 269.868 Q2093.89 264.706 2095.6 259.474 Q2097.32 254.243 2100.81 248.78 L2104.52 248.78 Z" fill="#000000" fill-rule="evenodd" fill-opacity="1" /><path clip-path="url(#clip7400)" d="M 0 0 M2109.17 250.192 L2113.84 250.192 L2113.84 280.817 L2130.67 280.817 L2130.67 284.752 L2109.17 284.752 L2109.17 250.192 Z" fill="#000000" fill-rule="evenodd" fill-opacity="1" /><path clip-path="url(#clip7400)" d="M 0 0 M2135.7 263.224 L2165.37 263.224 L2165.37 267.113 L2135.7 267.113 L2135.7 263.224 M2135.7 272.669 L2165.37 272.669 L2165.37 276.604 L2135.7 276.604 L2135.7 272.669 Z" fill="#000000" fill-rule="evenodd" fill-opacity="1" /><path clip-path="url(#clip7400)" d="M 0 0 M2180.44 268.34 Q2177.11 268.34 2175.19 270.123 Q2173.29 271.905 2173.29 275.03 Q2173.29 278.155 2175.19 279.937 Q2177.11 281.72 2180.44 281.72 Q2183.77 281.72 2185.7 279.937 Q2187.62 278.132 2187.62 275.03 Q2187.62 271.905 2185.7 270.123 Q2183.8 268.34 2180.44 268.34 M2175.77 266.349 Q2172.76 265.609 2171.07 263.549 Q2169.4 261.488 2169.4 258.525 Q2169.4 254.382 2172.34 251.975 Q2175.3 249.567 2180.44 249.567 Q2185.6 249.567 2188.54 251.975 Q2191.48 254.382 2191.48 258.525 Q2191.48 261.488 2189.79 263.549 Q2188.13 265.609 2185.14 266.349 Q2188.52 267.136 2190.4 269.428 Q2192.29 271.72 2192.29 275.03 Q2192.29 280.053 2189.21 282.738 Q2186.16 285.423 2180.44 285.423 Q2174.72 285.423 2171.65 282.738 Q2168.59 280.053 2168.59 275.03 Q2168.59 271.72 2170.49 269.428 Q2172.39 267.136 2175.77 266.349 M2174.05 258.965 Q2174.05 261.65 2175.72 263.155 Q2177.41 264.66 2180.44 264.66 Q2183.45 264.66 2185.14 263.155 Q2186.85 261.65 2186.85 258.965 Q2186.85 256.28 2185.14 254.775 Q2183.45 253.271 2180.44 253.271 Q2177.41 253.271 2175.72 254.775 Q2174.05 256.28 2174.05 258.965 Z" fill="#000000" fill-rule="evenodd" fill-opacity="1" /><path clip-path="url(#clip7400)" d="M 0 0 M2196.09 248.78 L2199.79 248.78 Q2203.27 254.243 2204.98 259.474 Q2206.71 264.706 2206.71 269.868 Q2206.71 275.053 2204.98 280.308 Q2203.27 285.562 2199.79 291.002 L2196.09 291.002 Q2199.17 285.701 2200.67 280.47 Q2202.2 275.215 2202.2 269.868 Q2202.2 264.521 2200.67 259.312 Q2199.17 254.104 2196.09 248.78 Z" fill="#000000" fill-rule="evenodd" fill-opacity="1" /><polyline clip-path="url(#clip7400)" style="stroke:#e26f46; stroke-width:4; stroke-opacity:1; fill:none" points="
  1636.15,327.952 1780.15,327.952 
  "/>
<path clip-path="url(#clip7400)" d="M 0 0 M1804.15 310.672 L1808.82 310.672 L1808.82 341.297 L1825.65 341.297 L1825.65 345.232 L1804.15 345.232 L1804.15 310.672 Z" fill="#000000" fill-rule="evenodd" fill-opacity="1" /><path clip-path="url(#clip7400)" d="M 0 0 M1847.78 310.672 L1860.35 323.566 L1855.7 323.566 L1845.51 314.422 L1835.33 323.566 L1830.67 323.566 L1843.24 310.672 L1847.78 310.672 Z" fill="#000000" fill-rule="evenodd" fill-opacity="1" /><path clip-path="url(#clip7400)" d="M 0 0 M1875.05 309.26 Q1871.95 314.584 1870.44 319.792 Q1868.94 325.001 1868.94 330.348 Q1868.94 335.695 1870.44 340.95 Q1871.97 346.181 1875.05 351.482 L1871.35 351.482 Q1867.87 346.042 1866.14 340.788 Q1864.42 335.533 1864.42 330.348 Q1864.42 325.186 1866.14 319.954 Q1867.85 314.723 1871.35 309.26 L1875.05 309.26 Z" fill="#000000" fill-rule="evenodd" fill-opacity="1" /><path clip-path="url(#clip7400)" d="M 0 0 M1898.13 332.292 Q1898.13 327.593 1896.18 324.931 Q1894.26 322.246 1890.88 322.246 Q1887.5 322.246 1885.56 324.931 Q1883.64 327.593 1883.64 332.292 Q1883.64 336.991 1885.56 339.677 Q1887.5 342.339 1890.88 342.339 Q1894.26 342.339 1896.18 339.677 Q1898.13 336.991 1898.13 332.292 M1883.64 323.242 Q1884.98 320.927 1887.02 319.816 Q1889.08 318.681 1891.92 318.681 Q1896.65 318.681 1899.59 322.431 Q1902.55 326.181 1902.55 332.292 Q1902.55 338.403 1899.59 342.153 Q1896.65 345.903 1891.92 345.903 Q1889.08 345.903 1887.02 344.792 Q1884.98 343.658 1883.64 341.343 L1883.64 345.232 L1879.36 345.232 L1879.36 309.214 L1883.64 309.214 L1883.64 323.242 Z" fill="#000000" fill-rule="evenodd" fill-opacity="1" /><path clip-path="url(#clip7400)" d="M 0 0 M1929.19 331.204 L1929.19 333.288 L1909.61 333.288 Q1909.89 337.686 1912.25 340.001 Q1914.63 342.292 1918.87 342.292 Q1921.32 342.292 1923.61 341.69 Q1925.93 341.089 1928.2 339.885 L1928.2 343.913 Q1925.91 344.885 1923.5 345.394 Q1921.09 345.903 1918.61 345.903 Q1912.41 345.903 1908.78 342.292 Q1905.17 338.681 1905.17 332.524 Q1905.17 326.158 1908.59 322.431 Q1912.04 318.681 1917.87 318.681 Q1923.1 318.681 1926.14 322.061 Q1929.19 325.417 1929.19 331.204 M1924.93 329.954 Q1924.89 326.459 1922.97 324.376 Q1921.07 322.292 1917.92 322.292 Q1914.35 322.292 1912.2 324.306 Q1910.07 326.32 1909.75 329.978 L1924.93 329.954 Z" fill="#000000" fill-rule="evenodd" fill-opacity="1" /><path clip-path="url(#clip7400)" d="M 0 0 M1937.87 311.945 L1937.87 319.306 L1946.65 319.306 L1946.65 322.617 L1937.87 322.617 L1937.87 336.691 Q1937.87 339.862 1938.73 340.765 Q1939.61 341.667 1942.27 341.667 L1946.65 341.667 L1946.65 345.232 L1942.27 345.232 Q1937.34 345.232 1935.47 343.403 Q1933.59 341.552 1933.59 336.691 L1933.59 322.617 L1930.47 322.617 L1930.47 319.306 L1933.59 319.306 L1933.59 311.945 L1937.87 311.945 Z" fill="#000000" fill-rule="evenodd" fill-opacity="1" /><path clip-path="url(#clip7400)" d="M 0 0 M1962.9 332.2 Q1957.73 332.2 1955.74 333.38 Q1953.75 334.561 1953.75 337.408 Q1953.75 339.677 1955.23 341.019 Q1956.74 342.339 1959.31 342.339 Q1962.85 342.339 1964.98 339.839 Q1967.13 337.316 1967.13 333.149 L1967.13 332.2 L1962.9 332.2 M1971.39 330.441 L1971.39 345.232 L1967.13 345.232 L1967.13 341.297 Q1965.67 343.658 1963.5 344.792 Q1961.32 345.903 1958.17 345.903 Q1954.19 345.903 1951.83 343.681 Q1949.49 341.436 1949.49 337.686 Q1949.49 333.311 1952.41 331.089 Q1955.35 328.866 1961.16 328.866 L1967.13 328.866 L1967.13 328.45 Q1967.13 325.51 1965.19 323.913 Q1963.27 322.292 1959.77 322.292 Q1957.55 322.292 1955.44 322.825 Q1953.34 323.357 1951.39 324.422 L1951.39 320.487 Q1953.73 319.584 1955.93 319.144 Q1958.13 318.681 1960.21 318.681 Q1965.84 318.681 1968.61 321.598 Q1971.39 324.515 1971.39 330.441 Z" fill="#000000" fill-rule="evenodd" fill-opacity="1" /><path clip-path="url(#clip7400)" d="M 0 0 M1983.43 310.672 L1987.36 310.672 L1975.33 349.63 L1971.39 349.63 L1983.43 310.672 Z" fill="#000000" fill-rule="evenodd" fill-opacity="1" /><path clip-path="url(#clip7400)" d="M 0 0 M2013.38 329.584 L2013.38 345.232 L2009.12 345.232 L2009.12 329.723 Q2009.12 326.042 2007.69 324.214 Q2006.25 322.385 2003.38 322.385 Q1999.93 322.385 1997.94 324.584 Q1995.95 326.783 1995.95 330.579 L1995.95 345.232 L1991.67 345.232 L1991.67 319.306 L1995.95 319.306 L1995.95 323.334 Q1997.48 320.996 1999.54 319.839 Q2001.62 318.681 2004.33 318.681 Q2008.8 318.681 2011.09 321.459 Q2013.38 324.214 2013.38 329.584 Z" fill="#000000" fill-rule="evenodd" fill-opacity="1" /><path clip-path="url(#clip7400)" d="M 0 0 M2017.41 335.001 L2017.41 319.306 L2021.67 319.306 L2021.67 334.839 Q2021.67 338.519 2023.1 340.371 Q2024.54 342.2 2027.41 342.2 Q2030.86 342.2 2032.85 340.001 Q2034.86 337.802 2034.86 334.005 L2034.86 319.306 L2039.12 319.306 L2039.12 345.232 L2034.86 345.232 L2034.86 341.251 Q2033.31 343.612 2031.25 344.769 Q2029.22 345.903 2026.51 345.903 Q2022.04 345.903 2019.72 343.126 Q2017.41 340.348 2017.41 335.001 M2028.13 318.681 L2028.13 318.681 Z" fill="#000000" fill-rule="evenodd" fill-opacity="1" /><path clip-path="url(#clip7400)" d="M 0 0 M2042.92 309.26 L2046.62 309.26 Q2050.09 314.723 2051.81 319.954 Q2053.54 325.186 2053.54 330.348 Q2053.54 335.533 2051.81 340.788 Q2050.09 346.042 2046.62 351.482 L2042.92 351.482 Q2046 346.181 2047.5 340.95 Q2049.03 335.695 2049.03 330.348 Q2049.03 325.001 2047.5 319.792 Q2046 314.584 2042.92 309.26 Z" fill="#000000" fill-rule="evenodd" fill-opacity="1" /><path clip-path="url(#clip7400)" d="M 0 0 M2058.2 310.672 L2065.16 310.672 L2073.98 334.191 L2082.85 310.672 L2089.82 310.672 L2089.82 345.232 L2085.26 345.232 L2085.26 314.885 L2076.34 338.589 L2071.65 338.589 L2062.73 314.885 L2062.73 345.232 L2058.2 345.232 L2058.2 310.672 Z" fill="#000000" fill-rule="evenodd" fill-opacity="1" /><path clip-path="url(#clip7400)" d="M 0 0 M2104.52 309.26 Q2101.41 314.584 2099.91 319.792 Q2098.4 325.001 2098.4 330.348 Q2098.4 335.695 2099.91 340.95 Q2101.44 346.181 2104.52 351.482 L2100.81 351.482 Q2097.34 346.042 2095.6 340.788 Q2093.89 335.533 2093.89 330.348 Q2093.89 325.186 2095.6 319.954 Q2097.32 314.723 2100.81 309.26 L2104.52 309.26 Z" fill="#000000" fill-rule="evenodd" fill-opacity="1" /><path clip-path="url(#clip7400)" d="M 0 0 M2109.17 310.672 L2113.84 310.672 L2113.84 341.297 L2130.67 341.297 L2130.67 345.232 L2109.17 345.232 L2109.17 310.672 Z" fill="#000000" fill-rule="evenodd" fill-opacity="1" /><path clip-path="url(#clip7400)" d="M 0 0 M2135.7 323.704 L2165.37 323.704 L2165.37 327.593 L2135.7 327.593 L2135.7 323.704 M2135.7 333.149 L2165.37 333.149 L2165.37 337.084 L2135.7 337.084 L2135.7 333.149 Z" fill="#000000" fill-rule="evenodd" fill-opacity="1" /><path clip-path="url(#clip7400)" d="M 0 0 M2171.25 341.297 L2178.89 341.297 L2178.89 314.931 L2170.58 316.598 L2170.58 312.339 L2178.84 310.672 L2183.52 310.672 L2183.52 341.297 L2191.16 341.297 L2191.16 345.232 L2171.25 345.232 L2171.25 341.297 Z" fill="#000000" fill-rule="evenodd" fill-opacity="1" /><path clip-path="url(#clip7400)" d="M 0 0 M2200.26 341.297 L2216.58 341.297 L2216.58 345.232 L2194.63 345.232 L2194.63 341.297 Q2197.29 338.542 2201.88 333.913 Q2206.48 329.26 2207.66 327.917 Q2209.91 325.394 2210.79 323.658 Q2211.69 321.899 2211.69 320.209 Q2211.69 317.454 2209.75 315.718 Q2207.83 313.982 2204.72 313.982 Q2202.52 313.982 2200.07 314.746 Q2197.64 315.51 2194.86 317.061 L2194.86 312.339 Q2197.69 311.205 2200.14 310.626 Q2202.59 310.047 2204.63 310.047 Q2210 310.047 2213.2 312.732 Q2216.39 315.417 2216.39 319.908 Q2216.39 322.038 2215.58 323.959 Q2214.79 325.857 2212.69 328.45 Q2212.11 329.121 2209.01 332.339 Q2205.9 335.533 2200.26 341.297 Z" fill="#000000" fill-rule="evenodd" fill-opacity="1" /><path clip-path="url(#clip7400)" d="M 0 0 M2220.37 309.26 L2224.08 309.26 Q2227.55 314.723 2229.26 319.954 Q2231 325.186 2231 330.348 Q2231 335.533 2229.26 340.788 Q2227.55 346.042 2224.08 351.482 L2220.37 351.482 Q2223.45 346.181 2224.96 340.95 Q2226.48 335.695 2226.48 330.348 Q2226.48 325.001 2224.96 319.792 Q2223.45 314.584 2220.37 309.26 Z" fill="#000000" fill-rule="evenodd" fill-opacity="1" /><polyline clip-path="url(#clip7400)" style="stroke:#3da44d; stroke-width:4; stroke-opacity:1; fill:none" points="
  1636.15,388.432 1780.15,388.432 
  "/>
<path clip-path="url(#clip7400)" d="M 0 0 M1804.15 371.152 L1808.82 371.152 L1808.82 401.777 L1825.65 401.777 L1825.65 405.712 L1804.15 405.712 L1804.15 371.152 Z" fill="#000000" fill-rule="evenodd" fill-opacity="1" /><path clip-path="url(#clip7400)" d="M 0 0 M1847.78 371.152 L1860.35 384.046 L1855.7 384.046 L1845.51 374.902 L1835.33 384.046 L1830.67 384.046 L1843.24 371.152 L1847.78 371.152 Z" fill="#000000" fill-rule="evenodd" fill-opacity="1" /><path clip-path="url(#clip7400)" d="M 0 0 M1875.05 369.74 Q1871.95 375.064 1870.44 380.272 Q1868.94 385.481 1868.94 390.828 Q1868.94 396.175 1870.44 401.43 Q1871.97 406.661 1875.05 411.962 L1871.35 411.962 Q1867.87 406.522 1866.14 401.268 Q1864.42 396.013 1864.42 390.828 Q1864.42 385.666 1866.14 380.434 Q1867.85 375.203 1871.35 369.74 L1875.05 369.74 Z" fill="#000000" fill-rule="evenodd" fill-opacity="1" /><path clip-path="url(#clip7400)" d="M 0 0 M1898.13 392.772 Q1898.13 388.073 1896.18 385.411 Q1894.26 382.726 1890.88 382.726 Q1887.5 382.726 1885.56 385.411 Q1883.64 388.073 1883.64 392.772 Q1883.64 397.471 1885.56 400.157 Q1887.5 402.819 1890.88 402.819 Q1894.26 402.819 1896.18 400.157 Q1898.13 397.471 1898.13 392.772 M1883.64 383.722 Q1884.98 381.407 1887.02 380.296 Q1889.08 379.161 1891.92 379.161 Q1896.65 379.161 1899.59 382.911 Q1902.55 386.661 1902.55 392.772 Q1902.55 398.883 1899.59 402.633 Q1896.65 406.383 1891.92 406.383 Q1889.08 406.383 1887.02 405.272 Q1884.98 404.138 1883.64 401.823 L1883.64 405.712 L1879.36 405.712 L1879.36 369.694 L1883.64 369.694 L1883.64 383.722 Z" fill="#000000" fill-rule="evenodd" fill-opacity="1" /><path clip-path="url(#clip7400)" d="M 0 0 M1929.19 391.684 L1929.19 393.768 L1909.61 393.768 Q1909.89 398.166 1912.25 400.481 Q1914.63 402.772 1918.87 402.772 Q1921.32 402.772 1923.61 402.17 Q1925.93 401.569 1928.2 400.365 L1928.2 404.393 Q1925.91 405.365 1923.5 405.874 Q1921.09 406.383 1918.61 406.383 Q1912.41 406.383 1908.78 402.772 Q1905.17 399.161 1905.17 393.004 Q1905.17 386.638 1908.59 382.911 Q1912.04 379.161 1917.87 379.161 Q1923.1 379.161 1926.14 382.541 Q1929.19 385.897 1929.19 391.684 M1924.93 390.434 Q1924.89 386.939 1922.97 384.856 Q1921.07 382.772 1917.92 382.772 Q1914.35 382.772 1912.2 384.786 Q1910.07 386.8 1909.75 390.458 L1924.93 390.434 Z" fill="#000000" fill-rule="evenodd" fill-opacity="1" /><path clip-path="url(#clip7400)" d="M 0 0 M1937.87 372.425 L1937.87 379.786 L1946.65 379.786 L1946.65 383.097 L1937.87 383.097 L1937.87 397.171 Q1937.87 400.342 1938.73 401.245 Q1939.61 402.147 1942.27 402.147 L1946.65 402.147 L1946.65 405.712 L1942.27 405.712 Q1937.34 405.712 1935.47 403.883 Q1933.59 402.032 1933.59 397.171 L1933.59 383.097 L1930.47 383.097 L1930.47 379.786 L1933.59 379.786 L1933.59 372.425 L1937.87 372.425 Z" fill="#000000" fill-rule="evenodd" fill-opacity="1" /><path clip-path="url(#clip7400)" d="M 0 0 M1962.9 392.68 Q1957.73 392.68 1955.74 393.86 Q1953.75 395.041 1953.75 397.888 Q1953.75 400.157 1955.23 401.499 Q1956.74 402.819 1959.31 402.819 Q1962.85 402.819 1964.98 400.319 Q1967.13 397.796 1967.13 393.629 L1967.13 392.68 L1962.9 392.68 M1971.39 390.921 L1971.39 405.712 L1967.13 405.712 L1967.13 401.777 Q1965.67 404.138 1963.5 405.272 Q1961.32 406.383 1958.17 406.383 Q1954.19 406.383 1951.83 404.161 Q1949.49 401.916 1949.49 398.166 Q1949.49 393.791 1952.41 391.569 Q1955.35 389.346 1961.16 389.346 L1967.13 389.346 L1967.13 388.93 Q1967.13 385.99 1965.19 384.393 Q1963.27 382.772 1959.77 382.772 Q1957.55 382.772 1955.44 383.305 Q1953.34 383.837 1951.39 384.902 L1951.39 380.967 Q1953.73 380.064 1955.93 379.624 Q1958.13 379.161 1960.21 379.161 Q1965.84 379.161 1968.61 382.078 Q1971.39 384.995 1971.39 390.921 Z" fill="#000000" fill-rule="evenodd" fill-opacity="1" /><path clip-path="url(#clip7400)" d="M 0 0 M1983.43 371.152 L1987.36 371.152 L1975.33 410.11 L1971.39 410.11 L1983.43 371.152 Z" fill="#000000" fill-rule="evenodd" fill-opacity="1" /><path clip-path="url(#clip7400)" d="M 0 0 M2013.38 390.064 L2013.38 405.712 L2009.12 405.712 L2009.12 390.203 Q2009.12 386.522 2007.69 384.694 Q2006.25 382.865 2003.38 382.865 Q1999.93 382.865 1997.94 385.064 Q1995.95 387.263 1995.95 391.059 L1995.95 405.712 L1991.67 405.712 L1991.67 379.786 L1995.95 379.786 L1995.95 383.814 Q1997.48 381.476 1999.54 380.319 Q2001.62 379.161 2004.33 379.161 Q2008.8 379.161 2011.09 381.939 Q2013.38 384.694 2013.38 390.064 Z" fill="#000000" fill-rule="evenodd" fill-opacity="1" /><path clip-path="url(#clip7400)" d="M 0 0 M2017.41 395.481 L2017.41 379.786 L2021.67 379.786 L2021.67 395.319 Q2021.67 398.999 2023.1 400.851 Q2024.54 402.68 2027.41 402.68 Q2030.86 402.68 2032.85 400.481 Q2034.86 398.282 2034.86 394.485 L2034.86 379.786 L2039.12 379.786 L2039.12 405.712 L2034.86 405.712 L2034.86 401.731 Q2033.31 404.092 2031.25 405.249 Q2029.22 406.383 2026.51 406.383 Q2022.04 406.383 2019.72 403.606 Q2017.41 400.828 2017.41 395.481 M2028.13 379.161 L2028.13 379.161 Z" fill="#000000" fill-rule="evenodd" fill-opacity="1" /><path clip-path="url(#clip7400)" d="M 0 0 M2042.92 369.74 L2046.62 369.74 Q2050.09 375.203 2051.81 380.434 Q2053.54 385.666 2053.54 390.828 Q2053.54 396.013 2051.81 401.268 Q2050.09 406.522 2046.62 411.962 L2042.92 411.962 Q2046 406.661 2047.5 401.43 Q2049.03 396.175 2049.03 390.828 Q2049.03 385.481 2047.5 380.272 Q2046 375.064 2042.92 369.74 Z" fill="#000000" fill-rule="evenodd" fill-opacity="1" /><path clip-path="url(#clip7400)" d="M 0 0 M2058.2 371.152 L2065.16 371.152 L2073.98 394.671 L2082.85 371.152 L2089.82 371.152 L2089.82 405.712 L2085.26 405.712 L2085.26 375.365 L2076.34 399.069 L2071.65 399.069 L2062.73 375.365 L2062.73 405.712 L2058.2 405.712 L2058.2 371.152 Z" fill="#000000" fill-rule="evenodd" fill-opacity="1" /><path clip-path="url(#clip7400)" d="M 0 0 M2104.52 369.74 Q2101.41 375.064 2099.91 380.272 Q2098.4 385.481 2098.4 390.828 Q2098.4 396.175 2099.91 401.43 Q2101.44 406.661 2104.52 411.962 L2100.81 411.962 Q2097.34 406.522 2095.6 401.268 Q2093.89 396.013 2093.89 390.828 Q2093.89 385.666 2095.6 380.434 Q2097.32 375.203 2100.81 369.74 L2104.52 369.74 Z" fill="#000000" fill-rule="evenodd" fill-opacity="1" /><path clip-path="url(#clip7400)" d="M 0 0 M2109.17 371.152 L2113.84 371.152 L2113.84 401.777 L2130.67 401.777 L2130.67 405.712 L2109.17 405.712 L2109.17 371.152 Z" fill="#000000" fill-rule="evenodd" fill-opacity="1" /><path clip-path="url(#clip7400)" d="M 0 0 M2135.7 384.184 L2165.37 384.184 L2165.37 388.073 L2135.7 388.073 L2135.7 384.184 M2135.7 393.629 L2165.37 393.629 L2165.37 397.564 L2135.7 397.564 L2135.7 393.629 Z" fill="#000000" fill-rule="evenodd" fill-opacity="1" /><path clip-path="url(#clip7400)" d="M 0 0 M2171.25 401.777 L2178.89 401.777 L2178.89 375.411 L2170.58 377.078 L2170.58 372.819 L2178.84 371.152 L2183.52 371.152 L2183.52 401.777 L2191.16 401.777 L2191.16 405.712 L2171.25 405.712 L2171.25 401.777 Z" fill="#000000" fill-rule="evenodd" fill-opacity="1" /><path clip-path="url(#clip7400)" d="M 0 0 M2206.81 386.569 Q2203.66 386.569 2201.81 388.721 Q2199.98 390.874 2199.98 394.624 Q2199.98 398.351 2201.81 400.527 Q2203.66 402.68 2206.81 402.68 Q2209.96 402.68 2211.78 400.527 Q2213.64 398.351 2213.64 394.624 Q2213.64 390.874 2211.78 388.721 Q2209.96 386.569 2206.81 386.569 M2216.09 371.916 L2216.09 376.175 Q2214.33 375.342 2212.52 374.902 Q2210.74 374.462 2208.98 374.462 Q2204.35 374.462 2201.9 377.587 Q2199.47 380.712 2199.12 387.032 Q2200.49 385.018 2202.55 383.953 Q2204.61 382.865 2207.08 382.865 Q2212.29 382.865 2215.3 386.036 Q2218.33 389.184 2218.33 394.624 Q2218.33 399.948 2215.19 403.166 Q2212.04 406.383 2206.81 406.383 Q2200.81 406.383 2197.64 401.8 Q2194.47 397.194 2194.47 388.467 Q2194.47 380.272 2198.36 375.411 Q2202.25 370.527 2208.8 370.527 Q2210.56 370.527 2212.34 370.874 Q2214.14 371.222 2216.09 371.916 Z" fill="#000000" fill-rule="evenodd" fill-opacity="1" /><path clip-path="url(#clip7400)" d="M 0 0 M2222.13 369.74 L2225.83 369.74 Q2229.31 375.203 2231.02 380.434 Q2232.76 385.666 2232.76 390.828 Q2232.76 396.013 2231.02 401.268 Q2229.31 406.522 2225.83 411.962 L2222.13 411.962 Q2225.21 406.661 2226.71 401.43 Q2228.24 396.175 2228.24 390.828 Q2228.24 385.481 2226.71 380.272 Q2225.21 375.064 2222.13 369.74 Z" fill="#000000" fill-rule="evenodd" fill-opacity="1" /><polyline clip-path="url(#clip7400)" style="stroke:#c271d2; stroke-width:4; stroke-opacity:1; fill:none" points="
  1636.15,448.912 1780.15,448.912 
  "/>
<path clip-path="url(#clip7400)" d="M 0 0 M1804.15 431.632 L1808.82 431.632 L1808.82 462.257 L1825.65 462.257 L1825.65 466.192 L1804.15 466.192 L1804.15 431.632 Z" fill="#000000" fill-rule="evenodd" fill-opacity="1" /><path clip-path="url(#clip7400)" d="M 0 0 M1847.78 431.632 L1860.35 444.526 L1855.7 444.526 L1845.51 435.382 L1835.33 444.526 L1830.67 444.526 L1843.24 431.632 L1847.78 431.632 Z" fill="#000000" fill-rule="evenodd" fill-opacity="1" /><path clip-path="url(#clip7400)" d="M 0 0 M1875.05 430.22 Q1871.95 435.544 1870.44 440.752 Q1868.94 445.961 1868.94 451.308 Q1868.94 456.655 1870.44 461.91 Q1871.97 467.141 1875.05 472.442 L1871.35 472.442 Q1867.87 467.002 1866.14 461.748 Q1864.42 456.493 1864.42 451.308 Q1864.42 446.146 1866.14 440.914 Q1867.85 435.683 1871.35 430.22 L1875.05 430.22 Z" fill="#000000" fill-rule="evenodd" fill-opacity="1" /><path clip-path="url(#clip7400)" d="M 0 0 M1898.13 453.252 Q1898.13 448.553 1896.18 445.891 Q1894.26 443.206 1890.88 443.206 Q1887.5 443.206 1885.56 445.891 Q1883.64 448.553 1883.64 453.252 Q1883.64 457.951 1885.56 460.637 Q1887.5 463.299 1890.88 463.299 Q1894.26 463.299 1896.18 460.637 Q1898.13 457.951 1898.13 453.252 M1883.64 444.202 Q1884.98 441.887 1887.02 440.776 Q1889.08 439.641 1891.92 439.641 Q1896.65 439.641 1899.59 443.391 Q1902.55 447.141 1902.55 453.252 Q1902.55 459.363 1899.59 463.113 Q1896.65 466.863 1891.92 466.863 Q1889.08 466.863 1887.02 465.752 Q1884.98 464.618 1883.64 462.303 L1883.64 466.192 L1879.36 466.192 L1879.36 430.174 L1883.64 430.174 L1883.64 444.202 Z" fill="#000000" fill-rule="evenodd" fill-opacity="1" /><path clip-path="url(#clip7400)" d="M 0 0 M1929.19 452.164 L1929.19 454.248 L1909.61 454.248 Q1909.89 458.646 1912.25 460.961 Q1914.63 463.252 1918.87 463.252 Q1921.32 463.252 1923.61 462.65 Q1925.93 462.049 1928.2 460.845 L1928.2 464.873 Q1925.91 465.845 1923.5 466.354 Q1921.09 466.863 1918.61 466.863 Q1912.41 466.863 1908.78 463.252 Q1905.17 459.641 1905.17 453.484 Q1905.17 447.118 1908.59 443.391 Q1912.04 439.641 1917.87 439.641 Q1923.1 439.641 1926.14 443.021 Q1929.19 446.377 1929.19 452.164 M1924.93 450.914 Q1924.89 447.419 1922.97 445.336 Q1921.07 443.252 1917.92 443.252 Q1914.35 443.252 1912.2 445.266 Q1910.07 447.28 1909.75 450.938 L1924.93 450.914 Z" fill="#000000" fill-rule="evenodd" fill-opacity="1" /><path clip-path="url(#clip7400)" d="M 0 0 M1937.87 432.905 L1937.87 440.266 L1946.65 440.266 L1946.65 443.577 L1937.87 443.577 L1937.87 457.651 Q1937.87 460.822 1938.73 461.725 Q1939.61 462.627 1942.27 462.627 L1946.65 462.627 L1946.65 466.192 L1942.27 466.192 Q1937.34 466.192 1935.47 464.363 Q1933.59 462.512 1933.59 457.651 L1933.59 443.577 L1930.47 443.577 L1930.47 440.266 L1933.59 440.266 L1933.59 432.905 L1937.87 432.905 Z" fill="#000000" fill-rule="evenodd" fill-opacity="1" /><path clip-path="url(#clip7400)" d="M 0 0 M1962.9 453.16 Q1957.73 453.16 1955.74 454.34 Q1953.75 455.521 1953.75 458.368 Q1953.75 460.637 1955.23 461.979 Q1956.74 463.299 1959.31 463.299 Q1962.85 463.299 1964.98 460.799 Q1967.13 458.276 1967.13 454.109 L1967.13 453.16 L1962.9 453.16 M1971.39 451.401 L1971.39 466.192 L1967.13 466.192 L1967.13 462.257 Q1965.67 464.618 1963.5 465.752 Q1961.32 466.863 1958.17 466.863 Q1954.19 466.863 1951.83 464.641 Q1949.49 462.396 1949.49 458.646 Q1949.49 454.271 1952.41 452.049 Q1955.35 449.826 1961.16 449.826 L1967.13 449.826 L1967.13 449.41 Q1967.13 446.47 1965.19 444.873 Q1963.27 443.252 1959.77 443.252 Q1957.55 443.252 1955.44 443.785 Q1953.34 444.317 1951.39 445.382 L1951.39 441.447 Q1953.73 440.544 1955.93 440.104 Q1958.13 439.641 1960.21 439.641 Q1965.84 439.641 1968.61 442.558 Q1971.39 445.475 1971.39 451.401 Z" fill="#000000" fill-rule="evenodd" fill-opacity="1" /><path clip-path="url(#clip7400)" d="M 0 0 M1983.43 431.632 L1987.36 431.632 L1975.33 470.59 L1971.39 470.59 L1983.43 431.632 Z" fill="#000000" fill-rule="evenodd" fill-opacity="1" /><path clip-path="url(#clip7400)" d="M 0 0 M2013.38 450.544 L2013.38 466.192 L2009.12 466.192 L2009.12 450.683 Q2009.12 447.002 2007.69 445.174 Q2006.25 443.345 2003.38 443.345 Q1999.93 443.345 1997.94 445.544 Q1995.95 447.743 1995.95 451.539 L1995.95 466.192 L1991.67 466.192 L1991.67 440.266 L1995.95 440.266 L1995.95 444.294 Q1997.48 441.956 1999.54 440.799 Q2001.62 439.641 2004.33 439.641 Q2008.8 439.641 2011.09 442.419 Q2013.38 445.174 2013.38 450.544 Z" fill="#000000" fill-rule="evenodd" fill-opacity="1" /><path clip-path="url(#clip7400)" d="M 0 0 M2017.41 455.961 L2017.41 440.266 L2021.67 440.266 L2021.67 455.799 Q2021.67 459.479 2023.1 461.331 Q2024.54 463.16 2027.41 463.16 Q2030.86 463.16 2032.85 460.961 Q2034.86 458.762 2034.86 454.965 L2034.86 440.266 L2039.12 440.266 L2039.12 466.192 L2034.86 466.192 L2034.86 462.211 Q2033.31 464.572 2031.25 465.729 Q2029.22 466.863 2026.51 466.863 Q2022.04 466.863 2019.72 464.086 Q2017.41 461.308 2017.41 455.961 M2028.13 439.641 L2028.13 439.641 Z" fill="#000000" fill-rule="evenodd" fill-opacity="1" /><path clip-path="url(#clip7400)" d="M 0 0 M2042.92 430.22 L2046.62 430.22 Q2050.09 435.683 2051.81 440.914 Q2053.54 446.146 2053.54 451.308 Q2053.54 456.493 2051.81 461.748 Q2050.09 467.002 2046.62 472.442 L2042.92 472.442 Q2046 467.141 2047.5 461.91 Q2049.03 456.655 2049.03 451.308 Q2049.03 445.961 2047.5 440.752 Q2046 435.544 2042.92 430.22 Z" fill="#000000" fill-rule="evenodd" fill-opacity="1" /><path clip-path="url(#clip7400)" d="M 0 0 M2058.2 431.632 L2065.16 431.632 L2073.98 455.151 L2082.85 431.632 L2089.82 431.632 L2089.82 466.192 L2085.26 466.192 L2085.26 435.845 L2076.34 459.549 L2071.65 459.549 L2062.73 435.845 L2062.73 466.192 L2058.2 466.192 L2058.2 431.632 Z" fill="#000000" fill-rule="evenodd" fill-opacity="1" /><path clip-path="url(#clip7400)" d="M 0 0 M2104.52 430.22 Q2101.41 435.544 2099.91 440.752 Q2098.4 445.961 2098.4 451.308 Q2098.4 456.655 2099.91 461.91 Q2101.44 467.141 2104.52 472.442 L2100.81 472.442 Q2097.34 467.002 2095.6 461.748 Q2093.89 456.493 2093.89 451.308 Q2093.89 446.146 2095.6 440.914 Q2097.32 435.683 2100.81 430.22 L2104.52 430.22 Z" fill="#000000" fill-rule="evenodd" fill-opacity="1" /><path clip-path="url(#clip7400)" d="M 0 0 M2109.17 431.632 L2113.84 431.632 L2113.84 462.257 L2130.67 462.257 L2130.67 466.192 L2109.17 466.192 L2109.17 431.632 Z" fill="#000000" fill-rule="evenodd" fill-opacity="1" /><path clip-path="url(#clip7400)" d="M 0 0 M2135.7 444.664 L2165.37 444.664 L2165.37 448.553 L2135.7 448.553 L2135.7 444.664 M2135.7 454.109 L2165.37 454.109 L2165.37 458.044 L2135.7 458.044 L2135.7 454.109 Z" fill="#000000" fill-rule="evenodd" fill-opacity="1" /><path clip-path="url(#clip7400)" d="M 0 0 M2174.47 462.257 L2190.79 462.257 L2190.79 466.192 L2168.84 466.192 L2168.84 462.257 Q2171.51 459.502 2176.09 454.873 Q2180.7 450.22 2181.88 448.877 Q2184.12 446.354 2185 444.618 Q2185.9 442.859 2185.9 441.169 Q2185.9 438.414 2183.96 436.678 Q2182.04 434.942 2178.94 434.942 Q2176.74 434.942 2174.28 435.706 Q2171.85 436.47 2169.08 438.021 L2169.08 433.299 Q2171.9 432.165 2174.35 431.586 Q2176.81 431.007 2178.84 431.007 Q2184.21 431.007 2187.41 433.692 Q2190.6 436.377 2190.6 440.868 Q2190.6 442.998 2189.79 444.919 Q2189.01 446.817 2186.9 449.41 Q2186.32 450.081 2183.22 453.299 Q2180.12 456.493 2174.47 462.257 Z" fill="#000000" fill-rule="evenodd" fill-opacity="1" /><path clip-path="url(#clip7400)" d="M 0 0 M2208.71 435.706 L2196.9 454.155 L2208.71 454.155 L2208.71 435.706 M2207.48 431.632 L2213.36 431.632 L2213.36 454.155 L2218.29 454.155 L2218.29 458.044 L2213.36 458.044 L2213.36 466.192 L2208.71 466.192 L2208.71 458.044 L2193.1 458.044 L2193.1 453.53 L2207.48 431.632 Z" fill="#000000" fill-rule="evenodd" fill-opacity="1" /><path clip-path="url(#clip7400)" d="M 0 0 M2222.08 430.22 L2225.79 430.22 Q2229.26 435.683 2230.97 440.914 Q2232.71 446.146 2232.71 451.308 Q2232.71 456.493 2230.97 461.748 Q2229.26 467.002 2225.79 472.442 L2222.08 472.442 Q2225.16 467.141 2226.67 461.91 Q2228.2 456.655 2228.2 451.308 Q2228.2 445.961 2226.67 440.752 Q2225.16 435.544 2222.08 430.22 Z" fill="#000000" fill-rule="evenodd" fill-opacity="1" /></svg>
