<?xml version="1.0" encoding="utf-8"?>
<svg xmlns="http://www.w3.org/2000/svg" xmlns:xlink="http://www.w3.org/1999/xlink" width="600" height="400" viewBox="0 0 2400 1600">
<defs>
  <clipPath id="clip2600">
    <rect x="0" y="0" width="2400" height="1600"/>
  </clipPath>
</defs>
<path clip-path="url(#clip2600)" d="
M0 1600 L2400 1600 L2400 0 L0 0  Z
  " fill="#ffffff" fill-rule="evenodd" fill-opacity="1"/>
<defs>
  <clipPath id="clip2601">
    <rect x="480" y="0" width="1681" height="1600"/>
  </clipPath>
</defs>
<path clip-path="url(#clip2600)" d="
M236.672 1423.18 L2352.76 1423.18 L2352.76 123.472 L236.672 123.472  Z
  " fill="#ffffff" fill-rule="evenodd" fill-opacity="1"/>
<defs>
  <clipPath id="clip2602">
    <rect x="236" y="123" width="2117" height="1301"/>
  </clipPath>
</defs>
<polyline clip-path="url(#clip2602)" style="stroke:#000000; stroke-width:2; stroke-opacity:0.1; fill:none" points="
  296.561,1423.18 296.561,123.472 
  "/>
<polyline clip-path="url(#clip2602)" style="stroke:#000000; stroke-width:2; stroke-opacity:0.1; fill:none" points="
  961.996,1423.18 961.996,123.472 
  "/>
<polyline clip-path="url(#clip2602)" style="stroke:#000000; stroke-width:2; stroke-opacity:0.1; fill:none" points="
  1627.43,1423.18 1627.43,123.472 
  "/>
<polyline clip-path="url(#clip2602)" style="stroke:#000000; stroke-width:2; stroke-opacity:0.1; fill:none" points="
  2292.87,1423.18 2292.87,123.472 
  "/>
<polyline clip-path="url(#clip2602)" style="stroke:#000000; stroke-width:2; stroke-opacity:0.1; fill:none" points="
  236.672,1273.78 2352.76,1273.78 
  "/>
<polyline clip-path="url(#clip2602)" style="stroke:#000000; stroke-width:2; stroke-opacity:0.1; fill:none" points="
  236.672,1079.62 2352.76,1079.62 
  "/>
<polyline clip-path="url(#clip2602)" style="stroke:#000000; stroke-width:2; stroke-opacity:0.1; fill:none" points="
  236.672,885.455 2352.76,885.455 
  "/>
<polyline clip-path="url(#clip2602)" style="stroke:#000000; stroke-width:2; stroke-opacity:0.1; fill:none" points="
  236.672,691.292 2352.76,691.292 
  "/>
<polyline clip-path="url(#clip2602)" style="stroke:#000000; stroke-width:2; stroke-opacity:0.1; fill:none" points="
  236.672,497.129 2352.76,497.129 
  "/>
<polyline clip-path="url(#clip2602)" style="stroke:#000000; stroke-width:2; stroke-opacity:0.1; fill:none" points="
  236.672,302.966 2352.76,302.966 
  "/>
<polyline clip-path="url(#clip2600)" style="stroke:#000000; stroke-width:4; stroke-opacity:1; fill:none" points="
  236.672,1423.18 2352.76,1423.18 
  "/>
<polyline clip-path="url(#clip2600)" style="stroke:#000000; stroke-width:4; stroke-opacity:1; fill:none" points="
  236.672,1423.18 236.672,123.472 
  "/>
<polyline clip-path="url(#clip2600)" style="stroke:#000000; stroke-width:4; stroke-opacity:1; fill:none" points="
  296.561,1423.18 296.561,1407.58 
  "/>
<polyline clip-path="url(#clip2600)" style="stroke:#000000; stroke-width:4; stroke-opacity:1; fill:none" points="
  961.996,1423.18 961.996,1407.58 
  "/>
<polyline clip-path="url(#clip2600)" style="stroke:#000000; stroke-width:4; stroke-opacity:1; fill:none" points="
  1627.43,1423.18 1627.43,1407.58 
  "/>
<polyline clip-path="url(#clip2600)" style="stroke:#000000; stroke-width:4; stroke-opacity:1; fill:none" points="
  2292.87,1423.18 2292.87,1407.58 
  "/>
<polyline clip-path="url(#clip2600)" style="stroke:#000000; stroke-width:4; stroke-opacity:1; fill:none" points="
  236.672,1273.78 262.065,1273.78 
  "/>
<polyline clip-path="url(#clip2600)" style="stroke:#000000; stroke-width:4; stroke-opacity:1; fill:none" points="
  236.672,1079.62 262.065,1079.62 
  "/>
<polyline clip-path="url(#clip2600)" style="stroke:#000000; stroke-width:4; stroke-opacity:1; fill:none" points="
  236.672,885.455 262.065,885.455 
  "/>
<polyline clip-path="url(#clip2600)" style="stroke:#000000; stroke-width:4; stroke-opacity:1; fill:none" points="
  236.672,691.292 262.065,691.292 
  "/>
<polyline clip-path="url(#clip2600)" style="stroke:#000000; stroke-width:4; stroke-opacity:1; fill:none" points="
  236.672,497.129 262.065,497.129 
  "/>
<polyline clip-path="url(#clip2600)" style="stroke:#000000; stroke-width:4; stroke-opacity:1; fill:none" points="
  236.672,302.966 262.065,302.966 
  "/>
<path clip-path="url(#clip2600)" d="M 0 0 M264.57 1445.17 Q260.959 1445.17 259.131 1448.74 Q257.325 1452.28 257.325 1459.41 Q257.325 1466.51 259.131 1470.08 Q260.959 1473.62 264.57 1473.62 Q268.205 1473.62 270.01 1470.08 Q271.839 1466.51 271.839 1459.41 Q271.839 1452.28 270.01 1448.74 Q268.205 1445.17 264.57 1445.17 M264.57 1441.47 Q270.38 1441.47 273.436 1446.07 Q276.515 1450.66 276.515 1459.41 Q276.515 1468.13 273.436 1472.74 Q270.38 1477.32 264.57 1477.32 Q258.76 1477.32 255.681 1472.74 Q252.626 1468.13 252.626 1459.41 Q252.626 1450.66 255.681 1446.07 Q258.76 1441.47 264.57 1441.47 Z" fill="#000000" fill-rule="evenodd" fill-opacity="1" /><path clip-path="url(#clip2600)" d="M 0 0 M281.584 1470.77 L286.468 1470.77 L286.468 1476.65 L281.584 1476.65 L281.584 1470.77 Z" fill="#000000" fill-rule="evenodd" fill-opacity="1" /><path clip-path="url(#clip2600)" d="M 0 0 M301.538 1445.17 Q297.927 1445.17 296.098 1448.74 Q294.292 1452.28 294.292 1459.41 Q294.292 1466.51 296.098 1470.08 Q297.927 1473.62 301.538 1473.62 Q305.172 1473.62 306.978 1470.08 Q308.806 1466.51 308.806 1459.41 Q308.806 1452.28 306.978 1448.74 Q305.172 1445.17 301.538 1445.17 M301.538 1441.47 Q307.348 1441.47 310.403 1446.07 Q313.482 1450.66 313.482 1459.41 Q313.482 1468.13 310.403 1472.74 Q307.348 1477.32 301.538 1477.32 Q295.728 1477.32 292.649 1472.74 Q289.593 1468.13 289.593 1459.41 Q289.593 1450.66 292.649 1446.07 Q295.728 1441.47 301.538 1441.47 Z" fill="#000000" fill-rule="evenodd" fill-opacity="1" /><path clip-path="url(#clip2600)" d="M 0 0 M328.551 1445.17 Q324.94 1445.17 323.112 1448.74 Q321.306 1452.28 321.306 1459.41 Q321.306 1466.51 323.112 1470.08 Q324.94 1473.62 328.551 1473.62 Q332.186 1473.62 333.991 1470.08 Q335.82 1466.51 335.82 1459.41 Q335.82 1452.28 333.991 1448.74 Q332.186 1445.17 328.551 1445.17 M328.551 1441.47 Q334.362 1441.47 337.417 1446.07 Q340.496 1450.66 340.496 1459.41 Q340.496 1468.13 337.417 1472.74 Q334.362 1477.32 328.551 1477.32 Q322.741 1477.32 319.663 1472.74 Q316.607 1468.13 316.607 1459.41 Q316.607 1450.66 319.663 1446.07 Q322.741 1441.47 328.551 1441.47 Z" fill="#000000" fill-rule="evenodd" fill-opacity="1" /><path clip-path="url(#clip2600)" d="M 0 0 M930.503 1445.17 Q926.892 1445.17 925.064 1448.74 Q923.258 1452.28 923.258 1459.41 Q923.258 1466.51 925.064 1470.08 Q926.892 1473.62 930.503 1473.62 Q934.138 1473.62 935.943 1470.08 Q937.772 1466.51 937.772 1459.41 Q937.772 1452.28 935.943 1448.74 Q934.138 1445.17 930.503 1445.17 M930.503 1441.47 Q936.313 1441.47 939.369 1446.07 Q942.448 1450.66 942.448 1459.41 Q942.448 1468.13 939.369 1472.74 Q936.313 1477.32 930.503 1477.32 Q924.693 1477.32 921.614 1472.74 Q918.559 1468.13 918.559 1459.41 Q918.559 1450.66 921.614 1446.07 Q924.693 1441.47 930.503 1441.47 Z" fill="#000000" fill-rule="evenodd" fill-opacity="1" /><path clip-path="url(#clip2600)" d="M 0 0 M947.517 1470.77 L952.401 1470.77 L952.401 1476.65 L947.517 1476.65 L947.517 1470.77 Z" fill="#000000" fill-rule="evenodd" fill-opacity="1" /><path clip-path="url(#clip2600)" d="M 0 0 M967.471 1445.17 Q963.86 1445.17 962.031 1448.74 Q960.225 1452.28 960.225 1459.41 Q960.225 1466.51 962.031 1470.08 Q963.86 1473.62 967.471 1473.62 Q971.105 1473.62 972.91 1470.08 Q974.739 1466.51 974.739 1459.41 Q974.739 1452.28 972.91 1448.74 Q971.105 1445.17 967.471 1445.17 M967.471 1441.47 Q973.281 1441.47 976.336 1446.07 Q979.415 1450.66 979.415 1459.41 Q979.415 1468.13 976.336 1472.74 Q973.281 1477.32 967.471 1477.32 Q961.661 1477.32 958.582 1472.74 Q955.526 1468.13 955.526 1459.41 Q955.526 1450.66 958.582 1446.07 Q961.661 1441.47 967.471 1441.47 Z" fill="#000000" fill-rule="evenodd" fill-opacity="1" /><path clip-path="url(#clip2600)" d="M 0 0 M984.531 1442.09 L1002.89 1442.09 L1002.89 1446.03 L988.813 1446.03 L988.813 1454.5 Q989.832 1454.15 990.85 1453.99 Q991.869 1453.8 992.887 1453.8 Q998.674 1453.8 1002.05 1456.98 Q1005.43 1460.15 1005.43 1465.56 Q1005.43 1471.14 1001.96 1474.24 Q998.489 1477.32 992.17 1477.32 Q989.994 1477.32 987.725 1476.95 Q985.48 1476.58 983.072 1475.84 L983.072 1471.14 Q985.156 1472.28 987.378 1472.83 Q989.6 1473.39 992.077 1473.39 Q996.082 1473.39 998.42 1471.28 Q1000.76 1469.18 1000.76 1465.56 Q1000.76 1461.95 998.42 1459.85 Q996.082 1457.74 992.077 1457.74 Q990.202 1457.74 988.327 1458.16 Q986.475 1458.57 984.531 1459.45 L984.531 1442.09 Z" fill="#000000" fill-rule="evenodd" fill-opacity="1" /><path clip-path="url(#clip2600)" d="M 0 0 M1596.05 1445.17 Q1592.44 1445.17 1590.61 1448.74 Q1588.81 1452.28 1588.81 1459.41 Q1588.81 1466.51 1590.61 1470.08 Q1592.44 1473.62 1596.05 1473.62 Q1599.69 1473.62 1601.49 1470.08 Q1603.32 1466.51 1603.32 1459.41 Q1603.32 1452.28 1601.49 1448.74 Q1599.69 1445.17 1596.05 1445.17 M1596.05 1441.47 Q1601.86 1441.47 1604.92 1446.07 Q1608 1450.66 1608 1459.41 Q1608 1468.13 1604.92 1472.74 Q1601.86 1477.32 1596.05 1477.32 Q1590.24 1477.32 1587.17 1472.74 Q1584.11 1468.13 1584.11 1459.41 Q1584.11 1450.66 1587.17 1446.07 Q1590.24 1441.47 1596.05 1441.47 Z" fill="#000000" fill-rule="evenodd" fill-opacity="1" /><path clip-path="url(#clip2600)" d="M 0 0 M1613.07 1470.77 L1617.95 1470.77 L1617.95 1476.65 L1613.07 1476.65 L1613.07 1470.77 Z" fill="#000000" fill-rule="evenodd" fill-opacity="1" /><path clip-path="url(#clip2600)" d="M 0 0 M1623.83 1472.72 L1631.47 1472.72 L1631.47 1446.35 L1623.16 1448.02 L1623.16 1443.76 L1631.42 1442.09 L1636.1 1442.09 L1636.1 1472.72 L1643.74 1472.72 L1643.74 1476.65 L1623.83 1476.65 L1623.83 1472.72 Z" fill="#000000" fill-rule="evenodd" fill-opacity="1" /><path clip-path="url(#clip2600)" d="M 0 0 M1658.81 1445.17 Q1655.2 1445.17 1653.37 1448.74 Q1651.56 1452.28 1651.56 1459.41 Q1651.56 1466.51 1653.37 1470.08 Q1655.2 1473.62 1658.81 1473.62 Q1662.44 1473.62 1664.25 1470.08 Q1666.08 1466.51 1666.08 1459.41 Q1666.08 1452.28 1664.25 1448.74 Q1662.44 1445.17 1658.81 1445.17 M1658.81 1441.47 Q1664.62 1441.47 1667.67 1446.07 Q1670.75 1450.66 1670.75 1459.41 Q1670.75 1468.13 1667.67 1472.74 Q1664.62 1477.32 1658.81 1477.32 Q1653 1477.32 1649.92 1472.74 Q1646.86 1468.13 1646.86 1459.41 Q1646.86 1450.66 1649.92 1446.07 Q1653 1441.47 1658.81 1441.47 Z" fill="#000000" fill-rule="evenodd" fill-opacity="1" /><path clip-path="url(#clip2600)" d="M 0 0 M2261.99 1445.17 Q2258.38 1445.17 2256.55 1448.74 Q2254.74 1452.28 2254.74 1459.41 Q2254.74 1466.51 2256.55 1470.08 Q2258.38 1473.62 2261.99 1473.62 Q2265.62 1473.62 2267.43 1470.08 Q2269.26 1466.51 2269.26 1459.41 Q2269.26 1452.28 2267.43 1448.74 Q2265.62 1445.17 2261.99 1445.17 M2261.99 1441.47 Q2267.8 1441.47 2270.85 1446.07 Q2273.93 1450.66 2273.93 1459.41 Q2273.93 1468.13 2270.85 1472.74 Q2267.8 1477.32 2261.99 1477.32 Q2256.18 1477.32 2253.1 1472.74 Q2250.04 1468.13 2250.04 1459.41 Q2250.04 1450.66 2253.1 1446.07 Q2256.18 1441.47 2261.99 1441.47 Z" fill="#000000" fill-rule="evenodd" fill-opacity="1" /><path clip-path="url(#clip2600)" d="M 0 0 M2279 1470.77 L2283.89 1470.77 L2283.89 1476.65 L2279 1476.65 L2279 1470.77 Z" fill="#000000" fill-rule="evenodd" fill-opacity="1" /><path clip-path="url(#clip2600)" d="M 0 0 M2289.76 1472.72 L2297.4 1472.72 L2297.4 1446.35 L2289.09 1448.02 L2289.09 1443.76 L2297.36 1442.09 L2302.03 1442.09 L2302.03 1472.72 L2309.67 1472.72 L2309.67 1476.65 L2289.76 1476.65 L2289.76 1472.72 Z" fill="#000000" fill-rule="evenodd" fill-opacity="1" /><path clip-path="url(#clip2600)" d="M 0 0 M2314.79 1442.09 L2333.14 1442.09 L2333.14 1446.03 L2319.07 1446.03 L2319.07 1454.5 Q2320.09 1454.15 2321.11 1453.99 Q2322.13 1453.8 2323.14 1453.8 Q2328.93 1453.8 2332.31 1456.98 Q2335.69 1460.15 2335.69 1465.56 Q2335.69 1471.14 2332.22 1474.24 Q2328.75 1477.32 2322.43 1477.32 Q2320.25 1477.32 2317.98 1476.95 Q2315.74 1476.58 2313.33 1475.84 L2313.33 1471.14 Q2315.41 1472.28 2317.64 1472.83 Q2319.86 1473.39 2322.33 1473.39 Q2326.34 1473.39 2328.68 1471.28 Q2331.01 1469.18 2331.01 1465.56 Q2331.01 1461.95 2328.68 1459.85 Q2326.34 1457.74 2322.33 1457.74 Q2320.46 1457.74 2318.58 1458.16 Q2316.73 1458.57 2314.79 1459.45 L2314.79 1442.09 Z" fill="#000000" fill-rule="evenodd" fill-opacity="1" /><path clip-path="url(#clip2600)" d="M 0 0 M133.019 1287.13 L149.339 1287.13 L149.339 1291.06 L127.394 1291.06 L127.394 1287.13 Q130.056 1284.37 134.64 1279.74 Q139.246 1275.09 140.427 1273.75 Q142.672 1271.22 143.552 1269.49 Q144.455 1267.73 144.455 1266.04 Q144.455 1263.28 142.51 1261.55 Q140.589 1259.81 137.487 1259.81 Q135.288 1259.81 132.834 1260.58 Q130.404 1261.34 127.626 1262.89 L127.626 1258.17 Q130.45 1257.03 132.904 1256.45 Q135.357 1255.88 137.394 1255.88 Q142.765 1255.88 145.959 1258.56 Q149.154 1261.25 149.154 1265.74 Q149.154 1267.87 148.343 1269.79 Q147.556 1271.69 145.45 1274.28 Q144.871 1274.95 141.769 1278.17 Q138.667 1281.36 133.019 1287.13 Z" fill="#000000" fill-rule="evenodd" fill-opacity="1" /><path clip-path="url(#clip2600)" d="M 0 0 M154.408 1285.18 L159.292 1285.18 L159.292 1291.06 L154.408 1291.06 L154.408 1285.18 Z" fill="#000000" fill-rule="evenodd" fill-opacity="1" /><path clip-path="url(#clip2600)" d="M 0 0 M178.528 1272.43 Q181.885 1273.14 183.76 1275.41 Q185.658 1277.68 185.658 1281.01 Q185.658 1286.13 182.139 1288.93 Q178.621 1291.73 172.14 1291.73 Q169.964 1291.73 167.649 1291.29 Q165.357 1290.88 162.903 1290.02 L162.903 1285.51 Q164.848 1286.64 167.163 1287.22 Q169.478 1287.8 172.001 1287.8 Q176.399 1287.8 178.69 1286.06 Q181.005 1284.33 181.005 1281.01 Q181.005 1277.96 178.852 1276.25 Q176.723 1274.51 172.903 1274.51 L168.876 1274.51 L168.876 1270.67 L173.089 1270.67 Q176.538 1270.67 178.366 1269.3 Q180.195 1267.91 180.195 1265.32 Q180.195 1262.66 178.297 1261.25 Q176.422 1259.81 172.903 1259.81 Q170.982 1259.81 168.783 1260.23 Q166.584 1260.64 163.945 1261.52 L163.945 1257.36 Q166.607 1256.62 168.922 1256.25 Q171.26 1255.88 173.32 1255.88 Q178.644 1255.88 181.746 1258.31 Q184.848 1260.71 184.848 1264.83 Q184.848 1267.7 183.204 1269.7 Q181.561 1271.66 178.528 1272.43 Z" fill="#000000" fill-rule="evenodd" fill-opacity="1" /><path clip-path="url(#clip2600)" d="M 0 0 M200.727 1259.58 Q197.116 1259.58 195.288 1263.14 Q193.482 1266.69 193.482 1273.82 Q193.482 1280.92 195.288 1284.49 Q197.116 1288.03 200.727 1288.03 Q204.362 1288.03 206.167 1284.49 Q207.996 1280.92 207.996 1273.82 Q207.996 1266.69 206.167 1263.14 Q204.362 1259.58 200.727 1259.58 M200.727 1255.88 Q206.538 1255.88 209.593 1260.48 Q212.672 1265.07 212.672 1273.82 Q212.672 1282.54 209.593 1287.15 Q206.538 1291.73 200.727 1291.73 Q194.917 1291.73 191.839 1287.15 Q188.783 1282.54 188.783 1273.82 Q188.783 1265.07 191.839 1260.48 Q194.917 1255.88 200.727 1255.88 Z" fill="#000000" fill-rule="evenodd" fill-opacity="1" /><path clip-path="url(#clip2600)" d="M 0 0 M134.015 1092.96 L150.334 1092.96 L150.334 1096.9 L128.39 1096.9 L128.39 1092.96 Q131.052 1090.21 135.635 1085.58 Q140.242 1080.93 141.422 1079.58 Q143.667 1077.06 144.547 1075.32 Q145.45 1073.56 145.45 1071.88 Q145.45 1069.12 143.505 1067.38 Q141.584 1065.65 138.482 1065.65 Q136.283 1065.65 133.83 1066.41 Q131.399 1067.18 128.621 1068.73 L128.621 1064 Q131.445 1062.87 133.899 1062.29 Q136.353 1061.71 138.39 1061.71 Q143.76 1061.71 146.954 1064.4 Q150.149 1067.08 150.149 1071.57 Q150.149 1073.7 149.339 1075.63 Q148.552 1077.52 146.445 1080.12 Q145.867 1080.79 142.765 1084 Q139.663 1087.2 134.015 1092.96 Z" fill="#000000" fill-rule="evenodd" fill-opacity="1" /><path clip-path="url(#clip2600)" d="M 0 0 M155.404 1091.02 L160.288 1091.02 L160.288 1096.9 L155.404 1096.9 L155.404 1091.02 Z" fill="#000000" fill-rule="evenodd" fill-opacity="1" /><path clip-path="url(#clip2600)" d="M 0 0 M179.524 1078.26 Q182.88 1078.98 184.755 1081.25 Q186.653 1083.52 186.653 1086.85 Q186.653 1091.97 183.135 1094.77 Q179.616 1097.57 173.135 1097.57 Q170.959 1097.57 168.644 1097.13 Q166.353 1096.71 163.899 1095.86 L163.899 1091.34 Q165.843 1092.48 168.158 1093.06 Q170.473 1093.63 172.996 1093.63 Q177.394 1093.63 179.686 1091.9 Q182.001 1090.16 182.001 1086.85 Q182.001 1083.8 179.848 1082.08 Q177.718 1080.35 173.899 1080.35 L169.871 1080.35 L169.871 1076.5 L174.084 1076.5 Q177.533 1076.5 179.362 1075.14 Q181.19 1073.75 181.19 1071.16 Q181.19 1068.5 179.292 1067.08 Q177.417 1065.65 173.899 1065.65 Q171.978 1065.65 169.778 1066.06 Q167.579 1066.48 164.941 1067.36 L164.941 1063.19 Q167.603 1062.45 169.917 1062.08 Q172.255 1061.71 174.315 1061.71 Q179.64 1061.71 182.741 1064.14 Q185.843 1066.55 185.843 1070.67 Q185.843 1073.54 184.2 1075.53 Q182.556 1077.5 179.524 1078.26 Z" fill="#000000" fill-rule="evenodd" fill-opacity="1" /><path clip-path="url(#clip2600)" d="M 0 0 M191.769 1062.34 L210.125 1062.34 L210.125 1066.27 L196.051 1066.27 L196.051 1074.75 Q197.07 1074.4 198.088 1074.24 Q199.107 1074.05 200.126 1074.05 Q205.913 1074.05 209.292 1077.22 Q212.672 1080.39 212.672 1085.81 Q212.672 1091.39 209.2 1094.49 Q205.727 1097.57 199.408 1097.57 Q197.232 1097.57 194.963 1097.2 Q192.718 1096.83 190.311 1096.09 L190.311 1091.39 Q192.394 1092.52 194.616 1093.08 Q196.838 1093.63 199.315 1093.63 Q203.32 1093.63 205.658 1091.53 Q207.996 1089.42 207.996 1085.81 Q207.996 1082.2 205.658 1080.09 Q203.32 1077.99 199.315 1077.99 Q197.44 1077.99 195.565 1078.4 Q193.713 1078.82 191.769 1079.7 L191.769 1062.34 Z" fill="#000000" fill-rule="evenodd" fill-opacity="1" /><path clip-path="url(#clip2600)" d="M 0 0 M131.885 898.8 L148.204 898.8 L148.204 902.735 L126.26 902.735 L126.26 898.8 Q128.922 896.045 133.505 891.416 Q138.112 886.763 139.292 885.42 Q141.538 882.897 142.417 881.161 Q143.32 879.402 143.32 877.712 Q143.32 874.957 141.376 873.221 Q139.455 871.485 136.353 871.485 Q134.154 871.485 131.7 872.249 Q129.269 873.013 126.492 874.564 L126.492 869.842 Q129.316 868.708 131.769 868.129 Q134.223 867.55 136.26 867.55 Q141.63 867.55 144.825 870.235 Q148.019 872.92 148.019 877.411 Q148.019 879.541 147.209 881.462 Q146.422 883.36 144.316 885.953 Q143.737 886.624 140.635 889.842 Q137.533 893.036 131.885 898.8 Z" fill="#000000" fill-rule="evenodd" fill-opacity="1" /><path clip-path="url(#clip2600)" d="M 0 0 M153.274 896.856 L158.158 896.856 L158.158 902.735 L153.274 902.735 L153.274 896.856 Z" fill="#000000" fill-rule="evenodd" fill-opacity="1" /><path clip-path="url(#clip2600)" d="M 0 0 M176.075 872.249 L164.269 890.698 L176.075 890.698 L176.075 872.249 M174.848 868.175 L180.727 868.175 L180.727 890.698 L185.658 890.698 L185.658 894.587 L180.727 894.587 L180.727 902.735 L176.075 902.735 L176.075 894.587 L160.473 894.587 L160.473 890.073 L174.848 868.175 Z" fill="#000000" fill-rule="evenodd" fill-opacity="1" /><path clip-path="url(#clip2600)" d="M 0 0 M200.727 871.254 Q197.116 871.254 195.288 874.819 Q193.482 878.36 193.482 885.49 Q193.482 892.596 195.288 896.161 Q197.116 899.703 200.727 899.703 Q204.362 899.703 206.167 896.161 Q207.996 892.596 207.996 885.49 Q207.996 878.36 206.167 874.819 Q204.362 871.254 200.727 871.254 M200.727 867.55 Q206.538 867.55 209.593 872.157 Q212.672 876.74 212.672 885.49 Q212.672 894.217 209.593 898.823 Q206.538 903.406 200.727 903.406 Q194.917 903.406 191.839 898.823 Q188.783 894.217 188.783 885.49 Q188.783 876.74 191.839 872.157 Q194.917 867.55 200.727 867.55 Z" fill="#000000" fill-rule="evenodd" fill-opacity="1" /><path clip-path="url(#clip2600)" d="M 0 0 M132.88 704.637 L149.2 704.637 L149.2 708.572 L127.256 708.572 L127.256 704.637 Q129.918 701.882 134.501 697.253 Q139.107 692.6 140.288 691.257 Q142.533 688.734 143.413 686.998 Q144.316 685.239 144.316 683.549 Q144.316 680.794 142.371 679.058 Q140.45 677.322 137.348 677.322 Q135.149 677.322 132.695 678.086 Q130.265 678.85 127.487 680.401 L127.487 675.679 Q130.311 674.545 132.765 673.966 Q135.218 673.387 137.255 673.387 Q142.626 673.387 145.82 676.072 Q149.015 678.757 149.015 683.248 Q149.015 685.378 148.204 687.299 Q147.417 689.197 145.311 691.79 Q144.732 692.461 141.63 695.679 Q138.529 698.873 132.88 704.637 Z" fill="#000000" fill-rule="evenodd" fill-opacity="1" /><path clip-path="url(#clip2600)" d="M 0 0 M154.269 702.693 L159.153 702.693 L159.153 708.572 L154.269 708.572 L154.269 702.693 Z" fill="#000000" fill-rule="evenodd" fill-opacity="1" /><path clip-path="url(#clip2600)" d="M 0 0 M177.07 678.086 L165.265 696.535 L177.07 696.535 L177.07 678.086 M175.843 674.012 L181.723 674.012 L181.723 696.535 L186.653 696.535 L186.653 700.424 L181.723 700.424 L181.723 708.572 L177.07 708.572 L177.07 700.424 L161.468 700.424 L161.468 695.91 L175.843 674.012 Z" fill="#000000" fill-rule="evenodd" fill-opacity="1" /><path clip-path="url(#clip2600)" d="M 0 0 M191.769 674.012 L210.125 674.012 L210.125 677.947 L196.051 677.947 L196.051 686.419 Q197.07 686.072 198.088 685.91 Q199.107 685.725 200.126 685.725 Q205.913 685.725 209.292 688.896 Q212.672 692.068 212.672 697.484 Q212.672 703.063 209.2 706.165 Q205.727 709.243 199.408 709.243 Q197.232 709.243 194.963 708.873 Q192.718 708.503 190.311 707.762 L190.311 703.063 Q192.394 704.197 194.616 704.753 Q196.838 705.308 199.315 705.308 Q203.32 705.308 205.658 703.202 Q207.996 701.095 207.996 697.484 Q207.996 693.873 205.658 691.767 Q203.32 689.66 199.315 689.66 Q197.44 689.66 195.565 690.077 Q193.713 690.494 191.769 691.373 L191.769 674.012 Z" fill="#000000" fill-rule="evenodd" fill-opacity="1" /><path clip-path="url(#clip2600)" d="M 0 0 M133.367 510.474 L149.686 510.474 L149.686 514.409 L127.742 514.409 L127.742 510.474 Q130.404 507.719 134.987 503.09 Q139.593 498.437 140.774 497.094 Q143.019 494.571 143.899 492.835 Q144.802 491.076 144.802 489.386 Q144.802 486.631 142.857 484.895 Q140.936 483.159 137.834 483.159 Q135.635 483.159 133.181 483.923 Q130.751 484.687 127.973 486.238 L127.973 481.516 Q130.797 480.382 133.251 479.803 Q135.705 479.224 137.742 479.224 Q143.112 479.224 146.306 481.909 Q149.501 484.594 149.501 489.085 Q149.501 491.215 148.691 493.136 Q147.904 495.034 145.797 497.627 Q145.218 498.298 142.117 501.516 Q139.015 504.71 133.367 510.474 Z" fill="#000000" fill-rule="evenodd" fill-opacity="1" /><path clip-path="url(#clip2600)" d="M 0 0 M154.755 508.53 L159.64 508.53 L159.64 514.409 L154.755 514.409 L154.755 508.53 Z" fill="#000000" fill-rule="evenodd" fill-opacity="1" /><path clip-path="url(#clip2600)" d="M 0 0 M164.755 479.849 L183.112 479.849 L183.112 483.784 L169.038 483.784 L169.038 492.256 Q170.056 491.909 171.075 491.747 Q172.093 491.562 173.112 491.562 Q178.899 491.562 182.278 494.733 Q185.658 497.905 185.658 503.321 Q185.658 508.9 182.186 512.002 Q178.714 515.08 172.394 515.08 Q170.218 515.08 167.95 514.71 Q165.704 514.34 163.297 513.599 L163.297 508.9 Q165.38 510.034 167.603 510.59 Q169.825 511.145 172.302 511.145 Q176.306 511.145 178.644 509.039 Q180.982 506.932 180.982 503.321 Q180.982 499.71 178.644 497.604 Q176.306 495.497 172.302 495.497 Q170.427 495.497 168.552 495.914 Q166.7 496.331 164.755 497.21 L164.755 479.849 Z" fill="#000000" fill-rule="evenodd" fill-opacity="1" /><path clip-path="url(#clip2600)" d="M 0 0 M200.727 482.928 Q197.116 482.928 195.288 486.493 Q193.482 490.034 193.482 497.164 Q193.482 504.27 195.288 507.835 Q197.116 511.377 200.727 511.377 Q204.362 511.377 206.167 507.835 Q207.996 504.27 207.996 497.164 Q207.996 490.034 206.167 486.493 Q204.362 482.928 200.727 482.928 M200.727 479.224 Q206.538 479.224 209.593 483.831 Q212.672 488.414 212.672 497.164 Q212.672 505.891 209.593 510.497 Q206.538 515.08 200.727 515.08 Q194.917 515.08 191.839 510.497 Q188.783 505.891 188.783 497.164 Q188.783 488.414 191.839 483.831 Q194.917 479.224 200.727 479.224 Z" fill="#000000" fill-rule="evenodd" fill-opacity="1" /><path clip-path="url(#clip2600)" d="M 0 0 M134.362 316.311 L150.681 316.311 L150.681 320.246 L128.737 320.246 L128.737 316.311 Q131.399 313.556 135.982 308.927 Q140.589 304.274 141.769 302.931 Q144.015 300.408 144.894 298.672 Q145.797 296.913 145.797 295.223 Q145.797 292.468 143.853 290.732 Q141.931 288.996 138.83 288.996 Q136.63 288.996 134.177 289.76 Q131.746 290.524 128.968 292.075 L128.968 287.353 Q131.793 286.219 134.246 285.64 Q136.7 285.061 138.737 285.061 Q144.107 285.061 147.302 287.746 Q150.496 290.431 150.496 294.922 Q150.496 297.052 149.686 298.973 Q148.899 300.871 146.792 303.464 Q146.214 304.135 143.112 307.353 Q140.01 310.547 134.362 316.311 Z" fill="#000000" fill-rule="evenodd" fill-opacity="1" /><path clip-path="url(#clip2600)" d="M 0 0 M155.751 314.367 L160.635 314.367 L160.635 320.246 L155.751 320.246 L155.751 314.367 Z" fill="#000000" fill-rule="evenodd" fill-opacity="1" /><path clip-path="url(#clip2600)" d="M 0 0 M165.751 285.686 L184.107 285.686 L184.107 289.621 L170.033 289.621 L170.033 298.093 Q171.052 297.746 172.07 297.584 Q173.089 297.399 174.107 297.399 Q179.894 297.399 183.274 300.57 Q186.653 303.742 186.653 309.158 Q186.653 314.737 183.181 317.839 Q179.709 320.917 173.39 320.917 Q171.214 320.917 168.945 320.547 Q166.7 320.177 164.292 319.436 L164.292 314.737 Q166.376 315.871 168.598 316.427 Q170.82 316.982 173.297 316.982 Q177.302 316.982 179.64 314.876 Q181.977 312.769 181.977 309.158 Q181.977 305.547 179.64 303.441 Q177.302 301.334 173.297 301.334 Q171.422 301.334 169.547 301.751 Q167.695 302.168 165.751 303.047 L165.751 285.686 Z" fill="#000000" fill-rule="evenodd" fill-opacity="1" /><path clip-path="url(#clip2600)" d="M 0 0 M191.769 285.686 L210.125 285.686 L210.125 289.621 L196.051 289.621 L196.051 298.093 Q197.07 297.746 198.088 297.584 Q199.107 297.399 200.126 297.399 Q205.913 297.399 209.292 300.57 Q212.672 303.742 212.672 309.158 Q212.672 314.737 209.2 317.839 Q205.727 320.917 199.408 320.917 Q197.232 320.917 194.963 320.547 Q192.718 320.177 190.311 319.436 L190.311 314.737 Q192.394 315.871 194.616 316.427 Q196.838 316.982 199.315 316.982 Q203.32 316.982 205.658 314.876 Q207.996 312.769 207.996 309.158 Q207.996 305.547 205.658 303.441 Q203.32 301.334 199.315 301.334 Q197.44 301.334 195.565 301.751 Q193.713 302.168 191.769 303.047 L191.769 285.686 Z" fill="#000000" fill-rule="evenodd" fill-opacity="1" /><path clip-path="url(#clip2600)" d="M 0 0 M899.406 12.096 L950.569 12.096 L950.569 18.9825 L929.099 18.9825 L929.099 72.576 L920.876 72.576 L920.876 18.9825 L899.406 18.9825 L899.406 12.096 Z" fill="#000000" fill-rule="evenodd" fill-opacity="1" /><path clip-path="url(#clip2600)" d="M 0 0 M999.14 16.7545 L999.14 25.383 Q995.008 21.5346 990.309 19.6307 Q985.65 17.7268 980.384 17.7268 Q970.014 17.7268 964.504 24.0867 Q958.995 30.4061 958.995 42.3968 Q958.995 54.3469 964.504 60.7069 Q970.014 67.0263 980.384 67.0263 Q985.65 67.0263 990.309 65.1223 Q995.008 63.2184 999.14 59.3701 L999.14 67.9175 Q994.846 70.8341 990.025 72.2924 Q985.245 73.7508 979.898 73.7508 Q966.165 73.7508 958.266 65.3654 Q950.367 56.9395 950.367 42.3968 Q950.367 27.8135 958.266 19.4281 Q966.165 11.0023 979.898 11.0023 Q985.326 11.0023 990.106 12.4606 Q994.927 13.8784 999.14 16.7545 Z" fill="#000000" fill-rule="evenodd" fill-opacity="1" /><path clip-path="url(#clip2600)" d="M 0 0 M1024.86 9.62495 Q1019.43 18.942 1016.8 28.0566 Q1014.17 37.1711 1014.17 46.5287 Q1014.17 55.8863 1016.8 65.0818 Q1019.48 74.2369 1024.86 83.5134 L1018.38 83.5134 Q1012.31 73.9938 1009.27 64.7983 Q1006.27 55.6027 1006.27 46.5287 Q1006.27 37.4952 1009.27 28.3401 Q1012.26 19.1851 1018.38 9.62495 L1024.86 9.62495 Z" fill="#000000" fill-rule="evenodd" fill-opacity="1" /><path clip-path="url(#clip2600)" d="M 0 0 M1033.01 12.096 L1041.19 12.096 L1041.19 65.6895 L1070.64 65.6895 L1070.64 72.576 L1033.01 72.576 L1033.01 12.096 Z" fill="#000000" fill-rule="evenodd" fill-opacity="1" /><path clip-path="url(#clip2600)" d="M 0 0 M1077.28 9.62495 L1083.76 9.62495 Q1089.84 19.1851 1092.84 28.3401 Q1095.88 37.4952 1095.88 46.5287 Q1095.88 55.6027 1092.84 64.7983 Q1089.84 73.9938 1083.76 83.5134 L1077.28 83.5134 Q1082.67 74.2369 1085.3 65.0818 Q1087.98 55.8863 1087.98 46.5287 Q1087.98 37.1711 1085.3 28.0566 Q1082.67 18.942 1077.28 9.62495 Z" fill="#000000" fill-rule="evenodd" fill-opacity="1" /><path clip-path="url(#clip2600)" d="M 0 0 M1124.72 27.2059 L1132.62 27.2059 L1146.8 65.2844 L1160.97 27.2059 L1168.87 27.2059 L1151.86 72.576 L1141.73 72.576 L1124.72 27.2059 Z" fill="#000000" fill-rule="evenodd" fill-opacity="1" /><path clip-path="url(#clip2600)" d="M 0 0 M1205.61 28.5427 L1205.61 35.5912 Q1202.45 33.9709 1199.05 33.1607 Q1195.65 32.3505 1192 32.3505 Q1186.45 32.3505 1183.66 34.0519 Q1180.9 35.7533 1180.9 39.156 Q1180.9 41.7486 1182.89 43.2475 Q1184.87 44.7058 1190.87 46.0426 L1193.42 46.6097 Q1201.36 48.3111 1204.68 51.4303 Q1208.04 54.509 1208.04 60.0587 Q1208.04 66.3781 1203.02 70.0644 Q1198.04 73.7508 1189.29 73.7508 Q1185.64 73.7508 1181.67 73.0216 Q1177.74 72.3329 1173.37 70.9151 L1173.37 63.2184 Q1177.5 65.3654 1181.51 66.4591 Q1185.52 67.5124 1189.45 67.5124 Q1194.72 67.5124 1197.55 65.73 Q1200.39 63.9071 1200.39 60.6258 Q1200.39 57.5877 1198.32 55.9673 Q1196.3 54.3469 1189.37 52.8481 L1186.78 52.2405 Q1179.85 50.7821 1176.77 47.7845 Q1173.69 44.7463 1173.69 39.4801 Q1173.69 33.0797 1178.23 29.5959 Q1182.77 26.1121 1191.11 26.1121 Q1195.24 26.1121 1198.89 26.7198 Q1202.54 27.3274 1205.61 28.5427 Z" fill="#000000" fill-rule="evenodd" fill-opacity="1" /><path clip-path="url(#clip2600)" d="M 0 0 M1242.56 12.096 L1250.74 12.096 L1250.74 65.6895 L1280.19 65.6895 L1280.19 72.576 L1242.56 72.576 L1242.56 12.096 Z" fill="#000000" fill-rule="evenodd" fill-opacity="1" /><path clip-path="url(#clip2600)" d="M 0 0 M1318.92 12.096 L1340.91 34.6595 L1332.77 34.6595 L1314.95 18.6585 L1297.12 34.6595 L1288.98 34.6595 L1310.98 12.096 L1318.92 12.096 Z" fill="#000000" fill-rule="evenodd" fill-opacity="1" /><path clip-path="url(#clip2600)" d="M 0 0 M1344.97 46.5287 L1366.8 46.5287 L1366.8 53.1722 L1344.97 53.1722 L1344.97 46.5287 Z" fill="#000000" fill-rule="evenodd" fill-opacity="1" /><path clip-path="url(#clip2600)" d="M 0 0 M1377.09 65.6895 L1390.46 65.6895 L1390.46 19.5497 L1375.91 22.4663 L1375.91 15.0127 L1390.38 12.096 L1398.56 12.096 L1398.56 65.6895 L1411.93 65.6895 L1411.93 72.576 L1377.09 72.576 L1377.09 65.6895 Z" fill="#000000" fill-rule="evenodd" fill-opacity="1" /><path clip-path="url(#clip2600)" d="M 0 0 M1469.08 9.54393 L1469.08 15.7418 L1461.96 15.7418 Q1457.95 15.7418 1456.37 17.3622 Q1454.83 18.9825 1454.83 23.1955 L1454.83 27.2059 L1467.1 27.2059 L1467.1 32.9987 L1454.83 32.9987 L1454.83 72.576 L1447.33 72.576 L1447.33 32.9987 L1440.2 32.9987 L1440.2 27.2059 L1447.33 27.2059 L1447.33 24.0462 Q1447.33 16.471 1450.86 13.0277 Q1454.38 9.54393 1462.04 9.54393 L1469.08 9.54393 Z" fill="#000000" fill-rule="evenodd" fill-opacity="1" /><path clip-path="url(#clip2600)" d="M 0 0 M1494.48 32.4315 Q1488.49 32.4315 1485.01 37.1306 Q1481.52 41.7891 1481.52 49.9314 Q1481.52 58.0738 1484.96 62.7728 Q1488.45 67.4314 1494.48 67.4314 Q1500.44 67.4314 1503.92 62.7323 Q1507.41 58.0333 1507.41 49.9314 Q1507.41 41.8701 1503.92 37.1711 Q1500.44 32.4315 1494.48 32.4315 M1494.48 26.1121 Q1504.21 26.1121 1509.76 32.4315 Q1515.31 38.7509 1515.31 49.9314 Q1515.31 61.0714 1509.76 67.4314 Q1504.21 73.7508 1494.48 73.7508 Q1484.72 73.7508 1479.17 67.4314 Q1473.66 61.0714 1473.66 49.9314 Q1473.66 38.7509 1479.17 32.4315 Q1484.72 26.1121 1494.48 26.1121 Z" fill="#000000" fill-rule="evenodd" fill-opacity="1" /><path clip-path="url(#clip2600)" d="M 0 0 M1549.41 34.1734 Q1548.16 33.4443 1546.66 33.1202 Q1545.2 32.7556 1543.42 32.7556 Q1537.1 32.7556 1533.7 36.8875 Q1530.33 40.9789 1530.33 48.6757 L1530.33 72.576 L1522.84 72.576 L1522.84 27.2059 L1530.33 27.2059 L1530.33 34.2544 Q1532.68 30.1225 1536.45 28.1376 Q1540.22 26.1121 1545.61 26.1121 Q1546.38 26.1121 1547.31 26.2337 Q1548.24 26.3147 1549.37 26.5172 L1549.41 34.1734 Z" fill="#000000" fill-rule="evenodd" fill-opacity="1" /><path clip-path="url(#clip2600)" d="M 0 0 M1629.22 16.7545 L1629.22 25.383 Q1625.09 21.5346 1620.39 19.6307 Q1615.73 17.7268 1610.46 17.7268 Q1600.09 17.7268 1594.58 24.0867 Q1589.07 30.4061 1589.07 42.3968 Q1589.07 54.3469 1594.58 60.7069 Q1600.09 67.0263 1610.46 67.0263 Q1615.73 67.0263 1620.39 65.1223 Q1625.09 63.2184 1629.22 59.3701 L1629.22 67.9175 Q1624.92 70.8341 1620.1 72.2924 Q1615.32 73.7508 1609.98 73.7508 Q1596.24 73.7508 1588.34 65.3654 Q1580.44 56.9395 1580.44 42.3968 Q1580.44 27.8135 1588.34 19.4281 Q1596.24 11.0023 1609.98 11.0023 Q1615.4 11.0023 1620.18 12.4606 Q1625 13.8784 1629.22 16.7545 Z" fill="#000000" fill-rule="evenodd" fill-opacity="1" /><path clip-path="url(#clip2600)" d="M 0 0 M1674.75 45.1919 L1674.75 72.576 L1667.3 72.576 L1667.3 45.4349 Q1667.3 38.994 1664.78 35.7938 Q1662.27 32.5936 1657.25 32.5936 Q1651.21 32.5936 1647.73 36.4419 Q1644.25 40.2903 1644.25 46.9338 L1644.25 72.576 L1636.75 72.576 L1636.75 9.54393 L1644.25 9.54393 L1644.25 34.2544 Q1646.92 30.163 1650.52 28.1376 Q1654.17 26.1121 1658.91 26.1121 Q1666.73 26.1121 1670.74 30.9732 Q1674.75 35.7938 1674.75 45.1919 Z" fill="#000000" fill-rule="evenodd" fill-opacity="1" /><path clip-path="url(#clip2600)" d="M 0 0 M1682.57 27.2059 L1690.02 27.2059 L1690.02 72.576 L1682.57 72.576 L1682.57 27.2059 M1682.57 9.54393 L1690.02 9.54393 L1690.02 18.9825 L1682.57 18.9825 L1682.57 9.54393 Z" fill="#000000" fill-rule="evenodd" fill-opacity="1" /><path clip-path="url(#clip2600)" d="M 0 0 M1228.18 1508.52 L1234.61 1508.52 L1234.61 1550.63 L1257.74 1550.63 L1257.74 1556.04 L1228.18 1556.04 L1228.18 1508.52 Z" fill="#000000" fill-rule="evenodd" fill-opacity="1" /><path clip-path="url(#clip2600)" d="M 0 0 M1288.17 1508.52 L1305.46 1526.25 L1299.06 1526.25 L1285.05 1513.68 L1271.05 1526.25 L1264.65 1526.25 L1281.93 1508.52 L1288.17 1508.52 Z" fill="#000000" fill-rule="evenodd" fill-opacity="1" /><path clip-path="url(#clip2600)" d="M 0 0 M1308.64 1535.58 L1325.79 1535.58 L1325.79 1540.8 L1308.64 1540.8 L1308.64 1535.58 Z" fill="#000000" fill-rule="evenodd" fill-opacity="1" /><path clip-path="url(#clip2600)" d="M 0 0 M1333.88 1550.63 L1344.38 1550.63 L1344.38 1514.38 L1332.96 1516.67 L1332.96 1510.82 L1344.32 1508.52 L1350.75 1508.52 L1350.75 1550.63 L1361.25 1550.63 L1361.25 1556.04 L1333.88 1556.04 L1333.88 1550.63 Z" fill="#000000" fill-rule="evenodd" fill-opacity="1" /><path clip-path="url(#clip2600)" d="M 0 0 M40.4842 812.507 L40.4842 772.307 L45.895 772.307 L45.895 789.177 L88.0042 789.177 L88.0042 795.638 L45.895 795.638 L45.895 812.507 L40.4842 812.507 Z" fill="#000000" fill-rule="evenodd" fill-opacity="1" /><path clip-path="url(#clip2600)" d="M 0 0 M44.1444 734.145 L50.9239 734.145 Q47.9002 737.392 46.4043 741.084 Q44.9083 744.744 44.9083 748.882 Q44.9083 757.03 49.9054 761.358 Q54.8707 765.687 64.2919 765.687 Q73.6813 765.687 78.6784 761.358 Q83.6436 757.03 83.6436 748.882 Q83.6436 744.744 82.1477 741.084 Q80.6518 737.392 77.6281 734.145 L84.3439 734.145 Q86.6355 737.519 87.7814 741.306 Q88.9272 745.062 88.9272 749.264 Q88.9272 760.053 82.3387 766.26 Q75.7183 772.467 64.2919 772.467 Q52.8336 772.467 46.2451 766.26 Q39.6248 760.053 39.6248 749.264 Q39.6248 744.999 40.7706 741.243 Q41.8846 737.455 44.1444 734.145 Z" fill="#000000" fill-rule="evenodd" fill-opacity="1" /><circle clip-path="url(#clip2602)" cx="1960.15" cy="326.811" r="7" fill="#009af9" fill-rule="evenodd" fill-opacity="1" stroke="#000000" stroke-opacity="1" stroke-width="0.96"/>
<circle clip-path="url(#clip2602)" cx="1405.62" cy="756.013" r="7" fill="#009af9" fill-rule="evenodd" fill-opacity="1" stroke="#000000" stroke-opacity="1" stroke-width="0.96"/>
<circle clip-path="url(#clip2602)" cx="1128.35" cy="899.081" r="7" fill="#009af9" fill-rule="evenodd" fill-opacity="1" stroke="#000000" stroke-opacity="1" stroke-width="0.96"/>
<circle clip-path="url(#clip2602)" cx="851.09" cy="994.459" r="7" fill="#009af9" fill-rule="evenodd" fill-opacity="1" stroke="#000000" stroke-opacity="1" stroke-width="0.96"/>
<polyline clip-path="url(#clip2602)" style="stroke:#e26f46; stroke-width:4; stroke-opacity:1; fill:none" points="
  296.561,1386.4 316.056,1374.42 496.321,1263.7 604.653,1197.16 696.246,1140.91 795.741,1079.8 887.467,1023.46 985.807,963.058 1099.74,893.077 1201,830.887 
  1289.79,776.352 1386.59,716.894 1483.97,657.082 1591.64,590.953 1694.08,528.033 1800.6,462.61 1890.26,407.538 1999.73,340.302 2102.63,277.098 2267.5,175.839 
  2292.87,160.256 
  "/>
<path clip-path="url(#clip2600)" d="
M308.672 388.432 L746.333 388.432 L746.333 206.992 L308.672 206.992  Z
  " fill="#ffffff" fill-rule="evenodd" fill-opacity="1"/>
<polyline clip-path="url(#clip2600)" style="stroke:#000000; stroke-width:4; stroke-opacity:1; fill:none" points="
  308.672,388.432 746.333,388.432 746.333,206.992 308.672,206.992 308.672,388.432 
  "/>
<circle clip-path="url(#clip2600)" cx="416.672" cy="267.472" r="21" fill="#009af9" fill-rule="evenodd" fill-opacity="1" stroke="#000000" stroke-opacity="1" stroke-width="0.96"/>
<path clip-path="url(#clip2600)" d="M 0 0 M500.672 250.192 L529.908 250.192 L529.908 254.127 L517.639 254.127 L517.639 284.752 L512.94 284.752 L512.94 254.127 L500.672 254.127 L500.672 250.192 Z" fill="#000000" fill-rule="evenodd" fill-opacity="1" /><path clip-path="url(#clip2600)" d="M 0 0 M544.977 259.822 L544.977 263.803 Q543.172 262.808 541.343 262.322 Q539.537 261.812 537.685 261.812 Q533.542 261.812 531.25 264.451 Q528.959 267.067 528.959 271.812 Q528.959 276.558 531.25 279.197 Q533.542 281.812 537.685 281.812 Q539.537 281.812 541.343 281.326 Q543.172 280.817 544.977 279.822 L544.977 283.757 Q543.195 284.59 541.273 285.007 Q539.375 285.423 537.222 285.423 Q531.366 285.423 527.917 281.743 Q524.468 278.062 524.468 271.812 Q524.468 265.47 527.94 261.836 Q531.435 258.201 537.5 258.201 Q539.468 258.201 541.343 258.618 Q543.218 259.012 544.977 259.822 Z" fill="#000000" fill-rule="evenodd" fill-opacity="1" /><polyline clip-path="url(#clip2600)" style="stroke:#e26f46; stroke-width:4; stroke-opacity:1; fill:none" points="
  332.672,327.952 476.672,327.952 
  "/>
<path clip-path="url(#clip2600)" d="M 0 0 M500.672 310.672 L520.533 310.672 L520.533 314.607 L505.348 314.607 L505.348 324.792 L519.051 324.792 L519.051 328.728 L505.348 328.728 L505.348 345.232 L500.672 345.232 L500.672 310.672 Z" fill="#000000" fill-rule="evenodd" fill-opacity="1" /><path clip-path="url(#clip2600)" d="M 0 0 M521.551 319.306 L525.81 319.306 L525.81 345.232 L521.551 345.232 L521.551 319.306 M521.551 309.214 L525.81 309.214 L525.81 314.607 L521.551 314.607 L521.551 309.214 Z" fill="#000000" fill-rule="evenodd" fill-opacity="1" /><path clip-path="url(#clip2600)" d="M 0 0 M534.491 311.945 L534.491 319.306 L543.264 319.306 L543.264 322.617 L534.491 322.617 L534.491 336.691 Q534.491 339.862 535.347 340.765 Q536.227 341.667 538.889 341.667 L543.264 341.667 L543.264 345.232 L538.889 345.232 Q533.959 345.232 532.084 343.403 Q530.209 341.552 530.209 336.691 L530.209 322.617 L527.084 322.617 L527.084 319.306 L530.209 319.306 L530.209 311.945 L534.491 311.945 Z" fill="#000000" fill-rule="evenodd" fill-opacity="1" /><path clip-path="url(#clip2600)" d="M 0 0 M551.945 311.945 L551.945 319.306 L560.718 319.306 L560.718 322.617 L551.945 322.617 L551.945 336.691 Q551.945 339.862 552.801 340.765 Q553.681 341.667 556.343 341.667 L560.718 341.667 L560.718 345.232 L556.343 345.232 Q551.412 345.232 549.537 343.403 Q547.662 341.552 547.662 336.691 L547.662 322.617 L544.537 322.617 L544.537 319.306 L547.662 319.306 L547.662 311.945 L551.945 311.945 Z" fill="#000000" fill-rule="evenodd" fill-opacity="1" /><path clip-path="url(#clip2600)" d="M 0 0 M587.361 331.204 L587.361 333.288 L567.778 333.288 Q568.056 337.686 570.417 340.001 Q572.801 342.292 577.037 342.292 Q579.491 342.292 581.782 341.69 Q584.097 341.089 586.366 339.885 L586.366 343.913 Q584.074 344.885 581.667 345.394 Q579.259 345.903 576.782 345.903 Q570.579 345.903 566.945 342.292 Q563.333 338.681 563.333 332.524 Q563.333 326.158 566.759 322.431 Q570.208 318.681 576.042 318.681 Q581.273 318.681 584.306 322.061 Q587.361 325.417 587.361 331.204 M583.102 329.954 Q583.056 326.459 581.134 324.376 Q579.236 322.292 576.088 322.292 Q572.523 322.292 570.37 324.306 Q568.241 326.32 567.917 329.978 L583.102 329.954 Z" fill="#000000" fill-rule="evenodd" fill-opacity="1" /><path clip-path="url(#clip2600)" d="M 0 0 M608.889 323.242 L608.889 309.214 L613.148 309.214 L613.148 345.232 L608.889 345.232 L608.889 341.343 Q607.546 343.658 605.486 344.792 Q603.449 345.903 600.579 345.903 Q595.88 345.903 592.917 342.153 Q589.977 338.403 589.977 332.292 Q589.977 326.181 592.917 322.431 Q595.88 318.681 600.579 318.681 Q603.449 318.681 605.486 319.816 Q607.546 320.927 608.889 323.242 M594.375 332.292 Q594.375 336.991 596.296 339.677 Q598.241 342.339 601.62 342.339 Q605 342.339 606.944 339.677 Q608.889 336.991 608.889 332.292 Q608.889 327.593 606.944 324.931 Q605 322.246 601.62 322.246 Q598.241 322.246 596.296 324.931 Q594.375 327.593 594.375 332.292 Z" fill="#000000" fill-rule="evenodd" fill-opacity="1" /><path clip-path="url(#clip2600)" d="M 0 0 M632.685 309.214 L636.944 309.214 L636.944 345.232 L632.685 345.232 L632.685 309.214 Z" fill="#000000" fill-rule="evenodd" fill-opacity="1" /><path clip-path="url(#clip2600)" d="M 0 0 M641.412 319.306 L645.671 319.306 L645.671 345.232 L641.412 345.232 L641.412 319.306 M641.412 309.214 L645.671 309.214 L645.671 314.607 L641.412 314.607 L641.412 309.214 Z" fill="#000000" fill-rule="evenodd" fill-opacity="1" /><path clip-path="url(#clip2600)" d="M 0 0 M671.689 329.584 L671.689 345.232 L667.43 345.232 L667.43 329.723 Q667.43 326.042 665.995 324.214 Q664.56 322.385 661.689 322.385 Q658.24 322.385 656.25 324.584 Q654.259 326.783 654.259 330.579 L654.259 345.232 L649.976 345.232 L649.976 319.306 L654.259 319.306 L654.259 323.334 Q655.787 320.996 657.847 319.839 Q659.93 318.681 662.638 318.681 Q667.106 318.681 669.398 321.459 Q671.689 324.214 671.689 329.584 Z" fill="#000000" fill-rule="evenodd" fill-opacity="1" /><path clip-path="url(#clip2600)" d="M 0 0 M698.333 331.204 L698.333 333.288 L678.749 333.288 Q679.027 337.686 681.388 340.001 Q683.773 342.292 688.009 342.292 Q690.462 342.292 692.754 341.69 Q695.069 341.089 697.337 339.885 L697.337 343.913 Q695.046 344.885 692.638 345.394 Q690.231 345.903 687.754 345.903 Q681.55 345.903 677.916 342.292 Q674.305 338.681 674.305 332.524 Q674.305 326.158 677.731 322.431 Q681.18 318.681 687.013 318.681 Q692.245 318.681 695.277 322.061 Q698.333 325.417 698.333 331.204 M694.073 329.954 Q694.027 326.459 692.106 324.376 Q690.208 322.292 687.06 322.292 Q683.495 322.292 681.342 324.306 Q679.212 326.32 678.888 329.978 L694.073 329.954 Z" fill="#000000" fill-rule="evenodd" fill-opacity="1" /></svg>
