<?xml version="1.0" encoding="UTF-8" standalone="no"?>
<svg
   xmlns:dc="http://purl.org/dc/elements/1.1/"
   xmlns:cc="http://creativecommons.org/ns#"
   xmlns:rdf="http://www.w3.org/1999/02/22-rdf-syntax-ns#"
   xmlns:svg="http://www.w3.org/2000/svg"
   xmlns="http://www.w3.org/2000/svg"
   xmlns:sodipodi="http://sodipodi.sourceforge.net/DTD/sodipodi-0.dtd"
   xmlns:inkscape="http://www.inkscape.org/namespaces/inkscape"
   width="4800"
   height="3200"
   viewBox="0 0 19200 12800"
   version="1.1"
   id="svg107"
   sodipodi:docname="C_12.svg"
   inkscape:version="1.0 (4035a4fb49, 2020-05-01)">
  <metadata
     id="metadata111">
    <rdf:RDF>
      <cc:Work
         rdf:about="">
        <dc:format>image/svg+xml</dc:format>
        <dc:type
           rdf:resource="http://purl.org/dc/dcmitype/StillImage" />
      </cc:Work>
    </rdf:RDF>
  </metadata>
  <sodipodi:namedview
     inkscape:document-rotation="0"
     pagecolor="#ffffff"
     bordercolor="#666666"
     borderopacity="1"
     objecttolerance="10"
     gridtolerance="10"
     guidetolerance="10"
     inkscape:pageopacity="0"
     inkscape:pageshadow="2"
     inkscape:window-width="1280"
     inkscape:window-height="658"
     id="namedview109"
     showgrid="false"
     inkscape:zoom="0.153125"
     inkscape:cx="2400"
     inkscape:cy="1600"
     inkscape:window-x="-6"
     inkscape:window-y="-6"
     inkscape:window-maximized="1"
     inkscape:current-layer="svg107" />
  <defs
     id="defs5">
    <clipPath
       id="clip3100">
      <rect
         x="0"
         y="0"
         width="19200"
         height="12800"
         id="rect2" />
    </clipPath>
  </defs>
  <path
     clip-path="url(#clip3100)"
     d=" M0 12800 L19200 12800 L19200 0 L0 0  Z   "
     fill="#ffffff"
     fill-rule="evenodd"
     fill-opacity="1"
     id="path7" />
  <defs
     id="defs12">
    <clipPath
       id="clip3101">
      <rect
         x="3840"
         y="0"
         width="13441"
         height="12800"
         id="rect9" />
    </clipPath>
  </defs>
  <path
     clip-path="url(#clip3100)"
     d=" M1393.19 11385.4 L18822 11385.4 L18822 377.953 L1393.19 377.953  Z   "
     fill="#ffffff"
     fill-rule="evenodd"
     fill-opacity="1"
     id="path14" />
  <defs
     id="defs19">
    <clipPath
       id="clip3102">
      <rect
         x="1393"
         y="377"
         width="17430"
         height="11008"
         id="rect16" />
    </clipPath>
  </defs>
  <polyline
     clip-path="url(#clip3102)"
     style="stroke:#000000; stroke-width:16; stroke-opacity:0.1; fill:none"
     points="   1550.9,11385.4 1550.9,377.953    "
     id="polyline21" />
  <polyline
     clip-path="url(#clip3102)"
     style="stroke:#000000; stroke-width:16; stroke-opacity:0.1; fill:none"
     points="   4906.48,11385.4 4906.48,377.953    "
     id="polyline23" />
  <polyline
     clip-path="url(#clip3102)"
     style="stroke:#000000; stroke-width:16; stroke-opacity:0.1; fill:none"
     points="   8262.05,11385.4 8262.05,377.953    "
     id="polyline25" />
  <polyline
     clip-path="url(#clip3102)"
     style="stroke:#000000; stroke-width:16; stroke-opacity:0.1; fill:none"
     points="   11617.6,11385.4 11617.6,377.953    "
     id="polyline27" />
  <polyline
     clip-path="url(#clip3102)"
     style="stroke:#000000; stroke-width:16; stroke-opacity:0.1; fill:none"
     points="   14973.2,11385.4 14973.2,377.953    "
     id="polyline29" />
  <polyline
     clip-path="url(#clip3102)"
     style="stroke:#000000; stroke-width:16; stroke-opacity:0.1; fill:none"
     points="   18328.8,11385.4 18328.8,377.953    "
     id="polyline31" />
  <polyline
     clip-path="url(#clip3102)"
     style="stroke:#000000; stroke-width:16; stroke-opacity:0.1; fill:none"
     points="   1393.19,11073.9 18822,11073.9    "
     id="polyline33" />
  <polyline
     clip-path="url(#clip3102)"
     style="stroke:#000000; stroke-width:16; stroke-opacity:0.1; fill:none"
     points="   1393.19,8103.23 18822,8103.23    "
     id="polyline35" />
  <polyline
     clip-path="url(#clip3102)"
     style="stroke:#000000; stroke-width:16; stroke-opacity:0.1; fill:none"
     points="   1393.19,5132.55 18822,5132.55    "
     id="polyline37" />
  <polyline
     clip-path="url(#clip3102)"
     style="stroke:#000000; stroke-width:16; stroke-opacity:0.1; fill:none"
     points="   1393.19,2161.87 18822,2161.87    "
     id="polyline39" />
  <polyline
     clip-path="url(#clip3100)"
     style="stroke:#000000; stroke-width:32; stroke-opacity:1; fill:none"
     points="   1393.19,11385.4 18822,11385.4    "
     id="polyline41" />
  <polyline
     clip-path="url(#clip3100)"
     style="stroke:#000000; stroke-width:32; stroke-opacity:1; fill:none"
     points="   1393.19,11385.4 1393.19,377.953    "
     id="polyline43" />
  <polyline
     clip-path="url(#clip3100)"
     style="stroke:#000000; stroke-width:32; stroke-opacity:1; fill:none"
     points="   1550.9,11385.4 1550.9,11253.3    "
     id="polyline45" />
  <polyline
     clip-path="url(#clip3100)"
     style="stroke:#000000; stroke-width:32; stroke-opacity:1; fill:none"
     points="   4906.48,11385.4 4906.48,11253.3    "
     id="polyline47" />
  <polyline
     clip-path="url(#clip3100)"
     style="stroke:#000000; stroke-width:32; stroke-opacity:1; fill:none"
     points="   8262.05,11385.4 8262.05,11253.3    "
     id="polyline49" />
  <polyline
     clip-path="url(#clip3100)"
     style="stroke:#000000; stroke-width:32; stroke-opacity:1; fill:none"
     points="   11617.6,11385.4 11617.6,11253.3    "
     id="polyline51" />
  <polyline
     clip-path="url(#clip3100)"
     style="stroke:#000000; stroke-width:32; stroke-opacity:1; fill:none"
     points="   14973.2,11385.4 14973.2,11253.3    "
     id="polyline53" />
  <polyline
     clip-path="url(#clip3100)"
     style="stroke:#000000; stroke-width:32; stroke-opacity:1; fill:none"
     points="   18328.8,11385.4 18328.8,11253.3    "
     id="polyline55" />
  <polyline
     clip-path="url(#clip3100)"
     style="stroke:#000000; stroke-width:32; stroke-opacity:1; fill:none"
     points="   1393.19,11073.9 1602.34,11073.9    "
     id="polyline57" />
  <polyline
     clip-path="url(#clip3100)"
     style="stroke:#000000; stroke-width:32; stroke-opacity:1; fill:none"
     points="   1393.19,8103.23 1602.34,8103.23    "
     id="polyline59" />
  <polyline
     clip-path="url(#clip3100)"
     style="stroke:#000000; stroke-width:32; stroke-opacity:1; fill:none"
     points="   1393.19,5132.55 1602.34,5132.55    "
     id="polyline61" />
  <polyline
     clip-path="url(#clip3100)"
     style="stroke:#000000; stroke-width:32; stroke-opacity:1; fill:none"
     points="   1393.19,2161.87 1602.34,2161.87    "
     id="polyline63" />
  <path
     clip-path="url(#clip3100)"
     d="M 0 0 M1550.9 11561.4 Q1522.01 11561.4 1507.39 11589.9 Q1492.94 11618.2 1492.94 11675.3 Q1492.94 11732.1 1507.39 11760.6 Q1522.01 11789 1550.9 11789 Q1579.98 11789 1594.42 11760.6 Q1609.05 11732.1 1609.05 11675.3 Q1609.05 11618.2 1594.42 11589.9 Q1579.98 11561.4 1550.9 11561.4 M1550.9 11531.7 Q1597.38 11531.7 1621.83 11568.6 Q1646.46 11605.3 1646.46 11675.3 Q1646.46 11745.1 1621.83 11781.9 Q1597.38 11818.6 1550.9 11818.6 Q1504.42 11818.6 1479.79 11781.9 Q1455.35 11745.1 1455.35 11675.3 Q1455.35 11605.3 1479.79 11568.6 Q1504.42 11531.7 1550.9 11531.7 Z"
     fill="#000000"
     fill-rule="evenodd"
     fill-opacity="1"
     id="path65" />
  <path
     clip-path="url(#clip3100)"
     d="M 0 0 M4829.53 11781.7 L4890.64 11781.7 L4890.64 11570.8 L4824.16 11584.1 L4824.16 11550.1 L4890.27 11536.7 L4927.68 11536.7 L4927.68 11781.7 L4988.79 11781.7 L4988.79 11813.2 L4829.53 11813.2 L4829.53 11781.7 Z"
     fill="#000000"
     fill-rule="evenodd"
     fill-opacity="1"
     id="path67" />
  <path
     clip-path="url(#clip3100)"
     d="M 0 0 M8219.28 11781.7 L8349.83 11781.7 L8349.83 11813.2 L8174.28 11813.2 L8174.28 11781.7 Q8195.57 11759.7 8232.24 11722.7 Q8269.09 11685.4 8278.53 11674.7 Q8296.5 11654.5 8303.53 11640.6 Q8310.76 11626.5 8310.76 11613 Q8310.76 11591 8295.2 11577.1 Q8279.83 11563.2 8255.02 11563.2 Q8237.42 11563.2 8217.79 11569.3 Q8198.35 11575.4 8176.13 11587.8 L8176.13 11550.1 Q8198.72 11541 8218.35 11536.4 Q8237.98 11531.7 8254.28 11531.7 Q8297.24 11531.7 8322.79 11553.2 Q8348.35 11574.7 8348.35 11610.6 Q8348.35 11627.7 8341.87 11643 Q8335.57 11658.2 8318.72 11679 Q8314.09 11684.3 8289.28 11710.1 Q8264.46 11735.6 8219.28 11781.7 Z"
     fill="#000000"
     fill-rule="evenodd"
     fill-opacity="1"
     id="path69" />
  <path
     clip-path="url(#clip3100)"
     d="M 0 0 M11651.6 11664.1 Q11678.5 11669.9 11693.5 11688 Q11708.6 11706.2 11708.6 11732.8 Q11708.6 11773.8 11680.5 11796.2 Q11652.4 11818.6 11600.5 11818.6 Q11583.1 11818.6 11564.6 11815.1 Q11546.2 11811.7 11526.6 11804.9 L11526.6 11768.8 Q11542.2 11777.8 11560.7 11782.5 Q11579.2 11787.1 11599.4 11787.1 Q11634.6 11787.1 11652.9 11773.2 Q11671.4 11759.3 11671.4 11732.8 Q11671.4 11708.4 11654.2 11694.7 Q11637.2 11680.8 11606.6 11680.8 L11574.4 11680.8 L11574.4 11650.1 L11608.1 11650.1 Q11635.7 11650.1 11650.3 11639.1 Q11664.9 11628 11664.9 11607.3 Q11664.9 11586 11649.8 11574.7 Q11634.8 11563.2 11606.6 11563.2 Q11591.2 11563.2 11573.6 11566.5 Q11556.1 11569.9 11534.9 11576.9 L11534.9 11543.6 Q11556.2 11537.7 11574.8 11534.7 Q11593.5 11531.7 11609.9 11531.7 Q11652.5 11531.7 11677.3 11551.2 Q11702.2 11570.4 11702.2 11603.4 Q11702.2 11626.4 11689 11642.3 Q11675.9 11658 11651.6 11664.1 Z"
     fill="#000000"
     fill-rule="evenodd"
     fill-opacity="1"
     id="path71" />
  <path
     clip-path="url(#clip3100)"
     d="M 0 0 M14997.3 11569.3 L14902.8 11716.9 L14997.3 11716.9 L14997.3 11569.3 M14987.5 11536.7 L15034.5 11536.7 L15034.5 11716.9 L15073.9 11716.9 L15073.9 11748 L15034.5 11748 L15034.5 11813.2 L14997.3 11813.2 L14997.3 11748 L14872.5 11748 L14872.5 11711.9 L14987.5 11536.7 Z"
     fill="#000000"
     fill-rule="evenodd"
     fill-opacity="1"
     id="path73" />
  <path
     clip-path="url(#clip3100)"
     d="M 0 0 M18251 11536.7 L18397.9 11536.7 L18397.9 11568.2 L18285.3 11568.2 L18285.3 11636 Q18293.4 11633.2 18301.6 11631.9 Q18309.7 11630.4 18317.9 11630.4 Q18364.1 11630.4 18391.2 11655.8 Q18418.2 11681.2 18418.2 11724.5 Q18418.2 11769.1 18390.4 11794 Q18362.7 11818.6 18312.1 11818.6 Q18294.7 11818.6 18276.6 11815.6 Q18258.6 11812.7 18239.3 11806.7 L18239.3 11769.1 Q18256 11778.2 18273.8 11782.7 Q18291.6 11787.1 18311.4 11787.1 Q18343.4 11787.1 18362.1 11770.3 Q18380.8 11753.4 18380.8 11724.5 Q18380.8 11695.6 18362.1 11678.8 Q18343.4 11661.9 18311.4 11661.9 Q18296.4 11661.9 18281.4 11665.3 Q18266.6 11668.6 18251 11675.6 L18251 11536.7 Z"
     fill="#000000"
     fill-rule="evenodd"
     fill-opacity="1"
     id="path75" />
  <path
     clip-path="url(#clip3100)"
     d="M 0 0 M1105.64 10960.3 Q1076.75 10960.3 1062.12 10988.8 Q1047.67 11017.1 1047.67 11074.2 Q1047.67 11131 1062.12 11159.6 Q1076.75 11187.9 1105.64 11187.9 Q1134.71 11187.9 1149.15 11159.6 Q1163.78 11131 1163.78 11074.2 Q1163.78 11017.1 1149.15 10988.8 Q1134.71 10960.3 1105.64 10960.3 M1105.64 10930.7 Q1152.12 10930.7 1176.56 10967.5 Q1201.19 11004.2 1201.19 11074.2 Q1201.19 11144 1176.56 11180.8 Q1152.12 11217.5 1105.64 11217.5 Q1059.16 11217.5 1034.53 11180.8 Q1010.08 11144 1010.08 11074.2 Q1010.08 11004.2 1034.53 10967.5 Q1059.16 10930.7 1105.64 10930.7 Z"
     fill="#000000"
     fill-rule="evenodd"
     fill-opacity="1"
     id="path77" />
  <path
     clip-path="url(#clip3100)"
     d="M 0 0 M1041.93 8209.99 L1103.04 8209.99 L1103.04 7999.06 L1036.56 8012.4 L1036.56 7978.32 L1102.67 7964.99 L1140.08 7964.99 L1140.08 8209.99 L1201.19 8209.99 L1201.19 8241.47 L1041.93 8241.47 L1041.93 8209.99 Z"
     fill="#000000"
     fill-rule="evenodd"
     fill-opacity="1"
     id="path79" />
  <path
     clip-path="url(#clip3100)"
     d="M 0 0 M1070.64 5239.31 L1201.19 5239.31 L1201.19 5270.79 L1025.64 5270.79 L1025.64 5239.31 Q1046.93 5217.27 1083.6 5180.24 Q1120.45 5143.01 1129.9 5132.27 Q1147.86 5112.09 1154.9 5098.2 Q1162.12 5084.12 1162.12 5070.61 Q1162.12 5048.57 1146.56 5034.68 Q1131.19 5020.79 1106.38 5020.79 Q1088.78 5020.79 1069.16 5026.9 Q1049.71 5033.01 1027.49 5045.42 L1027.49 5007.64 Q1050.08 4998.57 1069.71 4993.94 Q1089.34 4989.31 1105.64 4989.31 Q1148.6 4989.31 1174.15 5010.79 Q1199.71 5032.27 1199.71 5068.2 Q1199.71 5085.24 1193.23 5100.61 Q1186.93 5115.79 1170.08 5136.53 Q1165.45 5141.9 1140.64 5167.64 Q1115.82 5193.2 1070.64 5239.31 Z"
     fill="#000000"
     fill-rule="evenodd"
     fill-opacity="1"
     id="path81" />
  <path
     clip-path="url(#clip3100)"
     d="M 0 0 M1144.15 2151.04 Q1171.01 2156.78 1186.01 2174.93 Q1201.19 2193.08 1201.19 2219.74 Q1201.19 2260.67 1173.04 2283.08 Q1144.9 2305.48 1093.04 2305.48 Q1075.64 2305.48 1057.12 2301.96 Q1038.78 2298.63 1019.16 2291.78 L1019.16 2255.67 Q1034.71 2264.74 1053.23 2269.37 Q1071.75 2274 1091.93 2274 Q1127.12 2274 1145.45 2260.11 Q1163.97 2246.22 1163.97 2219.74 Q1163.97 2195.3 1146.75 2181.59 Q1129.71 2167.71 1099.15 2167.71 L1066.93 2167.71 L1066.93 2136.97 L1100.64 2136.97 Q1128.23 2136.97 1142.86 2126.04 Q1157.49 2114.93 1157.49 2094.19 Q1157.49 2072.89 1142.3 2061.6 Q1127.3 2050.11 1099.15 2050.11 Q1083.78 2050.11 1066.19 2053.45 Q1048.6 2056.78 1027.49 2063.82 L1027.49 2030.48 Q1048.78 2024.56 1067.3 2021.6 Q1086.01 2018.63 1102.49 2018.63 Q1145.08 2018.63 1169.9 2038.08 Q1194.71 2057.34 1194.71 2090.3 Q1194.71 2113.26 1181.56 2129.19 Q1168.41 2144.93 1144.15 2151.04 Z"
     fill="#000000"
     fill-rule="evenodd"
     fill-opacity="1"
     id="path83" />
  <path
     clip-path="url(#clip3100)"
     d="M 0 0 M9946.82 12068.2 L10268.4 12068.2 L10268.4 12111.5 L10133.5 12111.5 L10133.5 12448.4 L10081.8 12448.4 L10081.8 12111.5 L9946.82 12111.5 L9946.82 12068.2 Z"
     fill="#000000"
     fill-rule="evenodd"
     fill-opacity="1"
     id="path85" />
  <path
     clip-path="url(#clip3100)"
     d="M 0 0 M353.156 5728.41 L407.391 5728.41 Q383.202 5754.38 371.234 5783.92 Q359.267 5813.2 359.267 5846.3 Q359.267 5911.49 399.243 5946.12 Q438.965 5980.75 514.335 5980.75 Q589.451 5980.75 629.427 5946.12 Q669.149 5911.49 669.149 5846.3 Q669.149 5813.2 657.182 5783.92 Q645.214 5754.38 621.024 5728.41 L674.751 5728.41 Q693.084 5755.4 702.251 5785.7 Q711.417 5815.75 711.417 5849.36 Q711.417 5935.68 658.709 5985.33 Q605.747 6034.98 514.335 6034.98 Q422.669 6034.98 369.961 5985.33 Q316.998 5935.68 316.998 5849.36 Q316.998 5815.24 326.165 5785.19 Q335.077 5754.89 353.156 5728.41 Z"
     fill="#000000"
     fill-rule="evenodd"
     fill-opacity="1"
     id="path87" />
  <polyline
     clip-path="url(#clip3102)"
     style="stroke:#009af9; stroke-width:48; stroke-opacity:1; fill:none"
     points="   1886.46,11073.9 1927.67,11073.9 1968.88,11073.9 2010.09,11073.9 2051.3,11073.9 2092.5,11073.9 2133.71,11073.9 2174.92,11073.9 2216.13,11073.9 2257.34,11073.9    2298.55,11073.9 2339.76,11073.9 2380.97,11073.9 2422.18,11073.9 2463.38,11073.9 2504.59,11073.9 2545.8,11073.9 2587.01,11073.9 2628.22,11073.9 2669.43,11073.9    2710.64,11073.9 2751.85,11073.9 2793.05,11073.9 2834.26,11073.9 2875.47,11073.9 2916.68,11073.9 2957.89,11073.9 2999.1,11073.9 3040.31,11073.9 3081.52,11073.9    3122.73,11073.9 3163.93,11073.9 3205.14,11073.9 3246.35,11073.9 3287.56,11073.7 3328.77,11073.8 3369.98,11073.1 3411.19,11073.7 3452.4,11073.9 3493.6,11072.8    3534.81,11073.7 3576.02,11073.5 3617.23,11073.3 3658.44,11073.5 3699.65,11073.2 3740.86,11073.3 3782.07,11071.9 3823.28,11072 3864.48,11071.7 3905.69,11071.5    3946.9,11071.5 3988.11,11070.2 4029.32,11068 4070.53,11068.1 4111.74,11065.3 4152.95,11063.7 4194.15,11061.7 4235.36,11063.5 4276.57,11065.4 4317.78,11060.3    4358.99,11061.4 4400.2,11055.3 4441.41,11050.8 4482.62,11046.1 4523.82,11044.1 4565.03,11042.6 4606.24,11039.2 4647.45,11033.5 4688.66,11030.3 4729.87,11031.9    4771.08,11021.5 4812.29,11017.4 4853.5,11015.7 4894.7,11004.5 4935.91,11000.7 4977.12,10997.7 5018.33,10978 5059.54,10978.9 5100.75,10970.7 5141.96,10958.4    5183.17,10957.9 5224.37,10944.4 5265.58,10933 5306.79,10915.6 5348,10910.8 5389.21,10880.6 5430.42,10883.1 5471.63,10877.6 5512.84,10860.9 5554.05,10842.9    5595.25,10832.6 5636.46,10829.2 5677.67,10786.8 5718.88,10790.3 5760.09,10753.2 5801.3,10758.1 5842.51,10709.7 5883.72,10696.8 5924.92,10683.8 5966.13,10656.6    6007.34,10619.3 6048.55,10612.8 6089.76,10582.8 6130.97,10548.9 6172.18,10547.9 6213.39,10497.7 6254.6,10456.5 6295.8,10444.7 6337.01,10380.6 6378.22,10378.9    6419.43,10357.3 6460.64,10288.6 6501.85,10269.3 6543.06,10224.5 6584.27,10200.3 6625.47,10156.4 6666.68,10140.7 6707.89,10084.9 6749.1,10023.4 6790.31,9958.05    6831.52,9933.28 6872.73,9894.68 6913.94,9901.32 6955.15,9745.12 6996.35,9712.57 7037.56,9615.96 7078.77,9641.39 7119.98,9605.12 7161.19,9541.12 7202.4,9466.61    7243.61,9400.08 7284.82,9357.36 7326.02,9182.15 7367.23,9066.21 7408.44,9182.65 7449.65,9003.95 7490.86,8951.39 7532.07,8819.17 7573.28,8695.14 7614.49,8715.56    7655.69,8657.54 7696.9,8478.87 7738.11,8443.8 7779.32,8309.06 7820.53,8137.02 7861.74,8020.01 7902.95,8056.74 7944.16,7952.91 7985.37,7592.06 8026.57,7347.03    8067.78,7616.94 8108.99,7407.94 8150.2,7398.74 8191.41,7185.89 8232.62,6596.56 8273.83,6698.96 8315.04,6518.35 8356.24,6280.57 8397.45,6347.31 8438.66,5906.7    8479.87,5885.75 8521.08,5171.68 8562.29,5510.35 8603.5,5360.77 8644.71,5434.81 8685.92,5020.67 8727.12,3559.2 8768.33,4344.61 8809.54,4421.81 8850.75,4321.75    8891.96,3740.64 8933.17,2360.71 8974.38,3209.72 9015.59,2785.5 9056.79,2118.05 9098,2823.78 9139.21,2072.73 9180.42,1975.55 9221.63,1648.05 9262.84,1578.12    9304.05,1714.71 9345.26,1463.44 9386.47,689.485 9427.67,1791.98 9468.88,1417.9 9510.09,1369.29 9551.3,1579.74 9592.51,1679.75 9633.72,1314.53 9674.93,1713.78    9716.14,2269.64 9757.34,1596.8 9798.55,2196.38 9839.76,2333.88 9880.97,2447.74 9922.18,2383.79 9963.39,2789.04 10004.6,3363.2 10045.8,3113.97 10087,3670.37    10128.2,3723.6 10169.4,3618.74 10210.6,3700.83 10251.9,4070.82 10293.1,4695.23 10334.3,4568.76 10375.5,4469.59 10416.7,4534.34 10457.9,4825.18 10499.1,5384.7    10540.3,5487.36 10581.5,4884.69 10622.7,5382.67 10663.9,5388.87 10705.1,5636.55 10746.4,5675.3 10787.6,5876.41 10828.8,6038.47 10870,6013.82 10911.2,6141.78    10952.4,6362.84 10993.6,6471.16 11034.8,6861.48 11076,6394.39 11117.2,6506.01 11158.4,6786.65 11199.7,6605.58 11240.9,6928.08 11282.1,6780.57 11323.3,6902.07    11364.5,7160.78 11405.7,7226.03 11446.9,7252.04 11488.1,7177.87 11529.3,7333.74 11570.5,7239.4 11611.7,7320.63 11652.9,7484.09 11694.2,7325.49 11735.4,7431.87    11776.6,7476.19 11817.8,7526.11 11859,7439.15 11900.2,7418.77 11941.4,7648.25 11982.6,7741.76 12023.8,7655.57 12065,7845.63 12106.2,7799.91 12147.5,7805.03    12188.7,7910.79 12229.9,7865.53 12271.1,7783.42 12312.3,7804.53 12353.5,7956.83 12394.7,8111.55 12435.9,8070.51 12477.1,7923.61 12518.3,8098.4 12559.5,8045.43    12600.8,8127.87 12642,8149.2 12683.2,8189.18 12724.4,8234.27 12765.6,8287.48 12806.8,8242.55 12848,8213.47 12889.2,8302.43 12930.4,8318.4 12971.6,8339.34    13012.8,8306.55 13054,8379.57 13095.3,8369.23 13136.5,8459.55 13177.7,8438.7 13218.9,8473.82 13260.1,8492.82 13301.3,8450.49 13342.5,8460.16 13383.7,8560.73    13424.9,8464.23 13466.1,8527.7 13507.3,8620.9 13548.6,8496.65 13589.8,8695.51 13631,8607.79 13672.2,8677.11 13713.4,8654.8 13754.6,8632.19 13795.8,8752.75    13837,8723.36 13878.2,8694.12 13919.4,8647.61 13960.6,8835.41 14001.9,8752.85 14043.1,8768.81 14084.3,8760.88 14125.5,8764.7 14166.7,8805.26 14207.9,8796.04    14249.1,8872.37 14290.3,8856.21 14331.5,8867.43 14372.7,8839.7 14413.9,8857 14455.1,8861.05 14496.4,8917.67 14537.6,8898.95 14578.8,8944.71 14620,8967.26    14661.2,9007.54 14702.4,9045.36 14743.6,8964.1 14784.8,8990.07 14826,9009.87 14867.2,9008.64 14908.4,9005.07 14949.7,8992.05 14990.9,9114.05 15032.1,9089.23    15073.3,9097.72 15114.5,9071.08 15155.7,9081.52 15196.9,9097.2 15238.1,9120.3 15279.3,9093.1 15320.5,9079.97 15361.7,9134.59 15403,9086.94 15444.2,9159.14    15485.4,9146.67 15526.6,9145.77 15567.8,9158.47 15609,9215.52 15650.2,9200.57 15691.4,9191.72 15732.6,9213.42 15773.8,9256.72 15815,9248.18 15856.2,9259.91    15897.5,9214.74 15938.7,9237.16 15979.9,9288.91 16021.1,9248.75 16062.3,9314.5 16103.5,9286.26 16144.7,9280.01 16185.9,9292.48 16227.1,9360.91 16268.3,9359.58    16309.5,9331.18 16350.8,9317.49 16392,9322.36 16433.2,9390.1 16474.4,9333.53 16515.6,9363.19 16556.8,9440.02 16598,9355.85 16639.2,9406.72 16680.4,9395.63    16721.6,9364.82 16762.8,9412.31 16804.1,9390.71 16845.3,9444 16886.5,9442.3 16927.7,9429.57 16968.9,9430.4 17010.1,9419.98 17051.3,9448.74 17092.5,9449.95    17133.7,9444 17174.9,9490.85 17216.1,9462.52 17257.3,9480.09 17298.6,9489.89 17339.8,9500.32 17381,9481.02 17422.2,9514.66 17463.4,9489.37 17504.6,9517.35    17545.8,9554.75 17587,9559.38 17628.2,9541.46 17669.4,9558.28 17710.6,9522.07 17751.9,9569.42 17793.1,9564.03 17834.3,9562.3 17875.5,9574.24 17916.7,9592.06    17957.9,9574.42 17999.1,9567.56 18040.3,9586.09 18081.5,9623.85 18122.7,9606.43 18163.9,9612.7 18205.2,9594.74 18246.4,9596.21 18287.6,9595.53 18328.8,9593.78       "
     id="polyline89" />
  <polyline
     clip-path="url(#clip3102)"
     style="fill:none;stroke:#006cff;stroke-width:32;stroke-miterlimit:4;stroke-dasharray:128, 64, 32, 64;stroke-dashoffset:0;stroke-opacity:1"
     points="   9427.67,1791.98 9427.67,11073.9    "
     id="polyline91"
     transform="matrix(1,0,0,1.033772,0,-60.518823)" />
  <polyline
     clip-path="url(#clip3100)"
     style="fill:none;stroke:#000000;stroke-width:32;stroke-opacity:1"
     points="   15920.9,2497.63 18246,2497.63 18246,1046.11 15920.9,1046.11 15920.9,2497.63    "
     id="polyline95"
     transform="matrix(1,0,0,0.68575762,0,328.73209)" />
  <polyline
     clip-path="url(#clip3100)"
     style="stroke:#009af9; stroke-width:48; stroke-opacity:1; fill:none"
     points="   16112.9,1529.95 17264.9,1529.95    "
     id="polyline97" />
  <path
     clip-path="url(#clip3100)"
     d="M 0 0 M17679.8 1413.01 L17679.8 1452.45 Q17660.9 1434.86 17639.5 1426.16 Q17618.2 1417.45 17594.1 1417.45 Q17546.7 1417.45 17521.5 1446.53 Q17496.3 1475.42 17496.3 1530.23 Q17496.3 1584.86 17521.5 1613.93 Q17546.7 1642.82 17594.1 1642.82 Q17618.2 1642.82 17639.5 1634.12 Q17660.9 1625.42 17679.8 1607.82 L17679.8 1646.9 Q17660.2 1660.23 17638.2 1666.9 Q17616.3 1673.56 17591.9 1673.56 Q17529.1 1673.56 17493 1635.23 Q17456.9 1596.71 17456.9 1530.23 Q17456.9 1463.56 17493 1425.23 Q17529.1 1386.71 17591.9 1386.71 Q17616.7 1386.71 17638.5 1393.38 Q17660.6 1399.86 17679.8 1413.01 Z"
     fill="#000000"
     fill-rule="evenodd"
     fill-opacity="1"
     id="path99" />
  <circle
     style="fill:#ff9955;fill-opacity:0.819277;stroke:none;stroke-width:32;stroke-miterlimit:4;stroke-dasharray:128, 64, 32, 64;stroke-dashoffset:0;stroke-opacity:1"
     id="path938"
     cx="9427.2646"
     cy="1759.0204"
     r="169.79591" />
  <text
     xml:space="preserve"
     style="font-style:normal;font-weight:normal;font-size:384px;line-height:1.25;font-family:sans-serif;fill:#000000;fill-opacity:1;stroke:none;stroke-width:4"
     x="9116.7344"
     y="11824.979"
     id="text942"><tspan
       sodipodi:role="line"
       id="tspan940"
       x="9116.7344"
       y="11824.979"
       style="font-size:384px;stroke-width:4">2.35</tspan></text>
</svg>
