<?xml version="1.0" encoding="UTF-8" standalone="no"?>
<svg
   xmlns:dc="http://purl.org/dc/elements/1.1/"
   xmlns:cc="http://creativecommons.org/ns#"
   xmlns:rdf="http://www.w3.org/1999/02/22-rdf-syntax-ns#"
   xmlns:svg="http://www.w3.org/2000/svg"
   xmlns="http://www.w3.org/2000/svg"
   xmlns:sodipodi="http://sodipodi.sourceforge.net/DTD/sodipodi-0.dtd"
   xmlns:inkscape="http://www.inkscape.org/namespaces/inkscape"
   inkscape:version="1.0 (4035a4fb49, 2020-05-01)"
   sodipodi:docname="C_16.svg"
   id="svg107"
   version="1.1"
   viewBox="0 0 19200 12800"
   height="3200"
   width="4800">
  <metadata
     id="metadata111">
    <rdf:RDF>
      <cc:Work
         rdf:about="">
        <dc:format>image/svg+xml</dc:format>
        <dc:type
           rdf:resource="http://purl.org/dc/dcmitype/StillImage" />
      </cc:Work>
    </rdf:RDF>
  </metadata>
  <sodipodi:namedview
     inkscape:current-layer="svg107"
     inkscape:window-maximized="1"
     inkscape:window-y="-6"
     inkscape:window-x="-6"
     inkscape:cy="1600"
     inkscape:cx="2400"
     inkscape:zoom="0.153125"
     showgrid="false"
     id="namedview109"
     inkscape:window-height="658"
     inkscape:window-width="1280"
     inkscape:pageshadow="2"
     inkscape:pageopacity="0"
     guidetolerance="10"
     gridtolerance="10"
     objecttolerance="10"
     borderopacity="1"
     bordercolor="#666666"
     pagecolor="#ffffff" />
  <defs
     id="defs5">
    <clipPath
       id="clip5300">
      <rect
         id="rect2"
         height="12800"
         width="19200"
         y="0"
         x="0" />
    </clipPath>
  </defs>
  <path
     id="path7"
     fill-opacity="1"
     fill-rule="evenodd"
     fill="#ffffff"
     d=" M0 12800 L19200 12800 L19200 0 L0 0  Z   "
     clip-path="url(#clip5300)" />
  <defs
     id="defs12">
    <clipPath
       id="clip5301">
      <rect
         id="rect9"
         height="12800"
         width="13441"
         y="0"
         x="3840" />
    </clipPath>
  </defs>
  <path
     id="path14"
     fill-opacity="1"
     fill-rule="evenodd"
     fill="#ffffff"
     d=" M1393.19 11385.4 L18822 11385.4 L18822 377.953 L1393.19 377.953  Z   "
     clip-path="url(#clip5300)" />
  <defs
     id="defs19">
    <clipPath
       id="clip5302">
      <rect
         id="rect16"
         height="11008"
         width="17430"
         y="377"
         x="1393" />
    </clipPath>
  </defs>
  <polyline
     id="polyline21"
     points="   1550.9,11385.4 1550.9,377.953    "
     style="stroke:#000000; stroke-width:16; stroke-opacity:0.1; fill:none"
     clip-path="url(#clip5302)" />
  <polyline
     id="polyline23"
     points="   4906.48,11385.4 4906.48,377.953    "
     style="stroke:#000000; stroke-width:16; stroke-opacity:0.1; fill:none"
     clip-path="url(#clip5302)" />
  <polyline
     id="polyline25"
     points="   8262.05,11385.4 8262.05,377.953    "
     style="stroke:#000000; stroke-width:16; stroke-opacity:0.1; fill:none"
     clip-path="url(#clip5302)" />
  <polyline
     id="polyline27"
     points="   11617.6,11385.4 11617.6,377.953    "
     style="stroke:#000000; stroke-width:16; stroke-opacity:0.1; fill:none"
     clip-path="url(#clip5302)" />
  <polyline
     id="polyline29"
     points="   14973.2,11385.4 14973.2,377.953    "
     style="stroke:#000000; stroke-width:16; stroke-opacity:0.1; fill:none"
     clip-path="url(#clip5302)" />
  <polyline
     id="polyline31"
     points="   18328.8,11385.4 18328.8,377.953    "
     style="stroke:#000000; stroke-width:16; stroke-opacity:0.1; fill:none"
     clip-path="url(#clip5302)" />
  <polyline
     id="polyline33"
     points="   1393.19,11073.9 18822,11073.9    "
     style="stroke:#000000; stroke-width:16; stroke-opacity:0.1; fill:none"
     clip-path="url(#clip5302)" />
  <polyline
     id="polyline35"
     points="   1393.19,8369.28 18822,8369.28    "
     style="stroke:#000000; stroke-width:16; stroke-opacity:0.1; fill:none"
     clip-path="url(#clip5302)" />
  <polyline
     id="polyline37"
     points="   1393.19,5664.66 18822,5664.66    "
     style="stroke:#000000; stroke-width:16; stroke-opacity:0.1; fill:none"
     clip-path="url(#clip5302)" />
  <polyline
     id="polyline39"
     points="   1393.19,2960.04 18822,2960.04    "
     style="stroke:#000000; stroke-width:16; stroke-opacity:0.1; fill:none"
     clip-path="url(#clip5302)" />
  <polyline
     id="polyline41"
     points="   1393.19,11385.4 18822,11385.4    "
     style="stroke:#000000; stroke-width:32; stroke-opacity:1; fill:none"
     clip-path="url(#clip5300)" />
  <polyline
     id="polyline43"
     points="   1393.19,11385.4 1393.19,377.953    "
     style="stroke:#000000; stroke-width:32; stroke-opacity:1; fill:none"
     clip-path="url(#clip5300)" />
  <polyline
     id="polyline45"
     points="   1550.9,11385.4 1550.9,11253.3    "
     style="stroke:#000000; stroke-width:32; stroke-opacity:1; fill:none"
     clip-path="url(#clip5300)" />
  <polyline
     id="polyline47"
     points="   4906.48,11385.4 4906.48,11253.3    "
     style="stroke:#000000; stroke-width:32; stroke-opacity:1; fill:none"
     clip-path="url(#clip5300)" />
  <polyline
     id="polyline49"
     points="   8262.05,11385.4 8262.05,11253.3    "
     style="stroke:#000000; stroke-width:32; stroke-opacity:1; fill:none"
     clip-path="url(#clip5300)" />
  <polyline
     id="polyline51"
     points="   11617.6,11385.4 11617.6,11253.3    "
     style="stroke:#000000; stroke-width:32; stroke-opacity:1; fill:none"
     clip-path="url(#clip5300)" />
  <polyline
     id="polyline53"
     points="   14973.2,11385.4 14973.2,11253.3    "
     style="stroke:#000000; stroke-width:32; stroke-opacity:1; fill:none"
     clip-path="url(#clip5300)" />
  <polyline
     id="polyline55"
     points="   18328.8,11385.4 18328.8,11253.3    "
     style="stroke:#000000; stroke-width:32; stroke-opacity:1; fill:none"
     clip-path="url(#clip5300)" />
  <polyline
     id="polyline57"
     points="   1393.19,11073.9 1602.34,11073.9    "
     style="stroke:#000000; stroke-width:32; stroke-opacity:1; fill:none"
     clip-path="url(#clip5300)" />
  <polyline
     id="polyline59"
     points="   1393.19,8369.28 1602.34,8369.28    "
     style="stroke:#000000; stroke-width:32; stroke-opacity:1; fill:none"
     clip-path="url(#clip5300)" />
  <polyline
     id="polyline61"
     points="   1393.19,5664.66 1602.34,5664.66    "
     style="stroke:#000000; stroke-width:32; stroke-opacity:1; fill:none"
     clip-path="url(#clip5300)" />
  <polyline
     id="polyline63"
     points="   1393.19,2960.04 1602.34,2960.04    "
     style="stroke:#000000; stroke-width:32; stroke-opacity:1; fill:none"
     clip-path="url(#clip5300)" />
  <path
     id="path65"
     fill-opacity="1"
     fill-rule="evenodd"
     fill="#000000"
     d="M 0 0 M1550.9 11561.4 Q1522.01 11561.4 1507.39 11589.9 Q1492.94 11618.2 1492.94 11675.3 Q1492.94 11732.1 1507.39 11760.6 Q1522.01 11789 1550.9 11789 Q1579.98 11789 1594.42 11760.6 Q1609.05 11732.1 1609.05 11675.3 Q1609.05 11618.2 1594.42 11589.9 Q1579.98 11561.4 1550.9 11561.4 M1550.9 11531.7 Q1597.38 11531.7 1621.83 11568.6 Q1646.46 11605.3 1646.46 11675.3 Q1646.46 11745.1 1621.83 11781.9 Q1597.38 11818.6 1550.9 11818.6 Q1504.42 11818.6 1479.79 11781.9 Q1455.35 11745.1 1455.35 11675.3 Q1455.35 11605.3 1479.79 11568.6 Q1504.42 11531.7 1550.9 11531.7 Z"
     clip-path="url(#clip5300)" />
  <path
     id="path67"
     fill-opacity="1"
     fill-rule="evenodd"
     fill="#000000"
     d="M 0 0 M4829.53 11781.7 L4890.64 11781.7 L4890.64 11570.8 L4824.16 11584.1 L4824.16 11550.1 L4890.27 11536.7 L4927.68 11536.7 L4927.68 11781.7 L4988.79 11781.7 L4988.79 11813.2 L4829.53 11813.2 L4829.53 11781.7 Z"
     clip-path="url(#clip5300)" />
  <path
     id="path69"
     fill-opacity="1"
     fill-rule="evenodd"
     fill="#000000"
     d="M 0 0 M8219.28 11781.7 L8349.83 11781.7 L8349.83 11813.2 L8174.28 11813.2 L8174.28 11781.7 Q8195.57 11759.7 8232.24 11722.7 Q8269.09 11685.4 8278.53 11674.7 Q8296.5 11654.5 8303.53 11640.6 Q8310.76 11626.5 8310.76 11613 Q8310.76 11591 8295.2 11577.1 Q8279.83 11563.2 8255.02 11563.2 Q8237.42 11563.2 8217.79 11569.3 Q8198.35 11575.4 8176.13 11587.8 L8176.13 11550.1 Q8198.72 11541 8218.35 11536.4 Q8237.98 11531.7 8254.28 11531.7 Q8297.24 11531.7 8322.79 11553.2 Q8348.35 11574.7 8348.35 11610.6 Q8348.35 11627.7 8341.87 11643 Q8335.57 11658.2 8318.72 11679 Q8314.09 11684.3 8289.28 11710.1 Q8264.46 11735.6 8219.28 11781.7 Z"
     clip-path="url(#clip5300)" />
  <path
     id="path71"
     fill-opacity="1"
     fill-rule="evenodd"
     fill="#000000"
     d="M 0 0 M11651.6 11664.1 Q11678.5 11669.9 11693.5 11688 Q11708.6 11706.2 11708.6 11732.8 Q11708.6 11773.8 11680.5 11796.2 Q11652.4 11818.6 11600.5 11818.6 Q11583.1 11818.6 11564.6 11815.1 Q11546.2 11811.7 11526.6 11804.9 L11526.6 11768.8 Q11542.2 11777.8 11560.7 11782.5 Q11579.2 11787.1 11599.4 11787.1 Q11634.6 11787.1 11652.9 11773.2 Q11671.4 11759.3 11671.4 11732.8 Q11671.4 11708.4 11654.2 11694.7 Q11637.2 11680.8 11606.6 11680.8 L11574.4 11680.8 L11574.4 11650.1 L11608.1 11650.1 Q11635.7 11650.1 11650.3 11639.1 Q11664.9 11628 11664.9 11607.3 Q11664.9 11586 11649.8 11574.7 Q11634.8 11563.2 11606.6 11563.2 Q11591.2 11563.2 11573.6 11566.5 Q11556.1 11569.9 11534.9 11576.9 L11534.9 11543.6 Q11556.2 11537.7 11574.8 11534.7 Q11593.5 11531.7 11609.9 11531.7 Q11652.5 11531.7 11677.3 11551.2 Q11702.2 11570.4 11702.2 11603.4 Q11702.2 11626.4 11689 11642.3 Q11675.9 11658 11651.6 11664.1 Z"
     clip-path="url(#clip5300)" />
  <path
     id="path73"
     fill-opacity="1"
     fill-rule="evenodd"
     fill="#000000"
     d="M 0 0 M14997.3 11569.3 L14902.8 11716.9 L14997.3 11716.9 L14997.3 11569.3 M14987.5 11536.7 L15034.5 11536.7 L15034.5 11716.9 L15073.9 11716.9 L15073.9 11748 L15034.5 11748 L15034.5 11813.2 L14997.3 11813.2 L14997.3 11748 L14872.5 11748 L14872.5 11711.9 L14987.5 11536.7 Z"
     clip-path="url(#clip5300)" />
  <path
     id="path75"
     fill-opacity="1"
     fill-rule="evenodd"
     fill="#000000"
     d="M 0 0 M18251 11536.7 L18397.9 11536.7 L18397.9 11568.2 L18285.3 11568.2 L18285.3 11636 Q18293.4 11633.2 18301.6 11631.9 Q18309.7 11630.4 18317.9 11630.4 Q18364.1 11630.4 18391.2 11655.8 Q18418.2 11681.2 18418.2 11724.5 Q18418.2 11769.1 18390.4 11794 Q18362.7 11818.6 18312.1 11818.6 Q18294.7 11818.6 18276.6 11815.6 Q18258.6 11812.7 18239.3 11806.7 L18239.3 11769.1 Q18256 11778.2 18273.8 11782.7 Q18291.6 11787.1 18311.4 11787.1 Q18343.4 11787.1 18362.1 11770.3 Q18380.8 11753.4 18380.8 11724.5 Q18380.8 11695.6 18362.1 11678.8 Q18343.4 11661.9 18311.4 11661.9 Q18296.4 11661.9 18281.4 11665.3 Q18266.6 11668.6 18251 11675.6 L18251 11536.7 Z"
     clip-path="url(#clip5300)" />
  <path
     id="path77"
     fill-opacity="1"
     fill-rule="evenodd"
     fill="#000000"
     d="M 0 0 M1105.64 10960.3 Q1076.75 10960.3 1062.12 10988.8 Q1047.67 11017.1 1047.67 11074.2 Q1047.67 11131 1062.12 11159.6 Q1076.75 11187.9 1105.64 11187.9 Q1134.71 11187.9 1149.15 11159.6 Q1163.78 11131 1163.78 11074.2 Q1163.78 11017.1 1149.15 10988.8 Q1134.71 10960.3 1105.64 10960.3 M1105.64 10930.7 Q1152.12 10930.7 1176.56 10967.5 Q1201.19 11004.2 1201.19 11074.2 Q1201.19 11144 1176.56 11180.8 Q1152.12 11217.5 1105.64 11217.5 Q1059.16 11217.5 1034.53 11180.8 Q1010.08 11144 1010.08 11074.2 Q1010.08 11004.2 1034.53 10967.5 Q1059.16 10930.7 1105.64 10930.7 Z"
     clip-path="url(#clip5300)" />
  <path
     id="path79"
     fill-opacity="1"
     fill-rule="evenodd"
     fill="#000000"
     d="M 0 0 M1041.93 8476.04 L1103.04 8476.04 L1103.04 8265.12 L1036.56 8278.45 L1036.56 8244.38 L1102.67 8231.04 L1140.08 8231.04 L1140.08 8476.04 L1201.19 8476.04 L1201.19 8507.52 L1041.93 8507.52 L1041.93 8476.04 Z"
     clip-path="url(#clip5300)" />
  <path
     id="path81"
     fill-opacity="1"
     fill-rule="evenodd"
     fill="#000000"
     d="M 0 0 M1070.64 5771.42 L1201.19 5771.42 L1201.19 5802.9 L1025.64 5802.9 L1025.64 5771.42 Q1046.93 5749.38 1083.6 5712.34 Q1120.45 5675.12 1129.9 5664.38 Q1147.86 5644.2 1154.9 5630.31 Q1162.12 5616.23 1162.12 5602.72 Q1162.12 5580.68 1146.56 5566.79 Q1131.19 5552.9 1106.38 5552.9 Q1088.78 5552.9 1069.16 5559.01 Q1049.71 5565.12 1027.49 5577.53 L1027.49 5539.75 Q1050.08 5530.68 1069.71 5526.05 Q1089.34 5521.42 1105.64 5521.42 Q1148.6 5521.42 1174.15 5542.9 Q1199.71 5564.38 1199.71 5600.31 Q1199.71 5617.35 1193.23 5632.72 Q1186.93 5647.9 1170.08 5668.64 Q1165.45 5674.01 1140.64 5699.75 Q1115.82 5725.31 1070.64 5771.42 Z"
     clip-path="url(#clip5300)" />
  <path
     id="path83"
     fill-opacity="1"
     fill-rule="evenodd"
     fill="#000000"
     d="M 0 0 M1144.15 2949.2 Q1171.01 2954.94 1186.01 2973.09 Q1201.19 2991.24 1201.19 3017.91 Q1201.19 3058.83 1173.04 3081.24 Q1144.9 3103.65 1093.04 3103.65 Q1075.64 3103.65 1057.12 3100.13 Q1038.78 3096.79 1019.16 3089.94 L1019.16 3053.83 Q1034.71 3062.91 1053.23 3067.54 Q1071.75 3072.17 1091.93 3072.17 Q1127.12 3072.17 1145.45 3058.28 Q1163.97 3044.39 1163.97 3017.91 Q1163.97 2993.46 1146.75 2979.76 Q1129.71 2965.87 1099.15 2965.87 L1066.93 2965.87 L1066.93 2935.13 L1100.64 2935.13 Q1128.23 2935.13 1142.86 2924.2 Q1157.49 2913.09 1157.49 2892.35 Q1157.49 2871.06 1142.3 2859.76 Q1127.3 2848.28 1099.15 2848.28 Q1083.78 2848.28 1066.19 2851.61 Q1048.6 2854.94 1027.49 2861.98 L1027.49 2828.65 Q1048.78 2822.72 1067.3 2819.76 Q1086.01 2816.8 1102.49 2816.8 Q1145.08 2816.8 1169.9 2836.24 Q1194.71 2855.5 1194.71 2888.46 Q1194.71 2911.43 1181.56 2927.35 Q1168.41 2943.09 1144.15 2949.2 Z"
     clip-path="url(#clip5300)" />
  <path
     id="path85"
     fill-opacity="1"
     fill-rule="evenodd"
     fill="#000000"
     d="M 0 0 M9946.82 12068.2 L10268.4 12068.2 L10268.4 12111.5 L10133.5 12111.5 L10133.5 12448.4 L10081.8 12448.4 L10081.8 12111.5 L9946.82 12111.5 L9946.82 12068.2 Z"
     clip-path="url(#clip5300)" />
  <path
     id="path87"
     fill-opacity="1"
     fill-rule="evenodd"
     fill="#000000"
     d="M 0 0 M353.156 5728.41 L407.391 5728.41 Q383.202 5754.38 371.234 5783.92 Q359.267 5813.2 359.267 5846.3 Q359.267 5911.49 399.243 5946.12 Q438.965 5980.75 514.335 5980.75 Q589.451 5980.75 629.427 5946.12 Q669.149 5911.49 669.149 5846.3 Q669.149 5813.2 657.182 5783.92 Q645.214 5754.38 621.024 5728.41 L674.751 5728.41 Q693.084 5755.4 702.251 5785.7 Q711.417 5815.75 711.417 5849.36 Q711.417 5935.68 658.709 5985.33 Q605.747 6034.98 514.335 6034.98 Q422.669 6034.98 369.961 5985.33 Q316.998 5935.68 316.998 5849.36 Q316.998 5815.24 326.165 5785.19 Q335.077 5754.89 353.156 5728.41 Z"
     clip-path="url(#clip5300)" />
  <polyline
     id="polyline89"
     points="   1886.46,11073.9 1927.67,11073.9 1968.88,11073.9 2010.09,11073.9 2051.3,11073.9 2092.5,11073.9 2133.71,11073.9 2174.92,11073.9 2216.13,11073.9 2257.34,11073.9    2298.55,11073.9 2339.76,11073.9 2380.97,11073.9 2422.18,11073.9 2463.38,11073.9 2504.59,11073.9 2545.8,11073.9 2587.01,11073.9 2628.22,11073.9 2669.43,11073.9    2710.64,11073.9 2751.85,11073.9 2793.05,11073.9 2834.26,11073.9 2875.47,11073.9 2916.68,11073.9 2957.89,11073.9 2999.1,11073.9 3040.31,11073.9 3081.52,11073.9    3122.73,11073.9 3163.93,11073.9 3205.14,11073.8 3246.35,11073.9 3287.56,11073.9 3328.77,11073.8 3369.98,11073.6 3411.19,11073.7 3452.4,11073.6 3493.6,11073.5    3534.81,11073.7 3576.02,11073.5 3617.23,11073.4 3658.44,11073.2 3699.65,11073.2 3740.86,11073.5 3782.07,11072.5 3823.28,11071.8 3864.48,11071.5 3905.69,11070.7    3946.9,11070.8 3988.11,11069.2 4029.32,11068.8 4070.53,11066.7 4111.74,11067.3 4152.95,11066.1 4194.15,11065.7 4235.36,11065.4 4276.57,11062.6 4317.78,11059.8    4358.99,11058.9 4400.2,11056 4441.41,11054.5 4482.62,11050.9 4523.82,11049.8 4565.03,11046.7 4606.24,11044.3 4647.45,11036.8 4688.66,11041 4729.87,11030.6    4771.08,11026.7 4812.29,11023.5 4853.5,11016.7 4894.7,11013.8 4935.91,11006.2 4977.12,10999.4 5018.33,11001.5 5059.54,10982.6 5100.75,10978.6 5141.96,10968.3    5183.17,10964.4 5224.37,10953.2 5265.58,10945 5306.79,10930.4 5348,10932.4 5389.21,10918 5430.42,10899.4 5471.63,10891.1 5512.84,10876.6 5554.05,10855.7    5595.25,10851.7 5636.46,10833.8 5677.67,10819.6 5718.88,10812 5760.09,10781.2 5801.3,10768.4 5842.51,10752.1 5883.72,10740.8 5924.92,10716.6 5966.13,10691.9    6007.34,10687.2 6048.55,10645.1 6089.76,10614.1 6130.97,10610 6172.18,10588.5 6213.39,10545 6254.6,10511.2 6295.8,10470.2 6337.01,10481.2 6378.22,10430.2    6419.43,10411.3 6460.64,10371.2 6501.85,10367 6543.06,10313 6584.27,10269 6625.47,10184.1 6666.68,10215.1 6707.89,10170.2 6749.1,10129.3 6790.31,10071.3    6831.52,10043.5 6872.73,9937.76 6913.94,9944.92 6955.15,9901.89 6996.35,9820.6 7037.56,9853.12 7078.77,9764.95 7119.98,9691.53 7161.19,9654.44 7202.4,9498.96    7243.61,9548.32 7284.82,9456.37 7326.02,9365.56 7367.23,9365.8 7408.44,9170.69 7449.65,9190.9 7490.86,9165.42 7532.07,9106.19 7573.28,8956.88 7614.49,8808.06    7655.69,8806.04 7696.9,8768.52 7738.11,8609.52 7779.32,8518.32 7820.53,8454.56 7861.74,8444.46 7902.95,8222.16 7944.16,8176.04 7985.37,8065.78 8026.57,7866.94    8067.78,7792.5 8108.99,7635.72 8150.2,7455.04 8191.41,7299.06 8232.62,7112.86 8273.83,7162.7 8315.04,7219.52 8356.24,6274.21 8397.45,6783.98 8438.66,6072.97    8479.87,5993.08 8521.08,5893.31 8562.29,5195.34 8603.5,5589.51 8644.71,5034.63 8685.92,5394.88 8727.12,4793.84 8768.33,4226.1 8809.54,4308.49 8850.75,4321.28    8891.96,3234.49 8933.17,3480.64 8974.38,2545.74 9015.59,2894.39 9056.79,2963.97 9098,2044.11 9139.21,2655.73 9180.42,2164.52 9221.63,1853.91 9262.84,689.485    9304.05,1667.94 9345.26,1197.44 9386.47,1191.16 9427.67,1570.17 9468.88,1799.04 9510.09,1876.97 9551.3,1958.42 9592.51,2023.51 9633.72,2268.5 9674.93,2229.02    9716.14,2223.37 9757.34,3007.76 9798.55,2987.44 9839.76,3017.61 9880.97,3757.68 9922.18,3881.02 9963.39,4289.55 10004.6,4001.43 10045.8,4444.69 10087,3975.68    10128.2,4990.24 10169.4,4943.38 10210.6,5346.08 10251.9,5610.55 10293.1,5605.41 10334.3,6040.65 10375.5,5899.69 10416.7,6231.1 10457.9,6072.23 10499.1,6101.88    10540.3,6345.89 10581.5,6026.24 10622.7,6484.29 10663.9,6434.18 10705.1,6284.37 10746.4,6699.01 10787.6,6918.84 10828.8,6717.89 10870,6755.75 10911.2,7077.25    10952.4,7298.54 10993.6,7147.88 11034.8,7325.5 11076,7442.27 11117.2,7293.3 11158.4,7329.43 11199.7,7389.82 11240.9,7407.87 11282.1,7441.39 11323.3,7548.09    11364.5,7573.76 11405.7,7546.01 11446.9,7726.41 11488.1,7616.15 11529.3,7659.02 11570.5,7762.92 11611.7,7865.05 11652.9,7838.74 11694.2,7866.83 11735.4,7847.4    11776.6,7853.25 11817.8,7845.89 11859,7995.83 11900.2,8115.21 11941.4,8086.32 11982.6,8094.7 12023.8,8157.97 12065,8174.28 12106.2,8184.76 12147.5,8177.27    12188.7,8253.17 12229.9,8148.95 12271.1,8200.4 12312.3,8326.96 12353.5,8281.49 12394.7,8333.11 12435.9,8323.02 12477.1,8350.35 12518.3,8332.78 12559.5,8420.52    12600.8,8441.64 12642,8420.99 12683.2,8507.36 12724.4,8596.38 12765.6,8489.18 12806.8,8559.87 12848,8609.75 12889.2,8564.27 12930.4,8619.05 12971.6,8599.71    13012.8,8644.75 13054,8619.9 13095.3,8578.31 13136.5,8680.33 13177.7,8643.91 13218.9,8711.42 13260.1,8648.62 13301.3,8744.19 13342.5,8749.58 13383.7,8793.85    13424.9,8810.31 13466.1,8805.09 13507.3,8834.16 13548.6,8843.64 13589.8,8847.82 13631,8849.73 13672.2,8915.62 13713.4,8893.61 13754.6,8907.41 13795.8,8887.24    13837,8923.99 13878.2,8940.71 13919.4,8904.55 13960.6,8957.17 14001.9,8951.02 14043.1,8942.59 14084.3,9002.74 14125.5,8997.02 14166.7,9000.2 14207.9,9052.03    14249.1,9025.97 14290.3,9044.63 14331.5,9057.91 14372.7,9085.18 14413.9,9032.57 14455.1,9110.39 14496.4,9137.65 14537.6,9121.86 14578.8,9109.32 14620,9120.93    14661.2,9163.14 14702.4,9156.89 14743.6,9128.25 14784.8,9136.95 14826,9203.06 14867.2,9209.35 14908.4,9180.7 14949.7,9199.24 14990.9,9248.65 15032.1,9245.35    15073.3,9256.64 15114.5,9282.99 15155.7,9259.78 15196.9,9272.55 15238.1,9278.1 15279.3,9312.18 15320.5,9294.25 15361.7,9305.7 15403,9335.96 15444.2,9309.13    15485.4,9349.15 15526.6,9322.44 15567.8,9345.81 15609,9341.61 15650.2,9337.14 15691.4,9389.7 15732.6,9356.79 15773.8,9373.15 15815,9395.05 15856.2,9413.14    15897.5,9404.23 15938.7,9425.15 15979.9,9409.31 16021.1,9449.58 16062.3,9445.36 16103.5,9461.87 16144.7,9425.98 16185.9,9471.12 16227.1,9464.8 16268.3,9466.55    16309.5,9467.77 16350.8,9474.61 16392,9512.11 16433.2,9501.89 16474.4,9530.14 16515.6,9518.62 16556.8,9503.84 16598,9529.94 16639.2,9527.81 16680.4,9526.22    16721.6,9512.94 16762.8,9549.67 16804.1,9568.85 16845.3,9550.81 16886.5,9598.29 16927.7,9552.68 16968.9,9572.02 17010.1,9604.43 17051.3,9579.2 17092.5,9575.97    17133.7,9601.63 17174.9,9594.92 17216.1,9598.23 17257.3,9630.65 17298.6,9597.05 17339.8,9634.97 17381,9648.48 17422.2,9612.86 17463.4,9649.46 17504.6,9657.06    17545.8,9628.25 17587,9678.21 17628.2,9679.21 17669.4,9691.15 17710.6,9661.13 17751.9,9695.16 17793.1,9677.76 17834.3,9694.12 17875.5,9683.74 17916.7,9691.08    17957.9,9727.51 17999.1,9706.26 18040.3,9731.21 18081.5,9730.18 18122.7,9739.39 18163.9,9735.43 18205.2,9753.07 18246.4,9764.16 18287.6,9748.47 18328.8,9766.94       "
     style="stroke:#009af9; stroke-width:48; stroke-opacity:1; fill:none"
     clip-path="url(#clip5302)" />
  <polyline
     transform="matrix(1,0,0,1.0317189,13.061224,-37.782254)"
     id="polyline91"
     points="   9386.47,1191.16 9386.47,11073.9    "
     style="fill:none;stroke:#0065ff;stroke-width:32;stroke-miterlimit:4;stroke-dasharray:128, 64, 32, 64;stroke-dashoffset:0;stroke-opacity:1"
     clip-path="url(#clip5302)" />
  <polyline
     transform="matrix(1,0,0,0.67955464,0,335.2211)"
     id="polyline95"
     points="   15920.9,2497.63 18246,2497.63 18246,1046.11 15920.9,1046.11 15920.9,2497.63    "
     style="fill:none;stroke:#000000;stroke-width:32;stroke-opacity:1"
     clip-path="url(#clip5300)" />
  <polyline
     id="polyline97"
     points="   16112.9,1529.95 17264.9,1529.95    "
     style="stroke:#009af9; stroke-width:48; stroke-opacity:1; fill:none"
     clip-path="url(#clip5300)" />
  <path
     id="path99"
     fill-opacity="1"
     fill-rule="evenodd"
     fill="#000000"
     d="M 0 0 M17679.8 1413.01 L17679.8 1452.45 Q17660.9 1434.86 17639.5 1426.16 Q17618.2 1417.45 17594.1 1417.45 Q17546.7 1417.45 17521.5 1446.53 Q17496.3 1475.42 17496.3 1530.23 Q17496.3 1584.86 17521.5 1613.93 Q17546.7 1642.82 17594.1 1642.82 Q17618.2 1642.82 17639.5 1634.12 Q17660.9 1625.42 17679.8 1607.82 L17679.8 1646.9 Q17660.2 1660.23 17638.2 1666.9 Q17616.3 1673.56 17591.9 1673.56 Q17529.1 1673.56 17493 1635.23 Q17456.9 1596.71 17456.9 1530.23 Q17456.9 1463.56 17493 1425.23 Q17529.1 1386.71 17591.9 1386.71 Q17616.7 1386.71 17638.5 1393.38 Q17660.6 1399.86 17679.8 1413.01 Z"
     clip-path="url(#clip5300)" />
  <circle
     r="156.7347"
     cy="1201.6327"
     cx="9396.0811"
     id="path938"
     style="fill:#ff9955;fill-opacity:0.819277;stroke:none;stroke-width:32;stroke-miterlimit:4;stroke-dasharray:128, 64, 32, 64;stroke-dashoffset:0;stroke-opacity:1" />
  <text
     id="text942"
     y="11820.734"
     x="9064.4893"
     style="font-style:normal;font-weight:normal;font-size:384px;line-height:1.25;font-family:sans-serif;fill:#000000;fill-opacity:1;stroke:none;stroke-width:4"
     xml:space="preserve"><tspan
       style="font-size:384px;stroke-width:4"
       y="11820.734"
       x="9064.4893"
       id="tspan940"
       sodipodi:role="line">2.34</tspan></text>
</svg>
