<?xml version="1.0" encoding="UTF-8" standalone="no"?>
<svg
   xmlns:dc="http://purl.org/dc/elements/1.1/"
   xmlns:cc="http://creativecommons.org/ns#"
   xmlns:rdf="http://www.w3.org/1999/02/22-rdf-syntax-ns#"
   xmlns:svg="http://www.w3.org/2000/svg"
   xmlns="http://www.w3.org/2000/svg"
   xmlns:sodipodi="http://sodipodi.sourceforge.net/DTD/sodipodi-0.dtd"
   xmlns:inkscape="http://www.inkscape.org/namespaces/inkscape"
   width="4800"
   height="3200"
   viewBox="0 0 19200 12800"
   version="1.1"
   id="svg107"
   sodipodi:docname="C_8.svg"
   inkscape:version="1.0 (4035a4fb49, 2020-05-01)">
  <metadata
     id="metadata111">
    <rdf:RDF>
      <cc:Work
         rdf:about="">
        <dc:format>image/svg+xml</dc:format>
        <dc:type
           rdf:resource="http://purl.org/dc/dcmitype/StillImage" />
      </cc:Work>
    </rdf:RDF>
  </metadata>
  <sodipodi:namedview
     inkscape:document-rotation="0"
     pagecolor="#ffffff"
     bordercolor="#666666"
     borderopacity="1"
     objecttolerance="10"
     gridtolerance="10"
     guidetolerance="10"
     inkscape:pageopacity="0"
     inkscape:pageshadow="2"
     inkscape:window-width="1280"
     inkscape:window-height="658"
     id="namedview109"
     showgrid="false"
     inkscape:zoom="0.153125"
     inkscape:cx="2400"
     inkscape:cy="1600"
     inkscape:window-x="-6"
     inkscape:window-y="-6"
     inkscape:window-maximized="1"
     inkscape:current-layer="svg107" />
  <defs
     id="defs5">
    <clipPath
       id="clip0900">
      <rect
         x="0"
         y="0"
         width="19200"
         height="12800"
         id="rect2" />
    </clipPath>
  </defs>
  <path
     clip-path="url(#clip0900)"
     d=" M0 12800 L19200 12800 L19200 0 L0 0  Z   "
     fill="#ffffff"
     fill-rule="evenodd"
     fill-opacity="1"
     id="path7" />
  <defs
     id="defs12">
    <clipPath
       id="clip0901">
      <rect
         x="3840"
         y="0"
         width="13441"
         height="12800"
         id="rect9" />
    </clipPath>
  </defs>
  <path
     clip-path="url(#clip0900)"
     d=" M1393.19 11385.4 L18822 11385.4 L18822 377.953 L1393.19 377.953  Z   "
     fill="#ffffff"
     fill-rule="evenodd"
     fill-opacity="1"
     id="path14" />
  <defs
     id="defs19">
    <clipPath
       id="clip0902">
      <rect
         x="1393"
         y="377"
         width="17430"
         height="11008"
         id="rect16" />
    </clipPath>
  </defs>
  <polyline
     clip-path="url(#clip0902)"
     style="stroke:#000000; stroke-width:16; stroke-opacity:0.1; fill:none"
     points="   1550.9,11385.4 1550.9,377.953    "
     id="polyline21" />
  <polyline
     clip-path="url(#clip0902)"
     style="stroke:#000000; stroke-width:16; stroke-opacity:0.1; fill:none"
     points="   4906.48,11385.4 4906.48,377.953    "
     id="polyline23" />
  <polyline
     clip-path="url(#clip0902)"
     style="stroke:#000000; stroke-width:16; stroke-opacity:0.1; fill:none"
     points="   8262.05,11385.4 8262.05,377.953    "
     id="polyline25" />
  <polyline
     clip-path="url(#clip0902)"
     style="stroke:#000000; stroke-width:16; stroke-opacity:0.1; fill:none"
     points="   11617.6,11385.4 11617.6,377.953    "
     id="polyline27" />
  <polyline
     clip-path="url(#clip0902)"
     style="stroke:#000000; stroke-width:16; stroke-opacity:0.1; fill:none"
     points="   14973.2,11385.4 14973.2,377.953    "
     id="polyline29" />
  <polyline
     clip-path="url(#clip0902)"
     style="stroke:#000000; stroke-width:16; stroke-opacity:0.1; fill:none"
     points="   18328.8,11385.4 18328.8,377.953    "
     id="polyline31" />
  <polyline
     clip-path="url(#clip0902)"
     style="stroke:#000000; stroke-width:16; stroke-opacity:0.1; fill:none"
     points="   1393.19,11073.9 18822,11073.9    "
     id="polyline33" />
  <polyline
     clip-path="url(#clip0902)"
     style="stroke:#000000; stroke-width:16; stroke-opacity:0.1; fill:none"
     points="   1393.19,7531.1 18822,7531.1    "
     id="polyline35" />
  <polyline
     clip-path="url(#clip0902)"
     style="stroke:#000000; stroke-width:16; stroke-opacity:0.1; fill:none"
     points="   1393.19,3988.3 18822,3988.3    "
     id="polyline37" />
  <polyline
     clip-path="url(#clip0902)"
     style="stroke:#000000; stroke-width:16; stroke-opacity:0.1; fill:none"
     points="   1393.19,445.491 18822,445.491    "
     id="polyline39" />
  <polyline
     clip-path="url(#clip0900)"
     style="stroke:#000000; stroke-width:32; stroke-opacity:1; fill:none"
     points="   1393.19,11385.4 18822,11385.4    "
     id="polyline41" />
  <polyline
     clip-path="url(#clip0900)"
     style="stroke:#000000; stroke-width:32; stroke-opacity:1; fill:none"
     points="   1393.19,11385.4 1393.19,377.953    "
     id="polyline43" />
  <polyline
     clip-path="url(#clip0900)"
     style="stroke:#000000; stroke-width:32; stroke-opacity:1; fill:none"
     points="   1550.9,11385.4 1550.9,11253.3    "
     id="polyline45" />
  <polyline
     clip-path="url(#clip0900)"
     style="stroke:#000000; stroke-width:32; stroke-opacity:1; fill:none"
     points="   4906.48,11385.4 4906.48,11253.3    "
     id="polyline47" />
  <polyline
     clip-path="url(#clip0900)"
     style="stroke:#000000; stroke-width:32; stroke-opacity:1; fill:none"
     points="   8262.05,11385.4 8262.05,11253.3    "
     id="polyline49" />
  <polyline
     clip-path="url(#clip0900)"
     style="stroke:#000000; stroke-width:32; stroke-opacity:1; fill:none"
     points="   11617.6,11385.4 11617.6,11253.3    "
     id="polyline51" />
  <polyline
     clip-path="url(#clip0900)"
     style="stroke:#000000; stroke-width:32; stroke-opacity:1; fill:none"
     points="   14973.2,11385.4 14973.2,11253.3    "
     id="polyline53" />
  <polyline
     clip-path="url(#clip0900)"
     style="stroke:#000000; stroke-width:32; stroke-opacity:1; fill:none"
     points="   18328.8,11385.4 18328.8,11253.3    "
     id="polyline55" />
  <polyline
     clip-path="url(#clip0900)"
     style="stroke:#000000; stroke-width:32; stroke-opacity:1; fill:none"
     points="   1393.19,11073.9 1602.34,11073.9    "
     id="polyline57" />
  <polyline
     clip-path="url(#clip0900)"
     style="stroke:#000000; stroke-width:32; stroke-opacity:1; fill:none"
     points="   1393.19,7531.1 1602.34,7531.1    "
     id="polyline59" />
  <polyline
     clip-path="url(#clip0900)"
     style="stroke:#000000; stroke-width:32; stroke-opacity:1; fill:none"
     points="   1393.19,3988.3 1602.34,3988.3    "
     id="polyline61" />
  <polyline
     clip-path="url(#clip0900)"
     style="stroke:#000000; stroke-width:32; stroke-opacity:1; fill:none"
     points="   1393.19,445.491 1602.34,445.491    "
     id="polyline63" />
  <path
     clip-path="url(#clip0900)"
     d="M 0 0 M1550.9 11561.4 Q1522.01 11561.4 1507.39 11589.9 Q1492.94 11618.2 1492.94 11675.3 Q1492.94 11732.1 1507.39 11760.6 Q1522.01 11789 1550.9 11789 Q1579.98 11789 1594.42 11760.6 Q1609.05 11732.1 1609.05 11675.3 Q1609.05 11618.2 1594.42 11589.9 Q1579.98 11561.4 1550.9 11561.4 M1550.9 11531.7 Q1597.38 11531.7 1621.83 11568.6 Q1646.46 11605.3 1646.46 11675.3 Q1646.46 11745.1 1621.83 11781.9 Q1597.38 11818.6 1550.9 11818.6 Q1504.42 11818.6 1479.79 11781.9 Q1455.35 11745.1 1455.35 11675.3 Q1455.35 11605.3 1479.79 11568.6 Q1504.42 11531.7 1550.9 11531.7 Z"
     fill="#000000"
     fill-rule="evenodd"
     fill-opacity="1"
     id="path65" />
  <path
     clip-path="url(#clip0900)"
     d="M 0 0 M4829.53 11781.7 L4890.64 11781.7 L4890.64 11570.8 L4824.16 11584.1 L4824.16 11550.1 L4890.27 11536.7 L4927.68 11536.7 L4927.68 11781.7 L4988.79 11781.7 L4988.79 11813.2 L4829.53 11813.2 L4829.53 11781.7 Z"
     fill="#000000"
     fill-rule="evenodd"
     fill-opacity="1"
     id="path67" />
  <path
     clip-path="url(#clip0900)"
     d="M 0 0 M8219.28 11781.7 L8349.83 11781.7 L8349.83 11813.2 L8174.28 11813.2 L8174.28 11781.7 Q8195.57 11759.7 8232.24 11722.7 Q8269.09 11685.4 8278.53 11674.7 Q8296.5 11654.5 8303.53 11640.6 Q8310.76 11626.5 8310.76 11613 Q8310.76 11591 8295.2 11577.1 Q8279.83 11563.2 8255.02 11563.2 Q8237.42 11563.2 8217.79 11569.3 Q8198.35 11575.4 8176.13 11587.8 L8176.13 11550.1 Q8198.72 11541 8218.35 11536.4 Q8237.98 11531.7 8254.28 11531.7 Q8297.24 11531.7 8322.79 11553.2 Q8348.35 11574.7 8348.35 11610.6 Q8348.35 11627.7 8341.87 11643 Q8335.57 11658.2 8318.72 11679 Q8314.09 11684.3 8289.28 11710.1 Q8264.46 11735.6 8219.28 11781.7 Z"
     fill="#000000"
     fill-rule="evenodd"
     fill-opacity="1"
     id="path69" />
  <path
     clip-path="url(#clip0900)"
     d="M 0 0 M11651.6 11664.1 Q11678.5 11669.9 11693.5 11688 Q11708.6 11706.2 11708.6 11732.8 Q11708.6 11773.8 11680.5 11796.2 Q11652.4 11818.6 11600.5 11818.6 Q11583.1 11818.6 11564.6 11815.1 Q11546.2 11811.7 11526.6 11804.9 L11526.6 11768.8 Q11542.2 11777.8 11560.7 11782.5 Q11579.2 11787.1 11599.4 11787.1 Q11634.6 11787.1 11652.9 11773.2 Q11671.4 11759.3 11671.4 11732.8 Q11671.4 11708.4 11654.2 11694.7 Q11637.2 11680.8 11606.6 11680.8 L11574.4 11680.8 L11574.4 11650.1 L11608.1 11650.1 Q11635.7 11650.1 11650.3 11639.1 Q11664.9 11628 11664.9 11607.3 Q11664.9 11586 11649.8 11574.7 Q11634.8 11563.2 11606.6 11563.2 Q11591.2 11563.2 11573.6 11566.5 Q11556.1 11569.9 11534.9 11576.9 L11534.9 11543.6 Q11556.2 11537.7 11574.8 11534.7 Q11593.5 11531.7 11609.9 11531.7 Q11652.5 11531.7 11677.3 11551.2 Q11702.2 11570.4 11702.2 11603.4 Q11702.2 11626.4 11689 11642.3 Q11675.9 11658 11651.6 11664.1 Z"
     fill="#000000"
     fill-rule="evenodd"
     fill-opacity="1"
     id="path71" />
  <path
     clip-path="url(#clip0900)"
     d="M 0 0 M14997.3 11569.3 L14902.8 11716.9 L14997.3 11716.9 L14997.3 11569.3 M14987.5 11536.7 L15034.5 11536.7 L15034.5 11716.9 L15073.9 11716.9 L15073.9 11748 L15034.5 11748 L15034.5 11813.2 L14997.3 11813.2 L14997.3 11748 L14872.5 11748 L14872.5 11711.9 L14987.5 11536.7 Z"
     fill="#000000"
     fill-rule="evenodd"
     fill-opacity="1"
     id="path73" />
  <path
     clip-path="url(#clip0900)"
     d="M 0 0 M18251 11536.7 L18397.9 11536.7 L18397.9 11568.2 L18285.3 11568.2 L18285.3 11636 Q18293.4 11633.2 18301.6 11631.9 Q18309.7 11630.4 18317.9 11630.4 Q18364.1 11630.4 18391.2 11655.8 Q18418.2 11681.2 18418.2 11724.5 Q18418.2 11769.1 18390.4 11794 Q18362.7 11818.6 18312.1 11818.6 Q18294.7 11818.6 18276.6 11815.6 Q18258.6 11812.7 18239.3 11806.7 L18239.3 11769.1 Q18256 11778.2 18273.8 11782.7 Q18291.6 11787.1 18311.4 11787.1 Q18343.4 11787.1 18362.1 11770.3 Q18380.8 11753.4 18380.8 11724.5 Q18380.8 11695.6 18362.1 11678.8 Q18343.4 11661.9 18311.4 11661.9 Q18296.4 11661.9 18281.4 11665.3 Q18266.6 11668.6 18251 11675.6 L18251 11536.7 Z"
     fill="#000000"
     fill-rule="evenodd"
     fill-opacity="1"
     id="path75" />
  <path
     clip-path="url(#clip0900)"
     d="M 0 0 M1105.64 10960.3 Q1076.75 10960.3 1062.12 10988.8 Q1047.67 11017.1 1047.67 11074.2 Q1047.67 11131 1062.12 11159.6 Q1076.75 11187.9 1105.64 11187.9 Q1134.71 11187.9 1149.15 11159.6 Q1163.78 11131 1163.78 11074.2 Q1163.78 11017.1 1149.15 10988.8 Q1134.71 10960.3 1105.64 10960.3 M1105.64 10930.7 Q1152.12 10930.7 1176.56 10967.5 Q1201.19 11004.2 1201.19 11074.2 Q1201.19 11144 1176.56 11180.8 Q1152.12 11217.5 1105.64 11217.5 Q1059.16 11217.5 1034.53 11180.8 Q1010.08 11144 1010.08 11074.2 Q1010.08 11004.2 1034.53 10967.5 Q1059.16 10930.7 1105.64 10930.7 Z"
     fill="#000000"
     fill-rule="evenodd"
     fill-opacity="1"
     id="path77" />
  <path
     clip-path="url(#clip0900)"
     d="M 0 0 M1041.93 7637.86 L1103.04 7637.86 L1103.04 7426.94 L1036.56 7440.27 L1036.56 7406.19 L1102.67 7392.86 L1140.08 7392.86 L1140.08 7637.86 L1201.19 7637.86 L1201.19 7669.34 L1041.93 7669.34 L1041.93 7637.86 Z"
     fill="#000000"
     fill-rule="evenodd"
     fill-opacity="1"
     id="path79" />
  <path
     clip-path="url(#clip0900)"
     d="M 0 0 M1070.64 4095.05 L1201.19 4095.05 L1201.19 4126.54 L1025.64 4126.54 L1025.64 4095.05 Q1046.93 4073.02 1083.6 4035.98 Q1120.45 3998.76 1129.9 3988.02 Q1147.86 3967.83 1154.9 3953.94 Q1162.12 3939.87 1162.12 3926.35 Q1162.12 3904.32 1146.56 3890.43 Q1131.19 3876.54 1106.38 3876.54 Q1088.78 3876.54 1069.16 3882.65 Q1049.71 3888.76 1027.49 3901.17 L1027.49 3863.39 Q1050.08 3854.32 1069.71 3849.69 Q1089.34 3845.06 1105.64 3845.06 Q1148.6 3845.06 1174.15 3866.54 Q1199.71 3888.02 1199.71 3923.94 Q1199.71 3940.98 1193.23 3956.35 Q1186.93 3971.54 1170.08 3992.28 Q1165.45 3997.65 1140.64 4023.39 Q1115.82 4048.94 1070.64 4095.05 Z"
     fill="#000000"
     fill-rule="evenodd"
     fill-opacity="1"
     id="path81" />
  <path
     clip-path="url(#clip0900)"
     d="M 0 0 M1144.15 434.658 Q1171.01 440.399 1186.01 458.547 Q1201.19 476.695 1201.19 503.361 Q1201.19 544.287 1173.04 566.694 Q1144.9 589.102 1093.04 589.102 Q1075.64 589.102 1057.12 585.583 Q1038.78 582.25 1019.16 575.398 L1019.16 539.287 Q1034.71 548.361 1053.23 552.991 Q1071.75 557.62 1091.93 557.62 Q1127.12 557.62 1145.45 543.732 Q1163.97 529.843 1163.97 503.361 Q1163.97 478.917 1146.75 465.213 Q1129.71 451.325 1099.15 451.325 L1066.93 451.325 L1066.93 420.584 L1100.64 420.584 Q1128.23 420.584 1142.86 409.658 Q1157.49 398.547 1157.49 377.806 Q1157.49 356.51 1142.3 345.214 Q1127.3 333.733 1099.15 333.733 Q1083.78 333.733 1066.19 337.066 Q1048.6 340.399 1027.49 347.436 L1027.49 314.103 Q1048.78 308.177 1067.3 305.214 Q1086.01 302.251 1102.49 302.251 Q1145.08 302.251 1169.9 321.696 Q1194.71 340.955 1194.71 373.918 Q1194.71 396.88 1181.56 412.806 Q1168.41 428.547 1144.15 434.658 Z"
     fill="#000000"
     fill-rule="evenodd"
     fill-opacity="1"
     id="path83" />
  <path
     clip-path="url(#clip0900)"
     d="M 0 0 M9946.82 12068.2 L10268.4 12068.2 L10268.4 12111.5 L10133.5 12111.5 L10133.5 12448.4 L10081.8 12448.4 L10081.8 12111.5 L9946.82 12111.5 L9946.82 12068.2 Z"
     fill="#000000"
     fill-rule="evenodd"
     fill-opacity="1"
     id="path85" />
  <path
     clip-path="url(#clip0900)"
     d="M 0 0 M353.156 5728.41 L407.391 5728.41 Q383.202 5754.38 371.234 5783.92 Q359.267 5813.2 359.267 5846.3 Q359.267 5911.49 399.243 5946.12 Q438.965 5980.75 514.335 5980.75 Q589.451 5980.75 629.427 5946.12 Q669.149 5911.49 669.149 5846.3 Q669.149 5813.2 657.182 5783.92 Q645.214 5754.38 621.024 5728.41 L674.751 5728.41 Q693.084 5755.4 702.251 5785.7 Q711.417 5815.75 711.417 5849.36 Q711.417 5935.68 658.709 5985.33 Q605.747 6034.98 514.335 6034.98 Q422.669 6034.98 369.961 5985.33 Q316.998 5935.68 316.998 5849.36 Q316.998 5815.24 326.165 5785.19 Q335.077 5754.89 353.156 5728.41 Z"
     fill="#000000"
     fill-rule="evenodd"
     fill-opacity="1"
     id="path87" />
  <polyline
     clip-path="url(#clip0902)"
     style="stroke:#009af9; stroke-width:48; stroke-opacity:1; fill:none"
     points="   1886.46,11073.9 1927.67,11073.9 1968.88,11073.9 2010.09,11073.9 2051.3,11073.9 2092.5,11073.9 2133.71,11073.9 2174.92,11073.9 2216.13,11073.9 2257.34,11073.9    2298.55,11073.9 2339.76,11073.9 2380.97,11073.9 2422.18,11073.9 2463.38,11073.9 2504.59,11073.9 2545.8,11073.9 2587.01,11073.9 2628.22,11073.9 2669.43,11073.9    2710.64,11073.9 2751.85,11073.9 2793.05,11073.9 2834.26,11073.9 2875.47,11073.9 2916.68,11073.9 2957.89,11073.9 2999.1,11073.9 3040.31,11073.9 3081.52,11073.9    3122.73,11073.9 3163.93,11073.9 3205.14,11073.9 3246.35,11073.9 3287.56,11073.9 3328.77,11073.7 3369.98,11073.9 3411.19,11073.9 3452.4,11073.6 3493.6,11073.9    3534.81,11073.1 3576.02,11073.2 3617.23,11072.2 3658.44,11073.6 3699.65,11072.6 3740.86,11072 3782.07,11072.6 3823.28,11072.6 3864.48,11069.7 3905.69,11073.8    3946.9,11068 3988.11,11072.1 4029.32,11067.3 4070.53,11064.5 4111.74,11061.3 4152.95,11063 4194.15,11064.6 4235.36,11063.5 4276.57,11054.9 4317.78,11058.9    4358.99,11059.2 4400.2,11056.2 4441.41,11036.6 4482.62,11038.8 4523.82,11041.9 4565.03,11042.3 4606.24,11034.1 4647.45,11023.5 4688.66,11025.2 4729.87,11025.3    4771.08,11009.3 4812.29,11003.6 4853.5,10993.3 4894.7,10983.8 4935.91,10978.8 4977.12,10973.3 5018.33,10978.7 5059.54,10959.9 5100.75,10961.5 5141.96,10937.2    5183.17,10923.2 5224.37,10914.3 5265.58,10888.7 5306.79,10893.6 5348,10873.3 5389.21,10847.1 5430.42,10850.7 5471.63,10827.3 5512.84,10820.2 5554.05,10793.8    5595.25,10772.2 5636.46,10749.4 5677.67,10721.2 5718.88,10696.5 5760.09,10739.3 5801.3,10680.1 5842.51,10651.1 5883.72,10648.3 5924.92,10577.2 5966.13,10561.3    6007.34,10560 6048.55,10503.3 6089.76,10468.1 6130.97,10490.8 6172.18,10421.5 6213.39,10404.8 6254.6,10402.3 6295.8,10327.7 6337.01,10239.4 6378.22,10260.7    6419.43,10192 6460.64,10165.4 6501.85,10141 6543.06,10049.1 6584.27,10033.1 6625.47,10053.8 6666.68,9953.53 6707.89,9882.55 6749.1,9793.35 6790.31,9712.32    6831.52,9747.74 6872.73,9627.52 6913.94,9591.86 6955.15,9569.06 6996.35,9498.2 7037.56,9472.64 7078.77,9068.95 7119.98,9206.66 7161.19,9279.28 7202.4,9061.59    7243.61,9033.52 7284.82,8950.59 7326.02,8709.28 7367.23,8772.27 7408.44,8700.38 7449.65,8626.93 7490.86,8493 7532.07,8394.59 7573.28,8264.94 7614.49,8256.97    7655.69,8229.15 7696.9,7915.72 7738.11,7948.31 7779.32,8088.73 7820.53,7517.77 7861.74,7358.24 7902.95,7747.98 7944.16,7233.19 7985.37,6831.28 8026.57,6697.26    8067.78,6439.01 8108.99,6849.66 8150.2,6331.69 8191.41,5894.45 8232.62,6069.37 8273.83,6343.6 8315.04,5423.79 8356.24,5683.69 8397.45,5568.89 8438.66,5292    8479.87,5311.97 8521.08,4762.99 8562.29,4877.02 8603.5,4027 8644.71,4386.86 8685.92,3386.11 8727.12,3939.51 8768.33,3815.33 8809.54,3258.43 8850.75,3504.91    8891.96,2910.01 8933.17,2675.57 8974.38,2689.35 9015.59,3024.1 9056.79,2764.56 9098,2174.57 9139.21,1415.07 9180.42,1407.87 9221.63,1492.81 9262.84,1919.22    9304.05,1414.17 9345.26,1263.29 9386.47,1253.24 9427.67,1163.81 9468.88,1003.97 9510.09,1243.68 9551.3,929.734 9592.51,963.596 9633.72,715.094 9674.93,689.485    9716.14,890.897 9757.34,1137.68 9798.55,916.134 9839.76,1141.75 9880.97,1148.01 9922.18,1180.3 9963.39,1436.94 10004.6,1371.73 10045.8,1367.66 10087,1756.36    10128.2,1661.83 10169.4,1395.34 10210.6,1928.41 10251.9,2212.99 10293.1,2377.81 10334.3,2347.04 10375.5,2194.09 10416.7,2450.96 10457.9,2843.42 10499.1,3135.34    10540.3,2593.12 10581.5,3441.91 10622.7,3456.24 10663.9,3846.01 10705.1,3343.54 10746.4,4156.92 10787.6,3478.66 10828.8,4117.75 10870,4276.86 10911.2,4333.34    10952.4,4402.34 10993.6,4380.04 11034.8,4695.95 11076,4629.42 11117.2,4590.2 11158.4,4704.41 11199.7,5140.53 11240.9,5028.25 11282.1,4857.29 11323.3,5379.02    11364.5,5619.57 11405.7,5254.74 11446.9,5711.4 11488.1,5475.86 11529.3,5930.27 11570.5,5952.38 11611.7,6011.87 11652.9,6074.22 11694.2,6088.06 11735.4,6205.92    11776.6,6172.21 11817.8,6378.61 11859,6365.99 11900.2,6170.63 11941.4,6484.74 11982.6,6475.57 12023.8,6734.7 12065,6523.61 12106.2,6740.47 12147.5,6722.08    12188.7,6822.17 12229.9,6920.55 12271.1,6835.01 12312.3,7107.9 12353.5,7014.46 12394.7,7201.05 12435.9,7142.2 12477.1,7179.08 12518.3,7199.9 12559.5,7289.02    12600.8,7172.66 12642,7428.62 12683.2,7360.24 12724.4,7232.63 12765.6,7388.93 12806.8,7611.46 12848,7381.03 12889.2,7476.58 12930.4,7525.68 12971.6,7517.39    13012.8,7674.96 13054,7664.72 13095.3,7660.76 13136.5,7677.95 13177.7,7771.85 13218.9,7788.3 13260.1,7826.4 13301.3,7980.84 13342.5,7759.48 13383.7,7861.06    13424.9,7894.85 13466.1,7977.89 13507.3,7998.44 13548.6,8001.31 13589.8,7916.61 13631,8100.49 13672.2,8056.62 13713.4,8142.79 13754.6,8113.4 13795.8,8096.08    13837,8163.47 13878.2,8153.18 13919.4,8249.76 13960.6,8117.13 14001.9,8228.38 14043.1,8163.62 14084.3,8139.39 14125.5,8267.7 14166.7,8246.56 14207.9,8301.41    14249.1,8399.77 14290.3,8376.82 14331.5,8439.28 14372.7,8407.34 14413.9,8380.17 14455.1,8401.65 14496.4,8418.1 14537.6,8438.49 14578.8,8451.91 14620,8494.3    14661.2,8400.75 14702.4,8463.32 14743.6,8536.54 14784.8,8489.75 14826,8453.13 14867.2,8546.58 14908.4,8588.16 14949.7,8576.69 14990.9,8629.97 15032.1,8612.13    15073.3,8676.85 15114.5,8662.45 15155.7,8692.63 15196.9,8634.69 15238.1,8697.44 15279.3,8720.88 15320.5,8686.46 15361.7,8697.84 15403,8752.34 15444.2,8725.95    15485.4,8705.22 15526.6,8755.51 15567.8,8792.19 15609,8796.99 15650.2,8819.53 15691.4,8867.42 15732.6,8782.66 15773.8,8868.47 15815,8852.65 15856.2,8845.24    15897.5,8873.41 15938.7,8915.55 15979.9,8908.59 16021.1,8963.67 16062.3,8919.81 16103.5,8926.79 16144.7,8978.97 16185.9,8974.59 16227.1,8926.92 16268.3,8954.59    16309.5,8983.44 16350.8,8980.33 16392,9012.93 16433.2,9037.3 16474.4,9042.47 16515.6,8995.31 16556.8,9013.79 16598,9048.67 16639.2,9039.15 16680.4,9037.99    16721.6,9066.3 16762.8,9076.13 16804.1,9102.58 16845.3,9051.24 16886.5,9118.23 16927.7,9112.75 16968.9,9129.38 17010.1,9130.78 17051.3,9106.19 17092.5,9103.79    17133.7,9136.15 17174.9,9130.46 17216.1,9116.25 17257.3,9152.8 17298.6,9138 17339.8,9188.92 17381,9190.63 17422.2,9202.99 17463.4,9240.49 17504.6,9204.94    17545.8,9205.89 17587,9243.72 17628.2,9214.73 17669.4,9245.84 17710.6,9248.12 17751.9,9277.94 17793.1,9238.11 17834.3,9247.48 17875.5,9276.55 17916.7,9300.38    17957.9,9256.63 17999.1,9277.47 18040.3,9325.05 18081.5,9301.96 18122.7,9312.59 18163.9,9304.42 18205.2,9353.36 18246.4,9304.79 18287.6,9329.62 18328.8,9326.91       "
     id="polyline89" />
  <polyline
     clip-path="url(#clip0902)"
     style="fill:none;stroke:#0077ff;stroke-width:32;stroke-miterlimit:4;stroke-dasharray:128, 64, 32, 64;stroke-dashoffset:0;stroke-opacity:1"
     points="   9674.93,689.485 9674.93,11073.9    "
     id="polyline91"
     transform="matrix(1,0,0,1.0301865,0,-20.813155)" />
  <polyline
     clip-path="url(#clip0900)"
     style="fill:none;stroke:#000000;stroke-width:32;stroke-opacity:1"
     points="   15920.9,2497.63 18246,2497.63 18246,1046.11 15920.9,1046.11 15920.9,2497.63    "
     id="polyline95"
     transform="matrix(1,0,0,0.69735716,0,316.59771)" />
  <polyline
     clip-path="url(#clip0900)"
     style="stroke:#009af9; stroke-width:48; stroke-opacity:1; fill:none"
     points="   16112.9,1529.95 17264.9,1529.95    "
     id="polyline97" />
  <path
     clip-path="url(#clip0900)"
     d="M 0 0 M17679.8 1413.01 L17679.8 1452.45 Q17660.9 1434.86 17639.5 1426.16 Q17618.2 1417.45 17594.1 1417.45 Q17546.7 1417.45 17521.5 1446.53 Q17496.3 1475.42 17496.3 1530.23 Q17496.3 1584.86 17521.5 1613.93 Q17546.7 1642.82 17594.1 1642.82 Q17618.2 1642.82 17639.5 1634.12 Q17660.9 1625.42 17679.8 1607.82 L17679.8 1646.9 Q17660.2 1660.23 17638.2 1666.9 Q17616.3 1673.56 17591.9 1673.56 Q17529.1 1673.56 17493 1635.23 Q17456.9 1596.71 17456.9 1530.23 Q17456.9 1463.56 17493 1425.23 Q17529.1 1386.71 17591.9 1386.71 Q17616.7 1386.71 17638.5 1393.38 Q17660.6 1399.86 17679.8 1413.01 Z"
     fill="#000000"
     fill-rule="evenodd"
     fill-opacity="1"
     id="path99" />
  <ellipse
     style="fill:#ff9955;fill-opacity:0.819277;stroke:none;stroke-width:32;stroke-miterlimit:4;stroke-dasharray:128, 64, 32, 64;stroke-dashoffset:0;stroke-opacity:1"
     id="path938"
     cx="9678.3672"
     cy="705.30615"
     rx="169.79591"
     ry="182.85715" />
  <text
     xml:space="preserve"
     style="font-style:normal;font-weight:normal;font-size:384px;line-height:1.25;font-family:sans-serif;fill:#000000;fill-opacity:1;stroke:none;stroke-width:4"
     x="9310.2041"
     y="11822.857"
     id="text942"><tspan
       sodipodi:role="line"
       id="tspan940"
       x="9310.2041"
       y="11822.857"
       style="font-size:384px;stroke-width:4">2.42</tspan></text>
</svg>
