<?xml version="1.0" encoding="UTF-8" standalone="no"?>
<svg
   xmlns:dc="http://purl.org/dc/elements/1.1/"
   xmlns:cc="http://creativecommons.org/ns#"
   xmlns:rdf="http://www.w3.org/1999/02/22-rdf-syntax-ns#"
   xmlns:svg="http://www.w3.org/2000/svg"
   xmlns="http://www.w3.org/2000/svg"
   xmlns:sodipodi="http://sodipodi.sourceforge.net/DTD/sodipodi-0.dtd"
   xmlns:inkscape="http://www.inkscape.org/namespaces/inkscape"
   inkscape:version="1.0 (4035a4fb49, 2020-05-01)"
   sodipodi:docname="χ_12.svg"
   id="svg133"
   version="1.1"
   viewBox="0 0 19200 12800"
   height="3200"
   width="4800">
  <metadata
     id="metadata137">
    <rdf:RDF>
      <cc:Work
         rdf:about="">
        <dc:format>image/svg+xml</dc:format>
        <dc:type
           rdf:resource="http://purl.org/dc/dcmitype/StillImage" />
      </cc:Work>
    </rdf:RDF>
  </metadata>
  <sodipodi:namedview
     inkscape:current-layer="svg133"
     inkscape:window-maximized="1"
     inkscape:window-y="-6"
     inkscape:window-x="-6"
     inkscape:cy="1600"
     inkscape:cx="2400"
     inkscape:zoom="0.153125"
     showguides="false"
     showgrid="false"
     id="namedview135"
     inkscape:window-height="658"
     inkscape:window-width="1280"
     inkscape:pageshadow="2"
     inkscape:pageopacity="0"
     guidetolerance="10"
     gridtolerance="10"
     objecttolerance="10"
     borderopacity="1"
     bordercolor="#666666"
     pagecolor="#ffffff" />
  <defs
     id="defs5">
    <clipPath
       id="clip6100">
      <rect
         id="rect2"
         height="12800"
         width="19200"
         y="0"
         x="0" />
    </clipPath>
    <clipPath
       id="clip6102-1">
      <rect
         x="1393"
         y="377"
         width="17430"
         height="11008"
         id="rect16-3" />
    </clipPath>
  </defs>
  <path
     id="path7"
     fill-opacity="1"
     fill-rule="evenodd"
     fill="#ffffff"
     d=" M0 12800 L19200 12800 L19200 0 L0 0  Z   "
     clip-path="url(#clip6100)" />
  <defs
     id="defs12">
    <clipPath
       id="clip6101">
      <rect
         id="rect9"
         height="12800"
         width="13441"
         y="0"
         x="3840" />
    </clipPath>
  </defs>
  <defs
     id="defs19">
    <clipPath
       id="clip6102">
      <rect
         id="rect16"
         height="11008"
         width="17430"
         y="377"
         x="1393" />
    </clipPath>
  </defs>
  <polyline
     id="polyline21"
     points="   1886.46,11385.4 1886.46,377.953    "
     style="stroke:#000000; stroke-width:16; stroke-opacity:0.1; fill:none"
     clip-path="url(#clip6102)" />
  <polyline
     id="polyline23"
     points="   5174.92,11385.4 5174.92,377.953    "
     style="stroke:#000000; stroke-width:16; stroke-opacity:0.1; fill:none"
     clip-path="url(#clip6102)" />
  <polyline
     id="polyline27"
     points="   11751.9,11385.4 11751.9,377.953    "
     style="stroke:#000000; stroke-width:16; stroke-opacity:0.1; fill:none"
     clip-path="url(#clip6102)" />
  <polyline
     id="polyline29"
     points="   15040.3,11385.4 15040.3,377.953    "
     style="stroke:#000000; stroke-width:16; stroke-opacity:0.1; fill:none"
     clip-path="url(#clip6102)" />
  <polyline
     id="polyline31"
     points="   18328.8,11385.4 18328.8,377.953    "
     style="stroke:#000000; stroke-width:16; stroke-opacity:0.1; fill:none"
     clip-path="url(#clip6102)" />
  <polyline
     id="polyline33"
     points="   1393.19,11073.9 18822,11073.9    "
     style="stroke:#000000; stroke-width:16; stroke-opacity:0.1; fill:none"
     clip-path="url(#clip6102)" />
  <polyline
     id="polyline35"
     points="   1393.19,8278.4 18822,8278.4    "
     style="stroke:#000000; stroke-width:16; stroke-opacity:0.1; fill:none"
     clip-path="url(#clip6102)" />
  <polyline
     id="polyline37"
     points="   1393.19,5482.89 18822,5482.89    "
     style="stroke:#000000; stroke-width:16; stroke-opacity:0.1; fill:none"
     clip-path="url(#clip6102)" />
  <polyline
     id="polyline39"
     points="   1393.19,2687.37 18822,2687.37    "
     style="stroke:#000000; stroke-width:16; stroke-opacity:0.1; fill:none"
     clip-path="url(#clip6102)" />
  <polyline
     id="polyline41"
     points="   1393.19,11385.4 18822,11385.4    "
     style="stroke:#000000; stroke-width:32; stroke-opacity:1; fill:none"
     clip-path="url(#clip6100)" />
  <polyline
     id="polyline43"
     points="   1393.19,11385.4 1393.19,377.953    "
     style="stroke:#000000; stroke-width:32; stroke-opacity:1; fill:none"
     clip-path="url(#clip6100)" />
  <polyline
     id="polyline45"
     points="   1886.46,11385.4 1886.46,11253.3    "
     style="stroke:#000000; stroke-width:32; stroke-opacity:1; fill:none"
     clip-path="url(#clip6100)" />
  <polyline
     id="polyline47"
     points="   5174.92,11385.4 5174.92,11253.3    "
     style="stroke:#000000; stroke-width:32; stroke-opacity:1; fill:none"
     clip-path="url(#clip6100)" />
  <polyline
     id="polyline49"
     points="   8463.39,11385.4 8463.39,11253.3    "
     style="stroke:#000000; stroke-width:32; stroke-opacity:1; fill:none"
     clip-path="url(#clip6100)" />
  <polyline
     id="polyline51"
     points="   11751.9,11385.4 11751.9,11253.3    "
     style="stroke:#000000; stroke-width:32; stroke-opacity:1; fill:none"
     clip-path="url(#clip6100)" />
  <polyline
     id="polyline53"
     points="   15040.3,11385.4 15040.3,11253.3    "
     style="stroke:#000000; stroke-width:32; stroke-opacity:1; fill:none"
     clip-path="url(#clip6100)" />
  <polyline
     id="polyline55"
     points="   18328.8,11385.4 18328.8,11253.3    "
     style="stroke:#000000; stroke-width:32; stroke-opacity:1; fill:none"
     clip-path="url(#clip6100)" />
  <polyline
     id="polyline57"
     points="   1393.19,11073.9 1602.34,11073.9    "
     style="stroke:#000000; stroke-width:32; stroke-opacity:1; fill:none"
     clip-path="url(#clip6100)" />
  <polyline
     id="polyline59"
     points="   1393.19,8278.4 1602.34,8278.4    "
     style="stroke:#000000; stroke-width:32; stroke-opacity:1; fill:none"
     clip-path="url(#clip6100)" />
  <polyline
     id="polyline61"
     points="   1393.19,5482.89 1602.34,5482.89    "
     style="stroke:#000000; stroke-width:32; stroke-opacity:1; fill:none"
     clip-path="url(#clip6100)" />
  <polyline
     id="polyline63"
     points="   1393.19,2687.37 1602.34,2687.37    "
     style="stroke:#000000; stroke-width:32; stroke-opacity:1; fill:none"
     clip-path="url(#clip6100)" />
  <path
     id="path65"
     fill-opacity="1"
     fill-rule="evenodd"
     fill="#000000"
     d="M 0 0 M1886.46 11561.4 Q1857.57 11561.4 1842.94 11589.9 Q1828.5 11618.2 1828.5 11675.3 Q1828.5 11732.1 1842.94 11760.6 Q1857.57 11789 1886.46 11789 Q1915.53 11789 1929.98 11760.6 Q1944.61 11732.1 1944.61 11675.3 Q1944.61 11618.2 1929.98 11589.9 Q1915.53 11561.4 1886.46 11561.4 M1886.46 11531.7 Q1932.94 11531.7 1957.39 11568.6 Q1982.02 11605.3 1982.02 11675.3 Q1982.02 11745.1 1957.39 11781.9 Q1932.94 11818.6 1886.46 11818.6 Q1839.98 11818.6 1815.35 11781.9 Q1790.91 11745.1 1790.91 11675.3 Q1790.91 11605.3 1815.35 11568.6 Q1839.98 11531.7 1886.46 11531.7 Z"
     clip-path="url(#clip6100)" />
  <path
     id="path67"
     fill-opacity="1"
     fill-rule="evenodd"
     fill="#000000"
     d="M 0 0 M5097.98 11781.7 L5159.09 11781.7 L5159.09 11570.8 L5092.61 11584.1 L5092.61 11550.1 L5158.72 11536.7 L5196.13 11536.7 L5196.13 11781.7 L5257.24 11781.7 L5257.24 11813.2 L5097.98 11813.2 L5097.98 11781.7 Z"
     clip-path="url(#clip6100)" />
  <path
     id="path69"
     fill-opacity="1"
     fill-rule="evenodd"
     fill="#000000"
     d="M 0 0 M8420.61 11781.7 L8551.16 11781.7 L8551.16 11813.2 L8375.61 11813.2 L8375.61 11781.7 Q8396.91 11759.7 8433.57 11722.7 Q8470.42 11685.4 8479.87 11674.7 Q8497.83 11654.5 8504.87 11640.6 Q8512.09 11626.5 8512.09 11613 Q8512.09 11591 8496.54 11577.1 Q8481.17 11563.2 8456.35 11563.2 Q8438.76 11563.2 8419.13 11569.3 Q8399.68 11575.4 8377.46 11587.8 L8377.46 11550.1 Q8400.05 11541 8419.68 11536.4 Q8439.31 11531.7 8455.61 11531.7 Q8498.57 11531.7 8524.13 11553.2 Q8549.68 11574.7 8549.68 11610.6 Q8549.68 11627.7 8543.2 11643 Q8536.91 11658.2 8520.05 11679 Q8515.42 11684.3 8490.61 11710.1 Q8465.8 11735.6 8420.61 11781.7 Z"
     clip-path="url(#clip6100)" />
  <path
     id="path71"
     fill-opacity="1"
     fill-rule="evenodd"
     fill="#000000"
     d="M 0 0 M11785.8 11664.1 Q11812.7 11669.9 11827.7 11688 Q11842.9 11706.2 11842.9 11732.8 Q11842.9 11773.8 11814.7 11796.2 Q11786.6 11818.6 11734.7 11818.6 Q11717.3 11818.6 11698.8 11815.1 Q11680.5 11811.7 11660.8 11804.9 L11660.8 11768.8 Q11676.4 11777.8 11694.9 11782.5 Q11713.4 11787.1 11733.6 11787.1 Q11768.8 11787.1 11787.1 11773.2 Q11805.6 11759.3 11805.6 11732.8 Q11805.6 11708.4 11788.4 11694.7 Q11771.4 11680.8 11740.8 11680.8 L11708.6 11680.8 L11708.6 11650.1 L11742.3 11650.1 Q11769.9 11650.1 11784.5 11639.1 Q11799.2 11628 11799.2 11607.3 Q11799.2 11586 11784 11574.7 Q11769 11563.2 11740.8 11563.2 Q11725.5 11563.2 11707.9 11566.5 Q11690.3 11569.9 11669.2 11576.9 L11669.2 11543.6 Q11690.5 11537.7 11709 11534.7 Q11727.7 11531.7 11744.2 11531.7 Q11786.8 11531.7 11811.6 11551.2 Q11836.4 11570.4 11836.4 11603.4 Q11836.4 11626.4 11823.2 11642.3 Q11810.1 11658 11785.8 11664.1 Z"
     clip-path="url(#clip6100)" />
  <path
     id="path73"
     fill-opacity="1"
     fill-rule="evenodd"
     fill="#000000"
     d="M 0 0 M15064.4 11569.3 L14969.9 11716.9 L15064.4 11716.9 L15064.4 11569.3 M15054.6 11536.7 L15101.6 11536.7 L15101.6 11716.9 L15141.1 11716.9 L15141.1 11748 L15101.6 11748 L15101.6 11813.2 L15064.4 11813.2 L15064.4 11748 L14939.6 11748 L14939.6 11711.9 L15054.6 11536.7 Z"
     clip-path="url(#clip6100)" />
  <path
     id="path75"
     fill-opacity="1"
     fill-rule="evenodd"
     fill="#000000"
     d="M 0 0 M18251 11536.7 L18397.9 11536.7 L18397.9 11568.2 L18285.3 11568.2 L18285.3 11636 Q18293.4 11633.2 18301.6 11631.9 Q18309.7 11630.4 18317.9 11630.4 Q18364.1 11630.4 18391.2 11655.8 Q18418.2 11681.2 18418.2 11724.5 Q18418.2 11769.1 18390.4 11794 Q18362.7 11818.6 18312.1 11818.6 Q18294.7 11818.6 18276.6 11815.6 Q18258.6 11812.7 18239.3 11806.7 L18239.3 11769.1 Q18256 11778.2 18273.8 11782.7 Q18291.6 11787.1 18311.4 11787.1 Q18343.4 11787.1 18362.1 11770.3 Q18380.8 11753.4 18380.8 11724.5 Q18380.8 11695.6 18362.1 11678.8 Q18343.4 11661.9 18311.4 11661.9 Q18296.4 11661.9 18281.4 11665.3 Q18266.6 11668.6 18251 11675.6 L18251 11536.7 Z"
     clip-path="url(#clip6100)" />
  <path
     id="path77"
     fill-opacity="1"
     fill-rule="evenodd"
     fill="#000000"
     d="M 0 0 M1105.64 10960.3 Q1076.75 10960.3 1062.12 10988.8 Q1047.67 11017.1 1047.67 11074.2 Q1047.67 11131 1062.12 11159.6 Q1076.75 11187.9 1105.64 11187.9 Q1134.71 11187.9 1149.15 11159.6 Q1163.78 11131 1163.78 11074.2 Q1163.78 11017.1 1149.15 10988.8 Q1134.71 10960.3 1105.64 10960.3 M1105.64 10930.7 Q1152.12 10930.7 1176.56 10967.5 Q1201.19 11004.2 1201.19 11074.2 Q1201.19 11144 1176.56 11180.8 Q1152.12 11217.5 1105.64 11217.5 Q1059.16 11217.5 1034.53 11180.8 Q1010.08 11144 1010.08 11074.2 Q1010.08 11004.2 1034.53 10967.5 Q1059.16 10930.7 1105.64 10930.7 Z"
     clip-path="url(#clip6100)" />
  <path
     id="path79"
     fill-opacity="1"
     fill-rule="evenodd"
     fill="#000000"
     d="M 0 0 M1041.93 8385.15 L1103.04 8385.15 L1103.04 8174.23 L1036.56 8187.56 L1036.56 8153.49 L1102.67 8140.16 L1140.08 8140.16 L1140.08 8385.15 L1201.19 8385.15 L1201.19 8416.64 L1041.93 8416.64 L1041.93 8385.15 Z"
     clip-path="url(#clip6100)" />
  <path
     id="path81"
     fill-opacity="1"
     fill-rule="evenodd"
     fill="#000000"
     d="M 0 0 M1070.64 5589.64 L1201.19 5589.64 L1201.19 5621.13 L1025.64 5621.13 L1025.64 5589.64 Q1046.93 5567.61 1083.6 5530.57 Q1120.45 5493.35 1129.9 5482.61 Q1147.86 5462.42 1154.9 5448.53 Q1162.12 5434.46 1162.12 5420.94 Q1162.12 5398.9 1146.56 5385.02 Q1131.19 5371.13 1106.38 5371.13 Q1088.78 5371.13 1069.16 5377.24 Q1049.71 5383.35 1027.49 5395.76 L1027.49 5357.98 Q1050.08 5348.9 1069.71 5344.27 Q1089.34 5339.65 1105.64 5339.65 Q1148.6 5339.65 1174.15 5361.13 Q1199.71 5382.61 1199.71 5418.53 Q1199.71 5435.57 1193.23 5450.94 Q1186.93 5466.13 1170.08 5486.87 Q1165.45 5492.24 1140.64 5517.98 Q1115.82 5543.53 1070.64 5589.64 Z"
     clip-path="url(#clip6100)" />
  <path
     id="path83"
     fill-opacity="1"
     fill-rule="evenodd"
     fill="#000000"
     d="M 0 0 M1144.15 2676.54 Q1171.01 2682.28 1186.01 2700.43 Q1201.19 2718.58 1201.19 2745.24 Q1201.19 2786.17 1173.04 2808.58 Q1144.9 2830.98 1093.04 2830.98 Q1075.64 2830.98 1057.12 2827.47 Q1038.78 2824.13 1019.16 2817.28 L1019.16 2781.17 Q1034.71 2790.24 1053.23 2794.87 Q1071.75 2799.5 1091.93 2799.5 Q1127.12 2799.5 1145.45 2785.61 Q1163.97 2771.73 1163.97 2745.24 Q1163.97 2720.8 1146.75 2707.1 Q1129.71 2693.21 1099.15 2693.21 L1066.93 2693.21 L1066.93 2662.47 L1100.64 2662.47 Q1128.23 2662.47 1142.86 2651.54 Q1157.49 2640.43 1157.49 2619.69 Q1157.49 2598.39 1142.3 2587.1 Q1127.3 2575.62 1099.15 2575.62 Q1083.78 2575.62 1066.19 2578.95 Q1048.6 2582.28 1027.49 2589.32 L1027.49 2555.99 Q1048.78 2550.06 1067.3 2547.1 Q1086.01 2544.13 1102.49 2544.13 Q1145.08 2544.13 1169.9 2563.58 Q1194.71 2582.84 1194.71 2615.8 Q1194.71 2638.76 1181.56 2654.69 Q1168.41 2670.43 1144.15 2676.54 Z"
     clip-path="url(#clip6100)" />
  <path
     id="path85"
     fill-opacity="1"
     fill-rule="evenodd"
     fill="#000000"
     d="M 0 0 M9946.82 12068.2 L10268.4 12068.2 L10268.4 12111.5 L10133.5 12111.5 L10133.5 12448.4 L10081.8 12448.4 L10081.8 12111.5 L9946.82 12111.5 L9946.82 12068.2 Z"
     clip-path="url(#clip6100)" />
  <path
     id="path87"
     fill-opacity="1"
     fill-rule="evenodd"
     fill="#000000"
     d="M 0 0 M353.156 5919.51 L407.391 5919.51 Q383.202 5945.48 371.234 5975.02 Q359.267 6004.3 359.267 6037.4 Q359.267 6102.59 399.243 6137.22 Q438.965 6171.84 514.335 6171.84 Q589.451 6171.84 629.427 6137.22 Q669.149 6102.59 669.149 6037.4 Q669.149 6004.3 657.182 5975.02 Q645.214 5945.48 621.024 5919.51 L674.751 5919.51 Q693.084 5946.5 702.251 5976.8 Q711.417 6006.85 711.417 6040.46 Q711.417 6126.78 658.709 6176.43 Q605.747 6226.08 514.335 6226.08 Q422.669 6226.08 369.961 6176.43 Q316.998 6126.78 316.998 6040.46 Q316.998 6006.34 326.165 5976.29 Q335.077 5945.99 353.156 5919.51 Z"
     clip-path="url(#clip6100)" />
  <path
     id="path89"
     fill-opacity="1"
     fill-rule="evenodd"
     fill="#000000"
     d="M 0 0 M531.905 5633.31 L704.033 5633.31 L704.033 5680.16 L533.432 5680.16 Q492.946 5680.16 472.831 5695.94 Q452.715 5711.73 452.715 5743.31 Q452.715 5781.24 476.905 5803.14 Q501.095 5825.04 542.854 5825.04 L704.033 5825.04 L704.033 5872.15 L307.832 5872.15 L307.832 5825.04 L463.155 5825.04 Q437.437 5808.24 424.706 5785.57 Q411.975 5762.66 411.975 5732.87 Q411.975 5683.72 442.53 5658.51 Q472.831 5633.31 531.905 5633.31 Z"
     clip-path="url(#clip6100)" />
  <path
     id="path91"
     fill-opacity="1"
     fill-rule="evenodd"
     fill="#000000"
     d="M 0 0 M418.85 5584.16 L418.85 5537.31 L704.033 5537.31 L704.033 5584.16 L418.85 5584.16 M307.832 5584.16 L307.832 5537.31 L367.16 5537.31 L367.16 5584.16 L307.832 5584.16 Z"
     clip-path="url(#clip6100)" />
  <polyline
     id="polyline93"
     points="   2215.31,11073.9 2255.69,11073.9 2296.08,11073.9 2336.46,11073.9 2376.85,11073.9 2417.23,11073.9 2457.62,11073.9 2498,11073.9 2538.38,11073.9 2578.77,11073.9    2619.15,11073.9 2659.54,11073.9 2699.92,11073.9 2740.31,11073.9 2780.69,11073.9 2821.08,11073.9 2861.46,11073.9 2901.85,11073.9 2942.23,11073.9 2982.62,11073.9    3023,11073.9 3063.38,11073.9 3103.77,11073.9 3144.15,11073.9 3184.54,11073.9 3224.92,11073.9 3265.31,11073.9 3305.69,11073.9 3346.08,11073.9 3386.46,11073.9    3426.85,11073.9 3467.23,11073.9 3507.62,11073.9 3548,11073.9 3588.38,11073.9 3628.77,11073.9 3669.15,11073.9 3709.54,11073.9 3749.92,11073.9 3790.31,11073.8    3830.69,11073.9 3871.08,11073.9 3911.46,11073.9 3951.85,11073.9 3992.23,11073.9 4032.62,11073.9 4073,11073.8 4113.39,11073.8 4153.77,11073.8 4194.15,11073.8    4234.54,11073.8 4274.92,11073.7 4315.31,11073.6 4355.69,11073.6 4396.08,11073.4 4436.46,11073.3 4476.85,11073.2 4517.23,11073.3 4557.62,11073.4 4598,11073.1    4638.39,11073.2 4678.77,11072.8 4719.15,11072.5 4759.54,11072.2 4799.92,11072.1 4840.31,11072 4880.69,11071.8 4921.08,11071.4 4961.46,11071.2 5001.85,11071.1    5042.23,11070.7 5082.62,11070.3 5123,11070.3 5163.39,11069.6 5203.77,11069.3 5244.16,11069.2 5284.54,11067.6 5324.92,11067.8 5365.31,11067.3 5405.69,11066.3    5446.08,11066.6 5486.46,11065.5 5526.85,11064.7 5567.23,11063.3 5607.62,11063.2 5648,11060.3 5688.39,11060.9 5728.77,11060.7 5769.16,11059.7 5809.54,11058.2    5849.92,11057.5 5890.31,11057.2 5930.69,11053.8 5971.08,11053.8 6011.46,11051 6051.85,11051.7 6092.23,11047.7 6132.62,11047.5 6173,11045.4 6213.39,11042.9    6253.77,11039.7 6294.16,11038.7 6334.54,11037.9 6374.92,11032.9 6415.31,11034.4 6455.69,11029 6496.08,11026.4 6536.46,11025.5 6576.85,11019.1 6617.23,11018.2    6657.62,11016.1 6698,11009.8 6738.39,11007.2 6778.77,11000.9 6819.16,10999.5 6859.54,10995.6 6899.93,10995.7 6940.31,10989.2 6980.69,10974.2 7021.08,10970.4    7061.46,10961.3 7101.85,10958.6 7142.23,10963.4 7182.62,10944.4 7223,10939.1 7263.39,10921.8 7303.77,10932.1 7344.16,10932.8 7384.54,10913.9 7424.93,10896.9    7465.31,10897.3 7505.69,10874.7 7546.08,10851 7586.46,10835.4 7626.85,10865 7667.23,10818.6 7707.62,10756.7 7748,10749.7 7788.39,10753.7 7828.77,10771.2    7869.16,10761.5 7909.54,10722 7949.93,10670.8 7990.31,10614.1 8030.7,10620.9 8071.08,10564.2 8111.46,10604.9 8151.85,10583.9 8192.23,10444.5 8232.62,10204.1    8273,10467.3 8313.39,10316.6 8353.77,10291.1 8394.16,10329.2 8434.54,9803.29 8474.93,10085.3 8515.31,9873.3 8555.7,9538.77 8596.08,9828.22 8636.46,9721.94    8676.85,9508.63 8717.23,8643.43 8757.62,9237.79 8798,9324.1 8838.39,9237.47 8878.77,8763.68 8919.16,6745.05 8959.54,7763.22 8999.93,7996.45 9040.31,8169.55    9080.7,6926.48 9121.08,5085.49 9161.46,6147.63 9201.85,5807.38 9242.23,4331.27 9282.62,6000.9 9323,4302.66 9363.39,4439.86 9403.77,3407.59 9444.16,3018.32    9484.54,3760.36 9524.93,2683.65 9565.31,1188.89 9605.7,3047.12 9646.08,1651.73 9686.47,727.216 9726.85,2106.72 9767.23,1334.71 9807.62,1424.71 9848,858.435    9888.39,1368.88 9928.77,689.485 9969.16,1165.04 10009.5,1369.66 10049.9,1332.59 10090.3,1253.88 10130.7,1125.73 10171.1,1805.67 10211.5,1547.56 10251.9,1796.41    10292.2,1835.26 10332.6,2008.09 10373,1718.9 10413.4,2721.92 10453.8,3354.65 10494.2,3126.26 10534.5,3116.18 10574.9,2920.81 10615.3,3355.28 10655.7,4216.26    10696.1,4151.77 10736.5,3593.81 10776.9,4332.26 10817.2,4227 10857.6,4597.37 10898,4567.15 10938.4,4943.03 10978.8,5096.32 11019.2,5345.45 11059.5,5338.1    11099.9,5683.1 11140.3,6035.62 11180.7,6511.72 11221.1,5817.67 11261.5,5959.96 11301.9,6455.49 11342.2,6274.2 11382.6,6678.31 11423,6495.51 11463.4,6665.96    11503.8,7016.35 11544.2,7087.71 11584.5,7334.43 11624.9,7227.9 11665.3,7268.72 11705.7,7298.71 11746.1,7445.08 11786.5,7772.84 11826.9,7555.69 11867.2,7654.26    11907.6,7711.55 11948,7931.09 11988.4,7820.69 12028.8,7817.98 12069.2,7996.8 12109.5,8137.95 12149.9,8125.77 12190.3,8439.99 12230.7,8277.07 12271.1,8343.07    12311.5,8374.15 12351.9,8446.93 12392.2,8321.7 12432.6,8404.44 12473,8646.01 12513.4,8798.57 12553.8,8670 12594.2,8589.99 12634.5,8750.35 12674.9,8653.99    12715.3,8959.55 12755.7,8870.9 12796.1,8940.94 12836.5,8876.76 12876.9,8991.5 12917.2,8987.4 12957.6,9026.08 12998,9111.26 13038.4,9232.68 13078.8,9134.07    13119.2,9144.37 13159.5,9161.2 13199.9,9253.48 13240.3,9283.09 13280.7,9221.83 13321.1,9344.11 13361.5,9425.36 13401.9,9261.83 13442.2,9350.84 13482.6,9469.21    13523,9331.3 13563.4,9398.15 13603.8,9559.42 13644.2,9309.4 13684.5,9617.02 13724.9,9498.39 13765.3,9510.28 13805.7,9540.35 13846.1,9535.32 13886.5,9640.76    13926.9,9664.35 13967.2,9609.42 14007.6,9644 14048,9702.42 14088.4,9653.92 14128.8,9722.88 14169.2,9680.91 14209.5,9711.55 14249.9,9800.03 14290.3,9762.66    14330.7,9837.42 14371.1,9783.3 14411.5,9823.62 14451.9,9781.12 14492.2,9853.06 14532.6,9819.93 14573,9909.26 14613.4,9885.82 14653.8,9881.29 14694.2,9905.11    14734.5,9891.2 14774.9,9933.95 14815.3,9957.07 14855.7,9984.17 14896.1,9995.95 14936.5,9984.84 14976.9,10010.6 15017.2,9973.2 15057.6,10026.5 15098,10018.6    15138.4,10022.1 15178.8,10001.9 15219.2,10036.7 15259.5,10072.7 15299.9,10040 15340.3,10089.7 15380.7,10086.2 15421.1,10095.2 15461.5,10108.3 15501.9,10123.6    15542.2,10103.4 15582.6,10117.4 15623,10160.8 15663.4,10139.4 15703.8,10171.2 15744.2,10132.2 15784.5,10167.7 15824.9,10188.6 15865.3,10177.1 15905.7,10177    15946.1,10187.2 15986.5,10196.8 16026.9,10222.6 16067.2,10207.3 16107.6,10258.6 16148,10233.7 16188.4,10206.1 16228.8,10233.2 16269.2,10281.3 16309.5,10292.3    16349.9,10279.6 16390.3,10264.7 16430.7,10279 16471.1,10319 16511.5,10302.4 16551.9,10324 16592.2,10317.2 16632.6,10296.5 16673,10329.4 16713.4,10289.7    16753.8,10327.3 16794.2,10324.8 16834.5,10326.8 16874.9,10360.2 16915.3,10352.1 16955.7,10317.6 16996.1,10360.4 17036.5,10349.1 17076.9,10365.9 17117.2,10382.6    17157.6,10371.2 17198,10402.4 17238.4,10393.6 17278.8,10389.7 17319.2,10395.6 17359.5,10417 17399.9,10398.1 17440.3,10419.1 17480.7,10403.4 17521.1,10432.4    17561.5,10439.4 17601.9,10439.9 17642.2,10431.2 17682.6,10429.7 17723,10466.6 17763.4,10442.7 17803.8,10438.4 17844.2,10498.1 17884.5,10476 17924.9,10471.5    17965.3,10452.3 18005.7,10470.1 18046.1,10471.6 18086.5,10477.6 18126.9,10480.7 18167.2,10497.5 18207.6,10478.7 18248,10472.8 18288.4,10476.1 18328.8,10471.4       "
     style="stroke:#009af9; stroke-width:48; stroke-opacity:1; fill:none"
     clip-path="url(#clip6102)" />
  <polyline
     transform="matrix(1,0,0,0.52129672,0,500.77629)"
     id="polyline101"
     points="   15030.1,2981.47 18246,2981.47 18246,1046.11 15030.1,1046.11 15030.1,2981.47    "
     style="fill:none;stroke:#000000;stroke-width:32;stroke-opacity:1"
     clip-path="url(#clip6100)" />
  <polyline
     id="polyline103"
     points="   15222.1,1529.95 16374.1,1529.95    "
     style="stroke:#009af9; stroke-width:48; stroke-opacity:1; fill:none"
     clip-path="url(#clip6100)" />
  <path
     id="path105"
     fill-opacity="1"
     fill-rule="evenodd"
     fill="#000000"
     d="M 0 0 M16789.1 1413.01 L16789.1 1452.45 Q16770.2 1434.86 16748.7 1426.16 Q16727.4 1417.45 16703.3 1417.45 Q16655.9 1417.45 16630.8 1446.53 Q16605.6 1475.42 16605.6 1530.23 Q16605.6 1584.86 16630.8 1613.93 Q16655.9 1642.82 16703.3 1642.82 Q16727.4 1642.82 16748.7 1634.12 Q16770.2 1625.42 16789.1 1607.82 L16789.1 1646.9 Q16769.5 1660.23 16747.4 1666.9 Q16725.6 1673.56 16701.1 1673.56 Q16638.4 1673.56 16602.2 1635.23 Q16566.1 1596.71 16566.1 1530.23 Q16566.1 1463.56 16602.2 1425.23 Q16638.4 1386.71 16701.1 1386.71 Q16725.9 1386.71 16747.8 1393.38 Q16769.8 1399.86 16789.1 1413.01 Z"
     clip-path="url(#clip6100)" />
  <path
     id="path107"
     fill-opacity="1"
     fill-rule="evenodd"
     fill="#000000"
     d="M 0 0 M16997.2 1543.01 L16997.2 1668.19 L16963.2 1668.19 L16963.2 1544.12 Q16963.2 1514.68 16951.7 1500.05 Q16940.2 1485.42 16917.2 1485.42 Q16889.6 1485.42 16873.7 1503.01 Q16857.8 1520.6 16857.8 1550.97 L16857.8 1668.19 L16823.5 1668.19 L16823.5 1380.05 L16857.8 1380.05 L16857.8 1493.01 Q16870 1474.3 16886.5 1465.05 Q16903.2 1455.79 16924.8 1455.79 Q16960.6 1455.79 16978.9 1478.01 Q16997.2 1500.05 16997.2 1543.01 Z"
     clip-path="url(#clip6100)" />
  <path
     id="path109"
     fill-opacity="1"
     fill-rule="evenodd"
     fill="#000000"
     d="M 0 0 M17033 1460.79 L17067.1 1460.79 L17067.1 1668.19 L17033 1668.19 L17033 1460.79 M17033 1380.05 L17067.1 1380.05 L17067.1 1423.19 L17033 1423.19 L17033 1380.05 Z"
     clip-path="url(#clip6100)" />
  <path
     id="path111"
     fill-opacity="1"
     fill-rule="evenodd"
     fill="#000000"
     d="M 0 0 M17260.4 1731.16 L17260.4 1757.64 L17063.3 1757.64 L17063.3 1731.16 L17260.4 1731.16 Z"
     clip-path="url(#clip6100)" />
  <path
     id="path113"
     fill-opacity="1"
     fill-rule="evenodd"
     fill="#000000"
     d="M 0 0 M17428.3 1466.9 L17428.3 1499.12 Q17413.9 1491.71 17398.3 1488.01 Q17382.8 1484.3 17366.1 1484.3 Q17340.8 1484.3 17328 1492.08 Q17315.4 1499.86 17315.4 1515.42 Q17315.4 1527.27 17324.5 1534.12 Q17333.5 1540.79 17360.9 1546.9 L17372.6 1549.49 Q17408.9 1557.27 17424.1 1571.53 Q17439.5 1585.6 17439.5 1610.97 Q17439.5 1639.86 17416.5 1656.71 Q17393.7 1673.56 17353.7 1673.56 Q17337.1 1673.56 17318.9 1670.23 Q17300.9 1667.08 17280.9 1660.6 L17280.9 1625.42 Q17299.8 1635.23 17318.2 1640.23 Q17336.5 1645.04 17354.5 1645.04 Q17378.5 1645.04 17391.5 1636.9 Q17404.5 1628.56 17404.5 1613.56 Q17404.5 1599.67 17395 1592.27 Q17385.8 1584.86 17354.1 1578.01 L17342.2 1575.23 Q17310.6 1568.56 17296.5 1554.86 Q17282.4 1540.97 17282.4 1516.9 Q17282.4 1487.64 17303.2 1471.71 Q17323.9 1455.79 17362 1455.79 Q17380.9 1455.79 17397.6 1458.56 Q17414.3 1461.34 17428.3 1466.9 Z"
     clip-path="url(#clip6100)" />
  <path
     id="path115"
     fill-opacity="1"
     fill-rule="evenodd"
     fill="#000000"
     d="M 0 0 M17475.2 1460.79 L17509.3 1460.79 L17509.3 1668.19 L17475.2 1668.19 L17475.2 1460.79 M17475.2 1380.05 L17509.3 1380.05 L17509.3 1423.19 L17475.2 1423.19 L17475.2 1380.05 Z"
     clip-path="url(#clip6100)" />
  <path
     id="path117"
     fill-opacity="1"
     fill-rule="evenodd"
     fill="#000000"
     d="M 0 0 M17578.7 1401.9 L17578.7 1460.79 L17648.9 1460.79 L17648.9 1487.27 L17578.7 1487.27 L17578.7 1599.86 Q17578.7 1625.23 17585.6 1632.45 Q17592.6 1639.67 17613.9 1639.67 L17648.9 1639.67 L17648.9 1668.19 L17613.9 1668.19 Q17574.5 1668.19 17559.5 1653.56 Q17544.5 1638.75 17544.5 1599.86 L17544.5 1487.27 L17519.5 1487.27 L17519.5 1460.79 L17544.5 1460.79 L17544.5 1401.9 L17578.7 1401.9 Z"
     clip-path="url(#clip6100)" />
  <path
     id="path119"
     fill-opacity="1"
     fill-rule="evenodd"
     fill="#000000"
     d="M 0 0 M17862 1555.97 L17862 1572.64 L17705.4 1572.64 Q17707.6 1607.82 17726.5 1626.34 Q17745.6 1644.67 17779.5 1644.67 Q17799.1 1644.67 17817.4 1639.86 Q17835.9 1635.04 17854.1 1625.42 L17854.1 1657.64 Q17835.8 1665.41 17816.5 1669.49 Q17797.2 1673.56 17777.4 1673.56 Q17727.8 1673.56 17698.7 1644.67 Q17669.8 1615.79 17669.8 1566.53 Q17669.8 1515.6 17697.2 1485.79 Q17724.8 1455.79 17771.5 1455.79 Q17813.3 1455.79 17837.6 1482.82 Q17862 1509.68 17862 1555.97 M17828 1545.97 Q17827.6 1518.01 17812.2 1501.34 Q17797 1484.68 17771.9 1484.68 Q17743.3 1484.68 17726.1 1500.79 Q17709.1 1516.9 17706.5 1546.16 L17828 1545.97 Z"
     clip-path="url(#clip6100)" />
  <ellipse
     ry="233.19"
     rx="201.905"
     cy="1340.8455"
     cx="9881.3145"
     id="path139"
     style="fill:#ff9955;fill-opacity:0.819277;stroke-width:4" />
  <polyline
     clip-path="url(#clip6102-1)"
     style="fill:#000000;stroke:#046bfa;stroke-width:31.9986;stroke-miterlimit:4;stroke-dasharray:127.994, 63.99710000000000321, 31.99859999999999971, 63.99710000000000321;stroke-dashoffset:0;stroke-opacity:1"
     points="   1886.46,1368.88 9888.39,1368.88    "
     id="polyline95-0"
     transform="matrix(-0.00123368,-1.2444829,0.99999933,-0.00136119,8531.71,13676.675)" />
  <text
     id="text989"
     y="11829.224"
     x="9508.5713"
     style="font-style:normal;font-weight:normal;font-size:384px;line-height:1.25;font-family:sans-serif;letter-spacing:0px;fill:#000000;fill-opacity:1;stroke:none;stroke-width:4"
     xml:space="preserve"><tspan
       style="font-size:384px;stroke-width:4"
       y="11829.224"
       x="9508.5713"
       id="tspan987"
       sodipodi:role="line">2.43</tspan></text>
</svg>
