<?xml version="1.0" encoding="UTF-8" standalone="no"?>
<svg
   xmlns:dc="http://purl.org/dc/elements/1.1/"
   xmlns:cc="http://creativecommons.org/ns#"
   xmlns:rdf="http://www.w3.org/1999/02/22-rdf-syntax-ns#"
   xmlns:svg="http://www.w3.org/2000/svg"
   xmlns="http://www.w3.org/2000/svg"
   xmlns:sodipodi="http://sodipodi.sourceforge.net/DTD/sodipodi-0.dtd"
   xmlns:inkscape="http://www.inkscape.org/namespaces/inkscape"
   width="4800"
   height="3200"
   viewBox="0 0 19200 12800"
   version="1.1"
   id="svg143"
   sodipodi:docname="χ_16.svg"
   inkscape:version="1.0 (4035a4fb49, 2020-05-01)">
  <metadata
     id="metadata147">
    <rdf:RDF>
      <cc:Work
         rdf:about="">
        <dc:format>image/svg+xml</dc:format>
        <dc:type
           rdf:resource="http://purl.org/dc/dcmitype/StillImage" />
      </cc:Work>
    </rdf:RDF>
  </metadata>
  <sodipodi:namedview
     inkscape:document-rotation="0"
     pagecolor="#ffffff"
     bordercolor="#666666"
     borderopacity="1"
     objecttolerance="10"
     gridtolerance="10"
     guidetolerance="10"
     inkscape:pageopacity="0"
     inkscape:pageshadow="2"
     inkscape:window-width="1280"
     inkscape:window-height="658"
     id="namedview145"
     showgrid="false"
     inkscape:zoom="0.153125"
     inkscape:cx="1142.8571"
     inkscape:cy="1600"
     inkscape:window-x="-6"
     inkscape:window-y="-6"
     inkscape:window-maximized="1"
     inkscape:current-layer="svg143" />
  <defs
     id="defs5">
    <clipPath
       id="clip4900">
      <rect
         x="0"
         y="0"
         width="19200"
         height="12800"
         id="rect2" />
    </clipPath>
  </defs>
  <path
     clip-path="url(#clip4900)"
     d=" M0 12800 L19200 12800 L19200 0 L0 0  Z   "
     fill="#ffffff"
     fill-rule="evenodd"
     fill-opacity="1"
     id="path7" />
  <defs
     id="defs12">
    <clipPath
       id="clip4901">
      <rect
         x="3840"
         y="0"
         width="13441"
         height="12800"
         id="rect9" />
    </clipPath>
  </defs>
  <path
     clip-path="url(#clip4900)"
     d=" M1403.56 11385.4 L18822 11385.4 L18822 377.953 L1403.56 377.953  Z   "
     fill="#ffffff"
     fill-rule="evenodd"
     fill-opacity="1"
     id="path14" />
  <defs
     id="defs19">
    <clipPath
       id="clip4902">
      <rect
         x="1403"
         y="377"
         width="17419"
         height="11008"
         id="rect16" />
    </clipPath>
  </defs>
  <polyline
     clip-path="url(#clip4902)"
     style="stroke:#000000; stroke-width:16; stroke-opacity:0.1; fill:none"
     points="   1561.18,11385.4 1561.18,377.953    "
     id="polyline21" />
  <polyline
     clip-path="url(#clip4902)"
     style="stroke:#000000; stroke-width:16; stroke-opacity:0.1; fill:none"
     points="   4914.76,11385.4 4914.76,377.953    "
     id="polyline23" />
  <polyline
     clip-path="url(#clip4902)"
     style="stroke:#000000; stroke-width:16; stroke-opacity:0.1; fill:none"
     points="   8268.34,11385.4 8268.34,377.953    "
     id="polyline25" />
  <polyline
     clip-path="url(#clip4902)"
     style="stroke:#000000; stroke-width:16; stroke-opacity:0.1; fill:none"
     points="   11621.9,11385.4 11621.9,377.953    "
     id="polyline27" />
  <polyline
     clip-path="url(#clip4902)"
     style="stroke:#000000; stroke-width:16; stroke-opacity:0.1; fill:none"
     points="   14975.5,11385.4 14975.5,377.953    "
     id="polyline29" />
  <polyline
     clip-path="url(#clip4902)"
     style="stroke:#000000; stroke-width:16; stroke-opacity:0.1; fill:none"
     points="   18329.1,11385.4 18329.1,377.953    "
     id="polyline31" />
  <polyline
     clip-path="url(#clip4902)"
     style="stroke:#000000; stroke-width:16; stroke-opacity:0.1; fill:none"
     points="   1403.56,11073.9 18822,11073.9    "
     id="polyline33" />
  <polyline
     clip-path="url(#clip4902)"
     style="stroke:#000000; stroke-width:16; stroke-opacity:0.1; fill:none"
     points="   1403.56,9460.4 18822,9460.4    "
     id="polyline35" />
  <polyline
     clip-path="url(#clip4902)"
     style="stroke:#000000; stroke-width:16; stroke-opacity:0.1; fill:none"
     points="   1403.56,7846.89 18822,7846.89    "
     id="polyline37" />
  <polyline
     clip-path="url(#clip4902)"
     style="stroke:#000000; stroke-width:16; stroke-opacity:0.1; fill:none"
     points="   1403.56,6233.38 18822,6233.38    "
     id="polyline39" />
  <polyline
     clip-path="url(#clip4902)"
     style="stroke:#000000; stroke-width:16; stroke-opacity:0.1; fill:none"
     points="   1403.56,4619.88 18822,4619.88    "
     id="polyline41" />
  <polyline
     clip-path="url(#clip4902)"
     style="stroke:#000000; stroke-width:16; stroke-opacity:0.1; fill:none"
     points="   1403.56,3006.37 18822,3006.37    "
     id="polyline43" />
  <polyline
     clip-path="url(#clip4902)"
     style="stroke:#000000; stroke-width:16; stroke-opacity:0.1; fill:none"
     points="   1403.56,1392.86 18822,1392.86    "
     id="polyline45" />
  <polyline
     clip-path="url(#clip4900)"
     style="stroke:#000000; stroke-width:32; stroke-opacity:1; fill:none"
     points="   1403.56,11385.4 18822,11385.4    "
     id="polyline47" />
  <polyline
     clip-path="url(#clip4900)"
     style="stroke:#000000; stroke-width:32; stroke-opacity:1; fill:none"
     points="   1403.56,11385.4 1403.56,377.953    "
     id="polyline49" />
  <polyline
     clip-path="url(#clip4900)"
     style="stroke:#000000; stroke-width:32; stroke-opacity:1; fill:none"
     points="   1561.18,11385.4 1561.18,11253.3    "
     id="polyline51" />
  <polyline
     clip-path="url(#clip4900)"
     style="stroke:#000000; stroke-width:32; stroke-opacity:1; fill:none"
     points="   4914.76,11385.4 4914.76,11253.3    "
     id="polyline53" />
  <polyline
     clip-path="url(#clip4900)"
     style="stroke:#000000; stroke-width:32; stroke-opacity:1; fill:none"
     points="   8268.34,11385.4 8268.34,11253.3    "
     id="polyline55" />
  <polyline
     clip-path="url(#clip4900)"
     style="stroke:#000000; stroke-width:32; stroke-opacity:1; fill:none"
     points="   11621.9,11385.4 11621.9,11253.3    "
     id="polyline57" />
  <polyline
     clip-path="url(#clip4900)"
     style="stroke:#000000; stroke-width:32; stroke-opacity:1; fill:none"
     points="   14975.5,11385.4 14975.5,11253.3    "
     id="polyline59" />
  <polyline
     clip-path="url(#clip4900)"
     style="stroke:#000000; stroke-width:32; stroke-opacity:1; fill:none"
     points="   18329.1,11385.4 18329.1,11253.3    "
     id="polyline61" />
  <polyline
     clip-path="url(#clip4900)"
     style="stroke:#000000; stroke-width:32; stroke-opacity:1; fill:none"
     points="   1403.56,11073.9 1612.58,11073.9    "
     id="polyline63" />
  <polyline
     clip-path="url(#clip4900)"
     style="stroke:#000000; stroke-width:32; stroke-opacity:1; fill:none"
     points="   1403.56,9460.4 1612.58,9460.4    "
     id="polyline65" />
  <polyline
     clip-path="url(#clip4900)"
     style="stroke:#000000; stroke-width:32; stroke-opacity:1; fill:none"
     points="   1403.56,7846.89 1612.58,7846.89    "
     id="polyline67" />
  <polyline
     clip-path="url(#clip4900)"
     style="stroke:#000000; stroke-width:32; stroke-opacity:1; fill:none"
     points="   1403.56,6233.38 1612.58,6233.38    "
     id="polyline69" />
  <polyline
     clip-path="url(#clip4900)"
     style="stroke:#000000; stroke-width:32; stroke-opacity:1; fill:none"
     points="   1403.56,4619.88 1612.58,4619.88    "
     id="polyline71" />
  <polyline
     clip-path="url(#clip4900)"
     style="stroke:#000000; stroke-width:32; stroke-opacity:1; fill:none"
     points="   1403.56,3006.37 1612.58,3006.37    "
     id="polyline73" />
  <polyline
     clip-path="url(#clip4900)"
     style="stroke:#000000; stroke-width:32; stroke-opacity:1; fill:none"
     points="   1403.56,1392.86 1612.58,1392.86    "
     id="polyline75" />
  <path
     clip-path="url(#clip4900)"
     d="M 0 0 M1561.18 11561.4 Q1532.29 11561.4 1517.66 11589.9 Q1503.22 11618.2 1503.22 11675.3 Q1503.22 11732.1 1517.66 11760.6 Q1532.29 11789 1561.18 11789 Q1590.25 11789 1604.7 11760.6 Q1619.33 11732.1 1619.33 11675.3 Q1619.33 11618.2 1604.7 11589.9 Q1590.25 11561.4 1561.18 11561.4 M1561.18 11531.7 Q1607.66 11531.7 1632.11 11568.6 Q1656.73 11605.3 1656.73 11675.3 Q1656.73 11745.1 1632.11 11781.9 Q1607.66 11818.6 1561.18 11818.6 Q1514.7 11818.6 1490.07 11781.9 Q1465.62 11745.1 1465.62 11675.3 Q1465.62 11605.3 1490.07 11568.6 Q1514.7 11531.7 1561.18 11531.7 Z"
     fill="#000000"
     fill-rule="evenodd"
     fill-opacity="1"
     id="path77" />
  <path
     clip-path="url(#clip4900)"
     d="M 0 0 M4837.81 11781.7 L4898.92 11781.7 L4898.92 11570.8 L4832.44 11584.1 L4832.44 11550.1 L4898.55 11536.7 L4935.96 11536.7 L4935.96 11781.7 L4997.07 11781.7 L4997.07 11813.2 L4837.81 11813.2 L4837.81 11781.7 Z"
     fill="#000000"
     fill-rule="evenodd"
     fill-opacity="1"
     id="path79" />
  <path
     clip-path="url(#clip4900)"
     d="M 0 0 M8225.56 11781.7 L8356.11 11781.7 L8356.11 11813.2 L8180.56 11813.2 L8180.56 11781.7 Q8201.86 11759.7 8238.52 11722.7 Q8275.37 11685.4 8284.82 11674.7 Q8302.78 11654.5 8309.82 11640.6 Q8317.04 11626.5 8317.04 11613 Q8317.04 11591 8301.48 11577.1 Q8286.11 11563.2 8261.3 11563.2 Q8243.71 11563.2 8224.08 11569.3 Q8204.63 11575.4 8182.41 11587.8 L8182.41 11550.1 Q8205 11541 8224.63 11536.4 Q8244.26 11531.7 8260.56 11531.7 Q8303.52 11531.7 8329.08 11553.2 Q8354.63 11574.7 8354.63 11610.6 Q8354.63 11627.7 8348.15 11643 Q8341.85 11658.2 8325 11679 Q8320.37 11684.3 8295.56 11710.1 Q8270.74 11735.6 8225.56 11781.7 Z"
     fill="#000000"
     fill-rule="evenodd"
     fill-opacity="1"
     id="path81" />
  <path
     clip-path="url(#clip4900)"
     d="M 0 0 M11655.9 11664.1 Q11682.7 11669.9 11697.7 11688 Q11712.9 11706.2 11712.9 11732.8 Q11712.9 11773.8 11684.8 11796.2 Q11656.6 11818.6 11604.8 11818.6 Q11587.4 11818.6 11568.9 11815.1 Q11550.5 11811.7 11530.9 11804.9 L11530.9 11768.8 Q11546.5 11777.8 11565 11782.5 Q11583.5 11787.1 11603.7 11787.1 Q11638.9 11787.1 11657.2 11773.2 Q11675.7 11759.3 11675.7 11732.8 Q11675.7 11708.4 11658.5 11694.7 Q11641.5 11680.8 11610.9 11680.8 L11578.7 11680.8 L11578.7 11650.1 L11612.4 11650.1 Q11640 11650.1 11654.6 11639.1 Q11669.2 11628 11669.2 11607.3 Q11669.2 11586 11654 11574.7 Q11639 11563.2 11610.9 11563.2 Q11595.5 11563.2 11577.9 11566.5 Q11560.3 11569.9 11539.2 11576.9 L11539.2 11543.6 Q11560.5 11537.7 11579 11534.7 Q11597.7 11531.7 11614.2 11531.7 Q11656.8 11531.7 11681.6 11551.2 Q11706.5 11570.4 11706.5 11603.4 Q11706.5 11626.4 11693.3 11642.3 Q11680.2 11658 11655.9 11664.1 Z"
     fill="#000000"
     fill-rule="evenodd"
     fill-opacity="1"
     id="path83" />
  <path
     clip-path="url(#clip4900)"
     d="M 0 0 M14999.6 11569.3 L14905.1 11716.9 L14999.6 11716.9 L14999.6 11569.3 M14989.8 11536.7 L15036.8 11536.7 L15036.8 11716.9 L15076.2 11716.9 L15076.2 11748 L15036.8 11748 L15036.8 11813.2 L14999.6 11813.2 L14999.6 11748 L14874.8 11748 L14874.8 11711.9 L14989.8 11536.7 Z"
     fill="#000000"
     fill-rule="evenodd"
     fill-opacity="1"
     id="path85" />
  <path
     clip-path="url(#clip4900)"
     d="M 0 0 M18251.3 11536.7 L18398.1 11536.7 L18398.1 11568.2 L18285.6 11568.2 L18285.6 11636 Q18293.7 11633.2 18301.8 11631.9 Q18310 11630.4 18318.1 11630.4 Q18364.4 11630.4 18391.5 11655.8 Q18418.5 11681.2 18418.5 11724.5 Q18418.5 11769.1 18390.7 11794 Q18363 11818.6 18312.4 11818.6 Q18295 11818.6 18276.8 11815.6 Q18258.9 11812.7 18239.6 11806.7 L18239.6 11769.1 Q18256.3 11778.2 18274.1 11782.7 Q18291.8 11787.1 18311.7 11787.1 Q18343.7 11787.1 18362.4 11770.3 Q18381.1 11753.4 18381.1 11724.5 Q18381.1 11695.6 18362.4 11678.8 Q18343.7 11661.9 18311.7 11661.9 Q18296.7 11661.9 18281.7 11665.3 Q18266.8 11668.6 18251.3 11675.6 L18251.3 11536.7 Z"
     fill="#000000"
     fill-rule="evenodd"
     fill-opacity="1"
     id="path87" />
  <path
     clip-path="url(#clip4900)"
     d="M 0 0 M1116.01 10960.3 Q1087.12 10960.3 1072.49 10988.8 Q1058.04 11017.1 1058.04 11074.2 Q1058.04 11131 1072.49 11159.6 Q1087.12 11187.9 1116.01 11187.9 Q1145.08 11187.9 1159.52 11159.6 Q1174.15 11131 1174.15 11074.2 Q1174.15 11017.1 1159.52 10988.8 Q1145.08 10960.3 1116.01 10960.3 M1116.01 10930.7 Q1162.49 10930.7 1186.93 10967.5 Q1211.56 11004.2 1211.56 11074.2 Q1211.56 11144 1186.93 11180.8 Q1162.49 11217.5 1116.01 11217.5 Q1069.53 11217.5 1044.9 11180.8 Q1020.45 11144 1020.45 11074.2 Q1020.45 11004.2 1044.9 10967.5 Q1069.53 10930.7 1116.01 10930.7 Z"
     fill="#000000"
     fill-rule="evenodd"
     fill-opacity="1"
     id="path89" />
  <path
     clip-path="url(#clip4900)"
     d="M 0 0 M1052.3 9567.16 L1113.41 9567.16 L1113.41 9356.23 L1046.93 9369.57 L1046.93 9335.49 L1113.04 9322.16 L1150.45 9322.16 L1150.45 9567.16 L1211.56 9567.16 L1211.56 9598.64 L1052.3 9598.64 L1052.3 9567.16 Z"
     fill="#000000"
     fill-rule="evenodd"
     fill-opacity="1"
     id="path91" />
  <path
     clip-path="url(#clip4900)"
     d="M 0 0 M1081.01 7953.65 L1211.56 7953.65 L1211.56 7985.13 L1036.01 7985.13 L1036.01 7953.65 Q1057.3 7931.61 1093.97 7894.58 Q1130.82 7857.35 1140.27 7846.61 Q1158.23 7826.43 1165.27 7812.54 Q1172.49 7798.47 1172.49 7784.95 Q1172.49 7762.91 1156.93 7749.02 Q1141.56 7735.13 1116.75 7735.13 Q1099.15 7735.13 1079.53 7741.24 Q1060.08 7747.35 1037.86 7759.76 L1037.86 7721.98 Q1060.45 7712.91 1080.08 7708.28 Q1099.71 7703.65 1116.01 7703.65 Q1158.97 7703.65 1184.52 7725.13 Q1210.08 7746.61 1210.08 7782.54 Q1210.08 7799.58 1203.6 7814.95 Q1197.3 7830.13 1180.45 7850.87 Q1175.82 7856.24 1151.01 7881.98 Q1126.19 7907.54 1081.01 7953.65 Z"
     fill="#000000"
     fill-rule="evenodd"
     fill-opacity="1"
     id="path93" />
  <path
     clip-path="url(#clip4900)"
     d="M 0 0 M1154.52 6222.55 Q1181.38 6228.29 1196.38 6246.44 Q1211.56 6264.59 1211.56 6291.25 Q1211.56 6332.18 1183.41 6354.59 Q1155.27 6376.99 1103.41 6376.99 Q1086.01 6376.99 1067.49 6373.48 Q1049.16 6370.14 1029.53 6363.29 L1029.53 6327.18 Q1045.08 6336.25 1063.6 6340.88 Q1082.12 6345.51 1102.3 6345.51 Q1137.49 6345.51 1155.82 6331.62 Q1174.34 6317.74 1174.34 6291.25 Q1174.34 6266.81 1157.12 6253.11 Q1140.08 6239.22 1109.53 6239.22 L1077.3 6239.22 L1077.3 6208.48 L1111.01 6208.48 Q1138.6 6208.48 1153.23 6197.55 Q1167.86 6186.44 1167.86 6165.7 Q1167.86 6144.4 1152.67 6133.11 Q1137.67 6121.63 1109.53 6121.63 Q1094.15 6121.63 1076.56 6124.96 Q1058.97 6128.29 1037.86 6135.33 L1037.86 6102 Q1059.16 6096.07 1077.67 6093.11 Q1096.38 6090.14 1112.86 6090.14 Q1155.45 6090.14 1180.27 6109.59 Q1205.08 6128.85 1205.08 6161.81 Q1205.08 6184.77 1191.93 6200.7 Q1178.78 6216.44 1154.52 6222.55 Z"
     fill="#000000"
     fill-rule="evenodd"
     fill-opacity="1"
     id="path95" />
  <path
     clip-path="url(#clip4900)"
     d="M 0 0 M1134.9 4514.23 L1040.45 4661.82 L1134.9 4661.82 L1134.9 4514.23 M1125.08 4481.64 L1172.12 4481.64 L1172.12 4661.82 L1211.56 4661.82 L1211.56 4692.93 L1172.12 4692.93 L1172.12 4758.12 L1134.9 4758.12 L1134.9 4692.93 L1010.08 4692.93 L1010.08 4656.82 L1125.08 4481.64 Z"
     fill="#000000"
     fill-rule="evenodd"
     fill-opacity="1"
     id="path97" />
  <path
     clip-path="url(#clip4900)"
     d="M 0 0 M1044.34 2868.13 L1191.19 2868.13 L1191.19 2899.61 L1078.6 2899.61 L1078.6 2967.39 Q1086.75 2964.61 1094.9 2963.31 Q1103.04 2961.83 1111.19 2961.83 Q1157.49 2961.83 1184.52 2987.2 Q1211.56 3012.57 1211.56 3055.91 Q1211.56 3100.54 1183.78 3125.35 Q1156.01 3149.98 1105.45 3149.98 Q1088.04 3149.98 1069.9 3147.02 Q1051.93 3144.05 1032.67 3138.13 L1032.67 3100.54 Q1049.34 3109.61 1067.12 3114.05 Q1084.9 3118.5 1104.71 3118.5 Q1136.75 3118.5 1155.45 3101.65 Q1174.15 3084.79 1174.15 3055.91 Q1174.15 3027.02 1155.45 3010.17 Q1136.75 2993.31 1104.71 2993.31 Q1089.71 2993.31 1074.71 2996.65 Q1059.9 2999.98 1044.34 3007.02 L1044.34 2868.13 Z"
     fill="#000000"
     fill-rule="evenodd"
     fill-opacity="1"
     id="path99" />
  <path
     clip-path="url(#clip4900)"
     d="M 0 0 M1119.34 1377.95 Q1094.15 1377.95 1079.34 1395.18 Q1064.71 1412.4 1064.71 1442.4 Q1064.71 1472.21 1079.34 1489.62 Q1094.15 1506.84 1119.34 1506.84 Q1144.52 1506.84 1159.15 1489.62 Q1173.97 1472.21 1173.97 1442.4 Q1173.97 1412.4 1159.15 1395.18 Q1144.52 1377.95 1119.34 1377.95 M1193.6 1260.73 L1193.6 1294.81 Q1179.52 1288.14 1165.08 1284.62 Q1150.82 1281.1 1136.75 1281.1 Q1099.71 1281.1 1080.08 1306.1 Q1060.64 1331.1 1057.86 1381.66 Q1068.78 1365.55 1085.27 1357.03 Q1101.75 1348.32 1121.56 1348.32 Q1163.23 1348.32 1187.3 1373.7 Q1211.56 1398.88 1211.56 1442.4 Q1211.56 1484.99 1186.38 1510.73 Q1161.19 1536.47 1119.34 1536.47 Q1071.38 1536.47 1046.01 1499.81 Q1020.64 1462.95 1020.64 1393.14 Q1020.64 1327.58 1051.75 1288.7 Q1082.86 1249.62 1135.27 1249.62 Q1149.34 1249.62 1163.6 1252.4 Q1178.04 1255.18 1193.6 1260.73 Z"
     fill="#000000"
     fill-rule="evenodd"
     fill-opacity="1"
     id="path101" />
  <path
     clip-path="url(#clip4900)"
     d="M 0 0 M9952.01 12068.2 L10273.6 12068.2 L10273.6 12111.5 L10138.6 12111.5 L10138.6 12448.4 L10087 12448.4 L10087 12111.5 L9952.01 12111.5 L9952.01 12068.2 Z"
     fill="#000000"
     fill-rule="evenodd"
     fill-opacity="1"
     id="path103" />
  <path
     clip-path="url(#clip4900)"
     d="M 0 0 M353.156 5919.51 L407.391 5919.51 Q383.202 5945.48 371.234 5975.02 Q359.267 6004.3 359.267 6037.4 Q359.267 6102.59 399.243 6137.22 Q438.965 6171.84 514.335 6171.84 Q589.451 6171.84 629.427 6137.22 Q669.149 6102.59 669.149 6037.4 Q669.149 6004.3 657.182 5975.02 Q645.214 5945.48 621.024 5919.51 L674.751 5919.51 Q693.084 5946.5 702.251 5976.8 Q711.417 6006.85 711.417 6040.46 Q711.417 6126.78 658.709 6176.43 Q605.747 6226.08 514.335 6226.08 Q422.669 6226.08 369.961 6176.43 Q316.998 6126.78 316.998 6040.46 Q316.998 6006.34 326.165 5976.29 Q335.077 5945.99 353.156 5919.51 Z"
     fill="#000000"
     fill-rule="evenodd"
     fill-opacity="1"
     id="path105" />
  <path
     clip-path="url(#clip4900)"
     d="M 0 0 M531.905 5633.31 L704.033 5633.31 L704.033 5680.16 L533.432 5680.16 Q492.946 5680.16 472.831 5695.94 Q452.715 5711.73 452.715 5743.31 Q452.715 5781.24 476.905 5803.14 Q501.095 5825.04 542.854 5825.04 L704.033 5825.04 L704.033 5872.15 L307.832 5872.15 L307.832 5825.04 L463.155 5825.04 Q437.437 5808.24 424.706 5785.57 Q411.975 5762.66 411.975 5732.87 Q411.975 5683.72 442.53 5658.51 Q472.831 5633.31 531.905 5633.31 Z"
     fill="#000000"
     fill-rule="evenodd"
     fill-opacity="1"
     id="path107" />
  <path
     clip-path="url(#clip4900)"
     d="M 0 0 M418.85 5584.16 L418.85 5537.31 L704.033 5537.31 L704.033 5584.16 L418.85 5584.16 M307.832 5584.16 L307.832 5537.31 L367.16 5537.31 L367.16 5584.16 L307.832 5584.16 Z"
     fill="#000000"
     fill-rule="evenodd"
     fill-opacity="1"
     id="path109" />
  <polyline
     clip-path="url(#clip4902)"
     style="stroke:#009af9; stroke-width:48; stroke-opacity:1; fill:none"
     points="   1896.54,11073.9 1937.72,11073.9 1978.91,11073.9 2020.09,11073.9 2061.27,11073.9 2102.46,11073.9 2143.64,11073.9 2184.83,11073.9 2226.01,11073.9 2267.2,11073.9    2308.38,11073.9 2349.56,11073.9 2390.75,11073.9 2431.93,11073.9 2473.12,11073.9 2514.3,11073.9 2555.49,11073.9 2596.67,11073.9 2637.85,11073.9 2679.04,11073.9    2720.22,11073.9 2761.41,11073.9 2802.59,11073.9 2843.78,11073.9 2884.96,11073.9 2926.15,11073.9 2967.33,11073.9 3008.51,11073.9 3049.7,11073.9 3090.88,11073.9    3132.07,11073.9 3173.25,11073.9 3214.44,11073.9 3255.62,11073.9 3296.8,11073.9 3337.99,11073.9 3379.17,11073.9 3420.36,11073.9 3461.54,11073.9 3502.73,11073.9    3543.91,11073.9 3585.09,11073.9 3626.28,11073.9 3667.46,11073.9 3708.65,11073.9 3749.83,11073.9 3791.02,11073.9 3832.2,11073.8 3873.38,11073.8 3914.57,11073.8    3955.75,11073.8 3996.94,11073.7 4038.12,11073.7 4079.31,11073.6 4120.49,11073.7 4161.67,11073.6 4202.86,11073.6 4244.04,11073.6 4285.23,11073.5 4326.41,11073.4    4367.6,11073.3 4408.78,11073.2 4449.96,11073.2 4491.15,11073 4532.33,11073 4573.52,11072.9 4614.7,11072.8 4655.89,11072.5 4697.07,11072.6 4738.25,11072.2    4779.44,11072 4820.62,11071.9 4861.81,11071.6 4902.99,11071.5 4944.18,11071.2 4985.36,11070.9 5026.54,11071 5067.73,11070.1 5108.91,11070 5150.1,11069.6    5191.28,11069.4 5232.47,11069 5273.65,11068.5 5314.83,11067.9 5356.02,11068 5397.2,11067.4 5438.39,11066.1 5479.57,11066 5520.76,11065.4 5561.94,11064.3    5603.12,11064.3 5644.31,11063.3 5685.49,11062.7 5726.68,11062.5 5767.86,11060.7 5809.05,11060.3 5850.23,11059.6 5891.41,11058.9 5932.6,11057.3 5973.78,11055.5    6014.97,11056 6056.15,11053.2 6097.34,11051.9 6138.52,11051 6179.7,11050.5 6220.89,11048.2 6262.07,11045 6303.26,11041.1 6344.44,11044 6385.63,11040.2    6426.81,11039.2 6467.99,11036.5 6509.18,11036.8 6550.36,11034.2 6591.55,11030 6632.73,11022.6 6673.92,11026.3 6715.1,11022.2 6756.28,11019.7 6797.47,11016.8    6838.65,11014.8 6879.84,11004 6921.02,11005.3 6962.21,11002 7003.39,10991.6 7044.57,10998 7085.76,10990.4 7126.94,10973.6 7168.13,10973.4 7209.31,10962.8    7250.5,10971.7 7291.68,10959.4 7332.86,10940.7 7374.05,10949.6 7415.23,10911.7 7456.42,10930.4 7497.6,10930.7 7538.79,10923.8 7579.97,10906.4 7621.15,10863.5    7662.34,10854.1 7703.52,10864.9 7744.71,10839.9 7785.89,10812.7 7827.08,10813.3 7868.26,10826.9 7909.44,10787.8 7950.63,10746.5 7991.81,10721.1 8033,10674    8074.18,10661.7 8115.37,10605.9 8156.55,10516.1 8197.73,10433.4 8238.92,10394 8280.1,10493.8 8321.29,10509.4 8362.47,9814.36 8403.66,10365.9 8444.84,9978.06    8486.02,9953.24 8527.21,9844.45 8568.39,8821.25 8609.58,9681.54 8650.76,8954.86 8691.95,9588.21 8733.13,8573.21 8774.31,8458.96 8815.5,8440.03 8856.68,8096.37    8897.87,6489.95 8939.05,7537.02 8980.24,6475.56 9021.42,6643.02 9062.6,6127.56 9103.79,5016.33 9144.97,6196.71 9186.16,4884.08 9227.34,4571.36 9268.53,689.485    9309.71,3918.85 9350.9,1428.29 9392.08,1701.79 9433.26,1027.51 9474.45,2142.31 9515.63,2119.84 9556.82,924.028 9598,2088.81 9639.19,1181.43 9680.37,1328.31    9721.55,951.419 9762.74,1769.88 9803.92,1244.77 9845.11,2334.41 9886.29,2504.83 9927.48,2664.04 9968.66,2692.16 10009.8,2808.2 10051,3480.13 10092.2,3043.93    10133.4,4305.27 10174.6,4243.63 10215.8,4441.72 10256.9,5034.9 10298.1,4893.48 10339.3,5737.74 10380.5,5560.52 10421.7,6129.31 10462.9,6151.83 10504.1,5840.39    10545.2,6450.12 10586.4,6386.67 10627.6,6545.39 10668.8,6669.78 10710,6691.03 10751.2,6934.26 10792.3,7537.9 10833.5,7094.42 10874.7,7058.79 10915.9,7628.44    10957.1,8013.05 10998.3,7849.74 11039.5,8044.47 11080.6,8343.88 11121.8,8032.34 11163,8135.5 11204.2,8131.71 11245.4,8204.21 11286.6,8253.41 11327.7,8403.08    11368.9,8331.8 11410.1,8520.14 11451.3,8745.94 11492.5,8635.18 11533.7,8657.8 11574.8,8862.43 11616,8931.57 11657.2,9027.15 11698.4,9106.53 11739.6,9064.93    11780.8,9093.31 11822,9079.21 11863.1,9247.69 11904.3,9250.56 11945.5,9353.17 11986.7,9453.79 12027.9,9383.83 12069.1,9367.18 12110.2,9321 12151.4,9563.93    12192.6,9456.97 12233.8,9507.28 12275,9470.4 12316.2,9607.02 12357.3,9605.78 12398.5,9712.23 12439.7,9731.66 12480.9,9642 12522.1,9683.04 12563.3,9724.35    12604.5,9828.25 12645.6,9722.02 12686.8,9811.65 12728,9851.19 12769.2,9893.02 12810.4,9906.91 12851.6,9933.47 12892.7,9865.94 12933.9,9958.4 12975.1,9983.54    13016.3,9951.72 13057.5,9994.1 13098.7,9929.24 13139.9,10048.9 13181,10035.2 13222.2,10015.5 13263.4,10017.3 13304.6,10126 13345.8,10125.4 13387,10079.8    13428.1,10097.5 13469.3,10145.5 13510.5,10152.1 13551.7,10168.7 13592.9,10151.8 13634.1,10156.6 13675.2,10215 13716.4,10177.2 13757.6,10220 13798.8,10215.4    13840,10227.3 13881.2,10282 13922.4,10229.4 13963.5,10207.2 14004.7,10275.2 14045.9,10264.5 14087.1,10293.7 14128.3,10289 14169.5,10295.6 14210.6,10367.7    14251.8,10309.5 14293,10329.6 14334.2,10277.5 14375.4,10364.2 14416.6,10333 14457.7,10346.9 14498.9,10360.7 14540.1,10420.3 14581.3,10388.7 14622.5,10383.6    14663.7,10395.8 14704.9,10403.9 14746,10443.2 14787.2,10406.9 14828.4,10437.6 14869.6,10435.1 14910.8,10468.1 14952,10485.1 14993.1,10463.7 15034.3,10477.3    15075.5,10475.3 15116.7,10486.2 15157.9,10472.2 15199.1,10483.4 15240.2,10485.9 15281.4,10486.4 15322.6,10501.1 15363.8,10494 15405,10511.9 15446.2,10496.6    15487.4,10550 15528.5,10544.9 15569.7,10515.6 15610.9,10509.1 15652.1,10537.2 15693.3,10534.3 15734.5,10549.1 15775.6,10552.7 15816.8,10560.6 15858,10567    15899.2,10556.7 15940.4,10573.1 15981.6,10563 16022.8,10589.3 16063.9,10593.4 16105.1,10586.5 16146.3,10618.7 16187.5,10576.1 16228.7,10583.6 16269.9,10586.5    16311,10618.1 16352.2,10616.5 16393.4,10598.4 16434.6,10629.2 16475.8,10607.9 16517,10608.2 16558.1,10638.6 16599.3,10637.5 16640.5,10615.1 16681.7,10644.8    16722.9,10640.9 16764.1,10652.3 16805.3,10645.3 16846.4,10650.2 16887.6,10671.4 16928.8,10657.3 16970,10654.3 17011.2,10661.5 17052.4,10671.4 17093.5,10668.1    17134.7,10668.5 17175.9,10661.4 17217.1,10683.2 17258.3,10681.6 17299.5,10687 17340.6,10686.4 17381.8,10698.3 17423,10692 17464.2,10705.5 17505.4,10696.6    17546.6,10688.6 17587.8,10699.7 17628.9,10693.5 17670.1,10709.4 17711.3,10718.9 17752.5,10720.2 17793.7,10710.7 17834.9,10709.5 17876,10709.5 17917.2,10711.4    17958.4,10734 17999.6,10731.8 18040.8,10731.6 18082,10731.6 18123.1,10732 18164.3,10714.4 18205.5,10739.7 18246.7,10739.2 18287.9,10733.2 18329.1,10731.3       "
     id="polyline111" />
  <polyline
     clip-path="url(#clip4902)"
     style="fill:none;stroke:#074bff;stroke-width:32;stroke-miterlimit:4;stroke-dasharray:128, 64, 32, 64;stroke-dashoffset:0;stroke-opacity:1"
     points="   9598,2088.81 9598,11073.9    "
     id="polyline113"
     transform="matrix(1,0,0,1.0348877,13.061224,-72.873838)" />
  <polyline
     clip-path="url(#clip4900)"
     style="fill:none;stroke:#000000;stroke-width:32;stroke-opacity:1"
     points="   15030.1,2497.63 18246,2497.63 18246,1046.11 15030.1,1046.11 15030.1,2497.63    "
     id="polyline117"
     transform="matrix(1,0,0,0.69735716,0,316.59771)" />
  <polyline
     clip-path="url(#clip4900)"
     style="stroke:#009af9; stroke-width:48; stroke-opacity:1; fill:none"
     points="   15222.1,1529.95 16374.1,1529.95    "
     id="polyline119" />
  <path
     clip-path="url(#clip4900)"
     d="M 0 0 M16789.1 1413.01 L16789.1 1452.45 Q16770.2 1434.86 16748.7 1426.16 Q16727.4 1417.45 16703.3 1417.45 Q16655.9 1417.45 16630.8 1446.53 Q16605.6 1475.42 16605.6 1530.23 Q16605.6 1584.86 16630.8 1613.93 Q16655.9 1642.82 16703.3 1642.82 Q16727.4 1642.82 16748.7 1634.12 Q16770.2 1625.42 16789.1 1607.82 L16789.1 1646.9 Q16769.5 1660.23 16747.4 1666.9 Q16725.6 1673.56 16701.1 1673.56 Q16638.4 1673.56 16602.2 1635.23 Q16566.1 1596.71 16566.1 1530.23 Q16566.1 1463.56 16602.2 1425.23 Q16638.4 1386.71 16701.1 1386.71 Q16725.9 1386.71 16747.8 1393.38 Q16769.8 1399.86 16789.1 1413.01 Z"
     fill="#000000"
     fill-rule="evenodd"
     fill-opacity="1"
     id="path121" />
  <path
     clip-path="url(#clip4900)"
     d="M 0 0 M16997.2 1543.01 L16997.2 1668.19 L16963.2 1668.19 L16963.2 1544.12 Q16963.2 1514.68 16951.7 1500.05 Q16940.2 1485.42 16917.2 1485.42 Q16889.6 1485.42 16873.7 1503.01 Q16857.8 1520.6 16857.8 1550.97 L16857.8 1668.19 L16823.5 1668.19 L16823.5 1380.05 L16857.8 1380.05 L16857.8 1493.01 Q16870 1474.3 16886.5 1465.05 Q16903.2 1455.79 16924.8 1455.79 Q16960.6 1455.79 16978.9 1478.01 Q16997.2 1500.05 16997.2 1543.01 Z"
     fill="#000000"
     fill-rule="evenodd"
     fill-opacity="1"
     id="path123" />
  <path
     clip-path="url(#clip4900)"
     d="M 0 0 M17033 1460.79 L17067.1 1460.79 L17067.1 1668.19 L17033 1668.19 L17033 1460.79 M17033 1380.05 L17067.1 1380.05 L17067.1 1423.19 L17033 1423.19 L17033 1380.05 Z"
     fill="#000000"
     fill-rule="evenodd"
     fill-opacity="1"
     id="path125" />
  <path
     clip-path="url(#clip4900)"
     d="M 0 0 M17260.4 1731.16 L17260.4 1757.64 L17063.3 1757.64 L17063.3 1731.16 L17260.4 1731.16 Z"
     fill="#000000"
     fill-rule="evenodd"
     fill-opacity="1"
     id="path127" />
  <path
     clip-path="url(#clip4900)"
     d="M 0 0 M17428.3 1466.9 L17428.3 1499.12 Q17413.9 1491.71 17398.3 1488.01 Q17382.8 1484.3 17366.1 1484.3 Q17340.8 1484.3 17328 1492.08 Q17315.4 1499.86 17315.4 1515.42 Q17315.4 1527.27 17324.5 1534.12 Q17333.5 1540.79 17360.9 1546.9 L17372.6 1549.49 Q17408.9 1557.27 17424.1 1571.53 Q17439.5 1585.6 17439.5 1610.97 Q17439.5 1639.86 17416.5 1656.71 Q17393.7 1673.56 17353.7 1673.56 Q17337.1 1673.56 17318.9 1670.23 Q17300.9 1667.08 17280.9 1660.6 L17280.9 1625.42 Q17299.8 1635.23 17318.2 1640.23 Q17336.5 1645.04 17354.5 1645.04 Q17378.5 1645.04 17391.5 1636.9 Q17404.5 1628.56 17404.5 1613.56 Q17404.5 1599.67 17395 1592.27 Q17385.8 1584.86 17354.1 1578.01 L17342.2 1575.23 Q17310.6 1568.56 17296.5 1554.86 Q17282.4 1540.97 17282.4 1516.9 Q17282.4 1487.64 17303.2 1471.71 Q17323.9 1455.79 17362 1455.79 Q17380.9 1455.79 17397.6 1458.56 Q17414.3 1461.34 17428.3 1466.9 Z"
     fill="#000000"
     fill-rule="evenodd"
     fill-opacity="1"
     id="path129" />
  <path
     clip-path="url(#clip4900)"
     d="M 0 0 M17475.2 1460.79 L17509.3 1460.79 L17509.3 1668.19 L17475.2 1668.19 L17475.2 1460.79 M17475.2 1380.05 L17509.3 1380.05 L17509.3 1423.19 L17475.2 1423.19 L17475.2 1380.05 Z"
     fill="#000000"
     fill-rule="evenodd"
     fill-opacity="1"
     id="path131" />
  <path
     clip-path="url(#clip4900)"
     d="M 0 0 M17578.7 1401.9 L17578.7 1460.79 L17648.9 1460.79 L17648.9 1487.27 L17578.7 1487.27 L17578.7 1599.86 Q17578.7 1625.23 17585.6 1632.45 Q17592.6 1639.67 17613.9 1639.67 L17648.9 1639.67 L17648.9 1668.19 L17613.9 1668.19 Q17574.5 1668.19 17559.5 1653.56 Q17544.5 1638.75 17544.5 1599.86 L17544.5 1487.27 L17519.5 1487.27 L17519.5 1460.79 L17544.5 1460.79 L17544.5 1401.9 L17578.7 1401.9 Z"
     fill="#000000"
     fill-rule="evenodd"
     fill-opacity="1"
     id="path133" />
  <path
     clip-path="url(#clip4900)"
     d="M 0 0 M17862 1555.97 L17862 1572.64 L17705.4 1572.64 Q17707.6 1607.82 17726.5 1626.34 Q17745.6 1644.67 17779.5 1644.67 Q17799.1 1644.67 17817.4 1639.86 Q17835.9 1635.04 17854.1 1625.42 L17854.1 1657.64 Q17835.8 1665.41 17816.5 1669.49 Q17797.2 1673.56 17777.4 1673.56 Q17727.8 1673.56 17698.7 1644.67 Q17669.8 1615.79 17669.8 1566.53 Q17669.8 1515.6 17697.2 1485.79 Q17724.8 1455.79 17771.5 1455.79 Q17813.3 1455.79 17837.6 1482.82 Q17862 1509.68 17862 1555.97 M17828 1545.97 Q17827.6 1518.01 17812.2 1501.34 Q17797 1484.68 17771.9 1484.68 Q17743.3 1484.68 17726.1 1500.79 Q17709.1 1516.9 17706.5 1546.16 L17828 1545.97 Z"
     fill="#000000"
     fill-rule="evenodd"
     fill-opacity="1"
     id="path135" />
  <text
     xml:space="preserve"
     style="font-style:normal;font-weight:normal;font-size:384px;line-height:1.25;font-family:sans-serif;fill:#000000;fill-opacity:1;stroke:none;stroke-width:4"
     x="9263.8369"
     y="11832.979"
     id="text976"><tspan
       sodipodi:role="line"
       id="tspan974"
       x="9263.8369"
       y="11832.979"
       style="font-size:384px;stroke-width:4">2.40</tspan></text>
  <ellipse
     style="fill:#ff9955;fill-opacity:0.819277;stroke:none;stroke-width:32;stroke-miterlimit:4;stroke-dasharray:128, 64, 32, 64;stroke-dashoffset:0;stroke-opacity:1"
     id="path978"
     cx="9613.0605"
     cy="1972.2449"
     rx="182.85715"
     ry="195.91837" />
</svg>
