<?xml version="1.0" encoding="UTF-8" standalone="no"?>
<svg
   xmlns:dc="http://purl.org/dc/elements/1.1/"
   xmlns:cc="http://creativecommons.org/ns#"
   xmlns:rdf="http://www.w3.org/1999/02/22-rdf-syntax-ns#"
   xmlns:svg="http://www.w3.org/2000/svg"
   xmlns="http://www.w3.org/2000/svg"
   xmlns:sodipodi="http://sodipodi.sourceforge.net/DTD/sodipodi-0.dtd"
   xmlns:inkscape="http://www.inkscape.org/namespaces/inkscape"
   inkscape:version="1.0 (4035a4fb49, 2020-05-01)"
   sodipodi:docname="χ_8.svg"
   id="svg141"
   version="1.1"
   viewBox="0 0 19200 12800"
   height="3200"
   width="4800">
  <metadata
     id="metadata145">
    <rdf:RDF>
      <cc:Work
         rdf:about="">
        <dc:format>image/svg+xml</dc:format>
        <dc:type
           rdf:resource="http://purl.org/dc/dcmitype/StillImage" />
      </cc:Work>
    </rdf:RDF>
  </metadata>
  <sodipodi:namedview
     inkscape:current-layer="svg141"
     inkscape:window-maximized="1"
     inkscape:window-y="-6"
     inkscape:window-x="-6"
     inkscape:cy="1600"
     inkscape:cx="2400"
     inkscape:zoom="0.153125"
     showguides="false"
     showgrid="false"
     id="namedview143"
     inkscape:window-height="658"
     inkscape:window-width="1280"
     inkscape:pageshadow="2"
     inkscape:pageopacity="0"
     guidetolerance="10"
     gridtolerance="10"
     objecttolerance="10"
     borderopacity="1"
     bordercolor="#666666"
     pagecolor="#ffffff" />
  <defs
     id="defs5">
    <clipPath
       id="clip0500">
      <rect
         id="rect2"
         height="12800"
         width="19200"
         y="0"
         x="0" />
    </clipPath>
  </defs>
  <path
     id="path7"
     fill-opacity="1"
     fill-rule="evenodd"
     fill="#ffffff"
     d=" M0 12800 L19200 12800 L19200 0 L0 0  Z   "
     clip-path="url(#clip0500)" />
  <defs
     id="defs12">
    <clipPath
       id="clip0501">
      <rect
         id="rect9"
         height="12800"
         width="13441"
         y="0"
         x="3840" />
    </clipPath>
  </defs>
  <path
     id="path14"
     fill-opacity="1"
     fill-rule="evenodd"
     fill="#ffffff"
     d=" M1688.93 11385.4 L18822 11385.4 L18822 377.953 L1688.93 377.953  Z   "
     clip-path="url(#clip0500)" />
  <defs
     id="defs19">
    <clipPath
       id="clip0502">
      <rect
         id="rect16"
         height="11008"
         width="17134"
         y="377"
         x="1688" />
    </clipPath>
  </defs>
  <polyline
     id="polyline21"
     points="   1843.97,11385.4 1843.97,377.953    "
     style="stroke:#000000; stroke-width:16; stroke-opacity:0.1; fill:none"
     clip-path="url(#clip0502)" />
  <polyline
     id="polyline23"
     points="   5142.6,11385.4 5142.6,377.953    "
     style="stroke:#000000; stroke-width:16; stroke-opacity:0.1; fill:none"
     clip-path="url(#clip0502)" />
  <polyline
     id="polyline25"
     points="   8441.24,11385.4 8441.24,377.953    "
     style="stroke:#000000; stroke-width:16; stroke-opacity:0.1; fill:none"
     clip-path="url(#clip0502)" />
  <polyline
     id="polyline27"
     points="   11739.9,11385.4 11739.9,377.953    "
     style="stroke:#000000; stroke-width:16; stroke-opacity:0.1; fill:none"
     clip-path="url(#clip0502)" />
  <polyline
     id="polyline29"
     points="   15038.5,11385.4 15038.5,377.953    "
     style="stroke:#000000; stroke-width:16; stroke-opacity:0.1; fill:none"
     clip-path="url(#clip0502)" />
  <polyline
     id="polyline31"
     points="   18337.1,11385.4 18337.1,377.953    "
     style="stroke:#000000; stroke-width:16; stroke-opacity:0.1; fill:none"
     clip-path="url(#clip0502)" />
  <polyline
     id="polyline33"
     points="   1688.93,11073.9 18822,11073.9    "
     style="stroke:#000000; stroke-width:16; stroke-opacity:0.1; fill:none"
     clip-path="url(#clip0502)" />
  <polyline
     id="polyline35"
     points="   1688.93,8193.74 18822,8193.74    "
     style="stroke:#000000; stroke-width:16; stroke-opacity:0.1; fill:none"
     clip-path="url(#clip0502)" />
  <polyline
     id="polyline37"
     points="   1688.93,5313.58 18822,5313.58    "
     style="stroke:#000000; stroke-width:16; stroke-opacity:0.1; fill:none"
     clip-path="url(#clip0502)" />
  <polyline
     id="polyline39"
     points="   1688.93,2433.42 18822,2433.42    "
     style="stroke:#000000; stroke-width:16; stroke-opacity:0.1; fill:none"
     clip-path="url(#clip0502)" />
  <polyline
     id="polyline41"
     points="   1688.93,11385.4 18822,11385.4    "
     style="stroke:#000000; stroke-width:32; stroke-opacity:1; fill:none"
     clip-path="url(#clip0500)" />
  <polyline
     id="polyline43"
     points="   1688.93,11385.4 1688.93,377.953    "
     style="stroke:#000000; stroke-width:32; stroke-opacity:1; fill:none"
     clip-path="url(#clip0500)" />
  <polyline
     id="polyline45"
     points="   1843.97,11385.4 1843.97,11253.3    "
     style="stroke:#000000; stroke-width:32; stroke-opacity:1; fill:none"
     clip-path="url(#clip0500)" />
  <polyline
     id="polyline47"
     points="   5142.6,11385.4 5142.6,11253.3    "
     style="stroke:#000000; stroke-width:32; stroke-opacity:1; fill:none"
     clip-path="url(#clip0500)" />
  <polyline
     id="polyline49"
     points="   8441.24,11385.4 8441.24,11253.3    "
     style="stroke:#000000; stroke-width:32; stroke-opacity:1; fill:none"
     clip-path="url(#clip0500)" />
  <polyline
     id="polyline51"
     points="   11739.9,11385.4 11739.9,11253.3    "
     style="stroke:#000000; stroke-width:32; stroke-opacity:1; fill:none"
     clip-path="url(#clip0500)" />
  <polyline
     id="polyline53"
     points="   15038.5,11385.4 15038.5,11253.3    "
     style="stroke:#000000; stroke-width:32; stroke-opacity:1; fill:none"
     clip-path="url(#clip0500)" />
  <polyline
     id="polyline55"
     points="   18337.1,11385.4 18337.1,11253.3    "
     style="stroke:#000000; stroke-width:32; stroke-opacity:1; fill:none"
     clip-path="url(#clip0500)" />
  <polyline
     id="polyline57"
     points="   1688.93,11073.9 1894.53,11073.9    "
     style="stroke:#000000; stroke-width:32; stroke-opacity:1; fill:none"
     clip-path="url(#clip0500)" />
  <polyline
     id="polyline59"
     points="   1688.93,8193.74 1894.53,8193.74    "
     style="stroke:#000000; stroke-width:32; stroke-opacity:1; fill:none"
     clip-path="url(#clip0500)" />
  <polyline
     id="polyline61"
     points="   1688.93,5313.58 1894.53,5313.58    "
     style="stroke:#000000; stroke-width:32; stroke-opacity:1; fill:none"
     clip-path="url(#clip0500)" />
  <polyline
     id="polyline63"
     points="   1688.93,2433.42 1894.53,2433.42    "
     style="stroke:#000000; stroke-width:32; stroke-opacity:1; fill:none"
     clip-path="url(#clip0500)" />
  <path
     id="path65"
     fill-opacity="1"
     fill-rule="evenodd"
     fill="#000000"
     d="M 0 0 M1843.97 11561.4 Q1815.08 11561.4 1800.45 11589.9 Q1786 11618.2 1786 11675.3 Q1786 11732.1 1800.45 11760.6 Q1815.08 11789 1843.97 11789 Q1873.04 11789 1887.48 11760.6 Q1902.11 11732.1 1902.11 11675.3 Q1902.11 11618.2 1887.48 11589.9 Q1873.04 11561.4 1843.97 11561.4 M1843.97 11531.7 Q1890.45 11531.7 1914.89 11568.6 Q1939.52 11605.3 1939.52 11675.3 Q1939.52 11745.1 1914.89 11781.9 Q1890.45 11818.6 1843.97 11818.6 Q1797.49 11818.6 1772.86 11781.9 Q1748.41 11745.1 1748.41 11675.3 Q1748.41 11605.3 1772.86 11568.6 Q1797.49 11531.7 1843.97 11531.7 Z"
     clip-path="url(#clip0500)" />
  <path
     id="path67"
     fill-opacity="1"
     fill-rule="evenodd"
     fill="#000000"
     d="M 0 0 M5065.66 11781.7 L5126.77 11781.7 L5126.77 11570.8 L5060.29 11584.1 L5060.29 11550.1 L5126.4 11536.7 L5163.81 11536.7 L5163.81 11781.7 L5224.92 11781.7 L5224.92 11813.2 L5065.66 11813.2 L5065.66 11781.7 Z"
     clip-path="url(#clip0500)" />
  <path
     id="path69"
     fill-opacity="1"
     fill-rule="evenodd"
     fill="#000000"
     d="M 0 0 M8398.46 11781.7 L8529.02 11781.7 L8529.02 11813.2 L8353.46 11813.2 L8353.46 11781.7 Q8374.76 11759.7 8411.42 11722.7 Q8448.28 11685.4 8457.72 11674.7 Q8475.68 11654.5 8482.72 11640.6 Q8489.94 11626.5 8489.94 11613 Q8489.94 11591 8474.39 11577.1 Q8459.02 11563.2 8434.2 11563.2 Q8416.61 11563.2 8396.98 11569.3 Q8377.54 11575.4 8355.31 11587.8 L8355.31 11550.1 Q8377.91 11541 8397.54 11536.4 Q8417.16 11531.7 8433.46 11531.7 Q8476.42 11531.7 8501.98 11553.2 Q8527.53 11574.7 8527.53 11610.6 Q8527.53 11627.7 8521.05 11643 Q8514.76 11658.2 8497.91 11679 Q8493.28 11684.3 8468.46 11710.1 Q8443.65 11735.6 8398.46 11781.7 Z"
     clip-path="url(#clip0500)" />
  <path
     id="path71"
     fill-opacity="1"
     fill-rule="evenodd"
     fill="#000000"
     d="M 0 0 M11773.9 11664.1 Q11800.7 11669.9 11815.7 11688 Q11830.9 11706.2 11830.9 11732.8 Q11830.9 11773.8 11802.7 11796.2 Q11774.6 11818.6 11722.7 11818.6 Q11705.3 11818.6 11686.8 11815.1 Q11668.5 11811.7 11648.9 11804.9 L11648.9 11768.8 Q11664.4 11777.8 11682.9 11782.5 Q11701.4 11787.1 11721.6 11787.1 Q11756.8 11787.1 11775.2 11773.2 Q11793.7 11759.3 11793.7 11732.8 Q11793.7 11708.4 11776.4 11694.7 Q11759.4 11680.8 11728.9 11680.8 L11696.6 11680.8 L11696.6 11650.1 L11730.3 11650.1 Q11757.9 11650.1 11772.6 11639.1 Q11787.2 11628 11787.2 11607.3 Q11787.2 11586 11772 11574.7 Q11757 11563.2 11728.9 11563.2 Q11713.5 11563.2 11695.9 11566.5 Q11678.3 11569.9 11657.2 11576.9 L11657.2 11543.6 Q11678.5 11537.7 11697 11534.7 Q11715.7 11531.7 11732.2 11531.7 Q11774.8 11531.7 11799.6 11551.2 Q11824.4 11570.4 11824.4 11603.4 Q11824.4 11626.4 11811.3 11642.3 Q11798.1 11658 11773.9 11664.1 Z"
     clip-path="url(#clip0500)" />
  <path
     id="path73"
     fill-opacity="1"
     fill-rule="evenodd"
     fill="#000000"
     d="M 0 0 M15062.6 11569.3 L14968.1 11716.9 L15062.6 11716.9 L15062.6 11569.3 M15052.8 11536.7 L15099.8 11536.7 L15099.8 11716.9 L15139.3 11716.9 L15139.3 11748 L15099.8 11748 L15099.8 11813.2 L15062.6 11813.2 L15062.6 11748 L14937.8 11748 L14937.8 11711.9 L15052.8 11536.7 Z"
     clip-path="url(#clip0500)" />
  <path
     id="path75"
     fill-opacity="1"
     fill-rule="evenodd"
     fill="#000000"
     d="M 0 0 M18259.4 11536.7 L18406.2 11536.7 L18406.2 11568.2 L18293.6 11568.2 L18293.6 11636 Q18301.8 11633.2 18309.9 11631.9 Q18318.1 11630.4 18326.2 11630.4 Q18372.5 11630.4 18399.6 11655.8 Q18426.6 11681.2 18426.6 11724.5 Q18426.6 11769.1 18398.8 11794 Q18371 11818.6 18320.5 11818.6 Q18303.1 11818.6 18284.9 11815.6 Q18267 11812.7 18247.7 11806.7 L18247.7 11769.1 Q18264.4 11778.2 18282.1 11782.7 Q18299.9 11787.1 18319.7 11787.1 Q18351.8 11787.1 18370.5 11770.3 Q18389.2 11753.4 18389.2 11724.5 Q18389.2 11695.6 18370.5 11678.8 Q18351.8 11661.9 18319.7 11661.9 Q18304.7 11661.9 18289.7 11665.3 Q18274.9 11668.6 18259.4 11675.6 L18259.4 11536.7 Z"
     clip-path="url(#clip0500)" />
  <path
     id="path77"
     fill-opacity="1"
     fill-rule="evenodd"
     fill="#000000"
     d="M 0 0 M1105.64 10960.3 Q1076.75 10960.3 1062.12 10988.8 Q1047.67 11017.1 1047.67 11074.2 Q1047.67 11131 1062.12 11159.6 Q1076.75 11187.9 1105.64 11187.9 Q1134.71 11187.9 1149.15 11159.6 Q1163.78 11131 1163.78 11074.2 Q1163.78 11017.1 1149.15 10988.8 Q1134.71 10960.3 1105.64 10960.3 M1105.64 10930.7 Q1152.12 10930.7 1176.56 10967.5 Q1201.19 11004.2 1201.19 11074.2 Q1201.19 11144 1176.56 11180.8 Q1152.12 11217.5 1105.64 11217.5 Q1059.16 11217.5 1034.53 11180.8 Q1010.08 11144 1010.08 11074.2 Q1010.08 11004.2 1034.53 10967.5 Q1059.16 10930.7 1105.64 10930.7 Z"
     clip-path="url(#clip0500)" />
  <path
     id="path79"
     fill-opacity="1"
     fill-rule="evenodd"
     fill="#000000"
     d="M 0 0 M1241.75 11165.1 L1280.82 11165.1 L1280.82 11212.1 L1241.75 11212.1 L1241.75 11165.1 Z"
     clip-path="url(#clip0500)" />
  <path
     id="path81"
     fill-opacity="1"
     fill-rule="evenodd"
     fill="#000000"
     d="M 0 0 M1401.38 10960.3 Q1372.49 10960.3 1357.86 10988.8 Q1343.41 11017.1 1343.41 11074.2 Q1343.41 11131 1357.86 11159.6 Q1372.49 11187.9 1401.38 11187.9 Q1430.45 11187.9 1444.89 11159.6 Q1459.52 11131 1459.52 11074.2 Q1459.52 11017.1 1444.89 10988.8 Q1430.45 10960.3 1401.38 10960.3 M1401.38 10930.7 Q1447.86 10930.7 1472.3 10967.5 Q1496.93 11004.2 1496.93 11074.2 Q1496.93 11144 1472.3 11180.8 Q1447.86 11217.5 1401.38 11217.5 Q1354.89 11217.5 1330.26 11180.8 Q1305.82 11144 1305.82 11074.2 Q1305.82 11004.2 1330.26 10967.5 Q1354.89 10930.7 1401.38 10930.7 Z"
     clip-path="url(#clip0500)" />
  <path
     id="path83"
     fill-opacity="1"
     fill-rule="evenodd"
     fill="#000000"
     d="M 0 0 M1113.6 8080.13 Q1084.71 8080.13 1070.08 8108.65 Q1055.64 8136.99 1055.64 8194.02 Q1055.64 8250.87 1070.08 8279.39 Q1084.71 8307.73 1113.6 8307.73 Q1142.67 8307.73 1157.12 8279.39 Q1171.75 8250.87 1171.75 8194.02 Q1171.75 8136.99 1157.12 8108.65 Q1142.67 8080.13 1113.6 8080.13 M1113.6 8050.5 Q1160.08 8050.5 1184.52 8087.36 Q1209.15 8124.02 1209.15 8194.02 Q1209.15 8263.84 1184.52 8300.69 Q1160.08 8337.35 1113.6 8337.35 Q1067.12 8337.35 1042.49 8300.69 Q1018.04 8263.84 1018.04 8194.02 Q1018.04 8124.02 1042.49 8087.36 Q1067.12 8050.5 1113.6 8050.5 Z"
     clip-path="url(#clip0500)" />
  <path
     id="path85"
     fill-opacity="1"
     fill-rule="evenodd"
     fill="#000000"
     d="M 0 0 M1249.71 8284.95 L1288.78 8284.95 L1288.78 8331.98 L1249.71 8331.98 L1249.71 8284.95 Z"
     clip-path="url(#clip0500)" />
  <path
     id="path87"
     fill-opacity="1"
     fill-rule="evenodd"
     fill="#000000"
     d="M 0 0 M1329.71 8055.5 L1476.56 8055.5 L1476.56 8086.99 L1363.97 8086.99 L1363.97 8154.76 Q1372.12 8151.99 1380.26 8150.69 Q1388.41 8149.21 1396.56 8149.21 Q1442.86 8149.21 1469.89 8174.58 Q1496.93 8199.95 1496.93 8243.28 Q1496.93 8287.91 1469.15 8312.73 Q1441.38 8337.35 1390.82 8337.35 Q1373.41 8337.35 1355.26 8334.39 Q1337.3 8331.43 1318.04 8325.5 L1318.04 8287.91 Q1334.71 8296.98 1352.49 8301.43 Q1370.26 8305.87 1390.08 8305.87 Q1422.12 8305.87 1440.82 8289.02 Q1459.52 8272.17 1459.52 8243.28 Q1459.52 8214.39 1440.82 8197.54 Q1422.12 8180.69 1390.08 8180.69 Q1375.08 8180.69 1360.08 8184.02 Q1345.26 8187.36 1329.71 8194.39 L1329.71 8055.5 Z"
     clip-path="url(#clip0500)" />
  <path
     id="path89"
     fill-opacity="1"
     fill-rule="evenodd"
     fill="#000000"
     d="M 0 0 M1041.93 5420.34 L1103.04 5420.34 L1103.04 5209.42 L1036.56 5222.75 L1036.56 5188.68 L1102.67 5175.34 L1140.08 5175.34 L1140.08 5420.34 L1201.19 5420.34 L1201.19 5451.82 L1041.93 5451.82 L1041.93 5420.34 Z"
     clip-path="url(#clip0500)" />
  <path
     id="path91"
     fill-opacity="1"
     fill-rule="evenodd"
     fill="#000000"
     d="M 0 0 M1241.75 5404.79 L1280.82 5404.79 L1280.82 5451.82 L1241.75 5451.82 L1241.75 5404.79 Z"
     clip-path="url(#clip0500)" />
  <path
     id="path93"
     fill-opacity="1"
     fill-rule="evenodd"
     fill="#000000"
     d="M 0 0 M1401.38 5199.97 Q1372.49 5199.97 1357.86 5228.49 Q1343.41 5256.82 1343.41 5313.86 Q1343.41 5370.71 1357.86 5399.23 Q1372.49 5427.56 1401.38 5427.56 Q1430.45 5427.56 1444.89 5399.23 Q1459.52 5370.71 1459.52 5313.86 Q1459.52 5256.82 1444.89 5228.49 Q1430.45 5199.97 1401.38 5199.97 M1401.38 5170.34 Q1447.86 5170.34 1472.3 5207.19 Q1496.93 5243.86 1496.93 5313.86 Q1496.93 5383.67 1472.3 5420.53 Q1447.86 5457.19 1401.38 5457.19 Q1354.89 5457.19 1330.26 5420.53 Q1305.82 5383.67 1305.82 5313.86 Q1305.82 5243.86 1330.26 5207.19 Q1354.89 5170.34 1401.38 5170.34 Z"
     clip-path="url(#clip0500)" />
  <path
     id="path95"
     fill-opacity="1"
     fill-rule="evenodd"
     fill="#000000"
     d="M 0 0 M1049.9 2540.18 L1111.01 2540.18 L1111.01 2329.25 L1044.53 2342.59 L1044.53 2308.51 L1110.64 2295.18 L1148.04 2295.18 L1148.04 2540.18 L1209.15 2540.18 L1209.15 2571.66 L1049.9 2571.66 L1049.9 2540.18 Z"
     clip-path="url(#clip0500)" />
  <path
     id="path97"
     fill-opacity="1"
     fill-rule="evenodd"
     fill="#000000"
     d="M 0 0 M1249.71 2524.62 L1288.78 2524.62 L1288.78 2571.66 L1249.71 2571.66 L1249.71 2524.62 Z"
     clip-path="url(#clip0500)" />
  <path
     id="path99"
     fill-opacity="1"
     fill-rule="evenodd"
     fill="#000000"
     d="M 0 0 M1329.71 2295.18 L1476.56 2295.18 L1476.56 2326.66 L1363.97 2326.66 L1363.97 2394.44 Q1372.12 2391.66 1380.26 2390.37 Q1388.41 2388.88 1396.56 2388.88 Q1442.86 2388.88 1469.89 2414.25 Q1496.93 2439.62 1496.93 2482.96 Q1496.93 2527.59 1469.15 2552.4 Q1441.38 2577.03 1390.82 2577.03 Q1373.41 2577.03 1355.26 2574.07 Q1337.3 2571.11 1318.04 2565.18 L1318.04 2527.59 Q1334.71 2536.66 1352.49 2541.11 Q1370.26 2545.55 1390.08 2545.55 Q1422.12 2545.55 1440.82 2528.7 Q1459.52 2511.85 1459.52 2482.96 Q1459.52 2454.07 1440.82 2437.22 Q1422.12 2420.37 1390.08 2420.37 Q1375.08 2420.37 1360.08 2423.7 Q1345.26 2427.03 1329.71 2434.07 L1329.71 2295.18 Z"
     clip-path="url(#clip0500)" />
  <path
     id="path101"
     fill-opacity="1"
     fill-rule="evenodd"
     fill="#000000"
     d="M 0 0 M10094.7 12068.2 L10416.3 12068.2 L10416.3 12111.5 L10281.3 12111.5 L10281.3 12448.4 L10229.6 12448.4 L10229.6 12111.5 L10094.7 12111.5 L10094.7 12068.2 Z"
     clip-path="url(#clip0500)" />
  <path
     id="path103"
     fill-opacity="1"
     fill-rule="evenodd"
     fill="#000000"
     d="M 0 0 M353.156 5919.51 L407.391 5919.51 Q383.202 5945.48 371.234 5975.02 Q359.267 6004.3 359.267 6037.4 Q359.267 6102.59 399.243 6137.22 Q438.965 6171.84 514.335 6171.84 Q589.451 6171.84 629.427 6137.22 Q669.149 6102.59 669.149 6037.4 Q669.149 6004.3 657.182 5975.02 Q645.214 5945.48 621.024 5919.51 L674.751 5919.51 Q693.084 5946.5 702.251 5976.8 Q711.417 6006.85 711.417 6040.46 Q711.417 6126.78 658.709 6176.43 Q605.747 6226.08 514.335 6226.08 Q422.669 6226.08 369.961 6176.43 Q316.998 6126.78 316.998 6040.46 Q316.998 6006.34 326.165 5976.29 Q335.077 5945.99 353.156 5919.51 Z"
     clip-path="url(#clip0500)" />
  <path
     id="path105"
     fill-opacity="1"
     fill-rule="evenodd"
     fill="#000000"
     d="M 0 0 M531.905 5633.31 L704.033 5633.31 L704.033 5680.16 L533.432 5680.16 Q492.946 5680.16 472.831 5695.94 Q452.715 5711.73 452.715 5743.31 Q452.715 5781.24 476.905 5803.14 Q501.095 5825.04 542.854 5825.04 L704.033 5825.04 L704.033 5872.15 L307.832 5872.15 L307.832 5825.04 L463.155 5825.04 Q437.437 5808.24 424.706 5785.57 Q411.975 5762.66 411.975 5732.87 Q411.975 5683.72 442.53 5658.51 Q472.831 5633.31 531.905 5633.31 Z"
     clip-path="url(#clip0500)" />
  <path
     id="path107"
     fill-opacity="1"
     fill-rule="evenodd"
     fill="#000000"
     d="M 0 0 M418.85 5584.16 L418.85 5537.31 L704.033 5537.31 L704.033 5584.16 L418.85 5584.16 M307.832 5584.16 L307.832 5537.31 L367.16 5537.31 L367.16 5584.16 L307.832 5584.16 Z"
     clip-path="url(#clip0500)" />
  <polyline
     id="polyline109"
     points="   2173.83,11073.9 2214.34,11073.9 2254.85,11073.9 2295.36,11073.9 2335.87,11073.9 2376.38,11073.9 2416.89,11073.9 2457.4,11073.9 2497.91,11073.9 2538.42,11073.9    2578.93,11073.9 2619.44,11073.9 2659.94,11073.9 2700.45,11073.9 2740.96,11073.9 2781.47,11073.9 2821.98,11073.9 2862.49,11073.9 2903,11073.9 2943.51,11073.9    2984.02,11073.9 3024.53,11073.9 3065.04,11073.9 3105.55,11073.9 3146.06,11073.9 3186.57,11073.9 3227.08,11073.9 3267.59,11073.9 3308.1,11073.9 3348.61,11073.9    3389.12,11073.9 3429.63,11073.9 3470.14,11073.9 3510.65,11073.9 3551.16,11073.9 3591.66,11073.9 3632.17,11073.9 3672.68,11073.9 3713.19,11073.9 3753.7,11073.9    3794.21,11073.8 3834.72,11073.8 3875.23,11073.7 3915.74,11073.9 3956.25,11073.8 3996.76,11073.7 4037.27,11073.8 4077.78,11073.8 4118.29,11073.5 4158.8,11073.9    4199.31,11073.3 4239.82,11073.7 4280.33,11073.2 4320.84,11073 4361.35,11072.6 4401.86,11072.8 4442.37,11072.9 4482.88,11072.8 4523.38,11072 4563.89,11072.4    4604.4,11072.3 4644.91,11072.1 4685.42,11069.7 4725.93,11070 4766.44,11070.4 4806.95,11070.6 4847.46,11069.7 4887.97,11068.6 4928.48,11068.6 4968.99,11068.7    5009.5,11067 5050.01,11066 5090.52,11065.3 5131.03,11063.9 5171.54,11063.9 5212.05,11063.1 5252.56,11063.5 5293.07,11061.4 5333.58,11061.9 5374.09,11058    5414.6,11055.9 5455.11,11055.3 5495.61,11052.3 5536.12,11052.7 5576.63,11050.3 5617.14,11047.8 5657.65,11048.3 5698.16,11045.6 5738.67,11044.4 5779.18,11040.7    5819.69,11037.8 5860.2,11034.6 5900.71,11026.9 5941.22,11028.7 5981.73,11035.2 6022.24,11024.1 6062.75,11022.7 6103.26,11022.4 6143.77,11010.1 6184.28,11009.1    6224.79,11008.4 6265.3,11000 6305.81,10992.8 6346.32,11000.5 6386.83,10987.8 6427.33,10985.4 6467.84,10988 6508.35,10974.4 6548.86,10958.3 6589.37,10960    6629.88,10950.6 6670.39,10951.4 6710.9,10943.7 6751.41,10924.6 6791.92,10924.2 6832.43,10928.7 6872.94,10904.7 6913.45,10889.4 6953.96,10861.3 6994.47,10854.9    7034.98,10859.5 7075.49,10829.7 7116,10841.8 7156.51,10810.4 7197.02,10809.2 7237.53,10801.9 7278.04,10583.4 7318.55,10742.9 7359.05,10771.3 7399.56,10605.7    7440.07,10696.4 7480.58,10660 7521.09,10527.1 7561.6,10593.2 7602.11,10578.2 7642.62,10598.8 7683.13,10513.7 7723.64,10484 7764.15,10340.6 7804.66,10403.1    7845.17,10467.2 7885.68,10232.2 7926.19,10302.8 7966.7,10372.5 8007.21,10030.7 8047.72,9934.87 8088.23,10311.3 8128.74,9917.91 8169.25,9467.39 8209.76,9375.83    8250.27,9224.98 8290.77,9797.16 8331.28,9358.16 8371.79,8791.55 8412.3,9161.46 8452.81,9491.39 8493.32,8077.97 8533.83,9052.04 8574.34,8811.55 8614.85,8602    8655.36,8598.25 8695.87,7753.28 8736.38,8243.12 8776.89,7071.2 8817.4,7369.18 8857.91,6437.83 8898.42,7412.52 8938.93,7348.78 8979.44,6375.85 9019.95,6577.51    9060.46,5526.66 9100.97,5740.21 9141.48,5279.02 9181.99,6081.63 9222.49,5244.43 9263,4800.86 9303.51,3547.01 9344.02,2708.33 9384.53,3651.6 9425.04,4200.82    9465.55,3222.11 9506.06,2990.63 9546.57,2531.38 9587.08,2751 9627.59,2100.82 9668.1,2934.12 9708.61,1752.71 9749.12,2026.44 9789.63,1576.74 9830.14,1032.81    9870.65,1392.12 9911.16,1098.09 9951.67,1404.29 9992.18,1081.78 10032.7,802.178 10073.2,689.485 10113.7,842.621 10154.2,985.541 10194.7,714.167 10235.2,915.708    10275.7,901.868 10316.3,763.64 10356.8,1307.48 10397.3,891.865 10437.8,979.982 10478.3,1365.63 10518.8,1096.59 10559.3,1706.81 10599.8,1499.04 10640.3,1692.45    10680.8,1178.37 10721.3,1855.26 10761.9,1912.87 10802.4,2272.13 10842.9,1812.14 10883.4,2596.06 10923.9,2130.12 10964.4,2686.71 11004.9,2724.29 11045.4,3043.38    11085.9,3101.02 11126.4,3014.31 11167,3427.36 11207.5,3412.21 11248,3267.12 11288.5,3585.41 11329,3872.16 11369.5,3769.4 11410,3567.78 11450.5,4113.39    11491,4198.59 11531.5,4092.5 11572,4462.49 11612.6,4271.35 11653.1,4697.84 11693.6,4901.72 11734.1,4990.91 11774.6,5029.68 11815.1,5052.51 11855.6,5201.78    11896.1,5239.89 11936.6,5384.26 11977.1,5542.41 12017.7,5297.71 12058.2,5679.84 12098.7,5611.22 12139.2,6010.03 12179.7,5888.77 12220.2,5947.88 12260.7,5935.34    12301.2,6080.86 12341.7,6313.61 12382.2,6232.51 12422.8,6633.06 12463.3,6461.08 12503.8,6641.51 12544.3,6493.96 12584.8,6685.52 12625.3,6786.59 12665.8,6919.99    12706.3,6810.04 12746.8,7074.78 12787.3,6914.43 12827.8,6931.56 12868.4,7155.6 12908.9,7269.92 12949.4,7031.37 12989.9,7200.9 13030.4,7263.38 13070.9,7341.22    13111.4,7528.74 13151.9,7519.37 13192.4,7449.13 13232.9,7510.32 13273.5,7660.01 13314,7641.93 13354.5,7657.6 13395,7917.08 13435.5,7668.65 13476,7784.94    13516.5,7889.2 13557,7941.31 13597.5,8037.04 13638,7986.45 13678.5,8003.86 13719.1,8121.98 13759.6,8130.94 13800.1,8146.98 13840.6,8136.21 13881.1,8190.2    13921.6,8313.2 13962.1,8242.6 14002.6,8408.37 14043.1,8299.16 14083.6,8378.72 14124.2,8314.12 14164.7,8261.62 14205.2,8454.66 14245.7,8420.63 14286.2,8562.16    14326.7,8550.14 14367.2,8570.94 14407.7,8682.07 14448.2,8616.38 14488.7,8657.01 14529.2,8622.14 14569.8,8710.39 14610.3,8696.77 14650.8,8675.47 14691.3,8786.73    14731.8,8640.96 14772.3,8719.39 14812.8,8855.26 14853.3,8722.13 14893.8,8758.57 14934.3,8894.26 14974.9,8831.7 15015.4,8943.13 15055.9,8944.79 15096.4,8954.26    15136.9,9043.45 15177.4,9080.2 15217.9,9010.5 15258.4,8947.98 15298.9,9087.39 15339.4,9060.33 15379.9,9122.43 15420.5,9090.95 15461,9100.54 15501.5,9120.73    15542,9095.66 15582.5,9172.73 15623,9196.97 15663.5,9214.82 15704,9230.33 15744.5,9290.35 15785,9243.44 15825.6,9271.97 15866.1,9316.05 15906.6,9320.01    15947.1,9268.68 15987.6,9339.56 16028.1,9353.67 16068.6,9454.98 16109.1,9417.3 16149.6,9375.78 16190.1,9398.81 16230.7,9401.42 16271.2,9394.69 16311.7,9410.99    16352.2,9425.49 16392.7,9426.13 16433.2,9504.33 16473.7,9530.35 16514.2,9522.75 16554.7,9514.55 16595.2,9519.37 16635.7,9565.54 16676.3,9476.73 16716.8,9481.49    16757.3,9562.37 16797.8,9583.47 16838.3,9606.62 16878.8,9568.26 16919.3,9633.63 16959.8,9564.93 17000.3,9638.64 17040.8,9606.37 17081.4,9606.32 17121.9,9649.17    17162.4,9600.77 17202.9,9617.12 17243.4,9631.46 17283.9,9680.46 17324.4,9656.62 17364.9,9736.72 17405.4,9738.6 17445.9,9748.4 17486.4,9781.94 17527,9760.96    17567.5,9763.73 17608,9775.13 17648.5,9746.72 17689,9803.57 17729.5,9795.01 17770,9800.32 17810.5,9809.13 17851,9835.98 17891.5,9819.09 17932.1,9826.86    17972.6,9807.16 18013.1,9837.16 18053.6,9837.88 18094.1,9849.07 18134.6,9812.01 18175.1,9867.03 18215.6,9896.75 18256.1,9883.95 18296.6,9871.33 18337.1,9894.1       "
     style="stroke:#009af9; stroke-width:48; stroke-opacity:1; fill:none"
     clip-path="url(#clip0502)" />
  <polyline
     transform="matrix(1,0,0,1.0308588,0,-28.25763)"
     id="polyline111"
     points="   10235.2,915.708 10235.2,11073.9    "
     style="fill:none;stroke:#1061fc;stroke-width:31.9980406;stroke-opacity:1;stroke-miterlimit:4;stroke-dasharray:127.99216241, 63.99608120999998562, 31.99804059999999950, 63.99608120999998562;stroke-dashoffset:0"
     clip-path="url(#clip0502)" />
  <polyline
     transform="matrix(1,0,0,0.69439037,0,319.70129)"
     id="polyline115"
     points="   15030.1,2497.63 18246,2497.63 18246,1046.11 15030.1,1046.11 15030.1,2497.63    "
     style="fill:none;stroke:#000000;stroke-width:32;stroke-opacity:1"
     clip-path="url(#clip0500)" />
  <polyline
     id="polyline117"
     points="   15222.1,1529.95 16374.1,1529.95    "
     style="stroke:#009af9; stroke-width:48; stroke-opacity:1; fill:none"
     clip-path="url(#clip0500)" />
  <path
     id="path119"
     fill-opacity="1"
     fill-rule="evenodd"
     fill="#000000"
     d="M 0 0 M16789.1 1413.01 L16789.1 1452.45 Q16770.2 1434.86 16748.7 1426.16 Q16727.4 1417.45 16703.3 1417.45 Q16655.9 1417.45 16630.8 1446.53 Q16605.6 1475.42 16605.6 1530.23 Q16605.6 1584.86 16630.8 1613.93 Q16655.9 1642.82 16703.3 1642.82 Q16727.4 1642.82 16748.7 1634.12 Q16770.2 1625.42 16789.1 1607.82 L16789.1 1646.9 Q16769.5 1660.23 16747.4 1666.9 Q16725.6 1673.56 16701.1 1673.56 Q16638.4 1673.56 16602.2 1635.23 Q16566.1 1596.71 16566.1 1530.23 Q16566.1 1463.56 16602.2 1425.23 Q16638.4 1386.71 16701.1 1386.71 Q16725.9 1386.71 16747.8 1393.38 Q16769.8 1399.86 16789.1 1413.01 Z"
     clip-path="url(#clip0500)" />
  <path
     id="path121"
     fill-opacity="1"
     fill-rule="evenodd"
     fill="#000000"
     d="M 0 0 M16997.2 1543.01 L16997.2 1668.19 L16963.2 1668.19 L16963.2 1544.12 Q16963.2 1514.68 16951.7 1500.05 Q16940.2 1485.42 16917.2 1485.42 Q16889.6 1485.42 16873.7 1503.01 Q16857.8 1520.6 16857.8 1550.97 L16857.8 1668.19 L16823.5 1668.19 L16823.5 1380.05 L16857.8 1380.05 L16857.8 1493.01 Q16870 1474.3 16886.5 1465.05 Q16903.2 1455.79 16924.8 1455.79 Q16960.6 1455.79 16978.9 1478.01 Q16997.2 1500.05 16997.2 1543.01 Z"
     clip-path="url(#clip0500)" />
  <path
     id="path123"
     fill-opacity="1"
     fill-rule="evenodd"
     fill="#000000"
     d="M 0 0 M17033 1460.79 L17067.1 1460.79 L17067.1 1668.19 L17033 1668.19 L17033 1460.79 M17033 1380.05 L17067.1 1380.05 L17067.1 1423.19 L17033 1423.19 L17033 1380.05 Z"
     clip-path="url(#clip0500)" />
  <path
     id="path125"
     fill-opacity="1"
     fill-rule="evenodd"
     fill="#000000"
     d="M 0 0 M17260.4 1731.16 L17260.4 1757.64 L17063.3 1757.64 L17063.3 1731.16 L17260.4 1731.16 Z"
     clip-path="url(#clip0500)" />
  <path
     id="path127"
     fill-opacity="1"
     fill-rule="evenodd"
     fill="#000000"
     d="M 0 0 M17428.3 1466.9 L17428.3 1499.12 Q17413.9 1491.71 17398.3 1488.01 Q17382.8 1484.3 17366.1 1484.3 Q17340.8 1484.3 17328 1492.08 Q17315.4 1499.86 17315.4 1515.42 Q17315.4 1527.27 17324.5 1534.12 Q17333.5 1540.79 17360.9 1546.9 L17372.6 1549.49 Q17408.9 1557.27 17424.1 1571.53 Q17439.5 1585.6 17439.5 1610.97 Q17439.5 1639.86 17416.5 1656.71 Q17393.7 1673.56 17353.7 1673.56 Q17337.1 1673.56 17318.9 1670.23 Q17300.9 1667.08 17280.9 1660.6 L17280.9 1625.42 Q17299.8 1635.23 17318.2 1640.23 Q17336.5 1645.04 17354.5 1645.04 Q17378.5 1645.04 17391.5 1636.9 Q17404.5 1628.56 17404.5 1613.56 Q17404.5 1599.67 17395 1592.27 Q17385.8 1584.86 17354.1 1578.01 L17342.2 1575.23 Q17310.6 1568.56 17296.5 1554.86 Q17282.4 1540.97 17282.4 1516.9 Q17282.4 1487.64 17303.2 1471.71 Q17323.9 1455.79 17362 1455.79 Q17380.9 1455.79 17397.6 1458.56 Q17414.3 1461.34 17428.3 1466.9 Z"
     clip-path="url(#clip0500)" />
  <path
     id="path129"
     fill-opacity="1"
     fill-rule="evenodd"
     fill="#000000"
     d="M 0 0 M17475.2 1460.79 L17509.3 1460.79 L17509.3 1668.19 L17475.2 1668.19 L17475.2 1460.79 M17475.2 1380.05 L17509.3 1380.05 L17509.3 1423.19 L17475.2 1423.19 L17475.2 1380.05 Z"
     clip-path="url(#clip0500)" />
  <path
     id="path131"
     fill-opacity="1"
     fill-rule="evenodd"
     fill="#000000"
     d="M 0 0 M17578.7 1401.9 L17578.7 1460.79 L17648.9 1460.79 L17648.9 1487.27 L17578.7 1487.27 L17578.7 1599.86 Q17578.7 1625.23 17585.6 1632.45 Q17592.6 1639.67 17613.9 1639.67 L17648.9 1639.67 L17648.9 1668.19 L17613.9 1668.19 Q17574.5 1668.19 17559.5 1653.56 Q17544.5 1638.75 17544.5 1599.86 L17544.5 1487.27 L17519.5 1487.27 L17519.5 1460.79 L17544.5 1460.79 L17544.5 1401.9 L17578.7 1401.9 Z"
     clip-path="url(#clip0500)" />
  <path
     id="path133"
     fill-opacity="1"
     fill-rule="evenodd"
     fill="#000000"
     d="M 0 0 M17862 1555.97 L17862 1572.64 L17705.4 1572.64 Q17707.6 1607.82 17726.5 1626.34 Q17745.6 1644.67 17779.5 1644.67 Q17799.1 1644.67 17817.4 1639.86 Q17835.9 1635.04 17854.1 1625.42 L17854.1 1657.64 Q17835.8 1665.41 17816.5 1669.49 Q17797.2 1673.56 17777.4 1673.56 Q17727.8 1673.56 17698.7 1644.67 Q17669.8 1615.79 17669.8 1566.53 Q17669.8 1515.6 17697.2 1485.79 Q17724.8 1455.79 17771.5 1455.79 Q17813.3 1455.79 17837.6 1482.82 Q17862 1509.68 17862 1555.97 M17828 1545.97 Q17827.6 1518.01 17812.2 1501.34 Q17797 1484.68 17771.9 1484.68 Q17743.3 1484.68 17726.1 1500.79 Q17709.1 1516.9 17706.5 1546.16 L17828 1545.97 Z"
     clip-path="url(#clip0500)" />
  <text
     id="text972"
     y="11827.102"
     x="9834.2852"
     style="font-style:normal;font-weight:normal;font-size:384px;line-height:1.25;font-family:sans-serif;fill:#000000;fill-opacity:1;stroke:none;stroke-width:4"
     xml:space="preserve"><tspan
       style="font-size:384px;stroke-width:4"
       y="11827.102"
       x="9834.2852"
       id="tspan970"
       sodipodi:role="line">2.54</tspan></text>
  <circle
     r="182.85715"
     cy="940.4082"
     cx="10240"
     id="path976"
     style="fill:#ff9955;fill-opacity:0.819277;stroke:#1061fc;stroke-width:32.488;stroke-miterlimit:4;stroke-dasharray:129.952, 64.976, 32.488, 64.976;stroke-dashoffset:0;stroke-opacity:1" />
</svg>
