<?xml version="1.0" encoding="utf-8"?>
<svg xmlns="http://www.w3.org/2000/svg" xmlns:xlink="http://www.w3.org/1999/xlink" width="4800" height="3200" viewBox="0 0 19200 12800">
<defs>
  <clipPath id="clip6600">
    <rect x="0" y="0" width="19200" height="12800"/>
  </clipPath>
</defs>
<path clip-path="url(#clip6600)" d="
M0 12800 L19200 12800 L19200 0 L0 0  Z
  " fill="#ffffff" fill-rule="evenodd" fill-opacity="1"/>
<defs>
  <clipPath id="clip6601">
    <rect x="3840" y="0" width="13441" height="12800"/>
  </clipPath>
</defs>
<path clip-path="url(#clip6600)" d="
M1905.04 11385.4 L18822 11385.4 L18822 377.953 L1905.04 377.953  Z
  " fill="#ffffff" fill-rule="evenodd" fill-opacity="1"/>
<defs>
  <clipPath id="clip6602">
    <rect x="1905" y="377" width="16918" height="11008"/>
  </clipPath>
</defs>
<polyline clip-path="url(#clip6602)" style="stroke:#000000; stroke-width:16; stroke-opacity:0.1; fill:none" points="
  2058.12,11385.4 2058.12,377.953 
  "/>
<polyline clip-path="url(#clip6602)" style="stroke:#000000; stroke-width:16; stroke-opacity:0.1; fill:none" points="
  5315.15,11385.4 5315.15,377.953 
  "/>
<polyline clip-path="url(#clip6602)" style="stroke:#000000; stroke-width:16; stroke-opacity:0.1; fill:none" points="
  8572.18,11385.4 8572.18,377.953 
  "/>
<polyline clip-path="url(#clip6602)" style="stroke:#000000; stroke-width:16; stroke-opacity:0.1; fill:none" points="
  11829.2,11385.4 11829.2,377.953 
  "/>
<polyline clip-path="url(#clip6602)" style="stroke:#000000; stroke-width:16; stroke-opacity:0.1; fill:none" points="
  15086.2,11385.4 15086.2,377.953 
  "/>
<polyline clip-path="url(#clip6602)" style="stroke:#000000; stroke-width:16; stroke-opacity:0.1; fill:none" points="
  18343.3,11385.4 18343.3,377.953 
  "/>
<polyline clip-path="url(#clip6602)" style="stroke:#000000; stroke-width:16; stroke-opacity:0.1; fill:none" points="
  1905.04,11073.9 18822,11073.9 
  "/>
<polyline clip-path="url(#clip6602)" style="stroke:#000000; stroke-width:16; stroke-opacity:0.1; fill:none" points="
  1905.04,8524 18822,8524 
  "/>
<polyline clip-path="url(#clip6602)" style="stroke:#000000; stroke-width:16; stroke-opacity:0.1; fill:none" points="
  1905.04,5974.09 18822,5974.09 
  "/>
<polyline clip-path="url(#clip6602)" style="stroke:#000000; stroke-width:16; stroke-opacity:0.1; fill:none" points="
  1905.04,3424.19 18822,3424.19 
  "/>
<polyline clip-path="url(#clip6602)" style="stroke:#000000; stroke-width:16; stroke-opacity:0.1; fill:none" points="
  1905.04,874.281 18822,874.281 
  "/>
<polyline clip-path="url(#clip6600)" style="stroke:#000000; stroke-width:32; stroke-opacity:1; fill:none" points="
  1905.04,11385.4 18822,11385.4 
  "/>
<polyline clip-path="url(#clip6600)" style="stroke:#000000; stroke-width:32; stroke-opacity:1; fill:none" points="
  1905.04,11385.4 1905.04,377.953 
  "/>
<polyline clip-path="url(#clip6600)" style="stroke:#000000; stroke-width:32; stroke-opacity:1; fill:none" points="
  2058.12,11385.4 2058.12,11253.3 
  "/>
<polyline clip-path="url(#clip6600)" style="stroke:#000000; stroke-width:32; stroke-opacity:1; fill:none" points="
  5315.15,11385.4 5315.15,11253.3 
  "/>
<polyline clip-path="url(#clip6600)" style="stroke:#000000; stroke-width:32; stroke-opacity:1; fill:none" points="
  8572.18,11385.4 8572.18,11253.3 
  "/>
<polyline clip-path="url(#clip6600)" style="stroke:#000000; stroke-width:32; stroke-opacity:1; fill:none" points="
  11829.2,11385.4 11829.2,11253.3 
  "/>
<polyline clip-path="url(#clip6600)" style="stroke:#000000; stroke-width:32; stroke-opacity:1; fill:none" points="
  15086.2,11385.4 15086.2,11253.3 
  "/>
<polyline clip-path="url(#clip6600)" style="stroke:#000000; stroke-width:32; stroke-opacity:1; fill:none" points="
  18343.3,11385.4 18343.3,11253.3 
  "/>
<polyline clip-path="url(#clip6600)" style="stroke:#000000; stroke-width:32; stroke-opacity:1; fill:none" points="
  1905.04,11073.9 2108.04,11073.9 
  "/>
<polyline clip-path="url(#clip6600)" style="stroke:#000000; stroke-width:32; stroke-opacity:1; fill:none" points="
  1905.04,8524 2108.04,8524 
  "/>
<polyline clip-path="url(#clip6600)" style="stroke:#000000; stroke-width:32; stroke-opacity:1; fill:none" points="
  1905.04,5974.09 2108.04,5974.09 
  "/>
<polyline clip-path="url(#clip6600)" style="stroke:#000000; stroke-width:32; stroke-opacity:1; fill:none" points="
  1905.04,3424.19 2108.04,3424.19 
  "/>
<polyline clip-path="url(#clip6600)" style="stroke:#000000; stroke-width:32; stroke-opacity:1; fill:none" points="
  1905.04,874.281 2108.04,874.281 
  "/>
<path clip-path="url(#clip6600)" d="M 0 0 M2058.12 11561.4 Q2029.23 11561.4 2014.6 11589.9 Q2000.16 11618.2 2000.16 11675.3 Q2000.16 11732.1 2014.6 11760.6 Q2029.23 11789 2058.12 11789 Q2087.19 11789 2101.64 11760.6 Q2116.27 11732.1 2116.27 11675.3 Q2116.27 11618.2 2101.64 11589.9 Q2087.19 11561.4 2058.12 11561.4 M2058.12 11531.7 Q2104.6 11531.7 2129.05 11568.6 Q2153.68 11605.3 2153.68 11675.3 Q2153.68 11745.1 2129.05 11781.9 Q2104.6 11818.6 2058.12 11818.6 Q2011.64 11818.6 1987.01 11781.9 Q1962.57 11745.1 1962.57 11675.3 Q1962.57 11605.3 1987.01 11568.6 Q2011.64 11531.7 2058.12 11531.7 Z" fill="#000000" fill-rule="evenodd" fill-opacity="1" /><path clip-path="url(#clip6600)" d="M 0 0 M5238.21 11781.7 L5299.32 11781.7 L5299.32 11570.8 L5232.84 11584.1 L5232.84 11550.1 L5298.95 11536.7 L5336.35 11536.7 L5336.35 11781.7 L5397.46 11781.7 L5397.46 11813.2 L5238.21 11813.2 L5238.21 11781.7 Z" fill="#000000" fill-rule="evenodd" fill-opacity="1" /><path clip-path="url(#clip6600)" d="M 0 0 M8529.4 11781.7 L8659.96 11781.7 L8659.96 11813.2 L8484.4 11813.2 L8484.4 11781.7 Q8505.7 11759.7 8542.36 11722.7 Q8579.22 11685.4 8588.66 11674.7 Q8606.62 11654.5 8613.66 11640.6 Q8620.88 11626.5 8620.88 11613 Q8620.88 11591 8605.33 11577.1 Q8589.96 11563.2 8565.14 11563.2 Q8547.55 11563.2 8527.92 11569.3 Q8508.47 11575.4 8486.25 11587.8 L8486.25 11550.1 Q8508.85 11541 8528.47 11536.4 Q8548.1 11531.7 8564.4 11531.7 Q8607.36 11531.7 8632.92 11553.2 Q8658.47 11574.7 8658.47 11610.6 Q8658.47 11627.7 8651.99 11643 Q8645.7 11658.2 8628.84 11679 Q8624.21 11684.3 8599.4 11710.1 Q8574.59 11735.6 8529.4 11781.7 Z" fill="#000000" fill-rule="evenodd" fill-opacity="1" /><path clip-path="url(#clip6600)" d="M 0 0 M11863.2 11664.1 Q11890 11669.9 11905 11688 Q11920.2 11706.2 11920.2 11732.8 Q11920.2 11773.8 11892.1 11796.2 Q11863.9 11818.6 11812.1 11818.6 Q11794.7 11818.6 11776.2 11815.1 Q11757.8 11811.7 11738.2 11804.9 L11738.2 11768.8 Q11753.7 11777.8 11772.3 11782.5 Q11790.8 11787.1 11811 11787.1 Q11846.2 11787.1 11864.5 11773.2 Q11883 11759.3 11883 11732.8 Q11883 11708.4 11865.8 11694.7 Q11848.7 11680.8 11818.2 11680.8 L11786 11680.8 L11786 11650.1 L11819.7 11650.1 Q11847.3 11650.1 11861.9 11639.1 Q11876.5 11628 11876.5 11607.3 Q11876.5 11586 11861.3 11574.7 Q11846.3 11563.2 11818.2 11563.2 Q11802.8 11563.2 11785.2 11566.5 Q11767.6 11569.9 11746.5 11576.9 L11746.5 11543.6 Q11767.8 11537.7 11786.3 11534.7 Q11805 11531.7 11821.5 11531.7 Q11864.1 11531.7 11888.9 11551.2 Q11913.7 11570.4 11913.7 11603.4 Q11913.7 11626.4 11900.6 11642.3 Q11887.4 11658 11863.2 11664.1 Z" fill="#000000" fill-rule="evenodd" fill-opacity="1" /><path clip-path="url(#clip6600)" d="M 0 0 M15110.3 11569.3 L15015.9 11716.9 L15110.3 11716.9 L15110.3 11569.3 M15100.5 11536.7 L15147.5 11536.7 L15147.5 11716.9 L15187 11716.9 L15187 11748 L15147.5 11748 L15147.5 11813.2 L15110.3 11813.2 L15110.3 11748 L14985.5 11748 L14985.5 11711.9 L15100.5 11536.7 Z" fill="#000000" fill-rule="evenodd" fill-opacity="1" /><path clip-path="url(#clip6600)" d="M 0 0 M18265.5 11536.7 L18412.3 11536.7 L18412.3 11568.2 L18299.7 11568.2 L18299.7 11636 Q18307.9 11633.2 18316 11631.9 Q18324.2 11630.4 18332.3 11630.4 Q18378.6 11630.4 18405.7 11655.8 Q18432.7 11681.2 18432.7 11724.5 Q18432.7 11769.1 18404.9 11794 Q18377.2 11818.6 18326.6 11818.6 Q18309.2 11818.6 18291 11815.6 Q18273.1 11812.7 18253.8 11806.7 L18253.8 11769.1 Q18270.5 11778.2 18288.3 11782.7 Q18306 11787.1 18325.9 11787.1 Q18357.9 11787.1 18376.6 11770.3 Q18395.3 11753.4 18395.3 11724.5 Q18395.3 11695.6 18376.6 11678.8 Q18357.9 11661.9 18325.9 11661.9 Q18310.9 11661.9 18295.9 11665.3 Q18281 11668.6 18265.5 11675.6 L18265.5 11536.7 Z" fill="#000000" fill-rule="evenodd" fill-opacity="1" /><path clip-path="url(#clip6600)" d="M 0 0 M1105.64 10960.3 Q1076.75 10960.3 1062.12 10988.8 Q1047.67 11017.1 1047.67 11074.2 Q1047.67 11131 1062.12 11159.6 Q1076.75 11187.9 1105.64 11187.9 Q1134.71 11187.9 1149.15 11159.6 Q1163.78 11131 1163.78 11074.2 Q1163.78 11017.1 1149.15 10988.8 Q1134.71 10960.3 1105.64 10960.3 M1105.64 10930.7 Q1152.12 10930.7 1176.56 10967.5 Q1201.19 11004.2 1201.19 11074.2 Q1201.19 11144 1176.56 11180.8 Q1152.12 11217.5 1105.64 11217.5 Q1059.16 11217.5 1034.53 11180.8 Q1010.08 11144 1010.08 11074.2 Q1010.08 11004.2 1034.53 10967.5 Q1059.16 10930.7 1105.64 10930.7 Z" fill="#000000" fill-rule="evenodd" fill-opacity="1" /><path clip-path="url(#clip6600)" d="M 0 0 M1241.75 11165.1 L1280.82 11165.1 L1280.82 11212.1 L1241.75 11212.1 L1241.75 11165.1 Z" fill="#000000" fill-rule="evenodd" fill-opacity="1" /><path clip-path="url(#clip6600)" d="M 0 0 M1401.38 10960.3 Q1372.49 10960.3 1357.86 10988.8 Q1343.41 11017.1 1343.41 11074.2 Q1343.41 11131 1357.86 11159.6 Q1372.49 11187.9 1401.38 11187.9 Q1430.45 11187.9 1444.89 11159.6 Q1459.52 11131 1459.52 11074.2 Q1459.52 11017.1 1444.89 10988.8 Q1430.45 10960.3 1401.38 10960.3 M1401.38 10930.7 Q1447.86 10930.7 1472.3 10967.5 Q1496.93 11004.2 1496.93 11074.2 Q1496.93 11144 1472.3 11180.8 Q1447.86 11217.5 1401.38 11217.5 Q1354.89 11217.5 1330.26 11180.8 Q1305.82 11144 1305.82 11074.2 Q1305.82 11004.2 1330.26 10967.5 Q1354.89 10930.7 1401.38 10930.7 Z" fill="#000000" fill-rule="evenodd" fill-opacity="1" /><path clip-path="url(#clip6600)" d="M 0 0 M1617.49 10960.3 Q1588.6 10960.3 1573.97 10988.8 Q1559.52 11017.1 1559.52 11074.2 Q1559.52 11131 1573.97 11159.6 Q1588.6 11187.9 1617.49 11187.9 Q1646.56 11187.9 1661 11159.6 Q1675.63 11131 1675.63 11074.2 Q1675.63 11017.1 1661 10988.8 Q1646.56 10960.3 1617.49 10960.3 M1617.49 10930.7 Q1663.97 10930.7 1688.41 10967.5 Q1713.04 11004.2 1713.04 11074.2 Q1713.04 11144 1688.41 11180.8 Q1663.97 11217.5 1617.49 11217.5 Q1571 11217.5 1546.37 11180.8 Q1521.93 11144 1521.93 11074.2 Q1521.93 11004.2 1546.37 10967.5 Q1571 10930.7 1617.49 10930.7 Z" fill="#000000" fill-rule="evenodd" fill-opacity="1" /><path clip-path="url(#clip6600)" d="M 0 0 M1126.38 8410.39 Q1097.49 8410.39 1082.86 8438.91 Q1068.41 8467.24 1068.41 8524.28 Q1068.41 8581.13 1082.86 8609.65 Q1097.49 8637.98 1126.38 8637.98 Q1155.45 8637.98 1169.9 8609.65 Q1184.52 8581.13 1184.52 8524.28 Q1184.52 8467.24 1169.9 8438.91 Q1155.45 8410.39 1126.38 8410.39 M1126.38 8380.76 Q1172.86 8380.76 1197.3 8417.61 Q1221.93 8454.28 1221.93 8524.28 Q1221.93 8594.09 1197.3 8630.94 Q1172.86 8667.61 1126.38 8667.61 Q1079.9 8667.61 1055.27 8630.94 Q1030.82 8594.09 1030.82 8524.28 Q1030.82 8454.28 1055.27 8417.61 Q1079.9 8380.76 1126.38 8380.76 Z" fill="#000000" fill-rule="evenodd" fill-opacity="1" /><path clip-path="url(#clip6600)" d="M 0 0 M1262.49 8615.2 L1301.56 8615.2 L1301.56 8662.24 L1262.49 8662.24 L1262.49 8615.2 Z" fill="#000000" fill-rule="evenodd" fill-opacity="1" /><path clip-path="url(#clip6600)" d="M 0 0 M1374.34 8630.76 L1504.89 8630.76 L1504.89 8662.24 L1329.34 8662.24 L1329.34 8630.76 Q1350.63 8608.72 1387.3 8571.68 Q1424.15 8534.46 1433.6 8523.72 Q1451.56 8503.54 1458.6 8489.65 Q1465.82 8475.57 1465.82 8462.06 Q1465.82 8440.02 1450.26 8426.13 Q1434.89 8412.24 1410.08 8412.24 Q1392.49 8412.24 1372.86 8418.35 Q1353.41 8424.46 1331.19 8436.87 L1331.19 8399.09 Q1353.78 8390.02 1373.41 8385.39 Q1393.04 8380.76 1409.34 8380.76 Q1452.3 8380.76 1477.86 8402.24 Q1503.41 8423.72 1503.41 8459.65 Q1503.41 8476.69 1496.93 8492.06 Q1490.63 8507.24 1473.78 8527.98 Q1469.15 8533.35 1444.34 8559.09 Q1419.52 8584.65 1374.34 8630.76 Z" fill="#000000" fill-rule="evenodd" fill-opacity="1" /><path clip-path="url(#clip6600)" d="M 0 0 M1545.82 8385.76 L1692.67 8385.76 L1692.67 8417.24 L1580.08 8417.24 L1580.08 8485.02 Q1588.23 8482.24 1596.37 8480.94 Q1604.52 8479.46 1612.67 8479.46 Q1658.97 8479.46 1686 8504.83 Q1713.04 8530.2 1713.04 8573.54 Q1713.04 8618.17 1685.26 8642.98 Q1657.49 8667.61 1606.93 8667.61 Q1589.52 8667.61 1571.37 8664.65 Q1553.41 8661.68 1534.15 8655.76 L1534.15 8618.17 Q1550.82 8627.24 1568.6 8631.68 Q1586.37 8636.13 1606.19 8636.13 Q1638.23 8636.13 1656.93 8619.28 Q1675.63 8602.43 1675.63 8573.54 Q1675.63 8544.65 1656.93 8527.8 Q1638.23 8510.94 1606.19 8510.94 Q1591.19 8510.94 1576.19 8514.28 Q1561.37 8517.61 1545.82 8524.65 L1545.82 8385.76 Z" fill="#000000" fill-rule="evenodd" fill-opacity="1" /><path clip-path="url(#clip6600)" d="M 0 0 M1113.6 5860.48 Q1084.71 5860.48 1070.08 5889 Q1055.64 5917.33 1055.64 5974.37 Q1055.64 6031.22 1070.08 6059.74 Q1084.71 6088.07 1113.6 6088.07 Q1142.67 6088.07 1157.12 6059.74 Q1171.75 6031.22 1171.75 5974.37 Q1171.75 5917.33 1157.12 5889 Q1142.67 5860.48 1113.6 5860.48 M1113.6 5830.85 Q1160.08 5830.85 1184.52 5867.71 Q1209.15 5904.37 1209.15 5974.37 Q1209.15 6044.19 1184.52 6081.04 Q1160.08 6117.7 1113.6 6117.7 Q1067.12 6117.7 1042.49 6081.04 Q1018.04 6044.19 1018.04 5974.37 Q1018.04 5904.37 1042.49 5867.71 Q1067.12 5830.85 1113.6 5830.85 Z" fill="#000000" fill-rule="evenodd" fill-opacity="1" /><path clip-path="url(#clip6600)" d="M 0 0 M1249.71 6065.3 L1288.78 6065.3 L1288.78 6112.33 L1249.71 6112.33 L1249.71 6065.3 Z" fill="#000000" fill-rule="evenodd" fill-opacity="1" /><path clip-path="url(#clip6600)" d="M 0 0 M1329.71 5835.85 L1476.56 5835.85 L1476.56 5867.33 L1363.97 5867.33 L1363.97 5935.11 Q1372.12 5932.33 1380.26 5931.04 Q1388.41 5929.56 1396.56 5929.56 Q1442.86 5929.56 1469.89 5954.93 Q1496.93 5980.3 1496.93 6023.63 Q1496.93 6068.26 1469.15 6093.07 Q1441.38 6117.7 1390.82 6117.7 Q1373.41 6117.7 1355.26 6114.74 Q1337.3 6111.78 1318.04 6105.85 L1318.04 6068.26 Q1334.71 6077.33 1352.49 6081.78 Q1370.26 6086.22 1390.08 6086.22 Q1422.12 6086.22 1440.82 6069.37 Q1459.52 6052.52 1459.52 6023.63 Q1459.52 5994.74 1440.82 5977.89 Q1422.12 5961.04 1390.08 5961.04 Q1375.08 5961.04 1360.08 5964.37 Q1345.26 5967.7 1329.71 5974.74 L1329.71 5835.85 Z" fill="#000000" fill-rule="evenodd" fill-opacity="1" /><path clip-path="url(#clip6600)" d="M 0 0 M1617.49 5860.48 Q1588.6 5860.48 1573.97 5889 Q1559.52 5917.33 1559.52 5974.37 Q1559.52 6031.22 1573.97 6059.74 Q1588.6 6088.07 1617.49 6088.07 Q1646.56 6088.07 1661 6059.74 Q1675.63 6031.22 1675.63 5974.37 Q1675.63 5917.33 1661 5889 Q1646.56 5860.48 1617.49 5860.48 M1617.49 5830.85 Q1663.97 5830.85 1688.41 5867.71 Q1713.04 5904.37 1713.04 5974.37 Q1713.04 6044.19 1688.41 6081.04 Q1663.97 6117.7 1617.49 6117.7 Q1571 6117.7 1546.37 6081.04 Q1521.93 6044.19 1521.93 5974.37 Q1521.93 5904.37 1546.37 5867.71 Q1571 5830.85 1617.49 5830.85 Z" fill="#000000" fill-rule="evenodd" fill-opacity="1" /><path clip-path="url(#clip6600)" d="M 0 0 M1120.82 3310.58 Q1091.93 3310.58 1077.3 3339.1 Q1062.86 3367.43 1062.86 3424.47 Q1062.86 3481.32 1077.3 3509.84 Q1091.93 3538.17 1120.82 3538.17 Q1149.9 3538.17 1164.34 3509.84 Q1178.97 3481.32 1178.97 3424.47 Q1178.97 3367.43 1164.34 3339.1 Q1149.9 3310.58 1120.82 3310.58 M1120.82 3280.95 Q1167.3 3280.95 1191.75 3317.8 Q1216.38 3354.47 1216.38 3424.47 Q1216.38 3494.28 1191.75 3531.13 Q1167.3 3567.8 1120.82 3567.8 Q1074.34 3567.8 1049.71 3531.13 Q1025.27 3494.28 1025.27 3424.47 Q1025.27 3354.47 1049.71 3317.8 Q1074.34 3280.95 1120.82 3280.95 Z" fill="#000000" fill-rule="evenodd" fill-opacity="1" /><path clip-path="url(#clip6600)" d="M 0 0 M1256.93 3515.39 L1296.01 3515.39 L1296.01 3562.43 L1256.93 3562.43 L1256.93 3515.39 Z" fill="#000000" fill-rule="evenodd" fill-opacity="1" /><path clip-path="url(#clip6600)" d="M 0 0 M1327.12 3285.95 L1504.89 3285.95 L1504.89 3301.87 L1404.52 3562.43 L1365.45 3562.43 L1459.89 3317.43 L1327.12 3317.43 L1327.12 3285.95 Z" fill="#000000" fill-rule="evenodd" fill-opacity="1" /><path clip-path="url(#clip6600)" d="M 0 0 M1545.82 3285.95 L1692.67 3285.95 L1692.67 3317.43 L1580.08 3317.43 L1580.08 3385.21 Q1588.23 3382.43 1596.37 3381.13 Q1604.52 3379.65 1612.67 3379.65 Q1658.97 3379.65 1686 3405.02 Q1713.04 3430.39 1713.04 3473.72 Q1713.04 3518.35 1685.26 3543.17 Q1657.49 3567.8 1606.93 3567.8 Q1589.52 3567.8 1571.37 3564.83 Q1553.41 3561.87 1534.15 3555.95 L1534.15 3518.35 Q1550.82 3527.43 1568.6 3531.87 Q1586.37 3536.32 1606.19 3536.32 Q1638.23 3536.32 1656.93 3519.46 Q1675.63 3502.61 1675.63 3473.72 Q1675.63 3444.84 1656.93 3427.98 Q1638.23 3411.13 1606.19 3411.13 Q1591.19 3411.13 1576.19 3414.47 Q1561.37 3417.8 1545.82 3424.84 L1545.82 3285.95 Z" fill="#000000" fill-rule="evenodd" fill-opacity="1" /><path clip-path="url(#clip6600)" d="M 0 0 M1041.93 981.04 L1103.04 981.04 L1103.04 770.115 L1036.56 783.448 L1036.56 749.374 L1102.67 736.041 L1140.08 736.041 L1140.08 981.04 L1201.19 981.04 L1201.19 1012.52 L1041.93 1012.52 L1041.93 981.04 Z" fill="#000000" fill-rule="evenodd" fill-opacity="1" /><path clip-path="url(#clip6600)" d="M 0 0 M1241.75 965.484 L1280.82 965.484 L1280.82 1012.52 L1241.75 1012.52 L1241.75 965.484 Z" fill="#000000" fill-rule="evenodd" fill-opacity="1" /><path clip-path="url(#clip6600)" d="M 0 0 M1401.38 760.671 Q1372.49 760.671 1357.86 789.189 Q1343.41 817.522 1343.41 874.559 Q1343.41 931.41 1357.86 959.929 Q1372.49 988.262 1401.38 988.262 Q1430.45 988.262 1444.89 959.929 Q1459.52 931.41 1459.52 874.559 Q1459.52 817.522 1444.89 789.189 Q1430.45 760.671 1401.38 760.671 M1401.38 731.041 Q1447.86 731.041 1472.3 767.893 Q1496.93 804.559 1496.93 874.559 Q1496.93 944.373 1472.3 981.225 Q1447.86 1017.89 1401.38 1017.89 Q1354.89 1017.89 1330.26 981.225 Q1305.82 944.373 1305.82 874.559 Q1305.82 804.559 1330.26 767.893 Q1354.89 731.041 1401.38 731.041 Z" fill="#000000" fill-rule="evenodd" fill-opacity="1" /><path clip-path="url(#clip6600)" d="M 0 0 M1617.49 760.671 Q1588.6 760.671 1573.97 789.189 Q1559.52 817.522 1559.52 874.559 Q1559.52 931.41 1573.97 959.929 Q1588.6 988.262 1617.49 988.262 Q1646.56 988.262 1661 959.929 Q1675.63 931.41 1675.63 874.559 Q1675.63 817.522 1661 789.189 Q1646.56 760.671 1617.49 760.671 M1617.49 731.041 Q1663.97 731.041 1688.41 767.893 Q1713.04 804.559 1713.04 874.559 Q1713.04 944.373 1688.41 981.225 Q1663.97 1017.89 1617.49 1017.89 Q1571 1017.89 1546.37 981.225 Q1521.93 944.373 1521.93 874.559 Q1521.93 804.559 1546.37 767.893 Q1571 731.041 1617.49 731.041 Z" fill="#000000" fill-rule="evenodd" fill-opacity="1" /><path clip-path="url(#clip6600)" d="M 0 0 M10202.7 12068.2 L10524.3 12068.2 L10524.3 12111.5 L10389.4 12111.5 L10389.4 12448.4 L10337.7 12448.4 L10337.7 12111.5 L10202.7 12111.5 L10202.7 12068.2 Z" fill="#000000" fill-rule="evenodd" fill-opacity="1" /><path clip-path="url(#clip6600)" d="M 0 0 M522.483 5965.09 L661.765 5965.09 L661.765 5882.59 Q661.765 5841.08 644.705 5821.22 Q627.39 5801.11 591.997 5801.11 Q556.349 5801.11 539.543 5821.22 Q522.483 5841.08 522.483 5882.59 L522.483 5965.09 M366.142 5965.09 L480.724 5965.09 L480.724 5888.95 Q480.724 5851.27 466.72 5832.93 Q452.461 5814.35 423.433 5814.35 Q394.66 5814.35 380.401 5832.93 Q366.142 5851.27 366.142 5888.95 L366.142 5965.09 M323.873 6016.52 L323.873 5885.13 Q323.873 5826.31 348.318 5794.49 Q372.762 5762.66 417.831 5762.66 Q452.715 5762.66 473.34 5778.95 Q493.965 5795.25 499.058 5826.82 Q507.206 5788.88 533.178 5768 Q558.895 5746.87 597.599 5746.87 Q648.524 5746.87 676.279 5781.5 Q704.033 5816.13 704.033 5880.04 L704.033 6016.52 L323.873 6016.52 Z" fill="#000000" fill-rule="evenodd" fill-opacity="1" /><polyline clip-path="url(#clip6602)" style="stroke:#009af9; stroke-width:48; stroke-opacity:1; fill:none" points="
  2383.82,11073.9 2423.82,11073.9 2463.82,11073.9 2503.82,11073.9 2543.82,11073.9 2583.82,11073.9 2623.82,11073.9 2663.81,11073.9 2703.81,11073.9 2743.81,11073.9 
  2783.81,11073.9 2823.81,11073.9 2863.81,11073.9 2903.81,11073.9 2943.8,11073.9 2983.8,11073.9 3023.8,11073.9 3063.8,11073.9 3103.8,11073.9 3143.8,11073.9 
  3183.8,11073.9 3223.79,11073.9 3263.79,11073.9 3303.79,11073.9 3343.79,11073.9 3383.79,11073.9 3423.79,11073.9 3463.79,11073.9 3503.78,11073.9 3543.78,11073.9 
  3583.78,11073.9 3623.78,11073.9 3663.78,11073.9 3703.78,11073.9 3743.78,11073.9 3783.77,11073.9 3823.77,11073.9 3863.77,11073.9 3903.77,11073.9 3943.77,11073.9 
  3983.77,11073.9 4023.77,11073.9 4063.76,11073.9 4103.76,11073.9 4143.76,11073.9 4183.76,11073.9 4223.76,11073.9 4263.76,11073.9 4303.76,11073.9 4343.75,11073.9 
  4383.75,11073.9 4423.75,11073.9 4463.75,11073.9 4503.75,11073.9 4543.75,11073.9 4583.75,11073.9 4623.75,11073.9 4663.74,11073.9 4703.74,11073.9 4743.74,11073.9 
  4783.74,11073.9 4823.74,11073.9 4863.74,11073.9 4903.74,11073.8 4943.73,11073.8 4983.73,11073.8 5023.73,11073.8 5063.73,11073.8 5103.73,11073.8 5143.73,11073.8 
  5183.73,11073.7 5223.72,11073.7 5263.72,11073.7 5303.72,11073.7 5343.72,11073.7 5383.72,11073.7 5423.72,11073.6 5463.72,11073.5 5503.71,11073.5 5543.71,11073.5 
  5583.71,11073.5 5623.71,11073.5 5663.71,11073.4 5703.71,11073.4 5743.71,11073.3 5783.7,11073.2 5823.7,11073.1 5863.7,11073.1 5903.7,11073.1 5943.7,11073 
  5983.7,11072.9 6023.7,11072.8 6063.69,11072.8 6103.69,11072.6 6143.69,11072.5 6183.69,11072.4 6223.69,11072.3 6263.69,11072.2 6303.69,11072 6343.68,11071.9 
  6383.68,11071.6 6423.68,11071.8 6463.68,11071.4 6503.68,11071.2 6543.68,11071.1 6583.68,11071 6623.67,11070.5 6663.67,11070 6703.67,11070.3 6743.67,11069.9 
  6783.67,11069.9 6823.67,11069.5 6863.67,11068.7 6903.67,11068.4 6943.66,11068.4 6983.66,11068.2 7023.66,11067.3 7063.66,11066.9 7103.66,11066.9 7143.66,11065.8 
  7183.66,11065.8 7223.65,11065.3 7263.65,11064.6 7303.65,11064.2 7343.65,11062.3 7383.65,11061.8 7423.65,11061.4 7463.65,11059.1 7503.64,11059.2 7543.64,11058.4 
  7583.64,11057.6 7623.64,11053.1 7663.64,11053.7 7703.64,11055.3 7743.64,11052.9 7783.63,11052.2 7823.63,11049.1 7863.63,11045.6 7903.63,11046.8 7943.63,11045.3 
  7983.63,11039.5 8023.63,11016.7 8063.62,11044.2 8103.62,11026.6 8143.62,11031.6 8183.62,11015.6 8223.62,11025.4 8263.62,11023.8 8303.62,11014.2 8343.61,11002.7 
  8383.61,11015 8423.61,10996.7 8463.61,10967.3 8503.61,10986.1 8543.61,10963.5 8583.61,10972.5 8623.6,10957.1 8663.6,10965.4 8703.6,10963 8743.6,10904.6 
  8783.6,10905 8823.6,10911.7 8863.6,10821.8 8903.6,10847.4 8943.59,10803.2 8983.59,10793.4 9023.59,10710.8 9063.59,10758.9 9103.59,10733.9 9143.59,10572.1 
  9183.59,10627.4 9223.58,10522 9263.58,10474 9303.58,10415.3 9343.58,10355.2 9383.58,10408.4 9423.58,10346 9463.58,10165.6 9503.57,10268.9 9543.57,9848.5 
  9583.57,10005.2 9623.57,9852.09 9663.57,9813.4 9703.57,9706.99 9743.57,9281.74 9783.56,9170.74 9823.56,9475.44 9863.56,9415.74 9903.56,8842.12 9943.56,9034.44 
  9983.56,8462.75 10023.6,8687.97 10063.6,8453.65 10103.6,8321.92 10143.6,8160.68 10183.6,7652.6 10223.5,7610.55 10263.5,7901.79 10303.5,7143.08 10343.5,7415.91 
  10383.5,7464.39 10423.5,7067.41 10463.5,6494.34 10503.5,6058.41 10543.5,6158.72 10583.5,6150.79 10623.5,6351.84 10663.5,6031.2 10703.5,5654.33 10743.5,5571.31 
  10783.5,5313.36 10823.5,5508.92 10863.5,5381.77 10903.5,4885.97 10943.5,5076.04 10983.5,5179.88 11023.5,4735.78 11063.5,4523.95 11103.5,4820.47 11143.5,4785.79 
  11183.5,4270.96 11223.5,3688.67 11263.5,4102.27 11303.5,4683.83 11343.5,4160.45 11383.5,3845.62 11423.5,4064.32 11463.5,3504.34 11503.5,3471.74 11543.5,3517.17 
  11583.5,3606.21 11623.5,3345.74 11663.5,3371.64 11703.5,3969.82 11743.5,3410.38 11783.5,3268.32 11823.5,3520.76 11863.5,2745.08 11903.5,3150.05 11943.5,3556.6 
  11983.5,2364.32 12023.5,2513.75 12063.5,3314.45 12103.5,3044.81 12143.5,2949.71 12183.5,2945.65 12223.5,2535.27 12263.5,2621.52 12303.5,2231.4 12343.5,2718.45 
  12383.5,2569.53 12423.5,2762.52 12463.5,2302.43 12503.5,2708.71 12543.5,2441.41 12583.5,2397.44 12623.5,2425.61 12663.5,2637.32 12703.5,2263.12 12743.5,1973.39 
  12783.5,1897.61 12823.5,2536.04 12863.5,2226.88 12903.5,2519.28 12943.5,2328.16 12983.5,2058.12 13023.5,2186.28 13063.4,2354.02 13103.4,2005.21 13143.4,2560.95 
  13183.4,1825.92 13223.4,1592.73 13263.4,2785.96 13303.4,1742.46 13343.4,2337.41 13383.4,2108.39 13423.4,2131.13 13463.4,1849.76 13503.4,1869.5 13543.4,1474.98 
  13583.4,1849.7 13623.4,1572.82 13663.4,1743.22 13703.4,1732.5 13743.4,1943.55 13783.4,2082.8 13823.4,2322.58 13863.4,1845.81 13903.4,1919.9 13943.4,2206.85 
  13983.4,2247.47 14023.4,1854.96 14063.4,1880.23 14103.4,1834.69 14143.4,1527.15 14183.4,1372.14 14223.4,2017.99 14263.4,1969.05 14303.4,1928.05 14343.4,973.891 
  14383.4,2099.09 14423.4,1943.39 14463.4,1522.44 14503.4,1702.74 14543.4,1568.7 14583.4,1721.32 14623.4,1824.99 14663.4,1422.18 14703.4,1273.51 14743.4,2230.12 
  14783.4,1688.37 14823.4,1090.04 14863.4,1307.37 14903.4,1140.69 14943.4,1701.29 14983.4,1513.63 15023.4,1472.67 15063.4,1306.61 15103.4,1820.54 15143.4,1982.74 
  15183.4,1871.04 15223.4,1598.37 15263.4,1414.01 15303.4,1561.84 15343.4,1702.59 15383.4,1854.95 15423.4,898.927 15463.4,1564.74 15503.4,1348.69 15543.4,1339.69 
  15583.4,1505.7 15623.4,1663.07 15663.4,1332.57 15703.4,1124.1 15743.4,1054.34 15783.4,1439.7 15823.4,1272.83 15863.4,1429.36 15903.3,950.494 15943.3,1196.74 
  15983.3,1208.87 16023.3,1824.44 16063.3,1378.85 16103.3,1412.37 16143.3,1643.9 16183.3,1496.08 16223.3,1039.03 16263.3,1463.43 16303.3,1881.43 16343.3,1256.78 
  16383.3,1561.95 16423.3,1201.38 16463.3,1258.44 16503.3,1548.73 16543.3,1441.03 16583.3,821.416 16623.3,1452.67 16663.3,1367.31 16703.3,1031.65 16743.3,1077.37 
  16783.3,1604.35 16823.3,1494.1 16863.3,1463.41 16903.3,1666.16 16943.3,1693.11 16983.3,1374.48 17023.3,1076.93 17063.3,1297.59 17103.3,1143.82 17143.3,1319.49 
  17183.3,1254.29 17223.3,1511.38 17263.3,1436.9 17303.3,835.207 17343.3,1192.64 17383.3,1759.75 17423.3,1537.34 17463.3,1145.56 17503.3,1478.19 17543.3,1021.76 
  17583.3,1278.77 17623.3,1411.76 17663.3,1295.65 17703.3,1208.03 17743.3,1346.06 17783.3,1459.14 17823.3,1504.99 17863.3,1389.6 17903.3,973.155 17943.3,767.884 
  17983.3,1616.51 18023.3,1347.66 18063.3,1058.46 18103.3,1282.94 18143.3,1200.56 18183.3,1537.77 18223.3,971.117 18263.3,919.554 18303.3,1134.26 18343.3,689.485 
  
  "/>
<path clip-path="url(#clip6600)" d="
M16129.9 2013.79 L18246 2013.79 L18246 1046.11 L16129.9 1046.11  Z
  " fill="#ffffff" fill-rule="evenodd" fill-opacity="1"/>
<polyline clip-path="url(#clip6600)" style="stroke:#000000; stroke-width:32; stroke-opacity:1; fill:none" points="
  16129.9,2013.79 18246,2013.79 18246,1046.11 16129.9,1046.11 16129.9,2013.79 
  "/>
<polyline clip-path="url(#clip6600)" style="stroke:#009af9; stroke-width:48; stroke-opacity:1; fill:none" points="
  16321.9,1529.95 17473.9,1529.95 
  "/>
<path clip-path="url(#clip6600)" d="M 0 0 M17703.3 1536.16 L17703.3 1637.45 L17763.3 1637.45 Q17793.5 1637.45 17808 1625.04 Q17822.6 1612.45 17822.6 1586.71 Q17822.6 1560.79 17808 1548.56 Q17793.5 1536.16 17763.3 1536.16 L17703.3 1536.16 M17703.3 1422.45 L17703.3 1505.79 L17758.7 1505.79 Q17786.1 1505.79 17799.5 1495.6 Q17813 1485.23 17813 1464.12 Q17813 1443.19 17799.5 1432.82 Q17786.1 1422.45 17758.7 1422.45 L17703.3 1422.45 M17665.9 1391.71 L17761.5 1391.71 Q17804.3 1391.71 17827.4 1409.49 Q17850.6 1427.27 17850.6 1460.05 Q17850.6 1485.42 17838.7 1500.42 Q17826.9 1515.42 17803.9 1519.12 Q17831.5 1525.05 17846.7 1543.93 Q17862 1562.64 17862 1590.79 Q17862 1627.82 17836.9 1648.01 Q17811.7 1668.19 17765.2 1668.19 L17665.9 1668.19 L17665.9 1391.71 Z" fill="#000000" fill-rule="evenodd" fill-opacity="1" /></svg>
