<?xml version="1.0" encoding="utf-8"?>
<svg xmlns="http://www.w3.org/2000/svg" xmlns:xlink="http://www.w3.org/1999/xlink" width="4800" height="3200" viewBox="0 0 19200 12800">
<defs>
  <clipPath id="clip8800">
    <rect x="0" y="0" width="19200" height="12800"/>
  </clipPath>
</defs>
<path clip-path="url(#clip8800)" d="
M0 12800 L19200 12800 L19200 0 L0 0  Z
  " fill="#ffffff" fill-rule="evenodd" fill-opacity="1"/>
<defs>
  <clipPath id="clip8801">
    <rect x="3840" y="0" width="13441" height="12800"/>
  </clipPath>
</defs>
<path clip-path="url(#clip8800)" d="
M1905.04 11385.4 L18822 11385.4 L18822 377.953 L1905.04 377.953  Z
  " fill="#ffffff" fill-rule="evenodd" fill-opacity="1"/>
<defs>
  <clipPath id="clip8802">
    <rect x="1905" y="377" width="16918" height="11008"/>
  </clipPath>
</defs>
<polyline clip-path="url(#clip8802)" style="stroke:#000000; stroke-width:16; stroke-opacity:0.1; fill:none" points="
  2058.12,11385.4 2058.12,377.953 
  "/>
<polyline clip-path="url(#clip8802)" style="stroke:#000000; stroke-width:16; stroke-opacity:0.1; fill:none" points="
  5315.15,11385.4 5315.15,377.953 
  "/>
<polyline clip-path="url(#clip8802)" style="stroke:#000000; stroke-width:16; stroke-opacity:0.1; fill:none" points="
  8572.18,11385.4 8572.18,377.953 
  "/>
<polyline clip-path="url(#clip8802)" style="stroke:#000000; stroke-width:16; stroke-opacity:0.1; fill:none" points="
  11829.2,11385.4 11829.2,377.953 
  "/>
<polyline clip-path="url(#clip8802)" style="stroke:#000000; stroke-width:16; stroke-opacity:0.1; fill:none" points="
  15086.2,11385.4 15086.2,377.953 
  "/>
<polyline clip-path="url(#clip8802)" style="stroke:#000000; stroke-width:16; stroke-opacity:0.1; fill:none" points="
  18343.3,11385.4 18343.3,377.953 
  "/>
<polyline clip-path="url(#clip8802)" style="stroke:#000000; stroke-width:16; stroke-opacity:0.1; fill:none" points="
  1905.04,11073.9 18822,11073.9 
  "/>
<polyline clip-path="url(#clip8802)" style="stroke:#000000; stroke-width:16; stroke-opacity:0.1; fill:none" points="
  1905.04,8580.38 18822,8580.38 
  "/>
<polyline clip-path="url(#clip8802)" style="stroke:#000000; stroke-width:16; stroke-opacity:0.1; fill:none" points="
  1905.04,6086.86 18822,6086.86 
  "/>
<polyline clip-path="url(#clip8802)" style="stroke:#000000; stroke-width:16; stroke-opacity:0.1; fill:none" points="
  1905.04,3593.33 18822,3593.33 
  "/>
<polyline clip-path="url(#clip8802)" style="stroke:#000000; stroke-width:16; stroke-opacity:0.1; fill:none" points="
  1905.04,1099.81 18822,1099.81 
  "/>
<polyline clip-path="url(#clip8800)" style="stroke:#000000; stroke-width:32; stroke-opacity:1; fill:none" points="
  1905.04,11385.4 18822,11385.4 
  "/>
<polyline clip-path="url(#clip8800)" style="stroke:#000000; stroke-width:32; stroke-opacity:1; fill:none" points="
  1905.04,11385.4 1905.04,377.953 
  "/>
<polyline clip-path="url(#clip8800)" style="stroke:#000000; stroke-width:32; stroke-opacity:1; fill:none" points="
  2058.12,11385.4 2058.12,11253.3 
  "/>
<polyline clip-path="url(#clip8800)" style="stroke:#000000; stroke-width:32; stroke-opacity:1; fill:none" points="
  5315.15,11385.4 5315.15,11253.3 
  "/>
<polyline clip-path="url(#clip8800)" style="stroke:#000000; stroke-width:32; stroke-opacity:1; fill:none" points="
  8572.18,11385.4 8572.18,11253.3 
  "/>
<polyline clip-path="url(#clip8800)" style="stroke:#000000; stroke-width:32; stroke-opacity:1; fill:none" points="
  11829.2,11385.4 11829.2,11253.3 
  "/>
<polyline clip-path="url(#clip8800)" style="stroke:#000000; stroke-width:32; stroke-opacity:1; fill:none" points="
  15086.2,11385.4 15086.2,11253.3 
  "/>
<polyline clip-path="url(#clip8800)" style="stroke:#000000; stroke-width:32; stroke-opacity:1; fill:none" points="
  18343.3,11385.4 18343.3,11253.3 
  "/>
<polyline clip-path="url(#clip8800)" style="stroke:#000000; stroke-width:32; stroke-opacity:1; fill:none" points="
  1905.04,11073.9 2108.04,11073.9 
  "/>
<polyline clip-path="url(#clip8800)" style="stroke:#000000; stroke-width:32; stroke-opacity:1; fill:none" points="
  1905.04,8580.38 2108.04,8580.38 
  "/>
<polyline clip-path="url(#clip8800)" style="stroke:#000000; stroke-width:32; stroke-opacity:1; fill:none" points="
  1905.04,6086.86 2108.04,6086.86 
  "/>
<polyline clip-path="url(#clip8800)" style="stroke:#000000; stroke-width:32; stroke-opacity:1; fill:none" points="
  1905.04,3593.33 2108.04,3593.33 
  "/>
<polyline clip-path="url(#clip8800)" style="stroke:#000000; stroke-width:32; stroke-opacity:1; fill:none" points="
  1905.04,1099.81 2108.04,1099.81 
  "/>
<path clip-path="url(#clip8800)" d="M 0 0 M2058.12 11561.4 Q2029.23 11561.4 2014.6 11589.9 Q2000.16 11618.2 2000.16 11675.3 Q2000.16 11732.1 2014.6 11760.6 Q2029.23 11789 2058.12 11789 Q2087.19 11789 2101.64 11760.6 Q2116.27 11732.1 2116.27 11675.3 Q2116.27 11618.2 2101.64 11589.9 Q2087.19 11561.4 2058.12 11561.4 M2058.12 11531.7 Q2104.6 11531.7 2129.05 11568.6 Q2153.68 11605.3 2153.68 11675.3 Q2153.68 11745.1 2129.05 11781.9 Q2104.6 11818.6 2058.12 11818.6 Q2011.64 11818.6 1987.01 11781.9 Q1962.57 11745.1 1962.57 11675.3 Q1962.57 11605.3 1987.01 11568.6 Q2011.64 11531.7 2058.12 11531.7 Z" fill="#000000" fill-rule="evenodd" fill-opacity="1" /><path clip-path="url(#clip8800)" d="M 0 0 M5238.21 11781.7 L5299.32 11781.7 L5299.32 11570.8 L5232.84 11584.1 L5232.84 11550.1 L5298.95 11536.7 L5336.35 11536.7 L5336.35 11781.7 L5397.46 11781.7 L5397.46 11813.2 L5238.21 11813.2 L5238.21 11781.7 Z" fill="#000000" fill-rule="evenodd" fill-opacity="1" /><path clip-path="url(#clip8800)" d="M 0 0 M8529.4 11781.7 L8659.96 11781.7 L8659.96 11813.2 L8484.4 11813.2 L8484.4 11781.7 Q8505.7 11759.7 8542.36 11722.7 Q8579.22 11685.4 8588.66 11674.7 Q8606.62 11654.5 8613.66 11640.6 Q8620.88 11626.5 8620.88 11613 Q8620.88 11591 8605.33 11577.1 Q8589.96 11563.2 8565.14 11563.2 Q8547.55 11563.2 8527.92 11569.3 Q8508.47 11575.4 8486.25 11587.8 L8486.25 11550.1 Q8508.85 11541 8528.47 11536.4 Q8548.1 11531.7 8564.4 11531.7 Q8607.36 11531.7 8632.92 11553.2 Q8658.47 11574.7 8658.47 11610.6 Q8658.47 11627.7 8651.99 11643 Q8645.7 11658.2 8628.84 11679 Q8624.21 11684.3 8599.4 11710.1 Q8574.59 11735.6 8529.4 11781.7 Z" fill="#000000" fill-rule="evenodd" fill-opacity="1" /><path clip-path="url(#clip8800)" d="M 0 0 M11863.2 11664.1 Q11890 11669.9 11905 11688 Q11920.2 11706.2 11920.2 11732.8 Q11920.2 11773.8 11892.1 11796.2 Q11863.9 11818.6 11812.1 11818.6 Q11794.7 11818.6 11776.2 11815.1 Q11757.8 11811.7 11738.2 11804.9 L11738.2 11768.8 Q11753.7 11777.8 11772.3 11782.5 Q11790.8 11787.1 11811 11787.1 Q11846.2 11787.1 11864.5 11773.2 Q11883 11759.3 11883 11732.8 Q11883 11708.4 11865.8 11694.7 Q11848.7 11680.8 11818.2 11680.8 L11786 11680.8 L11786 11650.1 L11819.7 11650.1 Q11847.3 11650.1 11861.9 11639.1 Q11876.5 11628 11876.5 11607.3 Q11876.5 11586 11861.3 11574.7 Q11846.3 11563.2 11818.2 11563.2 Q11802.8 11563.2 11785.2 11566.5 Q11767.6 11569.9 11746.5 11576.9 L11746.5 11543.6 Q11767.8 11537.7 11786.3 11534.7 Q11805 11531.7 11821.5 11531.7 Q11864.1 11531.7 11888.9 11551.2 Q11913.7 11570.4 11913.7 11603.4 Q11913.7 11626.4 11900.6 11642.3 Q11887.4 11658 11863.2 11664.1 Z" fill="#000000" fill-rule="evenodd" fill-opacity="1" /><path clip-path="url(#clip8800)" d="M 0 0 M15110.3 11569.3 L15015.9 11716.9 L15110.3 11716.9 L15110.3 11569.3 M15100.5 11536.7 L15147.5 11536.7 L15147.5 11716.9 L15187 11716.9 L15187 11748 L15147.5 11748 L15147.5 11813.2 L15110.3 11813.2 L15110.3 11748 L14985.5 11748 L14985.5 11711.9 L15100.5 11536.7 Z" fill="#000000" fill-rule="evenodd" fill-opacity="1" /><path clip-path="url(#clip8800)" d="M 0 0 M18265.5 11536.7 L18412.3 11536.7 L18412.3 11568.2 L18299.7 11568.2 L18299.7 11636 Q18307.9 11633.2 18316 11631.9 Q18324.2 11630.4 18332.3 11630.4 Q18378.6 11630.4 18405.7 11655.8 Q18432.7 11681.2 18432.7 11724.5 Q18432.7 11769.1 18404.9 11794 Q18377.2 11818.6 18326.6 11818.6 Q18309.2 11818.6 18291 11815.6 Q18273.1 11812.7 18253.8 11806.7 L18253.8 11769.1 Q18270.5 11778.2 18288.3 11782.7 Q18306 11787.1 18325.9 11787.1 Q18357.9 11787.1 18376.6 11770.3 Q18395.3 11753.4 18395.3 11724.5 Q18395.3 11695.6 18376.6 11678.8 Q18357.9 11661.9 18325.9 11661.9 Q18310.9 11661.9 18295.9 11665.3 Q18281 11668.6 18265.5 11675.6 L18265.5 11536.7 Z" fill="#000000" fill-rule="evenodd" fill-opacity="1" /><path clip-path="url(#clip8800)" d="M 0 0 M1105.64 10960.3 Q1076.75 10960.3 1062.12 10988.8 Q1047.67 11017.1 1047.67 11074.2 Q1047.67 11131 1062.12 11159.6 Q1076.75 11187.9 1105.64 11187.9 Q1134.71 11187.9 1149.15 11159.6 Q1163.78 11131 1163.78 11074.2 Q1163.78 11017.1 1149.15 10988.8 Q1134.71 10960.3 1105.64 10960.3 M1105.64 10930.7 Q1152.12 10930.7 1176.56 10967.5 Q1201.19 11004.2 1201.19 11074.2 Q1201.19 11144 1176.56 11180.8 Q1152.12 11217.5 1105.64 11217.5 Q1059.16 11217.5 1034.53 11180.8 Q1010.08 11144 1010.08 11074.2 Q1010.08 11004.2 1034.53 10967.5 Q1059.16 10930.7 1105.64 10930.7 Z" fill="#000000" fill-rule="evenodd" fill-opacity="1" /><path clip-path="url(#clip8800)" d="M 0 0 M1241.75 11165.1 L1280.82 11165.1 L1280.82 11212.1 L1241.75 11212.1 L1241.75 11165.1 Z" fill="#000000" fill-rule="evenodd" fill-opacity="1" /><path clip-path="url(#clip8800)" d="M 0 0 M1401.38 10960.3 Q1372.49 10960.3 1357.86 10988.8 Q1343.41 11017.1 1343.41 11074.2 Q1343.41 11131 1357.86 11159.6 Q1372.49 11187.9 1401.38 11187.9 Q1430.45 11187.9 1444.89 11159.6 Q1459.52 11131 1459.52 11074.2 Q1459.52 11017.1 1444.89 10988.8 Q1430.45 10960.3 1401.38 10960.3 M1401.38 10930.7 Q1447.86 10930.7 1472.3 10967.5 Q1496.93 11004.2 1496.93 11074.2 Q1496.93 11144 1472.3 11180.8 Q1447.86 11217.5 1401.38 11217.5 Q1354.89 11217.5 1330.26 11180.8 Q1305.82 11144 1305.82 11074.2 Q1305.82 11004.2 1330.26 10967.5 Q1354.89 10930.7 1401.38 10930.7 Z" fill="#000000" fill-rule="evenodd" fill-opacity="1" /><path clip-path="url(#clip8800)" d="M 0 0 M1617.49 10960.3 Q1588.6 10960.3 1573.97 10988.8 Q1559.52 11017.1 1559.52 11074.2 Q1559.52 11131 1573.97 11159.6 Q1588.6 11187.9 1617.49 11187.9 Q1646.56 11187.9 1661 11159.6 Q1675.63 11131 1675.63 11074.2 Q1675.63 11017.1 1661 10988.8 Q1646.56 10960.3 1617.49 10960.3 M1617.49 10930.7 Q1663.97 10930.7 1688.41 10967.5 Q1713.04 11004.2 1713.04 11074.2 Q1713.04 11144 1688.41 11180.8 Q1663.97 11217.5 1617.49 11217.5 Q1571 11217.5 1546.37 11180.8 Q1521.93 11144 1521.93 11074.2 Q1521.93 11004.2 1546.37 10967.5 Q1571 10930.7 1617.49 10930.7 Z" fill="#000000" fill-rule="evenodd" fill-opacity="1" /><path clip-path="url(#clip8800)" d="M 0 0 M1126.38 8466.77 Q1097.49 8466.77 1082.86 8495.29 Q1068.41 8523.62 1068.41 8580.66 Q1068.41 8637.51 1082.86 8666.03 Q1097.49 8694.36 1126.38 8694.36 Q1155.45 8694.36 1169.9 8666.03 Q1184.52 8637.51 1184.52 8580.66 Q1184.52 8523.62 1169.9 8495.29 Q1155.45 8466.77 1126.38 8466.77 M1126.38 8437.14 Q1172.86 8437.14 1197.3 8473.99 Q1221.93 8510.66 1221.93 8580.66 Q1221.93 8650.47 1197.3 8687.33 Q1172.86 8723.99 1126.38 8723.99 Q1079.9 8723.99 1055.27 8687.33 Q1030.82 8650.47 1030.82 8580.66 Q1030.82 8510.66 1055.27 8473.99 Q1079.9 8437.14 1126.38 8437.14 Z" fill="#000000" fill-rule="evenodd" fill-opacity="1" /><path clip-path="url(#clip8800)" d="M 0 0 M1262.49 8671.58 L1301.56 8671.58 L1301.56 8718.62 L1262.49 8718.62 L1262.49 8671.58 Z" fill="#000000" fill-rule="evenodd" fill-opacity="1" /><path clip-path="url(#clip8800)" d="M 0 0 M1374.34 8687.14 L1504.89 8687.14 L1504.89 8718.62 L1329.34 8718.62 L1329.34 8687.14 Q1350.63 8665.1 1387.3 8628.07 Q1424.15 8590.84 1433.6 8580.1 Q1451.56 8559.92 1458.6 8546.03 Q1465.82 8531.96 1465.82 8518.44 Q1465.82 8496.4 1450.26 8482.51 Q1434.89 8468.62 1410.08 8468.62 Q1392.49 8468.62 1372.86 8474.73 Q1353.41 8480.84 1331.19 8493.25 L1331.19 8455.47 Q1353.78 8446.4 1373.41 8441.77 Q1393.04 8437.14 1409.34 8437.14 Q1452.3 8437.14 1477.86 8458.62 Q1503.41 8480.1 1503.41 8516.03 Q1503.41 8533.07 1496.93 8548.44 Q1490.63 8563.62 1473.78 8584.36 Q1469.15 8589.73 1444.34 8615.47 Q1419.52 8641.03 1374.34 8687.14 Z" fill="#000000" fill-rule="evenodd" fill-opacity="1" /><path clip-path="url(#clip8800)" d="M 0 0 M1545.82 8442.14 L1692.67 8442.14 L1692.67 8473.62 L1580.08 8473.62 L1580.08 8541.4 Q1588.23 8538.62 1596.37 8537.33 Q1604.52 8535.84 1612.67 8535.84 Q1658.97 8535.84 1686 8561.21 Q1713.04 8586.58 1713.04 8629.92 Q1713.04 8674.55 1685.26 8699.36 Q1657.49 8723.99 1606.93 8723.99 Q1589.52 8723.99 1571.37 8721.03 Q1553.41 8718.07 1534.15 8712.14 L1534.15 8674.55 Q1550.82 8683.62 1568.6 8688.07 Q1586.37 8692.51 1606.19 8692.51 Q1638.23 8692.51 1656.93 8675.66 Q1675.63 8658.81 1675.63 8629.92 Q1675.63 8601.03 1656.93 8584.18 Q1638.23 8567.33 1606.19 8567.33 Q1591.19 8567.33 1576.19 8570.66 Q1561.37 8573.99 1545.82 8581.03 L1545.82 8442.14 Z" fill="#000000" fill-rule="evenodd" fill-opacity="1" /><path clip-path="url(#clip8800)" d="M 0 0 M1113.6 5973.25 Q1084.71 5973.25 1070.08 6001.76 Q1055.64 6030.1 1055.64 6087.13 Q1055.64 6143.99 1070.08 6172.5 Q1084.71 6200.84 1113.6 6200.84 Q1142.67 6200.84 1157.12 6172.5 Q1171.75 6143.99 1171.75 6087.13 Q1171.75 6030.1 1157.12 6001.76 Q1142.67 5973.25 1113.6 5973.25 M1113.6 5943.62 Q1160.08 5943.62 1184.52 5980.47 Q1209.15 6017.13 1209.15 6087.13 Q1209.15 6156.95 1184.52 6193.8 Q1160.08 6230.47 1113.6 6230.47 Q1067.12 6230.47 1042.49 6193.8 Q1018.04 6156.95 1018.04 6087.13 Q1018.04 6017.13 1042.49 5980.47 Q1067.12 5943.62 1113.6 5943.62 Z" fill="#000000" fill-rule="evenodd" fill-opacity="1" /><path clip-path="url(#clip8800)" d="M 0 0 M1249.71 6178.06 L1288.78 6178.06 L1288.78 6225.1 L1249.71 6225.1 L1249.71 6178.06 Z" fill="#000000" fill-rule="evenodd" fill-opacity="1" /><path clip-path="url(#clip8800)" d="M 0 0 M1329.71 5948.62 L1476.56 5948.62 L1476.56 5980.1 L1363.97 5980.1 L1363.97 6047.88 Q1372.12 6045.1 1380.26 6043.8 Q1388.41 6042.32 1396.56 6042.32 Q1442.86 6042.32 1469.89 6067.69 Q1496.93 6093.06 1496.93 6136.39 Q1496.93 6181.02 1469.15 6205.84 Q1441.38 6230.47 1390.82 6230.47 Q1373.41 6230.47 1355.26 6227.5 Q1337.3 6224.54 1318.04 6218.61 L1318.04 6181.02 Q1334.71 6190.1 1352.49 6194.54 Q1370.26 6198.99 1390.08 6198.99 Q1422.12 6198.99 1440.82 6182.13 Q1459.52 6165.28 1459.52 6136.39 Q1459.52 6107.5 1440.82 6090.65 Q1422.12 6073.8 1390.08 6073.8 Q1375.08 6073.8 1360.08 6077.13 Q1345.26 6080.47 1329.71 6087.5 L1329.71 5948.62 Z" fill="#000000" fill-rule="evenodd" fill-opacity="1" /><path clip-path="url(#clip8800)" d="M 0 0 M1617.49 5973.25 Q1588.6 5973.25 1573.97 6001.76 Q1559.52 6030.1 1559.52 6087.13 Q1559.52 6143.99 1573.97 6172.5 Q1588.6 6200.84 1617.49 6200.84 Q1646.56 6200.84 1661 6172.5 Q1675.63 6143.99 1675.63 6087.13 Q1675.63 6030.1 1661 6001.76 Q1646.56 5973.25 1617.49 5973.25 M1617.49 5943.62 Q1663.97 5943.62 1688.41 5980.47 Q1713.04 6017.13 1713.04 6087.13 Q1713.04 6156.95 1688.41 6193.8 Q1663.97 6230.47 1617.49 6230.47 Q1571 6230.47 1546.37 6193.8 Q1521.93 6156.95 1521.93 6087.13 Q1521.93 6017.13 1546.37 5980.47 Q1571 5943.62 1617.49 5943.62 Z" fill="#000000" fill-rule="evenodd" fill-opacity="1" /><path clip-path="url(#clip8800)" d="M 0 0 M1120.82 3479.72 Q1091.93 3479.72 1077.3 3508.24 Q1062.86 3536.57 1062.86 3593.61 Q1062.86 3650.46 1077.3 3678.98 Q1091.93 3707.31 1120.82 3707.31 Q1149.9 3707.31 1164.34 3678.98 Q1178.97 3650.46 1178.97 3593.61 Q1178.97 3536.57 1164.34 3508.24 Q1149.9 3479.72 1120.82 3479.72 M1120.82 3450.09 Q1167.3 3450.09 1191.75 3486.94 Q1216.38 3523.61 1216.38 3593.61 Q1216.38 3663.42 1191.75 3700.28 Q1167.3 3736.94 1120.82 3736.94 Q1074.34 3736.94 1049.71 3700.28 Q1025.27 3663.42 1025.27 3593.61 Q1025.27 3523.61 1049.71 3486.94 Q1074.34 3450.09 1120.82 3450.09 Z" fill="#000000" fill-rule="evenodd" fill-opacity="1" /><path clip-path="url(#clip8800)" d="M 0 0 M1256.93 3684.53 L1296.01 3684.53 L1296.01 3731.57 L1256.93 3731.57 L1256.93 3684.53 Z" fill="#000000" fill-rule="evenodd" fill-opacity="1" /><path clip-path="url(#clip8800)" d="M 0 0 M1327.12 3455.09 L1504.89 3455.09 L1504.89 3471.02 L1404.52 3731.57 L1365.45 3731.57 L1459.89 3486.57 L1327.12 3486.57 L1327.12 3455.09 Z" fill="#000000" fill-rule="evenodd" fill-opacity="1" /><path clip-path="url(#clip8800)" d="M 0 0 M1545.82 3455.09 L1692.67 3455.09 L1692.67 3486.57 L1580.08 3486.57 L1580.08 3554.35 Q1588.23 3551.57 1596.37 3550.28 Q1604.52 3548.79 1612.67 3548.79 Q1658.97 3548.79 1686 3574.17 Q1713.04 3599.54 1713.04 3642.87 Q1713.04 3687.5 1685.26 3712.31 Q1657.49 3736.94 1606.93 3736.94 Q1589.52 3736.94 1571.37 3733.98 Q1553.41 3731.02 1534.15 3725.09 L1534.15 3687.5 Q1550.82 3696.57 1568.6 3701.02 Q1586.37 3705.46 1606.19 3705.46 Q1638.23 3705.46 1656.93 3688.61 Q1675.63 3671.76 1675.63 3642.87 Q1675.63 3613.98 1656.93 3597.13 Q1638.23 3580.28 1606.19 3580.28 Q1591.19 3580.28 1576.19 3583.61 Q1561.37 3586.94 1545.82 3593.98 L1545.82 3455.09 Z" fill="#000000" fill-rule="evenodd" fill-opacity="1" /><path clip-path="url(#clip8800)" d="M 0 0 M1041.93 1206.57 L1103.04 1206.57 L1103.04 995.641 L1036.56 1008.97 L1036.56 974.9 L1102.67 961.567 L1140.08 961.567 L1140.08 1206.57 L1201.19 1206.57 L1201.19 1238.05 L1041.93 1238.05 L1041.93 1206.57 Z" fill="#000000" fill-rule="evenodd" fill-opacity="1" /><path clip-path="url(#clip8800)" d="M 0 0 M1241.75 1191.01 L1280.82 1191.01 L1280.82 1238.05 L1241.75 1238.05 L1241.75 1191.01 Z" fill="#000000" fill-rule="evenodd" fill-opacity="1" /><path clip-path="url(#clip8800)" d="M 0 0 M1401.38 986.196 Q1372.49 986.196 1357.86 1014.71 Q1343.41 1043.05 1343.41 1100.08 Q1343.41 1156.94 1357.86 1185.45 Q1372.49 1213.79 1401.38 1213.79 Q1430.45 1213.79 1444.89 1185.45 Q1459.52 1156.94 1459.52 1100.08 Q1459.52 1043.05 1444.89 1014.71 Q1430.45 986.196 1401.38 986.196 M1401.38 956.567 Q1447.86 956.567 1472.3 993.418 Q1496.93 1030.08 1496.93 1100.08 Q1496.93 1169.9 1472.3 1206.75 Q1447.86 1243.42 1401.38 1243.42 Q1354.89 1243.42 1330.26 1206.75 Q1305.82 1169.9 1305.82 1100.08 Q1305.82 1030.08 1330.26 993.418 Q1354.89 956.567 1401.38 956.567 Z" fill="#000000" fill-rule="evenodd" fill-opacity="1" /><path clip-path="url(#clip8800)" d="M 0 0 M1617.49 986.196 Q1588.6 986.196 1573.97 1014.71 Q1559.52 1043.05 1559.52 1100.08 Q1559.52 1156.94 1573.97 1185.45 Q1588.6 1213.79 1617.49 1213.79 Q1646.56 1213.79 1661 1185.45 Q1675.63 1156.94 1675.63 1100.08 Q1675.63 1043.05 1661 1014.71 Q1646.56 986.196 1617.49 986.196 M1617.49 956.567 Q1663.97 956.567 1688.41 993.418 Q1713.04 1030.08 1713.04 1100.08 Q1713.04 1169.9 1688.41 1206.75 Q1663.97 1243.42 1617.49 1243.42 Q1571 1243.42 1546.37 1206.75 Q1521.93 1169.9 1521.93 1100.08 Q1521.93 1030.08 1546.37 993.418 Q1571 956.567 1617.49 956.567 Z" fill="#000000" fill-rule="evenodd" fill-opacity="1" /><path clip-path="url(#clip8800)" d="M 0 0 M10202.7 12068.2 L10524.3 12068.2 L10524.3 12111.5 L10389.4 12111.5 L10389.4 12448.4 L10337.7 12448.4 L10337.7 12111.5 L10202.7 12111.5 L10202.7 12068.2 Z" fill="#000000" fill-rule="evenodd" fill-opacity="1" /><path clip-path="url(#clip8800)" d="M 0 0 M522.483 5965.09 L661.765 5965.09 L661.765 5882.59 Q661.765 5841.08 644.705 5821.22 Q627.39 5801.11 591.997 5801.11 Q556.349 5801.11 539.543 5821.22 Q522.483 5841.08 522.483 5882.59 L522.483 5965.09 M366.142 5965.09 L480.724 5965.09 L480.724 5888.95 Q480.724 5851.27 466.72 5832.93 Q452.461 5814.35 423.433 5814.35 Q394.66 5814.35 380.401 5832.93 Q366.142 5851.27 366.142 5888.95 L366.142 5965.09 M323.873 6016.52 L323.873 5885.13 Q323.873 5826.31 348.318 5794.49 Q372.762 5762.66 417.831 5762.66 Q452.715 5762.66 473.34 5778.95 Q493.965 5795.25 499.058 5826.82 Q507.206 5788.88 533.178 5768 Q558.895 5746.87 597.599 5746.87 Q648.524 5746.87 676.279 5781.5 Q704.033 5816.13 704.033 5880.04 L704.033 6016.52 L323.873 6016.52 Z" fill="#000000" fill-rule="evenodd" fill-opacity="1" /><polyline clip-path="url(#clip8802)" style="stroke:#009af9; stroke-width:48; stroke-opacity:1; fill:none" points="
  2383.82,11073.9 2423.82,11073.9 2463.82,11073.9 2503.82,11073.9 2543.82,11073.9 2583.82,11073.9 2623.82,11073.9 2663.81,11073.9 2703.81,11073.9 2743.81,11073.9 
  2783.81,11073.9 2823.81,11073.9 2863.81,11073.9 2903.81,11073.9 2943.8,11073.9 2983.8,11073.9 3023.8,11073.9 3063.8,11073.9 3103.8,11073.9 3143.8,11073.9 
  3183.8,11073.9 3223.79,11073.9 3263.79,11073.9 3303.79,11073.9 3343.79,11073.9 3383.79,11073.9 3423.79,11073.9 3463.79,11073.9 3503.78,11073.9 3543.78,11073.9 
  3583.78,11073.9 3623.78,11073.9 3663.78,11073.9 3703.78,11073.9 3743.78,11073.9 3783.77,11073.9 3823.77,11073.9 3863.77,11073.9 3903.77,11073.9 3943.77,11073.9 
  3983.77,11073.9 4023.77,11073.9 4063.76,11073.9 4103.76,11073.9 4143.76,11073.9 4183.76,11073.9 4223.76,11073.9 4263.76,11073.9 4303.76,11073.9 4343.75,11073.9 
  4383.75,11073.9 4423.75,11073.9 4463.75,11073.9 4503.75,11073.9 4543.75,11073.9 4583.75,11073.9 4623.75,11073.9 4663.74,11073.9 4703.74,11073.9 4743.74,11073.9 
  4783.74,11073.9 4823.74,11073.9 4863.74,11073.9 4903.74,11073.9 4943.73,11073.9 4983.73,11073.9 5023.73,11073.9 5063.73,11073.8 5103.73,11073.8 5143.73,11073.8 
  5183.73,11073.8 5223.72,11073.8 5263.72,11073.8 5303.72,11073.8 5343.72,11073.8 5383.72,11073.8 5423.72,11073.7 5463.72,11073.7 5503.71,11073.7 5543.71,11073.7 
  5583.71,11073.7 5623.71,11073.6 5663.71,11073.6 5703.71,11073.6 5743.71,11073.6 5783.7,11073.5 5823.7,11073.5 5863.7,11073.5 5903.7,11073.4 5943.7,11073.4 
  5983.7,11073.3 6023.7,11073.3 6063.69,11073.3 6103.69,11073.2 6143.69,11073.1 6183.69,11073 6223.69,11073.1 6263.69,11072.9 6303.69,11072.9 6343.68,11072.8 
  6383.68,11072.6 6423.68,11072.6 6463.68,11072.5 6503.68,11072.5 6543.68,11072.3 6583.68,11072.2 6623.67,11072 6663.67,11071.9 6703.67,11071.8 6743.67,11071.7 
  6783.67,11071.5 6823.67,11071.3 6863.67,11071.1 6903.67,11070.2 6943.66,11070.7 6983.66,11070.4 7023.66,11070.1 7063.66,11069.9 7103.66,11069.8 7143.66,11069.1 
  7183.66,11069.3 7223.65,11068.9 7263.65,11068.4 7303.65,11068.1 7343.65,11068 7383.65,11067.4 7423.65,11066.8 7463.65,11066.2 7503.64,11064.7 7543.64,11065.6 
  7583.64,11065.2 7623.64,11063.5 7663.64,11063.9 7703.64,11061 7743.64,11062.6 7783.63,11060.8 7823.63,11060.3 7863.63,11061.2 7903.63,11052.9 7943.63,11057.5 
  7983.63,11056.3 8023.63,11055.8 8063.62,11048.9 8103.62,11052.2 8143.62,11049 8183.62,11044.9 8223.62,11040.4 8263.62,11042.6 8303.62,11042.8 8343.61,11042.4 
  8383.61,11035.3 8423.61,11031.7 8463.61,11023.7 8503.61,11026.8 8543.61,11018.9 8583.61,11010.9 8623.6,10996.5 8663.6,10954.6 8703.6,10984.2 8743.6,10994.6 
  8783.6,10956.8 8823.6,10969.2 8863.6,10936.2 8903.6,10901.9 8943.59,10920.9 8983.59,10930.6 9023.59,10881.5 9063.59,10823.1 9103.59,10770.8 9143.59,10798.6 
  9183.59,10770.4 9223.58,10660.4 9263.58,10801.4 9303.58,10620.3 9343.58,10511.9 9383.58,10408.4 9423.58,10183.2 9463.58,10409.7 9503.57,10076.9 9543.57,10154.3 
  9583.57,10096.1 9623.57,9948.98 9663.57,9634.88 9703.57,9310.25 9743.57,9319.55 9783.56,8872.36 9823.56,8505.61 9863.56,8517.09 9903.56,8346.1 9943.56,8264.5 
  9983.56,8457.61 10023.6,7204.33 10063.6,7449.9 10103.6,7853.51 10143.6,7185.98 10183.6,6961.93 10223.5,6786.95 10263.5,6365.7 10303.5,6806.91 10343.5,5853.84 
  10383.5,5534.25 10423.5,5431.74 10463.5,5876.89 10503.5,5173.84 10543.5,4897.79 10583.5,4927.13 10623.5,5397.23 10663.5,4604.8 10703.5,4236.57 10743.5,4822.04 
  10783.5,4337.53 10823.5,3973.2 10863.5,4189.52 10903.5,4140.08 10943.5,4705.69 10983.5,3857.01 11023.5,3329.21 11063.5,3043.94 11103.5,3989.62 11143.5,3282.59 
  11183.5,3465.86 11223.5,3266.65 11263.5,3504.37 11303.5,2881.07 11343.5,2613.03 11383.5,3058.16 11423.5,3008.28 11463.5,2572.94 11503.5,2539.28 11543.5,3297.82 
  11583.5,2193.58 11623.5,3190.1 11663.5,2572.85 11703.5,2038.93 11743.5,2867.74 11783.5,2085.51 11823.5,2983.86 11863.5,2881.98 11903.5,2547.48 11943.5,1941.13 
  11983.5,2066.63 12023.5,2091.54 12063.5,1771.2 12103.5,2325.31 12143.5,2575.09 12183.5,2792.74 12223.5,2216.92 12263.5,1868.13 12303.5,1957.96 12343.5,2340.9 
  12383.5,2294.32 12423.5,2377.26 12463.5,1466.12 12503.5,2167.48 12543.5,1797.72 12583.5,2051.85 12623.5,2097.72 12663.5,2533.28 12703.5,1991.49 12743.5,1581.26 
  12783.5,1680.14 12823.5,1311.34 12863.5,2132.05 12903.5,1562.51 12943.5,1582.38 12983.5,1607.25 13023.5,1682.89 13063.4,1697.69 13103.4,2101.77 13143.4,1660.77 
  13183.4,1490.97 13223.4,1579.02 13263.4,1496.37 13303.4,1809.68 13343.4,1857.83 13383.4,1718.19 13423.4,1776.25 13463.4,1490.14 13503.4,2082.15 13543.4,1314.52 
  13583.4,1551.43 13623.4,1833.08 13663.4,1645.25 13703.4,1582.73 13743.4,1884.94 13783.4,1577.03 13823.4,1765.72 13863.4,1965.65 13903.4,2016.29 13943.4,1824.05 
  13983.4,1869.47 14023.4,1558.95 14063.4,1266.2 14103.4,1794.95 14143.4,1427.46 14183.4,2070.8 14223.4,1192.35 14263.4,1639.75 14303.4,1428.27 14343.4,1961.33 
  14383.4,1641.17 14423.4,1860.97 14463.4,1561.93 14503.4,1482.71 14543.4,1530.47 14583.4,1809.48 14623.4,1112.64 14663.4,1844.84 14703.4,1936.13 14743.4,1192.57 
  14783.4,1639.73 14823.4,1520.03 14863.4,1542.53 14903.4,1336.49 14943.4,1398.57 14983.4,1593.41 15023.4,1170.98 15063.4,1608.01 15103.4,1608.55 15143.4,689.485 
  15183.4,1165.1 15223.4,1512.68 15263.4,1289.9 15303.4,1696.1 15343.4,1241.19 15383.4,1440.39 15423.4,1688.92 15463.4,1399.49 15503.4,1429.01 15543.4,1341.21 
  15583.4,1628.85 15623.4,1145.77 15663.4,1269.49 15703.4,1545.43 15743.4,1746.01 15783.4,1138.97 15823.4,1482.32 15863.4,1447.57 15903.3,1512.51 15943.3,1203.64 
  15983.3,1358.45 16023.3,1215.22 16063.3,1755.55 16103.3,1566.4 16143.3,2003.06 16183.3,1725.32 16223.3,1524.52 16263.3,1449.94 16303.3,1516.64 16343.3,1763.27 
  16383.3,1482.51 16423.3,1446.92 16463.3,1567.92 16503.3,1049.13 16543.3,1383.81 16583.3,977.245 16623.3,1484.87 16663.3,1429.8 16703.3,1466.67 16743.3,1650.26 
  16783.3,1468.49 16823.3,1660.18 16863.3,1466.4 16903.3,1383.59 16943.3,1303.21 16983.3,1385.28 17023.3,910.538 17063.3,1050.56 17103.3,1441.17 17143.3,1985.62 
  17183.3,1196.2 17223.3,1387.61 17263.3,1353.44 17303.3,1448.03 17343.3,2055.48 17383.3,1478.32 17423.3,1023.12 17463.3,1101.89 17503.3,1205.15 17543.3,941.309 
  17583.3,1041.94 17623.3,1795.94 17663.3,1377.18 17703.3,1222.24 17743.3,1242.75 17783.3,1216.37 17823.3,1575.94 17863.3,909.627 17903.3,1037.78 17943.3,1117.52 
  17983.3,1632.74 18023.3,1734.73 18063.3,1379.61 18103.3,1359.03 18143.3,1145.33 18183.3,1616.64 18223.3,1213.91 18263.3,1569.02 18303.3,1508.46 18343.3,1621.17 
  
  "/>
<path clip-path="url(#clip8800)" d="
M16129.9 2013.79 L18246 2013.79 L18246 1046.11 L16129.9 1046.11  Z
  " fill="#ffffff" fill-rule="evenodd" fill-opacity="1"/>
<polyline clip-path="url(#clip8800)" style="stroke:#000000; stroke-width:32; stroke-opacity:1; fill:none" points="
  16129.9,2013.79 18246,2013.79 18246,1046.11 16129.9,1046.11 16129.9,2013.79 
  "/>
<polyline clip-path="url(#clip8800)" style="stroke:#009af9; stroke-width:48; stroke-opacity:1; fill:none" points="
  16321.9,1529.95 17473.9,1529.95 
  "/>
<path clip-path="url(#clip8800)" d="M 0 0 M17703.3 1536.16 L17703.3 1637.45 L17763.3 1637.45 Q17793.5 1637.45 17808 1625.04 Q17822.6 1612.45 17822.6 1586.71 Q17822.6 1560.79 17808 1548.56 Q17793.5 1536.16 17763.3 1536.16 L17703.3 1536.16 M17703.3 1422.45 L17703.3 1505.79 L17758.7 1505.79 Q17786.1 1505.79 17799.5 1495.6 Q17813 1485.23 17813 1464.12 Q17813 1443.19 17799.5 1432.82 Q17786.1 1422.45 17758.7 1422.45 L17703.3 1422.45 M17665.9 1391.71 L17761.5 1391.71 Q17804.3 1391.71 17827.4 1409.49 Q17850.6 1427.27 17850.6 1460.05 Q17850.6 1485.42 17838.7 1500.42 Q17826.9 1515.42 17803.9 1519.12 Q17831.5 1525.05 17846.7 1543.93 Q17862 1562.64 17862 1590.79 Q17862 1627.82 17836.9 1648.01 Q17811.7 1668.19 17765.2 1668.19 L17665.9 1668.19 L17665.9 1391.71 Z" fill="#000000" fill-rule="evenodd" fill-opacity="1" /></svg>
