<?xml version="1.0" encoding="utf-8"?>
<svg xmlns="http://www.w3.org/2000/svg" xmlns:xlink="http://www.w3.org/1999/xlink" width="4800" height="3200" viewBox="0 0 19200 12800">
<defs>
  <clipPath id="clip1000">
    <rect x="0" y="0" width="19200" height="12800"/>
  </clipPath>
</defs>
<path clip-path="url(#clip1000)" d="
M0 12800 L19200 12800 L19200 0 L0 0  Z
  " fill="#ffffff" fill-rule="evenodd" fill-opacity="1"/>
<defs>
  <clipPath id="clip1001">
    <rect x="3840" y="0" width="13441" height="12800"/>
  </clipPath>
</defs>
<path clip-path="url(#clip1000)" d="
M1905.04 11385.4 L18822 11385.4 L18822 377.953 L1905.04 377.953  Z
  " fill="#ffffff" fill-rule="evenodd" fill-opacity="1"/>
<defs>
  <clipPath id="clip1002">
    <rect x="1905" y="377" width="16918" height="11008"/>
  </clipPath>
</defs>
<polyline clip-path="url(#clip1002)" style="stroke:#000000; stroke-width:16; stroke-opacity:0.1; fill:none" points="
  2058.12,11385.4 2058.12,377.953 
  "/>
<polyline clip-path="url(#clip1002)" style="stroke:#000000; stroke-width:16; stroke-opacity:0.1; fill:none" points="
  5315.15,11385.4 5315.15,377.953 
  "/>
<polyline clip-path="url(#clip1002)" style="stroke:#000000; stroke-width:16; stroke-opacity:0.1; fill:none" points="
  8572.18,11385.4 8572.18,377.953 
  "/>
<polyline clip-path="url(#clip1002)" style="stroke:#000000; stroke-width:16; stroke-opacity:0.1; fill:none" points="
  11829.2,11385.4 11829.2,377.953 
  "/>
<polyline clip-path="url(#clip1002)" style="stroke:#000000; stroke-width:16; stroke-opacity:0.1; fill:none" points="
  15086.2,11385.4 15086.2,377.953 
  "/>
<polyline clip-path="url(#clip1002)" style="stroke:#000000; stroke-width:16; stroke-opacity:0.1; fill:none" points="
  18343.3,11385.4 18343.3,377.953 
  "/>
<polyline clip-path="url(#clip1002)" style="stroke:#000000; stroke-width:16; stroke-opacity:0.1; fill:none" points="
  1905.04,11073.9 18822,11073.9 
  "/>
<polyline clip-path="url(#clip1002)" style="stroke:#000000; stroke-width:16; stroke-opacity:0.1; fill:none" points="
  1905.04,8629.04 18822,8629.04 
  "/>
<polyline clip-path="url(#clip1002)" style="stroke:#000000; stroke-width:16; stroke-opacity:0.1; fill:none" points="
  1905.04,6184.17 18822,6184.17 
  "/>
<polyline clip-path="url(#clip1002)" style="stroke:#000000; stroke-width:16; stroke-opacity:0.1; fill:none" points="
  1905.04,3739.3 18822,3739.3 
  "/>
<polyline clip-path="url(#clip1002)" style="stroke:#000000; stroke-width:16; stroke-opacity:0.1; fill:none" points="
  1905.04,1294.43 18822,1294.43 
  "/>
<polyline clip-path="url(#clip1000)" style="stroke:#000000; stroke-width:32; stroke-opacity:1; fill:none" points="
  1905.04,11385.4 18822,11385.4 
  "/>
<polyline clip-path="url(#clip1000)" style="stroke:#000000; stroke-width:32; stroke-opacity:1; fill:none" points="
  1905.04,11385.4 1905.04,377.953 
  "/>
<polyline clip-path="url(#clip1000)" style="stroke:#000000; stroke-width:32; stroke-opacity:1; fill:none" points="
  2058.12,11385.4 2058.12,11253.3 
  "/>
<polyline clip-path="url(#clip1000)" style="stroke:#000000; stroke-width:32; stroke-opacity:1; fill:none" points="
  5315.15,11385.4 5315.15,11253.3 
  "/>
<polyline clip-path="url(#clip1000)" style="stroke:#000000; stroke-width:32; stroke-opacity:1; fill:none" points="
  8572.18,11385.4 8572.18,11253.3 
  "/>
<polyline clip-path="url(#clip1000)" style="stroke:#000000; stroke-width:32; stroke-opacity:1; fill:none" points="
  11829.2,11385.4 11829.2,11253.3 
  "/>
<polyline clip-path="url(#clip1000)" style="stroke:#000000; stroke-width:32; stroke-opacity:1; fill:none" points="
  15086.2,11385.4 15086.2,11253.3 
  "/>
<polyline clip-path="url(#clip1000)" style="stroke:#000000; stroke-width:32; stroke-opacity:1; fill:none" points="
  18343.3,11385.4 18343.3,11253.3 
  "/>
<polyline clip-path="url(#clip1000)" style="stroke:#000000; stroke-width:32; stroke-opacity:1; fill:none" points="
  1905.04,11073.9 2108.04,11073.9 
  "/>
<polyline clip-path="url(#clip1000)" style="stroke:#000000; stroke-width:32; stroke-opacity:1; fill:none" points="
  1905.04,8629.04 2108.04,8629.04 
  "/>
<polyline clip-path="url(#clip1000)" style="stroke:#000000; stroke-width:32; stroke-opacity:1; fill:none" points="
  1905.04,6184.17 2108.04,6184.17 
  "/>
<polyline clip-path="url(#clip1000)" style="stroke:#000000; stroke-width:32; stroke-opacity:1; fill:none" points="
  1905.04,3739.3 2108.04,3739.3 
  "/>
<polyline clip-path="url(#clip1000)" style="stroke:#000000; stroke-width:32; stroke-opacity:1; fill:none" points="
  1905.04,1294.43 2108.04,1294.43 
  "/>
<path clip-path="url(#clip1000)" d="M 0 0 M2058.12 11561.4 Q2029.23 11561.4 2014.6 11589.9 Q2000.16 11618.2 2000.16 11675.3 Q2000.16 11732.1 2014.6 11760.6 Q2029.23 11789 2058.12 11789 Q2087.19 11789 2101.64 11760.6 Q2116.27 11732.1 2116.27 11675.3 Q2116.27 11618.2 2101.64 11589.9 Q2087.19 11561.4 2058.12 11561.4 M2058.12 11531.7 Q2104.6 11531.7 2129.05 11568.6 Q2153.68 11605.3 2153.68 11675.3 Q2153.68 11745.1 2129.05 11781.9 Q2104.6 11818.6 2058.12 11818.6 Q2011.64 11818.6 1987.01 11781.9 Q1962.57 11745.1 1962.57 11675.3 Q1962.57 11605.3 1987.01 11568.6 Q2011.64 11531.7 2058.12 11531.7 Z" fill="#000000" fill-rule="evenodd" fill-opacity="1" /><path clip-path="url(#clip1000)" d="M 0 0 M5238.21 11781.7 L5299.32 11781.7 L5299.32 11570.8 L5232.84 11584.1 L5232.84 11550.1 L5298.95 11536.7 L5336.35 11536.7 L5336.35 11781.7 L5397.46 11781.7 L5397.46 11813.2 L5238.21 11813.2 L5238.21 11781.7 Z" fill="#000000" fill-rule="evenodd" fill-opacity="1" /><path clip-path="url(#clip1000)" d="M 0 0 M8529.4 11781.7 L8659.96 11781.7 L8659.96 11813.2 L8484.4 11813.2 L8484.4 11781.7 Q8505.7 11759.7 8542.36 11722.7 Q8579.22 11685.4 8588.66 11674.7 Q8606.62 11654.5 8613.66 11640.6 Q8620.88 11626.5 8620.88 11613 Q8620.88 11591 8605.33 11577.1 Q8589.96 11563.2 8565.14 11563.2 Q8547.55 11563.2 8527.92 11569.3 Q8508.47 11575.4 8486.25 11587.8 L8486.25 11550.1 Q8508.85 11541 8528.47 11536.4 Q8548.1 11531.7 8564.4 11531.7 Q8607.36 11531.7 8632.92 11553.2 Q8658.47 11574.7 8658.47 11610.6 Q8658.47 11627.7 8651.99 11643 Q8645.7 11658.2 8628.84 11679 Q8624.21 11684.3 8599.4 11710.1 Q8574.59 11735.6 8529.4 11781.7 Z" fill="#000000" fill-rule="evenodd" fill-opacity="1" /><path clip-path="url(#clip1000)" d="M 0 0 M11863.2 11664.1 Q11890 11669.9 11905 11688 Q11920.2 11706.2 11920.2 11732.8 Q11920.2 11773.8 11892.1 11796.2 Q11863.9 11818.6 11812.1 11818.6 Q11794.7 11818.6 11776.2 11815.1 Q11757.8 11811.7 11738.2 11804.9 L11738.2 11768.8 Q11753.7 11777.8 11772.3 11782.5 Q11790.8 11787.1 11811 11787.1 Q11846.2 11787.1 11864.5 11773.2 Q11883 11759.3 11883 11732.8 Q11883 11708.4 11865.8 11694.7 Q11848.7 11680.8 11818.2 11680.8 L11786 11680.8 L11786 11650.1 L11819.7 11650.1 Q11847.3 11650.1 11861.9 11639.1 Q11876.5 11628 11876.5 11607.3 Q11876.5 11586 11861.3 11574.7 Q11846.3 11563.2 11818.2 11563.2 Q11802.8 11563.2 11785.2 11566.5 Q11767.6 11569.9 11746.5 11576.9 L11746.5 11543.6 Q11767.8 11537.7 11786.3 11534.7 Q11805 11531.7 11821.5 11531.7 Q11864.1 11531.7 11888.9 11551.2 Q11913.7 11570.4 11913.7 11603.4 Q11913.7 11626.4 11900.6 11642.3 Q11887.4 11658 11863.2 11664.1 Z" fill="#000000" fill-rule="evenodd" fill-opacity="1" /><path clip-path="url(#clip1000)" d="M 0 0 M15110.3 11569.3 L15015.9 11716.9 L15110.3 11716.9 L15110.3 11569.3 M15100.5 11536.7 L15147.5 11536.7 L15147.5 11716.9 L15187 11716.9 L15187 11748 L15147.5 11748 L15147.5 11813.2 L15110.3 11813.2 L15110.3 11748 L14985.5 11748 L14985.5 11711.9 L15100.5 11536.7 Z" fill="#000000" fill-rule="evenodd" fill-opacity="1" /><path clip-path="url(#clip1000)" d="M 0 0 M18265.5 11536.7 L18412.3 11536.7 L18412.3 11568.2 L18299.7 11568.2 L18299.7 11636 Q18307.9 11633.2 18316 11631.9 Q18324.2 11630.4 18332.3 11630.4 Q18378.6 11630.4 18405.7 11655.8 Q18432.7 11681.2 18432.7 11724.5 Q18432.7 11769.1 18404.9 11794 Q18377.2 11818.6 18326.6 11818.6 Q18309.2 11818.6 18291 11815.6 Q18273.1 11812.7 18253.8 11806.7 L18253.8 11769.1 Q18270.5 11778.2 18288.3 11782.7 Q18306 11787.1 18325.9 11787.1 Q18357.9 11787.1 18376.6 11770.3 Q18395.3 11753.4 18395.3 11724.5 Q18395.3 11695.6 18376.6 11678.8 Q18357.9 11661.9 18325.9 11661.9 Q18310.9 11661.9 18295.9 11665.3 Q18281 11668.6 18265.5 11675.6 L18265.5 11536.7 Z" fill="#000000" fill-rule="evenodd" fill-opacity="1" /><path clip-path="url(#clip1000)" d="M 0 0 M1105.64 10960.3 Q1076.75 10960.3 1062.12 10988.8 Q1047.67 11017.1 1047.67 11074.2 Q1047.67 11131 1062.12 11159.6 Q1076.75 11187.9 1105.64 11187.9 Q1134.71 11187.9 1149.15 11159.6 Q1163.78 11131 1163.78 11074.2 Q1163.78 11017.1 1149.15 10988.8 Q1134.71 10960.3 1105.64 10960.3 M1105.64 10930.7 Q1152.12 10930.7 1176.56 10967.5 Q1201.19 11004.2 1201.19 11074.2 Q1201.19 11144 1176.56 11180.8 Q1152.12 11217.5 1105.64 11217.5 Q1059.16 11217.5 1034.53 11180.8 Q1010.08 11144 1010.08 11074.2 Q1010.08 11004.2 1034.53 10967.5 Q1059.16 10930.7 1105.64 10930.7 Z" fill="#000000" fill-rule="evenodd" fill-opacity="1" /><path clip-path="url(#clip1000)" d="M 0 0 M1241.75 11165.1 L1280.82 11165.1 L1280.82 11212.1 L1241.75 11212.1 L1241.75 11165.1 Z" fill="#000000" fill-rule="evenodd" fill-opacity="1" /><path clip-path="url(#clip1000)" d="M 0 0 M1401.38 10960.3 Q1372.49 10960.3 1357.86 10988.8 Q1343.41 11017.1 1343.41 11074.2 Q1343.41 11131 1357.86 11159.6 Q1372.49 11187.9 1401.38 11187.9 Q1430.45 11187.9 1444.89 11159.6 Q1459.52 11131 1459.52 11074.2 Q1459.52 11017.1 1444.89 10988.8 Q1430.45 10960.3 1401.38 10960.3 M1401.38 10930.7 Q1447.86 10930.7 1472.3 10967.5 Q1496.93 11004.2 1496.93 11074.2 Q1496.93 11144 1472.3 11180.8 Q1447.86 11217.5 1401.38 11217.5 Q1354.89 11217.5 1330.26 11180.8 Q1305.82 11144 1305.82 11074.2 Q1305.82 11004.2 1330.26 10967.5 Q1354.89 10930.7 1401.38 10930.7 Z" fill="#000000" fill-rule="evenodd" fill-opacity="1" /><path clip-path="url(#clip1000)" d="M 0 0 M1617.49 10960.3 Q1588.6 10960.3 1573.97 10988.8 Q1559.52 11017.1 1559.52 11074.2 Q1559.52 11131 1573.97 11159.6 Q1588.6 11187.9 1617.49 11187.9 Q1646.56 11187.9 1661 11159.6 Q1675.63 11131 1675.63 11074.2 Q1675.63 11017.1 1661 10988.8 Q1646.56 10960.3 1617.49 10960.3 M1617.49 10930.7 Q1663.97 10930.7 1688.41 10967.5 Q1713.04 11004.2 1713.04 11074.2 Q1713.04 11144 1688.41 11180.8 Q1663.97 11217.5 1617.49 11217.5 Q1571 11217.5 1546.37 11180.8 Q1521.93 11144 1521.93 11074.2 Q1521.93 11004.2 1546.37 10967.5 Q1571 10930.7 1617.49 10930.7 Z" fill="#000000" fill-rule="evenodd" fill-opacity="1" /><path clip-path="url(#clip1000)" d="M 0 0 M1126.38 8515.43 Q1097.49 8515.43 1082.86 8543.94 Q1068.41 8572.28 1068.41 8629.31 Q1068.41 8686.17 1082.86 8714.68 Q1097.49 8743.02 1126.38 8743.02 Q1155.45 8743.02 1169.9 8714.68 Q1184.52 8686.17 1184.52 8629.31 Q1184.52 8572.28 1169.9 8543.94 Q1155.45 8515.43 1126.38 8515.43 M1126.38 8485.8 Q1172.86 8485.8 1197.3 8522.65 Q1221.93 8559.31 1221.93 8629.31 Q1221.93 8699.13 1197.3 8735.98 Q1172.86 8772.65 1126.38 8772.65 Q1079.9 8772.65 1055.27 8735.98 Q1030.82 8699.13 1030.82 8629.31 Q1030.82 8559.31 1055.27 8522.65 Q1079.9 8485.8 1126.38 8485.8 Z" fill="#000000" fill-rule="evenodd" fill-opacity="1" /><path clip-path="url(#clip1000)" d="M 0 0 M1262.49 8720.24 L1301.56 8720.24 L1301.56 8767.28 L1262.49 8767.28 L1262.49 8720.24 Z" fill="#000000" fill-rule="evenodd" fill-opacity="1" /><path clip-path="url(#clip1000)" d="M 0 0 M1374.34 8735.79 L1504.89 8735.79 L1504.89 8767.28 L1329.34 8767.28 L1329.34 8735.79 Q1350.63 8713.76 1387.3 8676.72 Q1424.15 8639.5 1433.6 8628.76 Q1451.56 8608.57 1458.6 8594.68 Q1465.82 8580.61 1465.82 8567.09 Q1465.82 8545.06 1450.26 8531.17 Q1434.89 8517.28 1410.08 8517.28 Q1392.49 8517.28 1372.86 8523.39 Q1353.41 8529.5 1331.19 8541.91 L1331.19 8504.13 Q1353.78 8495.06 1373.41 8490.43 Q1393.04 8485.8 1409.34 8485.8 Q1452.3 8485.8 1477.86 8507.28 Q1503.41 8528.76 1503.41 8564.68 Q1503.41 8581.72 1496.93 8597.09 Q1490.63 8612.28 1473.78 8633.02 Q1469.15 8638.39 1444.34 8664.13 Q1419.52 8689.68 1374.34 8735.79 Z" fill="#000000" fill-rule="evenodd" fill-opacity="1" /><path clip-path="url(#clip1000)" d="M 0 0 M1545.82 8490.8 L1692.67 8490.8 L1692.67 8522.28 L1580.08 8522.28 L1580.08 8590.05 Q1588.23 8587.28 1596.37 8585.98 Q1604.52 8584.5 1612.67 8584.5 Q1658.97 8584.5 1686 8609.87 Q1713.04 8635.24 1713.04 8678.57 Q1713.04 8723.2 1685.26 8748.02 Q1657.49 8772.65 1606.93 8772.65 Q1589.52 8772.65 1571.37 8769.68 Q1553.41 8766.72 1534.15 8760.79 L1534.15 8723.2 Q1550.82 8732.28 1568.6 8736.72 Q1586.37 8741.17 1606.19 8741.17 Q1638.23 8741.17 1656.93 8724.31 Q1675.63 8707.46 1675.63 8678.57 Q1675.63 8649.68 1656.93 8632.83 Q1638.23 8615.98 1606.19 8615.98 Q1591.19 8615.98 1576.19 8619.31 Q1561.37 8622.65 1545.82 8629.68 L1545.82 8490.8 Z" fill="#000000" fill-rule="evenodd" fill-opacity="1" /><path clip-path="url(#clip1000)" d="M 0 0 M1113.6 6070.56 Q1084.71 6070.56 1070.08 6099.07 Q1055.64 6127.41 1055.64 6184.44 Q1055.64 6241.3 1070.08 6269.81 Q1084.71 6298.15 1113.6 6298.15 Q1142.67 6298.15 1157.12 6269.81 Q1171.75 6241.3 1171.75 6184.44 Q1171.75 6127.41 1157.12 6099.07 Q1142.67 6070.56 1113.6 6070.56 M1113.6 6040.93 Q1160.08 6040.93 1184.52 6077.78 Q1209.15 6114.44 1209.15 6184.44 Q1209.15 6254.26 1184.52 6291.11 Q1160.08 6327.78 1113.6 6327.78 Q1067.12 6327.78 1042.49 6291.11 Q1018.04 6254.26 1018.04 6184.44 Q1018.04 6114.44 1042.49 6077.78 Q1067.12 6040.93 1113.6 6040.93 Z" fill="#000000" fill-rule="evenodd" fill-opacity="1" /><path clip-path="url(#clip1000)" d="M 0 0 M1249.71 6275.37 L1288.78 6275.37 L1288.78 6322.41 L1249.71 6322.41 L1249.71 6275.37 Z" fill="#000000" fill-rule="evenodd" fill-opacity="1" /><path clip-path="url(#clip1000)" d="M 0 0 M1329.71 6045.93 L1476.56 6045.93 L1476.56 6077.41 L1363.97 6077.41 L1363.97 6145.19 Q1372.12 6142.41 1380.26 6141.11 Q1388.41 6139.63 1396.56 6139.63 Q1442.86 6139.63 1469.89 6165 Q1496.93 6190.37 1496.93 6233.7 Q1496.93 6278.33 1469.15 6303.15 Q1441.38 6327.78 1390.82 6327.78 Q1373.41 6327.78 1355.26 6324.81 Q1337.3 6321.85 1318.04 6315.92 L1318.04 6278.33 Q1334.71 6287.41 1352.49 6291.85 Q1370.26 6296.3 1390.08 6296.3 Q1422.12 6296.3 1440.82 6279.44 Q1459.52 6262.59 1459.52 6233.7 Q1459.52 6204.81 1440.82 6187.96 Q1422.12 6171.11 1390.08 6171.11 Q1375.08 6171.11 1360.08 6174.44 Q1345.26 6177.78 1329.71 6184.81 L1329.71 6045.93 Z" fill="#000000" fill-rule="evenodd" fill-opacity="1" /><path clip-path="url(#clip1000)" d="M 0 0 M1617.49 6070.56 Q1588.6 6070.56 1573.97 6099.07 Q1559.52 6127.41 1559.52 6184.44 Q1559.52 6241.3 1573.97 6269.81 Q1588.6 6298.15 1617.49 6298.15 Q1646.56 6298.15 1661 6269.81 Q1675.63 6241.3 1675.63 6184.44 Q1675.63 6127.41 1661 6099.07 Q1646.56 6070.56 1617.49 6070.56 M1617.49 6040.93 Q1663.97 6040.93 1688.41 6077.78 Q1713.04 6114.44 1713.04 6184.44 Q1713.04 6254.26 1688.41 6291.11 Q1663.97 6327.78 1617.49 6327.78 Q1571 6327.78 1546.37 6291.11 Q1521.93 6254.26 1521.93 6184.44 Q1521.93 6114.44 1546.37 6077.78 Q1571 6040.93 1617.49 6040.93 Z" fill="#000000" fill-rule="evenodd" fill-opacity="1" /><path clip-path="url(#clip1000)" d="M 0 0 M1120.82 3625.69 Q1091.93 3625.69 1077.3 3654.2 Q1062.86 3682.54 1062.86 3739.57 Q1062.86 3796.43 1077.3 3824.94 Q1091.93 3853.28 1120.82 3853.28 Q1149.9 3853.28 1164.34 3824.94 Q1178.97 3796.43 1178.97 3739.57 Q1178.97 3682.54 1164.34 3654.2 Q1149.9 3625.69 1120.82 3625.69 M1120.82 3596.06 Q1167.3 3596.06 1191.75 3632.91 Q1216.38 3669.57 1216.38 3739.57 Q1216.38 3809.39 1191.75 3846.24 Q1167.3 3882.91 1120.82 3882.91 Q1074.34 3882.91 1049.71 3846.24 Q1025.27 3809.39 1025.27 3739.57 Q1025.27 3669.57 1049.71 3632.91 Q1074.34 3596.06 1120.82 3596.06 Z" fill="#000000" fill-rule="evenodd" fill-opacity="1" /><path clip-path="url(#clip1000)" d="M 0 0 M1256.93 3830.5 L1296.01 3830.5 L1296.01 3877.54 L1256.93 3877.54 L1256.93 3830.5 Z" fill="#000000" fill-rule="evenodd" fill-opacity="1" /><path clip-path="url(#clip1000)" d="M 0 0 M1327.12 3601.06 L1504.89 3601.06 L1504.89 3616.98 L1404.52 3877.54 L1365.45 3877.54 L1459.89 3632.54 L1327.12 3632.54 L1327.12 3601.06 Z" fill="#000000" fill-rule="evenodd" fill-opacity="1" /><path clip-path="url(#clip1000)" d="M 0 0 M1545.82 3601.06 L1692.67 3601.06 L1692.67 3632.54 L1580.08 3632.54 L1580.08 3700.32 Q1588.23 3697.54 1596.37 3696.24 Q1604.52 3694.76 1612.67 3694.76 Q1658.97 3694.76 1686 3720.13 Q1713.04 3745.5 1713.04 3788.83 Q1713.04 3833.46 1685.26 3858.28 Q1657.49 3882.91 1606.93 3882.91 Q1589.52 3882.91 1571.37 3879.94 Q1553.41 3876.98 1534.15 3871.06 L1534.15 3833.46 Q1550.82 3842.54 1568.6 3846.98 Q1586.37 3851.43 1606.19 3851.43 Q1638.23 3851.43 1656.93 3834.57 Q1675.63 3817.72 1675.63 3788.83 Q1675.63 3759.94 1656.93 3743.09 Q1638.23 3726.24 1606.19 3726.24 Q1591.19 3726.24 1576.19 3729.57 Q1561.37 3732.91 1545.82 3739.94 L1545.82 3601.06 Z" fill="#000000" fill-rule="evenodd" fill-opacity="1" /><path clip-path="url(#clip1000)" d="M 0 0 M1041.93 1401.19 L1103.04 1401.19 L1103.04 1190.26 L1036.56 1203.59 L1036.56 1169.52 L1102.67 1156.19 L1140.08 1156.19 L1140.08 1401.19 L1201.19 1401.19 L1201.19 1432.67 L1041.93 1432.67 L1041.93 1401.19 Z" fill="#000000" fill-rule="evenodd" fill-opacity="1" /><path clip-path="url(#clip1000)" d="M 0 0 M1241.75 1385.63 L1280.82 1385.63 L1280.82 1432.67 L1241.75 1432.67 L1241.75 1385.63 Z" fill="#000000" fill-rule="evenodd" fill-opacity="1" /><path clip-path="url(#clip1000)" d="M 0 0 M1401.38 1180.82 Q1372.49 1180.82 1357.86 1209.33 Q1343.41 1237.67 1343.41 1294.7 Q1343.41 1351.56 1357.86 1380.07 Q1372.49 1408.41 1401.38 1408.41 Q1430.45 1408.41 1444.89 1380.07 Q1459.52 1351.56 1459.52 1294.7 Q1459.52 1237.67 1444.89 1209.33 Q1430.45 1180.82 1401.38 1180.82 M1401.38 1151.19 Q1447.86 1151.19 1472.3 1188.04 Q1496.93 1224.7 1496.93 1294.7 Q1496.93 1364.52 1472.3 1401.37 Q1447.86 1438.04 1401.38 1438.04 Q1354.89 1438.04 1330.26 1401.37 Q1305.82 1364.52 1305.82 1294.7 Q1305.82 1224.7 1330.26 1188.04 Q1354.89 1151.19 1401.38 1151.19 Z" fill="#000000" fill-rule="evenodd" fill-opacity="1" /><path clip-path="url(#clip1000)" d="M 0 0 M1617.49 1180.82 Q1588.6 1180.82 1573.97 1209.33 Q1559.52 1237.67 1559.52 1294.7 Q1559.52 1351.56 1573.97 1380.07 Q1588.6 1408.41 1617.49 1408.41 Q1646.56 1408.41 1661 1380.07 Q1675.63 1351.56 1675.63 1294.7 Q1675.63 1237.67 1661 1209.33 Q1646.56 1180.82 1617.49 1180.82 M1617.49 1151.19 Q1663.97 1151.19 1688.41 1188.04 Q1713.04 1224.7 1713.04 1294.7 Q1713.04 1364.52 1688.41 1401.37 Q1663.97 1438.04 1617.49 1438.04 Q1571 1438.04 1546.37 1401.37 Q1521.93 1364.52 1521.93 1294.7 Q1521.93 1224.7 1546.37 1188.04 Q1571 1151.19 1617.49 1151.19 Z" fill="#000000" fill-rule="evenodd" fill-opacity="1" /><path clip-path="url(#clip1000)" d="M 0 0 M10202.7 12068.2 L10524.3 12068.2 L10524.3 12111.5 L10389.4 12111.5 L10389.4 12448.4 L10337.7 12448.4 L10337.7 12111.5 L10202.7 12111.5 L10202.7 12068.2 Z" fill="#000000" fill-rule="evenodd" fill-opacity="1" /><path clip-path="url(#clip1000)" d="M 0 0 M522.483 5965.09 L661.765 5965.09 L661.765 5882.59 Q661.765 5841.08 644.705 5821.22 Q627.39 5801.11 591.997 5801.11 Q556.349 5801.11 539.543 5821.22 Q522.483 5841.08 522.483 5882.59 L522.483 5965.09 M366.142 5965.09 L480.724 5965.09 L480.724 5888.95 Q480.724 5851.27 466.72 5832.93 Q452.461 5814.35 423.433 5814.35 Q394.66 5814.35 380.401 5832.93 Q366.142 5851.27 366.142 5888.95 L366.142 5965.09 M323.873 6016.52 L323.873 5885.13 Q323.873 5826.31 348.318 5794.49 Q372.762 5762.66 417.831 5762.66 Q452.715 5762.66 473.34 5778.95 Q493.965 5795.25 499.058 5826.82 Q507.206 5788.88 533.178 5768 Q558.895 5746.87 597.599 5746.87 Q648.524 5746.87 676.279 5781.5 Q704.033 5816.13 704.033 5880.04 L704.033 6016.52 L323.873 6016.52 Z" fill="#000000" fill-rule="evenodd" fill-opacity="1" /><polyline clip-path="url(#clip1002)" style="stroke:#009af9; stroke-width:48; stroke-opacity:1; fill:none" points="
  2383.82,11073.9 2423.82,11073.9 2463.82,11073.9 2503.82,11073.9 2543.82,11073.9 2583.82,11073.9 2623.82,11073.9 2663.81,11073.9 2703.81,11073.9 2743.81,11073.9 
  2783.81,11073.9 2823.81,11073.9 2863.81,11073.9 2903.81,11073.9 2943.8,11073.9 2983.8,11073.9 3023.8,11073.9 3063.8,11073.9 3103.8,11073.9 3143.8,11073.9 
  3183.8,11073.9 3223.79,11073.9 3263.79,11073.9 3303.79,11073.9 3343.79,11073.9 3383.79,11073.9 3423.79,11073.9 3463.79,11073.9 3503.78,11073.9 3543.78,11073.9 
  3583.78,11073.9 3623.78,11073.9 3663.78,11073.9 3703.78,11073.9 3743.78,11073.9 3783.77,11073.9 3823.77,11073.9 3863.77,11073.9 3903.77,11073.9 3943.77,11073.9 
  3983.77,11073.9 4023.77,11073.9 4063.76,11073.9 4103.76,11073.9 4143.76,11073.9 4183.76,11073.9 4223.76,11073.9 4263.76,11073.9 4303.76,11073.9 4343.75,11073.9 
  4383.75,11073.9 4423.75,11073.9 4463.75,11073.9 4503.75,11073.9 4543.75,11073.9 4583.75,11073.9 4623.75,11073.9 4663.74,11073.9 4703.74,11073.9 4743.74,11073.9 
  4783.74,11073.9 4823.74,11073.9 4863.74,11073.9 4903.74,11073.9 4943.73,11073.9 4983.73,11073.9 5023.73,11073.9 5063.73,11073.9 5103.73,11073.9 5143.73,11073.9 
  5183.73,11073.9 5223.72,11073.9 5263.72,11073.9 5303.72,11073.9 5343.72,11073.8 5383.72,11073.8 5423.72,11073.8 5463.72,11073.8 5503.71,11073.8 5543.71,11073.8 
  5583.71,11073.8 5623.71,11073.8 5663.71,11073.8 5703.71,11073.8 5743.71,11073.8 5783.7,11073.8 5823.7,11073.7 5863.7,11073.7 5903.7,11073.7 5943.7,11073.7 
  5983.7,11073.7 6023.7,11073.6 6063.69,11073.6 6103.69,11073.6 6143.69,11073.6 6183.69,11073.5 6223.69,11073.5 6263.69,11073.5 6303.69,11073.5 6343.68,11073.4 
  6383.68,11073.4 6423.68,11073.3 6463.68,11073.3 6503.68,11073.3 6543.68,11073.2 6583.68,11073.1 6623.67,11073.1 6663.67,11072.9 6703.67,11072.9 6743.67,11072.9 
  6783.67,11072.9 6823.67,11072.8 6863.67,11072.7 6903.67,11072.5 6943.66,11072.5 6983.66,11072.4 7023.66,11072.3 7063.66,11072.3 7103.66,11072.1 7143.66,11071.8 
  7183.66,11071.7 7223.65,11071.7 7263.65,11071.5 7303.65,11071.4 7343.65,11071.4 7383.65,11070.9 7423.65,11070.9 7463.65,11070.7 7503.64,11070.5 7543.64,11070.1 
  7583.64,11069.7 7623.64,11069.5 7663.64,11069.1 7703.64,11068.9 7743.64,11067.5 7783.63,11068.3 7823.63,11066.8 7863.63,11066.2 7903.63,11066.6 7943.63,11066.2 
  7983.63,11066.4 8023.63,11064.8 8063.62,11064.2 8103.62,11064 8143.62,11062.9 8183.62,11061.9 8223.62,11059.6 8263.62,11060.5 8303.62,11058.2 8343.61,11056.5 
  8383.61,11054.7 8423.61,11052.6 8463.61,11053.9 8503.61,11046.6 8543.61,11051.7 8583.61,11042.8 8623.6,11038 8663.6,11035.6 8703.6,11025.4 8743.6,11014.5 
  8783.6,11024.3 8823.6,11003.9 8863.6,11025.4 8903.6,10999.5 8943.59,10933.8 8983.59,10976.1 9023.59,10981.9 9063.59,10961.7 9103.59,10791.6 9143.59,10839.3 
  9183.59,10853.8 9223.58,10849.7 9263.58,10864.8 9303.58,10661.5 9343.58,10308.1 9383.58,10194.6 9423.58,10507.1 9463.58,9714.15 9503.57,10060.4 9543.57,10133.9 
  9583.57,9962.64 9623.57,9798.36 9663.57,8821.09 9703.57,8793.23 9743.57,8521.07 9783.56,8071.34 9823.56,6948.93 9863.56,7280.06 9903.56,7316.23 9943.56,7476.24 
  9983.56,7273.48 10023.6,5684.91 10063.6,5627.85 10103.6,5597.5 10143.6,4674.28 10183.6,4703.49 10223.5,4406.6 10263.5,5082.14 10303.5,5594.41 10343.5,4650.14 
  10383.5,2683.99 10423.5,3367.72 10463.5,3247.35 10503.5,3368.76 10543.5,3284.49 10583.5,4302.12 10623.5,3555.23 10663.5,2703.89 10703.5,3108.67 10743.5,3138.05 
  10783.5,2133.02 10823.5,3431.17 10863.5,2678.77 10903.5,2831.28 10943.5,2686.68 10983.5,3491.46 11023.5,2458.32 11063.5,2599.68 11103.5,1726.54 11143.5,2330.45 
  11183.5,2638.3 11223.5,1505.39 11263.5,1805.64 11303.5,2390.28 11343.5,2841.34 11383.5,2788.92 11423.5,1463.33 11463.5,2735.06 11503.5,1461.34 11543.5,1549.95 
  11583.5,1890.61 11623.5,2434.04 11663.5,1741.88 11703.5,2161.48 11743.5,2271.77 11783.5,2189.32 11823.5,1977.63 11863.5,1962.34 11903.5,1598.55 11943.5,1801.64 
  11983.5,2189.26 12023.5,2258.25 12063.5,2197.6 12103.5,2340.25 12143.5,2407.87 12183.5,1712.65 12223.5,2219.38 12263.5,1519 12303.5,1826.5 12343.5,1645.74 
  12383.5,1958.61 12423.5,2037.6 12463.5,1927.21 12503.5,1535.68 12543.5,2157.92 12583.5,1713.22 12623.5,1769.62 12663.5,1743.81 12703.5,2238.14 12743.5,1347.29 
  12783.5,2629.12 12823.5,1312.09 12863.5,1150.01 12903.5,2060.64 12943.5,1913.24 12983.5,1440.44 13023.5,1199.72 13063.4,1500.74 13103.4,1340.1 13143.4,1977.61 
  13183.4,1173.52 13223.4,1513.3 13263.4,1638.08 13303.4,689.485 13343.4,1467.62 13383.4,2007.45 13423.4,720.592 13463.4,1852.75 13503.4,1478.97 13543.4,1345.87 
  13583.4,1539.16 13623.4,940.989 13663.4,1197.8 13703.4,1605.22 13743.4,1980.98 13783.4,1264.76 13823.4,2081.94 13863.4,1222.13 13903.4,1446.92 13943.4,1545.33 
  13983.4,1805.78 14023.4,1315.16 14063.4,1773.87 14103.4,1488.8 14143.4,1803.25 14183.4,802.207 14223.4,2050.7 14263.4,1716.86 14303.4,1166.72 14343.4,1845.38 
  14383.4,1344.59 14423.4,696.151 14463.4,1891.66 14503.4,1370.21 14543.4,1340.32 14583.4,1457.25 14623.4,1259.45 14663.4,1524.85 14703.4,1303.74 14743.4,1446.2 
  14783.4,1001.54 14823.4,1440.06 14863.4,2081.72 14903.4,1049.67 14943.4,1701.43 14983.4,1453.35 15023.4,1664.8 15063.4,1820.95 15103.4,1510.81 15143.4,1243.21 
  15183.4,1980.48 15223.4,1880.92 15263.4,1556.85 15303.4,1533.44 15343.4,1508.75 15383.4,1701.35 15423.4,1061.37 15463.4,802.163 15503.4,1391.8 15543.4,1628.13 
  15583.4,2001.08 15623.4,1332.77 15663.4,1289.95 15703.4,1460.56 15743.4,1365.46 15783.4,1322.79 15823.4,1483.13 15863.4,1052.34 15903.3,1507.86 15943.3,1364.27 
  15983.3,1298.12 16023.3,1359.75 16063.3,1798.43 16103.3,1387.34 16143.3,1557.65 16183.3,1168.19 16223.3,1857.27 16263.3,1562.11 16303.3,1514.03 16343.3,1673.23 
  16383.3,1445.03 16423.3,1116.33 16463.3,787.659 16503.3,1625.36 16543.3,1520.55 16583.3,1434.09 16623.3,1021.49 16663.3,1411.23 16703.3,1494.4 16743.3,1104 
  16783.3,1245.78 16823.3,1951.98 16863.3,1129.05 16903.3,1110.1 16943.3,1429.69 16983.3,1378.62 17023.3,1263.9 17063.3,1646.84 17103.3,1092.13 17143.3,1246.07 
  17183.3,1500.59 17223.3,1281.54 17263.3,1689.56 17303.3,1647.73 17343.3,1652.72 17383.3,1189.58 17423.3,1413.43 17463.3,1309.18 17503.3,1583.99 17543.3,1441.95 
  17583.3,1340.9 17623.3,1588.71 17663.3,1784.02 17703.3,1302.69 17743.3,1161.61 17783.3,841.105 17823.3,1826.65 17863.3,1753.33 17903.3,1084.01 17943.3,1351.57 
  17983.3,1262.79 18023.3,1560.68 18063.3,1636.51 18103.3,1373.05 18143.3,1854.15 18183.3,1505.69 18223.3,971.779 18263.3,1298.06 18303.3,1220.63 18343.3,1164.82 
  
  "/>
<path clip-path="url(#clip1000)" d="
M16129.9 2013.79 L18246 2013.79 L18246 1046.11 L16129.9 1046.11  Z
  " fill="#ffffff" fill-rule="evenodd" fill-opacity="1"/>
<polyline clip-path="url(#clip1000)" style="stroke:#000000; stroke-width:32; stroke-opacity:1; fill:none" points="
  16129.9,2013.79 18246,2013.79 18246,1046.11 16129.9,1046.11 16129.9,2013.79 
  "/>
<polyline clip-path="url(#clip1000)" style="stroke:#009af9; stroke-width:48; stroke-opacity:1; fill:none" points="
  16321.9,1529.95 17473.9,1529.95 
  "/>
<path clip-path="url(#clip1000)" d="M 0 0 M17703.3 1536.16 L17703.3 1637.45 L17763.3 1637.45 Q17793.5 1637.45 17808 1625.04 Q17822.6 1612.45 17822.6 1586.71 Q17822.6 1560.79 17808 1548.56 Q17793.5 1536.16 17763.3 1536.16 L17703.3 1536.16 M17703.3 1422.45 L17703.3 1505.79 L17758.7 1505.79 Q17786.1 1505.79 17799.5 1495.6 Q17813 1485.23 17813 1464.12 Q17813 1443.19 17799.5 1432.82 Q17786.1 1422.45 17758.7 1422.45 L17703.3 1422.45 M17665.9 1391.71 L17761.5 1391.71 Q17804.3 1391.71 17827.4 1409.49 Q17850.6 1427.27 17850.6 1460.05 Q17850.6 1485.42 17838.7 1500.42 Q17826.9 1515.42 17803.9 1519.12 Q17831.5 1525.05 17846.7 1543.93 Q17862 1562.64 17862 1590.79 Q17862 1627.82 17836.9 1648.01 Q17811.7 1668.19 17765.2 1668.19 L17665.9 1668.19 L17665.9 1391.71 Z" fill="#000000" fill-rule="evenodd" fill-opacity="1" /></svg>
