<?xml version="1.0" encoding="utf-8"?>
<svg xmlns="http://www.w3.org/2000/svg" xmlns:xlink="http://www.w3.org/1999/xlink" width="4800" height="3200" viewBox="0 0 19200 12800">
<defs>
  <clipPath id="clip4400">
    <rect x="0" y="0" width="19200" height="12800"/>
  </clipPath>
</defs>
<path clip-path="url(#clip4400)" d="
M0 12800 L19200 12800 L19200 0 L0 0  Z
  " fill="#ffffff" fill-rule="evenodd" fill-opacity="1"/>
<defs>
  <clipPath id="clip4401">
    <rect x="3840" y="0" width="13441" height="12800"/>
  </clipPath>
</defs>
<path clip-path="url(#clip4400)" d="
M1692.82 11385.4 L18822 11385.4 L18822 377.953 L1692.82 377.953  Z
  " fill="#ffffff" fill-rule="evenodd" fill-opacity="1"/>
<defs>
  <clipPath id="clip4402">
    <rect x="1692" y="377" width="17130" height="11008"/>
  </clipPath>
</defs>
<polyline clip-path="url(#clip4402)" style="stroke:#000000; stroke-width:16; stroke-opacity:0.1; fill:none" points="
  1847.82,11385.4 1847.82,377.953 
  "/>
<polyline clip-path="url(#clip4402)" style="stroke:#000000; stroke-width:16; stroke-opacity:0.1; fill:none" points="
  5145.71,11385.4 5145.71,377.953 
  "/>
<polyline clip-path="url(#clip4402)" style="stroke:#000000; stroke-width:16; stroke-opacity:0.1; fill:none" points="
  8443.6,11385.4 8443.6,377.953 
  "/>
<polyline clip-path="url(#clip4402)" style="stroke:#000000; stroke-width:16; stroke-opacity:0.1; fill:none" points="
  11741.5,11385.4 11741.5,377.953 
  "/>
<polyline clip-path="url(#clip4402)" style="stroke:#000000; stroke-width:16; stroke-opacity:0.1; fill:none" points="
  15039.4,11385.4 15039.4,377.953 
  "/>
<polyline clip-path="url(#clip4402)" style="stroke:#000000; stroke-width:16; stroke-opacity:0.1; fill:none" points="
  18337.3,11385.4 18337.3,377.953 
  "/>
<polyline clip-path="url(#clip4402)" style="stroke:#000000; stroke-width:16; stroke-opacity:0.1; fill:none" points="
  1692.82,11073.9 18822,11073.9 
  "/>
<polyline clip-path="url(#clip4402)" style="stroke:#000000; stroke-width:16; stroke-opacity:0.1; fill:none" points="
  1692.82,8890.42 18822,8890.42 
  "/>
<polyline clip-path="url(#clip4402)" style="stroke:#000000; stroke-width:16; stroke-opacity:0.1; fill:none" points="
  1692.82,6706.94 18822,6706.94 
  "/>
<polyline clip-path="url(#clip4402)" style="stroke:#000000; stroke-width:16; stroke-opacity:0.1; fill:none" points="
  1692.82,4523.45 18822,4523.45 
  "/>
<polyline clip-path="url(#clip4402)" style="stroke:#000000; stroke-width:16; stroke-opacity:0.1; fill:none" points="
  1692.82,2339.97 18822,2339.97 
  "/>
<polyline clip-path="url(#clip4400)" style="stroke:#000000; stroke-width:32; stroke-opacity:1; fill:none" points="
  1692.82,11385.4 18822,11385.4 
  "/>
<polyline clip-path="url(#clip4400)" style="stroke:#000000; stroke-width:32; stroke-opacity:1; fill:none" points="
  1692.82,11385.4 1692.82,377.953 
  "/>
<polyline clip-path="url(#clip4400)" style="stroke:#000000; stroke-width:32; stroke-opacity:1; fill:none" points="
  1847.82,11385.4 1847.82,11253.3 
  "/>
<polyline clip-path="url(#clip4400)" style="stroke:#000000; stroke-width:32; stroke-opacity:1; fill:none" points="
  5145.71,11385.4 5145.71,11253.3 
  "/>
<polyline clip-path="url(#clip4400)" style="stroke:#000000; stroke-width:32; stroke-opacity:1; fill:none" points="
  8443.6,11385.4 8443.6,11253.3 
  "/>
<polyline clip-path="url(#clip4400)" style="stroke:#000000; stroke-width:32; stroke-opacity:1; fill:none" points="
  11741.5,11385.4 11741.5,11253.3 
  "/>
<polyline clip-path="url(#clip4400)" style="stroke:#000000; stroke-width:32; stroke-opacity:1; fill:none" points="
  15039.4,11385.4 15039.4,11253.3 
  "/>
<polyline clip-path="url(#clip4400)" style="stroke:#000000; stroke-width:32; stroke-opacity:1; fill:none" points="
  18337.3,11385.4 18337.3,11253.3 
  "/>
<polyline clip-path="url(#clip4400)" style="stroke:#000000; stroke-width:32; stroke-opacity:1; fill:none" points="
  1692.82,11073.9 1898.37,11073.9 
  "/>
<polyline clip-path="url(#clip4400)" style="stroke:#000000; stroke-width:32; stroke-opacity:1; fill:none" points="
  1692.82,8890.42 1898.37,8890.42 
  "/>
<polyline clip-path="url(#clip4400)" style="stroke:#000000; stroke-width:32; stroke-opacity:1; fill:none" points="
  1692.82,6706.94 1898.37,6706.94 
  "/>
<polyline clip-path="url(#clip4400)" style="stroke:#000000; stroke-width:32; stroke-opacity:1; fill:none" points="
  1692.82,4523.45 1898.37,4523.45 
  "/>
<polyline clip-path="url(#clip4400)" style="stroke:#000000; stroke-width:32; stroke-opacity:1; fill:none" points="
  1692.82,2339.97 1898.37,2339.97 
  "/>
<path clip-path="url(#clip4400)" d="M 0 0 M1847.82 11561.4 Q1818.93 11561.4 1804.3 11589.9 Q1789.86 11618.2 1789.86 11675.3 Q1789.86 11732.1 1804.3 11760.6 Q1818.93 11789 1847.82 11789 Q1876.89 11789 1891.34 11760.6 Q1905.97 11732.1 1905.97 11675.3 Q1905.97 11618.2 1891.34 11589.9 Q1876.89 11561.4 1847.82 11561.4 M1847.82 11531.7 Q1894.3 11531.7 1918.75 11568.6 Q1943.38 11605.3 1943.38 11675.3 Q1943.38 11745.1 1918.75 11781.9 Q1894.3 11818.6 1847.82 11818.6 Q1801.34 11818.6 1776.71 11781.9 Q1752.27 11745.1 1752.27 11675.3 Q1752.27 11605.3 1776.71 11568.6 Q1801.34 11531.7 1847.82 11531.7 Z" fill="#000000" fill-rule="evenodd" fill-opacity="1" /><path clip-path="url(#clip4400)" d="M 0 0 M5068.76 11781.7 L5129.87 11781.7 L5129.87 11570.8 L5063.39 11584.1 L5063.39 11550.1 L5129.5 11536.7 L5166.91 11536.7 L5166.91 11781.7 L5228.02 11781.7 L5228.02 11813.2 L5068.76 11813.2 L5068.76 11781.7 Z" fill="#000000" fill-rule="evenodd" fill-opacity="1" /><path clip-path="url(#clip4400)" d="M 0 0 M8400.82 11781.7 L8531.37 11781.7 L8531.37 11813.2 L8355.82 11813.2 L8355.82 11781.7 Q8377.11 11759.7 8413.78 11722.7 Q8450.63 11685.4 8460.08 11674.7 Q8478.04 11654.5 8485.08 11640.6 Q8492.3 11626.5 8492.3 11613 Q8492.3 11591 8476.74 11577.1 Q8461.37 11563.2 8436.56 11563.2 Q8418.97 11563.2 8399.34 11569.3 Q8379.89 11575.4 8357.67 11587.8 L8357.67 11550.1 Q8380.26 11541 8399.89 11536.4 Q8419.52 11531.7 8435.82 11531.7 Q8478.78 11531.7 8504.34 11553.2 Q8529.89 11574.7 8529.89 11610.6 Q8529.89 11627.7 8523.41 11643 Q8517.11 11658.2 8500.26 11679 Q8495.63 11684.3 8470.82 11710.1 Q8446 11735.6 8400.82 11781.7 Z" fill="#000000" fill-rule="evenodd" fill-opacity="1" /><path clip-path="url(#clip4400)" d="M 0 0 M11775.5 11664.1 Q11802.3 11669.9 11817.3 11688 Q11832.5 11706.2 11832.5 11732.8 Q11832.5 11773.8 11804.4 11796.2 Q11776.2 11818.6 11724.4 11818.6 Q11706.9 11818.6 11688.4 11815.1 Q11670.1 11811.7 11650.5 11804.9 L11650.5 11768.8 Q11666 11777.8 11684.5 11782.5 Q11703.1 11787.1 11723.2 11787.1 Q11758.4 11787.1 11776.8 11773.2 Q11795.3 11759.3 11795.3 11732.8 Q11795.3 11708.4 11778.1 11694.7 Q11761 11680.8 11730.5 11680.8 L11698.2 11680.8 L11698.2 11650.1 L11731.9 11650.1 Q11759.5 11650.1 11774.2 11639.1 Q11788.8 11628 11788.8 11607.3 Q11788.8 11586 11773.6 11574.7 Q11758.6 11563.2 11730.5 11563.2 Q11715.1 11563.2 11697.5 11566.5 Q11679.9 11569.9 11658.8 11576.9 L11658.8 11543.6 Q11680.1 11537.7 11698.6 11534.7 Q11717.3 11531.7 11733.8 11531.7 Q11776.4 11531.7 11801.2 11551.2 Q11826 11570.4 11826 11603.4 Q11826 11626.4 11812.9 11642.3 Q11799.7 11658 11775.5 11664.1 Z" fill="#000000" fill-rule="evenodd" fill-opacity="1" /><path clip-path="url(#clip4400)" d="M 0 0 M15063.4 11569.3 L14969 11716.9 L15063.4 11716.9 L15063.4 11569.3 M15053.6 11536.7 L15100.7 11536.7 L15100.7 11716.9 L15140.1 11716.9 L15140.1 11748 L15100.7 11748 L15100.7 11813.2 L15063.4 11813.2 L15063.4 11748 L14938.6 11748 L14938.6 11711.9 L15053.6 11536.7 Z" fill="#000000" fill-rule="evenodd" fill-opacity="1" /><path clip-path="url(#clip4400)" d="M 0 0 M18259.5 11536.7 L18406.3 11536.7 L18406.3 11568.2 L18293.7 11568.2 L18293.7 11636 Q18301.9 11633.2 18310 11631.9 Q18318.2 11630.4 18326.3 11630.4 Q18372.6 11630.4 18399.7 11655.8 Q18426.7 11681.2 18426.7 11724.5 Q18426.7 11769.1 18398.9 11794 Q18371.1 11818.6 18320.6 11818.6 Q18303.2 11818.6 18285 11815.6 Q18267.1 11812.7 18247.8 11806.7 L18247.8 11769.1 Q18264.5 11778.2 18282.3 11782.7 Q18300 11787.1 18319.9 11787.1 Q18351.9 11787.1 18370.6 11770.3 Q18389.3 11753.4 18389.3 11724.5 Q18389.3 11695.6 18370.6 11678.8 Q18351.9 11661.9 18319.9 11661.9 Q18304.9 11661.9 18289.9 11665.3 Q18275 11668.6 18259.5 11675.6 L18259.5 11536.7 Z" fill="#000000" fill-rule="evenodd" fill-opacity="1" /><path clip-path="url(#clip4400)" d="M 0 0 M1109.53 10960.3 Q1080.64 10960.3 1066.01 10988.8 Q1051.56 11017.1 1051.56 11074.2 Q1051.56 11131 1066.01 11159.6 Q1080.64 11187.9 1109.53 11187.9 Q1138.6 11187.9 1153.04 11159.6 Q1167.67 11131 1167.67 11074.2 Q1167.67 11017.1 1153.04 10988.8 Q1138.6 10960.3 1109.53 10960.3 M1109.53 10930.7 Q1156.01 10930.7 1180.45 10967.5 Q1205.08 11004.2 1205.08 11074.2 Q1205.08 11144 1180.45 11180.8 Q1156.01 11217.5 1109.53 11217.5 Q1063.04 11217.5 1038.41 11180.8 Q1013.97 11144 1013.97 11074.2 Q1013.97 11004.2 1038.41 10967.5 Q1063.04 10930.7 1109.53 10930.7 Z" fill="#000000" fill-rule="evenodd" fill-opacity="1" /><path clip-path="url(#clip4400)" d="M 0 0 M1245.64 11165.1 L1284.71 11165.1 L1284.71 11212.1 L1245.64 11212.1 L1245.64 11165.1 Z" fill="#000000" fill-rule="evenodd" fill-opacity="1" /><path clip-path="url(#clip4400)" d="M 0 0 M1405.26 10960.3 Q1376.38 10960.3 1361.75 10988.8 Q1347.3 11017.1 1347.3 11074.2 Q1347.3 11131 1361.75 11159.6 Q1376.38 11187.9 1405.26 11187.9 Q1434.34 11187.9 1448.78 11159.6 Q1463.41 11131 1463.41 11074.2 Q1463.41 11017.1 1448.78 10988.8 Q1434.34 10960.3 1405.26 10960.3 M1405.26 10930.7 Q1451.75 10930.7 1476.19 10967.5 Q1500.82 11004.2 1500.82 11074.2 Q1500.82 11144 1476.19 11180.8 Q1451.75 11217.5 1405.26 11217.5 Q1358.78 11217.5 1334.15 11180.8 Q1309.71 11144 1309.71 11074.2 Q1309.71 11004.2 1334.15 10967.5 Q1358.78 10930.7 1405.26 10930.7 Z" fill="#000000" fill-rule="evenodd" fill-opacity="1" /><path clip-path="url(#clip4400)" d="M 0 0 M1122.3 8776.81 Q1093.41 8776.81 1078.78 8805.33 Q1064.34 8833.66 1064.34 8890.7 Q1064.34 8947.55 1078.78 8976.07 Q1093.41 9004.4 1122.3 9004.4 Q1151.38 9004.4 1165.82 8976.07 Q1180.45 8947.55 1180.45 8890.7 Q1180.45 8833.66 1165.82 8805.33 Q1151.38 8776.81 1122.3 8776.81 M1122.3 8747.18 Q1168.78 8747.18 1193.23 8784.03 Q1217.86 8820.7 1217.86 8890.7 Q1217.86 8960.51 1193.23 8997.37 Q1168.78 9034.03 1122.3 9034.03 Q1075.82 9034.03 1051.19 8997.37 Q1026.75 8960.51 1026.75 8890.7 Q1026.75 8820.7 1051.19 8784.03 Q1075.82 8747.18 1122.3 8747.18 Z" fill="#000000" fill-rule="evenodd" fill-opacity="1" /><path clip-path="url(#clip4400)" d="M 0 0 M1258.41 8981.63 L1297.49 8981.63 L1297.49 9028.66 L1258.41 9028.66 L1258.41 8981.63 Z" fill="#000000" fill-rule="evenodd" fill-opacity="1" /><path clip-path="url(#clip4400)" d="M 0 0 M1370.26 8997.18 L1500.82 8997.18 L1500.82 9028.66 L1325.26 9028.66 L1325.26 8997.18 Q1346.56 8975.14 1383.23 8938.11 Q1420.08 8900.88 1429.52 8890.14 Q1447.49 8869.96 1454.52 8856.07 Q1461.75 8842 1461.75 8828.48 Q1461.75 8806.44 1446.19 8792.55 Q1430.82 8778.66 1406.01 8778.66 Q1388.41 8778.66 1368.78 8784.77 Q1349.34 8790.89 1327.12 8803.29 L1327.12 8765.52 Q1349.71 8756.44 1369.34 8751.81 Q1388.97 8747.18 1405.26 8747.18 Q1448.23 8747.18 1473.78 8768.66 Q1499.34 8790.14 1499.34 8826.07 Q1499.34 8843.11 1492.86 8858.48 Q1486.56 8873.66 1469.71 8894.4 Q1465.08 8899.77 1440.26 8925.51 Q1415.45 8951.07 1370.26 8997.18 Z" fill="#000000" fill-rule="evenodd" fill-opacity="1" /><path clip-path="url(#clip4400)" d="M 0 0 M1105.64 6593.33 Q1076.75 6593.33 1062.12 6621.85 Q1047.67 6650.18 1047.67 6707.22 Q1047.67 6764.07 1062.12 6792.59 Q1076.75 6820.92 1105.64 6820.92 Q1134.71 6820.92 1149.15 6792.59 Q1163.78 6764.07 1163.78 6707.22 Q1163.78 6650.18 1149.15 6621.85 Q1134.71 6593.33 1105.64 6593.33 M1105.64 6563.7 Q1152.12 6563.7 1176.56 6600.55 Q1201.19 6637.22 1201.19 6707.22 Q1201.19 6777.03 1176.56 6813.88 Q1152.12 6850.55 1105.64 6850.55 Q1059.16 6850.55 1034.53 6813.88 Q1010.08 6777.03 1010.08 6707.22 Q1010.08 6637.22 1034.53 6600.55 Q1059.16 6563.7 1105.64 6563.7 Z" fill="#000000" fill-rule="evenodd" fill-opacity="1" /><path clip-path="url(#clip4400)" d="M 0 0 M1241.75 6798.14 L1280.82 6798.14 L1280.82 6845.18 L1241.75 6845.18 L1241.75 6798.14 Z" fill="#000000" fill-rule="evenodd" fill-opacity="1" /><path clip-path="url(#clip4400)" d="M 0 0 M1424.15 6601.29 L1329.71 6748.88 L1424.15 6748.88 L1424.15 6601.29 M1414.34 6568.7 L1461.38 6568.7 L1461.38 6748.88 L1500.82 6748.88 L1500.82 6779.99 L1461.38 6779.99 L1461.38 6845.18 L1424.15 6845.18 L1424.15 6779.99 L1299.34 6779.99 L1299.34 6743.88 L1414.34 6568.7 Z" fill="#000000" fill-rule="evenodd" fill-opacity="1" /><path clip-path="url(#clip4400)" d="M 0 0 M1108.23 4409.84 Q1079.34 4409.84 1064.71 4438.36 Q1050.27 4466.7 1050.27 4523.73 Q1050.27 4580.58 1064.71 4609.1 Q1079.34 4637.43 1108.23 4637.43 Q1137.3 4637.43 1151.75 4609.1 Q1166.38 4580.58 1166.38 4523.73 Q1166.38 4466.7 1151.75 4438.36 Q1137.3 4409.84 1108.23 4409.84 M1108.23 4380.21 Q1154.71 4380.21 1179.15 4417.07 Q1203.78 4453.73 1203.78 4523.73 Q1203.78 4593.55 1179.15 4630.4 Q1154.71 4667.06 1108.23 4667.06 Q1061.75 4667.06 1037.12 4630.4 Q1012.67 4593.55 1012.67 4523.73 Q1012.67 4453.73 1037.12 4417.07 Q1061.75 4380.21 1108.23 4380.21 Z" fill="#000000" fill-rule="evenodd" fill-opacity="1" /><path clip-path="url(#clip4400)" d="M 0 0 M1244.34 4614.66 L1283.41 4614.66 L1283.41 4661.69 L1244.34 4661.69 L1244.34 4614.66 Z" fill="#000000" fill-rule="evenodd" fill-opacity="1" /><path clip-path="url(#clip4400)" d="M 0 0 M1408.6 4508.55 Q1383.41 4508.55 1368.6 4525.77 Q1353.97 4542.99 1353.97 4572.99 Q1353.97 4602.81 1368.6 4620.21 Q1383.41 4637.43 1408.6 4637.43 Q1433.78 4637.43 1448.41 4620.21 Q1463.23 4602.81 1463.23 4572.99 Q1463.23 4542.99 1448.41 4525.77 Q1433.78 4508.55 1408.6 4508.55 M1482.86 4391.33 L1482.86 4425.4 Q1468.78 4418.73 1454.34 4415.21 Q1440.08 4411.7 1426 4411.7 Q1388.97 4411.7 1369.34 4436.7 Q1349.89 4461.7 1347.12 4512.25 Q1358.04 4496.14 1374.52 4487.62 Q1391.01 4478.92 1410.82 4478.92 Q1452.49 4478.92 1476.56 4504.29 Q1500.82 4529.47 1500.82 4572.99 Q1500.82 4615.58 1475.63 4641.32 Q1450.45 4667.06 1408.6 4667.06 Q1360.63 4667.06 1335.26 4630.4 Q1309.89 4593.55 1309.89 4523.73 Q1309.89 4458.18 1341.01 4419.29 Q1372.12 4380.21 1424.52 4380.21 Q1438.6 4380.21 1452.86 4382.99 Q1467.3 4385.77 1482.86 4391.33 Z" fill="#000000" fill-rule="evenodd" fill-opacity="1" /><path clip-path="url(#clip4400)" d="M 0 0 M1110.27 2226.36 Q1081.38 2226.36 1066.75 2254.88 Q1052.3 2283.21 1052.3 2340.25 Q1052.3 2397.1 1066.75 2425.62 Q1081.38 2453.95 1110.27 2453.95 Q1139.34 2453.95 1153.78 2425.62 Q1168.41 2397.1 1168.41 2340.25 Q1168.41 2283.21 1153.78 2254.88 Q1139.34 2226.36 1110.27 2226.36 M1110.27 2196.73 Q1156.75 2196.73 1181.19 2233.58 Q1205.82 2270.25 1205.82 2340.25 Q1205.82 2410.06 1181.19 2446.91 Q1156.75 2483.58 1110.27 2483.58 Q1063.78 2483.58 1039.16 2446.91 Q1014.71 2410.06 1014.71 2340.25 Q1014.71 2270.25 1039.16 2233.58 Q1063.78 2196.73 1110.27 2196.73 Z" fill="#000000" fill-rule="evenodd" fill-opacity="1" /><path clip-path="url(#clip4400)" d="M 0 0 M1246.38 2431.17 L1285.45 2431.17 L1285.45 2478.21 L1246.38 2478.21 L1246.38 2431.17 Z" fill="#000000" fill-rule="evenodd" fill-opacity="1" /><path clip-path="url(#clip4400)" d="M 0 0 M1406.01 2346.91 Q1379.34 2346.91 1363.97 2361.17 Q1348.78 2375.43 1348.78 2400.43 Q1348.78 2425.43 1363.97 2439.69 Q1379.34 2453.95 1406.01 2453.95 Q1432.67 2453.95 1448.04 2439.69 Q1463.41 2425.25 1463.41 2400.43 Q1463.41 2375.43 1448.04 2361.17 Q1432.86 2346.91 1406.01 2346.91 M1368.6 2330.99 Q1344.52 2325.06 1331.01 2308.58 Q1317.67 2292.1 1317.67 2268.4 Q1317.67 2235.25 1341.19 2215.99 Q1364.89 2196.73 1406.01 2196.73 Q1447.3 2196.73 1470.82 2215.99 Q1494.34 2235.25 1494.34 2268.4 Q1494.34 2292.1 1480.82 2308.58 Q1467.49 2325.06 1443.6 2330.99 Q1470.63 2337.28 1485.63 2355.62 Q1500.82 2373.95 1500.82 2400.43 Q1500.82 2440.62 1476.19 2462.1 Q1451.75 2483.58 1406.01 2483.58 Q1360.26 2483.58 1335.64 2462.1 Q1311.19 2440.62 1311.19 2400.43 Q1311.19 2373.95 1326.38 2355.62 Q1341.56 2337.28 1368.6 2330.99 M1354.89 2271.91 Q1354.89 2293.4 1368.23 2305.43 Q1381.75 2317.47 1406.01 2317.47 Q1430.08 2317.47 1443.6 2305.43 Q1457.3 2293.4 1457.3 2271.91 Q1457.3 2250.43 1443.6 2238.4 Q1430.08 2226.36 1406.01 2226.36 Q1381.75 2226.36 1368.23 2238.4 Q1354.89 2250.43 1354.89 2271.91 Z" fill="#000000" fill-rule="evenodd" fill-opacity="1" /><path clip-path="url(#clip4400)" d="M 0 0 M10096.6 12068.2 L10418.2 12068.2 L10418.2 12111.5 L10283.3 12111.5 L10283.3 12448.4 L10231.6 12448.4 L10231.6 12111.5 L10096.6 12111.5 L10096.6 12068.2 Z" fill="#000000" fill-rule="evenodd" fill-opacity="1" /><path clip-path="url(#clip4400)" d="M 0 0 M522.483 5965.09 L661.765 5965.09 L661.765 5882.59 Q661.765 5841.08 644.705 5821.22 Q627.39 5801.11 591.997 5801.11 Q556.349 5801.11 539.543 5821.22 Q522.483 5841.08 522.483 5882.59 L522.483 5965.09 M366.142 5965.09 L480.724 5965.09 L480.724 5888.95 Q480.724 5851.27 466.72 5832.93 Q452.461 5814.35 423.433 5814.35 Q394.66 5814.35 380.401 5832.93 Q366.142 5851.27 366.142 5888.95 L366.142 5965.09 M323.873 6016.52 L323.873 5885.13 Q323.873 5826.31 348.318 5794.49 Q372.762 5762.66 417.831 5762.66 Q452.715 5762.66 473.34 5778.95 Q493.965 5795.25 499.058 5826.82 Q507.206 5788.88 533.178 5768 Q558.895 5746.87 597.599 5746.87 Q648.524 5746.87 676.279 5781.5 Q704.033 5816.13 704.033 5880.04 L704.033 6016.52 L323.873 6016.52 Z" fill="#000000" fill-rule="evenodd" fill-opacity="1" /><polyline clip-path="url(#clip4402)" style="stroke:#009af9; stroke-width:48; stroke-opacity:1; fill:none" points="
  2177.61,11073.9 2218.11,11073.9 2258.61,11073.9 2299.11,11073.9 2339.61,11073.9 2380.11,11073.9 2420.61,11073.9 2461.11,11073.9 2501.61,11073.9 2542.11,11073.9 
  2582.61,11073.9 2623.11,11073.9 2663.61,11073.9 2704.11,11073.9 2744.61,11073.9 2785.11,11073.9 2825.61,11073.9 2866.12,11073.9 2906.62,11073.9 2947.12,11073.9 
  2987.62,11073.9 3028.12,11073.9 3068.62,11073.9 3109.12,11073.9 3149.62,11073.9 3190.12,11073.9 3230.62,11073.9 3271.12,11073.9 3311.62,11073.9 3352.12,11073.9 
  3392.62,11073.9 3433.12,11073.9 3473.62,11073.9 3514.12,11073.9 3554.62,11073.9 3595.12,11073.9 3635.62,11073.9 3676.12,11073.9 3716.62,11073.9 3757.12,11073.9 
  3797.62,11073.9 3838.12,11073.9 3878.62,11073.9 3919.12,11073.9 3959.63,11073.9 4000.13,11073.9 4040.63,11073.9 4081.13,11073.9 4121.63,11073.9 4162.13,11073.9 
  4202.63,11073.9 4243.13,11073.9 4283.63,11073.9 4324.13,11073.9 4364.63,11073.9 4405.13,11073.9 4445.63,11073.8 4486.13,11073.9 4526.63,11073.9 4567.13,11073.8 
  4607.63,11073.8 4648.13,11073.8 4688.63,11073.8 4729.13,11073.8 4769.63,11073.8 4810.13,11073.7 4850.63,11073.7 4891.13,11073.7 4931.63,11073.6 4972.13,11073.5 
  5012.63,11073.5 5053.14,11073.5 5093.64,11073.4 5134.14,11073.3 5174.64,11073.3 5215.14,11073.4 5255.64,11073.3 5296.14,11073.3 5336.64,11073.1 5377.14,11073 
  5417.64,11072.9 5458.14,11072.8 5498.64,11072.7 5539.14,11072.5 5579.64,11072.5 5620.14,11072.2 5660.64,11072.2 5701.14,11072 5741.64,11072.1 5782.14,11071.6 
  5822.64,11071.4 5863.14,11071.3 5903.64,11071.1 5944.14,11070.9 5984.64,11070.5 6025.14,11070.3 6065.64,11070.1 6106.15,11069.7 6146.65,11069.4 6187.15,11069.5 
  6227.65,11069 6268.15,11068.3 6308.65,11067.7 6349.15,11068 6389.65,11067 6430.15,11066 6470.65,11065.7 6511.15,11065.7 6551.65,11064.5 6592.15,11064.3 
  6632.65,11063.8 6673.15,11062.7 6713.65,11061.6 6754.15,11061 6794.65,11059.3 6835.15,11059.3 6875.65,11059 6916.15,11057.8 6956.65,11056 6997.15,11054.9 
  7037.65,11054 7078.15,11054.8 7118.65,11052 7159.15,11049.9 7199.66,11046 7240.16,11048.5 7280.66,11046.4 7321.16,11044.8 7361.66,11038.8 7402.16,11037.8 
  7442.66,11035.7 7483.16,11029.9 7523.66,11031.8 7564.16,11028 7604.66,11027 7645.16,11025.1 7685.66,11023.3 7726.16,11011.9 7766.66,11015.3 7807.16,10998.9 
  7847.66,11007.2 7888.16,10992.7 7928.66,10996.3 7969.16,11000.9 8009.66,10980.2 8050.16,10980.6 8090.66,10986.3 8131.16,10976.7 8171.66,10944.6 8212.16,10942.4 
  8252.66,10924.5 8293.17,10886.6 8333.67,10915.9 8374.17,10906.7 8414.67,10900 8455.17,10883.7 8495.67,10895.4 8536.17,10829.8 8576.67,10862 8617.17,10842.7 
  8657.67,10776.5 8698.17,10820.1 8738.67,10733.8 8779.17,10734.5 8819.67,10742.8 8860.17,10628.1 8900.67,10674.4 8941.17,10583.4 8981.67,10586.9 9022.17,10535.3 
  9062.67,10562.9 9103.17,10496.6 9143.67,10411 9184.17,10259.7 9224.67,10454.3 9265.17,10244.4 9305.67,10219.6 9346.17,10185.5 9386.68,10084 9427.18,10056.9 
  9467.68,10043 9508.18,9973.95 9548.68,9879.93 9589.18,9879.07 9629.68,9893.44 9670.18,9599.29 9710.68,9471.71 9751.18,9366.95 9791.68,9287.62 9832.18,9421.82 
  9872.68,9319.61 9913.18,9270.44 9953.68,9132.11 9994.18,8966.8 10034.7,8926.28 10075.2,8899.63 10115.7,8698.91 10156.2,8611.15 10196.7,8792.43 10237.2,8279.69 
  10277.7,8253.08 10318.2,8079.17 10358.7,8152.61 10399.2,7884.34 10439.7,7955.57 10480.2,7686.12 10520.7,7627.83 10561.2,7632.6 10601.7,7470.62 10642.2,7309.63 
  10682.7,7136.4 10723.2,7273.64 10763.7,7041.1 10804.2,6849.37 10844.7,6552.66 10885.2,6460.33 10925.7,6557.03 10966.2,6718.24 11006.7,6338.68 11047.2,6325.8 
  11087.7,6392.64 11128.2,6115.65 11168.7,6032.34 11209.2,5971.16 11249.7,5643.37 11290.2,5423.94 11330.7,5501.29 11371.2,5582.7 11411.7,5667.13 11452.2,5012.3 
  11492.7,5600.05 11533.2,5406.86 11573.7,4996.14 11614.2,4836.85 11654.7,4907.27 11695.2,4506.84 11735.7,4945.77 11776.2,4742.59 11816.7,4611.92 11857.2,4637.1 
  11897.7,4604.04 11938.2,4483.78 11978.7,3971.18 12019.2,4265.62 12059.7,3637.24 12100.2,4217.46 12140.7,4276.58 12181.2,3774.24 12221.7,3809.47 12262.2,4048.57 
  12302.7,3683.16 12343.2,3951.54 12383.7,4107.82 12424.2,3736.27 12464.7,3801.87 12505.2,3803.27 12545.7,3089.16 12586.2,3454.48 12626.7,3275.3 12667.2,3453.42 
  12707.7,3322.88 12748.2,3072.21 12788.7,3142.1 12829.2,3335.25 12869.7,3071.39 12910.2,2754.91 12950.7,3022.43 12991.2,2932.65 13031.7,3228.89 13072.2,3206.26 
  13112.7,3012.91 13153.2,2622.6 13193.7,2898.36 13234.2,2714.11 13274.7,2536.99 13315.2,2548.81 13355.7,2480.14 13396.2,2829.74 13436.7,2597.97 13477.2,2698.19 
  13517.7,2403.25 13558.2,2602.79 13598.7,2209.48 13639.2,2200.22 13679.7,2539.96 13720.2,2300.29 13760.7,2515.81 13801.2,2302.59 13841.7,2201.64 13882.2,2215.52 
  13922.7,2378.32 13963.2,1907.89 14003.7,2274.51 14044.2,2253.95 14084.7,2152.69 14125.2,1893.75 14165.7,1902.49 14206.2,2532.18 14246.7,1792.25 14287.2,2268.25 
  14327.7,1961.15 14368.2,2307.44 14408.7,2342.52 14449.2,1924.52 14489.7,2104.27 14530.2,2041.11 14570.7,1665.65 14611.2,1831.04 14651.7,2193.51 14692.2,1962.77 
  14732.7,1899.77 14773.2,1742.08 14813.7,1738.95 14854.2,2101.49 14894.7,1465.84 14935.2,1785.23 14975.7,1797.34 15016.2,1894.88 15056.7,1665.56 15097.2,1772.77 
  15137.7,1749.84 15178.2,1758.19 15218.7,1742.97 15259.2,2084.59 15299.7,2039.47 15340.2,1395.65 15380.7,1553.78 15421.2,1629.37 15461.7,1526.51 15502.2,1421.97 
  15542.7,1405.81 15583.2,1452.03 15623.7,1670.98 15664.2,1869.88 15704.7,1521.26 15745.2,1924.78 15785.7,1193.5 15826.2,1261.35 15866.7,1225.44 15907.2,1545.69 
  15947.7,1351.89 15988.2,1490.11 16028.7,1381.08 16069.2,1697.36 16109.7,1653.24 16150.2,1783.08 16190.7,1151.92 16231.2,1530.9 16271.7,1083.3 16312.2,1476.14 
  16352.7,1661.16 16393.2,1709.79 16433.7,1284.14 16474.2,1414.42 16514.7,1348.97 16555.2,1197.31 16595.7,1339.67 16636.2,1293.5 16676.7,1193.04 16717.2,1366.78 
  16757.7,1179.61 16798.2,871.386 16838.7,1364.81 16879.2,1045.64 16919.7,1090.14 16960.2,1219.15 17000.7,920.17 17041.2,1313.62 17081.7,1306.08 17122.2,981.772 
  17162.7,1029.72 17203.2,1289.02 17243.7,1410.62 17284.2,1484.76 17324.7,1227.1 17365.2,1162.73 17405.7,1260.16 17446.2,1216.81 17486.7,1144.74 17527.3,968.976 
  17567.8,1517.6 17608.3,689.485 17648.8,1464.87 17689.3,1405.89 17729.8,906.503 17770.3,1446.6 17810.8,1135.83 17851.3,999.916 17891.8,1072.29 17932.3,1140.49 
  17972.8,912.01 18013.3,1010.65 18053.8,1046.68 18094.3,1004.22 18134.8,1244.69 18175.3,1238.49 18215.8,1228.75 18256.3,1272.39 18296.8,1173.83 18337.3,1092.03 
  
  "/>
<path clip-path="url(#clip4400)" d="
M16129.9 2013.79 L18246 2013.79 L18246 1046.11 L16129.9 1046.11  Z
  " fill="#ffffff" fill-rule="evenodd" fill-opacity="1"/>
<polyline clip-path="url(#clip4400)" style="stroke:#000000; stroke-width:32; stroke-opacity:1; fill:none" points="
  16129.9,2013.79 18246,2013.79 18246,1046.11 16129.9,1046.11 16129.9,2013.79 
  "/>
<polyline clip-path="url(#clip4400)" style="stroke:#009af9; stroke-width:48; stroke-opacity:1; fill:none" points="
  16321.9,1529.95 17473.9,1529.95 
  "/>
<path clip-path="url(#clip4400)" d="M 0 0 M17703.3 1536.16 L17703.3 1637.45 L17763.3 1637.45 Q17793.5 1637.45 17808 1625.04 Q17822.6 1612.45 17822.6 1586.71 Q17822.6 1560.79 17808 1548.56 Q17793.5 1536.16 17763.3 1536.16 L17703.3 1536.16 M17703.3 1422.45 L17703.3 1505.79 L17758.7 1505.79 Q17786.1 1505.79 17799.5 1495.6 Q17813 1485.23 17813 1464.12 Q17813 1443.19 17799.5 1432.82 Q17786.1 1422.45 17758.7 1422.45 L17703.3 1422.45 M17665.9 1391.71 L17761.5 1391.71 Q17804.3 1391.71 17827.4 1409.49 Q17850.6 1427.27 17850.6 1460.05 Q17850.6 1485.42 17838.7 1500.42 Q17826.9 1515.42 17803.9 1519.12 Q17831.5 1525.05 17846.7 1543.93 Q17862 1562.64 17862 1590.79 Q17862 1627.82 17836.9 1648.01 Q17811.7 1668.19 17765.2 1668.19 L17665.9 1668.19 L17665.9 1391.71 Z" fill="#000000" fill-rule="evenodd" fill-opacity="1" /></svg>
