<?xml version="1.0" encoding="UTF-8" standalone="no"?>
<svg
   xmlns:dc="http://purl.org/dc/elements/1.1/"
   xmlns:cc="http://creativecommons.org/ns#"
   xmlns:rdf="http://www.w3.org/1999/02/22-rdf-syntax-ns#"
   xmlns:svg="http://www.w3.org/2000/svg"
   xmlns="http://www.w3.org/2000/svg"
   xmlns:sodipodi="http://sodipodi.sourceforge.net/DTD/sodipodi-0.dtd"
   xmlns:inkscape="http://www.inkscape.org/namespaces/inkscape"
   inkscape:version="1.0 (4035a4fb49, 2020-05-01)"
   sodipodi:docname="C_24.svg"
   id="svg113"
   version="1.1"
   viewBox="0 0 19200 12800"
   height="3200"
   width="4800">
  <metadata
     id="metadata117">
    <rdf:RDF>
      <cc:Work
         rdf:about="">
        <dc:format>image/svg+xml</dc:format>
        <dc:type
           rdf:resource="http://purl.org/dc/dcmitype/StillImage" />
      </cc:Work>
    </rdf:RDF>
  </metadata>
  <sodipodi:namedview
     inkscape:current-layer="svg113"
     inkscape:window-maximized="1"
     inkscape:window-y="-6"
     inkscape:window-x="-6"
     inkscape:cy="1600"
     inkscape:cx="2400"
     inkscape:zoom="0.153125"
     showgrid="false"
     id="namedview115"
     inkscape:window-height="658"
     inkscape:window-width="1280"
     inkscape:pageshadow="2"
     inkscape:pageopacity="0"
     guidetolerance="10"
     gridtolerance="10"
     objecttolerance="10"
     borderopacity="1"
     bordercolor="#666666"
     pagecolor="#ffffff" />
  <defs
     id="defs5">
    <clipPath
       id="clip1800">
      <rect
         id="rect2"
         height="12800"
         width="19200"
         y="0"
         x="0" />
    </clipPath>
  </defs>
  <path
     id="path7"
     fill-opacity="1"
     fill-rule="evenodd"
     fill="#ffffff"
     d=" M0 12800 L19200 12800 L19200 0 L0 0  Z   "
     clip-path="url(#clip1800)" />
  <defs
     id="defs12">
    <clipPath
       id="clip1801">
      <rect
         id="rect9"
         height="12800"
         width="13441"
         y="0"
         x="3840" />
    </clipPath>
  </defs>
  <path
     id="path14"
     fill-opacity="1"
     fill-rule="evenodd"
     fill="#ffffff"
     d=" M1403.56 11385.4 L18822 11385.4 L18822 377.953 L1403.56 377.953  Z   "
     clip-path="url(#clip1800)" />
  <defs
     id="defs19">
    <clipPath
       id="clip1802">
      <rect
         id="rect16"
         height="11008"
         width="17419"
         y="377"
         x="1403" />
    </clipPath>
  </defs>
  <polyline
     id="polyline21"
     points="   1561.18,11385.4 1561.18,377.953    "
     style="stroke:#000000; stroke-width:16; stroke-opacity:0.1; fill:none"
     clip-path="url(#clip1802)" />
  <polyline
     id="polyline23"
     points="   4914.76,11385.4 4914.76,377.953    "
     style="stroke:#000000; stroke-width:16; stroke-opacity:0.1; fill:none"
     clip-path="url(#clip1802)" />
  <polyline
     id="polyline25"
     points="   8268.34,11385.4 8268.34,377.953    "
     style="stroke:#000000; stroke-width:16; stroke-opacity:0.1; fill:none"
     clip-path="url(#clip1802)" />
  <polyline
     id="polyline27"
     points="   11621.9,11385.4 11621.9,377.953    "
     style="stroke:#000000; stroke-width:16; stroke-opacity:0.1; fill:none"
     clip-path="url(#clip1802)" />
  <polyline
     id="polyline29"
     points="   14975.5,11385.4 14975.5,377.953    "
     style="stroke:#000000; stroke-width:16; stroke-opacity:0.1; fill:none"
     clip-path="url(#clip1802)" />
  <polyline
     id="polyline31"
     points="   18329.1,11385.4 18329.1,377.953    "
     style="stroke:#000000; stroke-width:16; stroke-opacity:0.1; fill:none"
     clip-path="url(#clip1802)" />
  <polyline
     id="polyline33"
     points="   1403.56,11073.9 18822,11073.9    "
     style="stroke:#000000; stroke-width:16; stroke-opacity:0.1; fill:none"
     clip-path="url(#clip1802)" />
  <polyline
     id="polyline35"
     points="   1403.56,8527.52 18822,8527.52    "
     style="stroke:#000000; stroke-width:16; stroke-opacity:0.1; fill:none"
     clip-path="url(#clip1802)" />
  <polyline
     id="polyline37"
     points="   1403.56,5981.13 18822,5981.13    "
     style="stroke:#000000; stroke-width:16; stroke-opacity:0.1; fill:none"
     clip-path="url(#clip1802)" />
  <polyline
     id="polyline39"
     points="   1403.56,3434.74 18822,3434.74    "
     style="stroke:#000000; stroke-width:16; stroke-opacity:0.1; fill:none"
     clip-path="url(#clip1802)" />
  <polyline
     id="polyline41"
     points="   1403.56,888.35 18822,888.35    "
     style="stroke:#000000; stroke-width:16; stroke-opacity:0.1; fill:none"
     clip-path="url(#clip1802)" />
  <polyline
     id="polyline43"
     points="   1403.56,11385.4 18822,11385.4    "
     style="stroke:#000000; stroke-width:32; stroke-opacity:1; fill:none"
     clip-path="url(#clip1800)" />
  <polyline
     id="polyline45"
     points="   1403.56,11385.4 1403.56,377.953    "
     style="stroke:#000000; stroke-width:32; stroke-opacity:1; fill:none"
     clip-path="url(#clip1800)" />
  <polyline
     id="polyline47"
     points="   1561.18,11385.4 1561.18,11253.3    "
     style="stroke:#000000; stroke-width:32; stroke-opacity:1; fill:none"
     clip-path="url(#clip1800)" />
  <polyline
     id="polyline49"
     points="   4914.76,11385.4 4914.76,11253.3    "
     style="stroke:#000000; stroke-width:32; stroke-opacity:1; fill:none"
     clip-path="url(#clip1800)" />
  <polyline
     id="polyline51"
     points="   8268.34,11385.4 8268.34,11253.3    "
     style="stroke:#000000; stroke-width:32; stroke-opacity:1; fill:none"
     clip-path="url(#clip1800)" />
  <polyline
     id="polyline53"
     points="   11621.9,11385.4 11621.9,11253.3    "
     style="stroke:#000000; stroke-width:32; stroke-opacity:1; fill:none"
     clip-path="url(#clip1800)" />
  <polyline
     id="polyline55"
     points="   14975.5,11385.4 14975.5,11253.3    "
     style="stroke:#000000; stroke-width:32; stroke-opacity:1; fill:none"
     clip-path="url(#clip1800)" />
  <polyline
     id="polyline57"
     points="   18329.1,11385.4 18329.1,11253.3    "
     style="stroke:#000000; stroke-width:32; stroke-opacity:1; fill:none"
     clip-path="url(#clip1800)" />
  <polyline
     id="polyline59"
     points="   1403.56,11073.9 1612.58,11073.9    "
     style="stroke:#000000; stroke-width:32; stroke-opacity:1; fill:none"
     clip-path="url(#clip1800)" />
  <polyline
     id="polyline61"
     points="   1403.56,8527.52 1612.58,8527.52    "
     style="stroke:#000000; stroke-width:32; stroke-opacity:1; fill:none"
     clip-path="url(#clip1800)" />
  <polyline
     id="polyline63"
     points="   1403.56,5981.13 1612.58,5981.13    "
     style="stroke:#000000; stroke-width:32; stroke-opacity:1; fill:none"
     clip-path="url(#clip1800)" />
  <polyline
     id="polyline65"
     points="   1403.56,3434.74 1612.58,3434.74    "
     style="stroke:#000000; stroke-width:32; stroke-opacity:1; fill:none"
     clip-path="url(#clip1800)" />
  <polyline
     id="polyline67"
     points="   1403.56,888.35 1612.58,888.35    "
     style="stroke:#000000; stroke-width:32; stroke-opacity:1; fill:none"
     clip-path="url(#clip1800)" />
  <path
     id="path69"
     fill-opacity="1"
     fill-rule="evenodd"
     fill="#000000"
     d="M 0 0 M1561.18 11561.4 Q1532.29 11561.4 1517.66 11589.9 Q1503.22 11618.2 1503.22 11675.3 Q1503.22 11732.1 1517.66 11760.6 Q1532.29 11789 1561.18 11789 Q1590.25 11789 1604.7 11760.6 Q1619.33 11732.1 1619.33 11675.3 Q1619.33 11618.2 1604.7 11589.9 Q1590.25 11561.4 1561.18 11561.4 M1561.18 11531.7 Q1607.66 11531.7 1632.11 11568.6 Q1656.73 11605.3 1656.73 11675.3 Q1656.73 11745.1 1632.11 11781.9 Q1607.66 11818.6 1561.18 11818.6 Q1514.7 11818.6 1490.07 11781.9 Q1465.62 11745.1 1465.62 11675.3 Q1465.62 11605.3 1490.07 11568.6 Q1514.7 11531.7 1561.18 11531.7 Z"
     clip-path="url(#clip1800)" />
  <path
     id="path71"
     fill-opacity="1"
     fill-rule="evenodd"
     fill="#000000"
     d="M 0 0 M4837.81 11781.7 L4898.92 11781.7 L4898.92 11570.8 L4832.44 11584.1 L4832.44 11550.1 L4898.55 11536.7 L4935.96 11536.7 L4935.96 11781.7 L4997.07 11781.7 L4997.07 11813.2 L4837.81 11813.2 L4837.81 11781.7 Z"
     clip-path="url(#clip1800)" />
  <path
     id="path73"
     fill-opacity="1"
     fill-rule="evenodd"
     fill="#000000"
     d="M 0 0 M8225.56 11781.7 L8356.11 11781.7 L8356.11 11813.2 L8180.56 11813.2 L8180.56 11781.7 Q8201.86 11759.7 8238.52 11722.7 Q8275.37 11685.4 8284.82 11674.7 Q8302.78 11654.5 8309.82 11640.6 Q8317.04 11626.5 8317.04 11613 Q8317.04 11591 8301.48 11577.1 Q8286.11 11563.2 8261.3 11563.2 Q8243.71 11563.2 8224.08 11569.3 Q8204.63 11575.4 8182.41 11587.8 L8182.41 11550.1 Q8205 11541 8224.63 11536.4 Q8244.26 11531.7 8260.56 11531.7 Q8303.52 11531.7 8329.08 11553.2 Q8354.63 11574.7 8354.63 11610.6 Q8354.63 11627.7 8348.15 11643 Q8341.85 11658.2 8325 11679 Q8320.37 11684.3 8295.56 11710.1 Q8270.74 11735.6 8225.56 11781.7 Z"
     clip-path="url(#clip1800)" />
  <path
     id="path75"
     fill-opacity="1"
     fill-rule="evenodd"
     fill="#000000"
     d="M 0 0 M11655.9 11664.1 Q11682.7 11669.9 11697.7 11688 Q11712.9 11706.2 11712.9 11732.8 Q11712.9 11773.8 11684.8 11796.2 Q11656.6 11818.6 11604.8 11818.6 Q11587.4 11818.6 11568.9 11815.1 Q11550.5 11811.7 11530.9 11804.9 L11530.9 11768.8 Q11546.5 11777.8 11565 11782.5 Q11583.5 11787.1 11603.7 11787.1 Q11638.9 11787.1 11657.2 11773.2 Q11675.7 11759.3 11675.7 11732.8 Q11675.7 11708.4 11658.5 11694.7 Q11641.5 11680.8 11610.9 11680.8 L11578.7 11680.8 L11578.7 11650.1 L11612.4 11650.1 Q11640 11650.1 11654.6 11639.1 Q11669.2 11628 11669.2 11607.3 Q11669.2 11586 11654 11574.7 Q11639 11563.2 11610.9 11563.2 Q11595.5 11563.2 11577.9 11566.5 Q11560.3 11569.9 11539.2 11576.9 L11539.2 11543.6 Q11560.5 11537.7 11579 11534.7 Q11597.7 11531.7 11614.2 11531.7 Q11656.8 11531.7 11681.6 11551.2 Q11706.5 11570.4 11706.5 11603.4 Q11706.5 11626.4 11693.3 11642.3 Q11680.2 11658 11655.9 11664.1 Z"
     clip-path="url(#clip1800)" />
  <path
     id="path77"
     fill-opacity="1"
     fill-rule="evenodd"
     fill="#000000"
     d="M 0 0 M14999.6 11569.3 L14905.1 11716.9 L14999.6 11716.9 L14999.6 11569.3 M14989.8 11536.7 L15036.8 11536.7 L15036.8 11716.9 L15076.2 11716.9 L15076.2 11748 L15036.8 11748 L15036.8 11813.2 L14999.6 11813.2 L14999.6 11748 L14874.8 11748 L14874.8 11711.9 L14989.8 11536.7 Z"
     clip-path="url(#clip1800)" />
  <path
     id="path79"
     fill-opacity="1"
     fill-rule="evenodd"
     fill="#000000"
     d="M 0 0 M18251.3 11536.7 L18398.1 11536.7 L18398.1 11568.2 L18285.6 11568.2 L18285.6 11636 Q18293.7 11633.2 18301.8 11631.9 Q18310 11630.4 18318.1 11630.4 Q18364.4 11630.4 18391.5 11655.8 Q18418.5 11681.2 18418.5 11724.5 Q18418.5 11769.1 18390.7 11794 Q18363 11818.6 18312.4 11818.6 Q18295 11818.6 18276.8 11815.6 Q18258.9 11812.7 18239.6 11806.7 L18239.6 11769.1 Q18256.3 11778.2 18274.1 11782.7 Q18291.8 11787.1 18311.7 11787.1 Q18343.7 11787.1 18362.4 11770.3 Q18381.1 11753.4 18381.1 11724.5 Q18381.1 11695.6 18362.4 11678.8 Q18343.7 11661.9 18311.7 11661.9 Q18296.7 11661.9 18281.7 11665.3 Q18266.8 11668.6 18251.3 11675.6 L18251.3 11536.7 Z"
     clip-path="url(#clip1800)" />
  <path
     id="path81"
     fill-opacity="1"
     fill-rule="evenodd"
     fill="#000000"
     d="M 0 0 M1116.01 10960.3 Q1087.12 10960.3 1072.49 10988.8 Q1058.04 11017.1 1058.04 11074.2 Q1058.04 11131 1072.49 11159.6 Q1087.12 11187.9 1116.01 11187.9 Q1145.08 11187.9 1159.52 11159.6 Q1174.15 11131 1174.15 11074.2 Q1174.15 11017.1 1159.52 10988.8 Q1145.08 10960.3 1116.01 10960.3 M1116.01 10930.7 Q1162.49 10930.7 1186.93 10967.5 Q1211.56 11004.2 1211.56 11074.2 Q1211.56 11144 1186.93 11180.8 Q1162.49 11217.5 1116.01 11217.5 Q1069.53 11217.5 1044.9 11180.8 Q1020.45 11144 1020.45 11074.2 Q1020.45 11004.2 1044.9 10967.5 Q1069.53 10930.7 1116.01 10930.7 Z"
     clip-path="url(#clip1800)" />
  <path
     id="path83"
     fill-opacity="1"
     fill-rule="evenodd"
     fill="#000000"
     d="M 0 0 M1052.3 8634.28 L1113.41 8634.28 L1113.41 8423.35 L1046.93 8436.68 L1046.93 8402.61 L1113.04 8389.28 L1150.45 8389.28 L1150.45 8634.28 L1211.56 8634.28 L1211.56 8665.76 L1052.3 8665.76 L1052.3 8634.28 Z"
     clip-path="url(#clip1800)" />
  <path
     id="path85"
     fill-opacity="1"
     fill-rule="evenodd"
     fill="#000000"
     d="M 0 0 M1081.01 6087.89 L1211.56 6087.89 L1211.56 6119.37 L1036.01 6119.37 L1036.01 6087.89 Q1057.3 6065.85 1093.97 6028.81 Q1130.82 5991.59 1140.27 5980.85 Q1158.23 5960.67 1165.27 5946.78 Q1172.49 5932.7 1172.49 5919.18 Q1172.49 5897.15 1156.93 5883.26 Q1141.56 5869.37 1116.75 5869.37 Q1099.15 5869.37 1079.53 5875.48 Q1060.08 5881.59 1037.86 5894 L1037.86 5856.22 Q1060.45 5847.15 1080.08 5842.52 Q1099.71 5837.89 1116.01 5837.89 Q1158.97 5837.89 1184.52 5859.37 Q1210.08 5880.85 1210.08 5916.78 Q1210.08 5933.81 1203.6 5949.18 Q1197.3 5964.37 1180.45 5985.11 Q1175.82 5990.48 1151.01 6016.22 Q1126.19 6041.78 1081.01 6087.89 Z"
     clip-path="url(#clip1800)" />
  <path
     id="path87"
     fill-opacity="1"
     fill-rule="evenodd"
     fill="#000000"
     d="M 0 0 M1154.52 3423.91 Q1181.38 3429.65 1196.38 3447.79 Q1211.56 3465.94 1211.56 3492.61 Q1211.56 3533.53 1183.41 3555.94 Q1155.27 3578.35 1103.41 3578.35 Q1086.01 3578.35 1067.49 3574.83 Q1049.16 3571.5 1029.53 3564.65 L1029.53 3528.53 Q1045.08 3537.61 1063.6 3542.24 Q1082.12 3546.87 1102.3 3546.87 Q1137.49 3546.87 1155.82 3532.98 Q1174.34 3519.09 1174.34 3492.61 Q1174.34 3468.16 1157.12 3454.46 Q1140.08 3440.57 1109.53 3440.57 L1077.3 3440.57 L1077.3 3409.83 L1111.01 3409.83 Q1138.6 3409.83 1153.23 3398.91 Q1167.86 3387.79 1167.86 3367.05 Q1167.86 3345.76 1152.67 3334.46 Q1137.67 3322.98 1109.53 3322.98 Q1094.15 3322.98 1076.56 3326.31 Q1058.97 3329.65 1037.86 3336.68 L1037.86 3303.35 Q1059.16 3297.43 1077.67 3294.46 Q1096.38 3291.5 1112.86 3291.5 Q1155.45 3291.5 1180.27 3310.94 Q1205.08 3330.2 1205.08 3363.17 Q1205.08 3386.13 1191.93 3402.05 Q1178.78 3417.79 1154.52 3423.91 Z"
     clip-path="url(#clip1800)" />
  <path
     id="path89"
     fill-opacity="1"
     fill-rule="evenodd"
     fill="#000000"
     d="M 0 0 M1134.9 782.703 L1040.45 930.294 L1134.9 930.294 L1134.9 782.703 M1125.08 750.11 L1172.12 750.11 L1172.12 930.294 L1211.56 930.294 L1211.56 961.405 L1172.12 961.405 L1172.12 1026.59 L1134.9 1026.59 L1134.9 961.405 L1010.08 961.405 L1010.08 925.294 L1125.08 750.11 Z"
     clip-path="url(#clip1800)" />
  <path
     id="path91"
     fill-opacity="1"
     fill-rule="evenodd"
     fill="#000000"
     d="M 0 0 M9952.01 12068.2 L10273.6 12068.2 L10273.6 12111.5 L10138.6 12111.5 L10138.6 12448.4 L10087 12448.4 L10087 12111.5 L9952.01 12111.5 L9952.01 12068.2 Z"
     clip-path="url(#clip1800)" />
  <path
     id="path93"
     fill-opacity="1"
     fill-rule="evenodd"
     fill="#000000"
     d="M 0 0 M353.156 5728.41 L407.391 5728.41 Q383.202 5754.38 371.234 5783.92 Q359.267 5813.2 359.267 5846.3 Q359.267 5911.49 399.243 5946.12 Q438.965 5980.75 514.335 5980.75 Q589.451 5980.75 629.427 5946.12 Q669.149 5911.49 669.149 5846.3 Q669.149 5813.2 657.182 5783.92 Q645.214 5754.38 621.024 5728.41 L674.751 5728.41 Q693.084 5755.4 702.251 5785.7 Q711.417 5815.75 711.417 5849.36 Q711.417 5935.68 658.709 5985.33 Q605.747 6034.98 514.335 6034.98 Q422.669 6034.98 369.961 5985.33 Q316.998 5935.68 316.998 5849.36 Q316.998 5815.24 326.165 5785.19 Q335.077 5754.89 353.156 5728.41 Z"
     clip-path="url(#clip1800)" />
  <polyline
     id="polyline95"
     points="   1896.54,11073.9 1937.72,11073.9 1978.91,11073.9 2020.09,11073.9 2061.27,11073.9 2102.46,11073.9 2143.64,11073.9 2184.83,11073.9 2226.01,11073.9 2267.2,11073.9    2308.38,11073.9 2349.56,11073.9 2390.75,11073.9 2431.93,11073.9 2473.12,11073.9 2514.3,11073.9 2555.49,11073.9 2596.67,11073.9 2637.85,11073.9 2679.04,11073.9    2720.22,11073.9 2761.41,11073.9 2802.59,11073.9 2843.78,11073.9 2884.96,11073.9 2926.15,11073.9 2967.33,11073.9 3008.51,11073.9 3049.7,11073.9 3090.88,11073.9    3132.07,11073.8 3173.25,11073.9 3214.44,11073.9 3255.62,11073.8 3296.8,11073.8 3337.99,11073.9 3379.17,11073.9 3420.36,11073.8 3461.54,11073.8 3502.73,11073.6    3543.91,11073.8 3585.09,11073 3626.28,11073.2 3667.46,11073.3 3708.65,11073 3749.83,11072.9 3791.02,11072.5 3832.2,11072.2 3873.38,11071.9 3914.57,11071.4    3955.75,11071.5 3996.94,11070.5 4038.12,11069.3 4079.31,11069.6 4120.49,11067.4 4161.67,11067.7 4202.86,11065.1 4244.04,11064.9 4285.23,11062.7 4326.41,11061.1    4367.6,11060.5 4408.78,11056.9 4449.96,11055.3 4491.15,11053.5 4532.33,11051.2 4573.52,11046.5 4614.7,11045.4 4655.89,11043.7 4697.07,11037.5 4738.25,11033.8    4779.44,11029.9 4820.62,11028.4 4861.81,11019.7 4902.99,11017.2 4944.18,11011.4 4985.36,11004.9 5026.54,10998.1 5067.73,10992.5 5108.91,10983.9 5150.1,10979.6    5191.28,10968.1 5232.47,10960.5 5273.65,10953.9 5314.83,10944.1 5356.02,10929.8 5397.2,10930.1 5438.39,10916 5479.57,10903.2 5520.76,10885.2 5561.94,10871    5603.12,10861.6 5644.31,10846.8 5685.49,10836.7 5726.68,10817.9 5767.86,10799.8 5809.05,10781.4 5850.23,10761.2 5891.41,10755.1 5932.6,10736.1 5973.78,10717.9    6014.97,10696.7 6056.15,10669.9 6097.34,10658.5 6138.52,10646.8 6179.7,10604.8 6220.89,10577.7 6262.07,10566.7 6303.26,10513.8 6344.44,10491.9 6385.63,10477.5    6426.81,10448.4 6467.99,10415.4 6509.18,10385.3 6550.36,10351.7 6591.55,10308.6 6632.73,10277.5 6673.92,10256.2 6715.1,10229.9 6756.28,10181.9 6797.47,10106.1    6838.65,10092.1 6879.84,10042.5 6921.02,9999 6962.21,9978.53 7003.39,9964.69 7044.57,9847.62 7085.76,9849.08 7126.94,9824.12 7168.13,9757.41 7209.31,9672.96    7250.5,9621.66 7291.68,9606.34 7332.86,9458.02 7374.05,9432.92 7415.23,9293.77 7456.42,9299.52 7497.6,9166.71 7538.79,9073.56 7579.97,9050.94 7621.15,9001.01    7662.34,8970.42 7703.52,8844.5 7744.71,8733.4 7785.89,8696.3 7827.08,8642.14 7868.26,8598.73 7909.44,8340.87 7950.63,8379.58 7991.81,8197.21 8033,8178.2    8074.18,7973.92 8115.37,7811.06 8156.55,7828.13 8197.73,7595.73 8238.92,7705.42 8280.1,7350.03 8321.29,7179.74 8362.47,6898.55 8403.66,6806.86 8444.84,6384.79    8486.02,6793.39 8527.21,5919.19 8568.39,6521.45 8609.58,6107.61 8650.76,5349.77 8691.95,5582.46 8733.13,5573.34 8774.31,4964.12 8815.5,3121.31 8856.68,3513.76    8897.87,3693.58 8939.05,4171.42 8980.24,4392.9 9021.42,2938.66 9062.6,1275.42 9103.79,719.369 9144.97,2056.1 9186.16,689.485 9227.34,1241.28 9268.53,1896.46    9309.71,1353.27 9350.9,1246.94 9392.08,976.929 9433.26,861.124 9474.45,1451.89 9515.63,2384.61 9556.82,1671.75 9598,3026.39 9639.19,3082.27 9680.37,4065.02    9721.55,2864.08 9762.74,4201.97 9803.92,4319.03 9845.11,4642.09 9886.29,4925.63 9927.48,4956.15 9968.66,5106.15 10009.8,5000.59 10051,5204.27 10092.2,5751.93    10133.4,5854.44 10174.6,6380.15 10215.8,6213.31 10256.9,6356.26 10298.1,6214.7 10339.3,6313.33 10380.5,6501.04 10421.7,6542.55 10462.9,6942.08 10504.1,6928.58    10545.2,6936.05 10586.4,6962.4 10627.6,7037.42 10668.8,6960.01 10710,7102.97 10751.2,7225.25 10792.3,7296.92 10833.5,7131.78 10874.7,7224.32 10915.9,7237.71    10957.1,7454.5 10998.3,7395.96 11039.5,7469.68 11080.6,7584.8 11121.8,7712.27 11163,7521.34 11204.2,7641.59 11245.4,7611.22 11286.6,7797.21 11327.7,7886.81    11368.9,7877.6 11410.1,7824.72 11451.3,7912.73 11492.5,7896.66 11533.7,7931.4 11574.8,7991.64 11616,8093.79 11657.2,7969.96 11698.4,7977.55 11739.6,8077.17    11780.8,8062.63 11822,8167.42 11863.1,8126.28 11904.3,8293.56 11945.5,8269.54 11986.7,8305.5 12027.9,8268.85 12069.1,8332.6 12110.2,8271.96 12151.4,8338.91    12192.6,8360.15 12233.8,8445.5 12275,8456.64 12316.2,8427.9 12357.3,8505.9 12398.5,8564.18 12439.7,8485.42 12480.9,8526.35 12522.1,8534.09 12563.3,8580.43    12604.5,8503.05 12645.6,8656.96 12686.8,8621.82 12728,8592.3 12769.2,8675.9 12810.4,8616.44 12851.6,8684.53 12892.7,8669.42 12933.9,8743.03 12975.1,8715.07    13016.3,8794.8 13057.5,8776.54 13098.7,8827.97 13139.9,8780.49 13181,8897.99 13222.2,8817.26 13263.4,8831.07 13304.6,8870.03 13345.8,8915.9 13387,8880.62    13428.1,8918.54 13469.3,8938.94 13510.5,8914.38 13551.7,9000.75 13592.9,8945.12 13634.1,8984.93 13675.2,8958.35 13716.4,8984.77 13757.6,9010.11 13798.8,9071.08    13840,9013.96 13881.2,9077.8 13922.4,9052.6 13963.5,9089.14 14004.7,9113.45 14045.9,9120.47 14087.1,9104.26 14128.3,9136.31 14169.5,9094.27 14210.6,9141.93    14251.8,9142.22 14293,9162.76 14334.2,9192.88 14375.4,9142.66 14416.6,9194.06 14457.7,9206.37 14498.9,9175.19 14540.1,9239.06 14581.3,9240.93 14622.5,9265    14663.7,9267.05 14704.9,9239.87 14746,9225.95 14787.2,9296.13 14828.4,9251.96 14869.6,9339.18 14910.8,9301.6 14952,9330.59 14993.1,9331.19 15034.3,9360.6    15075.5,9336.87 15116.7,9346.91 15157.9,9396.98 15199.1,9373.83 15240.2,9405.89 15281.4,9403.25 15322.6,9407.35 15363.8,9392.3 15405,9426.4 15446.2,9428.83    15487.4,9443.25 15528.5,9452.5 15569.7,9444.49 15610.9,9482.63 15652.1,9497.37 15693.3,9453.63 15734.5,9497.15 15775.6,9471.15 15816.8,9467.86 15858,9492.57    15899.2,9504.7 15940.4,9508.28 15981.6,9516.49 16022.8,9533.21 16063.9,9549.48 16105.1,9546.65 16146.3,9537.46 16187.5,9578.9 16228.7,9552.99 16269.9,9570.4    16311,9571.73 16352.2,9587.62 16393.4,9579.91 16434.6,9592.2 16475.8,9599.36 16517,9595.11 16558.1,9632.65 16599.3,9605.92 16640.5,9611.64 16681.7,9615.01    16722.9,9629.82 16764.1,9643.39 16805.3,9658.42 16846.4,9655.77 16887.6,9653.1 16928.8,9625.8 16970,9680.68 17011.2,9678.71 17052.4,9694.86 17093.5,9688.21    17134.7,9709.27 17175.9,9701.95 17217.1,9712.9 17258.3,9728.5 17299.5,9723.11 17340.6,9699.14 17381.8,9712.12 17423,9766.59 17464.2,9737.19 17505.4,9738.45    17546.6,9749.11 17587.8,9746.47 17628.9,9746.04 17670.1,9741.44 17711.3,9753.15 17752.5,9773.82 17793.7,9792.16 17834.9,9786.48 17876,9778.75 17917.2,9819.44    17958.4,9788.82 17999.6,9809.94 18040.8,9808.06 18082,9803.39 18123.1,9826.47 18164.3,9805.95 18205.5,9835.57 18246.7,9827.92 18287.9,9819.85 18329.1,9829.66       "
     style="stroke:#009af9; stroke-width:48; stroke-opacity:1; fill:none"
     clip-path="url(#clip1802)" />
  <polyline
     transform="matrix(1,0,0,1.0313101,0,-59.37843)"
     id="polyline97"
     points="   9268.53,1896.46 9268.53,11073.9    "
     style="fill:none;stroke:#e26f46;stroke-width:31.99891848;stroke-opacity:1;stroke-miterlimit:4;stroke-dasharray:255.99134778,31.99891848;stroke-dashoffset:0"
     clip-path="url(#clip1802)" />
  <path
     id="path99"
     fill-opacity="1"
     fill-rule="evenodd"
     fill="#ffffff"
     d=" M15920.9 2497.63 L18246 2497.63 L18246 1046.11 L15920.9 1046.11  Z   "
     clip-path="url(#clip1800)" />
  <polyline
     id="polyline101"
     points="   15920.9,2497.63 18246,2497.63 18246,1046.11 15920.9,1046.11 15920.9,2497.63    "
     style="stroke:#000000; stroke-width:32; stroke-opacity:1; fill:none"
     clip-path="url(#clip1800)" />
  <polyline
     id="polyline103"
     points="   16112.9,1529.95 17264.9,1529.95    "
     style="stroke:#009af9; stroke-width:48; stroke-opacity:1; fill:none"
     clip-path="url(#clip1800)" />
  <path
     id="path105"
     fill-opacity="1"
     fill-rule="evenodd"
     fill="#000000"
     d="M 0 0 M17679.8 1413.01 L17679.8 1452.45 Q17660.9 1434.86 17639.5 1426.16 Q17618.2 1417.45 17594.1 1417.45 Q17546.7 1417.45 17521.5 1446.53 Q17496.3 1475.42 17496.3 1530.23 Q17496.3 1584.86 17521.5 1613.93 Q17546.7 1642.82 17594.1 1642.82 Q17618.2 1642.82 17639.5 1634.12 Q17660.9 1625.42 17679.8 1607.82 L17679.8 1646.9 Q17660.2 1660.23 17638.2 1666.9 Q17616.3 1673.56 17591.9 1673.56 Q17529.1 1673.56 17493 1635.23 Q17456.9 1596.71 17456.9 1530.23 Q17456.9 1463.56 17493 1425.23 Q17529.1 1386.71 17591.9 1386.71 Q17616.7 1386.71 17638.5 1393.38 Q17660.6 1399.86 17679.8 1413.01 Z"
     clip-path="url(#clip1800)" />
  <polyline
     id="polyline107"
     points="   16112.9,2013.79 17264.9,2013.79    "
     style="stroke:#e26f46; stroke-width:32; stroke-opacity:1; fill:none"
     clip-path="url(#clip1800)" />
  <path
     id="path109"
     fill-opacity="1"
     fill-rule="evenodd"
     fill="#000000"
     d="M 0 0 M17567.6 2171.29 Q17553.2 2208.33 17539.5 2219.62 Q17525.8 2230.92 17502.8 2230.92 L17475.6 2230.92 L17475.6 2202.4 L17495.6 2202.4 Q17509.6 2202.4 17517.4 2195.74 Q17525.2 2189.07 17534.6 2164.25 L17540.8 2148.7 L17456.9 1944.63 L17493 1944.63 L17557.8 2106.85 L17622.6 1944.63 L17658.7 1944.63 L17567.6 2171.29 Z"
     clip-path="url(#clip1800)" />
  <path
     id="path111"
     fill-opacity="1"
     fill-rule="evenodd"
     fill="#000000"
     d="M 0 0 M17731.5 2120.55 L17862 2120.55 L17862 2152.03 L17686.5 2152.03 L17686.5 2120.55 Q17707.8 2098.51 17744.5 2061.48 Q17781.3 2024.26 17790.8 2013.51 Q17808.7 1993.33 17815.8 1979.44 Q17823 1965.37 17823 1951.85 Q17823 1929.81 17807.4 1915.92 Q17792 1902.03 17767.2 1902.03 Q17749.6 1902.03 17730 1908.15 Q17710.6 1914.26 17688.3 1926.66 L17688.3 1888.89 Q17710.9 1879.81 17730.6 1875.18 Q17750.2 1870.55 17766.5 1870.55 Q17809.5 1870.55 17835 1892.03 Q17860.6 1913.52 17860.6 1949.44 Q17860.6 1966.48 17854.1 1981.85 Q17847.8 1997.03 17830.9 2017.77 Q17826.3 2023.14 17801.5 2048.89 Q17776.7 2074.44 17731.5 2120.55 Z"
     clip-path="url(#clip1800)" />
  <ellipse
     ry="143.67346"
     rx="130.61224"
     cy="1893.8776"
     cx="9273.4697"
     id="path942"
     style="fill:#ff9955;fill-opacity:0.819277;stroke:#110a13;stroke-width:32.496;stroke-miterlimit:4;stroke-dasharray:259.968, 32.496;stroke-dashoffset:0" />
  <text
     id="text946"
     y="11810.612"
     x="8933.8779"
     style="font-style:normal;font-weight:normal;font-size:384px;line-height:1.25;font-family:sans-serif;fill:#000000;fill-opacity:1;stroke:none;stroke-width:4"
     xml:space="preserve"><tspan
       style="font-size:384px;stroke-width:4"
       y="11810.612"
       x="8933.8779"
       id="tspan944"
       sodipodi:role="line">2.31</tspan></text>
</svg>
