<?xml version="1.0" encoding="UTF-8" standalone="no"?>
<svg
   xmlns:dc="http://purl.org/dc/elements/1.1/"
   xmlns:cc="http://creativecommons.org/ns#"
   xmlns:rdf="http://www.w3.org/1999/02/22-rdf-syntax-ns#"
   xmlns:svg="http://www.w3.org/2000/svg"
   xmlns="http://www.w3.org/2000/svg"
   xmlns:sodipodi="http://sodipodi.sourceforge.net/DTD/sodipodi-0.dtd"
   xmlns:inkscape="http://www.inkscape.org/namespaces/inkscape"
   inkscape:version="1.0 (4035a4fb49, 2020-05-01)"
   sodipodi:docname="Intersection of M.svg"
   id="svg319"
   version="1.1"
   viewBox="0 0 19200 12800"
   height="3200"
   width="4800">
  <metadata
     id="metadata323">
    <rdf:RDF>
      <cc:Work
         rdf:about="">
        <dc:format>image/svg+xml</dc:format>
        <dc:type
           rdf:resource="http://purl.org/dc/dcmitype/StillImage" />
      </cc:Work>
    </rdf:RDF>
  </metadata>
  <sodipodi:namedview
     inkscape:current-layer="svg319"
     inkscape:window-maximized="1"
     inkscape:window-y="-6"
     inkscape:window-x="-6"
     inkscape:cy="1600"
     inkscape:cx="2400"
     inkscape:zoom="0.153125"
     showgrid="false"
     id="namedview321"
     inkscape:window-height="658"
     inkscape:window-width="1280"
     inkscape:pageshadow="2"
     inkscape:pageopacity="0"
     guidetolerance="10"
     gridtolerance="10"
     objecttolerance="10"
     borderopacity="1"
     bordercolor="#666666"
     pagecolor="#ffffff" />
  <defs
     id="defs5">
    <clipPath
       id="clip4100">
      <rect
         id="rect2"
         height="12800"
         width="19200"
         y="0"
         x="0" />
    </clipPath>
    <clipPath
       id="clip4102-1">
      <rect
         x="1680"
         y="987"
         width="17142"
         height="10399"
         id="rect16-6" />
    </clipPath>
  </defs>
  <path
     id="path7"
     fill-opacity="1"
     fill-rule="evenodd"
     fill="#ffffff"
     d=" M0 12800 L19200 12800 L19200 0 L0 0  Z   "
     clip-path="url(#clip4100)" />
  <defs
     id="defs12">
    <clipPath
       id="clip4101">
      <rect
         id="rect9"
         height="12800"
         width="13441"
         y="0"
         x="3840" />
    </clipPath>
  </defs>
  <path
     id="path14"
     fill-opacity="1"
     fill-rule="evenodd"
     fill="#ffffff"
     d=" M1680.97 11385.4 L18822 11385.4 L18822 987.777 L1680.97 987.777  Z   "
     clip-path="url(#clip4100)" />
  <defs
     id="defs19">
    <clipPath
       id="clip4102">
      <rect
         id="rect16"
         height="10399"
         width="17142"
         y="987"
         x="1680" />
    </clipPath>
  </defs>
  <polyline
     id="polyline21"
     points="   1836.08,11385.4 1836.08,987.777    "
     style="stroke:#000000; stroke-width:16; stroke-opacity:0.1; fill:none"
     clip-path="url(#clip4102)" />
  <polyline
     id="polyline23"
     points="   5136.24,11385.4 5136.24,987.777    "
     style="stroke:#000000; stroke-width:16; stroke-opacity:0.1; fill:none"
     clip-path="url(#clip4102)" />
  <polyline
     id="polyline25"
     points="   8436.41,11385.4 8436.41,987.777    "
     style="stroke:#000000; stroke-width:16; stroke-opacity:0.1; fill:none"
     clip-path="url(#clip4102)" />
  <polyline
     id="polyline27"
     points="   11736.6,11385.4 11736.6,987.777    "
     style="stroke:#000000; stroke-width:16; stroke-opacity:0.1; fill:none"
     clip-path="url(#clip4102)" />
  <polyline
     id="polyline29"
     points="   15036.8,11385.4 15036.8,987.777    "
     style="stroke:#000000; stroke-width:16; stroke-opacity:0.1; fill:none"
     clip-path="url(#clip4102)" />
  <polyline
     id="polyline31"
     points="   18336.9,11385.4 18336.9,987.777    "
     style="stroke:#000000; stroke-width:16; stroke-opacity:0.1; fill:none"
     clip-path="url(#clip4102)" />
  <polyline
     id="polyline33"
     points="   1680.97,9325.76 18822,9325.76    "
     style="stroke:#000000; stroke-width:16; stroke-opacity:0.1; fill:none"
     clip-path="url(#clip4102)" />
  <polyline
     id="polyline35"
     points="   1680.97,6978.41 18822,6978.41    "
     style="stroke:#000000; stroke-width:16; stroke-opacity:0.1; fill:none"
     clip-path="url(#clip4102)" />
  <polyline
     id="polyline37"
     points="   1680.97,4631.07 18822,4631.07    "
     style="stroke:#000000; stroke-width:16; stroke-opacity:0.1; fill:none"
     clip-path="url(#clip4102)" />
  <polyline
     id="polyline39"
     points="   1680.97,2283.73 18822,2283.73    "
     style="stroke:#000000; stroke-width:16; stroke-opacity:0.1; fill:none"
     clip-path="url(#clip4102)" />
  <polyline
     id="polyline41"
     points="   1680.97,11385.4 18822,11385.4    "
     style="stroke:#000000; stroke-width:32; stroke-opacity:1; fill:none"
     clip-path="url(#clip4100)" />
  <polyline
     id="polyline43"
     points="   1680.97,11385.4 1680.97,987.777    "
     style="stroke:#000000; stroke-width:32; stroke-opacity:1; fill:none"
     clip-path="url(#clip4100)" />
  <polyline
     id="polyline45"
     points="   1836.08,11385.4 1836.08,11260.7    "
     style="stroke:#000000; stroke-width:32; stroke-opacity:1; fill:none"
     clip-path="url(#clip4100)" />
  <polyline
     id="polyline47"
     points="   5136.24,11385.4 5136.24,11260.7    "
     style="stroke:#000000; stroke-width:32; stroke-opacity:1; fill:none"
     clip-path="url(#clip4100)" />
  <polyline
     id="polyline49"
     points="   8436.41,11385.4 8436.41,11260.7    "
     style="stroke:#000000; stroke-width:32; stroke-opacity:1; fill:none"
     clip-path="url(#clip4100)" />
  <polyline
     id="polyline51"
     points="   11736.6,11385.4 11736.6,11260.7    "
     style="stroke:#000000; stroke-width:32; stroke-opacity:1; fill:none"
     clip-path="url(#clip4100)" />
  <polyline
     id="polyline53"
     points="   15036.8,11385.4 15036.8,11260.7    "
     style="stroke:#000000; stroke-width:32; stroke-opacity:1; fill:none"
     clip-path="url(#clip4100)" />
  <polyline
     id="polyline55"
     points="   18336.9,11385.4 18336.9,11260.7    "
     style="stroke:#000000; stroke-width:32; stroke-opacity:1; fill:none"
     clip-path="url(#clip4100)" />
  <polyline
     id="polyline57"
     points="   1680.97,9325.76 1886.66,9325.76    "
     style="stroke:#000000; stroke-width:32; stroke-opacity:1; fill:none"
     clip-path="url(#clip4100)" />
  <polyline
     id="polyline59"
     points="   1680.97,6978.41 1886.66,6978.41    "
     style="stroke:#000000; stroke-width:32; stroke-opacity:1; fill:none"
     clip-path="url(#clip4100)" />
  <polyline
     id="polyline61"
     points="   1680.97,4631.07 1886.66,4631.07    "
     style="stroke:#000000; stroke-width:32; stroke-opacity:1; fill:none"
     clip-path="url(#clip4100)" />
  <polyline
     id="polyline63"
     points="   1680.97,2283.73 1886.66,2283.73    "
     style="stroke:#000000; stroke-width:32; stroke-opacity:1; fill:none"
     clip-path="url(#clip4100)" />
  <path
     id="path65"
     fill-opacity="1"
     fill-rule="evenodd"
     fill="#000000"
     d="M 0 0 M1836.08 11561.4 Q1807.19 11561.4 1792.56 11589.9 Q1778.11 11618.2 1778.11 11675.3 Q1778.11 11732.1 1792.56 11760.6 Q1807.19 11789 1836.08 11789 Q1865.15 11789 1879.59 11760.6 Q1894.22 11732.1 1894.22 11675.3 Q1894.22 11618.2 1879.59 11589.9 Q1865.15 11561.4 1836.08 11561.4 M1836.08 11531.7 Q1882.56 11531.7 1907 11568.6 Q1931.63 11605.3 1931.63 11675.3 Q1931.63 11745.1 1907 11781.9 Q1882.56 11818.6 1836.08 11818.6 Q1789.59 11818.6 1764.96 11781.9 Q1740.52 11745.1 1740.52 11675.3 Q1740.52 11605.3 1764.96 11568.6 Q1789.59 11531.7 1836.08 11531.7 Z"
     clip-path="url(#clip4100)" />
  <path
     id="path67"
     fill-opacity="1"
     fill-rule="evenodd"
     fill="#000000"
     d="M 0 0 M5059.3 11781.7 L5120.41 11781.7 L5120.41 11570.8 L5053.93 11584.1 L5053.93 11550.1 L5120.04 11536.7 L5157.45 11536.7 L5157.45 11781.7 L5218.56 11781.7 L5218.56 11813.2 L5059.3 11813.2 L5059.3 11781.7 Z"
     clip-path="url(#clip4100)" />
  <path
     id="path69"
     fill-opacity="1"
     fill-rule="evenodd"
     fill="#000000"
     d="M 0 0 M8393.64 11781.7 L8524.19 11781.7 L8524.19 11813.2 L8348.64 11813.2 L8348.64 11781.7 Q8369.93 11759.7 8406.6 11722.7 Q8443.45 11685.4 8452.9 11674.7 Q8470.86 11654.5 8477.9 11640.6 Q8485.12 11626.5 8485.12 11613 Q8485.12 11591 8469.56 11577.1 Q8454.19 11563.2 8429.38 11563.2 Q8411.78 11563.2 8392.16 11569.3 Q8372.71 11575.4 8350.49 11587.8 L8350.49 11550.1 Q8373.08 11541 8392.71 11536.4 Q8412.34 11531.7 8428.64 11531.7 Q8471.6 11531.7 8497.15 11553.2 Q8522.71 11574.7 8522.71 11610.6 Q8522.71 11627.7 8516.23 11643 Q8509.93 11658.2 8493.08 11679 Q8488.45 11684.3 8463.64 11710.1 Q8438.82 11735.6 8393.64 11781.7 Z"
     clip-path="url(#clip4100)" />
  <path
     id="path71"
     fill-opacity="1"
     fill-rule="evenodd"
     fill="#000000"
     d="M 0 0 M11770.6 11664.1 Q11797.4 11669.9 11812.4 11688 Q11827.6 11706.2 11827.6 11732.8 Q11827.6 11773.8 11799.5 11796.2 Q11771.3 11818.6 11719.5 11818.6 Q11702 11818.6 11683.5 11815.1 Q11665.2 11811.7 11645.6 11804.9 L11645.6 11768.8 Q11661.1 11777.8 11679.6 11782.5 Q11698.2 11787.1 11718.3 11787.1 Q11753.5 11787.1 11771.9 11773.2 Q11790.4 11759.3 11790.4 11732.8 Q11790.4 11708.4 11773.2 11694.7 Q11756.1 11680.8 11725.6 11680.8 L11693.3 11680.8 L11693.3 11650.1 L11727 11650.1 Q11754.6 11650.1 11769.3 11639.1 Q11783.9 11628 11783.9 11607.3 Q11783.9 11586 11768.7 11574.7 Q11753.7 11563.2 11725.6 11563.2 Q11710.2 11563.2 11692.6 11566.5 Q11675 11569.9 11653.9 11576.9 L11653.9 11543.6 Q11675.2 11537.7 11693.7 11534.7 Q11712.4 11531.7 11728.9 11531.7 Q11771.5 11531.7 11796.3 11551.2 Q11821.1 11570.4 11821.1 11603.4 Q11821.1 11626.4 11808 11642.3 Q11794.8 11658 11770.6 11664.1 Z"
     clip-path="url(#clip4100)" />
  <path
     id="path73"
     fill-opacity="1"
     fill-rule="evenodd"
     fill="#000000"
     d="M 0 0 M15060.8 11569.3 L14966.4 11716.9 L15060.8 11716.9 L15060.8 11569.3 M15051 11536.7 L15098 11536.7 L15098 11716.9 L15137.5 11716.9 L15137.5 11748 L15098 11748 L15098 11813.2 L15060.8 11813.2 L15060.8 11748 L14936 11748 L14936 11711.9 L15051 11536.7 Z"
     clip-path="url(#clip4100)" />
  <path
     id="path75"
     fill-opacity="1"
     fill-rule="evenodd"
     fill="#000000"
     d="M 0 0 M18259.1 11536.7 L18406 11536.7 L18406 11568.2 L18293.4 11568.2 L18293.4 11636 Q18301.6 11633.2 18309.7 11631.9 Q18317.8 11630.4 18326 11630.4 Q18372.3 11630.4 18399.3 11655.8 Q18426.4 11681.2 18426.4 11724.5 Q18426.4 11769.1 18398.6 11794 Q18370.8 11818.6 18320.3 11818.6 Q18302.8 11818.6 18284.7 11815.6 Q18266.7 11812.7 18247.5 11806.7 L18247.5 11769.1 Q18264.1 11778.2 18281.9 11782.7 Q18299.7 11787.1 18319.5 11787.1 Q18351.6 11787.1 18370.3 11770.3 Q18389 11753.4 18389 11724.5 Q18389 11695.6 18370.3 11678.8 Q18351.6 11661.9 18319.5 11661.9 Q18304.5 11661.9 18289.5 11665.3 Q18274.7 11668.6 18259.1 11675.6 L18259.1 11536.7 Z"
     clip-path="url(#clip4100)" />
  <path
     id="path77"
     fill-opacity="1"
     fill-rule="evenodd"
     fill="#000000"
     d="M 0 0 M1105.64 9212.15 Q1076.75 9212.15 1062.12 9240.67 Q1047.67 9269 1047.67 9326.04 Q1047.67 9382.89 1062.12 9411.41 Q1076.75 9439.74 1105.64 9439.74 Q1134.71 9439.74 1149.15 9411.41 Q1163.78 9382.89 1163.78 9326.04 Q1163.78 9269 1149.15 9240.67 Q1134.71 9212.15 1105.64 9212.15 M1105.64 9182.52 Q1152.12 9182.52 1176.56 9219.37 Q1201.19 9256.04 1201.19 9326.04 Q1201.19 9395.85 1176.56 9432.7 Q1152.12 9469.37 1105.64 9469.37 Q1059.16 9469.37 1034.53 9432.7 Q1010.08 9395.85 1010.08 9326.04 Q1010.08 9256.04 1034.53 9219.37 Q1059.16 9182.52 1105.64 9182.52 Z"
     clip-path="url(#clip4100)" />
  <path
     id="path79"
     fill-opacity="1"
     fill-rule="evenodd"
     fill="#000000"
     d="M 0 0 M1241.75 9416.96 L1280.82 9416.96 L1280.82 9464 L1241.75 9464 L1241.75 9416.96 Z"
     clip-path="url(#clip4100)" />
  <path
     id="path81"
     fill-opacity="1"
     fill-rule="evenodd"
     fill="#000000"
     d="M 0 0 M1321.75 9187.52 L1468.6 9187.52 L1468.6 9219 L1356.01 9219 L1356.01 9286.78 Q1364.15 9284 1372.3 9282.7 Q1380.45 9281.22 1388.6 9281.22 Q1434.89 9281.22 1461.93 9306.59 Q1488.97 9331.96 1488.97 9375.29 Q1488.97 9419.92 1461.19 9444.74 Q1433.41 9469.37 1382.86 9469.37 Q1365.45 9469.37 1347.3 9466.4 Q1329.34 9463.44 1310.08 9457.52 L1310.08 9419.92 Q1326.75 9429 1344.52 9433.44 Q1362.3 9437.89 1382.12 9437.89 Q1414.15 9437.89 1432.86 9421.03 Q1451.56 9404.18 1451.56 9375.29 Q1451.56 9346.41 1432.86 9329.55 Q1414.15 9312.7 1382.12 9312.7 Q1367.12 9312.7 1352.12 9316.04 Q1337.3 9319.37 1321.75 9326.41 L1321.75 9187.52 Z"
     clip-path="url(#clip4100)" />
  <path
     id="path83"
     fill-opacity="1"
     fill-rule="evenodd"
     fill="#000000"
     d="M 0 0 M1033.97 7085.17 L1095.08 7085.17 L1095.08 6874.25 L1028.6 6887.58 L1028.6 6853.51 L1094.71 6840.17 L1132.12 6840.17 L1132.12 7085.17 L1193.23 7085.17 L1193.23 7116.65 L1033.97 7116.65 L1033.97 7085.17 Z"
     clip-path="url(#clip4100)" />
  <path
     id="path85"
     fill-opacity="1"
     fill-rule="evenodd"
     fill="#000000"
     d="M 0 0 M1233.78 7069.62 L1272.86 7069.62 L1272.86 7116.65 L1233.78 7116.65 L1233.78 7069.62 Z"
     clip-path="url(#clip4100)" />
  <path
     id="path87"
     fill-opacity="1"
     fill-rule="evenodd"
     fill="#000000"
     d="M 0 0 M1393.41 6864.8 Q1364.52 6864.8 1349.89 6893.32 Q1335.45 6921.66 1335.45 6978.69 Q1335.45 7035.54 1349.89 7064.06 Q1364.52 7092.39 1393.41 7092.39 Q1422.49 7092.39 1436.93 7064.06 Q1451.56 7035.54 1451.56 6978.69 Q1451.56 6921.66 1436.93 6893.32 Q1422.49 6864.8 1393.41 6864.8 M1393.41 6835.17 Q1439.89 6835.17 1464.34 6872.03 Q1488.97 6908.69 1488.97 6978.69 Q1488.97 7048.51 1464.34 7085.36 Q1439.89 7122.02 1393.41 7122.02 Q1346.93 7122.02 1322.3 7085.36 Q1297.86 7048.51 1297.86 6978.69 Q1297.86 6908.69 1322.3 6872.03 Q1346.93 6835.17 1393.41 6835.17 Z"
     clip-path="url(#clip4100)" />
  <path
     id="path89"
     fill-opacity="1"
     fill-rule="evenodd"
     fill="#000000"
     d="M 0 0 M1041.93 4737.83 L1103.04 4737.83 L1103.04 4526.9 L1036.56 4540.24 L1036.56 4506.16 L1102.67 4492.83 L1140.08 4492.83 L1140.08 4737.83 L1201.19 4737.83 L1201.19 4769.31 L1041.93 4769.31 L1041.93 4737.83 Z"
     clip-path="url(#clip4100)" />
  <path
     id="path91"
     fill-opacity="1"
     fill-rule="evenodd"
     fill="#000000"
     d="M 0 0 M1241.75 4722.27 L1280.82 4722.27 L1280.82 4769.31 L1241.75 4769.31 L1241.75 4722.27 Z"
     clip-path="url(#clip4100)" />
  <path
     id="path93"
     fill-opacity="1"
     fill-rule="evenodd"
     fill="#000000"
     d="M 0 0 M1321.75 4492.83 L1468.6 4492.83 L1468.6 4524.31 L1356.01 4524.31 L1356.01 4592.09 Q1364.15 4589.31 1372.3 4588.02 Q1380.45 4586.53 1388.6 4586.53 Q1434.89 4586.53 1461.93 4611.9 Q1488.97 4637.27 1488.97 4680.61 Q1488.97 4725.24 1461.19 4750.05 Q1433.41 4774.68 1382.86 4774.68 Q1365.45 4774.68 1347.3 4771.72 Q1329.34 4768.75 1310.08 4762.83 L1310.08 4725.24 Q1326.75 4734.31 1344.52 4738.76 Q1362.3 4743.2 1382.12 4743.2 Q1414.15 4743.2 1432.86 4726.35 Q1451.56 4709.5 1451.56 4680.61 Q1451.56 4651.72 1432.86 4634.87 Q1414.15 4618.01 1382.12 4618.01 Q1367.12 4618.01 1352.12 4621.35 Q1337.3 4624.68 1321.75 4631.72 L1321.75 4492.83 Z"
     clip-path="url(#clip4100)" />
  <path
     id="path95"
     fill-opacity="1"
     fill-rule="evenodd"
     fill="#000000"
     d="M 0 0 M1062.67 2390.49 L1193.23 2390.49 L1193.23 2421.97 L1017.67 2421.97 L1017.67 2390.49 Q1038.97 2368.45 1075.64 2331.41 Q1112.49 2294.19 1121.93 2283.45 Q1139.9 2263.26 1146.93 2249.38 Q1154.15 2235.3 1154.15 2221.78 Q1154.15 2199.75 1138.6 2185.86 Q1123.23 2171.97 1098.41 2171.97 Q1080.82 2171.97 1061.19 2178.08 Q1041.75 2184.19 1019.53 2196.6 L1019.53 2158.82 Q1042.12 2149.75 1061.75 2145.12 Q1081.38 2140.49 1097.67 2140.49 Q1140.64 2140.49 1166.19 2161.97 Q1191.75 2183.45 1191.75 2219.38 Q1191.75 2236.41 1185.27 2251.78 Q1178.97 2266.97 1162.12 2287.71 Q1157.49 2293.08 1132.67 2318.82 Q1107.86 2344.37 1062.67 2390.49 Z"
     clip-path="url(#clip4100)" />
  <path
     id="path97"
     fill-opacity="1"
     fill-rule="evenodd"
     fill="#000000"
     d="M 0 0 M1233.78 2374.93 L1272.86 2374.93 L1272.86 2421.97 L1233.78 2421.97 L1233.78 2374.93 Z"
     clip-path="url(#clip4100)" />
  <path
     id="path99"
     fill-opacity="1"
     fill-rule="evenodd"
     fill="#000000"
     d="M 0 0 M1393.41 2170.12 Q1364.52 2170.12 1349.89 2198.63 Q1335.45 2226.97 1335.45 2284 Q1335.45 2340.86 1349.89 2369.37 Q1364.52 2397.71 1393.41 2397.71 Q1422.49 2397.71 1436.93 2369.37 Q1451.56 2340.86 1451.56 2284 Q1451.56 2226.97 1436.93 2198.63 Q1422.49 2170.12 1393.41 2170.12 M1393.41 2140.49 Q1439.89 2140.49 1464.34 2177.34 Q1488.97 2214.01 1488.97 2284 Q1488.97 2353.82 1464.34 2390.67 Q1439.89 2427.34 1393.41 2427.34 Q1346.93 2427.34 1322.3 2390.67 Q1297.86 2353.82 1297.86 2284 Q1297.86 2214.01 1322.3 2177.34 Q1346.93 2140.49 1393.41 2140.49 Z"
     clip-path="url(#clip4100)" />
  <path
     id="path101"
     fill-opacity="1"
     fill-rule="evenodd"
     fill="#000000"
     d="M 0 0 M7763.28 96.768 L7828.74 96.768 L7828.74 580.608 L7763.28 580.608 L7763.28 96.768 Z"
     clip-path="url(#clip4100)" />
  <path
     id="path103"
     fill-opacity="1"
     fill-rule="evenodd"
     fill="#000000"
     d="M 0 0 M8193 361.535 L8193 580.608 L8133.37 580.608 L8133.37 363.48 Q8133.37 311.952 8113.28 286.35 Q8093.19 260.749 8053 260.749 Q8004.71 260.749 7976.84 291.535 Q7948.97 322.322 7948.97 375.47 L7948.97 580.608 L7889.02 580.608 L7889.02 217.647 L7948.97 217.647 L7948.97 274.036 Q7970.36 241.304 7999.2 225.101 Q8028.37 208.897 8066.29 208.897 Q8128.83 208.897 8160.92 247.786 Q8193 286.35 8193 361.535 Z"
     clip-path="url(#clip4100)" />
  <path
     id="path105"
     fill-opacity="1"
     fill-rule="evenodd"
     fill="#000000"
     d="M 0 0 M8314.53 114.592 L8314.53 217.647 L8437.35 217.647 L8437.35 263.989 L8314.53 263.989 L8314.53 461.025 Q8314.53 505.423 8326.52 518.062 Q8338.83 530.701 8376.1 530.701 L8437.35 530.701 L8437.35 580.608 L8376.1 580.608 Q8307.07 580.608 8280.82 555.006 Q8254.57 529.08 8254.57 461.025 L8254.57 263.989 L8210.82 263.989 L8210.82 217.647 L8254.57 217.647 L8254.57 114.592 L8314.53 114.592 Z"
     clip-path="url(#clip4100)" />
  <path
     id="path107"
     fill-opacity="1"
     fill-rule="evenodd"
     fill="#000000"
     d="M 0 0 M8810.36 384.22 L8810.36 413.387 L8536.19 413.387 Q8540.08 474.96 8573.14 507.368 Q8606.52 539.451 8665.82 539.451 Q8700.17 539.451 8732.26 531.025 Q8764.66 522.599 8796.42 505.747 L8796.42 562.136 Q8764.34 575.747 8730.64 582.877 Q8696.93 590.006 8662.26 590.006 Q8575.41 590.006 8524.53 539.451 Q8473.97 488.896 8473.97 402.692 Q8473.97 313.572 8521.93 261.397 Q8570.22 208.897 8651.89 208.897 Q8725.13 208.897 8767.58 256.212 Q8810.36 303.202 8810.36 384.22 M8750.73 366.72 Q8750.08 317.785 8723.18 288.619 Q8696.61 259.452 8652.53 259.452 Q8602.63 259.452 8572.49 287.647 Q8542.67 315.841 8538.14 367.044 L8750.73 366.72 Z"
     clip-path="url(#clip4100)" />
  <path
     id="path109"
     fill-opacity="1"
     fill-rule="evenodd"
     fill="#000000"
     d="M 0 0 M9083.23 273.387 Q9073.18 267.554 9061.19 264.962 Q9049.52 262.045 9035.26 262.045 Q8984.71 262.045 8957.49 295.1 Q8930.59 327.832 8930.59 389.405 L8930.59 580.608 L8870.64 580.608 L8870.64 217.647 L8930.59 217.647 L8930.59 274.036 Q8949.38 240.98 8979.52 225.101 Q9009.66 208.897 9052.76 208.897 Q9058.92 208.897 9066.37 209.869 Q9073.83 210.517 9082.9 212.138 L9083.23 273.387 Z"
     clip-path="url(#clip4100)" />
  <path
     id="path111"
     fill-opacity="1"
     fill-rule="evenodd"
     fill="#000000"
     d="M 0 0 M9377.16 228.341 L9377.16 284.73 Q9351.88 271.767 9324.66 265.286 Q9297.44 258.804 9268.27 258.804 Q9223.87 258.804 9201.51 272.415 Q9179.48 286.026 9179.48 313.248 Q9179.48 333.989 9195.36 345.98 Q9211.24 357.646 9259.2 368.341 L9279.61 372.878 Q9343.13 386.489 9369.71 411.442 Q9396.6 436.072 9396.6 480.47 Q9396.6 531.025 9356.42 560.516 Q9316.56 590.006 9246.56 590.006 Q9217.39 590.006 9185.63 584.173 Q9154.2 578.664 9119.2 567.321 L9119.2 505.747 Q9152.25 522.923 9184.34 531.673 Q9216.42 540.099 9247.86 540.099 Q9289.98 540.099 9312.67 525.84 Q9335.35 511.257 9335.35 485.007 Q9335.35 460.701 9318.83 447.738 Q9302.62 434.775 9247.21 422.785 L9226.47 417.924 Q9171.05 406.257 9146.42 382.276 Q9121.79 357.97 9121.79 315.841 Q9121.79 264.637 9158.09 236.767 Q9194.38 208.897 9261.14 208.897 Q9294.2 208.897 9323.36 213.758 Q9352.53 218.619 9377.16 228.341 Z"
     clip-path="url(#clip4100)" />
  <path
     id="path113"
     fill-opacity="1"
     fill-rule="evenodd"
     fill="#000000"
     d="M 0 0 M9769.61 384.22 L9769.61 413.387 L9495.45 413.387 Q9499.34 474.96 9532.39 507.368 Q9565.77 539.451 9625.08 539.451 Q9659.43 539.451 9691.51 531.025 Q9723.92 522.599 9755.68 505.747 L9755.68 562.136 Q9723.59 575.747 9689.89 582.877 Q9656.19 590.006 9621.51 590.006 Q9534.66 590.006 9483.78 539.451 Q9433.22 488.896 9433.22 402.692 Q9433.22 313.572 9481.19 261.397 Q9529.47 208.897 9611.14 208.897 Q9684.38 208.897 9726.83 256.212 Q9769.61 303.202 9769.61 384.22 M9709.98 366.72 Q9709.33 317.785 9682.44 288.619 Q9655.86 259.452 9611.79 259.452 Q9561.88 259.452 9531.74 287.647 Q9501.93 315.841 9497.39 367.044 L9709.98 366.72 Z"
     clip-path="url(#clip4100)" />
  <path
     id="path115"
     fill-opacity="1"
     fill-rule="evenodd"
     fill="#000000"
     d="M 0 0 M10093.4 231.582 L10093.4 287.323 Q10068.1 273.387 10042.5 266.582 Q10017.2 259.452 9991.28 259.452 Q9933.27 259.452 9901.19 296.397 Q9869.1 333.017 9869.1 399.452 Q9869.1 465.886 9901.19 502.831 Q9933.27 539.451 9991.28 539.451 Q10017.2 539.451 10042.5 532.645 Q10068.1 525.516 10093.4 511.581 L10093.4 566.673 Q10068.4 578.339 10041.5 584.173 Q10014.9 590.006 9984.8 590.006 Q9902.81 590.006 9854.52 538.479 Q9806.23 486.951 9806.23 399.452 Q9806.23 310.656 9854.84 259.776 Q9903.78 208.897 9988.68 208.897 Q10016.2 208.897 10042.5 214.73 Q10068.7 220.24 10093.4 231.582 Z"
     clip-path="url(#clip4100)" />
  <path
     id="path117"
     fill-opacity="1"
     fill-rule="evenodd"
     fill="#000000"
     d="M 0 0 M10214.9 114.592 L10214.9 217.647 L10337.7 217.647 L10337.7 263.989 L10214.9 263.989 L10214.9 461.025 Q10214.9 505.423 10226.9 518.062 Q10239.2 530.701 10276.5 530.701 L10337.7 530.701 L10337.7 580.608 L10276.5 580.608 Q10207.4 580.608 10181.2 555.006 Q10154.9 529.08 10154.9 461.025 L10154.9 263.989 L10111.2 263.989 L10111.2 217.647 L10154.9 217.647 L10154.9 114.592 L10214.9 114.592 Z"
     clip-path="url(#clip4100)" />
  <path
     id="path119"
     fill-opacity="1"
     fill-rule="evenodd"
     fill="#000000"
     d="M 0 0 M10400.3 217.647 L10459.9 217.647 L10459.9 580.608 L10400.3 580.608 L10400.3 217.647 M10400.3 76.3514 L10459.9 76.3514 L10459.9 151.86 L10400.3 151.86 L10400.3 76.3514 Z"
     clip-path="url(#clip4100)" />
  <path
     id="path121"
     fill-opacity="1"
     fill-rule="evenodd"
     fill="#000000"
     d="M 0 0 M10663.1 259.452 Q10615.1 259.452 10587.2 297.045 Q10559.4 334.313 10559.4 399.452 Q10559.4 464.59 10586.9 502.182 Q10614.8 539.451 10663.1 539.451 Q10710.7 539.451 10738.6 501.858 Q10766.5 464.266 10766.5 399.452 Q10766.5 334.961 10738.6 297.369 Q10710.7 259.452 10663.1 259.452 M10663.1 208.897 Q10740.9 208.897 10785.3 259.452 Q10829.7 310.008 10829.7 399.452 Q10829.7 488.571 10785.3 539.451 Q10740.9 590.006 10663.1 590.006 Q10585 590.006 10540.6 539.451 Q10496.5 488.571 10496.5 399.452 Q10496.5 310.008 10540.6 259.452 Q10585 208.897 10663.1 208.897 Z"
     clip-path="url(#clip4100)" />
  <path
     id="path123"
     fill-opacity="1"
     fill-rule="evenodd"
     fill="#000000"
     d="M 0 0 M11193.9 361.535 L11193.9 580.608 L11134.3 580.608 L11134.3 363.48 Q11134.3 311.952 11114.2 286.35 Q11094.1 260.749 11053.9 260.749 Q11005.6 260.749 10977.8 291.535 Q10949.9 322.322 10949.9 375.47 L10949.9 580.608 L10889.9 580.608 L10889.9 217.647 L10949.9 217.647 L10949.9 274.036 Q10971.3 241.304 11000.1 225.101 Q11029.3 208.897 11067.2 208.897 Q11129.7 208.897 11161.8 247.786 Q11193.9 286.35 11193.9 361.535 Z"
     clip-path="url(#clip4100)" />
  <path
     id="path125"
     fill-opacity="1"
     fill-rule="evenodd"
     fill="#000000"
     d="M 0 0 M11608.1 259.452 Q11560.1 259.452 11532.2 297.045 Q11504.4 334.313 11504.4 399.452 Q11504.4 464.59 11531.9 502.182 Q11559.8 539.451 11608.1 539.451 Q11655.7 539.451 11683.6 501.858 Q11711.5 464.266 11711.5 399.452 Q11711.5 334.961 11683.6 297.369 Q11655.7 259.452 11608.1 259.452 M11608.1 208.897 Q11685.9 208.897 11730.2 259.452 Q11774.6 310.008 11774.6 399.452 Q11774.6 488.571 11730.2 539.451 Q11685.9 590.006 11608.1 590.006 Q11530 590.006 11485.6 539.451 Q11441.5 488.571 11441.5 399.452 Q11441.5 310.008 11485.6 259.452 Q11530 208.897 11608.1 208.897 Z"
     clip-path="url(#clip4100)" />
  <path
     id="path127"
     fill-opacity="1"
     fill-rule="evenodd"
     fill="#000000"
     d="M 0 0 M12020.9 76.3514 L12020.9 125.935 L11963.9 125.935 Q11931.8 125.935 11919.2 138.897 Q11906.9 151.86 11906.9 185.564 L11906.9 217.647 L12005.1 217.647 L12005.1 263.989 L11906.9 263.989 L11906.9 580.608 L11846.9 580.608 L11846.9 263.989 L11789.9 263.989 L11789.9 217.647 L11846.9 217.647 L11846.9 192.369 Q11846.9 131.768 11875.1 104.222 Q11903.3 76.3514 11964.6 76.3514 L12020.9 76.3514 Z"
     clip-path="url(#clip4100)" />
  <path
     id="path129"
     fill-opacity="1"
     fill-rule="evenodd"
     fill="#000000"
     d="M 0 0 M12297.1 96.768 L12394.6 96.768 L12518.1 426.025 L12642.2 96.768 L12739.7 96.768 L12739.7 580.608 L12675.9 580.608 L12675.9 155.749 L12551.1 487.599 L12485.3 487.599 L12360.6 155.749 L12360.6 580.608 L12297.1 580.608 L12297.1 96.768 Z"
     clip-path="url(#clip4100)" />
  <path
     id="path131"
     fill-opacity="1"
     fill-rule="evenodd"
     fill="#000000"
     d="M 0 0 M10090.7 12068.2 L10412.3 12068.2 L10412.3 12111.5 L10277.4 12111.5 L10277.4 12448.4 L10225.7 12448.4 L10225.7 12111.5 L10090.7 12111.5 L10090.7 12068.2 Z"
     clip-path="url(#clip4100)" />
  <path
     id="path133"
     fill-opacity="1"
     fill-rule="evenodd"
     fill="#000000"
     d="M 0 0 M323.873 7757.79 L323.873 7706.36 L660.746 7706.36 L660.746 7521.24 L704.033 7521.24 L704.033 7757.79 L323.873 7757.79 Z"
     clip-path="url(#clip4100)" />
  <path
     id="path135"
     fill-opacity="1"
     fill-rule="evenodd"
     fill="#000000"
     d="M 0 0 M323.873 7277.82 L465.701 7139.55 L465.701 7190.73 L365.123 7302.77 L465.701 7414.81 L465.701 7465.99 L323.873 7327.72 L323.873 7277.82 Z"
     clip-path="url(#clip4100)" />
  <path
     id="path137"
     fill-opacity="1"
     fill-rule="evenodd"
     fill="#000000"
     d="M 0 0 M308.341 6977.87 Q366.905 7011.99 424.197 7028.54 Q481.488 7045.09 540.307 7045.09 Q599.126 7045.09 656.927 7028.54 Q714.473 7011.73 772.783 6977.87 L772.783 7018.61 Q712.945 7056.8 655.145 7075.9 Q597.344 7094.74 540.307 7094.74 Q483.525 7094.74 425.979 7075.9 Q368.433 7057.05 308.341 7018.61 L308.341 6977.87 Z"
     clip-path="url(#clip4100)" />
  <path
     id="path139"
     fill-opacity="1"
     fill-rule="evenodd"
     fill="#000000"
     d="M 0 0 M561.696 6724 Q510.007 6724 480.724 6745.39 Q451.187 6766.52 451.187 6803.7 Q451.187 6840.88 480.724 6862.26 Q510.007 6883.4 561.696 6883.4 Q613.386 6883.4 642.922 6862.26 Q672.205 6840.88 672.205 6803.7 Q672.205 6766.52 642.922 6745.39 Q613.386 6724 561.696 6724 M462.136 6883.4 Q436.674 6868.63 424.451 6846.22 Q411.975 6823.56 411.975 6792.24 Q411.975 6740.3 453.224 6707.96 Q494.474 6675.37 561.696 6675.37 Q628.918 6675.37 670.168 6707.96 Q711.417 6740.3 711.417 6792.24 Q711.417 6823.56 699.195 6846.22 Q686.719 6868.63 661.256 6883.4 L704.033 6883.4 L704.033 6930.5 L307.832 6930.5 L307.832 6883.4 L462.136 6883.4 Z"
     clip-path="url(#clip4100)" />
  <path
     id="path141"
     fill-opacity="1"
     fill-rule="evenodd"
     fill="#000000"
     d="M 0 0 M549.729 6382.29 L572.645 6382.29 L572.645 6597.71 Q621.024 6594.65 646.487 6568.68 Q671.695 6542.45 671.695 6495.85 Q671.695 6468.86 665.075 6443.66 Q658.455 6418.19 645.214 6393.24 L689.519 6393.24 Q700.214 6418.45 705.816 6444.93 Q711.417 6471.41 711.417 6498.65 Q711.417 6566.9 671.695 6606.87 Q631.973 6646.59 564.242 6646.59 Q494.22 6646.59 453.224 6608.91 Q411.975 6570.97 411.975 6506.8 Q411.975 6449.26 449.15 6415.9 Q486.071 6382.29 549.729 6382.29 M535.979 6429.14 Q497.53 6429.65 474.613 6450.78 Q451.697 6471.66 451.697 6506.29 Q451.697 6545.51 473.849 6569.19 Q496.002 6592.61 536.233 6596.18 L535.979 6429.14 Z"
     clip-path="url(#clip4100)" />
  <path
     id="path143"
     fill-opacity="1"
     fill-rule="evenodd"
     fill="#000000"
     d="M 0 0 M337.878 6286.8 L418.85 6286.8 L418.85 6190.3 L455.261 6190.3 L455.261 6286.8 L610.075 6286.8 Q644.96 6286.8 654.89 6277.38 Q664.821 6267.71 664.821 6238.42 L664.821 6190.3 L704.033 6190.3 L704.033 6238.42 Q704.033 6292.66 683.918 6313.29 Q663.547 6333.91 610.075 6333.91 L455.261 6333.91 L455.261 6368.29 L418.85 6368.29 L418.85 6333.91 L337.878 6333.91 L337.878 6286.8 Z"
     clip-path="url(#clip4100)" />
  <path
     id="path145"
     fill-opacity="1"
     fill-rule="evenodd"
     fill="#000000"
     d="M 0 0 M560.678 6011.55 Q560.678 6068.33 573.664 6090.23 Q586.65 6112.13 617.969 6112.13 Q642.922 6112.13 657.691 6095.83 Q672.205 6079.28 672.205 6051.02 Q672.205 6012.06 644.705 5988.63 Q616.95 5964.95 571.117 5964.95 L560.678 5964.95 L560.678 6011.55 M541.326 5918.1 L704.033 5918.1 L704.033 5964.95 L660.746 5964.95 Q686.719 5981 699.195 6004.93 Q711.417 6028.87 711.417 6063.5 Q711.417 6107.29 686.973 6133.26 Q662.274 6158.98 621.024 6158.98 Q572.9 6158.98 548.455 6126.9 Q524.011 6094.56 524.011 6030.65 L524.011 5964.95 L519.428 5964.95 Q487.09 5964.95 469.521 5986.34 Q451.697 6007.48 451.697 6045.93 Q451.697 6070.37 457.553 6093.54 Q463.41 6116.71 475.122 6138.1 L431.836 6138.1 Q421.905 6112.38 417.067 6088.19 Q411.975 6064 411.975 6041.09 Q411.975 5979.21 444.058 5948.66 Q476.141 5918.1 541.326 5918.1 Z"
     clip-path="url(#clip4100)" />
  <path
     id="path147"
     fill-opacity="1"
     fill-rule="evenodd"
     fill="#000000"
     d="M 0 0 M323.873 5785.7 L323.873 5742.41 L752.413 5874.82 L752.413 5918.1 L323.873 5785.7 Z"
     clip-path="url(#clip4100)" />
  <path
     id="path149"
     fill-opacity="1"
     fill-rule="evenodd"
     fill="#000000"
     d="M 0 0 M531.905 5456.21 L704.033 5456.21 L704.033 5503.06 L533.432 5503.06 Q492.946 5503.06 472.831 5518.85 Q452.715 5534.63 452.715 5566.21 Q452.715 5604.15 476.905 5626.04 Q501.095 5647.94 542.854 5647.94 L704.033 5647.94 L704.033 5695.05 L418.85 5695.05 L418.85 5647.94 L463.155 5647.94 Q437.437 5631.14 424.706 5608.47 Q411.975 5585.56 411.975 5555.77 Q411.975 5506.62 442.53 5481.41 Q472.831 5456.21 531.905 5456.21 Z"
     clip-path="url(#clip4100)" />
  <path
     id="path151"
     fill-opacity="1"
     fill-rule="evenodd"
     fill="#000000"
     d="M 0 0 M591.488 5411.9 L418.85 5411.9 L418.85 5365.05 L589.705 5365.05 Q630.191 5365.05 650.561 5349.26 Q670.677 5333.48 670.677 5301.9 Q670.677 5263.96 646.487 5242.06 Q622.298 5219.91 580.539 5219.91 L418.85 5219.91 L418.85 5173.06 L704.033 5173.06 L704.033 5219.91 L660.237 5219.91 Q686.209 5236.97 698.941 5259.63 Q711.417 5282.04 711.417 5311.83 Q711.417 5360.98 680.862 5386.44 Q650.307 5411.9 591.488 5411.9 M411.975 5294.01 L411.975 5294.01 Z"
     clip-path="url(#clip4100)" />
  <path
     id="path153"
     fill-opacity="1"
     fill-rule="evenodd"
     fill="#000000"
     d="M 0 0 M308.341 5131.3 L308.341 5090.56 Q368.433 5052.37 425.979 5033.52 Q483.525 5014.43 540.307 5014.43 Q597.344 5014.43 655.145 5033.52 Q712.945 5052.37 772.783 5090.56 L772.783 5131.3 Q714.473 5097.44 656.927 5080.88 Q599.126 5064.08 540.307 5064.08 Q481.488 5064.08 424.197 5080.88 Q366.905 5097.44 308.341 5131.3 Z"
     clip-path="url(#clip4100)" />
  <path
     id="path155"
     fill-opacity="1"
     fill-rule="evenodd"
     fill="#000000"
     d="M 0 0 M323.873 4963.25 L323.873 4886.6 L582.576 4789.59 L323.873 4692.07 L323.873 4615.42 L704.033 4615.42 L704.033 4665.59 L370.216 4665.59 L630.955 4763.62 L630.955 4815.31 L370.216 4913.34 L704.033 4913.34 L704.033 4963.25 L323.873 4963.25 Z"
     clip-path="url(#clip4100)" />
  <polyline
     id="polyline157"
     points="   2166.09,3777.61 2206.62,3777.61 2247.15,3777.61 2287.68,3777.61 2328.21,3777.61 2368.73,3777.61 2409.26,3777.61 2449.79,3777.61 2490.32,3777.61 2530.85,3777.61    2571.38,3777.61 2611.9,3777.61 2652.43,3777.61 2692.96,3777.61 2733.49,3777.61 2774.02,3777.61 2814.55,3777.61 2855.08,3777.61 2895.6,3777.61 2936.13,3777.61    2976.66,3777.61 3017.19,3777.61 3057.72,3777.61 3098.25,3777.61 3138.77,3777.61 3179.3,3777.61 3219.83,3777.61 3260.36,3777.61 3300.89,3777.61 3341.42,3777.61    3381.94,3777.61 3422.47,3777.61 3463,3777.61 3503.53,3777.61 3544.06,3777.61 3584.59,3777.61 3625.11,3777.61 3665.64,3777.63 3706.17,3777.63 3746.7,3777.62    3787.23,3777.66 3827.76,3777.61 3868.29,3777.65 3908.81,3777.61 3949.34,3777.75 3989.87,3777.68 4030.4,3777.81 4070.93,3777.67 4111.46,3777.73 4151.98,3777.66    4192.51,3778.01 4233.04,3777.94 4273.57,3778.04 4314.1,3778.23 4354.63,3778.01 4395.15,3778.01 4435.68,3778.4 4476.21,3778.15 4516.74,3778.16 4557.27,3778.61    4597.8,3778.63 4638.32,3778.68 4678.85,3779.1 4719.38,3778.89 4759.91,3779.14 4800.44,3780.3 4840.97,3779.5 4881.49,3780.11 4922.02,3780.65 4962.55,3781.91    5003.08,3782.06 5043.61,3781.91 5084.14,3782.63 5124.67,3783.69 5165.19,3784.65 5205.72,3783.67 5246.25,3784.62 5286.78,3784.6 5327.31,3786.55 5367.84,3787.33    5408.36,3788.74 5448.89,3789.73 5489.42,3790.48 5529.95,3791.8 5570.48,3792.03 5611.01,3795.88 5651.53,3795.01 5692.06,3797.32 5732.59,3796.58 5773.12,3800.44    5813.65,3803.26 5854.18,3803.37 5894.7,3805.79 5935.23,3806.88 5975.76,3810.16 6016.29,3812.56 6056.82,3813.62 6097.35,3817.35 6137.88,3821.26 6178.4,3821.08    6218.93,3825.52 6259.46,3829.96 6299.99,3832.24 6340.52,3832.66 6381.05,3840.23 6421.57,3847.21 6462.1,3849.05 6502.63,3850.06 6543.16,3857.18 6583.69,3859.95    6624.22,3862.38 6664.74,3870.25 6705.27,3877.46 6745.8,3881.91 6786.33,3889.97 6826.86,3890.27 6867.39,3893.79 6907.91,3902.69 6948.44,3908.9 6988.97,3917.38    7029.5,3925.09 7070.03,3923.21 7110.56,3936.05 7151.09,3946.72 7191.61,3954.96 7232.14,3959.61 7272.67,3970.81 7313.2,3978.25 7353.73,3994.84 7394.26,3998.18    7434.78,4016.04 7475.31,4031.8 7515.84,4034.57 7556.37,4048.84 7596.9,4049.52 7637.43,4066.57 7677.95,4074.92 7718.48,4101.76 7759.01,4104.39 7799.54,4143.34    7840.07,4128.47 7880.6,4164.58 7921.12,4169.97 7961.65,4169.93 8002.18,4216.04 8042.71,4222.39 8083.24,4225.02 8123.77,4255.91 8164.3,4312.73 8204.82,4320.6    8245.35,4364.24 8285.88,4426.88 8326.41,4392.84 8366.94,4417.97 8407.47,4441.8 8447.99,4461.11 8488.52,4463.05 8529.05,4562.96 8569.58,4536.84 8610.11,4566.78    8650.64,4689.26 8691.16,4636.85 8731.69,4764.76 8772.22,4750.92 8812.75,4767.61 8853.28,4916.46 8893.81,4879 8934.33,5006.54 8974.86,5020.52 9015.39,5066.85    9055.92,5045.11 9096.45,5139.51 9136.98,5247.61 9177.5,5412.89 9218.03,5242.45 9258.56,5464.83 9299.09,5508.15 9339.62,5555.64 9380.15,5650.13 9420.68,5710.12    9461.2,5743.96 9501.73,5786.39 9542.26,5898.26 9582.79,5911.8 9623.32,5902.9 9663.85,6179.52 9704.37,6269.83 9744.9,6358.53 9785.43,6438.97 9825.96,6374.6    9866.49,6483.74 9907.02,6505.32 9947.54,6603.85 9988.07,6744.3 10028.6,6770.03 10069.1,6801.17 10109.7,6946.49 10150.2,6990.95 10190.7,6936.75 10231.2,7199.47    10271.8,7266.05 10312.3,7348.6 10352.8,7352.38 10393.4,7485.68 10433.9,7431.46 10474.4,7594.08 10514.9,7624.31 10555.5,7656.38 10596,7725.49 10636.5,7834.27    10677.1,7889.33 10717.6,7847.41 10758.1,7954.11 10798.6,8016.34 10839.2,8173 10879.7,8179.58 10920.2,8175.59 10960.8,8172.6 11001.3,8239.26 11041.8,8281.06    11082.3,8327.98 11122.9,8343.09 11163.4,8440.63 11203.9,8458.48 11244.5,8531.53 11285,8647.28 11325.5,8631.62 11366,8614.44 11406.6,8573.55 11447.1,8804.29    11487.6,8713.87 11528.2,8688.19 11568.7,8816.02 11609.2,8884.42 11649.7,8887.02 11690.3,8985.73 11730.8,8868.11 11771.3,8995.72 11811.9,9012.83 11852.4,8983.85    11892.9,9008.9 11933.4,9066.41 11974,9147.33 12014.5,9093.12 12055,9243.6 12095.5,9133.78 12136.1,9190.73 12176.6,9237.56 12217.1,9207.59 12257.7,9224.08    12298.2,9303.18 12338.7,9266.07 12379.2,9242.66 12419.8,9334.81 12460.3,9323.67 12500.8,9347.2 12541.4,9476.68 12581.9,9385.86 12622.4,9460.8 12662.9,9443.5    12703.5,9485.89 12744,9503.1 12784.5,9476.3 12825.1,9519.29 12865.6,9567.23 12906.1,9559.64 12946.6,9570.84 12987.2,9568.45 13027.7,9548.21 13068.2,9556.15    13108.8,9621.48 13149.3,9664.99 13189.8,9631.07 13230.3,9676.13 13270.9,9713.18 13311.4,9681.8 13351.9,9708.44 13392.5,9658.13 13433,9685.46 13473.5,9672.22    13514,9720.74 13554.6,9777.96 13595.1,9734.39 13635.6,9762.36 13676.2,9760.95 13716.7,9772.54 13757.2,9767.04 13797.7,9751 13838.3,9830.86 13878.8,9799.23    13919.3,9833.77 13959.9,9858 14000.4,9823.88 14040.9,9874.94 14081.4,9865.36 14122,9909.39 14162.5,9881.82 14203,9861.94 14243.6,9844.15 14284.1,9861    14324.6,9908.24 14365.1,9867.18 14405.7,9880.41 14446.2,9916.59 14486.7,9938.6 14527.3,9942.34 14567.8,9966.58 14608.3,9951.84 14648.8,9959.97 14689.4,9958.08    14729.9,10009.8 14770.4,9967.72 14811,10017.4 14851.5,9962 14892,10025.4 14932.5,9968.85 14973.1,9996.61 15013.6,10049.1 15054.1,10018.6 15094.7,10037.8    15135.2,10014.7 15175.7,10040.7 15216.2,10073.5 15256.8,10038.6 15297.3,10030.5 15337.8,10087.2 15378.3,10108.8 15418.9,10084.5 15459.4,10057.4 15499.9,10079.1    15540.5,10122.9 15581,10100.7 15621.5,10083.1 15662,10059.6 15702.6,10097 15743.1,10117.7 15783.6,10131.4 15824.2,10139.7 15864.7,10135.3 15905.2,10149.5    15945.7,10160.5 15986.3,10148.3 16026.8,10155.7 16067.3,10159.6 16107.9,10163.7 16148.4,10127.7 16188.9,10178.3 16229.4,10162.9 16270,10187.9 16310.5,10180.4    16351,10169.1 16391.6,10170.2 16432.1,10184.2 16472.6,10170.2 16513.1,10204.8 16553.7,10231.7 16594.2,10208.5 16634.7,10179.9 16675.3,10218.9 16715.8,10222.3    16756.3,10232.4 16796.8,10231.9 16837.4,10233.8 16877.9,10232.6 16918.4,10236.7 16959,10244.8 16999.5,10259.6 17040,10251.3 17080.5,10230 17121.1,10271.1    17161.6,10240.1 17202.1,10251.1 17242.7,10259.8 17283.2,10265.4 17323.7,10260.5 17364.2,10276.9 17404.8,10252.5 17445.3,10265.8 17485.8,10268.9 17526.4,10266.6    17566.9,10293.3 17607.4,10319 17647.9,10287.9 17688.5,10303.1 17729,10302.1 17769.5,10306.7 17810.1,10297.9 17850.6,10312 17891.1,10314.7 17931.6,10300.7    17972.2,10290.9 18012.7,10320.6 18053.2,10295.7 18093.8,10321.3 18134.3,10324.5 18174.8,10328.7 18215.3,10336.7 18255.9,10323.8 18296.4,10330.1 18336.9,10328.7       "
     style="stroke:#009af9; stroke-width:32; stroke-opacity:1; fill:none"
     clip-path="url(#clip4102)" />
  <polyline
     id="polyline159"
     points="   2166.09,2935.3 2206.62,2935.3 2247.15,2935.3 2287.68,2935.3 2328.21,2935.3 2368.73,2935.3 2409.26,2935.3 2449.79,2935.3 2490.32,2935.3 2530.85,2935.3    2571.38,2935.3 2611.9,2935.3 2652.43,2935.3 2692.96,2935.3 2733.49,2935.3 2774.02,2935.3 2814.55,2935.3 2855.08,2935.3 2895.6,2935.3 2936.13,2935.3    2976.66,2935.3 3017.19,2935.3 3057.72,2935.3 3098.25,2935.3 3138.77,2935.3 3179.3,2935.3 3219.83,2935.3 3260.36,2935.3 3300.89,2935.3 3341.42,2935.3    3381.94,2935.3 3422.47,2935.31 3463,2935.3 3503.53,2935.3 3544.06,2935.3 3584.59,2935.31 3625.11,2935.31 3665.64,2935.3 3706.17,2935.32 3746.7,2935.31    3787.23,2935.32 3827.76,2935.32 3868.29,2935.32 3908.81,2935.3 3949.34,2935.34 3989.87,2935.34 4030.4,2935.38 4070.93,2935.4 4111.46,2935.44 4151.98,2935.52    4192.51,2935.62 4233.04,2935.65 4273.57,2935.64 4314.1,2935.58 4354.63,2935.93 4395.15,2935.92 4435.68,2936.11 4476.21,2936.05 4516.74,2936.26 4557.27,2936.52    4597.8,2936.27 4638.32,2936.49 4678.85,2937.01 4719.38,2937.7 4759.91,2937.45 4800.44,2937.74 4840.97,2938.25 4881.49,2938.68 4922.02,2938.26 4962.55,2939.31    5003.08,2940.01 5043.61,2939.94 5084.14,2941.36 5124.67,2941.32 5165.19,2942.6 5205.72,2942.57 5246.25,2943.94 5286.78,2944.73 5327.31,2945.53 5367.84,2946.41    5408.36,2947.26 5448.89,2947.97 5489.42,2948.73 5529.95,2949.97 5570.48,2951.4 5611.01,2954.44 5651.53,2956.07 5692.06,2956.8 5732.59,2957.37 5773.12,2959.63    5813.65,2961.35 5854.18,2963.86 5894.7,2965.13 5935.23,2969 5975.76,2971.75 6016.29,2973.25 6056.82,2974.84 6097.35,2978.31 6137.88,2982.63 6178.4,2985.04    6218.93,2990.39 6259.46,2989.65 6299.99,2994.65 6340.52,3000.3 6381.05,3000.61 6421.57,3005.24 6462.1,3011.21 6502.63,3016.96 6543.16,3018.76 6583.69,3024.13    6624.22,3028.88 6664.74,3032.71 6705.27,3042.86 6745.8,3048.19 6786.33,3052.4 6826.86,3058.2 6867.39,3067.44 6907.91,3075.36 6948.44,3078.36 6988.97,3090.09    7029.5,3093.47 7070.03,3100.33 7110.56,3110.43 7151.09,3118.67 7191.61,3129.28 7232.14,3140.52 7272.67,3151.34 7313.2,3163.83 7353.73,3174.38 7394.26,3182.61    7434.78,3198.4 7475.31,3218.01 7515.84,3227.79 7556.37,3228.05 7596.9,3241.17 7637.43,3249.98 7677.95,3273.43 7718.48,3294.36 7759.01,3304.1 7799.54,3313.2    7840.07,3347.82 7880.6,3397.56 7921.12,3355.24 7961.65,3414.09 8002.18,3418.53 8042.71,3455.77 8083.24,3457.48 8123.77,3475.9 8164.3,3517.67 8204.82,3554.75    8245.35,3533.63 8285.88,3603.47 8326.41,3646.88 8366.94,3652.6 8407.47,3688.66 8447.99,3717.82 8488.52,3757.66 8529.05,3769.37 8569.58,3784.61 8610.11,3894.11    8650.64,3917.43 8691.16,3959.59 8731.69,4091.13 8772.22,4092.79 8812.75,4168.36 8853.28,4220.3 8893.81,4366.73 8934.33,4306.01 8974.86,4369.93 9015.39,4624.85    9055.92,4600 9096.45,4703.19 9136.98,4836.71 9177.5,4927.72 9218.03,5045.86 9258.56,4984.58 9299.09,5094.51 9339.62,5264.22 9380.15,5212.03 9420.68,5625.26    9461.2,5549.79 9501.73,5681.25 9542.26,5751.19 9582.79,5943.81 9623.32,6254.14 9663.85,6370.09 9704.37,6166.21 9744.9,6247.44 9785.43,6729.04 9825.96,6624.66    9866.49,7001.63 9907.02,6940.56 9947.54,7062.82 9988.07,7166.74 10028.6,7293.72 10069.1,7506.83 10109.7,7547.04 10150.2,7479.25 10190.7,7865.66 10231.2,7735.72    10271.8,7777.95 10312.3,8024.85 10352.8,8179.52 10393.4,8366.42 10433.9,8427.38 10474.4,8396.18 10514.9,8343.41 10555.5,8439.4 10596,8579.93 10636.5,8622.54    10677.1,8770.95 10717.6,8740.48 10758.1,8742.49 10798.6,8886.75 10839.2,8812.52 10879.7,8853.62 10920.2,8992.1 10960.8,9111.41 11001.3,9007.61 11041.8,9042.64    11082.3,9160.37 11122.9,9263.43 11163.4,9243.48 11203.9,9131.4 11244.5,9356.89 11285,9375.92 11325.5,9388.75 11366,9494.97 11406.6,9495.32 11447.1,9473.42    11487.6,9522.62 11528.2,9490.99 11568.7,9546.82 11609.2,9510.86 11649.7,9591.03 11690.3,9616.37 11730.8,9590.71 11771.3,9663.84 11811.9,9656.08 11852.4,9696.73    11892.9,9801.53 11933.4,9804.59 11974,9761.77 12014.5,9823.95 12055,9816.04 12095.5,9822.82 12136.1,9842.4 12176.6,9936.63 12217.1,10000.8 12257.7,9878.23    12298.2,9927.5 12338.7,9894.03 12379.2,9931.71 12419.8,9967.65 12460.3,10003 12500.8,9920.64 12541.4,10013.1 12581.9,9946.64 12622.4,10015.2 12662.9,10059.9    12703.5,10099.4 12744,10043.2 12784.5,10073.4 12825.1,10021.4 12865.6,10099.5 12906.1,10078.3 12946.6,10152 12987.2,10133 13027.7,10187.1 13068.2,10105.7    13108.8,10167.7 13149.3,10198.9 13189.8,10131.8 13230.3,10197.1 13270.9,10182.3 13311.4,10222.4 13351.9,10223.6 13392.5,10250.1 13433,10191.7 13473.5,10266.8    13514,10257.7 13554.6,10273.4 13595.1,10247.9 13635.6,10287.2 13676.2,10247.4 13716.7,10276.5 13757.2,10262.3 13797.7,10302.5 13838.3,10296.6 13878.8,10324.3    13919.3,10322.8 13959.9,10346.4 14000.4,10346 14040.9,10311.4 14081.4,10366.9 14122,10347.2 14162.5,10341.7 14203,10355 14243.6,10374 14284.1,10387.1    14324.6,10389.3 14365.1,10361.8 14405.7,10400.4 14446.2,10407.9 14486.7,10386.4 14527.3,10402 14567.8,10400.9 14608.3,10406.5 14648.8,10381.1 14689.4,10416.4    14729.9,10444 14770.4,10436.1 14811,10451.2 14851.5,10424.3 14892,10469.3 14932.5,10458.1 14973.1,10453.4 15013.6,10447.8 15054.1,10483.8 15094.7,10475.5    15135.2,10473.5 15175.7,10498.6 15216.2,10494.3 15256.8,10492 15297.3,10495.5 15337.8,10483.1 15378.3,10482 15418.9,10488.5 15459.4,10499.6 15499.9,10514.7    15540.5,10508.3 15581,10527.1 15621.5,10529.8 15662,10514.1 15702.6,10542.3 15743.1,10549.2 15783.6,10549.6 15824.2,10538.4 15864.7,10551.8 15905.2,10533.4    15945.7,10526.8 15986.3,10561.5 16026.8,10550.4 16067.3,10558.6 16107.9,10559.4 16148.4,10576.4 16188.9,10584.1 16229.4,10580.8 16270,10556.8 16310.5,10548.8    16351,10567.9 16391.6,10567.9 16432.1,10581.2 16472.6,10580.9 16513.1,10609.1 16553.7,10593.3 16594.2,10614.3 16634.7,10609.1 16675.3,10617 16715.8,10600.2    16756.3,10593.5 16796.8,10611.9 16837.4,10623 16877.9,10597.7 16918.4,10615.5 16959,10618.2 16999.5,10632.1 17040,10613.6 17080.5,10628.2 17121.1,10619.3    17161.6,10641 17202.1,10626.1 17242.7,10648.5 17283.2,10621.2 17323.7,10633.7 17364.2,10621.1 17404.8,10647.4 17445.3,10656.2 17485.8,10654.6 17526.4,10657    17566.9,10654.4 17607.4,10647.8 17647.9,10654.6 17688.5,10641.7 17729,10679.9 17769.5,10655.7 17810.1,10659.7 17850.6,10681.8 17891.1,10677.9 17931.6,10674.8    17972.2,10679.7 18012.7,10680.2 18053.2,10683.6 18093.8,10665.6 18134.3,10682.6 18174.8,10674.7 18215.3,10683.6 18255.9,10693.8 18296.4,10691.7 18336.9,10680.1       "
     style="stroke:#e26f46; stroke-width:32; stroke-opacity:1; fill:none"
     clip-path="url(#clip4102)" />
  <polyline
     id="polyline161"
     points="   2166.09,2283.73 2206.62,2283.73 2247.15,2283.73 2287.68,2283.73 2328.21,2283.73 2368.73,2283.73 2409.26,2283.73 2449.79,2283.73 2490.32,2283.73 2530.85,2283.73    2571.38,2283.73 2611.9,2283.73 2652.43,2283.73 2692.96,2283.73 2733.49,2283.73 2774.02,2283.73 2814.55,2283.73 2855.08,2283.73 2895.6,2283.73 2936.13,2283.73    2976.66,2283.73 3017.19,2283.73 3057.72,2283.73 3098.25,2283.73 3138.77,2283.73 3179.3,2283.73 3219.83,2283.73 3260.36,2283.73 3300.89,2283.73 3341.42,2283.73    3381.94,2283.73 3422.47,2283.73 3463,2283.73 3503.53,2283.73 3544.06,2283.73 3584.59,2283.73 3625.11,2283.73 3665.64,2283.74 3706.17,2283.78 3746.7,2283.74    3787.23,2283.77 3827.76,2283.75 3868.29,2283.77 3908.81,2283.76 3949.34,2283.82 3989.87,2283.8 4030.4,2283.85 4070.93,2283.89 4111.46,2283.96 4151.98,2283.94    4192.51,2283.94 4233.04,2284.07 4273.57,2284.11 4314.1,2284.15 4354.63,2284.18 4395.15,2284.34 4435.68,2284.5 4476.21,2284.51 4516.74,2284.87 4557.27,2285.06    4597.8,2285.17 4638.32,2285.25 4678.85,2285.66 4719.38,2285.71 4759.91,2286.34 4800.44,2286.7 4840.97,2286.74 4881.49,2287.02 4922.02,2287.43 4962.55,2288.11    5003.08,2288.46 5043.61,2289.67 5084.14,2289.95 5124.67,2290.76 5165.19,2291.43 5205.72,2291.62 5246.25,2292.64 5286.78,2293.76 5327.31,2294.91 5367.84,2296.03    5408.36,2297.04 5448.89,2298.34 5489.42,2299.46 5529.95,2300.57 5570.48,2301.53 5611.01,2303.21 5651.53,2304.48 5692.06,2306.03 5732.59,2308.87 5773.12,2309.81    5813.65,2312.21 5854.18,2313.78 5894.7,2315.97 5935.23,2319.72 5975.76,2322.63 6016.29,2326.05 6056.82,2325.57 6097.35,2332.14 6137.88,2331.22 6178.4,2337.37    6218.93,2340.88 6259.46,2342.6 6299.99,2347.26 6340.52,2350.59 6381.05,2356.79 6421.57,2360.59 6462.1,2366.73 6502.63,2368.91 6543.16,2375.46 6583.69,2378.88    6624.22,2384.97 6664.74,2392.18 6705.27,2398.98 6745.8,2408.35 6786.33,2409.23 6826.86,2417.13 6867.39,2424.56 6907.91,2431.51 6948.44,2440.66 6988.97,2450.83    7029.5,2453.44 7070.03,2462.65 7110.56,2473.91 7151.09,2486.15 7191.61,2491.88 7232.14,2506.23 7272.67,2514.52 7313.2,2526.38 7353.73,2544.94 7394.26,2545.83    7434.78,2557.56 7475.31,2581.04 7515.84,2586.17 7556.37,2606.98 7596.9,2612.75 7637.43,2632.13 7677.95,2645.09 7718.48,2649.3 7759.01,2695.71 7799.54,2699.13    7840.07,2715.24 7880.6,2727.52 7921.12,2764.11 7961.65,2775.58 8002.18,2799.23 8042.71,2817.55 8083.24,2857.02 8123.77,2880.56 8164.3,2882.32 8204.82,2913.06    8245.35,2954.57 8285.88,2978.98 8326.41,3029.03 8366.94,3036.48 8407.47,3084.21 8447.99,3129 8488.52,3150.95 8529.05,3283.29 8569.58,3249.7 8610.11,3274.01    8650.64,3369.57 8691.16,3376.95 8731.69,3463.97 8772.22,3567.81 8812.75,3553.41 8853.28,3557.81 8893.81,3673.91 8934.33,3873.26 8974.86,3942.78 9015.39,3942.12    9055.92,4014.59 9096.45,4232.04 9136.98,4063.38 9177.5,4345.16 9218.03,4531.76 9258.56,4731.57 9299.09,5050.06 9339.62,4817.61 9380.15,5280.65 9420.68,5193.05    9461.2,5315.21 9501.73,5475.61 9542.26,5877.83 9582.79,6158.88 9623.32,6158.02 9663.85,6592.7 9704.37,6820.77 9744.9,6838.35 9785.43,7028.91 9825.96,7069.13    9866.49,7093.23 9907.02,7693.19 9947.54,7644.49 9988.07,7490.54 10028.6,7778.08 10069.1,7947.24 10109.7,8059.21 10150.2,8253.75 10190.7,8086.41 10231.2,8434.02    10271.8,8605.38 10312.3,8634.38 10352.8,8605.76 10393.4,8816.98 10433.9,8890.42 10474.4,8938.84 10514.9,8870.1 10555.5,9038.85 10596,9242.24 10636.5,9102.39    10677.1,9233.77 10717.6,9279.04 10758.1,9328.92 10798.6,9355.75 10839.2,9298.66 10879.7,9380.75 10920.2,9527.27 10960.8,9663.27 11001.3,9631.66 11041.8,9582.9    11082.3,9598.72 11122.9,9709.86 11163.4,9713.07 11203.9,9821.78 11244.5,9776.5 11285,9856.81 11325.5,9823.77 11366,9942.17 11406.6,9892.92 11447.1,9800.13    11487.6,9963.49 11528.2,9981.96 11568.7,10012.3 11609.2,10074 11649.7,9988.45 11690.3,10076.4 11730.8,9996.46 11771.3,10054.9 11811.9,10065.3 11852.4,10068.4    11892.9,10150.5 11933.4,10179.5 11974,10199.4 12014.5,10234.6 12055,10173 12095.5,10141.1 12136.1,10162.3 12176.6,10220.5 12217.1,10267.8 12257.7,10253.9    12298.2,10307.6 12338.7,10251.2 12379.2,10272.4 12419.8,10289.7 12460.3,10293.5 12500.8,10328 12541.4,10303.3 12581.9,10345.6 12622.4,10379.5 12662.9,10376.6    12703.5,10378.4 12744,10393 12784.5,10410.5 12825.1,10369.8 12865.6,10415.7 12906.1,10423.4 12946.6,10457.5 12987.2,10432.8 13027.7,10437.9 13068.2,10448.8    13108.8,10487.6 13149.3,10437.2 13189.8,10470 13230.3,10491.2 13270.9,10482.5 13311.4,10508.5 13351.9,10516.3 13392.5,10518.7 13433,10515.5 13473.5,10521.6    13514,10534 13554.6,10519.5 13595.1,10529.9 13635.6,10532.6 13676.2,10546.5 13716.7,10519.8 13757.2,10570 13797.7,10577.5 13838.3,10558.3 13878.8,10575.4    13919.3,10571.3 13959.9,10557.3 14000.4,10615.6 14040.9,10600.2 14081.4,10614.4 14122,10611.1 14162.5,10613.2 14203,10609.1 14243.6,10639.5 14284.1,10617.1    14324.6,10649.8 14365.1,10632.8 14405.7,10643.8 14446.2,10659.3 14486.7,10663.9 14527.3,10653 14567.8,10658.9 14608.3,10654.6 14648.8,10646.8 14689.4,10676.5    14729.9,10673.2 14770.4,10696.3 14811,10679.6 14851.5,10703.9 14892,10693 14932.5,10682.7 14973.1,10708.8 15013.6,10675.9 15054.1,10698.8 15094.7,10718    15135.2,10710.8 15175.7,10700.7 15216.2,10710.5 15256.8,10726.3 15297.3,10705.7 15337.8,10740 15378.3,10722.2 15418.9,10738.2 15459.4,10728.2 15499.9,10723.2    15540.5,10716.3 15581,10757.6 15621.5,10749.4 15662,10750.9 15702.6,10728.6 15743.1,10763.4 15783.6,10749.9 15824.2,10755.8 15864.7,10776 15905.2,10777.1    15945.7,10752 15986.3,10756.4 16026.8,10782.8 16067.3,10781.6 16107.9,10784.6 16148.4,10766.6 16188.9,10799.6 16229.4,10775.2 16270,10787.8 16310.5,10780.7    16351,10786.7 16391.6,10807.6 16432.1,10814.6 16472.6,10809.3 16513.1,10787.5 16553.7,10815.4 16594.2,10806.1 16634.7,10812.2 16675.3,10815.3 16715.8,10810.5    16756.3,10820.6 16796.8,10823.2 16837.4,10827.6 16877.9,10843.5 16918.4,10799.9 16959,10836.2 16999.5,10815.6 17040,10819.5 17080.5,10844.9 17121.1,10816.7    17161.6,10839.1 17202.1,10844.8 17242.7,10843.8 17283.2,10839.3 17323.7,10836.1 17364.2,10833.8 17404.8,10848.3 17445.3,10850.6 17485.8,10849.9 17526.4,10861.7    17566.9,10838.7 17607.4,10848.4 17647.9,10848.6 17688.5,10868 17729,10869.5 17769.5,10878.7 17810.1,10857.6 17850.6,10869.8 17891.1,10865.4 17931.6,10866.9    17972.2,10864 18012.7,10860.3 18053.2,10861.7 18093.8,10863 18134.3,10883.6 18174.8,10879.3 18215.3,10887.9 18255.9,10878.7 18296.4,10885.4 18336.9,10868.3       "
     style="stroke:#3da44d; stroke-width:32; stroke-opacity:1; fill:none"
     clip-path="url(#clip4102)" />
  <polyline
     id="polyline163"
     points="   2166.09,1282.05 2206.62,1282.05 2247.15,1282.05 2287.68,1282.05 2328.21,1282.05 2368.73,1282.05 2409.26,1282.05 2449.79,1282.05 2490.32,1282.05 2530.85,1282.05    2571.38,1282.05 2611.9,1282.05 2652.43,1282.05 2692.96,1282.05 2733.49,1282.05 2774.02,1282.05 2814.55,1282.05 2855.08,1282.05 2895.6,1282.05 2936.13,1282.05    2976.66,1282.05 3017.19,1282.05 3057.72,1282.05 3098.25,1282.05 3138.77,1282.05 3179.3,1282.05 3219.83,1282.05 3260.36,1282.05 3300.89,1282.05 3341.42,1282.05    3381.94,1282.06 3422.47,1282.05 3463,1282.05 3503.53,1282.06 3544.06,1282.05 3584.59,1282.05 3625.11,1282.05 3665.64,1282.06 3706.17,1282.06 3746.7,1282.07    3787.23,1282.06 3827.76,1282.12 3868.29,1282.11 3908.81,1282.1 3949.34,1282.13 3989.87,1282.14 4030.4,1282.16 4070.93,1282.2 4111.46,1282.23 4151.98,1282.27    4192.51,1282.27 4233.04,1282.37 4273.57,1282.48 4314.1,1282.46 4354.63,1282.68 4395.15,1282.66 4435.68,1282.95 4476.21,1282.96 4516.74,1283.2 4557.27,1283.39    4597.8,1283.48 4638.32,1283.92 4678.85,1284.04 4719.38,1284.32 4759.91,1284.61 4800.44,1285.14 4840.97,1285.38 4881.49,1285.55 4922.02,1286.33 4962.55,1286.88    5003.08,1287.31 5043.61,1287.68 5084.14,1288.66 5124.67,1289.13 5165.19,1290.08 5205.72,1290.99 5246.25,1291.87 5286.78,1292.95 5327.31,1294.05 5367.84,1294.73    5408.36,1296.48 5448.89,1297.31 5489.42,1298.71 5529.95,1300.46 5570.48,1302.3 5611.01,1303.16 5651.53,1304.94 5692.06,1307.24 5732.59,1310.52 5773.12,1312.32    5813.65,1314.57 5854.18,1316.45 5894.7,1318.57 5935.23,1321.12 5975.76,1325.01 6016.29,1328 6056.82,1331.83 6097.35,1334.49 6137.88,1336.81 6178.4,1340.78    6218.93,1344.83 6259.46,1348.54 6299.99,1353.03 6340.52,1356.04 6381.05,1361.44 6421.57,1367.38 6462.1,1371.61 6502.63,1376.57 6543.16,1383.46 6583.69,1389.88    6624.22,1395.3 6664.74,1400.11 6705.27,1407.3 6745.8,1416.78 6786.33,1423.14 6826.86,1429.33 6867.39,1437.76 6907.91,1446.26 6948.44,1454.69 6988.97,1466.31    7029.5,1476.3 7070.03,1483.16 7110.56,1490.76 7151.09,1499.85 7191.61,1510.85 7232.14,1524.29 7272.67,1532.6 7313.2,1545.8 7353.73,1562.21 7394.26,1574.84    7434.78,1588.11 7475.31,1603.85 7515.84,1623.53 7556.37,1636.88 7596.9,1663.31 7637.43,1664.81 7677.95,1690.8 7718.48,1709.53 7759.01,1726.76 7799.54,1743.32    7840.07,1751.27 7880.6,1783.94 7921.12,1808.72 7961.65,1826.23 8002.18,1844.53 8042.71,1879.97 8083.24,1910.35 8123.77,1928.05 8164.3,1963.97 8204.82,1997.49    8245.35,2024.39 8285.88,2073.57 8326.41,2080.95 8366.94,2136.86 8407.47,2140.95 8447.99,2229.26 8488.52,2261.53 8529.05,2313.8 8569.58,2364 8610.11,2441.93    8650.64,2476.83 8691.16,2575.91 8731.69,2526.77 8772.22,2649.87 8812.75,2806.76 8853.28,2783.59 8893.81,2868.07 8934.33,2931.35 8974.86,3228.77 9015.39,3255.48    9055.92,3334.25 9096.45,3368.56 9136.98,3463.49 9177.5,3785.28 9218.03,4382.19 9258.56,4569.14 9299.09,4284.33 9339.62,5282.81 9380.15,4954.85 9420.68,5037.39    9461.2,5249.3 9501.73,5493.93 9542.26,6364.98 9582.79,6455.84 9623.32,6725.16 9663.85,7103.47 9704.37,7568.99 9744.9,7656.71 9785.43,7630.36 9825.96,7815.25    9866.49,7707.74 9907.02,8451.7 9947.54,8563.15 9988.07,8554.37 10028.6,8845.99 10069.1,8914.69 10109.7,8984.59 10150.2,8833.99 10190.7,8921.73 10231.2,9187.43    10271.8,9436.7 10312.3,9617.59 10352.8,9576.02 10393.4,9639.87 10433.9,9573.27 10474.4,9428.63 10514.9,9620.31 10555.5,9765.88 10596,9814.89 10636.5,9812.76    10677.1,9962.82 10717.6,9945.43 10758.1,9965.49 10798.6,9929.44 10839.2,10018.7 10879.7,10081.6 10920.2,10109.2 10960.8,10077.8 11001.3,10201.9 11041.8,10127.1    11082.3,10189.7 11122.9,10265.2 11163.4,10279 11203.9,10223 11244.5,10283.2 11285,10224.4 11325.5,10337.5 11366,10312.5 11406.6,10335 11447.1,10404.5    11487.6,10391.9 11528.2,10436.1 11568.7,10490.2 11609.2,10391 11649.7,10469.7 11690.3,10486.6 11730.8,10533.6 11771.3,10443.1 11811.9,10521.9 11852.4,10550.2    11892.9,10548.5 11933.4,10518.9 11974,10541.4 12014.5,10576.6 12055,10569.2 12095.5,10570.6 12136.1,10596.1 12176.6,10581.8 12217.1,10622.8 12257.7,10648.8    12298.2,10682.9 12338.7,10609.7 12379.2,10639.1 12419.8,10675.8 12460.3,10641.9 12500.8,10693.5 12541.4,10695.5 12581.9,10696.5 12622.4,10698.2 12662.9,10739    12703.5,10690.1 12744,10736.8 12784.5,10733.7 12825.1,10746.3 12865.6,10725.4 12906.1,10751 12946.6,10754.2 12987.2,10743.9 13027.7,10779.8 13068.2,10766.9    13108.8,10802.7 13149.3,10817.8 13189.8,10778.7 13230.3,10796.1 13270.9,10794.9 13311.4,10809.4 13351.9,10817.3 13392.5,10802.9 13433,10813.5 13473.5,10834.8    13514,10794.9 13554.6,10836.6 13595.1,10845.7 13635.6,10854.3 13676.2,10840.6 13716.7,10839.7 13757.2,10824.6 13797.7,10876.2 13838.3,10857.6 13878.8,10880.1    13919.3,10876.2 13959.9,10890.9 14000.4,10878 14040.9,10890.1 14081.4,10879.9 14122,10902.2 14162.5,10892.4 14203,10885.4 14243.6,10914.4 14284.1,10915.7    14324.6,10914.4 14365.1,10900.9 14405.7,10896.8 14446.2,10897.6 14486.7,10914.4 14527.3,10918.2 14567.8,10927.7 14608.3,10928.6 14648.8,10919.6 14689.4,10931.7    14729.9,10956.6 14770.4,10935.2 14811,10944.3 14851.5,10938.8 14892,10958.1 14932.5,10940.8 14973.1,10959.4 15013.6,10966.6 15054.1,10947.1 15094.7,10968.3    15135.2,10956.7 15175.7,10958.9 15216.2,10964.8 15256.8,10957.4 15297.3,10979.8 15337.8,10973.2 15378.3,10980.6 15418.9,10981.1 15459.4,10987.6 15499.9,10990    15540.5,10984.2 15581,10991.1 15621.5,10992 15662,10997.2 15702.6,10993.1 15743.1,11003.4 15783.6,10984.2 15824.2,10993.4 15864.7,11004.1 15905.2,10994.6    15945.7,10987.7 15986.3,11009.3 16026.8,11004.7 16067.3,11012.4 16107.9,11017.4 16148.4,11003.5 16188.9,10998.5 16229.4,11009.9 16270,11025.7 16310.5,11036    16351,11028.6 16391.6,11021.4 16432.1,11053 16472.6,11030 16513.1,11036.6 16553.7,11031.1 16594.2,11037.3 16634.7,11038.4 16675.3,11035.7 16715.8,11030.2    16756.3,11031.9 16796.8,11033.9 16837.4,11056 16877.9,11037.7 16918.4,11039.1 16959,11029.6 16999.5,11051.8 17040,11048.7 17080.5,11050.8 17121.1,11060.6    17161.6,11058.9 17202.1,11052.9 17242.7,11058.2 17283.2,11051.5 17323.7,11048.9 17364.2,11052.1 17404.8,11051.3 17445.3,11059.1 17485.8,11059.4 17526.4,11065.3    17566.9,11068 17607.4,11065.5 17647.9,11060.7 17688.5,11068.6 17729,11069.6 17769.5,11079.3 17810.1,11074.7 17850.6,11067.4 17891.1,11074.9 17931.6,11081.4    17972.2,11082.7 18012.7,11077.7 18053.2,11084.3 18093.8,11089.7 18134.3,11086.7 18174.8,11079.9 18215.3,11084.5 18255.9,11091.2 18296.4,11083.6 18336.9,11082.2       "
     style="stroke:#c271d2; stroke-width:32; stroke-opacity:1; fill:none"
     clip-path="url(#clip4102)" />
  <path
     id="path165"
     fill-opacity="1"
     fill-rule="evenodd"
     fill="#ffffff"
     d=" M12897.2 4075.14 L18246 4075.14 L18246 1655.94 L12897.2 1655.94  Z   "
     clip-path="url(#clip4100)" />
  <polyline
     id="polyline167"
     points="   12897.2,4075.14 18246,4075.14 18246,1655.94 12897.2,1655.94 12897.2,4075.14    "
     style="stroke:#000000; stroke-width:32; stroke-opacity:1; fill:none"
     clip-path="url(#clip4100)" />
  <polyline
     id="polyline169"
     points="   13089.2,2139.78 14241.2,2139.78    "
     style="stroke:#009af9; stroke-width:32; stroke-opacity:1; fill:none"
     clip-path="url(#clip4100)" />
  <path
     id="path171"
     fill-opacity="1"
     fill-rule="evenodd"
     fill="#000000"
     d="M 0 0 M14433.2 2001.54 L14470.6 2001.54 L14470.6 2246.54 L14605.2 2246.54 L14605.2 2278.02 L14433.2 2278.02 L14433.2 2001.54 Z"
     clip-path="url(#clip4100)" />
  <path
     id="path173"
     fill-opacity="1"
     fill-rule="evenodd"
     fill="#000000"
     d="M 0 0 M14782.2 2001.54 L14882.8 2104.68 L14845.6 2104.68 L14764.1 2031.54 L14682.6 2104.68 L14645.4 2104.68 L14746 2001.54 L14782.2 2001.54 Z"
     clip-path="url(#clip4100)" />
  <path
     id="path175"
     fill-opacity="1"
     fill-rule="evenodd"
     fill="#000000"
     d="M 0 0 M15000.4 1990.24 Q14975.6 2032.83 14963.5 2074.5 Q14951.5 2116.17 14951.5 2158.94 Q14951.5 2201.72 14963.5 2243.76 Q14975.8 2285.61 15000.4 2328.02 L14970.8 2328.02 Q14943 2284.5 14929.1 2242.46 Q14915.4 2200.42 14915.4 2158.94 Q14915.4 2117.65 14929.1 2075.8 Q14942.8 2033.94 14970.8 1990.24 L15000.4 1990.24 Z"
     clip-path="url(#clip4100)" />
  <path
     id="path177"
     fill-opacity="1"
     fill-rule="evenodd"
     fill="#000000"
     d="M 0 0 M15185 2174.5 Q15185 2136.91 15169.5 2115.61 Q15154.1 2094.13 15127.1 2094.13 Q15100 2094.13 15084.5 2115.61 Q15069.1 2136.91 15069.1 2174.5 Q15069.1 2212.09 15084.5 2233.57 Q15100 2254.87 15127.1 2254.87 Q15154.1 2254.87 15169.5 2233.57 Q15185 2212.09 15185 2174.5 M15069.1 2102.09 Q15079.8 2083.57 15096.1 2074.68 Q15112.6 2065.61 15135.4 2065.61 Q15173.2 2065.61 15196.7 2095.61 Q15220.4 2125.61 15220.4 2174.5 Q15220.4 2223.39 15196.7 2253.39 Q15173.2 2283.39 15135.4 2283.39 Q15112.6 2283.39 15096.1 2274.5 Q15079.8 2265.42 15069.1 2246.91 L15069.1 2278.02 L15034.8 2278.02 L15034.8 1989.87 L15069.1 1989.87 L15069.1 2102.09 Z"
     clip-path="url(#clip4100)" />
  <path
     id="path179"
     fill-opacity="1"
     fill-rule="evenodd"
     fill="#000000"
     d="M 0 0 M15433.5 2165.8 L15433.5 2182.46 L15276.9 2182.46 Q15279.1 2217.65 15298 2236.17 Q15317.1 2254.5 15350.9 2254.5 Q15370.6 2254.5 15388.9 2249.68 Q15407.4 2244.87 15425.6 2235.24 L15425.6 2267.46 Q15407.2 2275.24 15388 2279.31 Q15368.7 2283.39 15348.9 2283.39 Q15299.3 2283.39 15270.2 2254.5 Q15241.3 2225.61 15241.3 2176.35 Q15241.3 2125.43 15268.7 2095.61 Q15296.3 2065.61 15343 2065.61 Q15384.8 2065.61 15409.1 2092.65 Q15433.5 2119.5 15433.5 2165.8 M15399.5 2155.8 Q15399.1 2127.83 15383.7 2111.17 Q15368.5 2094.5 15343.4 2094.5 Q15314.8 2094.5 15297.6 2110.61 Q15280.6 2126.72 15278 2155.98 L15399.5 2155.8 Z"
     clip-path="url(#clip4100)" />
  <path
     id="path181"
     fill-opacity="1"
     fill-rule="evenodd"
     fill="#000000"
     d="M 0 0 M15503 2011.72 L15503 2070.61 L15573.2 2070.61 L15573.2 2097.09 L15503 2097.09 L15503 2209.68 Q15503 2235.05 15509.8 2242.28 Q15516.9 2249.5 15538.2 2249.5 L15573.2 2249.5 L15573.2 2278.02 L15538.2 2278.02 Q15498.7 2278.02 15483.7 2263.39 Q15468.7 2248.57 15468.7 2209.68 L15468.7 2097.09 L15443.7 2097.09 L15443.7 2070.61 L15468.7 2070.61 L15468.7 2011.72 L15503 2011.72 Z"
     clip-path="url(#clip4100)" />
  <path
     id="path183"
     fill-opacity="1"
     fill-rule="evenodd"
     fill="#000000"
     d="M 0 0 M15703.2 2173.76 Q15661.9 2173.76 15645.9 2183.2 Q15630 2192.65 15630 2215.42 Q15630 2233.57 15641.9 2244.31 Q15653.9 2254.87 15674.5 2254.87 Q15702.8 2254.87 15719.8 2234.87 Q15737.1 2214.68 15737.1 2181.35 L15737.1 2173.76 L15703.2 2173.76 M15771.1 2159.68 L15771.1 2278.02 L15737.1 2278.02 L15737.1 2246.54 Q15725.4 2265.42 15708 2274.5 Q15690.6 2283.39 15665.4 2283.39 Q15633.5 2283.39 15614.7 2265.61 Q15595.9 2247.65 15595.9 2217.65 Q15595.9 2182.65 15619.3 2164.87 Q15642.8 2147.09 15689.3 2147.09 L15737.1 2147.09 L15737.1 2143.76 Q15737.1 2120.24 15721.5 2107.46 Q15706.1 2094.5 15678.2 2094.5 Q15660.4 2094.5 15643.5 2098.76 Q15626.7 2103.02 15611.1 2111.54 L15611.1 2080.06 Q15629.8 2072.83 15647.4 2069.31 Q15665 2065.61 15681.7 2065.61 Q15726.7 2065.61 15748.9 2088.94 Q15771.1 2112.28 15771.1 2159.68 Z"
     clip-path="url(#clip4100)" />
  <path
     id="path185"
     fill-opacity="1"
     fill-rule="evenodd"
     fill="#000000"
     d="M 0 0 M15867.4 2001.54 L15898.9 2001.54 L15802.6 2313.2 L15771.1 2313.2 L15867.4 2001.54 Z"
     clip-path="url(#clip4100)" />
  <path
     id="path187"
     fill-opacity="1"
     fill-rule="evenodd"
     fill="#000000"
     d="M 0 0 M16107.1 2152.83 L16107.1 2278.02 L16073 2278.02 L16073 2153.94 Q16073 2124.5 16061.5 2109.87 Q16050 2095.24 16027.1 2095.24 Q15999.5 2095.24 15983.5 2112.83 Q15967.6 2130.43 15967.6 2160.8 L15967.6 2278.02 L15933.4 2278.02 L15933.4 2070.61 L15967.6 2070.61 L15967.6 2102.83 Q15979.8 2084.13 15996.3 2074.87 Q16013 2065.61 16034.6 2065.61 Q16070.4 2065.61 16088.7 2087.83 Q16107.1 2109.87 16107.1 2152.83 Z"
     clip-path="url(#clip4100)" />
  <path
     id="path189"
     fill-opacity="1"
     fill-rule="evenodd"
     fill="#000000"
     d="M 0 0 M16139.3 2196.17 L16139.3 2070.61 L16173.4 2070.61 L16173.4 2194.87 Q16173.4 2224.31 16184.8 2239.13 Q16196.3 2253.76 16219.3 2253.76 Q16246.9 2253.76 16262.8 2236.17 Q16278.9 2218.57 16278.9 2188.2 L16278.9 2070.61 L16313 2070.61 L16313 2278.02 L16278.9 2278.02 L16278.9 2246.17 Q16266.5 2265.05 16250 2274.31 Q16233.7 2283.39 16212.1 2283.39 Q16176.3 2283.39 16157.8 2261.17 Q16139.3 2238.94 16139.3 2196.17 M16225 2065.61 L16225 2065.61 Z"
     clip-path="url(#clip4100)" />
  <path
     id="path191"
     fill-opacity="1"
     fill-rule="evenodd"
     fill="#000000"
     d="M 0 0 M16343.4 1990.24 L16373 1990.24 Q16400.8 2033.94 16414.5 2075.8 Q16428.4 2117.65 16428.4 2158.94 Q16428.4 2200.42 16414.5 2242.46 Q16400.8 2284.5 16373 2328.02 L16343.4 2328.02 Q16368 2285.61 16380 2243.76 Q16392.2 2201.72 16392.2 2158.94 Q16392.2 2116.17 16380 2074.5 Q16368 2032.83 16343.4 1990.24 Z"
     clip-path="url(#clip4100)" />
  <path
     id="path193"
     fill-opacity="1"
     fill-rule="evenodd"
     fill="#000000"
     d="M 0 0 M16465.6 2001.54 L16521.3 2001.54 L16591.9 2189.68 L16662.8 2001.54 L16718.5 2001.54 L16718.5 2278.02 L16682.1 2278.02 L16682.1 2035.24 L16610.8 2224.87 L16573.2 2224.87 L16501.9 2035.24 L16501.9 2278.02 L16465.6 2278.02 L16465.6 2001.54 Z"
     clip-path="url(#clip4100)" />
  <path
     id="path195"
     fill-opacity="1"
     fill-rule="evenodd"
     fill="#000000"
     d="M 0 0 M16836.1 1990.24 Q16811.3 2032.83 16799.3 2074.5 Q16787.2 2116.17 16787.2 2158.94 Q16787.2 2201.72 16799.3 2243.76 Q16811.5 2285.61 16836.1 2328.02 L16806.5 2328.02 Q16778.7 2284.5 16764.8 2242.46 Q16751.1 2200.42 16751.1 2158.94 Q16751.1 2117.65 16764.8 2075.8 Q16778.5 2033.94 16806.5 1990.24 L16836.1 1990.24 Z"
     clip-path="url(#clip4100)" />
  <path
     id="path197"
     fill-opacity="1"
     fill-rule="evenodd"
     fill="#000000"
     d="M 0 0 M16873.3 2001.54 L16910.8 2001.54 L16910.8 2246.54 L17045.4 2246.54 L17045.4 2278.02 L16873.3 2278.02 L16873.3 2001.54 Z"
     clip-path="url(#clip4100)" />
  <path
     id="path199"
     fill-opacity="1"
     fill-rule="evenodd"
     fill="#000000"
     d="M 0 0 M17085.6 2105.8 L17323 2105.8 L17323 2136.91 L17085.6 2136.91 L17085.6 2105.8 M17085.6 2181.35 L17323 2181.35 L17323 2212.83 L17085.6 2212.83 L17085.6 2181.35 Z"
     clip-path="url(#clip4100)" />
  <path
     id="path201"
     fill-opacity="1"
     fill-rule="evenodd"
     fill="#000000"
     d="M 0 0 M17443.5 2146.72 Q17416.9 2146.72 17401.5 2160.98 Q17386.3 2175.24 17386.3 2200.24 Q17386.3 2225.24 17401.5 2239.5 Q17416.9 2253.76 17443.5 2253.76 Q17470.2 2253.76 17485.6 2239.5 Q17500.9 2225.05 17500.9 2200.24 Q17500.9 2175.24 17485.6 2160.98 Q17470.4 2146.72 17443.5 2146.72 M17406.1 2130.8 Q17382 2124.87 17368.5 2108.39 Q17355.2 2091.91 17355.2 2068.2 Q17355.2 2035.06 17378.7 2015.8 Q17402.4 1996.54 17443.5 1996.54 Q17484.8 1996.54 17508.3 2015.8 Q17531.9 2035.06 17531.9 2068.2 Q17531.9 2091.91 17518.3 2108.39 Q17505 2124.87 17481.1 2130.8 Q17508.2 2137.09 17523.2 2155.43 Q17538.3 2173.76 17538.3 2200.24 Q17538.3 2240.42 17513.7 2261.91 Q17489.3 2283.39 17443.5 2283.39 Q17397.8 2283.39 17373.2 2261.91 Q17348.7 2240.42 17348.7 2200.24 Q17348.7 2173.76 17363.9 2155.43 Q17379.1 2137.09 17406.1 2130.8 M17392.4 2071.72 Q17392.4 2093.2 17405.8 2105.24 Q17419.3 2117.28 17443.5 2117.28 Q17467.6 2117.28 17481.1 2105.24 Q17494.8 2093.2 17494.8 2071.72 Q17494.8 2050.24 17481.1 2038.2 Q17467.6 2026.17 17443.5 2026.17 Q17419.3 2026.17 17405.8 2038.2 Q17392.4 2050.24 17392.4 2071.72 Z"
     clip-path="url(#clip4100)" />
  <path
     id="path203"
     fill-opacity="1"
     fill-rule="evenodd"
     fill="#000000"
     d="M 0 0 M17568.7 1990.24 L17598.3 1990.24 Q17626.1 2033.94 17639.8 2075.8 Q17653.7 2117.65 17653.7 2158.94 Q17653.7 2200.42 17639.8 2242.46 Q17626.1 2284.5 17598.3 2328.02 L17568.7 2328.02 Q17593.3 2285.61 17605.4 2243.76 Q17617.6 2201.72 17617.6 2158.94 Q17617.6 2116.17 17605.4 2074.5 Q17593.3 2032.83 17568.7 1990.24 Z"
     clip-path="url(#clip4100)" />
  <polyline
     id="polyline205"
     points="   13089.2,2623.62 14241.2,2623.62    "
     style="stroke:#e26f46; stroke-width:32; stroke-opacity:1; fill:none"
     clip-path="url(#clip4100)" />
  <path
     id="path207"
     fill-opacity="1"
     fill-rule="evenodd"
     fill="#000000"
     d="M 0 0 M14433.2 2485.38 L14470.6 2485.38 L14470.6 2730.38 L14605.2 2730.38 L14605.2 2761.86 L14433.2 2761.86 L14433.2 2485.38 Z"
     clip-path="url(#clip4100)" />
  <path
     id="path209"
     fill-opacity="1"
     fill-rule="evenodd"
     fill="#000000"
     d="M 0 0 M14782.2 2485.38 L14882.8 2588.52 L14845.6 2588.52 L14764.1 2515.38 L14682.6 2588.52 L14645.4 2588.52 L14746 2485.38 L14782.2 2485.38 Z"
     clip-path="url(#clip4100)" />
  <path
     id="path211"
     fill-opacity="1"
     fill-rule="evenodd"
     fill="#000000"
     d="M 0 0 M15000.4 2474.08 Q14975.6 2516.67 14963.5 2558.34 Q14951.5 2600.01 14951.5 2642.78 Q14951.5 2685.56 14963.5 2727.6 Q14975.8 2769.45 15000.4 2811.86 L14970.8 2811.86 Q14943 2768.34 14929.1 2726.3 Q14915.4 2684.26 14915.4 2642.78 Q14915.4 2601.49 14929.1 2559.64 Q14942.8 2517.78 14970.8 2474.08 L15000.4 2474.08 Z"
     clip-path="url(#clip4100)" />
  <path
     id="path213"
     fill-opacity="1"
     fill-rule="evenodd"
     fill="#000000"
     d="M 0 0 M15185 2658.34 Q15185 2620.75 15169.5 2599.45 Q15154.1 2577.97 15127.1 2577.97 Q15100 2577.97 15084.5 2599.45 Q15069.1 2620.75 15069.1 2658.34 Q15069.1 2695.93 15084.5 2717.41 Q15100 2738.71 15127.1 2738.71 Q15154.1 2738.71 15169.5 2717.41 Q15185 2695.93 15185 2658.34 M15069.1 2585.93 Q15079.8 2567.41 15096.1 2558.52 Q15112.6 2549.45 15135.4 2549.45 Q15173.2 2549.45 15196.7 2579.45 Q15220.4 2609.45 15220.4 2658.34 Q15220.4 2707.23 15196.7 2737.23 Q15173.2 2767.23 15135.4 2767.23 Q15112.6 2767.23 15096.1 2758.34 Q15079.8 2749.26 15069.1 2730.75 L15069.1 2761.86 L15034.8 2761.86 L15034.8 2473.71 L15069.1 2473.71 L15069.1 2585.93 Z"
     clip-path="url(#clip4100)" />
  <path
     id="path215"
     fill-opacity="1"
     fill-rule="evenodd"
     fill="#000000"
     d="M 0 0 M15433.5 2649.64 L15433.5 2666.3 L15276.9 2666.3 Q15279.1 2701.49 15298 2720.01 Q15317.1 2738.34 15350.9 2738.34 Q15370.6 2738.34 15388.9 2733.52 Q15407.4 2728.71 15425.6 2719.08 L15425.6 2751.3 Q15407.2 2759.08 15388 2763.15 Q15368.7 2767.23 15348.9 2767.23 Q15299.3 2767.23 15270.2 2738.34 Q15241.3 2709.45 15241.3 2660.19 Q15241.3 2609.27 15268.7 2579.45 Q15296.3 2549.45 15343 2549.45 Q15384.8 2549.45 15409.1 2576.49 Q15433.5 2603.34 15433.5 2649.64 M15399.5 2639.64 Q15399.1 2611.67 15383.7 2595.01 Q15368.5 2578.34 15343.4 2578.34 Q15314.8 2578.34 15297.6 2594.45 Q15280.6 2610.56 15278 2639.82 L15399.5 2639.64 Z"
     clip-path="url(#clip4100)" />
  <path
     id="path217"
     fill-opacity="1"
     fill-rule="evenodd"
     fill="#000000"
     d="M 0 0 M15503 2495.56 L15503 2554.45 L15573.2 2554.45 L15573.2 2580.93 L15503 2580.93 L15503 2693.52 Q15503 2718.89 15509.8 2726.12 Q15516.9 2733.34 15538.2 2733.34 L15573.2 2733.34 L15573.2 2761.86 L15538.2 2761.86 Q15498.7 2761.86 15483.7 2747.23 Q15468.7 2732.41 15468.7 2693.52 L15468.7 2580.93 L15443.7 2580.93 L15443.7 2554.45 L15468.7 2554.45 L15468.7 2495.56 L15503 2495.56 Z"
     clip-path="url(#clip4100)" />
  <path
     id="path219"
     fill-opacity="1"
     fill-rule="evenodd"
     fill="#000000"
     d="M 0 0 M15703.2 2657.6 Q15661.9 2657.6 15645.9 2667.04 Q15630 2676.49 15630 2699.26 Q15630 2717.41 15641.9 2728.15 Q15653.9 2738.71 15674.5 2738.71 Q15702.8 2738.71 15719.8 2718.71 Q15737.1 2698.52 15737.1 2665.19 L15737.1 2657.6 L15703.2 2657.6 M15771.1 2643.52 L15771.1 2761.86 L15737.1 2761.86 L15737.1 2730.38 Q15725.4 2749.26 15708 2758.34 Q15690.6 2767.23 15665.4 2767.23 Q15633.5 2767.23 15614.7 2749.45 Q15595.9 2731.49 15595.9 2701.49 Q15595.9 2666.49 15619.3 2648.71 Q15642.8 2630.93 15689.3 2630.93 L15737.1 2630.93 L15737.1 2627.6 Q15737.1 2604.08 15721.5 2591.3 Q15706.1 2578.34 15678.2 2578.34 Q15660.4 2578.34 15643.5 2582.6 Q15626.7 2586.86 15611.1 2595.38 L15611.1 2563.9 Q15629.8 2556.67 15647.4 2553.15 Q15665 2549.45 15681.7 2549.45 Q15726.7 2549.45 15748.9 2572.78 Q15771.1 2596.12 15771.1 2643.52 Z"
     clip-path="url(#clip4100)" />
  <path
     id="path221"
     fill-opacity="1"
     fill-rule="evenodd"
     fill="#000000"
     d="M 0 0 M15867.4 2485.38 L15898.9 2485.38 L15802.6 2797.04 L15771.1 2797.04 L15867.4 2485.38 Z"
     clip-path="url(#clip4100)" />
  <path
     id="path223"
     fill-opacity="1"
     fill-rule="evenodd"
     fill="#000000"
     d="M 0 0 M16107.1 2636.67 L16107.1 2761.86 L16073 2761.86 L16073 2637.78 Q16073 2608.34 16061.5 2593.71 Q16050 2579.08 16027.1 2579.08 Q15999.5 2579.08 15983.5 2596.67 Q15967.6 2614.27 15967.6 2644.64 L15967.6 2761.86 L15933.4 2761.86 L15933.4 2554.45 L15967.6 2554.45 L15967.6 2586.67 Q15979.8 2567.97 15996.3 2558.71 Q16013 2549.45 16034.6 2549.45 Q16070.4 2549.45 16088.7 2571.67 Q16107.1 2593.71 16107.1 2636.67 Z"
     clip-path="url(#clip4100)" />
  <path
     id="path225"
     fill-opacity="1"
     fill-rule="evenodd"
     fill="#000000"
     d="M 0 0 M16139.3 2680.01 L16139.3 2554.45 L16173.4 2554.45 L16173.4 2678.71 Q16173.4 2708.15 16184.8 2722.97 Q16196.3 2737.6 16219.3 2737.6 Q16246.9 2737.6 16262.8 2720.01 Q16278.9 2702.41 16278.9 2672.04 L16278.9 2554.45 L16313 2554.45 L16313 2761.86 L16278.9 2761.86 L16278.9 2730.01 Q16266.5 2748.89 16250 2758.15 Q16233.7 2767.23 16212.1 2767.23 Q16176.3 2767.23 16157.8 2745.01 Q16139.3 2722.78 16139.3 2680.01 M16225 2549.45 L16225 2549.45 Z"
     clip-path="url(#clip4100)" />
  <path
     id="path227"
     fill-opacity="1"
     fill-rule="evenodd"
     fill="#000000"
     d="M 0 0 M16343.4 2474.08 L16373 2474.08 Q16400.8 2517.78 16414.5 2559.64 Q16428.4 2601.49 16428.4 2642.78 Q16428.4 2684.26 16414.5 2726.3 Q16400.8 2768.34 16373 2811.86 L16343.4 2811.86 Q16368 2769.45 16380 2727.6 Q16392.2 2685.56 16392.2 2642.78 Q16392.2 2600.01 16380 2558.34 Q16368 2516.67 16343.4 2474.08 Z"
     clip-path="url(#clip4100)" />
  <path
     id="path229"
     fill-opacity="1"
     fill-rule="evenodd"
     fill="#000000"
     d="M 0 0 M16465.6 2485.38 L16521.3 2485.38 L16591.9 2673.52 L16662.8 2485.38 L16718.5 2485.38 L16718.5 2761.86 L16682.1 2761.86 L16682.1 2519.08 L16610.8 2708.71 L16573.2 2708.71 L16501.9 2519.08 L16501.9 2761.86 L16465.6 2761.86 L16465.6 2485.38 Z"
     clip-path="url(#clip4100)" />
  <path
     id="path231"
     fill-opacity="1"
     fill-rule="evenodd"
     fill="#000000"
     d="M 0 0 M16836.1 2474.08 Q16811.3 2516.67 16799.3 2558.34 Q16787.2 2600.01 16787.2 2642.78 Q16787.2 2685.56 16799.3 2727.6 Q16811.5 2769.45 16836.1 2811.86 L16806.5 2811.86 Q16778.7 2768.34 16764.8 2726.3 Q16751.1 2684.26 16751.1 2642.78 Q16751.1 2601.49 16764.8 2559.64 Q16778.5 2517.78 16806.5 2474.08 L16836.1 2474.08 Z"
     clip-path="url(#clip4100)" />
  <path
     id="path233"
     fill-opacity="1"
     fill-rule="evenodd"
     fill="#000000"
     d="M 0 0 M16873.3 2485.38 L16910.8 2485.38 L16910.8 2730.38 L17045.4 2730.38 L17045.4 2761.86 L16873.3 2761.86 L16873.3 2485.38 Z"
     clip-path="url(#clip4100)" />
  <path
     id="path235"
     fill-opacity="1"
     fill-rule="evenodd"
     fill="#000000"
     d="M 0 0 M17085.6 2589.64 L17323 2589.64 L17323 2620.75 L17085.6 2620.75 L17085.6 2589.64 M17085.6 2665.19 L17323 2665.19 L17323 2696.67 L17085.6 2696.67 L17085.6 2665.19 Z"
     clip-path="url(#clip4100)" />
  <path
     id="path237"
     fill-opacity="1"
     fill-rule="evenodd"
     fill="#000000"
     d="M 0 0 M17370 2730.38 L17431.1 2730.38 L17431.1 2519.45 L17364.6 2532.78 L17364.6 2498.71 L17430.8 2485.38 L17468.2 2485.38 L17468.2 2730.38 L17529.3 2730.38 L17529.3 2761.86 L17370 2761.86 L17370 2730.38 Z"
     clip-path="url(#clip4100)" />
  <path
     id="path239"
     fill-opacity="1"
     fill-rule="evenodd"
     fill="#000000"
     d="M 0 0 M17602 2730.38 L17732.6 2730.38 L17732.6 2761.86 L17557 2761.86 L17557 2730.38 Q17578.3 2708.34 17615 2671.3 Q17651.9 2634.08 17661.3 2623.34 Q17679.3 2603.15 17686.3 2589.27 Q17693.5 2575.19 17693.5 2561.67 Q17693.5 2539.64 17678 2525.75 Q17662.6 2511.86 17637.8 2511.86 Q17620.2 2511.86 17600.6 2517.97 Q17581.1 2524.08 17558.9 2536.49 L17558.9 2498.71 Q17581.5 2489.64 17601.1 2485.01 Q17620.8 2480.38 17637 2480.38 Q17680 2480.38 17705.6 2501.86 Q17731.1 2523.34 17731.1 2559.27 Q17731.1 2576.3 17724.6 2591.67 Q17718.3 2606.86 17701.5 2627.6 Q17696.9 2632.97 17672 2658.71 Q17647.2 2684.26 17602 2730.38 Z"
     clip-path="url(#clip4100)" />
  <path
     id="path241"
     fill-opacity="1"
     fill-rule="evenodd"
     fill="#000000"
     d="M 0 0 M17763 2474.08 L17792.6 2474.08 Q17820.4 2517.78 17834.1 2559.64 Q17848 2601.49 17848 2642.78 Q17848 2684.26 17834.1 2726.3 Q17820.4 2768.34 17792.6 2811.86 L17763 2811.86 Q17787.6 2769.45 17799.6 2727.6 Q17811.9 2685.56 17811.9 2642.78 Q17811.9 2600.01 17799.6 2558.34 Q17787.6 2516.67 17763 2474.08 Z"
     clip-path="url(#clip4100)" />
  <polyline
     id="polyline243"
     points="   13089.2,3107.46 14241.2,3107.46    "
     style="stroke:#3da44d; stroke-width:32; stroke-opacity:1; fill:none"
     clip-path="url(#clip4100)" />
  <path
     id="path245"
     fill-opacity="1"
     fill-rule="evenodd"
     fill="#000000"
     d="M 0 0 M14433.2 2969.22 L14470.6 2969.22 L14470.6 3214.22 L14605.2 3214.22 L14605.2 3245.7 L14433.2 3245.7 L14433.2 2969.22 Z"
     clip-path="url(#clip4100)" />
  <path
     id="path247"
     fill-opacity="1"
     fill-rule="evenodd"
     fill="#000000"
     d="M 0 0 M14782.2 2969.22 L14882.8 3072.36 L14845.6 3072.36 L14764.1 2999.22 L14682.6 3072.36 L14645.4 3072.36 L14746 2969.22 L14782.2 2969.22 Z"
     clip-path="url(#clip4100)" />
  <path
     id="path249"
     fill-opacity="1"
     fill-rule="evenodd"
     fill="#000000"
     d="M 0 0 M15000.4 2957.92 Q14975.6 3000.51 14963.5 3042.18 Q14951.5 3083.85 14951.5 3126.62 Q14951.5 3169.4 14963.5 3211.44 Q14975.8 3253.29 15000.4 3295.7 L14970.8 3295.7 Q14943 3252.18 14929.1 3210.14 Q14915.4 3168.1 14915.4 3126.62 Q14915.4 3085.33 14929.1 3043.48 Q14942.8 3001.62 14970.8 2957.92 L15000.4 2957.92 Z"
     clip-path="url(#clip4100)" />
  <path
     id="path251"
     fill-opacity="1"
     fill-rule="evenodd"
     fill="#000000"
     d="M 0 0 M15185 3142.18 Q15185 3104.59 15169.5 3083.29 Q15154.1 3061.81 15127.1 3061.81 Q15100 3061.81 15084.5 3083.29 Q15069.1 3104.59 15069.1 3142.18 Q15069.1 3179.77 15084.5 3201.25 Q15100 3222.55 15127.1 3222.55 Q15154.1 3222.55 15169.5 3201.25 Q15185 3179.77 15185 3142.18 M15069.1 3069.77 Q15079.8 3051.25 15096.1 3042.36 Q15112.6 3033.29 15135.4 3033.29 Q15173.2 3033.29 15196.7 3063.29 Q15220.4 3093.29 15220.4 3142.18 Q15220.4 3191.07 15196.7 3221.07 Q15173.2 3251.07 15135.4 3251.07 Q15112.6 3251.07 15096.1 3242.18 Q15079.8 3233.1 15069.1 3214.59 L15069.1 3245.7 L15034.8 3245.7 L15034.8 2957.55 L15069.1 2957.55 L15069.1 3069.77 Z"
     clip-path="url(#clip4100)" />
  <path
     id="path253"
     fill-opacity="1"
     fill-rule="evenodd"
     fill="#000000"
     d="M 0 0 M15433.5 3133.48 L15433.5 3150.14 L15276.9 3150.14 Q15279.1 3185.33 15298 3203.85 Q15317.1 3222.18 15350.9 3222.18 Q15370.6 3222.18 15388.9 3217.36 Q15407.4 3212.55 15425.6 3202.92 L15425.6 3235.14 Q15407.2 3242.92 15388 3246.99 Q15368.7 3251.07 15348.9 3251.07 Q15299.3 3251.07 15270.2 3222.18 Q15241.3 3193.29 15241.3 3144.03 Q15241.3 3093.11 15268.7 3063.29 Q15296.3 3033.29 15343 3033.29 Q15384.8 3033.29 15409.1 3060.33 Q15433.5 3087.18 15433.5 3133.48 M15399.5 3123.48 Q15399.1 3095.51 15383.7 3078.85 Q15368.5 3062.18 15343.4 3062.18 Q15314.8 3062.18 15297.6 3078.29 Q15280.6 3094.4 15278 3123.66 L15399.5 3123.48 Z"
     clip-path="url(#clip4100)" />
  <path
     id="path255"
     fill-opacity="1"
     fill-rule="evenodd"
     fill="#000000"
     d="M 0 0 M15503 2979.4 L15503 3038.29 L15573.2 3038.29 L15573.2 3064.77 L15503 3064.77 L15503 3177.36 Q15503 3202.73 15509.8 3209.96 Q15516.9 3217.18 15538.2 3217.18 L15573.2 3217.18 L15573.2 3245.7 L15538.2 3245.7 Q15498.7 3245.7 15483.7 3231.07 Q15468.7 3216.25 15468.7 3177.36 L15468.7 3064.77 L15443.7 3064.77 L15443.7 3038.29 L15468.7 3038.29 L15468.7 2979.4 L15503 2979.4 Z"
     clip-path="url(#clip4100)" />
  <path
     id="path257"
     fill-opacity="1"
     fill-rule="evenodd"
     fill="#000000"
     d="M 0 0 M15703.2 3141.44 Q15661.9 3141.44 15645.9 3150.88 Q15630 3160.33 15630 3183.1 Q15630 3201.25 15641.9 3211.99 Q15653.9 3222.55 15674.5 3222.55 Q15702.8 3222.55 15719.8 3202.55 Q15737.1 3182.36 15737.1 3149.03 L15737.1 3141.44 L15703.2 3141.44 M15771.1 3127.36 L15771.1 3245.7 L15737.1 3245.7 L15737.1 3214.22 Q15725.4 3233.1 15708 3242.18 Q15690.6 3251.07 15665.4 3251.07 Q15633.5 3251.07 15614.7 3233.29 Q15595.9 3215.33 15595.9 3185.33 Q15595.9 3150.33 15619.3 3132.55 Q15642.8 3114.77 15689.3 3114.77 L15737.1 3114.77 L15737.1 3111.44 Q15737.1 3087.92 15721.5 3075.14 Q15706.1 3062.18 15678.2 3062.18 Q15660.4 3062.18 15643.5 3066.44 Q15626.7 3070.7 15611.1 3079.22 L15611.1 3047.74 Q15629.8 3040.51 15647.4 3036.99 Q15665 3033.29 15681.7 3033.29 Q15726.7 3033.29 15748.9 3056.62 Q15771.1 3079.96 15771.1 3127.36 Z"
     clip-path="url(#clip4100)" />
  <path
     id="path259"
     fill-opacity="1"
     fill-rule="evenodd"
     fill="#000000"
     d="M 0 0 M15867.4 2969.22 L15898.9 2969.22 L15802.6 3280.88 L15771.1 3280.88 L15867.4 2969.22 Z"
     clip-path="url(#clip4100)" />
  <path
     id="path261"
     fill-opacity="1"
     fill-rule="evenodd"
     fill="#000000"
     d="M 0 0 M16107.1 3120.51 L16107.1 3245.7 L16073 3245.7 L16073 3121.62 Q16073 3092.18 16061.5 3077.55 Q16050 3062.92 16027.1 3062.92 Q15999.5 3062.92 15983.5 3080.51 Q15967.6 3098.11 15967.6 3128.48 L15967.6 3245.7 L15933.4 3245.7 L15933.4 3038.29 L15967.6 3038.29 L15967.6 3070.51 Q15979.8 3051.81 15996.3 3042.55 Q16013 3033.29 16034.6 3033.29 Q16070.4 3033.29 16088.7 3055.51 Q16107.1 3077.55 16107.1 3120.51 Z"
     clip-path="url(#clip4100)" />
  <path
     id="path263"
     fill-opacity="1"
     fill-rule="evenodd"
     fill="#000000"
     d="M 0 0 M16139.3 3163.85 L16139.3 3038.29 L16173.4 3038.29 L16173.4 3162.55 Q16173.4 3191.99 16184.8 3206.81 Q16196.3 3221.44 16219.3 3221.44 Q16246.9 3221.44 16262.8 3203.85 Q16278.9 3186.25 16278.9 3155.88 L16278.9 3038.29 L16313 3038.29 L16313 3245.7 L16278.9 3245.7 L16278.9 3213.85 Q16266.5 3232.73 16250 3241.99 Q16233.7 3251.07 16212.1 3251.07 Q16176.3 3251.07 16157.8 3228.85 Q16139.3 3206.62 16139.3 3163.85 M16225 3033.29 L16225 3033.29 Z"
     clip-path="url(#clip4100)" />
  <path
     id="path265"
     fill-opacity="1"
     fill-rule="evenodd"
     fill="#000000"
     d="M 0 0 M16343.4 2957.92 L16373 2957.92 Q16400.8 3001.62 16414.5 3043.48 Q16428.4 3085.33 16428.4 3126.62 Q16428.4 3168.1 16414.5 3210.14 Q16400.8 3252.18 16373 3295.7 L16343.4 3295.7 Q16368 3253.29 16380 3211.44 Q16392.2 3169.4 16392.2 3126.62 Q16392.2 3083.85 16380 3042.18 Q16368 3000.51 16343.4 2957.92 Z"
     clip-path="url(#clip4100)" />
  <path
     id="path267"
     fill-opacity="1"
     fill-rule="evenodd"
     fill="#000000"
     d="M 0 0 M16465.6 2969.22 L16521.3 2969.22 L16591.9 3157.36 L16662.8 2969.22 L16718.5 2969.22 L16718.5 3245.7 L16682.1 3245.7 L16682.1 3002.92 L16610.8 3192.55 L16573.2 3192.55 L16501.9 3002.92 L16501.9 3245.7 L16465.6 3245.7 L16465.6 2969.22 Z"
     clip-path="url(#clip4100)" />
  <path
     id="path269"
     fill-opacity="1"
     fill-rule="evenodd"
     fill="#000000"
     d="M 0 0 M16836.1 2957.92 Q16811.3 3000.51 16799.3 3042.18 Q16787.2 3083.85 16787.2 3126.62 Q16787.2 3169.4 16799.3 3211.44 Q16811.5 3253.29 16836.1 3295.7 L16806.5 3295.7 Q16778.7 3252.18 16764.8 3210.14 Q16751.1 3168.1 16751.1 3126.62 Q16751.1 3085.33 16764.8 3043.48 Q16778.5 3001.62 16806.5 2957.92 L16836.1 2957.92 Z"
     clip-path="url(#clip4100)" />
  <path
     id="path271"
     fill-opacity="1"
     fill-rule="evenodd"
     fill="#000000"
     d="M 0 0 M16873.3 2969.22 L16910.8 2969.22 L16910.8 3214.22 L17045.4 3214.22 L17045.4 3245.7 L16873.3 3245.7 L16873.3 2969.22 Z"
     clip-path="url(#clip4100)" />
  <path
     id="path273"
     fill-opacity="1"
     fill-rule="evenodd"
     fill="#000000"
     d="M 0 0 M17085.6 3073.48 L17323 3073.48 L17323 3104.59 L17085.6 3104.59 L17085.6 3073.48 M17085.6 3149.03 L17323 3149.03 L17323 3180.51 L17085.6 3180.51 L17085.6 3149.03 Z"
     clip-path="url(#clip4100)" />
  <path
     id="path275"
     fill-opacity="1"
     fill-rule="evenodd"
     fill="#000000"
     d="M 0 0 M17370 3214.22 L17431.1 3214.22 L17431.1 3003.29 L17364.6 3016.62 L17364.6 2982.55 L17430.8 2969.22 L17468.2 2969.22 L17468.2 3214.22 L17529.3 3214.22 L17529.3 3245.7 L17370 3245.7 L17370 3214.22 Z"
     clip-path="url(#clip4100)" />
  <path
     id="path277"
     fill-opacity="1"
     fill-rule="evenodd"
     fill="#000000"
     d="M 0 0 M17654.5 3092.55 Q17629.3 3092.55 17614.5 3109.77 Q17599.8 3126.99 17599.8 3156.99 Q17599.8 3186.81 17614.5 3204.22 Q17629.3 3221.44 17654.5 3221.44 Q17679.6 3221.44 17694.3 3204.22 Q17709.1 3186.81 17709.1 3156.99 Q17709.1 3126.99 17694.3 3109.77 Q17679.6 3092.55 17654.5 3092.55 M17728.7 2975.33 L17728.7 3009.4 Q17714.6 3002.74 17700.2 2999.22 Q17685.9 2995.7 17671.9 2995.7 Q17634.8 2995.7 17615.2 3020.7 Q17595.8 3045.7 17593 3096.25 Q17603.9 3080.14 17620.4 3071.62 Q17636.9 3062.92 17656.7 3062.92 Q17698.3 3062.92 17722.4 3088.29 Q17746.7 3113.48 17746.7 3156.99 Q17746.7 3199.59 17721.5 3225.33 Q17696.3 3251.07 17654.5 3251.07 Q17606.5 3251.07 17581.1 3214.4 Q17555.8 3177.55 17555.8 3107.73 Q17555.8 3042.18 17586.9 3003.29 Q17618 2964.22 17670.4 2964.22 Q17684.5 2964.22 17698.7 2966.99 Q17713.2 2969.77 17728.7 2975.33 Z"
     clip-path="url(#clip4100)" />
  <path
     id="path279"
     fill-opacity="1"
     fill-rule="evenodd"
     fill="#000000"
     d="M 0 0 M17777 2957.92 L17806.7 2957.92 Q17834.5 3001.62 17848.2 3043.48 Q17862 3085.33 17862 3126.62 Q17862 3168.1 17848.2 3210.14 Q17834.5 3252.18 17806.7 3295.7 L17777 3295.7 Q17801.7 3253.29 17813.7 3211.44 Q17825.9 3169.4 17825.9 3126.62 Q17825.9 3083.85 17813.7 3042.18 Q17801.7 3000.51 17777 2957.92 Z"
     clip-path="url(#clip4100)" />
  <polyline
     id="polyline281"
     points="   13089.2,3591.3 14241.2,3591.3    "
     style="stroke:#c271d2; stroke-width:32; stroke-opacity:1; fill:none"
     clip-path="url(#clip4100)" />
  <path
     id="path283"
     fill-opacity="1"
     fill-rule="evenodd"
     fill="#000000"
     d="M 0 0 M14433.2 3453.06 L14470.6 3453.06 L14470.6 3698.06 L14605.2 3698.06 L14605.2 3729.54 L14433.2 3729.54 L14433.2 3453.06 Z"
     clip-path="url(#clip4100)" />
  <path
     id="path285"
     fill-opacity="1"
     fill-rule="evenodd"
     fill="#000000"
     d="M 0 0 M14782.2 3453.06 L14882.8 3556.2 L14845.6 3556.2 L14764.1 3483.06 L14682.6 3556.2 L14645.4 3556.2 L14746 3453.06 L14782.2 3453.06 Z"
     clip-path="url(#clip4100)" />
  <path
     id="path287"
     fill-opacity="1"
     fill-rule="evenodd"
     fill="#000000"
     d="M 0 0 M15000.4 3441.76 Q14975.6 3484.35 14963.5 3526.02 Q14951.5 3567.69 14951.5 3610.46 Q14951.5 3653.24 14963.5 3695.28 Q14975.8 3737.13 15000.4 3779.54 L14970.8 3779.54 Q14943 3736.02 14929.1 3693.98 Q14915.4 3651.94 14915.4 3610.46 Q14915.4 3569.17 14929.1 3527.32 Q14942.8 3485.46 14970.8 3441.76 L15000.4 3441.76 Z"
     clip-path="url(#clip4100)" />
  <path
     id="path289"
     fill-opacity="1"
     fill-rule="evenodd"
     fill="#000000"
     d="M 0 0 M15185 3626.02 Q15185 3588.43 15169.5 3567.13 Q15154.1 3545.65 15127.1 3545.65 Q15100 3545.65 15084.5 3567.13 Q15069.1 3588.43 15069.1 3626.02 Q15069.1 3663.61 15084.5 3685.09 Q15100 3706.39 15127.1 3706.39 Q15154.1 3706.39 15169.5 3685.09 Q15185 3663.61 15185 3626.02 M15069.1 3553.61 Q15079.8 3535.09 15096.1 3526.2 Q15112.6 3517.13 15135.4 3517.13 Q15173.2 3517.13 15196.7 3547.13 Q15220.4 3577.13 15220.4 3626.02 Q15220.4 3674.91 15196.7 3704.91 Q15173.2 3734.91 15135.4 3734.91 Q15112.6 3734.91 15096.1 3726.02 Q15079.8 3716.94 15069.1 3698.43 L15069.1 3729.54 L15034.8 3729.54 L15034.8 3441.39 L15069.1 3441.39 L15069.1 3553.61 Z"
     clip-path="url(#clip4100)" />
  <path
     id="path291"
     fill-opacity="1"
     fill-rule="evenodd"
     fill="#000000"
     d="M 0 0 M15433.5 3617.32 L15433.5 3633.98 L15276.9 3633.98 Q15279.1 3669.17 15298 3687.69 Q15317.1 3706.02 15350.9 3706.02 Q15370.6 3706.02 15388.9 3701.2 Q15407.4 3696.39 15425.6 3686.76 L15425.6 3718.98 Q15407.2 3726.76 15388 3730.83 Q15368.7 3734.91 15348.9 3734.91 Q15299.3 3734.91 15270.2 3706.02 Q15241.3 3677.13 15241.3 3627.87 Q15241.3 3576.95 15268.7 3547.13 Q15296.3 3517.13 15343 3517.13 Q15384.8 3517.13 15409.1 3544.17 Q15433.5 3571.02 15433.5 3617.32 M15399.5 3607.32 Q15399.1 3579.35 15383.7 3562.69 Q15368.5 3546.02 15343.4 3546.02 Q15314.8 3546.02 15297.6 3562.13 Q15280.6 3578.24 15278 3607.5 L15399.5 3607.32 Z"
     clip-path="url(#clip4100)" />
  <path
     id="path293"
     fill-opacity="1"
     fill-rule="evenodd"
     fill="#000000"
     d="M 0 0 M15503 3463.24 L15503 3522.13 L15573.2 3522.13 L15573.2 3548.61 L15503 3548.61 L15503 3661.2 Q15503 3686.57 15509.8 3693.8 Q15516.9 3701.02 15538.2 3701.02 L15573.2 3701.02 L15573.2 3729.54 L15538.2 3729.54 Q15498.7 3729.54 15483.7 3714.91 Q15468.7 3700.09 15468.7 3661.2 L15468.7 3548.61 L15443.7 3548.61 L15443.7 3522.13 L15468.7 3522.13 L15468.7 3463.24 L15503 3463.24 Z"
     clip-path="url(#clip4100)" />
  <path
     id="path295"
     fill-opacity="1"
     fill-rule="evenodd"
     fill="#000000"
     d="M 0 0 M15703.2 3625.28 Q15661.9 3625.28 15645.9 3634.72 Q15630 3644.17 15630 3666.94 Q15630 3685.09 15641.9 3695.83 Q15653.9 3706.39 15674.5 3706.39 Q15702.8 3706.39 15719.8 3686.39 Q15737.1 3666.2 15737.1 3632.87 L15737.1 3625.28 L15703.2 3625.28 M15771.1 3611.2 L15771.1 3729.54 L15737.1 3729.54 L15737.1 3698.06 Q15725.4 3716.94 15708 3726.02 Q15690.6 3734.91 15665.4 3734.91 Q15633.5 3734.91 15614.7 3717.13 Q15595.9 3699.17 15595.9 3669.17 Q15595.9 3634.17 15619.3 3616.39 Q15642.8 3598.61 15689.3 3598.61 L15737.1 3598.61 L15737.1 3595.28 Q15737.1 3571.76 15721.5 3558.98 Q15706.1 3546.02 15678.2 3546.02 Q15660.4 3546.02 15643.5 3550.28 Q15626.7 3554.54 15611.1 3563.06 L15611.1 3531.58 Q15629.8 3524.35 15647.4 3520.83 Q15665 3517.13 15681.7 3517.13 Q15726.7 3517.13 15748.9 3540.46 Q15771.1 3563.8 15771.1 3611.2 Z"
     clip-path="url(#clip4100)" />
  <path
     id="path297"
     fill-opacity="1"
     fill-rule="evenodd"
     fill="#000000"
     d="M 0 0 M15867.4 3453.06 L15898.9 3453.06 L15802.6 3764.72 L15771.1 3764.72 L15867.4 3453.06 Z"
     clip-path="url(#clip4100)" />
  <path
     id="path299"
     fill-opacity="1"
     fill-rule="evenodd"
     fill="#000000"
     d="M 0 0 M16107.1 3604.35 L16107.1 3729.54 L16073 3729.54 L16073 3605.46 Q16073 3576.02 16061.5 3561.39 Q16050 3546.76 16027.1 3546.76 Q15999.5 3546.76 15983.5 3564.35 Q15967.6 3581.95 15967.6 3612.32 L15967.6 3729.54 L15933.4 3729.54 L15933.4 3522.13 L15967.6 3522.13 L15967.6 3554.35 Q15979.8 3535.65 15996.3 3526.39 Q16013 3517.13 16034.6 3517.13 Q16070.4 3517.13 16088.7 3539.35 Q16107.1 3561.39 16107.1 3604.35 Z"
     clip-path="url(#clip4100)" />
  <path
     id="path301"
     fill-opacity="1"
     fill-rule="evenodd"
     fill="#000000"
     d="M 0 0 M16139.3 3647.69 L16139.3 3522.13 L16173.4 3522.13 L16173.4 3646.39 Q16173.4 3675.83 16184.8 3690.65 Q16196.3 3705.28 16219.3 3705.28 Q16246.9 3705.28 16262.8 3687.69 Q16278.9 3670.09 16278.9 3639.72 L16278.9 3522.13 L16313 3522.13 L16313 3729.54 L16278.9 3729.54 L16278.9 3697.69 Q16266.5 3716.57 16250 3725.83 Q16233.7 3734.91 16212.1 3734.91 Q16176.3 3734.91 16157.8 3712.69 Q16139.3 3690.46 16139.3 3647.69 M16225 3517.13 L16225 3517.13 Z"
     clip-path="url(#clip4100)" />
  <path
     id="path303"
     fill-opacity="1"
     fill-rule="evenodd"
     fill="#000000"
     d="M 0 0 M16343.4 3441.76 L16373 3441.76 Q16400.8 3485.46 16414.5 3527.32 Q16428.4 3569.17 16428.4 3610.46 Q16428.4 3651.94 16414.5 3693.98 Q16400.8 3736.02 16373 3779.54 L16343.4 3779.54 Q16368 3737.13 16380 3695.28 Q16392.2 3653.24 16392.2 3610.46 Q16392.2 3567.69 16380 3526.02 Q16368 3484.35 16343.4 3441.76 Z"
     clip-path="url(#clip4100)" />
  <path
     id="path305"
     fill-opacity="1"
     fill-rule="evenodd"
     fill="#000000"
     d="M 0 0 M16465.6 3453.06 L16521.3 3453.06 L16591.9 3641.2 L16662.8 3453.06 L16718.5 3453.06 L16718.5 3729.54 L16682.1 3729.54 L16682.1 3486.76 L16610.8 3676.39 L16573.2 3676.39 L16501.9 3486.76 L16501.9 3729.54 L16465.6 3729.54 L16465.6 3453.06 Z"
     clip-path="url(#clip4100)" />
  <path
     id="path307"
     fill-opacity="1"
     fill-rule="evenodd"
     fill="#000000"
     d="M 0 0 M16836.1 3441.76 Q16811.3 3484.35 16799.3 3526.02 Q16787.2 3567.69 16787.2 3610.46 Q16787.2 3653.24 16799.3 3695.28 Q16811.5 3737.13 16836.1 3779.54 L16806.5 3779.54 Q16778.7 3736.02 16764.8 3693.98 Q16751.1 3651.94 16751.1 3610.46 Q16751.1 3569.17 16764.8 3527.32 Q16778.5 3485.46 16806.5 3441.76 L16836.1 3441.76 Z"
     clip-path="url(#clip4100)" />
  <path
     id="path309"
     fill-opacity="1"
     fill-rule="evenodd"
     fill="#000000"
     d="M 0 0 M16873.3 3453.06 L16910.8 3453.06 L16910.8 3698.06 L17045.4 3698.06 L17045.4 3729.54 L16873.3 3729.54 L16873.3 3453.06 Z"
     clip-path="url(#clip4100)" />
  <path
     id="path311"
     fill-opacity="1"
     fill-rule="evenodd"
     fill="#000000"
     d="M 0 0 M17085.6 3557.32 L17323 3557.32 L17323 3588.43 L17085.6 3588.43 L17085.6 3557.32 M17085.6 3632.87 L17323 3632.87 L17323 3664.35 L17085.6 3664.35 L17085.6 3632.87 Z"
     clip-path="url(#clip4100)" />
  <path
     id="path313"
     fill-opacity="1"
     fill-rule="evenodd"
     fill="#000000"
     d="M 0 0 M17395.8 3698.06 L17526.3 3698.06 L17526.3 3729.54 L17350.8 3729.54 L17350.8 3698.06 Q17372 3676.02 17408.7 3638.98 Q17445.6 3601.76 17455 3591.02 Q17473 3570.83 17480 3556.95 Q17487.2 3542.87 17487.2 3529.35 Q17487.2 3507.32 17471.7 3493.43 Q17456.3 3479.54 17431.5 3479.54 Q17413.9 3479.54 17394.3 3485.65 Q17374.8 3491.76 17352.6 3504.17 L17352.6 3466.39 Q17375.2 3457.32 17394.8 3452.69 Q17414.5 3448.06 17430.8 3448.06 Q17473.7 3448.06 17499.3 3469.54 Q17524.8 3491.02 17524.8 3526.95 Q17524.8 3543.98 17518.3 3559.35 Q17512 3574.54 17495.2 3595.28 Q17490.6 3600.65 17465.8 3626.39 Q17440.9 3651.94 17395.8 3698.06 Z"
     clip-path="url(#clip4100)" />
  <path
     id="path315"
     fill-opacity="1"
     fill-rule="evenodd"
     fill="#000000"
     d="M 0 0 M17669.6 3485.65 L17575.2 3633.24 L17669.6 3633.24 L17669.6 3485.65 M17659.8 3453.06 L17706.9 3453.06 L17706.9 3633.24 L17746.3 3633.24 L17746.3 3664.35 L17706.9 3664.35 L17706.9 3729.54 L17669.6 3729.54 L17669.6 3664.35 L17544.8 3664.35 L17544.8 3628.24 L17659.8 3453.06 Z"
     clip-path="url(#clip4100)" />
  <path
     id="path317"
     fill-opacity="1"
     fill-rule="evenodd"
     fill="#000000"
     d="M 0 0 M17776.7 3441.76 L17806.3 3441.76 Q17834.1 3485.46 17847.8 3527.32 Q17861.7 3569.17 17861.7 3610.46 Q17861.7 3651.94 17847.8 3693.98 Q17834.1 3736.02 17806.3 3779.54 L17776.7 3779.54 Q17801.3 3737.13 17813.3 3695.28 Q17825.6 3653.24 17825.6 3610.46 Q17825.6 3567.69 17813.3 3526.02 Q17801.3 3484.35 17776.7 3441.76 Z"
     clip-path="url(#clip4100)" />
  <polyline
     transform="matrix(1,0,0,0.53941922,1065.32,5253.5641)"
     clip-path="url(#clip4102-1)"
     style="fill:#ff7616;stroke:#fd7710;stroke-width:21.99191548;stroke-opacity:0.57258064;stroke-miterlimit:4;stroke-dasharray:131.95149289,43.98383096;stroke-dashoffset:0;fill-opacity:0.04435484"
     points="   8436.41,11385.4 8436.41,987.777    "
     id="polyline25-9" />
  <circle
     r="195.91837"
     cy="5760"
     cx="9521.6328"
     id="path1175"
     style="fill:#ff7616;fill-opacity:0.0443548;stroke:#fd7710;stroke-width:16.152;stroke-miterlimit:4;stroke-dasharray:96.912, 32.304;stroke-dashoffset:0;stroke-opacity:0.572581" />
  <text
     id="text1179"
     y="11823.347"
     x="9141.7148"
     style="font-style:normal;font-weight:normal;font-size:384px;line-height:1.25;font-family:sans-serif;fill:#000000;fill-opacity:1;stroke:none;stroke-width:4"
     xml:space="preserve"><tspan
       style="font-size:384px;stroke-width:4"
       y="11823.347"
       x="9141.7148"
       id="tspan1177"
       sodipodi:role="line">2.32</tspan></text>
</svg>
