<?xml version="1.0" encoding="UTF-8" standalone="no"?>
<svg
   xmlns:dc="http://purl.org/dc/elements/1.1/"
   xmlns:cc="http://creativecommons.org/ns#"
   xmlns:rdf="http://www.w3.org/1999/02/22-rdf-syntax-ns#"
   xmlns:svg="http://www.w3.org/2000/svg"
   xmlns="http://www.w3.org/2000/svg"
   xmlns:sodipodi="http://sodipodi.sourceforge.net/DTD/sodipodi-0.dtd"
   xmlns:inkscape="http://www.inkscape.org/namespaces/inkscape"
   inkscape:version="1.0 (4035a4fb49, 2020-05-01)"
   sodipodi:docname="χ_12.svg"
   id="svg125"
   version="1.1"
   viewBox="0 0 19200 12800"
   height="3200"
   width="4800">
  <metadata
     id="metadata129">
    <rdf:RDF>
      <cc:Work
         rdf:about="">
        <dc:format>image/svg+xml</dc:format>
        <dc:type
           rdf:resource="http://purl.org/dc/dcmitype/StillImage" />
      </cc:Work>
    </rdf:RDF>
  </metadata>
  <sodipodi:namedview
     inkscape:current-layer="svg125"
     inkscape:window-maximized="1"
     inkscape:window-y="-6"
     inkscape:window-x="-6"
     inkscape:cy="1600"
     inkscape:cx="2400"
     inkscape:zoom="0.153125"
     showgrid="false"
     id="namedview127"
     inkscape:window-height="658"
     inkscape:window-width="1280"
     inkscape:pageshadow="2"
     inkscape:pageopacity="0"
     guidetolerance="10"
     gridtolerance="10"
     objecttolerance="10"
     borderopacity="1"
     bordercolor="#666666"
     pagecolor="#ffffff" />
  <defs
     id="defs5">
    <clipPath
       id="clip7000">
      <rect
         id="rect2"
         height="12800"
         width="19200"
         y="0"
         x="0" />
    </clipPath>
  </defs>
  <path
     id="path7"
     fill-opacity="1"
     fill-rule="evenodd"
     fill="#ffffff"
     d=" M0 12800 L19200 12800 L19200 0 L0 0  Z   "
     clip-path="url(#clip7000)" />
  <defs
     id="defs12">
    <clipPath
       id="clip7001">
      <rect
         id="rect9"
         height="12800"
         width="13441"
         y="0"
         x="3840" />
    </clipPath>
  </defs>
  <path
     id="path14"
     fill-opacity="1"
     fill-rule="evenodd"
     fill="#ffffff"
     d=" M1393.19 11385.4 L18822 11385.4 L18822 377.953 L1393.19 377.953  Z   "
     clip-path="url(#clip7000)" />
  <defs
     id="defs19">
    <clipPath
       id="clip7002">
      <rect
         id="rect16"
         height="11008"
         width="17430"
         y="377"
         x="1393" />
    </clipPath>
  </defs>
  <polyline
     id="polyline21"
     points="   1550.9,11385.4 1550.9,377.953    "
     style="stroke:#000000; stroke-width:16; stroke-opacity:0.1; fill:none"
     clip-path="url(#clip7002)" />
  <polyline
     id="polyline23"
     points="   4906.48,11385.4 4906.48,377.953    "
     style="stroke:#000000; stroke-width:16; stroke-opacity:0.1; fill:none"
     clip-path="url(#clip7002)" />
  <polyline
     id="polyline25"
     points="   8262.05,11385.4 8262.05,377.953    "
     style="stroke:#000000; stroke-width:16; stroke-opacity:0.1; fill:none"
     clip-path="url(#clip7002)" />
  <polyline
     id="polyline27"
     points="   11617.6,11385.4 11617.6,377.953    "
     style="stroke:#000000; stroke-width:16; stroke-opacity:0.1; fill:none"
     clip-path="url(#clip7002)" />
  <polyline
     id="polyline29"
     points="   14973.2,11385.4 14973.2,377.953    "
     style="stroke:#000000; stroke-width:16; stroke-opacity:0.1; fill:none"
     clip-path="url(#clip7002)" />
  <polyline
     id="polyline31"
     points="   18328.8,11385.4 18328.8,377.953    "
     style="stroke:#000000; stroke-width:16; stroke-opacity:0.1; fill:none"
     clip-path="url(#clip7002)" />
  <polyline
     id="polyline33"
     points="   1393.19,11073.9 18822,11073.9    "
     style="stroke:#000000; stroke-width:16; stroke-opacity:0.1; fill:none"
     clip-path="url(#clip7002)" />
  <polyline
     id="polyline35"
     points="   1393.19,8328.27 18822,8328.27    "
     style="stroke:#000000; stroke-width:16; stroke-opacity:0.1; fill:none"
     clip-path="url(#clip7002)" />
  <polyline
     id="polyline37"
     points="   1393.19,5582.64 18822,5582.64    "
     style="stroke:#000000; stroke-width:16; stroke-opacity:0.1; fill:none"
     clip-path="url(#clip7002)" />
  <polyline
     id="polyline39"
     points="   1393.19,2837.01 18822,2837.01    "
     style="stroke:#000000; stroke-width:16; stroke-opacity:0.1; fill:none"
     clip-path="url(#clip7002)" />
  <polyline
     id="polyline41"
     points="   1393.19,11385.4 18822,11385.4    "
     style="stroke:#000000; stroke-width:32; stroke-opacity:1; fill:none"
     clip-path="url(#clip7000)" />
  <polyline
     id="polyline43"
     points="   1393.19,11385.4 1393.19,377.953    "
     style="stroke:#000000; stroke-width:32; stroke-opacity:1; fill:none"
     clip-path="url(#clip7000)" />
  <polyline
     id="polyline45"
     points="   1550.9,11385.4 1550.9,11253.3    "
     style="stroke:#000000; stroke-width:32; stroke-opacity:1; fill:none"
     clip-path="url(#clip7000)" />
  <polyline
     id="polyline47"
     points="   4906.48,11385.4 4906.48,11253.3    "
     style="stroke:#000000; stroke-width:32; stroke-opacity:1; fill:none"
     clip-path="url(#clip7000)" />
  <polyline
     id="polyline49"
     points="   8262.05,11385.4 8262.05,11253.3    "
     style="stroke:#000000; stroke-width:32; stroke-opacity:1; fill:none"
     clip-path="url(#clip7000)" />
  <polyline
     id="polyline51"
     points="   11617.6,11385.4 11617.6,11253.3    "
     style="stroke:#000000; stroke-width:32; stroke-opacity:1; fill:none"
     clip-path="url(#clip7000)" />
  <polyline
     id="polyline53"
     points="   14973.2,11385.4 14973.2,11253.3    "
     style="stroke:#000000; stroke-width:32; stroke-opacity:1; fill:none"
     clip-path="url(#clip7000)" />
  <polyline
     id="polyline55"
     points="   18328.8,11385.4 18328.8,11253.3    "
     style="stroke:#000000; stroke-width:32; stroke-opacity:1; fill:none"
     clip-path="url(#clip7000)" />
  <polyline
     id="polyline57"
     points="   1393.19,11073.9 1602.34,11073.9    "
     style="stroke:#000000; stroke-width:32; stroke-opacity:1; fill:none"
     clip-path="url(#clip7000)" />
  <polyline
     id="polyline59"
     points="   1393.19,8328.27 1602.34,8328.27    "
     style="stroke:#000000; stroke-width:32; stroke-opacity:1; fill:none"
     clip-path="url(#clip7000)" />
  <polyline
     id="polyline61"
     points="   1393.19,5582.64 1602.34,5582.64    "
     style="stroke:#000000; stroke-width:32; stroke-opacity:1; fill:none"
     clip-path="url(#clip7000)" />
  <polyline
     id="polyline63"
     points="   1393.19,2837.01 1602.34,2837.01    "
     style="stroke:#000000; stroke-width:32; stroke-opacity:1; fill:none"
     clip-path="url(#clip7000)" />
  <path
     id="path65"
     fill-opacity="1"
     fill-rule="evenodd"
     fill="#000000"
     d="M 0 0 M1550.9 11561.4 Q1522.01 11561.4 1507.39 11589.9 Q1492.94 11618.2 1492.94 11675.3 Q1492.94 11732.1 1507.39 11760.6 Q1522.01 11789 1550.9 11789 Q1579.98 11789 1594.42 11760.6 Q1609.05 11732.1 1609.05 11675.3 Q1609.05 11618.2 1594.42 11589.9 Q1579.98 11561.4 1550.9 11561.4 M1550.9 11531.7 Q1597.38 11531.7 1621.83 11568.6 Q1646.46 11605.3 1646.46 11675.3 Q1646.46 11745.1 1621.83 11781.9 Q1597.38 11818.6 1550.9 11818.6 Q1504.42 11818.6 1479.79 11781.9 Q1455.35 11745.1 1455.35 11675.3 Q1455.35 11605.3 1479.79 11568.6 Q1504.42 11531.7 1550.9 11531.7 Z"
     clip-path="url(#clip7000)" />
  <path
     id="path67"
     fill-opacity="1"
     fill-rule="evenodd"
     fill="#000000"
     d="M 0 0 M4829.53 11781.7 L4890.64 11781.7 L4890.64 11570.8 L4824.16 11584.1 L4824.16 11550.1 L4890.27 11536.7 L4927.68 11536.7 L4927.68 11781.7 L4988.79 11781.7 L4988.79 11813.2 L4829.53 11813.2 L4829.53 11781.7 Z"
     clip-path="url(#clip7000)" />
  <path
     id="path69"
     fill-opacity="1"
     fill-rule="evenodd"
     fill="#000000"
     d="M 0 0 M8219.28 11781.7 L8349.83 11781.7 L8349.83 11813.2 L8174.28 11813.2 L8174.28 11781.7 Q8195.57 11759.7 8232.24 11722.7 Q8269.09 11685.4 8278.53 11674.7 Q8296.5 11654.5 8303.53 11640.6 Q8310.76 11626.5 8310.76 11613 Q8310.76 11591 8295.2 11577.1 Q8279.83 11563.2 8255.02 11563.2 Q8237.42 11563.2 8217.79 11569.3 Q8198.35 11575.4 8176.13 11587.8 L8176.13 11550.1 Q8198.72 11541 8218.35 11536.4 Q8237.98 11531.7 8254.28 11531.7 Q8297.24 11531.7 8322.79 11553.2 Q8348.35 11574.7 8348.35 11610.6 Q8348.35 11627.7 8341.87 11643 Q8335.57 11658.2 8318.72 11679 Q8314.09 11684.3 8289.28 11710.1 Q8264.46 11735.6 8219.28 11781.7 Z"
     clip-path="url(#clip7000)" />
  <path
     id="path71"
     fill-opacity="1"
     fill-rule="evenodd"
     fill="#000000"
     d="M 0 0 M11651.6 11664.1 Q11678.5 11669.9 11693.5 11688 Q11708.6 11706.2 11708.6 11732.8 Q11708.6 11773.8 11680.5 11796.2 Q11652.4 11818.6 11600.5 11818.6 Q11583.1 11818.6 11564.6 11815.1 Q11546.2 11811.7 11526.6 11804.9 L11526.6 11768.8 Q11542.2 11777.8 11560.7 11782.5 Q11579.2 11787.1 11599.4 11787.1 Q11634.6 11787.1 11652.9 11773.2 Q11671.4 11759.3 11671.4 11732.8 Q11671.4 11708.4 11654.2 11694.7 Q11637.2 11680.8 11606.6 11680.8 L11574.4 11680.8 L11574.4 11650.1 L11608.1 11650.1 Q11635.7 11650.1 11650.3 11639.1 Q11664.9 11628 11664.9 11607.3 Q11664.9 11586 11649.8 11574.7 Q11634.8 11563.2 11606.6 11563.2 Q11591.2 11563.2 11573.6 11566.5 Q11556.1 11569.9 11534.9 11576.9 L11534.9 11543.6 Q11556.2 11537.7 11574.8 11534.7 Q11593.5 11531.7 11609.9 11531.7 Q11652.5 11531.7 11677.3 11551.2 Q11702.2 11570.4 11702.2 11603.4 Q11702.2 11626.4 11689 11642.3 Q11675.9 11658 11651.6 11664.1 Z"
     clip-path="url(#clip7000)" />
  <path
     id="path73"
     fill-opacity="1"
     fill-rule="evenodd"
     fill="#000000"
     d="M 0 0 M14997.3 11569.3 L14902.8 11716.9 L14997.3 11716.9 L14997.3 11569.3 M14987.5 11536.7 L15034.5 11536.7 L15034.5 11716.9 L15073.9 11716.9 L15073.9 11748 L15034.5 11748 L15034.5 11813.2 L14997.3 11813.2 L14997.3 11748 L14872.5 11748 L14872.5 11711.9 L14987.5 11536.7 Z"
     clip-path="url(#clip7000)" />
  <path
     id="path75"
     fill-opacity="1"
     fill-rule="evenodd"
     fill="#000000"
     d="M 0 0 M18251 11536.7 L18397.9 11536.7 L18397.9 11568.2 L18285.3 11568.2 L18285.3 11636 Q18293.4 11633.2 18301.6 11631.9 Q18309.7 11630.4 18317.9 11630.4 Q18364.1 11630.4 18391.2 11655.8 Q18418.2 11681.2 18418.2 11724.5 Q18418.2 11769.1 18390.4 11794 Q18362.7 11818.6 18312.1 11818.6 Q18294.7 11818.6 18276.6 11815.6 Q18258.6 11812.7 18239.3 11806.7 L18239.3 11769.1 Q18256 11778.2 18273.8 11782.7 Q18291.6 11787.1 18311.4 11787.1 Q18343.4 11787.1 18362.1 11770.3 Q18380.8 11753.4 18380.8 11724.5 Q18380.8 11695.6 18362.1 11678.8 Q18343.4 11661.9 18311.4 11661.9 Q18296.4 11661.9 18281.4 11665.3 Q18266.6 11668.6 18251 11675.6 L18251 11536.7 Z"
     clip-path="url(#clip7000)" />
  <path
     id="path77"
     fill-opacity="1"
     fill-rule="evenodd"
     fill="#000000"
     d="M 0 0 M1105.64 10960.3 Q1076.75 10960.3 1062.12 10988.8 Q1047.67 11017.1 1047.67 11074.2 Q1047.67 11131 1062.12 11159.6 Q1076.75 11187.9 1105.64 11187.9 Q1134.71 11187.9 1149.15 11159.6 Q1163.78 11131 1163.78 11074.2 Q1163.78 11017.1 1149.15 10988.8 Q1134.71 10960.3 1105.64 10960.3 M1105.64 10930.7 Q1152.12 10930.7 1176.56 10967.5 Q1201.19 11004.2 1201.19 11074.2 Q1201.19 11144 1176.56 11180.8 Q1152.12 11217.5 1105.64 11217.5 Q1059.16 11217.5 1034.53 11180.8 Q1010.08 11144 1010.08 11074.2 Q1010.08 11004.2 1034.53 10967.5 Q1059.16 10930.7 1105.64 10930.7 Z"
     clip-path="url(#clip7000)" />
  <path
     id="path79"
     fill-opacity="1"
     fill-rule="evenodd"
     fill="#000000"
     d="M 0 0 M1041.93 8435.03 L1103.04 8435.03 L1103.04 8224.11 L1036.56 8237.44 L1036.56 8203.37 L1102.67 8190.03 L1140.08 8190.03 L1140.08 8435.03 L1201.19 8435.03 L1201.19 8466.51 L1041.93 8466.51 L1041.93 8435.03 Z"
     clip-path="url(#clip7000)" />
  <path
     id="path81"
     fill-opacity="1"
     fill-rule="evenodd"
     fill="#000000"
     d="M 0 0 M1070.64 5689.4 L1201.19 5689.4 L1201.19 5720.88 L1025.64 5720.88 L1025.64 5689.4 Q1046.93 5667.36 1083.6 5630.32 Q1120.45 5593.1 1129.9 5582.36 Q1147.86 5562.18 1154.9 5548.29 Q1162.12 5534.21 1162.12 5520.7 Q1162.12 5498.66 1146.56 5484.77 Q1131.19 5470.88 1106.38 5470.88 Q1088.78 5470.88 1069.16 5476.99 Q1049.71 5483.1 1027.49 5495.51 L1027.49 5457.73 Q1050.08 5448.66 1069.71 5444.03 Q1089.34 5439.4 1105.64 5439.4 Q1148.6 5439.4 1174.15 5460.88 Q1199.71 5482.36 1199.71 5518.29 Q1199.71 5535.32 1193.23 5550.69 Q1186.93 5565.88 1170.08 5586.62 Q1165.45 5591.99 1140.64 5617.73 Q1115.82 5643.29 1070.64 5689.4 Z"
     clip-path="url(#clip7000)" />
  <path
     id="path83"
     fill-opacity="1"
     fill-rule="evenodd"
     fill="#000000"
     d="M 0 0 M1144.15 2826.17 Q1171.01 2831.91 1186.01 2850.06 Q1201.19 2868.21 1201.19 2894.88 Q1201.19 2935.8 1173.04 2958.21 Q1144.9 2980.62 1093.04 2980.62 Q1075.64 2980.62 1057.12 2977.1 Q1038.78 2973.76 1019.16 2966.91 L1019.16 2930.8 Q1034.71 2939.88 1053.23 2944.51 Q1071.75 2949.13 1091.93 2949.13 Q1127.12 2949.13 1145.45 2935.25 Q1163.97 2921.36 1163.97 2894.88 Q1163.97 2870.43 1146.75 2856.73 Q1129.71 2842.84 1099.15 2842.84 L1066.93 2842.84 L1066.93 2812.1 L1100.64 2812.1 Q1128.23 2812.1 1142.86 2801.17 Q1157.49 2790.06 1157.49 2769.32 Q1157.49 2748.02 1142.3 2736.73 Q1127.3 2725.25 1099.15 2725.25 Q1083.78 2725.25 1066.19 2728.58 Q1048.6 2731.91 1027.49 2738.95 L1027.49 2705.62 Q1048.78 2699.69 1067.3 2696.73 Q1086.01 2693.77 1102.49 2693.77 Q1145.08 2693.77 1169.9 2713.21 Q1194.71 2732.47 1194.71 2765.43 Q1194.71 2788.39 1181.56 2804.32 Q1168.41 2820.06 1144.15 2826.17 Z"
     clip-path="url(#clip7000)" />
  <path
     id="path85"
     fill-opacity="1"
     fill-rule="evenodd"
     fill="#000000"
     d="M 0 0 M9946.82 12068.2 L10268.4 12068.2 L10268.4 12111.5 L10133.5 12111.5 L10133.5 12448.4 L10081.8 12448.4 L10081.8 12111.5 L9946.82 12111.5 L9946.82 12068.2 Z"
     clip-path="url(#clip7000)" />
  <path
     id="path87"
     fill-opacity="1"
     fill-rule="evenodd"
     fill="#000000"
     d="M 0 0 M353.156 5919.51 L407.391 5919.51 Q383.202 5945.48 371.234 5975.02 Q359.267 6004.3 359.267 6037.4 Q359.267 6102.59 399.243 6137.22 Q438.965 6171.84 514.335 6171.84 Q589.451 6171.84 629.427 6137.22 Q669.149 6102.59 669.149 6037.4 Q669.149 6004.3 657.182 5975.02 Q645.214 5945.48 621.024 5919.51 L674.751 5919.51 Q693.084 5946.5 702.251 5976.8 Q711.417 6006.85 711.417 6040.46 Q711.417 6126.78 658.709 6176.43 Q605.747 6226.08 514.335 6226.08 Q422.669 6226.08 369.961 6176.43 Q316.998 6126.78 316.998 6040.46 Q316.998 6006.34 326.165 5976.29 Q335.077 5945.99 353.156 5919.51 Z"
     clip-path="url(#clip7000)" />
  <path
     id="path89"
     fill-opacity="1"
     fill-rule="evenodd"
     fill="#000000"
     d="M 0 0 M531.905 5633.31 L704.033 5633.31 L704.033 5680.16 L533.432 5680.16 Q492.946 5680.16 472.831 5695.94 Q452.715 5711.73 452.715 5743.31 Q452.715 5781.24 476.905 5803.14 Q501.095 5825.04 542.854 5825.04 L704.033 5825.04 L704.033 5872.15 L307.832 5872.15 L307.832 5825.04 L463.155 5825.04 Q437.437 5808.24 424.706 5785.57 Q411.975 5762.66 411.975 5732.87 Q411.975 5683.72 442.53 5658.51 Q472.831 5633.31 531.905 5633.31 Z"
     clip-path="url(#clip7000)" />
  <path
     id="path91"
     fill-opacity="1"
     fill-rule="evenodd"
     fill="#000000"
     d="M 0 0 M418.85 5584.16 L418.85 5537.31 L704.033 5537.31 L704.033 5584.16 L418.85 5584.16 M307.832 5584.16 L307.832 5537.31 L367.16 5537.31 L367.16 5584.16 L307.832 5584.16 Z"
     clip-path="url(#clip7000)" />
  <polyline
     id="polyline93"
     points="   1886.46,11073.9 1927.67,11073.9 1968.88,11073.9 2010.09,11073.9 2051.3,11073.9 2092.5,11073.9 2133.71,11073.9 2174.92,11073.9 2216.13,11073.9 2257.34,11073.9    2298.55,11073.9 2339.76,11073.9 2380.97,11073.9 2422.18,11073.9 2463.38,11073.9 2504.59,11073.9 2545.8,11073.9 2587.01,11073.9 2628.22,11073.9 2669.43,11073.9    2710.64,11073.9 2751.85,11073.9 2793.05,11073.9 2834.26,11073.9 2875.47,11073.9 2916.68,11073.9 2957.89,11073.9 2999.1,11073.9 3040.31,11073.9 3081.52,11073.9    3122.73,11073.9 3163.93,11073.9 3205.14,11073.9 3246.35,11073.9 3287.56,11073.9 3328.77,11073.9 3369.98,11073.9 3411.19,11073.9 3452.4,11073.9 3493.6,11073.9    3534.81,11073.9 3576.02,11073.9 3617.23,11073.9 3658.44,11073.9 3699.65,11073.9 3740.86,11073.9 3782.07,11073.8 3823.28,11073.8 3864.48,11073.8 3905.69,11073.7    3946.9,11073.6 3988.11,11073.6 4029.32,11073.6 4070.53,11073.7 4111.74,11073.4 4152.95,11073.4 4194.15,11073.3 4235.36,11073.3 4276.57,11073.2 4317.78,11073    4358.99,11073.2 4400.2,11073 4441.41,11072.6 4482.62,11072.1 4523.82,11072.3 4565.03,11072.2 4606.24,11071.7 4647.45,11071.4 4688.66,11071.8 4729.87,11071    4771.08,11070.6 4812.29,11070.7 4853.5,11069.7 4894.7,11069.9 4935.91,11069.1 4977.12,11069 5018.33,11068.4 5059.54,11067.1 5100.75,11067.2 5141.96,11066.8    5183.17,11065.8 5224.37,11065.9 5265.58,11065.5 5306.79,11064.6 5348,11063.6 5389.21,11061.7 5430.42,11060.5 5471.63,11060.4 5512.84,11060.6 5554.05,11058.8    5595.25,11057.4 5636.46,11056.8 5677.67,11055.6 5718.88,11052.8 5760.09,11051.3 5801.3,11050.6 5842.51,11050 5883.72,11047.8 5924.92,11045.3 5966.13,11043.5    6007.34,11039.1 6048.55,11043 6089.76,11037.8 6130.97,11034.6 6172.18,11033.4 6213.39,11032.5 6254.6,11026.1 6295.8,11019.5 6337.01,11024.3 6378.22,11019.6    6419.43,11019.6 6460.64,11014.8 6501.85,11005.6 6543.06,11001.2 6584.27,11001.8 6625.47,11000.1 6666.68,10990.6 6707.89,10986.2 6749.1,10987.1 6790.31,10972.9    6831.52,10973.8 6872.73,10968.9 6913.94,10961 6955.15,10957.5 6996.35,10935 7037.56,10929.5 7078.77,10927.5 7119.98,10900.8 7161.19,10903 7202.4,10896.6    7243.61,10889.4 7284.82,10831.2 7326.02,10847.2 7367.23,10869.5 7408.44,10842.5 7449.65,10834.5 7490.86,10805.4 7532.07,10768.5 7573.28,10786.3 7614.49,10770.7    7655.69,10715.3 7696.9,10165.4 7738.11,10774.6 7779.32,10579.8 7820.53,10620.8 7861.74,10386.1 7902.95,10585.6 7944.16,10577.2 7985.37,10474.5 8026.57,10339.9    8067.78,10505.4 8108.99,10330 8150.2,9769.49 8191.41,10220.5 8232.62,9554.18 8273.83,10109.6 8315.04,9905.82 8356.24,10051.6 8397.45,9914.22 8438.66,9245.72    8479.87,9411.22 8521.08,9589.27 8562.29,8088.48 8603.5,8798.64 8644.71,8181.57 8685.92,8080.74 8727.12,7316.62 8768.33,8028.34 8809.54,7754.66 8850.75,6194.77    8891.96,7194.19 8933.17,5455.71 8974.38,5763.4 9015.59,5279.94 9056.79,5325.68 9098,5446.01 9139.21,5252.75 9180.42,3284.1 9221.63,4647.1 9262.84,2026.2    9304.05,3218.09 9345.26,2401.72 9386.47,2091.19 9427.67,2757.87 9468.88,943.018 9510.09,841.095 9551.3,2382.53 9592.51,1919.56 9633.72,1193.49 9674.93,1870.9    9716.14,689.485 9757.34,1492.41 9798.55,1178.9 9839.76,1389.85 9880.97,1509.81 9922.18,900.882 9963.39,1116.37 10004.6,1705.06 10045.8,1848.83 10087,1706.29    10128.2,1981.72 10169.4,2739.03 10210.6,2411.16 10251.9,2903.53 10293.1,3441.99 10334.3,3277.9 10375.5,3307.32 10416.7,3466.11 10457.9,3507.3 10499.1,3735    10540.3,4198.5 10581.5,4578.46 10622.7,4384.38 10663.9,4580.88 10705.1,4480.56 10746.4,4706.39 10787.6,4991.45 10828.8,5494.6 10870,5355.64 10911.2,5456.51    10952.4,5734.66 10993.6,5802.35 11034.8,6099.89 11076,5864.26 11117.2,6525.24 11158.4,6588.78 11199.7,6665.07 11240.9,6933.13 11282.1,6845.17 11323.3,6788.3    11364.5,7171.82 11405.7,6923.5 11446.9,7189.88 11488.1,7255.94 11529.3,7408.75 11570.5,7409.24 11611.7,7368.53 11652.9,7471.11 11694.2,7550.7 11735.4,7873.71    11776.6,7864.75 11817.8,7980.71 11859,8018.81 11900.2,8106.06 11941.4,8134.93 11982.6,8152.57 12023.8,8126.42 12065,8498.2 12106.2,8588.47 12147.5,8349.03    12188.7,8441.48 12229.9,8439.54 12271.1,8469.43 12312.3,8675.72 12353.5,8715.78 12394.7,8445.07 12435.9,8716.81 12477.1,8591.15 12518.3,8760.99 12559.5,8854.76    12600.8,8967.96 12642,8883.35 12683.2,8945.68 12724.4,8836.53 12765.6,9082.61 12806.8,8963.97 12848,9167.65 12889.2,9172.37 12930.4,9259.3 12971.6,9095.36    13012.8,9197.77 13054,9231.54 13095.3,9260.64 13136.5,9231.86 13177.7,9312.58 13218.9,9403.75 13260.1,9418.04 13301.3,9445.1 13342.5,9300.32 13383.7,9452.95    13424.9,9471.58 13466.1,9471.92 13507.3,9434.85 13548.6,9529.23 13589.8,9500.37 13631,9582.67 13672.2,9572.64 13713.4,9624.63 13754.6,9603.5 13795.8,9697.48    13837,9678.27 13878.2,9722.44 13919.4,9743.81 13960.6,9643.33 14001.9,9753.19 14043.1,9691.08 14084.3,9745.77 14125.5,9763.4 14166.7,9816.17 14207.9,9768.3    14249.1,9873.38 14290.3,9800.89 14331.5,9858.97 14372.7,9882.45 14413.9,9835.16 14455.1,9869.51 14496.4,9891.81 14537.6,9863.11 14578.8,9820.81 14620,9943.89    14661.2,9976.03 14702.4,9936.24 14743.6,9974.56 14784.8,9927.49 14826,10020.5 14867.2,10015.9 14908.4,9980.13 14949.7,9985.55 14990.9,10074.4 15032.1,10060.8    15073.3,10062.3 15114.5,10085.6 15155.7,10070.5 15196.9,10089.7 15238.1,10109.5 15279.3,10089.8 15320.5,10053.7 15361.7,10085.6 15403,10107.2 15444.2,10133    15485.4,10126.8 15526.6,10178.5 15567.8,10171.6 15609,10134.6 15650.2,10179.8 15691.4,10203 15732.6,10203.7 15773.8,10193.1 15815,10207 15856.2,10191    15897.5,10180.4 15938.7,10260.1 15979.9,10216.3 16021.1,10241.1 16062.3,10261.2 16103.5,10276.6 16144.7,10266.5 16185.9,10293.7 16227.1,10270.4 16268.3,10235.9    16309.5,10277 16350.8,10263.7 16392,10283.2 16433.2,10304.2 16474.4,10337.4 16515.6,10288.3 16556.8,10348.3 16598,10339.8 16639.2,10348 16680.4,10329.3    16721.6,10341.1 16762.8,10359.6 16804.1,10375.3 16845.3,10351.1 16886.5,10376.4 16927.7,10364.8 16968.9,10376.3 17010.1,10356.4 17051.3,10386.5 17092.5,10383.5    17133.7,10410.1 17174.9,10390.8 17216.1,10414.5 17257.3,10364.6 17298.6,10406.5 17339.8,10409.9 17381,10431.4 17422.2,10437.5 17463.4,10447.2 17504.6,10435.5    17545.8,10437.9 17587,10442.1 17628.2,10448.1 17669.4,10428.1 17710.6,10477.5 17751.9,10460.3 17793.1,10465.9 17834.3,10491.8 17875.5,10473.9 17916.7,10462    17957.9,10488.1 17999.1,10489.3 18040.3,10489.4 18081.5,10468.4 18122.7,10492.3 18163.9,10494.2 18205.2,10492.6 18246.4,10504.3 18287.6,10506.5 18328.8,10487.4       "
     style="stroke:#009af9; stroke-width:48; stroke-opacity:1; fill:none"
     clip-path="url(#clip7002)" />
  <polyline
     transform="matrix(1,0,0,1.0296722,0,-41.239888)"
     id="polyline95"
     points="   9839.76,1389.85 9839.76,11073.9    "
     style="fill:none;stroke:#e26f46;stroke-width:31.9998;stroke-miterlimit:4;stroke-dasharray:255.998, 31.9998;stroke-dashoffset:0;stroke-opacity:1"
     clip-path="url(#clip7002)" />
  <path
     id="path97"
     fill-opacity="1"
     fill-rule="evenodd"
     fill="#ffffff"
     d=" M15030.1 2497.63 L18246 2497.63 L18246 1046.11 L15030.1 1046.11  Z   "
     clip-path="url(#clip7000)" />
  <polyline
     id="polyline99"
     points="   15030.1,2497.63 18246,2497.63 18246,1046.11 15030.1,1046.11 15030.1,2497.63    "
     style="stroke:#000000; stroke-width:32; stroke-opacity:1; fill:none"
     clip-path="url(#clip7000)" />
  <polyline
     id="polyline101"
     points="   15222.1,1529.95 16374.1,1529.95    "
     style="stroke:#009af9; stroke-width:48; stroke-opacity:1; fill:none"
     clip-path="url(#clip7000)" />
  <path
     id="path103"
     fill-opacity="1"
     fill-rule="evenodd"
     fill="#000000"
     d="M 0 0 M16789.1 1413.01 L16789.1 1452.45 Q16770.2 1434.86 16748.7 1426.16 Q16727.4 1417.45 16703.3 1417.45 Q16655.9 1417.45 16630.8 1446.53 Q16605.6 1475.42 16605.6 1530.23 Q16605.6 1584.86 16630.8 1613.93 Q16655.9 1642.82 16703.3 1642.82 Q16727.4 1642.82 16748.7 1634.12 Q16770.2 1625.42 16789.1 1607.82 L16789.1 1646.9 Q16769.5 1660.23 16747.4 1666.9 Q16725.6 1673.56 16701.1 1673.56 Q16638.4 1673.56 16602.2 1635.23 Q16566.1 1596.71 16566.1 1530.23 Q16566.1 1463.56 16602.2 1425.23 Q16638.4 1386.71 16701.1 1386.71 Q16725.9 1386.71 16747.8 1393.38 Q16769.8 1399.86 16789.1 1413.01 Z"
     clip-path="url(#clip7000)" />
  <path
     id="path105"
     fill-opacity="1"
     fill-rule="evenodd"
     fill="#000000"
     d="M 0 0 M16997.2 1543.01 L16997.2 1668.19 L16963.2 1668.19 L16963.2 1544.12 Q16963.2 1514.68 16951.7 1500.05 Q16940.2 1485.42 16917.2 1485.42 Q16889.6 1485.42 16873.7 1503.01 Q16857.8 1520.6 16857.8 1550.97 L16857.8 1668.19 L16823.5 1668.19 L16823.5 1380.05 L16857.8 1380.05 L16857.8 1493.01 Q16870 1474.3 16886.5 1465.05 Q16903.2 1455.79 16924.8 1455.79 Q16960.6 1455.79 16978.9 1478.01 Q16997.2 1500.05 16997.2 1543.01 Z"
     clip-path="url(#clip7000)" />
  <path
     id="path107"
     fill-opacity="1"
     fill-rule="evenodd"
     fill="#000000"
     d="M 0 0 M17033 1460.79 L17067.1 1460.79 L17067.1 1668.19 L17033 1668.19 L17033 1460.79 M17033 1380.05 L17067.1 1380.05 L17067.1 1423.19 L17033 1423.19 L17033 1380.05 Z"
     clip-path="url(#clip7000)" />
  <path
     id="path109"
     fill-opacity="1"
     fill-rule="evenodd"
     fill="#000000"
     d="M 0 0 M17260.4 1731.16 L17260.4 1757.64 L17063.3 1757.64 L17063.3 1731.16 L17260.4 1731.16 Z"
     clip-path="url(#clip7000)" />
  <path
     id="path111"
     fill-opacity="1"
     fill-rule="evenodd"
     fill="#000000"
     d="M 0 0 M17428.3 1466.9 L17428.3 1499.12 Q17413.9 1491.71 17398.3 1488.01 Q17382.8 1484.3 17366.1 1484.3 Q17340.8 1484.3 17328 1492.08 Q17315.4 1499.86 17315.4 1515.42 Q17315.4 1527.27 17324.5 1534.12 Q17333.5 1540.79 17360.9 1546.9 L17372.6 1549.49 Q17408.9 1557.27 17424.1 1571.53 Q17439.5 1585.6 17439.5 1610.97 Q17439.5 1639.86 17416.5 1656.71 Q17393.7 1673.56 17353.7 1673.56 Q17337.1 1673.56 17318.9 1670.23 Q17300.9 1667.08 17280.9 1660.6 L17280.9 1625.42 Q17299.8 1635.23 17318.2 1640.23 Q17336.5 1645.04 17354.5 1645.04 Q17378.5 1645.04 17391.5 1636.9 Q17404.5 1628.56 17404.5 1613.56 Q17404.5 1599.67 17395 1592.27 Q17385.8 1584.86 17354.1 1578.01 L17342.2 1575.23 Q17310.6 1568.56 17296.5 1554.86 Q17282.4 1540.97 17282.4 1516.9 Q17282.4 1487.64 17303.2 1471.71 Q17323.9 1455.79 17362 1455.79 Q17380.9 1455.79 17397.6 1458.56 Q17414.3 1461.34 17428.3 1466.9 Z"
     clip-path="url(#clip7000)" />
  <path
     id="path113"
     fill-opacity="1"
     fill-rule="evenodd"
     fill="#000000"
     d="M 0 0 M17475.2 1460.79 L17509.3 1460.79 L17509.3 1668.19 L17475.2 1668.19 L17475.2 1460.79 M17475.2 1380.05 L17509.3 1380.05 L17509.3 1423.19 L17475.2 1423.19 L17475.2 1380.05 Z"
     clip-path="url(#clip7000)" />
  <path
     id="path115"
     fill-opacity="1"
     fill-rule="evenodd"
     fill="#000000"
     d="M 0 0 M17578.7 1401.9 L17578.7 1460.79 L17648.9 1460.79 L17648.9 1487.27 L17578.7 1487.27 L17578.7 1599.86 Q17578.7 1625.23 17585.6 1632.45 Q17592.6 1639.67 17613.9 1639.67 L17648.9 1639.67 L17648.9 1668.19 L17613.9 1668.19 Q17574.5 1668.19 17559.5 1653.56 Q17544.5 1638.75 17544.5 1599.86 L17544.5 1487.27 L17519.5 1487.27 L17519.5 1460.79 L17544.5 1460.79 L17544.5 1401.9 L17578.7 1401.9 Z"
     clip-path="url(#clip7000)" />
  <path
     id="path117"
     fill-opacity="1"
     fill-rule="evenodd"
     fill="#000000"
     d="M 0 0 M17862 1555.97 L17862 1572.64 L17705.4 1572.64 Q17707.6 1607.82 17726.5 1626.34 Q17745.6 1644.67 17779.5 1644.67 Q17799.1 1644.67 17817.4 1639.86 Q17835.9 1635.04 17854.1 1625.42 L17854.1 1657.64 Q17835.8 1665.41 17816.5 1669.49 Q17797.2 1673.56 17777.4 1673.56 Q17727.8 1673.56 17698.7 1644.67 Q17669.8 1615.79 17669.8 1566.53 Q17669.8 1515.6 17697.2 1485.79 Q17724.8 1455.79 17771.5 1455.79 Q17813.3 1455.79 17837.6 1482.82 Q17862 1509.68 17862 1555.97 M17828 1545.97 Q17827.6 1518.01 17812.2 1501.34 Q17797 1484.68 17771.9 1484.68 Q17743.3 1484.68 17726.1 1500.79 Q17709.1 1516.9 17706.5 1546.16 L17828 1545.97 Z"
     clip-path="url(#clip7000)" />
  <polyline
     id="polyline119"
     points="   15222.1,2013.79 16374.1,2013.79    "
     style="stroke:#e26f46; stroke-width:32; stroke-opacity:1; fill:none"
     clip-path="url(#clip7000)" />
  <path
     id="path121"
     fill-opacity="1"
     fill-rule="evenodd"
     fill="#000000"
     d="M 0 0 M16676.9 2171.29 Q16662.4 2208.33 16648.7 2219.62 Q16635 2230.92 16612.1 2230.92 L16584.8 2230.92 L16584.8 2202.4 L16604.8 2202.4 Q16618.9 2202.4 16626.7 2195.74 Q16634.5 2189.07 16643.9 2164.25 L16650 2148.7 L16566.1 1944.63 L16602.2 1944.63 L16667.1 2106.85 L16731.9 1944.63 L16768 1944.63 L16676.9 2171.29 Z"
     clip-path="url(#clip7000)" />
  <path
     id="path123"
     fill-opacity="1"
     fill-rule="evenodd"
     fill="#000000"
     d="M 0 0 M16840.8 2120.55 L16971.3 2120.55 L16971.3 2152.03 L16795.8 2152.03 L16795.8 2120.55 Q16817.1 2098.51 16853.7 2061.48 Q16890.6 2024.26 16900 2013.51 Q16918 1993.33 16925 1979.44 Q16932.2 1965.37 16932.2 1951.85 Q16932.2 1929.81 16916.7 1915.92 Q16901.3 1902.03 16876.5 1902.03 Q16858.9 1902.03 16839.3 1908.15 Q16819.8 1914.26 16797.6 1926.66 L16797.6 1888.89 Q16820.2 1879.81 16839.8 1875.18 Q16859.5 1870.55 16875.8 1870.55 Q16918.7 1870.55 16944.3 1892.03 Q16969.8 1913.52 16969.8 1949.44 Q16969.8 1966.48 16963.3 1981.85 Q16957.1 1997.03 16940.2 2017.77 Q16935.6 2023.14 16910.8 2048.89 Q16885.9 2074.44 16840.8 2120.55 Z"
     clip-path="url(#clip7000)" />
  <ellipse
     ry="130.61224"
     rx="143.67346"
     cy="1384.4899"
     cx="9824.9795"
     id="path954"
     style="fill:#ff9955;fill-opacity:0.819277;stroke:#110a13;stroke-width:32.556;stroke-miterlimit:4;stroke-dasharray:260.448, 32.556;stroke-dashoffset:0" />
  <text
     id="text958"
     y="11807.347"
     x="9445.7148"
     style="font-style:normal;font-weight:normal;font-size:384px;line-height:1.25;font-family:sans-serif;fill:#000000;fill-opacity:1;stroke:none;stroke-width:4"
     xml:space="preserve"><tspan
       style="font-size:384px;stroke-width:4"
       y="11807.347"
       x="9445.7148"
       id="tspan956"
       sodipodi:role="line">2.43</tspan></text>
</svg>
