<?xml version="1.0" encoding="UTF-8" standalone="no"?>
<svg
   xmlns:dc="http://purl.org/dc/elements/1.1/"
   xmlns:cc="http://creativecommons.org/ns#"
   xmlns:rdf="http://www.w3.org/1999/02/22-rdf-syntax-ns#"
   xmlns:svg="http://www.w3.org/2000/svg"
   xmlns="http://www.w3.org/2000/svg"
   xmlns:sodipodi="http://sodipodi.sourceforge.net/DTD/sodipodi-0.dtd"
   xmlns:inkscape="http://www.inkscape.org/namespaces/inkscape"
   inkscape:version="1.0 (4035a4fb49, 2020-05-01)"
   sodipodi:docname="χ_16.svg"
   id="svg143"
   version="1.1"
   viewBox="0 0 19200 12800"
   height="3200"
   width="4800">
  <metadata
     id="metadata147">
    <rdf:RDF>
      <cc:Work
         rdf:about="">
        <dc:format>image/svg+xml</dc:format>
        <dc:type
           rdf:resource="http://purl.org/dc/dcmitype/StillImage" />
      </cc:Work>
    </rdf:RDF>
  </metadata>
  <sodipodi:namedview
     inkscape:current-layer="svg143"
     inkscape:window-maximized="1"
     inkscape:window-y="-6"
     inkscape:window-x="-6"
     inkscape:cy="1600"
     inkscape:cx="2400"
     inkscape:zoom="0.153125"
     showgrid="false"
     id="namedview145"
     inkscape:window-height="658"
     inkscape:window-width="1280"
     inkscape:pageshadow="2"
     inkscape:pageopacity="0"
     guidetolerance="10"
     gridtolerance="10"
     objecttolerance="10"
     borderopacity="1"
     bordercolor="#666666"
     pagecolor="#ffffff" />
  <defs
     id="defs5">
    <clipPath
       id="clip9200">
      <rect
         id="rect2"
         height="12800"
         width="19200"
         y="0"
         x="0" />
    </clipPath>
  </defs>
  <path
     id="path7"
     fill-opacity="1"
     fill-rule="evenodd"
     fill="#ffffff"
     d=" M0 12800 L19200 12800 L19200 0 L0 0  Z   "
     clip-path="url(#clip9200)" />
  <defs
     id="defs12">
    <clipPath
       id="clip9201">
      <rect
         id="rect9"
         height="12800"
         width="13441"
         y="0"
         x="3840" />
    </clipPath>
  </defs>
  <path
     id="path14"
     fill-opacity="1"
     fill-rule="evenodd"
     fill="#ffffff"
     d=" M1403.56 11385.4 L18822 11385.4 L18822 377.953 L1403.56 377.953  Z   "
     clip-path="url(#clip9200)" />
  <defs
     id="defs19">
    <clipPath
       id="clip9202">
      <rect
         id="rect16"
         height="11008"
         width="17419"
         y="377"
         x="1403" />
    </clipPath>
  </defs>
  <polyline
     id="polyline21"
     points="   1561.18,11385.4 1561.18,377.953    "
     style="stroke:#000000; stroke-width:16; stroke-opacity:0.1; fill:none"
     clip-path="url(#clip9202)" />
  <polyline
     id="polyline23"
     points="   4914.76,11385.4 4914.76,377.953    "
     style="stroke:#000000; stroke-width:16; stroke-opacity:0.1; fill:none"
     clip-path="url(#clip9202)" />
  <polyline
     id="polyline25"
     points="   8268.34,11385.4 8268.34,377.953    "
     style="stroke:#000000; stroke-width:16; stroke-opacity:0.1; fill:none"
     clip-path="url(#clip9202)" />
  <polyline
     id="polyline27"
     points="   11621.9,11385.4 11621.9,377.953    "
     style="stroke:#000000; stroke-width:16; stroke-opacity:0.1; fill:none"
     clip-path="url(#clip9202)" />
  <polyline
     id="polyline29"
     points="   14975.5,11385.4 14975.5,377.953    "
     style="stroke:#000000; stroke-width:16; stroke-opacity:0.1; fill:none"
     clip-path="url(#clip9202)" />
  <polyline
     id="polyline31"
     points="   18329.1,11385.4 18329.1,377.953    "
     style="stroke:#000000; stroke-width:16; stroke-opacity:0.1; fill:none"
     clip-path="url(#clip9202)" />
  <polyline
     id="polyline33"
     points="   1403.56,11073.9 18822,11073.9    "
     style="stroke:#000000; stroke-width:16; stroke-opacity:0.1; fill:none"
     clip-path="url(#clip9202)" />
  <polyline
     id="polyline35"
     points="   1403.56,9482.46 18822,9482.46    "
     style="stroke:#000000; stroke-width:16; stroke-opacity:0.1; fill:none"
     clip-path="url(#clip9202)" />
  <polyline
     id="polyline37"
     points="   1403.56,7891.02 18822,7891.02    "
     style="stroke:#000000; stroke-width:16; stroke-opacity:0.1; fill:none"
     clip-path="url(#clip9202)" />
  <polyline
     id="polyline39"
     points="   1403.56,6299.58 18822,6299.58    "
     style="stroke:#000000; stroke-width:16; stroke-opacity:0.1; fill:none"
     clip-path="url(#clip9202)" />
  <polyline
     id="polyline41"
     points="   1403.56,4708.14 18822,4708.14    "
     style="stroke:#000000; stroke-width:16; stroke-opacity:0.1; fill:none"
     clip-path="url(#clip9202)" />
  <polyline
     id="polyline43"
     points="   1403.56,3116.69 18822,3116.69    "
     style="stroke:#000000; stroke-width:16; stroke-opacity:0.1; fill:none"
     clip-path="url(#clip9202)" />
  <polyline
     id="polyline45"
     points="   1403.56,1525.25 18822,1525.25    "
     style="stroke:#000000; stroke-width:16; stroke-opacity:0.1; fill:none"
     clip-path="url(#clip9202)" />
  <polyline
     id="polyline47"
     points="   1403.56,11385.4 18822,11385.4    "
     style="stroke:#000000; stroke-width:32; stroke-opacity:1; fill:none"
     clip-path="url(#clip9200)" />
  <polyline
     id="polyline49"
     points="   1403.56,11385.4 1403.56,377.953    "
     style="stroke:#000000; stroke-width:32; stroke-opacity:1; fill:none"
     clip-path="url(#clip9200)" />
  <polyline
     id="polyline51"
     points="   1561.18,11385.4 1561.18,11253.3    "
     style="stroke:#000000; stroke-width:32; stroke-opacity:1; fill:none"
     clip-path="url(#clip9200)" />
  <polyline
     id="polyline53"
     points="   4914.76,11385.4 4914.76,11253.3    "
     style="stroke:#000000; stroke-width:32; stroke-opacity:1; fill:none"
     clip-path="url(#clip9200)" />
  <polyline
     id="polyline55"
     points="   8268.34,11385.4 8268.34,11253.3    "
     style="stroke:#000000; stroke-width:32; stroke-opacity:1; fill:none"
     clip-path="url(#clip9200)" />
  <polyline
     id="polyline57"
     points="   11621.9,11385.4 11621.9,11253.3    "
     style="stroke:#000000; stroke-width:32; stroke-opacity:1; fill:none"
     clip-path="url(#clip9200)" />
  <polyline
     id="polyline59"
     points="   14975.5,11385.4 14975.5,11253.3    "
     style="stroke:#000000; stroke-width:32; stroke-opacity:1; fill:none"
     clip-path="url(#clip9200)" />
  <polyline
     id="polyline61"
     points="   18329.1,11385.4 18329.1,11253.3    "
     style="stroke:#000000; stroke-width:32; stroke-opacity:1; fill:none"
     clip-path="url(#clip9200)" />
  <polyline
     id="polyline63"
     points="   1403.56,11073.9 1612.58,11073.9    "
     style="stroke:#000000; stroke-width:32; stroke-opacity:1; fill:none"
     clip-path="url(#clip9200)" />
  <polyline
     id="polyline65"
     points="   1403.56,9482.46 1612.58,9482.46    "
     style="stroke:#000000; stroke-width:32; stroke-opacity:1; fill:none"
     clip-path="url(#clip9200)" />
  <polyline
     id="polyline67"
     points="   1403.56,7891.02 1612.58,7891.02    "
     style="stroke:#000000; stroke-width:32; stroke-opacity:1; fill:none"
     clip-path="url(#clip9200)" />
  <polyline
     id="polyline69"
     points="   1403.56,6299.58 1612.58,6299.58    "
     style="stroke:#000000; stroke-width:32; stroke-opacity:1; fill:none"
     clip-path="url(#clip9200)" />
  <polyline
     id="polyline71"
     points="   1403.56,4708.14 1612.58,4708.14    "
     style="stroke:#000000; stroke-width:32; stroke-opacity:1; fill:none"
     clip-path="url(#clip9200)" />
  <polyline
     id="polyline73"
     points="   1403.56,3116.69 1612.58,3116.69    "
     style="stroke:#000000; stroke-width:32; stroke-opacity:1; fill:none"
     clip-path="url(#clip9200)" />
  <polyline
     id="polyline75"
     points="   1403.56,1525.25 1612.58,1525.25    "
     style="stroke:#000000; stroke-width:32; stroke-opacity:1; fill:none"
     clip-path="url(#clip9200)" />
  <path
     id="path77"
     fill-opacity="1"
     fill-rule="evenodd"
     fill="#000000"
     d="M 0 0 M1561.18 11561.4 Q1532.29 11561.4 1517.66 11589.9 Q1503.22 11618.2 1503.22 11675.3 Q1503.22 11732.1 1517.66 11760.6 Q1532.29 11789 1561.18 11789 Q1590.25 11789 1604.7 11760.6 Q1619.33 11732.1 1619.33 11675.3 Q1619.33 11618.2 1604.7 11589.9 Q1590.25 11561.4 1561.18 11561.4 M1561.18 11531.7 Q1607.66 11531.7 1632.11 11568.6 Q1656.73 11605.3 1656.73 11675.3 Q1656.73 11745.1 1632.11 11781.9 Q1607.66 11818.6 1561.18 11818.6 Q1514.7 11818.6 1490.07 11781.9 Q1465.62 11745.1 1465.62 11675.3 Q1465.62 11605.3 1490.07 11568.6 Q1514.7 11531.7 1561.18 11531.7 Z"
     clip-path="url(#clip9200)" />
  <path
     id="path79"
     fill-opacity="1"
     fill-rule="evenodd"
     fill="#000000"
     d="M 0 0 M4837.81 11781.7 L4898.92 11781.7 L4898.92 11570.8 L4832.44 11584.1 L4832.44 11550.1 L4898.55 11536.7 L4935.96 11536.7 L4935.96 11781.7 L4997.07 11781.7 L4997.07 11813.2 L4837.81 11813.2 L4837.81 11781.7 Z"
     clip-path="url(#clip9200)" />
  <path
     id="path81"
     fill-opacity="1"
     fill-rule="evenodd"
     fill="#000000"
     d="M 0 0 M8225.56 11781.7 L8356.11 11781.7 L8356.11 11813.2 L8180.56 11813.2 L8180.56 11781.7 Q8201.86 11759.7 8238.52 11722.7 Q8275.37 11685.4 8284.82 11674.7 Q8302.78 11654.5 8309.82 11640.6 Q8317.04 11626.5 8317.04 11613 Q8317.04 11591 8301.48 11577.1 Q8286.11 11563.2 8261.3 11563.2 Q8243.71 11563.2 8224.08 11569.3 Q8204.63 11575.4 8182.41 11587.8 L8182.41 11550.1 Q8205 11541 8224.63 11536.4 Q8244.26 11531.7 8260.56 11531.7 Q8303.52 11531.7 8329.08 11553.2 Q8354.63 11574.7 8354.63 11610.6 Q8354.63 11627.7 8348.15 11643 Q8341.85 11658.2 8325 11679 Q8320.37 11684.3 8295.56 11710.1 Q8270.74 11735.6 8225.56 11781.7 Z"
     clip-path="url(#clip9200)" />
  <path
     id="path83"
     fill-opacity="1"
     fill-rule="evenodd"
     fill="#000000"
     d="M 0 0 M11655.9 11664.1 Q11682.7 11669.9 11697.7 11688 Q11712.9 11706.2 11712.9 11732.8 Q11712.9 11773.8 11684.8 11796.2 Q11656.6 11818.6 11604.8 11818.6 Q11587.4 11818.6 11568.9 11815.1 Q11550.5 11811.7 11530.9 11804.9 L11530.9 11768.8 Q11546.5 11777.8 11565 11782.5 Q11583.5 11787.1 11603.7 11787.1 Q11638.9 11787.1 11657.2 11773.2 Q11675.7 11759.3 11675.7 11732.8 Q11675.7 11708.4 11658.5 11694.7 Q11641.5 11680.8 11610.9 11680.8 L11578.7 11680.8 L11578.7 11650.1 L11612.4 11650.1 Q11640 11650.1 11654.6 11639.1 Q11669.2 11628 11669.2 11607.3 Q11669.2 11586 11654 11574.7 Q11639 11563.2 11610.9 11563.2 Q11595.5 11563.2 11577.9 11566.5 Q11560.3 11569.9 11539.2 11576.9 L11539.2 11543.6 Q11560.5 11537.7 11579 11534.7 Q11597.7 11531.7 11614.2 11531.7 Q11656.8 11531.7 11681.6 11551.2 Q11706.5 11570.4 11706.5 11603.4 Q11706.5 11626.4 11693.3 11642.3 Q11680.2 11658 11655.9 11664.1 Z"
     clip-path="url(#clip9200)" />
  <path
     id="path85"
     fill-opacity="1"
     fill-rule="evenodd"
     fill="#000000"
     d="M 0 0 M14999.6 11569.3 L14905.1 11716.9 L14999.6 11716.9 L14999.6 11569.3 M14989.8 11536.7 L15036.8 11536.7 L15036.8 11716.9 L15076.2 11716.9 L15076.2 11748 L15036.8 11748 L15036.8 11813.2 L14999.6 11813.2 L14999.6 11748 L14874.8 11748 L14874.8 11711.9 L14989.8 11536.7 Z"
     clip-path="url(#clip9200)" />
  <path
     id="path87"
     fill-opacity="1"
     fill-rule="evenodd"
     fill="#000000"
     d="M 0 0 M18251.3 11536.7 L18398.1 11536.7 L18398.1 11568.2 L18285.6 11568.2 L18285.6 11636 Q18293.7 11633.2 18301.8 11631.9 Q18310 11630.4 18318.1 11630.4 Q18364.4 11630.4 18391.5 11655.8 Q18418.5 11681.2 18418.5 11724.5 Q18418.5 11769.1 18390.7 11794 Q18363 11818.6 18312.4 11818.6 Q18295 11818.6 18276.8 11815.6 Q18258.9 11812.7 18239.6 11806.7 L18239.6 11769.1 Q18256.3 11778.2 18274.1 11782.7 Q18291.8 11787.1 18311.7 11787.1 Q18343.7 11787.1 18362.4 11770.3 Q18381.1 11753.4 18381.1 11724.5 Q18381.1 11695.6 18362.4 11678.8 Q18343.7 11661.9 18311.7 11661.9 Q18296.7 11661.9 18281.7 11665.3 Q18266.8 11668.6 18251.3 11675.6 L18251.3 11536.7 Z"
     clip-path="url(#clip9200)" />
  <path
     id="path89"
     fill-opacity="1"
     fill-rule="evenodd"
     fill="#000000"
     d="M 0 0 M1116.01 10960.3 Q1087.12 10960.3 1072.49 10988.8 Q1058.04 11017.1 1058.04 11074.2 Q1058.04 11131 1072.49 11159.6 Q1087.12 11187.9 1116.01 11187.9 Q1145.08 11187.9 1159.52 11159.6 Q1174.15 11131 1174.15 11074.2 Q1174.15 11017.1 1159.52 10988.8 Q1145.08 10960.3 1116.01 10960.3 M1116.01 10930.7 Q1162.49 10930.7 1186.93 10967.5 Q1211.56 11004.2 1211.56 11074.2 Q1211.56 11144 1186.93 11180.8 Q1162.49 11217.5 1116.01 11217.5 Q1069.53 11217.5 1044.9 11180.8 Q1020.45 11144 1020.45 11074.2 Q1020.45 11004.2 1044.9 10967.5 Q1069.53 10930.7 1116.01 10930.7 Z"
     clip-path="url(#clip9200)" />
  <path
     id="path91"
     fill-opacity="1"
     fill-rule="evenodd"
     fill="#000000"
     d="M 0 0 M1052.3 9589.22 L1113.41 9589.22 L1113.41 9378.3 L1046.93 9391.63 L1046.93 9357.56 L1113.04 9344.22 L1150.45 9344.22 L1150.45 9589.22 L1211.56 9589.22 L1211.56 9620.7 L1052.3 9620.7 L1052.3 9589.22 Z"
     clip-path="url(#clip9200)" />
  <path
     id="path93"
     fill-opacity="1"
     fill-rule="evenodd"
     fill="#000000"
     d="M 0 0 M1081.01 7997.78 L1211.56 7997.78 L1211.56 8029.26 L1036.01 8029.26 L1036.01 7997.78 Q1057.3 7975.74 1093.97 7938.71 Q1130.82 7901.48 1140.27 7890.74 Q1158.23 7870.56 1165.27 7856.67 Q1172.49 7842.6 1172.49 7829.08 Q1172.49 7807.04 1156.93 7793.15 Q1141.56 7779.26 1116.75 7779.26 Q1099.15 7779.26 1079.53 7785.37 Q1060.08 7791.48 1037.86 7803.89 L1037.86 7766.11 Q1060.45 7757.04 1080.08 7752.41 Q1099.71 7747.78 1116.01 7747.78 Q1158.97 7747.78 1184.52 7769.26 Q1210.08 7790.74 1210.08 7826.67 Q1210.08 7843.71 1203.6 7859.08 Q1197.3 7874.26 1180.45 7895 Q1175.82 7900.37 1151.01 7926.11 Q1126.19 7951.67 1081.01 7997.78 Z"
     clip-path="url(#clip9200)" />
  <path
     id="path95"
     fill-opacity="1"
     fill-rule="evenodd"
     fill="#000000"
     d="M 0 0 M1154.52 6288.74 Q1181.38 6294.49 1196.38 6312.63 Q1211.56 6330.78 1211.56 6357.45 Q1211.56 6398.37 1183.41 6420.78 Q1155.27 6443.19 1103.41 6443.19 Q1086.01 6443.19 1067.49 6439.67 Q1049.16 6436.34 1029.53 6429.48 L1029.53 6393.37 Q1045.08 6402.45 1063.6 6407.08 Q1082.12 6411.71 1102.3 6411.71 Q1137.49 6411.71 1155.82 6397.82 Q1174.34 6383.93 1174.34 6357.45 Q1174.34 6333 1157.12 6319.3 Q1140.08 6305.41 1109.53 6305.41 L1077.3 6305.41 L1077.3 6274.67 L1111.01 6274.67 Q1138.6 6274.67 1153.23 6263.74 Q1167.86 6252.63 1167.86 6231.89 Q1167.86 6210.6 1152.67 6199.3 Q1137.67 6187.82 1109.53 6187.82 Q1094.15 6187.82 1076.56 6191.15 Q1058.97 6194.49 1037.86 6201.52 L1037.86 6168.19 Q1059.16 6162.26 1077.67 6159.3 Q1096.38 6156.34 1112.86 6156.34 Q1155.45 6156.34 1180.27 6175.78 Q1205.08 6195.04 1205.08 6228 Q1205.08 6250.97 1191.93 6266.89 Q1178.78 6282.63 1154.52 6288.74 Z"
     clip-path="url(#clip9200)" />
  <path
     id="path97"
     fill-opacity="1"
     fill-rule="evenodd"
     fill="#000000"
     d="M 0 0 M1134.9 4602.49 L1040.45 4750.08 L1134.9 4750.08 L1134.9 4602.49 M1125.08 4569.9 L1172.12 4569.9 L1172.12 4750.08 L1211.56 4750.08 L1211.56 4781.19 L1172.12 4781.19 L1172.12 4846.38 L1134.9 4846.38 L1134.9 4781.19 L1010.08 4781.19 L1010.08 4745.08 L1125.08 4569.9 Z"
     clip-path="url(#clip9200)" />
  <path
     id="path99"
     fill-opacity="1"
     fill-rule="evenodd"
     fill="#000000"
     d="M 0 0 M1044.34 2978.45 L1191.19 2978.45 L1191.19 3009.93 L1078.6 3009.93 L1078.6 3077.71 Q1086.75 3074.93 1094.9 3073.64 Q1103.04 3072.16 1111.19 3072.16 Q1157.49 3072.16 1184.52 3097.53 Q1211.56 3122.9 1211.56 3166.23 Q1211.56 3210.86 1183.78 3235.67 Q1156.01 3260.3 1105.45 3260.3 Q1088.04 3260.3 1069.9 3257.34 Q1051.93 3254.38 1032.67 3248.45 L1032.67 3210.86 Q1049.34 3219.93 1067.12 3224.38 Q1084.9 3228.82 1104.71 3228.82 Q1136.75 3228.82 1155.45 3211.97 Q1174.15 3195.12 1174.15 3166.23 Q1174.15 3137.34 1155.45 3120.49 Q1136.75 3103.64 1104.71 3103.64 Q1089.71 3103.64 1074.71 3106.97 Q1059.9 3110.3 1044.34 3117.34 L1044.34 2978.45 Z"
     clip-path="url(#clip9200)" />
  <path
     id="path101"
     fill-opacity="1"
     fill-rule="evenodd"
     fill="#000000"
     d="M 0 0 M1119.34 1510.34 Q1094.15 1510.34 1079.34 1527.56 Q1064.71 1544.79 1064.71 1574.79 Q1064.71 1604.6 1079.34 1622.01 Q1094.15 1639.23 1119.34 1639.23 Q1144.52 1639.23 1159.15 1622.01 Q1173.97 1604.6 1173.97 1574.79 Q1173.97 1544.79 1159.15 1527.56 Q1144.52 1510.34 1119.34 1510.34 M1193.6 1393.12 L1193.6 1427.19 Q1179.52 1420.53 1165.08 1417.01 Q1150.82 1413.49 1136.75 1413.49 Q1099.71 1413.49 1080.08 1438.49 Q1060.64 1463.49 1057.86 1514.05 Q1068.78 1497.94 1085.27 1489.42 Q1101.75 1480.71 1121.56 1480.71 Q1163.23 1480.71 1187.3 1506.08 Q1211.56 1531.27 1211.56 1574.79 Q1211.56 1617.38 1186.38 1643.12 Q1161.19 1668.86 1119.34 1668.86 Q1071.38 1668.86 1046.01 1632.19 Q1020.64 1595.34 1020.64 1525.53 Q1020.64 1459.97 1051.75 1421.08 Q1082.86 1382.01 1135.27 1382.01 Q1149.34 1382.01 1163.6 1384.79 Q1178.04 1387.57 1193.6 1393.12 Z"
     clip-path="url(#clip9200)" />
  <path
     id="path103"
     fill-opacity="1"
     fill-rule="evenodd"
     fill="#000000"
     d="M 0 0 M9952.01 12068.2 L10273.6 12068.2 L10273.6 12111.5 L10138.6 12111.5 L10138.6 12448.4 L10087 12448.4 L10087 12111.5 L9952.01 12111.5 L9952.01 12068.2 Z"
     clip-path="url(#clip9200)" />
  <path
     id="path105"
     fill-opacity="1"
     fill-rule="evenodd"
     fill="#000000"
     d="M 0 0 M353.156 5919.51 L407.391 5919.51 Q383.202 5945.48 371.234 5975.02 Q359.267 6004.3 359.267 6037.4 Q359.267 6102.59 399.243 6137.22 Q438.965 6171.84 514.335 6171.84 Q589.451 6171.84 629.427 6137.22 Q669.149 6102.59 669.149 6037.4 Q669.149 6004.3 657.182 5975.02 Q645.214 5945.48 621.024 5919.51 L674.751 5919.51 Q693.084 5946.5 702.251 5976.8 Q711.417 6006.85 711.417 6040.46 Q711.417 6126.78 658.709 6176.43 Q605.747 6226.08 514.335 6226.08 Q422.669 6226.08 369.961 6176.43 Q316.998 6126.78 316.998 6040.46 Q316.998 6006.34 326.165 5976.29 Q335.077 5945.99 353.156 5919.51 Z"
     clip-path="url(#clip9200)" />
  <path
     id="path107"
     fill-opacity="1"
     fill-rule="evenodd"
     fill="#000000"
     d="M 0 0 M531.905 5633.31 L704.033 5633.31 L704.033 5680.16 L533.432 5680.16 Q492.946 5680.16 472.831 5695.94 Q452.715 5711.73 452.715 5743.31 Q452.715 5781.24 476.905 5803.14 Q501.095 5825.04 542.854 5825.04 L704.033 5825.04 L704.033 5872.15 L307.832 5872.15 L307.832 5825.04 L463.155 5825.04 Q437.437 5808.24 424.706 5785.57 Q411.975 5762.66 411.975 5732.87 Q411.975 5683.72 442.53 5658.51 Q472.831 5633.31 531.905 5633.31 Z"
     clip-path="url(#clip9200)" />
  <path
     id="path109"
     fill-opacity="1"
     fill-rule="evenodd"
     fill="#000000"
     d="M 0 0 M418.85 5584.16 L418.85 5537.31 L704.033 5537.31 L704.033 5584.16 L418.85 5584.16 M307.832 5584.16 L307.832 5537.31 L367.16 5537.31 L367.16 5584.16 L307.832 5584.16 Z"
     clip-path="url(#clip9200)" />
  <polyline
     id="polyline111"
     points="   1896.54,11073.9 1937.72,11073.9 1978.91,11073.9 2020.09,11073.9 2061.27,11073.9 2102.46,11073.9 2143.64,11073.9 2184.83,11073.9 2226.01,11073.9 2267.2,11073.9    2308.38,11073.9 2349.56,11073.9 2390.75,11073.9 2431.93,11073.9 2473.12,11073.9 2514.3,11073.9 2555.49,11073.9 2596.67,11073.9 2637.85,11073.9 2679.04,11073.9    2720.22,11073.9 2761.41,11073.9 2802.59,11073.9 2843.78,11073.9 2884.96,11073.9 2926.15,11073.9 2967.33,11073.9 3008.51,11073.9 3049.7,11073.9 3090.88,11073.9    3132.07,11073.9 3173.25,11073.9 3214.44,11073.9 3255.62,11073.9 3296.8,11073.9 3337.99,11073.9 3379.17,11073.9 3420.36,11073.9 3461.54,11073.9 3502.73,11073.9    3543.91,11073.9 3585.09,11073.9 3626.28,11073.9 3667.46,11073.9 3708.65,11073.9 3749.83,11073.9 3791.02,11073.8 3832.2,11073.8 3873.38,11073.8 3914.57,11073.8    3955.75,11073.8 3996.94,11073.7 4038.12,11073.7 4079.31,11073.7 4120.49,11073.7 4161.67,11073.6 4202.86,11073.6 4244.04,11073.6 4285.23,11073.4 4326.41,11073.3    4367.6,11073.3 4408.78,11073.3 4449.96,11073.1 4491.15,11073.1 4532.33,11072.9 4573.52,11072.6 4614.7,11072.7 4655.89,11072.6 4697.07,11072.5 4738.25,11072.2    4779.44,11072.1 4820.62,11071.6 4861.81,11071.5 4902.99,11071.2 4944.18,11071.1 4985.36,11071.2 5026.54,11070.7 5067.73,11070.4 5108.91,11069.8 5150.1,11069.5    5191.28,11069.4 5232.47,11068.8 5273.65,11068.3 5314.83,11068.1 5356.02,11067.8 5397.2,11067.2 5438.39,11066.8 5479.57,11066.5 5520.76,11065.4 5561.94,11065.3    5603.12,11064.4 5644.31,11063.9 5685.49,11063.5 5726.68,11061.9 5767.86,11061 5809.05,11059.5 5850.23,11060.4 5891.41,11057.2 5932.6,11058.4 5973.78,11056.2    6014.97,11054.1 6056.15,11054.6 6097.34,11053.1 6138.52,11052.2 6179.7,11049.5 6220.89,11048.8 6262.07,11046 6303.26,11045.2 6344.44,11044.1 6385.63,11042.3    6426.81,11040.7 6467.99,11037.5 6509.18,11035.7 6550.36,11022.7 6591.55,11031.3 6632.73,11026.7 6673.92,11023.5 6715.1,11021.5 6756.28,11020.2 6797.47,11012.4    6838.65,11014.9 6879.84,11010.9 6921.02,11005.3 6962.21,11002.3 7003.39,11001.5 7044.57,10994.9 7085.76,10987.4 7126.94,10981.9 7168.13,10962.7 7209.31,10976.1    7250.5,10972.8 7291.68,10953.1 7332.86,10959 7374.05,10923 7415.23,10946.7 7456.42,10926.7 7497.6,10922.6 7538.79,10936.1 7579.97,10832.2 7621.15,10898.2    7662.34,10886.4 7703.52,10882.5 7744.71,10799.5 7785.89,10849.4 7827.08,10812.6 7868.26,10752.7 7909.44,10713.2 7950.63,10760.9 7991.81,10765.5 8033,10766.9    8074.18,10700 8115.37,10665 8156.55,10587.3 8197.73,10631.4 8238.92,10554.3 8280.1,10476.5 8321.29,10199.8 8362.47,9782.01 8403.66,10168.5 8444.84,10376.6    8486.02,9921.66 8527.21,10123.4 8568.39,9559.44 8609.58,9333.74 8650.76,9744.37 8691.95,9844.55 8733.13,9219.53 8774.31,9008.13 8815.5,8070.45 8856.68,8672.35    8897.87,8346.28 8939.05,7378.6 8980.24,8987.41 9021.42,7144.5 9062.6,5955.59 9103.79,5564.44 9144.97,4029.07 9186.16,5975.43 9227.34,3860.23 9268.53,4450.09    9309.71,4677.37 9350.9,3582.53 9392.08,2917.19 9433.26,1957.71 9474.45,1646.2 9515.63,1643.77 9556.82,689.485 9598,864.442 9639.19,1028.88 9680.37,1375.46    9721.55,2271.26 9762.74,1669.26 9803.92,2185.85 9845.11,2567.34 9886.29,2173.99 9927.48,2541.02 9968.66,2909.64 10009.8,3319.96 10051,3415.46 10092.2,3489.04    10133.4,3883.14 10174.6,4432.15 10215.8,4458.09 10256.9,4723.89 10298.1,4880.57 10339.3,5458.97 10380.5,5574.17 10421.7,5514.66 10462.9,6268.95 10504.1,6078.8    10545.2,6363.04 10586.4,6223.14 10627.6,6624.59 10668.8,6676.66 10710,6893.27 10751.2,6808.39 10792.3,7272.09 10833.5,7634.97 10874.7,7815.49 10915.9,7396.16    10957.1,7563.83 10998.3,7867.39 11039.5,7927.29 11080.6,8148.53 11121.8,7953.17 11163,8392.62 11204.2,8319.11 11245.4,8549.01 11286.6,8419.16 11327.7,8281    11368.9,8570.83 11410.1,8783.56 11451.3,8817.71 11492.5,8919.18 11533.7,8780.07 11574.8,8941.17 11616,8827.08 11657.2,9010.79 11698.4,9016.07 11739.6,8945.81    11780.8,9155.8 11822,9213.74 11863.1,9237.86 11904.3,9412.86 11945.5,9319.1 11986.7,9292.86 12027.9,9277.83 12069.1,9365.18 12110.2,9476.56 12151.4,9515.34    12192.6,9615.77 12233.8,9513.6 12275,9456.3 12316.2,9588.89 12357.3,9553.87 12398.5,9660.72 12439.7,9616.36 12480.9,9747.11 12522.1,9791.9 12563.3,9763.33    12604.5,9759.7 12645.6,9779.88 12686.8,9865.89 12728,9731.03 12769.2,9837.58 12810.4,9870.4 12851.6,9917.42 12892.7,9900.13 12933.9,9943.4 12975.1,9924.96    13016.3,9992.15 13057.5,9919.59 13098.7,9991.87 13139.9,10031.4 13181,10014.8 13222.2,10076.2 13263.4,10086.3 13304.6,10085.4 13345.8,10113.2 13387,10080.6    13428.1,10125.7 13469.3,10112.8 13510.5,10124.7 13551.7,10143.6 13592.9,10172.3 13634.1,10119.5 13675.2,10205.5 13716.4,10242.6 13757.6,10212.3 13798.8,10233.6    13840,10232.3 13881.2,10191.4 13922.4,10273.1 13963.5,10284.9 14004.7,10288.4 14045.9,10315.9 14087.1,10264.5 14128.3,10299.6 14169.5,10323.7 14210.6,10334.6    14251.8,10350.6 14293,10351.1 14334.2,10358.3 14375.4,10375.3 14416.6,10380.9 14457.7,10379.5 14498.9,10362.9 14540.1,10397.9 14581.3,10386.3 14622.5,10396.9    14663.7,10413 14704.9,10428.6 14746,10430.3 14787.2,10454.2 14828.4,10437 14869.6,10432.2 14910.8,10452.7 14952,10439.1 14993.1,10460.2 15034.3,10466.4    15075.5,10473.1 15116.7,10470.9 15157.9,10478.9 15199.1,10502.3 15240.2,10476.1 15281.4,10518.4 15322.6,10507.9 15363.8,10526.7 15405,10503.9 15446.2,10515.9    15487.4,10500.1 15528.5,10541 15569.7,10542.3 15610.9,10549.1 15652.1,10528.6 15693.3,10550.7 15734.5,10550.9 15775.6,10557.2 15816.8,10590 15858,10573.1    15899.2,10558.7 15940.4,10557.5 15981.6,10593.1 16022.8,10591 16063.9,10610.9 16105.1,10588 16146.3,10619.4 16187.5,10588.9 16228.7,10613.4 16269.9,10612.7    16311,10605.7 16352.2,10635.3 16393.4,10646 16434.6,10631.6 16475.8,10613.7 16517,10634.9 16558.1,10643.4 16599.3,10648.3 16640.5,10643.4 16681.7,10653.6    16722.9,10656.4 16764.1,10669.6 16805.3,10660.6 16846.4,10681.1 16887.6,10639.5 16928.8,10670.1 16970,10652.7 17011.2,10653.4 17052.4,10684.6 17093.5,10672.9    17134.7,10683.3 17175.9,10694.5 17217.1,10691.2 17258.3,10688.5 17299.5,10701.2 17340.6,10685.8 17381.8,10693.5 17423,10697.1 17464.2,10696.1 17505.4,10705.5    17546.6,10681.4 17587.8,10709.7 17628.9,10703.6 17670.1,10720.5 17711.3,10721.6 17752.5,10729.5 17793.7,10721.9 17834.9,10720.1 17876,10715.1 17917.2,10721.1    17958.4,10733 17999.6,10727.6 18040.8,10727.1 18082,10725 18123.1,10741.9 18164.3,10742.8 18205.5,10744.1 18246.7,10748.4 18287.9,10749.9 18329.1,10737.9       "
     style="stroke:#009af9; stroke-width:48; stroke-opacity:1; fill:none"
     clip-path="url(#clip9202)" />
  <polyline
     transform="matrix(1,0,0,1.0286059,0,-29.432048)"
     id="polyline113"
     points="   9639.19,1028.88 9639.19,11073.9    "
     style="fill:none;stroke:#e26f46;stroke-width:31.9996;stroke-miterlimit:4;stroke-dasharray:255.997, 31.9996;stroke-dashoffset:0;stroke-opacity:1"
     clip-path="url(#clip9202)" />
  <path
     id="path115"
     fill-opacity="1"
     fill-rule="evenodd"
     fill="#ffffff"
     d=" M15030.1 2497.63 L18246 2497.63 L18246 1046.11 L15030.1 1046.11  Z   "
     clip-path="url(#clip9200)" />
  <polyline
     id="polyline117"
     points="   15030.1,2497.63 18246,2497.63 18246,1046.11 15030.1,1046.11 15030.1,2497.63    "
     style="stroke:#000000; stroke-width:32; stroke-opacity:1; fill:none"
     clip-path="url(#clip9200)" />
  <polyline
     id="polyline119"
     points="   15222.1,1529.95 16374.1,1529.95    "
     style="stroke:#009af9; stroke-width:48; stroke-opacity:1; fill:none"
     clip-path="url(#clip9200)" />
  <path
     id="path121"
     fill-opacity="1"
     fill-rule="evenodd"
     fill="#000000"
     d="M 0 0 M16789.1 1413.01 L16789.1 1452.45 Q16770.2 1434.86 16748.7 1426.16 Q16727.4 1417.45 16703.3 1417.45 Q16655.9 1417.45 16630.8 1446.53 Q16605.6 1475.42 16605.6 1530.23 Q16605.6 1584.86 16630.8 1613.93 Q16655.9 1642.82 16703.3 1642.82 Q16727.4 1642.82 16748.7 1634.12 Q16770.2 1625.42 16789.1 1607.82 L16789.1 1646.9 Q16769.5 1660.23 16747.4 1666.9 Q16725.6 1673.56 16701.1 1673.56 Q16638.4 1673.56 16602.2 1635.23 Q16566.1 1596.71 16566.1 1530.23 Q16566.1 1463.56 16602.2 1425.23 Q16638.4 1386.71 16701.1 1386.71 Q16725.9 1386.71 16747.8 1393.38 Q16769.8 1399.86 16789.1 1413.01 Z"
     clip-path="url(#clip9200)" />
  <path
     id="path123"
     fill-opacity="1"
     fill-rule="evenodd"
     fill="#000000"
     d="M 0 0 M16997.2 1543.01 L16997.2 1668.19 L16963.2 1668.19 L16963.2 1544.12 Q16963.2 1514.68 16951.7 1500.05 Q16940.2 1485.42 16917.2 1485.42 Q16889.6 1485.42 16873.7 1503.01 Q16857.8 1520.6 16857.8 1550.97 L16857.8 1668.19 L16823.5 1668.19 L16823.5 1380.05 L16857.8 1380.05 L16857.8 1493.01 Q16870 1474.3 16886.5 1465.05 Q16903.2 1455.79 16924.8 1455.79 Q16960.6 1455.79 16978.9 1478.01 Q16997.2 1500.05 16997.2 1543.01 Z"
     clip-path="url(#clip9200)" />
  <path
     id="path125"
     fill-opacity="1"
     fill-rule="evenodd"
     fill="#000000"
     d="M 0 0 M17033 1460.79 L17067.1 1460.79 L17067.1 1668.19 L17033 1668.19 L17033 1460.79 M17033 1380.05 L17067.1 1380.05 L17067.1 1423.19 L17033 1423.19 L17033 1380.05 Z"
     clip-path="url(#clip9200)" />
  <path
     id="path127"
     fill-opacity="1"
     fill-rule="evenodd"
     fill="#000000"
     d="M 0 0 M17260.4 1731.16 L17260.4 1757.64 L17063.3 1757.64 L17063.3 1731.16 L17260.4 1731.16 Z"
     clip-path="url(#clip9200)" />
  <path
     id="path129"
     fill-opacity="1"
     fill-rule="evenodd"
     fill="#000000"
     d="M 0 0 M17428.3 1466.9 L17428.3 1499.12 Q17413.9 1491.71 17398.3 1488.01 Q17382.8 1484.3 17366.1 1484.3 Q17340.8 1484.3 17328 1492.08 Q17315.4 1499.86 17315.4 1515.42 Q17315.4 1527.27 17324.5 1534.12 Q17333.5 1540.79 17360.9 1546.9 L17372.6 1549.49 Q17408.9 1557.27 17424.1 1571.53 Q17439.5 1585.6 17439.5 1610.97 Q17439.5 1639.86 17416.5 1656.71 Q17393.7 1673.56 17353.7 1673.56 Q17337.1 1673.56 17318.9 1670.23 Q17300.9 1667.08 17280.9 1660.6 L17280.9 1625.42 Q17299.8 1635.23 17318.2 1640.23 Q17336.5 1645.04 17354.5 1645.04 Q17378.5 1645.04 17391.5 1636.9 Q17404.5 1628.56 17404.5 1613.56 Q17404.5 1599.67 17395 1592.27 Q17385.8 1584.86 17354.1 1578.01 L17342.2 1575.23 Q17310.6 1568.56 17296.5 1554.86 Q17282.4 1540.97 17282.4 1516.9 Q17282.4 1487.64 17303.2 1471.71 Q17323.9 1455.79 17362 1455.79 Q17380.9 1455.79 17397.6 1458.56 Q17414.3 1461.34 17428.3 1466.9 Z"
     clip-path="url(#clip9200)" />
  <path
     id="path131"
     fill-opacity="1"
     fill-rule="evenodd"
     fill="#000000"
     d="M 0 0 M17475.2 1460.79 L17509.3 1460.79 L17509.3 1668.19 L17475.2 1668.19 L17475.2 1460.79 M17475.2 1380.05 L17509.3 1380.05 L17509.3 1423.19 L17475.2 1423.19 L17475.2 1380.05 Z"
     clip-path="url(#clip9200)" />
  <path
     id="path133"
     fill-opacity="1"
     fill-rule="evenodd"
     fill="#000000"
     d="M 0 0 M17578.7 1401.9 L17578.7 1460.79 L17648.9 1460.79 L17648.9 1487.27 L17578.7 1487.27 L17578.7 1599.86 Q17578.7 1625.23 17585.6 1632.45 Q17592.6 1639.67 17613.9 1639.67 L17648.9 1639.67 L17648.9 1668.19 L17613.9 1668.19 Q17574.5 1668.19 17559.5 1653.56 Q17544.5 1638.75 17544.5 1599.86 L17544.5 1487.27 L17519.5 1487.27 L17519.5 1460.79 L17544.5 1460.79 L17544.5 1401.9 L17578.7 1401.9 Z"
     clip-path="url(#clip9200)" />
  <path
     id="path135"
     fill-opacity="1"
     fill-rule="evenodd"
     fill="#000000"
     d="M 0 0 M17862 1555.97 L17862 1572.64 L17705.4 1572.64 Q17707.6 1607.82 17726.5 1626.34 Q17745.6 1644.67 17779.5 1644.67 Q17799.1 1644.67 17817.4 1639.86 Q17835.9 1635.04 17854.1 1625.42 L17854.1 1657.64 Q17835.8 1665.41 17816.5 1669.49 Q17797.2 1673.56 17777.4 1673.56 Q17727.8 1673.56 17698.7 1644.67 Q17669.8 1615.79 17669.8 1566.53 Q17669.8 1515.6 17697.2 1485.79 Q17724.8 1455.79 17771.5 1455.79 Q17813.3 1455.79 17837.6 1482.82 Q17862 1509.68 17862 1555.97 M17828 1545.97 Q17827.6 1518.01 17812.2 1501.34 Q17797 1484.68 17771.9 1484.68 Q17743.3 1484.68 17726.1 1500.79 Q17709.1 1516.9 17706.5 1546.16 L17828 1545.97 Z"
     clip-path="url(#clip9200)" />
  <polyline
     id="polyline137"
     points="   15222.1,2013.79 16374.1,2013.79    "
     style="stroke:#e26f46; stroke-width:32; stroke-opacity:1; fill:none"
     clip-path="url(#clip9200)" />
  <path
     id="path139"
     fill-opacity="1"
     fill-rule="evenodd"
     fill="#000000"
     d="M 0 0 M16676.9 2171.29 Q16662.4 2208.33 16648.7 2219.62 Q16635 2230.92 16612.1 2230.92 L16584.8 2230.92 L16584.8 2202.4 L16604.8 2202.4 Q16618.9 2202.4 16626.7 2195.74 Q16634.5 2189.07 16643.9 2164.25 L16650 2148.7 L16566.1 1944.63 L16602.2 1944.63 L16667.1 2106.85 L16731.9 1944.63 L16768 1944.63 L16676.9 2171.29 Z"
     clip-path="url(#clip9200)" />
  <path
     id="path141"
     fill-opacity="1"
     fill-rule="evenodd"
     fill="#000000"
     d="M 0 0 M16840.8 2120.55 L16971.3 2120.55 L16971.3 2152.03 L16795.8 2152.03 L16795.8 2120.55 Q16817.1 2098.51 16853.7 2061.48 Q16890.6 2024.26 16900 2013.51 Q16918 1993.33 16925 1979.44 Q16932.2 1965.37 16932.2 1951.85 Q16932.2 1929.81 16916.7 1915.92 Q16901.3 1902.03 16876.5 1902.03 Q16858.9 1902.03 16839.3 1908.15 Q16819.8 1914.26 16797.6 1926.66 L16797.6 1888.89 Q16820.2 1879.81 16839.8 1875.18 Q16859.5 1870.55 16875.8 1870.55 Q16918.7 1870.55 16944.3 1892.03 Q16969.8 1913.52 16969.8 1949.44 Q16969.8 1966.48 16963.3 1981.85 Q16957.1 1997.03 16940.2 2017.77 Q16935.6 2023.14 16910.8 2048.89 Q16885.9 2074.44 16840.8 2120.55 Z"
     clip-path="url(#clip9200)" />
  <circle
     r="130.61224"
     cy="1044.8979"
     cx="9639.1836"
     id="path972"
     style="fill:#ff9955;fill-opacity:0.819277;stroke:#110a13;stroke-width:32.536;stroke-miterlimit:4;stroke-dasharray:260.288, 32.536;stroke-dashoffset:0" />
  <text
     id="text976"
     y="11815.347"
     x="9301.2246"
     style="font-style:normal;font-weight:normal;font-size:384px;line-height:1.25;font-family:sans-serif;fill:#000000;fill-opacity:1;stroke:none;stroke-width:4"
     xml:space="preserve"><tspan
       style="font-size:384px;stroke-width:4"
       y="11815.347"
       x="9301.2246"
       id="tspan974"
       sodipodi:role="line">2.40</tspan></text>
</svg>
