<?xml version="1.0" encoding="UTF-8" standalone="no"?>
<svg
   xmlns:dc="http://purl.org/dc/elements/1.1/"
   xmlns:cc="http://creativecommons.org/ns#"
   xmlns:rdf="http://www.w3.org/1999/02/22-rdf-syntax-ns#"
   xmlns:svg="http://www.w3.org/2000/svg"
   xmlns="http://www.w3.org/2000/svg"
   xmlns:sodipodi="http://sodipodi.sourceforge.net/DTD/sodipodi-0.dtd"
   xmlns:inkscape="http://www.inkscape.org/namespaces/inkscape"
   inkscape:version="1.0 (4035a4fb49, 2020-05-01)"
   sodipodi:docname="χ_24.svg"
   id="svg147"
   version="1.1"
   viewBox="0 0 19200 12800"
   height="3200"
   width="4800">
  <metadata
     id="metadata151">
    <rdf:RDF>
      <cc:Work
         rdf:about="">
        <dc:format>image/svg+xml</dc:format>
        <dc:type
           rdf:resource="http://purl.org/dc/dcmitype/StillImage" />
      </cc:Work>
    </rdf:RDF>
  </metadata>
  <sodipodi:namedview
     inkscape:current-layer="svg147"
     inkscape:window-maximized="1"
     inkscape:window-y="-6"
     inkscape:window-x="-6"
     inkscape:cy="1600"
     inkscape:cx="2400"
     inkscape:zoom="0.153125"
     showgrid="false"
     id="namedview149"
     inkscape:window-height="658"
     inkscape:window-width="1280"
     inkscape:pageshadow="2"
     inkscape:pageopacity="0"
     guidetolerance="10"
     gridtolerance="10"
     objecttolerance="10"
     borderopacity="1"
     bordercolor="#666666"
     pagecolor="#ffffff" />
  <defs
     id="defs5">
    <clipPath
       id="clip1400">
      <rect
         id="rect2"
         height="12800"
         width="19200"
         y="0"
         x="0" />
    </clipPath>
  </defs>
  <path
     id="path7"
     fill-opacity="1"
     fill-rule="evenodd"
     fill="#ffffff"
     d=" M0 12800 L19200 12800 L19200 0 L0 0  Z   "
     clip-path="url(#clip1400)" />
  <defs
     id="defs12">
    <clipPath
       id="clip1401">
      <rect
         id="rect9"
         height="12800"
         width="13441"
         y="0"
         x="3840" />
    </clipPath>
  </defs>
  <path
     id="path14"
     fill-opacity="1"
     fill-rule="evenodd"
     fill="#ffffff"
     d=" M1582.82 11385.4 L18822 11385.4 L18822 377.953 L1582.82 377.953  Z   "
     clip-path="url(#clip1400)" />
  <defs
     id="defs19">
    <clipPath
       id="clip1402">
      <rect
         id="rect16"
         height="11008"
         width="17240"
         y="377"
         x="1582" />
    </clipPath>
  </defs>
  <polyline
     id="polyline21"
     points="   1738.82,11385.4 1738.82,377.953    "
     style="stroke:#000000; stroke-width:16; stroke-opacity:0.1; fill:none"
     clip-path="url(#clip1402)" />
  <polyline
     id="polyline23"
     points="   5057.88,11385.4 5057.88,377.953    "
     style="stroke:#000000; stroke-width:16; stroke-opacity:0.1; fill:none"
     clip-path="url(#clip1402)" />
  <polyline
     id="polyline25"
     points="   8376.95,11385.4 8376.95,377.953    "
     style="stroke:#000000; stroke-width:16; stroke-opacity:0.1; fill:none"
     clip-path="url(#clip1402)" />
  <polyline
     id="polyline27"
     points="   11696,11385.4 11696,377.953    "
     style="stroke:#000000; stroke-width:16; stroke-opacity:0.1; fill:none"
     clip-path="url(#clip1402)" />
  <polyline
     id="polyline29"
     points="   15015.1,11385.4 15015.1,377.953    "
     style="stroke:#000000; stroke-width:16; stroke-opacity:0.1; fill:none"
     clip-path="url(#clip1402)" />
  <polyline
     id="polyline31"
     points="   18334.1,11385.4 18334.1,377.953    "
     style="stroke:#000000; stroke-width:16; stroke-opacity:0.1; fill:none"
     clip-path="url(#clip1402)" />
  <polyline
     id="polyline33"
     points="   1582.82,11073.9 18822,11073.9    "
     style="stroke:#000000; stroke-width:16; stroke-opacity:0.1; fill:none"
     clip-path="url(#clip1402)" />
  <polyline
     id="polyline35"
     points="   1582.82,9513.13 18822,9513.13    "
     style="stroke:#000000; stroke-width:16; stroke-opacity:0.1; fill:none"
     clip-path="url(#clip1402)" />
  <polyline
     id="polyline37"
     points="   1582.82,7952.36 18822,7952.36    "
     style="stroke:#000000; stroke-width:16; stroke-opacity:0.1; fill:none"
     clip-path="url(#clip1402)" />
  <polyline
     id="polyline39"
     points="   1582.82,6391.58 18822,6391.58    "
     style="stroke:#000000; stroke-width:16; stroke-opacity:0.1; fill:none"
     clip-path="url(#clip1402)" />
  <polyline
     id="polyline41"
     points="   1582.82,4830.81 18822,4830.81    "
     style="stroke:#000000; stroke-width:16; stroke-opacity:0.1; fill:none"
     clip-path="url(#clip1402)" />
  <polyline
     id="polyline43"
     points="   1582.82,3270.03 18822,3270.03    "
     style="stroke:#000000; stroke-width:16; stroke-opacity:0.1; fill:none"
     clip-path="url(#clip1402)" />
  <polyline
     id="polyline45"
     points="   1582.82,3270.03 18822,3270.03    "
     style="stroke:#000000; stroke-width:16; stroke-opacity:0.1; fill:none"
     clip-path="url(#clip1402)" />
  <polyline
     id="polyline47"
     points="   1582.82,11385.4 18822,11385.4    "
     style="stroke:#000000; stroke-width:32; stroke-opacity:1; fill:none"
     clip-path="url(#clip1400)" />
  <polyline
     id="polyline49"
     points="   1582.82,11385.4 1582.82,377.953    "
     style="stroke:#000000; stroke-width:32; stroke-opacity:1; fill:none"
     clip-path="url(#clip1400)" />
  <polyline
     id="polyline51"
     points="   1738.82,11385.4 1738.82,11253.3    "
     style="stroke:#000000; stroke-width:32; stroke-opacity:1; fill:none"
     clip-path="url(#clip1400)" />
  <polyline
     id="polyline53"
     points="   5057.88,11385.4 5057.88,11253.3    "
     style="stroke:#000000; stroke-width:32; stroke-opacity:1; fill:none"
     clip-path="url(#clip1400)" />
  <polyline
     id="polyline55"
     points="   8376.95,11385.4 8376.95,11253.3    "
     style="stroke:#000000; stroke-width:32; stroke-opacity:1; fill:none"
     clip-path="url(#clip1400)" />
  <polyline
     id="polyline57"
     points="   11696,11385.4 11696,11253.3    "
     style="stroke:#000000; stroke-width:32; stroke-opacity:1; fill:none"
     clip-path="url(#clip1400)" />
  <polyline
     id="polyline59"
     points="   15015.1,11385.4 15015.1,11253.3    "
     style="stroke:#000000; stroke-width:32; stroke-opacity:1; fill:none"
     clip-path="url(#clip1400)" />
  <polyline
     id="polyline61"
     points="   18334.1,11385.4 18334.1,11253.3    "
     style="stroke:#000000; stroke-width:32; stroke-opacity:1; fill:none"
     clip-path="url(#clip1400)" />
  <polyline
     id="polyline63"
     points="   1582.82,11073.9 1789.69,11073.9    "
     style="stroke:#000000; stroke-width:32; stroke-opacity:1; fill:none"
     clip-path="url(#clip1400)" />
  <polyline
     id="polyline65"
     points="   1582.82,9513.13 1789.69,9513.13    "
     style="stroke:#000000; stroke-width:32; stroke-opacity:1; fill:none"
     clip-path="url(#clip1400)" />
  <polyline
     id="polyline67"
     points="   1582.82,7952.36 1789.69,7952.36    "
     style="stroke:#000000; stroke-width:32; stroke-opacity:1; fill:none"
     clip-path="url(#clip1400)" />
  <polyline
     id="polyline69"
     points="   1582.82,6391.58 1789.69,6391.58    "
     style="stroke:#000000; stroke-width:32; stroke-opacity:1; fill:none"
     clip-path="url(#clip1400)" />
  <polyline
     id="polyline71"
     points="   1582.82,4830.81 1789.69,4830.81    "
     style="stroke:#000000; stroke-width:32; stroke-opacity:1; fill:none"
     clip-path="url(#clip1400)" />
  <polyline
     id="polyline73"
     points="   1582.82,3270.03 1789.69,3270.03    "
     style="stroke:#000000; stroke-width:32; stroke-opacity:1; fill:none"
     clip-path="url(#clip1400)" />
  <polyline
     id="polyline75"
     points="   1582.82,3270.03 1789.69,3270.03    "
     style="stroke:#000000; stroke-width:32; stroke-opacity:1; fill:none"
     clip-path="url(#clip1400)" />
  <path
     id="path77"
     fill-opacity="1"
     fill-rule="evenodd"
     fill="#000000"
     d="M 0 0 M1738.82 11561.4 Q1709.93 11561.4 1695.3 11589.9 Q1680.85 11618.2 1680.85 11675.3 Q1680.85 11732.1 1695.3 11760.6 Q1709.93 11789 1738.82 11789 Q1767.89 11789 1782.33 11760.6 Q1796.96 11732.1 1796.96 11675.3 Q1796.96 11618.2 1782.33 11589.9 Q1767.89 11561.4 1738.82 11561.4 M1738.82 11531.7 Q1785.3 11531.7 1809.74 11568.6 Q1834.37 11605.3 1834.37 11675.3 Q1834.37 11745.1 1809.74 11781.9 Q1785.3 11818.6 1738.82 11818.6 Q1692.33 11818.6 1667.71 11781.9 Q1643.26 11745.1 1643.26 11675.3 Q1643.26 11605.3 1667.71 11568.6 Q1692.33 11531.7 1738.82 11531.7 Z"
     clip-path="url(#clip1400)" />
  <path
     id="path79"
     fill-opacity="1"
     fill-rule="evenodd"
     fill="#000000"
     d="M 0 0 M4980.94 11781.7 L5042.05 11781.7 L5042.05 11570.8 L4975.57 11584.1 L4975.57 11550.1 L5041.68 11536.7 L5079.09 11536.7 L5079.09 11781.7 L5140.2 11781.7 L5140.2 11813.2 L4980.94 11813.2 L4980.94 11781.7 Z"
     clip-path="url(#clip1400)" />
  <path
     id="path81"
     fill-opacity="1"
     fill-rule="evenodd"
     fill="#000000"
     d="M 0 0 M8334.17 11781.7 L8464.72 11781.7 L8464.72 11813.2 L8289.17 11813.2 L8289.17 11781.7 Q8310.47 11759.7 8347.13 11722.7 Q8383.98 11685.4 8393.43 11674.7 Q8411.39 11654.5 8418.43 11640.6 Q8425.65 11626.5 8425.65 11613 Q8425.65 11591 8410.1 11577.1 Q8394.73 11563.2 8369.91 11563.2 Q8352.32 11563.2 8332.69 11569.3 Q8313.24 11575.4 8291.02 11587.8 L8291.02 11550.1 Q8313.61 11541 8333.24 11536.4 Q8352.87 11531.7 8369.17 11531.7 Q8412.13 11531.7 8437.69 11553.2 Q8463.24 11574.7 8463.24 11610.6 Q8463.24 11627.7 8456.76 11643 Q8450.47 11658.2 8433.61 11679 Q8428.98 11684.3 8404.17 11710.1 Q8379.35 11735.6 8334.17 11781.7 Z"
     clip-path="url(#clip1400)" />
  <path
     id="path83"
     fill-opacity="1"
     fill-rule="evenodd"
     fill="#000000"
     d="M 0 0 M11730 11664.1 Q11756.8 11669.9 11771.8 11688 Q11787 11706.2 11787 11732.8 Q11787 11773.8 11758.9 11796.2 Q11730.7 11818.6 11678.9 11818.6 Q11661.5 11818.6 11643 11815.1 Q11624.6 11811.7 11605 11804.9 L11605 11768.8 Q11620.6 11777.8 11639.1 11782.5 Q11657.6 11787.1 11677.8 11787.1 Q11713 11787.1 11731.3 11773.2 Q11749.8 11759.3 11749.8 11732.8 Q11749.8 11708.4 11732.6 11694.7 Q11715.6 11680.8 11685 11680.8 L11652.8 11680.8 L11652.8 11650.1 L11686.5 11650.1 Q11714.1 11650.1 11728.7 11639.1 Q11743.3 11628 11743.3 11607.3 Q11743.3 11586 11728.1 11574.7 Q11713.1 11563.2 11685 11563.2 Q11669.6 11563.2 11652 11566.5 Q11634.4 11569.9 11613.3 11576.9 L11613.3 11543.6 Q11634.6 11537.7 11653.1 11534.7 Q11671.8 11531.7 11688.3 11531.7 Q11730.9 11531.7 11755.7 11551.2 Q11780.5 11570.4 11780.5 11603.4 Q11780.5 11626.4 11767.4 11642.3 Q11754.3 11658 11730 11664.1 Z"
     clip-path="url(#clip1400)" />
  <path
     id="path85"
     fill-opacity="1"
     fill-rule="evenodd"
     fill="#000000"
     d="M 0 0 M15039.2 11569.3 L14944.7 11716.9 L15039.2 11716.9 L15039.2 11569.3 M15029.3 11536.7 L15076.4 11536.7 L15076.4 11716.9 L15115.8 11716.9 L15115.8 11748 L15076.4 11748 L15076.4 11813.2 L15039.2 11813.2 L15039.2 11748 L14914.3 11748 L14914.3 11711.9 L15029.3 11536.7 Z"
     clip-path="url(#clip1400)" />
  <path
     id="path87"
     fill-opacity="1"
     fill-rule="evenodd"
     fill="#000000"
     d="M 0 0 M18256.4 11536.7 L18403.2 11536.7 L18403.2 11568.2 L18290.6 11568.2 L18290.6 11636 Q18298.8 11633.2 18306.9 11631.9 Q18315.1 11630.4 18323.2 11630.4 Q18369.5 11630.4 18396.6 11655.8 Q18423.6 11681.2 18423.6 11724.5 Q18423.6 11769.1 18395.8 11794 Q18368 11818.6 18317.5 11818.6 Q18300.1 11818.6 18281.9 11815.6 Q18264 11812.7 18244.7 11806.7 L18244.7 11769.1 Q18261.4 11778.2 18279.1 11782.7 Q18296.9 11787.1 18316.7 11787.1 Q18348.8 11787.1 18367.5 11770.3 Q18386.2 11753.4 18386.2 11724.5 Q18386.2 11695.6 18367.5 11678.8 Q18348.8 11661.9 18316.7 11661.9 Q18301.7 11661.9 18286.7 11665.3 Q18271.9 11668.6 18256.4 11675.6 L18256.4 11536.7 Z"
     clip-path="url(#clip1400)" />
  <path
     id="path89"
     fill-opacity="1"
     fill-rule="evenodd"
     fill="#000000"
     d="M 0 0 M1295.26 10960.3 Q1266.38 10960.3 1251.75 10988.8 Q1237.3 11017.1 1237.3 11074.2 Q1237.3 11131 1251.75 11159.6 Q1266.38 11187.9 1295.26 11187.9 Q1324.34 11187.9 1338.78 11159.6 Q1353.41 11131 1353.41 11074.2 Q1353.41 11017.1 1338.78 10988.8 Q1324.34 10960.3 1295.26 10960.3 M1295.26 10930.7 Q1341.75 10930.7 1366.19 10967.5 Q1390.82 11004.2 1390.82 11074.2 Q1390.82 11144 1366.19 11180.8 Q1341.75 11217.5 1295.26 11217.5 Q1248.78 11217.5 1224.15 11180.8 Q1199.71 11144 1199.71 11074.2 Q1199.71 11004.2 1224.15 10967.5 Q1248.78 10930.7 1295.26 10930.7 Z"
     clip-path="url(#clip1400)" />
  <path
     id="path91"
     fill-opacity="1"
     fill-rule="evenodd"
     fill="#000000"
     d="M 0 0 M1260.27 9619.89 L1390.82 9619.89 L1390.82 9651.37 L1215.27 9651.37 L1215.27 9619.89 Q1236.56 9597.85 1273.23 9560.82 Q1310.08 9523.59 1319.52 9512.85 Q1337.49 9492.67 1344.52 9478.78 Q1351.75 9464.71 1351.75 9451.19 Q1351.75 9429.15 1336.19 9415.26 Q1320.82 9401.37 1296.01 9401.37 Q1278.41 9401.37 1258.78 9407.48 Q1239.34 9413.6 1217.12 9426 L1217.12 9388.22 Q1239.71 9379.15 1259.34 9374.52 Q1278.97 9369.89 1295.26 9369.89 Q1338.23 9369.89 1363.78 9391.37 Q1389.34 9412.85 1389.34 9448.78 Q1389.34 9465.82 1382.86 9481.19 Q1376.56 9496.37 1359.71 9517.11 Q1355.08 9522.48 1330.26 9548.22 Q1305.45 9573.78 1260.27 9619.89 Z"
     clip-path="url(#clip1400)" />
  <path
     id="path93"
     fill-opacity="1"
     fill-rule="evenodd"
     fill="#000000"
     d="M 0 0 M1314.15 7846.71 L1219.71 7994.3 L1314.15 7994.3 L1314.15 7846.71 M1304.34 7814.12 L1351.38 7814.12 L1351.38 7994.3 L1390.82 7994.3 L1390.82 8025.41 L1351.38 8025.41 L1351.38 8090.6 L1314.15 8090.6 L1314.15 8025.41 L1189.34 8025.41 L1189.34 7989.3 L1304.34 7814.12 Z"
     clip-path="url(#clip1400)" />
  <path
     id="path95"
     fill-opacity="1"
     fill-rule="evenodd"
     fill="#000000"
     d="M 0 0 M1298.6 6376.68 Q1273.41 6376.68 1258.6 6393.9 Q1243.97 6411.12 1243.97 6441.12 Q1243.97 6470.93 1258.6 6488.34 Q1273.41 6505.56 1298.6 6505.56 Q1323.78 6505.56 1338.41 6488.34 Q1353.23 6470.93 1353.23 6441.12 Q1353.23 6411.12 1338.41 6393.9 Q1323.78 6376.68 1298.6 6376.68 M1372.86 6259.45 L1372.86 6293.53 Q1358.78 6286.86 1344.34 6283.34 Q1330.08 6279.82 1316.01 6279.82 Q1278.97 6279.82 1259.34 6304.82 Q1239.89 6329.82 1237.12 6380.38 Q1248.04 6364.27 1264.52 6355.75 Q1281.01 6347.05 1300.82 6347.05 Q1342.49 6347.05 1366.56 6372.42 Q1390.82 6397.6 1390.82 6441.12 Q1390.82 6483.71 1365.63 6509.45 Q1340.45 6535.19 1298.6 6535.19 Q1250.64 6535.19 1225.27 6498.53 Q1199.9 6461.67 1199.9 6391.86 Q1199.9 6326.31 1231.01 6287.42 Q1262.12 6248.34 1314.52 6248.34 Q1328.6 6248.34 1342.86 6251.12 Q1357.3 6253.9 1372.86 6259.45 Z"
     clip-path="url(#clip1400)" />
  <path
     id="path97"
     fill-opacity="1"
     fill-rule="evenodd"
     fill="#000000"
     d="M 0 0 M1296.01 4837.75 Q1269.34 4837.75 1253.97 4852.01 Q1238.78 4866.27 1238.78 4891.27 Q1238.78 4916.27 1253.97 4930.53 Q1269.34 4944.79 1296.01 4944.79 Q1322.67 4944.79 1338.04 4930.53 Q1353.41 4916.09 1353.41 4891.27 Q1353.41 4866.27 1338.04 4852.01 Q1322.86 4837.75 1296.01 4837.75 M1258.6 4821.83 Q1234.52 4815.9 1221.01 4799.42 Q1207.67 4782.94 1207.67 4759.23 Q1207.67 4726.09 1231.19 4706.83 Q1254.89 4687.57 1296.01 4687.57 Q1337.3 4687.57 1360.82 4706.83 Q1384.34 4726.09 1384.34 4759.23 Q1384.34 4782.94 1370.82 4799.42 Q1357.49 4815.9 1333.6 4821.83 Q1360.63 4828.12 1375.63 4846.46 Q1390.82 4864.79 1390.82 4891.27 Q1390.82 4931.46 1366.19 4952.94 Q1341.75 4974.42 1296.01 4974.42 Q1250.27 4974.42 1225.64 4952.94 Q1201.19 4931.46 1201.19 4891.27 Q1201.19 4864.79 1216.38 4846.46 Q1231.56 4828.12 1258.6 4821.83 M1244.89 4762.75 Q1244.89 4784.23 1258.23 4796.27 Q1271.75 4808.31 1296.01 4808.31 Q1320.08 4808.31 1333.6 4796.27 Q1347.3 4784.23 1347.3 4762.75 Q1347.3 4741.27 1333.6 4729.23 Q1320.08 4717.2 1296.01 4717.2 Q1271.75 4717.2 1258.23 4729.23 Q1244.89 4741.27 1244.89 4762.75 Z"
     clip-path="url(#clip1400)" />
  <path
     id="path99"
     fill-opacity="1"
     fill-rule="evenodd"
     fill="#000000"
     d="M 0 0 M1015.45 3376.79 L1076.56 3376.79 L1076.56 3165.87 L1010.08 3179.2 L1010.08 3145.13 L1076.19 3131.79 L1113.6 3131.79 L1113.6 3376.79 L1174.71 3376.79 L1174.71 3408.27 L1015.45 3408.27 L1015.45 3376.79 Z"
     clip-path="url(#clip1400)" />
  <path
     id="path101"
     fill-opacity="1"
     fill-rule="evenodd"
     fill="#000000"
     d="M 0 0 M1295.26 3156.42 Q1266.38 3156.42 1251.75 3184.94 Q1237.3 3213.27 1237.3 3270.31 Q1237.3 3327.16 1251.75 3355.68 Q1266.38 3384.01 1295.26 3384.01 Q1324.34 3384.01 1338.78 3355.68 Q1353.41 3327.16 1353.41 3270.31 Q1353.41 3213.27 1338.78 3184.94 Q1324.34 3156.42 1295.26 3156.42 M1295.26 3126.79 Q1341.75 3126.79 1366.19 3163.65 Q1390.82 3200.31 1390.82 3270.31 Q1390.82 3340.13 1366.19 3376.98 Q1341.75 3413.64 1295.26 3413.64 Q1248.78 3413.64 1224.15 3376.98 Q1199.71 3340.13 1199.71 3270.31 Q1199.71 3200.31 1224.15 3163.65 Q1248.78 3126.79 1295.26 3126.79 Z"
     clip-path="url(#clip1400)" />
  <path
     id="path103"
     fill-opacity="1"
     fill-rule="evenodd"
     fill="#000000"
     d="M 0 0 M1015.45 3376.79 L1076.56 3376.79 L1076.56 3165.87 L1010.08 3179.2 L1010.08 3145.13 L1076.19 3131.79 L1113.6 3131.79 L1113.6 3376.79 L1174.71 3376.79 L1174.71 3408.27 L1015.45 3408.27 L1015.45 3376.79 Z"
     clip-path="url(#clip1400)" />
  <path
     id="path105"
     fill-opacity="1"
     fill-rule="evenodd"
     fill="#000000"
     d="M 0 0 M1295.26 3156.42 Q1266.38 3156.42 1251.75 3184.94 Q1237.3 3213.27 1237.3 3270.31 Q1237.3 3327.16 1251.75 3355.68 Q1266.38 3384.01 1295.26 3384.01 Q1324.34 3384.01 1338.78 3355.68 Q1353.41 3327.16 1353.41 3270.31 Q1353.41 3213.27 1338.78 3184.94 Q1324.34 3156.42 1295.26 3156.42 M1295.26 3126.79 Q1341.75 3126.79 1366.19 3163.65 Q1390.82 3200.31 1390.82 3270.31 Q1390.82 3340.13 1366.19 3376.98 Q1341.75 3413.64 1295.26 3413.64 Q1248.78 3413.64 1224.15 3376.98 Q1199.71 3340.13 1199.71 3270.31 Q1199.71 3200.31 1224.15 3163.65 Q1248.78 3126.79 1295.26 3126.79 Z"
     clip-path="url(#clip1400)" />
  <path
     id="path107"
     fill-opacity="1"
     fill-rule="evenodd"
     fill="#000000"
     d="M 0 0 M10041.6 12068.2 L10363.2 12068.2 L10363.2 12111.5 L10228.3 12111.5 L10228.3 12448.4 L10176.6 12448.4 L10176.6 12111.5 L10041.6 12111.5 L10041.6 12068.2 Z"
     clip-path="url(#clip1400)" />
  <path
     id="path109"
     fill-opacity="1"
     fill-rule="evenodd"
     fill="#000000"
     d="M 0 0 M353.156 5919.51 L407.391 5919.51 Q383.202 5945.48 371.234 5975.02 Q359.267 6004.3 359.267 6037.4 Q359.267 6102.59 399.243 6137.22 Q438.965 6171.84 514.335 6171.84 Q589.451 6171.84 629.427 6137.22 Q669.149 6102.59 669.149 6037.4 Q669.149 6004.3 657.182 5975.02 Q645.214 5945.48 621.024 5919.51 L674.751 5919.51 Q693.084 5946.5 702.251 5976.8 Q711.417 6006.85 711.417 6040.46 Q711.417 6126.78 658.709 6176.43 Q605.747 6226.08 514.335 6226.08 Q422.669 6226.08 369.961 6176.43 Q316.998 6126.78 316.998 6040.46 Q316.998 6006.34 326.165 5976.29 Q335.077 5945.99 353.156 5919.51 Z"
     clip-path="url(#clip1400)" />
  <path
     id="path111"
     fill-opacity="1"
     fill-rule="evenodd"
     fill="#000000"
     d="M 0 0 M531.905 5633.31 L704.033 5633.31 L704.033 5680.16 L533.432 5680.16 Q492.946 5680.16 472.831 5695.94 Q452.715 5711.73 452.715 5743.31 Q452.715 5781.24 476.905 5803.14 Q501.095 5825.04 542.854 5825.04 L704.033 5825.04 L704.033 5872.15 L307.832 5872.15 L307.832 5825.04 L463.155 5825.04 Q437.437 5808.24 424.706 5785.57 Q411.975 5762.66 411.975 5732.87 Q411.975 5683.72 442.53 5658.51 Q472.831 5633.31 531.905 5633.31 Z"
     clip-path="url(#clip1400)" />
  <path
     id="path113"
     fill-opacity="1"
     fill-rule="evenodd"
     fill="#000000"
     d="M 0 0 M418.85 5584.16 L418.85 5537.31 L704.033 5537.31 L704.033 5584.16 L418.85 5584.16 M307.832 5584.16 L307.832 5537.31 L367.16 5537.31 L367.16 5584.16 L307.832 5584.16 Z"
     clip-path="url(#clip1400)" />
  <polyline
     id="polyline115"
     points="   2070.72,11073.9 2111.48,11073.9 2152.24,11073.9 2193,11073.9 2233.76,11073.9 2274.52,11073.9 2315.29,11073.9 2356.05,11073.9 2396.81,11073.9 2437.57,11073.9    2478.33,11073.9 2519.09,11073.9 2559.85,11073.9 2600.61,11073.9 2641.37,11073.9 2682.13,11073.9 2722.89,11073.9 2763.65,11073.9 2804.41,11073.9 2845.17,11073.9    2885.93,11073.9 2926.69,11073.9 2967.45,11073.9 3008.21,11073.9 3048.97,11073.9 3089.73,11073.9 3130.49,11073.9 3171.25,11073.9 3212.02,11073.9 3252.78,11073.9    3293.54,11073.9 3334.3,11073.9 3375.06,11073.9 3415.82,11073.9 3456.58,11073.9 3497.34,11073.9 3538.1,11073.9 3578.86,11073.9 3619.62,11073.9 3660.38,11073.9    3701.14,11073.9 3741.9,11073.9 3782.66,11073.9 3823.42,11073.9 3864.18,11073.9 3904.94,11073.9 3945.7,11073.9 3986.46,11073.9 4027.22,11073.9 4067.98,11073.9    4108.75,11073.9 4149.51,11073.8 4190.27,11073.8 4231.03,11073.8 4271.79,11073.8 4312.55,11073.8 4353.31,11073.7 4394.07,11073.7 4434.83,11073.7 4475.59,11073.7    4516.35,11073.6 4557.11,11073.6 4597.87,11073.5 4638.63,11073.5 4679.39,11073.5 4720.15,11073.4 4760.91,11073.3 4801.67,11073.3 4842.43,11073.2 4883.19,11073.1    4923.95,11073 4964.71,11073 5005.48,11072.8 5046.24,11072.7 5087,11072.6 5127.76,11072.5 5168.52,11072.3 5209.28,11072.2 5250.04,11072 5290.8,11071.9    5331.56,11071.7 5372.32,11071.5 5413.08,11071.3 5453.84,11071.1 5494.6,11070.8 5535.36,11070.8 5576.12,11070.5 5616.88,11070.2 5657.64,11069.7 5698.4,11069.4    5739.16,11069.2 5779.92,11068.7 5820.68,11068.5 5861.45,11068 5902.21,11067.4 5942.97,11067.1 5983.73,11066.5 6024.49,11066.4 6065.25,11065.9 6106.01,11065.5    6146.77,11064.9 6187.53,11064 6228.29,11063.7 6269.05,11063.4 6309.81,11062.2 6350.57,11061.5 6391.33,11060.9 6432.09,11058.4 6472.85,11058.7 6513.61,11058.2    6554.37,11057.4 6595.13,11056.3 6635.89,11055.2 6676.65,11053.1 6717.41,11052.4 6758.18,11051.3 6798.94,11050.8 6839.7,11049.9 6880.46,11047.6 6921.22,11044.2    6961.98,11043 7002.74,11043.2 7043.5,11039.7 7084.26,11038.7 7125.02,11039.6 7165.78,11033.1 7206.54,11033.8 7247.3,11031.5 7288.06,11028.6 7328.82,11024.3    7369.58,11018.9 7410.34,11017.1 7451.1,11013.6 7491.86,11010.5 7532.62,10994 7573.38,11004.7 7614.14,10985.7 7654.91,10979.5 7695.67,10986.1 7736.43,10983.1    7777.19,10986.6 7817.95,10967.7 7858.71,10962.4 7899.47,10961.2 7940.23,10949 7980.99,10940.6 8021.75,10913.6 8062.51,10927.7 8103.27,10904.3 8144.03,10887.1    8184.79,10869 8225.55,10852.1 8266.31,10868.1 8307.07,10789.8 8347.83,10849.4 8388.59,10763.3 8429.35,10713.6 8470.11,10700.3 8510.87,10587.5 8551.64,10461.3    8592.4,10599.6 8633.16,10395.3 8673.92,10631.4 8714.68,10377.6 8755.44,9554.41 8796.2,10100.2 8836.96,10298.8 8877.72,10123.9 8918.48,7618.63 8959.24,8692.52    9000,9279.16 9040.76,9083.11 9081.52,9449.2 9122.28,7011.19 9163.04,4767.07 9203.8,2841.36 9244.56,6698.91 9285.32,1970.44 9326.08,2687.14 9366.84,4929.32    9407.6,3846.19 9448.37,4141 9489.13,689.485 9529.89,1152.89 9570.65,1762.49 9611.41,1666.41 9652.17,689.906 9692.93,2283.65 9733.69,1590.65 9774.45,3728.54    9815.21,2803.13 9855.97,3392.78 9896.73,4060.7 9937.49,4230.82 9978.25,5145.93 10019,5242.43 10059.8,5452.68 10100.5,5209.63 10141.3,6107.31 10182.1,6361.19    10222.8,6831.62 10263.6,7688.94 10304.3,7300.43 10345.1,7779 10385.9,7519.43 10426.6,7364.36 10467.4,7821.3 10508.1,8017.51 10548.9,8277.07 10589.7,8214.18    10630.4,8535.76 10671.2,8842.6 10711.9,8703.2 10752.7,8685.98 10793.5,8857.53 10834.2,9206.97 10875,9138.12 10915.7,8988.18 10956.5,9299.46 10997.3,9161.87    11038,9365.05 11078.8,9405.81 11119.5,9508.63 11160.3,9417.13 11201.1,9579.57 11241.8,9445.03 11282.6,9593.11 11323.3,9665.08 11364.1,9588.57 11404.9,9744.97    11445.6,9772.06 11486.4,9937.42 11527.1,9986.31 11567.9,9799.79 11608.7,9984.48 11649.4,10017.7 11690.2,10098 11731,9924.99 11771.7,10025.5 11812.5,10113.9    11853.2,10140.8 11894,10102.5 11934.8,10120.5 11975.5,10191 12016.3,10181 12057,10152.7 12097.8,10235.1 12138.6,10189.4 12179.3,10275.8 12220.1,10279.9    12260.8,10362.8 12301.6,10278.1 12342.4,10309.4 12383.1,10339.5 12423.9,10329.1 12464.6,10383.2 12505.4,10398 12546.2,10399.6 12586.9,10413.9 12627.7,10450.5    12668.4,10429.4 12709.2,10433.1 12750,10438 12790.7,10488.5 12831.5,10460.1 12872.2,10465.2 12913,10482.1 12953.8,10475.3 12994.5,10516.7 13035.3,10525.9    13076,10533.4 13116.8,10567.9 13157.6,10535.6 13198.3,10529.3 13239.1,10551.2 13279.8,10580.9 13320.6,10560.4 13361.4,10573.6 13402.1,10571 13442.9,10603.6    13483.7,10560.2 13524.4,10597.4 13565.2,10609.7 13605.9,10632.7 13646.7,10632.8 13687.5,10616.9 13728.2,10618.6 13769,10654.6 13809.7,10639.1 13850.5,10668.6    13891.3,10666.7 13932,10680 13972.8,10673.5 14013.5,10681.5 14054.3,10675.8 14095.1,10686 14135.8,10698.6 14176.6,10681.7 14217.3,10702.5 14258.1,10718.8    14298.9,10710.2 14339.6,10688.8 14380.4,10712.9 14421.1,10699.5 14461.9,10716.7 14502.7,10727.5 14543.4,10736.1 14584.2,10735.3 14624.9,10729.6 14665.7,10739.7    14706.5,10751 14747.2,10747.4 14788,10764.3 14828.7,10743.9 14869.5,10777.9 14910.3,10758.9 14951,10774.5 14991.8,10786.3 15032.5,10767.2 15073.3,10777.8    15114.1,10782.2 15154.8,10784 15195.6,10783.2 15236.3,10778 15277.1,10798.6 15317.9,10801.3 15358.6,10789.7 15399.4,10789.2 15440.2,10802.5 15480.9,10814.4    15521.7,10812.4 15562.4,10806.7 15603.2,10805.8 15644,10816.6 15684.7,10813.4 15725.5,10820.8 15766.2,10809.8 15807,10813.4 15847.8,10826.4 15888.5,10818.2    15929.3,10811.1 15970,10830.7 16010.8,10831.4 16051.6,10836.4 16092.3,10840.8 16133.1,10825.3 16173.8,10832.7 16214.6,10836.4 16255.4,10848.8 16296.1,10859    16336.9,10852.4 16377.6,10841.1 16418.4,10863.3 16459.2,10853.7 16499.9,10859.7 16540.7,10854.2 16581.4,10855.9 16622.2,10861.8 16663,10861.9 16703.7,10854.7    16744.5,10857.2 16785.2,10868.7 16826,10871 16866.8,10863.8 16907.5,10865.7 16948.3,10863.7 16989,10872 17029.8,10875.9 17070.6,10872 17111.3,10878.9    17152.1,10881.1 17192.9,10875.6 17233.6,10885.6 17274.4,10884 17315.1,10878.4 17355.9,10879.2 17396.7,10881.9 17437.4,10880.8 17478.2,10885.7 17518.9,10889.6    17559.7,10891.9 17600.5,10894.6 17641.2,10892.9 17682,10893.7 17722.7,10891 17763.5,10898.4 17804.3,10901.8 17845,10897.1 17885.8,10895.6 17926.5,10904.7    17967.3,10902.7 18008.1,10904.3 18048.8,10908.9 18089.6,10910.8 18130.3,10912.8 18171.1,10905 18211.9,10905.6 18252.6,10912.1 18293.4,10907.8 18334.1,10907.2       "
     style="stroke:#009af9; stroke-width:48; stroke-opacity:1; fill:none"
     clip-path="url(#clip1402)" />
  <polyline
     transform="matrix(1,0,0,1.0326893,0,-74.650873)"
     id="polyline117"
     points="   9692.93,2283.65 9692.93,11073.9    "
     style="fill:none;stroke:#e26f46;stroke-width:32.00115875;stroke-opacity:1;stroke-miterlimit:4;stroke-dasharray:256.00927013,32.00115875;stroke-dashoffset:0"
     clip-path="url(#clip1402)" />
  <path
     id="path119"
     fill-opacity="1"
     fill-rule="evenodd"
     fill="#ffffff"
     d=" M15030.1 2497.63 L18246 2497.63 L18246 1046.11 L15030.1 1046.11  Z   "
     clip-path="url(#clip1400)" />
  <polyline
     id="polyline121"
     points="   15030.1,2497.63 18246,2497.63 18246,1046.11 15030.1,1046.11 15030.1,2497.63    "
     style="stroke:#000000; stroke-width:32; stroke-opacity:1; fill:none"
     clip-path="url(#clip1400)" />
  <polyline
     id="polyline123"
     points="   15222.1,1529.95 16374.1,1529.95    "
     style="stroke:#009af9; stroke-width:48; stroke-opacity:1; fill:none"
     clip-path="url(#clip1400)" />
  <path
     id="path125"
     fill-opacity="1"
     fill-rule="evenodd"
     fill="#000000"
     d="M 0 0 M16789.1 1413.01 L16789.1 1452.45 Q16770.2 1434.86 16748.7 1426.16 Q16727.4 1417.45 16703.3 1417.45 Q16655.9 1417.45 16630.8 1446.53 Q16605.6 1475.42 16605.6 1530.23 Q16605.6 1584.86 16630.8 1613.93 Q16655.9 1642.82 16703.3 1642.82 Q16727.4 1642.82 16748.7 1634.12 Q16770.2 1625.42 16789.1 1607.82 L16789.1 1646.9 Q16769.5 1660.23 16747.4 1666.9 Q16725.6 1673.56 16701.1 1673.56 Q16638.4 1673.56 16602.2 1635.23 Q16566.1 1596.71 16566.1 1530.23 Q16566.1 1463.56 16602.2 1425.23 Q16638.4 1386.71 16701.1 1386.71 Q16725.9 1386.71 16747.8 1393.38 Q16769.8 1399.86 16789.1 1413.01 Z"
     clip-path="url(#clip1400)" />
  <path
     id="path127"
     fill-opacity="1"
     fill-rule="evenodd"
     fill="#000000"
     d="M 0 0 M16997.2 1543.01 L16997.2 1668.19 L16963.2 1668.19 L16963.2 1544.12 Q16963.2 1514.68 16951.7 1500.05 Q16940.2 1485.42 16917.2 1485.42 Q16889.6 1485.42 16873.7 1503.01 Q16857.8 1520.6 16857.8 1550.97 L16857.8 1668.19 L16823.5 1668.19 L16823.5 1380.05 L16857.8 1380.05 L16857.8 1493.01 Q16870 1474.3 16886.5 1465.05 Q16903.2 1455.79 16924.8 1455.79 Q16960.6 1455.79 16978.9 1478.01 Q16997.2 1500.05 16997.2 1543.01 Z"
     clip-path="url(#clip1400)" />
  <path
     id="path129"
     fill-opacity="1"
     fill-rule="evenodd"
     fill="#000000"
     d="M 0 0 M17033 1460.79 L17067.1 1460.79 L17067.1 1668.19 L17033 1668.19 L17033 1460.79 M17033 1380.05 L17067.1 1380.05 L17067.1 1423.19 L17033 1423.19 L17033 1380.05 Z"
     clip-path="url(#clip1400)" />
  <path
     id="path131"
     fill-opacity="1"
     fill-rule="evenodd"
     fill="#000000"
     d="M 0 0 M17260.4 1731.16 L17260.4 1757.64 L17063.3 1757.64 L17063.3 1731.16 L17260.4 1731.16 Z"
     clip-path="url(#clip1400)" />
  <path
     id="path133"
     fill-opacity="1"
     fill-rule="evenodd"
     fill="#000000"
     d="M 0 0 M17428.3 1466.9 L17428.3 1499.12 Q17413.9 1491.71 17398.3 1488.01 Q17382.8 1484.3 17366.1 1484.3 Q17340.8 1484.3 17328 1492.08 Q17315.4 1499.86 17315.4 1515.42 Q17315.4 1527.27 17324.5 1534.12 Q17333.5 1540.79 17360.9 1546.9 L17372.6 1549.49 Q17408.9 1557.27 17424.1 1571.53 Q17439.5 1585.6 17439.5 1610.97 Q17439.5 1639.86 17416.5 1656.71 Q17393.7 1673.56 17353.7 1673.56 Q17337.1 1673.56 17318.9 1670.23 Q17300.9 1667.08 17280.9 1660.6 L17280.9 1625.42 Q17299.8 1635.23 17318.2 1640.23 Q17336.5 1645.04 17354.5 1645.04 Q17378.5 1645.04 17391.5 1636.9 Q17404.5 1628.56 17404.5 1613.56 Q17404.5 1599.67 17395 1592.27 Q17385.8 1584.86 17354.1 1578.01 L17342.2 1575.23 Q17310.6 1568.56 17296.5 1554.86 Q17282.4 1540.97 17282.4 1516.9 Q17282.4 1487.64 17303.2 1471.71 Q17323.9 1455.79 17362 1455.79 Q17380.9 1455.79 17397.6 1458.56 Q17414.3 1461.34 17428.3 1466.9 Z"
     clip-path="url(#clip1400)" />
  <path
     id="path135"
     fill-opacity="1"
     fill-rule="evenodd"
     fill="#000000"
     d="M 0 0 M17475.2 1460.79 L17509.3 1460.79 L17509.3 1668.19 L17475.2 1668.19 L17475.2 1460.79 M17475.2 1380.05 L17509.3 1380.05 L17509.3 1423.19 L17475.2 1423.19 L17475.2 1380.05 Z"
     clip-path="url(#clip1400)" />
  <path
     id="path137"
     fill-opacity="1"
     fill-rule="evenodd"
     fill="#000000"
     d="M 0 0 M17578.7 1401.9 L17578.7 1460.79 L17648.9 1460.79 L17648.9 1487.27 L17578.7 1487.27 L17578.7 1599.86 Q17578.7 1625.23 17585.6 1632.45 Q17592.6 1639.67 17613.9 1639.67 L17648.9 1639.67 L17648.9 1668.19 L17613.9 1668.19 Q17574.5 1668.19 17559.5 1653.56 Q17544.5 1638.75 17544.5 1599.86 L17544.5 1487.27 L17519.5 1487.27 L17519.5 1460.79 L17544.5 1460.79 L17544.5 1401.9 L17578.7 1401.9 Z"
     clip-path="url(#clip1400)" />
  <path
     id="path139"
     fill-opacity="1"
     fill-rule="evenodd"
     fill="#000000"
     d="M 0 0 M17862 1555.97 L17862 1572.64 L17705.4 1572.64 Q17707.6 1607.82 17726.5 1626.34 Q17745.6 1644.67 17779.5 1644.67 Q17799.1 1644.67 17817.4 1639.86 Q17835.9 1635.04 17854.1 1625.42 L17854.1 1657.64 Q17835.8 1665.41 17816.5 1669.49 Q17797.2 1673.56 17777.4 1673.56 Q17727.8 1673.56 17698.7 1644.67 Q17669.8 1615.79 17669.8 1566.53 Q17669.8 1515.6 17697.2 1485.79 Q17724.8 1455.79 17771.5 1455.79 Q17813.3 1455.79 17837.6 1482.82 Q17862 1509.68 17862 1555.97 M17828 1545.97 Q17827.6 1518.01 17812.2 1501.34 Q17797 1484.68 17771.9 1484.68 Q17743.3 1484.68 17726.1 1500.79 Q17709.1 1516.9 17706.5 1546.16 L17828 1545.97 Z"
     clip-path="url(#clip1400)" />
  <polyline
     id="polyline141"
     points="   15222.1,2013.79 16374.1,2013.79    "
     style="stroke:#e26f46; stroke-width:32; stroke-opacity:1; fill:none"
     clip-path="url(#clip1400)" />
  <path
     id="path143"
     fill-opacity="1"
     fill-rule="evenodd"
     fill="#000000"
     d="M 0 0 M16676.9 2171.29 Q16662.4 2208.33 16648.7 2219.62 Q16635 2230.92 16612.1 2230.92 L16584.8 2230.92 L16584.8 2202.4 L16604.8 2202.4 Q16618.9 2202.4 16626.7 2195.74 Q16634.5 2189.07 16643.9 2164.25 L16650 2148.7 L16566.1 1944.63 L16602.2 1944.63 L16667.1 2106.85 L16731.9 1944.63 L16768 1944.63 L16676.9 2171.29 Z"
     clip-path="url(#clip1400)" />
  <path
     id="path145"
     fill-opacity="1"
     fill-rule="evenodd"
     fill="#000000"
     d="M 0 0 M16840.8 2120.55 L16971.3 2120.55 L16971.3 2152.03 L16795.8 2152.03 L16795.8 2120.55 Q16817.1 2098.51 16853.7 2061.48 Q16890.6 2024.26 16900 2013.51 Q16918 1993.33 16925 1979.44 Q16932.2 1965.37 16932.2 1951.85 Q16932.2 1929.81 16916.7 1915.92 Q16901.3 1902.03 16876.5 1902.03 Q16858.9 1902.03 16839.3 1908.15 Q16819.8 1914.26 16797.6 1926.66 L16797.6 1888.89 Q16820.2 1879.81 16839.8 1875.18 Q16859.5 1870.55 16875.8 1870.55 Q16918.7 1870.55 16944.3 1892.03 Q16969.8 1913.52 16969.8 1949.44 Q16969.8 1966.48 16963.3 1981.85 Q16957.1 1997.03 16940.2 2017.77 Q16935.6 2023.14 16910.8 2048.89 Q16885.9 2074.44 16840.8 2120.55 Z"
     clip-path="url(#clip1400)" />
  <circle
     r="143.67346"
     cy="2259.5918"
     cx="9678.3672"
     id="path976"
     style="fill:#ff9955;fill-opacity:0.819277;stroke:#110a13;stroke-width:32.52;stroke-miterlimit:4;stroke-dasharray:260.16, 32.52;stroke-dashoffset:0" />
  <text
     id="text980"
     y="11807.347"
     x="9291.1016"
     style="font-style:normal;font-weight:normal;font-size:384px;line-height:1.25;font-family:sans-serif;fill:#000000;fill-opacity:1;stroke:none;stroke-width:4"
     xml:space="preserve"><tspan
       style="font-size:384px;stroke-width:4"
       y="11807.347"
       x="9291.1016"
       id="tspan978"
       sodipodi:role="line">2.37</tspan></text>
</svg>
