<?xml version="1.0" encoding="UTF-8" standalone="no"?>
<svg
   xmlns:dc="http://purl.org/dc/elements/1.1/"
   xmlns:cc="http://creativecommons.org/ns#"
   xmlns:rdf="http://www.w3.org/1999/02/22-rdf-syntax-ns#"
   xmlns:svg="http://www.w3.org/2000/svg"
   xmlns="http://www.w3.org/2000/svg"
   xmlns:sodipodi="http://sodipodi.sourceforge.net/DTD/sodipodi-0.dtd"
   xmlns:inkscape="http://www.inkscape.org/namespaces/inkscape"
   inkscape:version="1.0 (4035a4fb49, 2020-05-01)"
   sodipodi:docname="χ_8.svg"
   id="svg141"
   version="1.1"
   viewBox="0 0 19200 12800"
   height="3200"
   width="4800">
  <metadata
     id="metadata145">
    <rdf:RDF>
      <cc:Work
         rdf:about="">
        <dc:format>image/svg+xml</dc:format>
        <dc:type
           rdf:resource="http://purl.org/dc/dcmitype/StillImage" />
      </cc:Work>
    </rdf:RDF>
  </metadata>
  <sodipodi:namedview
     inkscape:current-layer="svg141"
     inkscape:window-maximized="1"
     inkscape:window-y="-6"
     inkscape:window-x="-6"
     inkscape:cy="1600"
     inkscape:cx="2400"
     inkscape:zoom="0.153125"
     showgrid="false"
     id="namedview143"
     inkscape:window-height="658"
     inkscape:window-width="1280"
     inkscape:pageshadow="2"
     inkscape:pageopacity="0"
     guidetolerance="10"
     gridtolerance="10"
     objecttolerance="10"
     borderopacity="1"
     bordercolor="#666666"
     pagecolor="#ffffff" />
  <defs
     id="defs5">
    <clipPath
       id="clip4800">
      <rect
         id="rect2"
         height="12800"
         width="19200"
         y="0"
         x="0" />
    </clipPath>
  </defs>
  <path
     id="path7"
     fill-opacity="1"
     fill-rule="evenodd"
     fill="#ffffff"
     d=" M0 12800 L19200 12800 L19200 0 L0 0  Z   "
     clip-path="url(#clip4800)" />
  <defs
     id="defs12">
    <clipPath
       id="clip4801">
      <rect
         id="rect9"
         height="12800"
         width="13441"
         y="0"
         x="3840" />
    </clipPath>
  </defs>
  <path
     id="path14"
     fill-opacity="1"
     fill-rule="evenodd"
     fill="#ffffff"
     d=" M1688.93 11385.4 L18822 11385.4 L18822 377.953 L1688.93 377.953  Z   "
     clip-path="url(#clip4800)" />
  <defs
     id="defs19">
    <clipPath
       id="clip4802">
      <rect
         id="rect16"
         height="11008"
         width="17134"
         y="377"
         x="1688" />
    </clipPath>
  </defs>
  <polyline
     id="polyline21"
     points="   1843.97,11385.4 1843.97,377.953    "
     style="stroke:#000000; stroke-width:16; stroke-opacity:0.1; fill:none"
     clip-path="url(#clip4802)" />
  <polyline
     id="polyline23"
     points="   5142.6,11385.4 5142.6,377.953    "
     style="stroke:#000000; stroke-width:16; stroke-opacity:0.1; fill:none"
     clip-path="url(#clip4802)" />
  <polyline
     id="polyline25"
     points="   8441.24,11385.4 8441.24,377.953    "
     style="stroke:#000000; stroke-width:16; stroke-opacity:0.1; fill:none"
     clip-path="url(#clip4802)" />
  <polyline
     id="polyline27"
     points="   11739.9,11385.4 11739.9,377.953    "
     style="stroke:#000000; stroke-width:16; stroke-opacity:0.1; fill:none"
     clip-path="url(#clip4802)" />
  <polyline
     id="polyline29"
     points="   15038.5,11385.4 15038.5,377.953    "
     style="stroke:#000000; stroke-width:16; stroke-opacity:0.1; fill:none"
     clip-path="url(#clip4802)" />
  <polyline
     id="polyline31"
     points="   18337.1,11385.4 18337.1,377.953    "
     style="stroke:#000000; stroke-width:16; stroke-opacity:0.1; fill:none"
     clip-path="url(#clip4802)" />
  <polyline
     id="polyline33"
     points="   1688.93,11073.9 18822,11073.9    "
     style="stroke:#000000; stroke-width:16; stroke-opacity:0.1; fill:none"
     clip-path="url(#clip4802)" />
  <polyline
     id="polyline35"
     points="   1688.93,8196.58 18822,8196.58    "
     style="stroke:#000000; stroke-width:16; stroke-opacity:0.1; fill:none"
     clip-path="url(#clip4802)" />
  <polyline
     id="polyline37"
     points="   1688.93,5319.25 18822,5319.25    "
     style="stroke:#000000; stroke-width:16; stroke-opacity:0.1; fill:none"
     clip-path="url(#clip4802)" />
  <polyline
     id="polyline39"
     points="   1688.93,2441.92 18822,2441.92    "
     style="stroke:#000000; stroke-width:16; stroke-opacity:0.1; fill:none"
     clip-path="url(#clip4802)" />
  <polyline
     id="polyline41"
     points="   1688.93,11385.4 18822,11385.4    "
     style="stroke:#000000; stroke-width:32; stroke-opacity:1; fill:none"
     clip-path="url(#clip4800)" />
  <polyline
     id="polyline43"
     points="   1688.93,11385.4 1688.93,377.953    "
     style="stroke:#000000; stroke-width:32; stroke-opacity:1; fill:none"
     clip-path="url(#clip4800)" />
  <polyline
     id="polyline45"
     points="   1843.97,11385.4 1843.97,11253.3    "
     style="stroke:#000000; stroke-width:32; stroke-opacity:1; fill:none"
     clip-path="url(#clip4800)" />
  <polyline
     id="polyline47"
     points="   5142.6,11385.4 5142.6,11253.3    "
     style="stroke:#000000; stroke-width:32; stroke-opacity:1; fill:none"
     clip-path="url(#clip4800)" />
  <polyline
     id="polyline49"
     points="   8441.24,11385.4 8441.24,11253.3    "
     style="stroke:#000000; stroke-width:32; stroke-opacity:1; fill:none"
     clip-path="url(#clip4800)" />
  <polyline
     id="polyline51"
     points="   11739.9,11385.4 11739.9,11253.3    "
     style="stroke:#000000; stroke-width:32; stroke-opacity:1; fill:none"
     clip-path="url(#clip4800)" />
  <polyline
     id="polyline53"
     points="   15038.5,11385.4 15038.5,11253.3    "
     style="stroke:#000000; stroke-width:32; stroke-opacity:1; fill:none"
     clip-path="url(#clip4800)" />
  <polyline
     id="polyline55"
     points="   18337.1,11385.4 18337.1,11253.3    "
     style="stroke:#000000; stroke-width:32; stroke-opacity:1; fill:none"
     clip-path="url(#clip4800)" />
  <polyline
     id="polyline57"
     points="   1688.93,11073.9 1894.53,11073.9    "
     style="stroke:#000000; stroke-width:32; stroke-opacity:1; fill:none"
     clip-path="url(#clip4800)" />
  <polyline
     id="polyline59"
     points="   1688.93,8196.58 1894.53,8196.58    "
     style="stroke:#000000; stroke-width:32; stroke-opacity:1; fill:none"
     clip-path="url(#clip4800)" />
  <polyline
     id="polyline61"
     points="   1688.93,5319.25 1894.53,5319.25    "
     style="stroke:#000000; stroke-width:32; stroke-opacity:1; fill:none"
     clip-path="url(#clip4800)" />
  <polyline
     id="polyline63"
     points="   1688.93,2441.92 1894.53,2441.92    "
     style="stroke:#000000; stroke-width:32; stroke-opacity:1; fill:none"
     clip-path="url(#clip4800)" />
  <path
     id="path65"
     fill-opacity="1"
     fill-rule="evenodd"
     fill="#000000"
     d="M 0 0 M1843.97 11561.4 Q1815.08 11561.4 1800.45 11589.9 Q1786 11618.2 1786 11675.3 Q1786 11732.1 1800.45 11760.6 Q1815.08 11789 1843.97 11789 Q1873.04 11789 1887.48 11760.6 Q1902.11 11732.1 1902.11 11675.3 Q1902.11 11618.2 1887.48 11589.9 Q1873.04 11561.4 1843.97 11561.4 M1843.97 11531.7 Q1890.45 11531.7 1914.89 11568.6 Q1939.52 11605.3 1939.52 11675.3 Q1939.52 11745.1 1914.89 11781.9 Q1890.45 11818.6 1843.97 11818.6 Q1797.49 11818.6 1772.86 11781.9 Q1748.41 11745.1 1748.41 11675.3 Q1748.41 11605.3 1772.86 11568.6 Q1797.49 11531.7 1843.97 11531.7 Z"
     clip-path="url(#clip4800)" />
  <path
     id="path67"
     fill-opacity="1"
     fill-rule="evenodd"
     fill="#000000"
     d="M 0 0 M5065.66 11781.7 L5126.77 11781.7 L5126.77 11570.8 L5060.29 11584.1 L5060.29 11550.1 L5126.4 11536.7 L5163.81 11536.7 L5163.81 11781.7 L5224.92 11781.7 L5224.92 11813.2 L5065.66 11813.2 L5065.66 11781.7 Z"
     clip-path="url(#clip4800)" />
  <path
     id="path69"
     fill-opacity="1"
     fill-rule="evenodd"
     fill="#000000"
     d="M 0 0 M8398.46 11781.7 L8529.02 11781.7 L8529.02 11813.2 L8353.46 11813.2 L8353.46 11781.7 Q8374.76 11759.7 8411.42 11722.7 Q8448.28 11685.4 8457.72 11674.7 Q8475.68 11654.5 8482.72 11640.6 Q8489.94 11626.5 8489.94 11613 Q8489.94 11591 8474.39 11577.1 Q8459.02 11563.2 8434.2 11563.2 Q8416.61 11563.2 8396.98 11569.3 Q8377.54 11575.4 8355.31 11587.8 L8355.31 11550.1 Q8377.91 11541 8397.54 11536.4 Q8417.16 11531.7 8433.46 11531.7 Q8476.42 11531.7 8501.98 11553.2 Q8527.53 11574.7 8527.53 11610.6 Q8527.53 11627.7 8521.05 11643 Q8514.76 11658.2 8497.91 11679 Q8493.28 11684.3 8468.46 11710.1 Q8443.65 11735.6 8398.46 11781.7 Z"
     clip-path="url(#clip4800)" />
  <path
     id="path71"
     fill-opacity="1"
     fill-rule="evenodd"
     fill="#000000"
     d="M 0 0 M11773.9 11664.1 Q11800.7 11669.9 11815.7 11688 Q11830.9 11706.2 11830.9 11732.8 Q11830.9 11773.8 11802.7 11796.2 Q11774.6 11818.6 11722.7 11818.6 Q11705.3 11818.6 11686.8 11815.1 Q11668.5 11811.7 11648.9 11804.9 L11648.9 11768.8 Q11664.4 11777.8 11682.9 11782.5 Q11701.4 11787.1 11721.6 11787.1 Q11756.8 11787.1 11775.2 11773.2 Q11793.7 11759.3 11793.7 11732.8 Q11793.7 11708.4 11776.4 11694.7 Q11759.4 11680.8 11728.9 11680.8 L11696.6 11680.8 L11696.6 11650.1 L11730.3 11650.1 Q11757.9 11650.1 11772.6 11639.1 Q11787.2 11628 11787.2 11607.3 Q11787.2 11586 11772 11574.7 Q11757 11563.2 11728.9 11563.2 Q11713.5 11563.2 11695.9 11566.5 Q11678.3 11569.9 11657.2 11576.9 L11657.2 11543.6 Q11678.5 11537.7 11697 11534.7 Q11715.7 11531.7 11732.2 11531.7 Q11774.8 11531.7 11799.6 11551.2 Q11824.4 11570.4 11824.4 11603.4 Q11824.4 11626.4 11811.3 11642.3 Q11798.1 11658 11773.9 11664.1 Z"
     clip-path="url(#clip4800)" />
  <path
     id="path73"
     fill-opacity="1"
     fill-rule="evenodd"
     fill="#000000"
     d="M 0 0 M15062.6 11569.3 L14968.1 11716.9 L15062.6 11716.9 L15062.6 11569.3 M15052.8 11536.7 L15099.8 11536.7 L15099.8 11716.9 L15139.3 11716.9 L15139.3 11748 L15099.8 11748 L15099.8 11813.2 L15062.6 11813.2 L15062.6 11748 L14937.8 11748 L14937.8 11711.9 L15052.8 11536.7 Z"
     clip-path="url(#clip4800)" />
  <path
     id="path75"
     fill-opacity="1"
     fill-rule="evenodd"
     fill="#000000"
     d="M 0 0 M18259.4 11536.7 L18406.2 11536.7 L18406.2 11568.2 L18293.6 11568.2 L18293.6 11636 Q18301.8 11633.2 18309.9 11631.9 Q18318.1 11630.4 18326.2 11630.4 Q18372.5 11630.4 18399.6 11655.8 Q18426.6 11681.2 18426.6 11724.5 Q18426.6 11769.1 18398.8 11794 Q18371 11818.6 18320.5 11818.6 Q18303.1 11818.6 18284.9 11815.6 Q18267 11812.7 18247.7 11806.7 L18247.7 11769.1 Q18264.4 11778.2 18282.1 11782.7 Q18299.9 11787.1 18319.7 11787.1 Q18351.8 11787.1 18370.5 11770.3 Q18389.2 11753.4 18389.2 11724.5 Q18389.2 11695.6 18370.5 11678.8 Q18351.8 11661.9 18319.7 11661.9 Q18304.7 11661.9 18289.7 11665.3 Q18274.9 11668.6 18259.4 11675.6 L18259.4 11536.7 Z"
     clip-path="url(#clip4800)" />
  <path
     id="path77"
     fill-opacity="1"
     fill-rule="evenodd"
     fill="#000000"
     d="M 0 0 M1105.64 10960.3 Q1076.75 10960.3 1062.12 10988.8 Q1047.67 11017.1 1047.67 11074.2 Q1047.67 11131 1062.12 11159.6 Q1076.75 11187.9 1105.64 11187.9 Q1134.71 11187.9 1149.15 11159.6 Q1163.78 11131 1163.78 11074.2 Q1163.78 11017.1 1149.15 10988.8 Q1134.71 10960.3 1105.64 10960.3 M1105.64 10930.7 Q1152.12 10930.7 1176.56 10967.5 Q1201.19 11004.2 1201.19 11074.2 Q1201.19 11144 1176.56 11180.8 Q1152.12 11217.5 1105.64 11217.5 Q1059.16 11217.5 1034.53 11180.8 Q1010.08 11144 1010.08 11074.2 Q1010.08 11004.2 1034.53 10967.5 Q1059.16 10930.7 1105.64 10930.7 Z"
     clip-path="url(#clip4800)" />
  <path
     id="path79"
     fill-opacity="1"
     fill-rule="evenodd"
     fill="#000000"
     d="M 0 0 M1241.75 11165.1 L1280.82 11165.1 L1280.82 11212.1 L1241.75 11212.1 L1241.75 11165.1 Z"
     clip-path="url(#clip4800)" />
  <path
     id="path81"
     fill-opacity="1"
     fill-rule="evenodd"
     fill="#000000"
     d="M 0 0 M1401.38 10960.3 Q1372.49 10960.3 1357.86 10988.8 Q1343.41 11017.1 1343.41 11074.2 Q1343.41 11131 1357.86 11159.6 Q1372.49 11187.9 1401.38 11187.9 Q1430.45 11187.9 1444.89 11159.6 Q1459.52 11131 1459.52 11074.2 Q1459.52 11017.1 1444.89 10988.8 Q1430.45 10960.3 1401.38 10960.3 M1401.38 10930.7 Q1447.86 10930.7 1472.3 10967.5 Q1496.93 11004.2 1496.93 11074.2 Q1496.93 11144 1472.3 11180.8 Q1447.86 11217.5 1401.38 11217.5 Q1354.89 11217.5 1330.26 11180.8 Q1305.82 11144 1305.82 11074.2 Q1305.82 11004.2 1330.26 10967.5 Q1354.89 10930.7 1401.38 10930.7 Z"
     clip-path="url(#clip4800)" />
  <path
     id="path83"
     fill-opacity="1"
     fill-rule="evenodd"
     fill="#000000"
     d="M 0 0 M1113.6 8082.97 Q1084.71 8082.97 1070.08 8111.49 Q1055.64 8139.82 1055.64 8196.86 Q1055.64 8253.71 1070.08 8282.23 Q1084.71 8310.56 1113.6 8310.56 Q1142.67 8310.56 1157.12 8282.23 Q1171.75 8253.71 1171.75 8196.86 Q1171.75 8139.82 1157.12 8111.49 Q1142.67 8082.97 1113.6 8082.97 M1113.6 8053.34 Q1160.08 8053.34 1184.52 8090.19 Q1209.15 8126.86 1209.15 8196.86 Q1209.15 8266.67 1184.52 8303.52 Q1160.08 8340.19 1113.6 8340.19 Q1067.12 8340.19 1042.49 8303.52 Q1018.04 8266.67 1018.04 8196.86 Q1018.04 8126.86 1042.49 8090.19 Q1067.12 8053.34 1113.6 8053.34 Z"
     clip-path="url(#clip4800)" />
  <path
     id="path85"
     fill-opacity="1"
     fill-rule="evenodd"
     fill="#000000"
     d="M 0 0 M1249.71 8287.78 L1288.78 8287.78 L1288.78 8334.82 L1249.71 8334.82 L1249.71 8287.78 Z"
     clip-path="url(#clip4800)" />
  <path
     id="path87"
     fill-opacity="1"
     fill-rule="evenodd"
     fill="#000000"
     d="M 0 0 M1329.71 8058.34 L1476.56 8058.34 L1476.56 8089.82 L1363.97 8089.82 L1363.97 8157.6 Q1372.12 8154.82 1380.26 8153.52 Q1388.41 8152.04 1396.56 8152.04 Q1442.86 8152.04 1469.89 8177.41 Q1496.93 8202.78 1496.93 8246.11 Q1496.93 8290.74 1469.15 8315.56 Q1441.38 8340.19 1390.82 8340.19 Q1373.41 8340.19 1355.26 8337.23 Q1337.3 8334.26 1318.04 8328.34 L1318.04 8290.74 Q1334.71 8299.82 1352.49 8304.26 Q1370.26 8308.71 1390.08 8308.71 Q1422.12 8308.71 1440.82 8291.86 Q1459.52 8275 1459.52 8246.11 Q1459.52 8217.23 1440.82 8200.37 Q1422.12 8183.52 1390.08 8183.52 Q1375.08 8183.52 1360.08 8186.86 Q1345.26 8190.19 1329.71 8197.23 L1329.71 8058.34 Z"
     clip-path="url(#clip4800)" />
  <path
     id="path89"
     fill-opacity="1"
     fill-rule="evenodd"
     fill="#000000"
     d="M 0 0 M1041.93 5426.01 L1103.04 5426.01 L1103.04 5215.08 L1036.56 5228.42 L1036.56 5194.34 L1102.67 5181.01 L1140.08 5181.01 L1140.08 5426.01 L1201.19 5426.01 L1201.19 5457.49 L1041.93 5457.49 L1041.93 5426.01 Z"
     clip-path="url(#clip4800)" />
  <path
     id="path91"
     fill-opacity="1"
     fill-rule="evenodd"
     fill="#000000"
     d="M 0 0 M1241.75 5410.45 L1280.82 5410.45 L1280.82 5457.49 L1241.75 5457.49 L1241.75 5410.45 Z"
     clip-path="url(#clip4800)" />
  <path
     id="path93"
     fill-opacity="1"
     fill-rule="evenodd"
     fill="#000000"
     d="M 0 0 M1401.38 5205.64 Q1372.49 5205.64 1357.86 5234.16 Q1343.41 5262.49 1343.41 5319.53 Q1343.41 5376.38 1357.86 5404.9 Q1372.49 5433.23 1401.38 5433.23 Q1430.45 5433.23 1444.89 5404.9 Q1459.52 5376.38 1459.52 5319.53 Q1459.52 5262.49 1444.89 5234.16 Q1430.45 5205.64 1401.38 5205.64 M1401.38 5176.01 Q1447.86 5176.01 1472.3 5212.86 Q1496.93 5249.53 1496.93 5319.53 Q1496.93 5389.34 1472.3 5426.19 Q1447.86 5462.86 1401.38 5462.86 Q1354.89 5462.86 1330.26 5426.19 Q1305.82 5389.34 1305.82 5319.53 Q1305.82 5249.53 1330.26 5212.86 Q1354.89 5176.01 1401.38 5176.01 Z"
     clip-path="url(#clip4800)" />
  <path
     id="path95"
     fill-opacity="1"
     fill-rule="evenodd"
     fill="#000000"
     d="M 0 0 M1049.9 2548.68 L1111.01 2548.68 L1111.01 2337.75 L1044.53 2351.09 L1044.53 2317.01 L1110.64 2303.68 L1148.04 2303.68 L1148.04 2548.68 L1209.15 2548.68 L1209.15 2580.16 L1049.9 2580.16 L1049.9 2548.68 Z"
     clip-path="url(#clip4800)" />
  <path
     id="path97"
     fill-opacity="1"
     fill-rule="evenodd"
     fill="#000000"
     d="M 0 0 M1249.71 2533.12 L1288.78 2533.12 L1288.78 2580.16 L1249.71 2580.16 L1249.71 2533.12 Z"
     clip-path="url(#clip4800)" />
  <path
     id="path99"
     fill-opacity="1"
     fill-rule="evenodd"
     fill="#000000"
     d="M 0 0 M1329.71 2303.68 L1476.56 2303.68 L1476.56 2335.16 L1363.97 2335.16 L1363.97 2402.94 Q1372.12 2400.16 1380.26 2398.87 Q1388.41 2397.38 1396.56 2397.38 Q1442.86 2397.38 1469.89 2422.75 Q1496.93 2448.12 1496.93 2491.46 Q1496.93 2536.09 1469.15 2560.9 Q1441.38 2585.53 1390.82 2585.53 Q1373.41 2585.53 1355.26 2582.57 Q1337.3 2579.61 1318.04 2573.68 L1318.04 2536.09 Q1334.71 2545.16 1352.49 2549.61 Q1370.26 2554.05 1390.08 2554.05 Q1422.12 2554.05 1440.82 2537.2 Q1459.52 2520.35 1459.52 2491.46 Q1459.52 2462.57 1440.82 2445.72 Q1422.12 2428.87 1390.08 2428.87 Q1375.08 2428.87 1360.08 2432.2 Q1345.26 2435.53 1329.71 2442.57 L1329.71 2303.68 Z"
     clip-path="url(#clip4800)" />
  <path
     id="path101"
     fill-opacity="1"
     fill-rule="evenodd"
     fill="#000000"
     d="M 0 0 M10094.7 12068.2 L10416.3 12068.2 L10416.3 12111.5 L10281.3 12111.5 L10281.3 12448.4 L10229.6 12448.4 L10229.6 12111.5 L10094.7 12111.5 L10094.7 12068.2 Z"
     clip-path="url(#clip4800)" />
  <path
     id="path103"
     fill-opacity="1"
     fill-rule="evenodd"
     fill="#000000"
     d="M 0 0 M353.156 5919.51 L407.391 5919.51 Q383.202 5945.48 371.234 5975.02 Q359.267 6004.3 359.267 6037.4 Q359.267 6102.59 399.243 6137.22 Q438.965 6171.84 514.335 6171.84 Q589.451 6171.84 629.427 6137.22 Q669.149 6102.59 669.149 6037.4 Q669.149 6004.3 657.182 5975.02 Q645.214 5945.48 621.024 5919.51 L674.751 5919.51 Q693.084 5946.5 702.251 5976.8 Q711.417 6006.85 711.417 6040.46 Q711.417 6126.78 658.709 6176.43 Q605.747 6226.08 514.335 6226.08 Q422.669 6226.08 369.961 6176.43 Q316.998 6126.78 316.998 6040.46 Q316.998 6006.34 326.165 5976.29 Q335.077 5945.99 353.156 5919.51 Z"
     clip-path="url(#clip4800)" />
  <path
     id="path105"
     fill-opacity="1"
     fill-rule="evenodd"
     fill="#000000"
     d="M 0 0 M531.905 5633.31 L704.033 5633.31 L704.033 5680.16 L533.432 5680.16 Q492.946 5680.16 472.831 5695.94 Q452.715 5711.73 452.715 5743.31 Q452.715 5781.24 476.905 5803.14 Q501.095 5825.04 542.854 5825.04 L704.033 5825.04 L704.033 5872.15 L307.832 5872.15 L307.832 5825.04 L463.155 5825.04 Q437.437 5808.24 424.706 5785.57 Q411.975 5762.66 411.975 5732.87 Q411.975 5683.72 442.53 5658.51 Q472.831 5633.31 531.905 5633.31 Z"
     clip-path="url(#clip4800)" />
  <path
     id="path107"
     fill-opacity="1"
     fill-rule="evenodd"
     fill="#000000"
     d="M 0 0 M418.85 5584.16 L418.85 5537.31 L704.033 5537.31 L704.033 5584.16 L418.85 5584.16 M307.832 5584.16 L307.832 5537.31 L367.16 5537.31 L367.16 5584.16 L307.832 5584.16 Z"
     clip-path="url(#clip4800)" />
  <polyline
     id="polyline109"
     points="   2173.83,11073.9 2214.34,11073.9 2254.85,11073.9 2295.36,11073.9 2335.87,11073.9 2376.38,11073.9 2416.89,11073.9 2457.4,11073.9 2497.91,11073.9 2538.42,11073.9    2578.93,11073.9 2619.44,11073.9 2659.94,11073.9 2700.45,11073.9 2740.96,11073.9 2781.47,11073.9 2821.98,11073.9 2862.49,11073.9 2903,11073.9 2943.51,11073.9    2984.02,11073.9 3024.53,11073.9 3065.04,11073.9 3105.55,11073.9 3146.06,11073.9 3186.57,11073.9 3227.08,11073.9 3267.59,11073.9 3308.1,11073.9 3348.61,11073.9    3389.12,11073.9 3429.63,11073.9 3470.14,11073.9 3510.65,11073.9 3551.16,11073.9 3591.66,11073.9 3632.17,11073.9 3672.68,11073.9 3713.19,11073.9 3753.7,11073.9    3794.21,11073.8 3834.72,11073.9 3875.23,11073.8 3915.74,11073.9 3956.25,11073.6 3996.76,11073.8 4037.27,11073.5 4077.78,11073.8 4118.29,11073.7 4158.8,11073.8    4199.31,11073.1 4239.82,11073.2 4280.33,11073 4320.84,11072.7 4361.35,11073.1 4401.86,11073.1 4442.37,11072.4 4482.88,11072.9 4523.38,11072.9 4563.89,11071.9    4604.4,11072.1 4644.91,11071.9 4685.42,11071.2 4725.93,11071.8 4766.44,11071.3 4806.95,11069.3 4847.46,11070.7 4887.97,11069.9 4928.48,11068.8 4968.99,11066.7    5009.5,11066.5 5050.01,11067.1 5090.52,11065.8 5131.03,11063.9 5171.54,11062.9 5212.05,11064.6 5252.56,11063 5293.07,11063.5 5333.58,11060.4 5374.09,11059.3    5414.6,11057.2 5455.11,11055.6 5495.61,11054.2 5536.12,11052.6 5576.63,11052.2 5617.14,11047.3 5657.65,11047.8 5698.16,11045.9 5738.67,11047.5 5779.18,11040.7    5819.69,11037.3 5860.2,11036.1 5900.71,11034 5941.22,11032.1 5981.73,11026.5 6022.24,11023.8 6062.75,11021.9 6103.26,11017.1 6143.77,11013.3 6184.28,11016.1    6224.79,11010 6265.3,11000.7 6305.81,10992.8 6346.32,10998.4 6386.83,10985.6 6427.33,10973.3 6467.84,10970.7 6508.35,10972 6548.86,10956.6 6589.37,10956.3    6629.88,10951.8 6670.39,10939.2 6710.9,10926.9 6751.41,10920 6791.92,10901 6832.43,10901.8 6872.94,10900.9 6913.45,10888 6953.96,10864.6 6994.47,10854.1    7034.98,10850.1 7075.49,10862.6 7116,10826.3 7156.51,10809.6 7197.02,10741.3 7237.53,10801.5 7278.04,10780.4 7318.55,10765.1 7359.05,10680 7399.56,10678.1    7440.07,10671.5 7480.58,10598.4 7521.09,10622 7561.6,10602.5 7602.11,10577.6 7642.62,10569.8 7683.13,10568.7 7723.64,10335.5 7764.15,10484.9 7804.66,10208.3    7845.17,10395.3 7885.68,10157.3 7926.19,10314.6 7966.7,10364.2 8007.21,10084.6 8047.72,10096 8088.23,10260.4 8128.74,10154.2 8169.25,9700.44 8209.76,9804.46    8250.27,9535.82 8290.77,8952.31 8331.28,9546.67 8371.79,9411.52 8412.3,9285.1 8452.81,9205.02 8493.32,9449.61 8533.83,8630.52 8574.34,9044.22 8614.85,8714.63    8655.36,8129.95 8695.87,8759.57 8736.38,7646.08 8776.89,7649.54 8817.4,7970.77 8857.91,6558.35 8898.42,7367.64 8938.93,6547.3 8979.44,6673.75 9019.95,6148.7    9060.46,6473.37 9100.97,6016.33 9141.48,5438.41 9181.99,4003.78 9222.49,5913.44 9263,4225.72 9303.51,4456.53 9344.02,4164.86 9384.53,3359.5 9425.04,3636.99    9465.55,3688.56 9506.06,3031.62 9546.57,2901.46 9587.08,3107.13 9627.59,3218.06 9668.1,1837.13 9708.61,1299.1 9749.12,1258.6 9789.63,1152.52 9830.14,1702.17    9870.65,1797.45 9911.16,1445.29 9951.67,1405.94 9992.18,1084.38 10032.7,1144.78 10073.2,1255.53 10113.7,1039.74 10154.2,1101.87 10194.7,1611.16 10235.2,689.485    10275.7,1331.84 10316.3,866.488 10356.8,1263.2 10397.3,1315.41 10437.8,1137.69 10478.3,1359.41 10518.8,1236.78 10559.3,1442.78 10599.8,1330.08 10640.3,1681.63    10680.8,1722.38 10721.3,1884.4 10761.9,1975.81 10802.4,1762.2 10842.9,2258.08 10883.4,2167.08 10923.9,2347.53 10964.4,2867.14 11004.9,2386.48 11045.4,2671.18    11085.9,3120 11126.4,2835.76 11167,3232.01 11207.5,3222.13 11248,3287.25 11288.5,3635.27 11329,3789.39 11369.5,3848.64 11410,3755.41 11450.5,4189.64    11491,4381.88 11531.5,4085.4 11572,4352.29 11612.6,4644.24 11653.1,4663.61 11693.6,4846.04 11734.1,4815.38 11774.6,5208.91 11815.1,5267.28 11855.6,5050.65    11896.1,5296.34 11936.6,5370.35 11977.1,5471.89 12017.7,5425.74 12058.2,5850.58 12098.7,5612.11 12139.2,5890.33 12179.7,5871.72 12220.2,5756.26 12260.7,5931.53    12301.2,6135.64 12341.7,6209.98 12382.2,6315.58 12422.8,6430.18 12463.3,6416.42 12503.8,6484.51 12544.3,6795.41 12584.8,6591.74 12625.3,6801.16 12665.8,6881.25    12706.3,6979.78 12746.8,6915.13 12787.3,6843.04 12827.8,7079.58 12868.4,7210.63 12908.9,7114.74 12949.4,7253.96 12989.9,7251.95 13030.4,7277.06 13070.9,7303.63    13111.4,7538.88 13151.9,7583.63 13192.4,7530.6 13232.9,7627 13273.5,7714.75 13314,7647.58 13354.5,7753.7 13395,7657.43 13435.5,7718.63 13476,7678.64    13516.5,7749.32 13557,8066.88 13597.5,7800.04 13638,7933.52 13678.5,8007.4 13719.1,8004.74 13759.6,8093.69 13800.1,7954.53 13840.6,8210.46 13881.1,8086.48    13921.6,8244.56 13962.1,8304.01 14002.6,8246.77 14043.1,8406.77 14083.6,8340.66 14124.2,8473.06 14164.7,8379.6 14205.2,8454.89 14245.7,8263.75 14286.2,8447.53    14326.7,8514.49 14367.2,8475.8 14407.7,8515.88 14448.2,8567.86 14488.7,8632.91 14529.2,8626.93 14569.8,8663.48 14610.3,8667.19 14650.8,8767.69 14691.3,8732.76    14731.8,8858.49 14772.3,8748.54 14812.8,8852.98 14853.3,8791.83 14893.8,8912 14934.3,8773.66 14974.9,8864.28 15015.4,9003.14 15055.9,8919.84 15096.4,8974.72    15136.9,8908.71 15177.4,8972.82 15217.9,9093.97 15258.4,9062.9 15298.9,9052.33 15339.4,9084.36 15379.9,9174.02 15420.5,9129.2 15461,9047.58 15501.5,9122.3    15542,9229.82 15582.5,9184.8 15623,9158.93 15663.5,9136.52 15704,9212.91 15744.5,9285.46 15785,9241.55 15825.6,9273.18 15866.1,9269.97 15906.6,9340.93    15947.1,9335.14 15987.6,9330.51 16028.1,9347.91 16068.6,9390.31 16109.1,9414.15 16149.6,9331.58 16190.1,9404.3 16230.7,9408.62 16271.2,9419.76 16311.7,9428.88    16352.2,9423.97 16392.7,9458.64 16433.2,9459.07 16473.7,9466.68 16514.2,9495.48 16554.7,9550.01 16595.2,9520.07 16635.7,9446.59 16676.3,9535.51 16716.8,9575.65    16757.3,9593.9 16797.8,9547.38 16838.3,9606.59 16878.8,9580.13 16919.3,9603.42 16959.8,9616.74 17000.3,9643.61 17040.8,9652.19 17081.4,9609.79 17121.9,9669.96    17162.4,9635.6 17202.9,9667.83 17243.4,9696.73 17283.9,9728.66 17324.4,9679.57 17364.9,9744.63 17405.4,9682.09 17445.9,9708.71 17486.4,9722 17527,9713.39    17567.5,9804.66 17608,9798.97 17648.5,9786.66 17689,9816.57 17729.5,9779.52 17770,9828.06 17810.5,9801.53 17851,9832.23 17891.5,9830.69 17932.1,9816.92    17972.6,9781.16 18013.1,9851.7 18053.6,9798.73 18094.1,9859.06 18134.6,9889.55 18175.1,9874.36 18215.6,9909.32 18256.1,9892.77 18296.6,9899.42 18337.1,9895.13       "
     style="stroke:#009af9; stroke-width:48; stroke-opacity:1; fill:none"
     clip-path="url(#clip4802)" />
  <polyline
     transform="matrix(1,0,0,1.0331267,0,-53.372421)"
     id="polyline111"
     points="   10194.7,1611.16 10194.7,11073.9    "
     style="fill:none;stroke:#e26f46;stroke-width:31.99832075;stroke-opacity:1;stroke-miterlimit:4;stroke-dasharray:255.98656593,31.99832075;stroke-dashoffset:0"
     clip-path="url(#clip4802)" />
  <path
     id="path113"
     fill-opacity="1"
     fill-rule="evenodd"
     fill="#ffffff"
     d=" M15030.1 2497.63 L18246 2497.63 L18246 1046.11 L15030.1 1046.11  Z   "
     clip-path="url(#clip4800)" />
  <polyline
     id="polyline115"
     points="   15030.1,2497.63 18246,2497.63 18246,1046.11 15030.1,1046.11 15030.1,2497.63    "
     style="stroke:#000000; stroke-width:32; stroke-opacity:1; fill:none"
     clip-path="url(#clip4800)" />
  <polyline
     id="polyline117"
     points="   15222.1,1529.95 16374.1,1529.95    "
     style="stroke:#009af9; stroke-width:48; stroke-opacity:1; fill:none"
     clip-path="url(#clip4800)" />
  <path
     id="path119"
     fill-opacity="1"
     fill-rule="evenodd"
     fill="#000000"
     d="M 0 0 M16789.1 1413.01 L16789.1 1452.45 Q16770.2 1434.86 16748.7 1426.16 Q16727.4 1417.45 16703.3 1417.45 Q16655.9 1417.45 16630.8 1446.53 Q16605.6 1475.42 16605.6 1530.23 Q16605.6 1584.86 16630.8 1613.93 Q16655.9 1642.82 16703.3 1642.82 Q16727.4 1642.82 16748.7 1634.12 Q16770.2 1625.42 16789.1 1607.82 L16789.1 1646.9 Q16769.5 1660.23 16747.4 1666.9 Q16725.6 1673.56 16701.1 1673.56 Q16638.4 1673.56 16602.2 1635.23 Q16566.1 1596.71 16566.1 1530.23 Q16566.1 1463.56 16602.2 1425.23 Q16638.4 1386.71 16701.1 1386.71 Q16725.9 1386.71 16747.8 1393.38 Q16769.8 1399.86 16789.1 1413.01 Z"
     clip-path="url(#clip4800)" />
  <path
     id="path121"
     fill-opacity="1"
     fill-rule="evenodd"
     fill="#000000"
     d="M 0 0 M16997.2 1543.01 L16997.2 1668.19 L16963.2 1668.19 L16963.2 1544.12 Q16963.2 1514.68 16951.7 1500.05 Q16940.2 1485.42 16917.2 1485.42 Q16889.6 1485.42 16873.7 1503.01 Q16857.8 1520.6 16857.8 1550.97 L16857.8 1668.19 L16823.5 1668.19 L16823.5 1380.05 L16857.8 1380.05 L16857.8 1493.01 Q16870 1474.3 16886.5 1465.05 Q16903.2 1455.79 16924.8 1455.79 Q16960.6 1455.79 16978.9 1478.01 Q16997.2 1500.05 16997.2 1543.01 Z"
     clip-path="url(#clip4800)" />
  <path
     id="path123"
     fill-opacity="1"
     fill-rule="evenodd"
     fill="#000000"
     d="M 0 0 M17033 1460.79 L17067.1 1460.79 L17067.1 1668.19 L17033 1668.19 L17033 1460.79 M17033 1380.05 L17067.1 1380.05 L17067.1 1423.19 L17033 1423.19 L17033 1380.05 Z"
     clip-path="url(#clip4800)" />
  <path
     id="path125"
     fill-opacity="1"
     fill-rule="evenodd"
     fill="#000000"
     d="M 0 0 M17260.4 1731.16 L17260.4 1757.64 L17063.3 1757.64 L17063.3 1731.16 L17260.4 1731.16 Z"
     clip-path="url(#clip4800)" />
  <path
     id="path127"
     fill-opacity="1"
     fill-rule="evenodd"
     fill="#000000"
     d="M 0 0 M17428.3 1466.9 L17428.3 1499.12 Q17413.9 1491.71 17398.3 1488.01 Q17382.8 1484.3 17366.1 1484.3 Q17340.8 1484.3 17328 1492.08 Q17315.4 1499.86 17315.4 1515.42 Q17315.4 1527.27 17324.5 1534.12 Q17333.5 1540.79 17360.9 1546.9 L17372.6 1549.49 Q17408.9 1557.27 17424.1 1571.53 Q17439.5 1585.6 17439.5 1610.97 Q17439.5 1639.86 17416.5 1656.71 Q17393.7 1673.56 17353.7 1673.56 Q17337.1 1673.56 17318.9 1670.23 Q17300.9 1667.08 17280.9 1660.6 L17280.9 1625.42 Q17299.8 1635.23 17318.2 1640.23 Q17336.5 1645.04 17354.5 1645.04 Q17378.5 1645.04 17391.5 1636.9 Q17404.5 1628.56 17404.5 1613.56 Q17404.5 1599.67 17395 1592.27 Q17385.8 1584.86 17354.1 1578.01 L17342.2 1575.23 Q17310.6 1568.56 17296.5 1554.86 Q17282.4 1540.97 17282.4 1516.9 Q17282.4 1487.64 17303.2 1471.71 Q17323.9 1455.79 17362 1455.79 Q17380.9 1455.79 17397.6 1458.56 Q17414.3 1461.34 17428.3 1466.9 Z"
     clip-path="url(#clip4800)" />
  <path
     id="path129"
     fill-opacity="1"
     fill-rule="evenodd"
     fill="#000000"
     d="M 0 0 M17475.2 1460.79 L17509.3 1460.79 L17509.3 1668.19 L17475.2 1668.19 L17475.2 1460.79 M17475.2 1380.05 L17509.3 1380.05 L17509.3 1423.19 L17475.2 1423.19 L17475.2 1380.05 Z"
     clip-path="url(#clip4800)" />
  <path
     id="path131"
     fill-opacity="1"
     fill-rule="evenodd"
     fill="#000000"
     d="M 0 0 M17578.7 1401.9 L17578.7 1460.79 L17648.9 1460.79 L17648.9 1487.27 L17578.7 1487.27 L17578.7 1599.86 Q17578.7 1625.23 17585.6 1632.45 Q17592.6 1639.67 17613.9 1639.67 L17648.9 1639.67 L17648.9 1668.19 L17613.9 1668.19 Q17574.5 1668.19 17559.5 1653.56 Q17544.5 1638.75 17544.5 1599.86 L17544.5 1487.27 L17519.5 1487.27 L17519.5 1460.79 L17544.5 1460.79 L17544.5 1401.9 L17578.7 1401.9 Z"
     clip-path="url(#clip4800)" />
  <path
     id="path133"
     fill-opacity="1"
     fill-rule="evenodd"
     fill="#000000"
     d="M 0 0 M17862 1555.97 L17862 1572.64 L17705.4 1572.64 Q17707.6 1607.82 17726.5 1626.34 Q17745.6 1644.67 17779.5 1644.67 Q17799.1 1644.67 17817.4 1639.86 Q17835.9 1635.04 17854.1 1625.42 L17854.1 1657.64 Q17835.8 1665.41 17816.5 1669.49 Q17797.2 1673.56 17777.4 1673.56 Q17727.8 1673.56 17698.7 1644.67 Q17669.8 1615.79 17669.8 1566.53 Q17669.8 1515.6 17697.2 1485.79 Q17724.8 1455.79 17771.5 1455.79 Q17813.3 1455.79 17837.6 1482.82 Q17862 1509.68 17862 1555.97 M17828 1545.97 Q17827.6 1518.01 17812.2 1501.34 Q17797 1484.68 17771.9 1484.68 Q17743.3 1484.68 17726.1 1500.79 Q17709.1 1516.9 17706.5 1546.16 L17828 1545.97 Z"
     clip-path="url(#clip4800)" />
  <polyline
     id="polyline135"
     points="   15222.1,2013.79 16374.1,2013.79    "
     style="stroke:#e26f46; stroke-width:32; stroke-opacity:1; fill:none"
     clip-path="url(#clip4800)" />
  <path
     id="path137"
     fill-opacity="1"
     fill-rule="evenodd"
     fill="#000000"
     d="M 0 0 M16676.9 2171.29 Q16662.4 2208.33 16648.7 2219.62 Q16635 2230.92 16612.1 2230.92 L16584.8 2230.92 L16584.8 2202.4 L16604.8 2202.4 Q16618.9 2202.4 16626.7 2195.74 Q16634.5 2189.07 16643.9 2164.25 L16650 2148.7 L16566.1 1944.63 L16602.2 1944.63 L16667.1 2106.85 L16731.9 1944.63 L16768 1944.63 L16676.9 2171.29 Z"
     clip-path="url(#clip4800)" />
  <path
     id="path139"
     fill-opacity="1"
     fill-rule="evenodd"
     fill="#000000"
     d="M 0 0 M16840.8 2120.55 L16971.3 2120.55 L16971.3 2152.03 L16795.8 2152.03 L16795.8 2120.55 Q16817.1 2098.51 16853.7 2061.48 Q16890.6 2024.26 16900 2013.51 Q16918 1993.33 16925 1979.44 Q16932.2 1965.37 16932.2 1951.85 Q16932.2 1929.81 16916.7 1915.92 Q16901.3 1902.03 16876.5 1902.03 Q16858.9 1902.03 16839.3 1908.15 Q16819.8 1914.26 16797.6 1926.66 L16797.6 1888.89 Q16820.2 1879.81 16839.8 1875.18 Q16859.5 1870.55 16875.8 1870.55 Q16918.7 1870.55 16944.3 1892.03 Q16969.8 1913.52 16969.8 1949.44 Q16969.8 1966.48 16963.3 1981.85 Q16957.1 1997.03 16940.2 2017.77 Q16935.6 2023.14 16910.8 2048.89 Q16885.9 2074.44 16840.8 2120.55 Z"
     clip-path="url(#clip4800)" />
  <circle
     r="130.61224"
     cy="1593.4695"
     cx="10187.755"
     id="path970"
     style="fill:#ff9955;fill-opacity:0.819277;stroke:#110a13;stroke-width:32.524;stroke-miterlimit:4;stroke-dasharray:260.192, 32.524;stroke-dashoffset:0" />
  <text
     id="text974"
     y="11816.979"
     x="9782.5312"
     style="font-style:normal;font-weight:normal;font-size:384px;line-height:1.25;font-family:sans-serif;fill:#000000;fill-opacity:1;stroke:none;stroke-width:4"
     xml:space="preserve"><tspan
       style="font-size:384px;stroke-width:4"
       y="11816.979"
       x="9782.5312"
       id="tspan972"
       sodipodi:role="line">2.54</tspan></text>
</svg>
