<?xml version="1.0" encoding="UTF-8" standalone="no"?>
<svg
   xmlns:dc="http://purl.org/dc/elements/1.1/"
   xmlns:cc="http://creativecommons.org/ns#"
   xmlns:rdf="http://www.w3.org/1999/02/22-rdf-syntax-ns#"
   xmlns:svg="http://www.w3.org/2000/svg"
   xmlns="http://www.w3.org/2000/svg"
   xmlns:sodipodi="http://sodipodi.sourceforge.net/DTD/sodipodi-0.dtd"
   xmlns:inkscape="http://www.inkscape.org/namespaces/inkscape"
   inkscape:export-ydpi="96"
   inkscape:export-xdpi="96"
   inkscape:export-filename="E:\UC Davis\Research\Ising Model\Research_repo\2DIsing\B_crossing.png"
   width="4800"
   height="3200"
   viewBox="0 0 19200 12800"
   version="1.1"
   id="svg181"
   sodipodi:docname="B_crossing.svg"
   inkscape:version="1.0 (4035a4fb49, 2020-05-01)">
  <metadata
     id="metadata185">
    <rdf:RDF>
      <cc:Work
         rdf:about="">
        <dc:format>image/svg+xml</dc:format>
        <dc:type
           rdf:resource="http://purl.org/dc/dcmitype/StillImage" />
      </cc:Work>
    </rdf:RDF>
  </metadata>
  <sodipodi:namedview
     inkscape:document-rotation="0"
     pagecolor="#ffffff"
     bordercolor="#666666"
     borderopacity="1"
     objecttolerance="10"
     gridtolerance="10"
     guidetolerance="10"
     inkscape:pageopacity="0"
     inkscape:pageshadow="2"
     inkscape:window-width="1280"
     inkscape:window-height="658"
     id="namedview183"
     showgrid="false"
     inkscape:zoom="0.153125"
     inkscape:cx="2400"
     inkscape:cy="1600"
     inkscape:window-x="-6"
     inkscape:window-y="-6"
     inkscape:window-maximized="1"
     inkscape:current-layer="svg181" />
  <defs
     id="defs5">
    <clipPath
       id="clip7300">
      <rect
         x="0"
         y="0"
         width="19200"
         height="12800"
         id="rect2" />
    </clipPath>
  </defs>
  <path
     clip-path="url(#clip7300)"
     d=" M0 12800 L19200 12800 L19200 0 L0 0  Z   "
     fill="#ffffff"
     fill-rule="evenodd"
     fill-opacity="1"
     id="path7" />
  <defs
     id="defs12">
    <clipPath
       id="clip7301">
      <rect
         x="3840"
         y="0"
         width="13441"
         height="12800"
         id="rect9" />
    </clipPath>
  </defs>
  <path
     clip-path="url(#clip7300)"
     d=" M1692.82 11385.4 L18822 11385.4 L18822 377.953 L1692.82 377.953  Z   "
     fill="#ffffff"
     fill-rule="evenodd"
     fill-opacity="1"
     id="path14" />
  <defs
     id="defs19">
    <clipPath
       id="clip7302">
      <rect
         x="1692"
         y="377"
         width="17130"
         height="11008"
         id="rect16" />
    </clipPath>
  </defs>
  <polyline
     clip-path="url(#clip7302)"
     style="stroke:#000000; stroke-width:16; stroke-opacity:0.1; fill:none"
     points="   4024.43,11385.4 4024.43,377.953    "
     id="polyline21" />
  <polyline
     clip-path="url(#clip7302)"
     style="stroke:#000000; stroke-width:16; stroke-opacity:0.1; fill:none"
     points="   6656.14,11385.4 6656.14,377.953    "
     id="polyline23" />
  <polyline
     clip-path="url(#clip7302)"
     style="stroke:#000000; stroke-width:16; stroke-opacity:0.1; fill:none"
     points="   9287.85,11385.4 9287.85,377.953    "
     id="polyline25" />
  <polyline
     clip-path="url(#clip7302)"
     style="stroke:#000000; stroke-width:16; stroke-opacity:0.1; fill:none"
     points="   11919.6,11385.4 11919.6,377.953    "
     id="polyline27" />
  <polyline
     clip-path="url(#clip7302)"
     style="stroke:#000000; stroke-width:16; stroke-opacity:0.1; fill:none"
     points="   14551.3,11385.4 14551.3,377.953    "
     id="polyline29" />
  <polyline
     clip-path="url(#clip7302)"
     style="stroke:#000000; stroke-width:16; stroke-opacity:0.1; fill:none"
     points="   17183,11385.4 17183,377.953    "
     id="polyline31" />
  <polyline
     clip-path="url(#clip7302)"
     style="stroke:#000000; stroke-width:16; stroke-opacity:0.1; fill:none"
     points="   1692.82,11073.9 18822,11073.9    "
     id="polyline33" />
  <polyline
     clip-path="url(#clip7302)"
     style="stroke:#000000; stroke-width:16; stroke-opacity:0.1; fill:none"
     points="   1692.82,8027.57 18822,8027.57    "
     id="polyline35" />
  <polyline
     clip-path="url(#clip7302)"
     style="stroke:#000000; stroke-width:16; stroke-opacity:0.1; fill:none"
     points="   1692.82,4981.23 18822,4981.23    "
     id="polyline37" />
  <polyline
     clip-path="url(#clip7302)"
     style="stroke:#000000; stroke-width:16; stroke-opacity:0.1; fill:none"
     points="   1692.82,1934.9 18822,1934.9    "
     id="polyline39" />
  <polyline
     clip-path="url(#clip7300)"
     style="stroke:#000000; stroke-width:32; stroke-opacity:1; fill:none"
     points="   1692.82,11385.4 18822,11385.4    "
     id="polyline41" />
  <polyline
     clip-path="url(#clip7300)"
     style="stroke:#000000; stroke-width:32; stroke-opacity:1; fill:none"
     points="   1692.82,11385.4 1692.82,377.953    "
     id="polyline43" />
  <polyline
     clip-path="url(#clip7300)"
     style="stroke:#000000; stroke-width:32; stroke-opacity:1; fill:none"
     points="   4024.43,11385.4 4024.43,11253.3    "
     id="polyline45" />
  <polyline
     clip-path="url(#clip7300)"
     style="stroke:#000000; stroke-width:32; stroke-opacity:1; fill:none"
     points="   6656.14,11385.4 6656.14,11253.3    "
     id="polyline47" />
  <polyline
     clip-path="url(#clip7300)"
     style="stroke:#000000; stroke-width:32; stroke-opacity:1; fill:none"
     points="   9287.85,11385.4 9287.85,11253.3    "
     id="polyline49" />
  <polyline
     clip-path="url(#clip7300)"
     style="stroke:#000000; stroke-width:32; stroke-opacity:1; fill:none"
     points="   11919.6,11385.4 11919.6,11253.3    "
     id="polyline51" />
  <polyline
     clip-path="url(#clip7300)"
     style="stroke:#000000; stroke-width:32; stroke-opacity:1; fill:none"
     points="   14551.3,11385.4 14551.3,11253.3    "
     id="polyline53" />
  <polyline
     clip-path="url(#clip7300)"
     style="stroke:#000000; stroke-width:32; stroke-opacity:1; fill:none"
     points="   17183,11385.4 17183,11253.3    "
     id="polyline55" />
  <polyline
     clip-path="url(#clip7300)"
     style="stroke:#000000; stroke-width:32; stroke-opacity:1; fill:none"
     points="   1692.82,11073.9 1898.37,11073.9    "
     id="polyline57" />
  <polyline
     clip-path="url(#clip7300)"
     style="stroke:#000000; stroke-width:32; stroke-opacity:1; fill:none"
     points="   1692.82,8027.57 1898.37,8027.57    "
     id="polyline59" />
  <polyline
     clip-path="url(#clip7300)"
     style="stroke:#000000; stroke-width:32; stroke-opacity:1; fill:none"
     points="   1692.82,4981.23 1898.37,4981.23    "
     id="polyline61" />
  <polyline
     clip-path="url(#clip7300)"
     style="stroke:#000000; stroke-width:32; stroke-opacity:1; fill:none"
     points="   1692.82,1934.9 1898.37,1934.9    "
     id="polyline63" />
  <path
     clip-path="url(#clip7300)"
     d="M 0 0 M3833.78 11781.7 L3964.33 11781.7 L3964.33 11813.2 L3788.78 11813.2 L3788.78 11781.7 Q3810.08 11759.7 3846.74 11722.7 Q3883.59 11685.4 3893.04 11674.7 Q3911 11654.5 3918.04 11640.6 Q3925.26 11626.5 3925.26 11613 Q3925.26 11591 3909.7 11577.1 Q3894.33 11563.2 3869.52 11563.2 Q3851.93 11563.2 3832.3 11569.3 Q3812.85 11575.4 3790.63 11587.8 L3790.63 11550.1 Q3813.22 11541 3832.85 11536.4 Q3852.48 11531.7 3868.78 11531.7 Q3911.74 11531.7 3937.3 11553.2 Q3962.85 11574.7 3962.85 11610.6 Q3962.85 11627.7 3956.37 11643 Q3950.07 11658.2 3933.22 11679 Q3928.59 11684.3 3903.78 11710.1 Q3878.96 11735.6 3833.78 11781.7 Z"
     fill="#000000"
     fill-rule="evenodd"
     fill-opacity="1"
     id="path65" />
  <path
     clip-path="url(#clip7300)"
     d="M 0 0 M4004.89 11766.2 L4043.96 11766.2 L4043.96 11813.2 L4004.89 11813.2 L4004.89 11766.2 Z"
     fill="#000000"
     fill-rule="evenodd"
     fill-opacity="1"
     id="path67" />
  <path
     clip-path="url(#clip7300)"
     d="M 0 0 M4164.52 11561.4 Q4135.63 11561.4 4121 11589.9 Q4106.56 11618.2 4106.56 11675.3 Q4106.56 11732.1 4121 11760.6 Q4135.63 11789 4164.52 11789 Q4193.59 11789 4208.04 11760.6 Q4222.67 11732.1 4222.67 11675.3 Q4222.67 11618.2 4208.04 11589.9 Q4193.59 11561.4 4164.52 11561.4 M4164.52 11531.7 Q4211 11531.7 4235.44 11568.6 Q4260.07 11605.3 4260.07 11675.3 Q4260.07 11745.1 4235.44 11781.9 Q4211 11818.6 4164.52 11818.6 Q4118.04 11818.6 4093.41 11781.9 Q4068.96 11745.1 4068.96 11675.3 Q4068.96 11605.3 4093.41 11568.6 Q4118.04 11531.7 4164.52 11531.7 Z"
     fill="#000000"
     fill-rule="evenodd"
     fill-opacity="1"
     id="path69" />
  <path
     clip-path="url(#clip7300)"
     d="M 0 0 M6470.4 11781.7 L6600.96 11781.7 L6600.96 11813.2 L6425.4 11813.2 L6425.4 11781.7 Q6446.7 11759.7 6483.36 11722.7 Q6520.21 11685.4 6529.66 11674.7 Q6547.62 11654.5 6554.66 11640.6 Q6561.88 11626.5 6561.88 11613 Q6561.88 11591 6546.33 11577.1 Q6530.96 11563.2 6506.14 11563.2 Q6488.55 11563.2 6468.92 11569.3 Q6449.47 11575.4 6427.25 11587.8 L6427.25 11550.1 Q6449.84 11541 6469.47 11536.4 Q6489.1 11531.7 6505.4 11531.7 Q6548.36 11531.7 6573.92 11553.2 Q6599.47 11574.7 6599.47 11610.6 Q6599.47 11627.7 6592.99 11643 Q6586.7 11658.2 6569.84 11679 Q6565.21 11684.3 6540.4 11710.1 Q6515.59 11735.6 6470.4 11781.7 Z"
     fill="#000000"
     fill-rule="evenodd"
     fill-opacity="1"
     id="path71" />
  <path
     clip-path="url(#clip7300)"
     d="M 0 0 M6641.51 11766.2 L6680.58 11766.2 L6680.58 11813.2 L6641.51 11813.2 L6641.51 11766.2 Z"
     fill="#000000"
     fill-rule="evenodd"
     fill-opacity="1"
     id="path73" />
  <path
     clip-path="url(#clip7300)"
     d="M 0 0 M6727.62 11781.7 L6788.73 11781.7 L6788.73 11570.8 L6722.25 11584.1 L6722.25 11550.1 L6788.36 11536.7 L6825.77 11536.7 L6825.77 11781.7 L6886.88 11781.7 L6886.88 11813.2 L6727.62 11813.2 L6727.62 11781.7 Z"
     fill="#000000"
     fill-rule="evenodd"
     fill-opacity="1"
     id="path75" />
  <path
     clip-path="url(#clip7300)"
     d="M 0 0 M9103.6 11781.7 L9234.15 11781.7 L9234.15 11813.2 L9058.6 11813.2 L9058.6 11781.7 Q9079.89 11759.7 9116.56 11722.7 Q9153.41 11685.4 9162.86 11674.7 Q9180.82 11654.5 9187.85 11640.6 Q9195.08 11626.5 9195.08 11613 Q9195.08 11591 9179.52 11577.1 Q9164.15 11563.2 9139.34 11563.2 Q9121.74 11563.2 9102.11 11569.3 Q9082.67 11575.4 9060.45 11587.8 L9060.45 11550.1 Q9083.04 11541 9102.67 11536.4 Q9122.3 11531.7 9138.6 11531.7 Q9181.56 11531.7 9207.11 11553.2 Q9232.67 11574.7 9232.67 11610.6 Q9232.67 11627.7 9226.19 11643 Q9219.89 11658.2 9203.04 11679 Q9198.41 11684.3 9173.6 11710.1 Q9148.78 11735.6 9103.6 11781.7 Z"
     fill="#000000"
     fill-rule="evenodd"
     fill-opacity="1"
     id="path77" />
  <path
     clip-path="url(#clip7300)"
     d="M 0 0 M9274.71 11766.2 L9313.78 11766.2 L9313.78 11813.2 L9274.71 11813.2 L9274.71 11766.2 Z"
     fill="#000000"
     fill-rule="evenodd"
     fill-opacity="1"
     id="path79" />
  <path
     clip-path="url(#clip7300)"
     d="M 0 0 M9386.56 11781.7 L9517.11 11781.7 L9517.11 11813.2 L9341.56 11813.2 L9341.56 11781.7 Q9362.85 11759.7 9399.52 11722.7 Q9436.37 11685.4 9445.82 11674.7 Q9463.78 11654.5 9470.82 11640.6 Q9478.04 11626.5 9478.04 11613 Q9478.04 11591 9462.48 11577.1 Q9447.11 11563.2 9422.3 11563.2 Q9404.71 11563.2 9385.08 11569.3 Q9365.63 11575.4 9343.41 11587.8 L9343.41 11550.1 Q9366 11541 9385.63 11536.4 Q9405.26 11531.7 9421.56 11531.7 Q9464.52 11531.7 9490.08 11553.2 Q9515.63 11574.7 9515.63 11610.6 Q9515.63 11627.7 9509.15 11643 Q9502.85 11658.2 9486 11679 Q9481.37 11684.3 9456.56 11710.1 Q9431.74 11735.6 9386.56 11781.7 Z"
     fill="#000000"
     fill-rule="evenodd"
     fill-opacity="1"
     id="path81" />
  <path
     clip-path="url(#clip7300)"
     d="M 0 0 M11731.5 11781.7 L11862.1 11781.7 L11862.1 11813.2 L11686.5 11813.2 L11686.5 11781.7 Q11707.8 11759.7 11744.5 11722.7 Q11781.3 11685.4 11790.8 11674.7 Q11808.7 11654.5 11815.8 11640.6 Q11823 11626.5 11823 11613 Q11823 11591 11807.4 11577.1 Q11792.1 11563.2 11767.3 11563.2 Q11749.7 11563.2 11730 11569.3 Q11710.6 11575.4 11688.4 11587.8 L11688.4 11550.1 Q11711 11541 11730.6 11536.4 Q11750.2 11531.7 11766.5 11531.7 Q11809.5 11531.7 11835 11553.2 Q11860.6 11574.7 11860.6 11610.6 Q11860.6 11627.7 11854.1 11643 Q11847.8 11658.2 11831 11679 Q11826.3 11684.3 11801.5 11710.1 Q11776.7 11735.6 11731.5 11781.7 Z"
     fill="#000000"
     fill-rule="evenodd"
     fill-opacity="1"
     id="path83" />
  <path
     clip-path="url(#clip7300)"
     d="M 0 0 M11902.6 11766.2 L11941.7 11766.2 L11941.7 11813.2 L11902.6 11813.2 L11902.6 11766.2 Z"
     fill="#000000"
     fill-rule="evenodd"
     fill-opacity="1"
     id="path85" />
  <path
     clip-path="url(#clip7300)"
     d="M 0 0 M12095.6 11664.1 Q12122.4 11669.9 12137.4 11688 Q12152.6 11706.2 12152.6 11732.8 Q12152.6 11773.8 12124.5 11796.2 Q12096.3 11818.6 12044.5 11818.6 Q12027.1 11818.6 12008.5 11815.1 Q11990.2 11811.7 11970.6 11804.9 L11970.6 11768.8 Q11986.1 11777.8 12004.7 11782.5 Q12023.2 11787.1 12043.4 11787.1 Q12078.5 11787.1 12096.9 11773.2 Q12115.4 11759.3 12115.4 11732.8 Q12115.4 11708.4 12098.2 11694.7 Q12081.1 11680.8 12050.6 11680.8 L12018.4 11680.8 L12018.4 11650.1 L12052.1 11650.1 Q12079.7 11650.1 12094.3 11639.1 Q12108.9 11628 12108.9 11607.3 Q12108.9 11586 12093.7 11574.7 Q12078.7 11563.2 12050.6 11563.2 Q12035.2 11563.2 12017.6 11566.5 Q12000 11569.9 11978.9 11576.9 L11978.9 11543.6 Q12000.2 11537.7 12018.7 11534.7 Q12037.4 11531.7 12053.9 11531.7 Q12096.5 11531.7 12121.3 11551.2 Q12146.1 11570.4 12146.1 11603.4 Q12146.1 11626.4 12133 11642.3 Q12119.8 11658 12095.6 11664.1 Z"
     fill="#000000"
     fill-rule="evenodd"
     fill-opacity="1"
     id="path87" />
  <path
     clip-path="url(#clip7300)"
     d="M 0 0 M14358.7 11781.7 L14489.2 11781.7 L14489.2 11813.2 L14313.7 11813.2 L14313.7 11781.7 Q14335 11759.7 14371.7 11722.7 Q14408.5 11685.4 14418 11674.7 Q14435.9 11654.5 14443 11640.6 Q14450.2 11626.5 14450.2 11613 Q14450.2 11591 14434.6 11577.1 Q14419.2 11563.2 14394.4 11563.2 Q14376.8 11563.2 14357.2 11569.3 Q14337.8 11575.4 14315.5 11587.8 L14315.5 11550.1 Q14338.1 11541 14357.8 11536.4 Q14377.4 11531.7 14393.7 11531.7 Q14436.7 11531.7 14462.2 11553.2 Q14487.8 11574.7 14487.8 11610.6 Q14487.8 11627.7 14481.3 11643 Q14475 11658.2 14458.1 11679 Q14453.5 11684.3 14428.7 11710.1 Q14403.9 11735.6 14358.7 11781.7 Z"
     fill="#000000"
     fill-rule="evenodd"
     fill-opacity="1"
     id="path89" />
  <path
     clip-path="url(#clip7300)"
     d="M 0 0 M14529.8 11766.2 L14568.9 11766.2 L14568.9 11813.2 L14529.8 11813.2 L14529.8 11766.2 Z"
     fill="#000000"
     fill-rule="evenodd"
     fill-opacity="1"
     id="path91" />
  <path
     clip-path="url(#clip7300)"
     d="M 0 0 M14712.2 11569.3 L14617.8 11716.9 L14712.2 11716.9 L14712.2 11569.3 M14702.4 11536.7 L14749.4 11536.7 L14749.4 11716.9 L14788.9 11716.9 L14788.9 11748 L14749.4 11748 L14749.4 11813.2 L14712.2 11813.2 L14712.2 11748 L14587.4 11748 L14587.4 11711.9 L14702.4 11536.7 Z"
     fill="#000000"
     fill-rule="evenodd"
     fill-opacity="1"
     id="path93" />
  <path
     clip-path="url(#clip7300)"
     d="M 0 0 M16996.3 11781.7 L17126.9 11781.7 L17126.9 11813.2 L16951.3 11813.2 L16951.3 11781.7 Q16972.6 11759.7 17009.3 11722.7 Q17046.1 11685.4 17055.6 11674.7 Q17073.6 11654.5 17080.6 11640.6 Q17087.8 11626.5 17087.8 11613 Q17087.8 11591 17072.3 11577.1 Q17056.9 11563.2 17032.1 11563.2 Q17014.5 11563.2 16994.8 11569.3 Q16975.4 11575.4 16953.2 11587.8 L16953.2 11550.1 Q16975.8 11541 16995.4 11536.4 Q17015 11531.7 17031.3 11531.7 Q17074.3 11531.7 17099.8 11553.2 Q17125.4 11574.7 17125.4 11610.6 Q17125.4 11627.7 17118.9 11643 Q17112.6 11658.2 17095.8 11679 Q17091.1 11684.3 17066.3 11710.1 Q17041.5 11735.6 16996.3 11781.7 Z"
     fill="#000000"
     fill-rule="evenodd"
     fill-opacity="1"
     id="path95" />
  <path
     clip-path="url(#clip7300)"
     d="M 0 0 M17167.4 11766.2 L17206.5 11766.2 L17206.5 11813.2 L17167.4 11813.2 L17167.4 11766.2 Z"
     fill="#000000"
     fill-rule="evenodd"
     fill-opacity="1"
     id="path97" />
  <path
     clip-path="url(#clip7300)"
     d="M 0 0 M17247.4 11536.7 L17394.3 11536.7 L17394.3 11568.2 L17281.7 11568.2 L17281.7 11636 Q17289.8 11633.2 17298 11631.9 Q17306.1 11630.4 17314.3 11630.4 Q17360.6 11630.4 17387.6 11655.8 Q17414.7 11681.2 17414.7 11724.5 Q17414.7 11769.1 17386.9 11794 Q17359.1 11818.6 17308.6 11818.6 Q17291.1 11818.6 17273 11815.6 Q17255 11812.7 17235.8 11806.7 L17235.8 11769.1 Q17252.4 11778.2 17270.2 11782.7 Q17288 11787.1 17307.8 11787.1 Q17339.8 11787.1 17358.6 11770.3 Q17377.3 11753.4 17377.3 11724.5 Q17377.3 11695.6 17358.6 11678.8 Q17339.8 11661.9 17307.8 11661.9 Q17292.8 11661.9 17277.8 11665.3 Q17263 11668.6 17247.4 11675.6 L17247.4 11536.7 Z"
     fill="#000000"
     fill-rule="evenodd"
     fill-opacity="1"
     id="path99" />
  <path
     clip-path="url(#clip7300)"
     d="M 0 0 M1109.53 10960.3 Q1080.64 10960.3 1066.01 10988.8 Q1051.56 11017.1 1051.56 11074.2 Q1051.56 11131 1066.01 11159.6 Q1080.64 11187.9 1109.53 11187.9 Q1138.6 11187.9 1153.04 11159.6 Q1167.67 11131 1167.67 11074.2 Q1167.67 11017.1 1153.04 10988.8 Q1138.6 10960.3 1109.53 10960.3 M1109.53 10930.7 Q1156.01 10930.7 1180.45 10967.5 Q1205.08 11004.2 1205.08 11074.2 Q1205.08 11144 1180.45 11180.8 Q1156.01 11217.5 1109.53 11217.5 Q1063.04 11217.5 1038.41 11180.8 Q1013.97 11144 1013.97 11074.2 Q1013.97 11004.2 1038.41 10967.5 Q1063.04 10930.7 1109.53 10930.7 Z"
     fill="#000000"
     fill-rule="evenodd"
     fill-opacity="1"
     id="path101" />
  <path
     clip-path="url(#clip7300)"
     d="M 0 0 M1245.64 11165.1 L1284.71 11165.1 L1284.71 11212.1 L1245.64 11212.1 L1245.64 11165.1 Z"
     fill="#000000"
     fill-rule="evenodd"
     fill-opacity="1"
     id="path103" />
  <path
     clip-path="url(#clip7300)"
     d="M 0 0 M1405.26 10960.3 Q1376.38 10960.3 1361.75 10988.8 Q1347.3 11017.1 1347.3 11074.2 Q1347.3 11131 1361.75 11159.6 Q1376.38 11187.9 1405.26 11187.9 Q1434.34 11187.9 1448.78 11159.6 Q1463.41 11131 1463.41 11074.2 Q1463.41 11017.1 1448.78 10988.8 Q1434.34 10960.3 1405.26 10960.3 M1405.26 10930.7 Q1451.75 10930.7 1476.19 10967.5 Q1500.82 11004.2 1500.82 11074.2 Q1500.82 11144 1476.19 11180.8 Q1451.75 11217.5 1405.26 11217.5 Q1358.78 11217.5 1334.15 11180.8 Q1309.71 11144 1309.71 11074.2 Q1309.71 11004.2 1334.15 10967.5 Q1358.78 10930.7 1405.26 10930.7 Z"
     fill="#000000"
     fill-rule="evenodd"
     fill-opacity="1"
     id="path105" />
  <path
     clip-path="url(#clip7300)"
     d="M 0 0 M1122.3 7913.96 Q1093.41 7913.96 1078.78 7942.48 Q1064.34 7970.81 1064.34 8027.85 Q1064.34 8084.7 1078.78 8113.22 Q1093.41 8141.55 1122.3 8141.55 Q1151.38 8141.55 1165.82 8113.22 Q1180.45 8084.7 1180.45 8027.85 Q1180.45 7970.81 1165.82 7942.48 Q1151.38 7913.96 1122.3 7913.96 M1122.3 7884.33 Q1168.78 7884.33 1193.23 7921.18 Q1217.86 7957.85 1217.86 8027.85 Q1217.86 8097.66 1193.23 8134.51 Q1168.78 8171.18 1122.3 8171.18 Q1075.82 8171.18 1051.19 8134.51 Q1026.75 8097.66 1026.75 8027.85 Q1026.75 7957.85 1051.19 7921.18 Q1075.82 7884.33 1122.3 7884.33 Z"
     fill="#000000"
     fill-rule="evenodd"
     fill-opacity="1"
     id="path107" />
  <path
     clip-path="url(#clip7300)"
     d="M 0 0 M1258.41 8118.77 L1297.49 8118.77 L1297.49 8165.81 L1258.41 8165.81 L1258.41 8118.77 Z"
     fill="#000000"
     fill-rule="evenodd"
     fill-opacity="1"
     id="path109" />
  <path
     clip-path="url(#clip7300)"
     d="M 0 0 M1370.26 8134.33 L1500.82 8134.33 L1500.82 8165.81 L1325.26 8165.81 L1325.26 8134.33 Q1346.56 8112.29 1383.23 8075.26 Q1420.08 8038.03 1429.52 8027.29 Q1447.49 8007.11 1454.52 7993.22 Q1461.75 7979.14 1461.75 7965.63 Q1461.75 7943.59 1446.19 7929.7 Q1430.82 7915.81 1406.01 7915.81 Q1388.41 7915.81 1368.78 7921.92 Q1349.34 7928.03 1327.12 7940.44 L1327.12 7902.66 Q1349.71 7893.59 1369.34 7888.96 Q1388.97 7884.33 1405.26 7884.33 Q1448.23 7884.33 1473.78 7905.81 Q1499.34 7927.29 1499.34 7963.22 Q1499.34 7980.26 1492.86 7995.63 Q1486.56 8010.81 1469.71 8031.55 Q1465.08 8036.92 1440.26 8062.66 Q1415.45 8088.22 1370.26 8134.33 Z"
     fill="#000000"
     fill-rule="evenodd"
     fill-opacity="1"
     id="path111" />
  <path
     clip-path="url(#clip7300)"
     d="M 0 0 M1105.64 4867.62 Q1076.75 4867.62 1062.12 4896.14 Q1047.67 4924.48 1047.67 4981.51 Q1047.67 5038.36 1062.12 5066.88 Q1076.75 5095.22 1105.64 5095.22 Q1134.71 5095.22 1149.15 5066.88 Q1163.78 5038.36 1163.78 4981.51 Q1163.78 4924.48 1149.15 4896.14 Q1134.71 4867.62 1105.64 4867.62 M1105.64 4837.99 Q1152.12 4837.99 1176.56 4874.85 Q1201.19 4911.51 1201.19 4981.51 Q1201.19 5051.33 1176.56 5088.18 Q1152.12 5124.84 1105.64 5124.84 Q1059.16 5124.84 1034.53 5088.18 Q1010.08 5051.33 1010.08 4981.51 Q1010.08 4911.51 1034.53 4874.85 Q1059.16 4837.99 1105.64 4837.99 Z"
     fill="#000000"
     fill-rule="evenodd"
     fill-opacity="1"
     id="path113" />
  <path
     clip-path="url(#clip7300)"
     d="M 0 0 M1241.75 5072.44 L1280.82 5072.44 L1280.82 5119.47 L1241.75 5119.47 L1241.75 5072.44 Z"
     fill="#000000"
     fill-rule="evenodd"
     fill-opacity="1"
     id="path115" />
  <path
     clip-path="url(#clip7300)"
     d="M 0 0 M1424.15 4875.59 L1329.71 5023.18 L1424.15 5023.18 L1424.15 4875.59 M1414.34 4842.99 L1461.38 4842.99 L1461.38 5023.18 L1500.82 5023.18 L1500.82 5054.29 L1461.38 5054.29 L1461.38 5119.47 L1424.15 5119.47 L1424.15 5054.29 L1299.34 5054.29 L1299.34 5018.18 L1414.34 4842.99 Z"
     fill="#000000"
     fill-rule="evenodd"
     fill-opacity="1"
     id="path117" />
  <path
     clip-path="url(#clip7300)"
     d="M 0 0 M1108.23 1821.29 Q1079.34 1821.29 1064.71 1849.81 Q1050.27 1878.14 1050.27 1935.18 Q1050.27 1992.03 1064.71 2020.55 Q1079.34 2048.88 1108.23 2048.88 Q1137.3 2048.88 1151.75 2020.55 Q1166.38 1992.03 1166.38 1935.18 Q1166.38 1878.14 1151.75 1849.81 Q1137.3 1821.29 1108.23 1821.29 M1108.23 1791.66 Q1154.71 1791.66 1179.15 1828.51 Q1203.78 1865.18 1203.78 1935.18 Q1203.78 2004.99 1179.15 2041.84 Q1154.71 2078.51 1108.23 2078.51 Q1061.75 2078.51 1037.12 2041.84 Q1012.67 2004.99 1012.67 1935.18 Q1012.67 1865.18 1037.12 1828.51 Q1061.75 1791.66 1108.23 1791.66 Z"
     fill="#000000"
     fill-rule="evenodd"
     fill-opacity="1"
     id="path119" />
  <path
     clip-path="url(#clip7300)"
     d="M 0 0 M1244.34 2026.1 L1283.41 2026.1 L1283.41 2073.14 L1244.34 2073.14 L1244.34 2026.1 Z"
     fill="#000000"
     fill-rule="evenodd"
     fill-opacity="1"
     id="path121" />
  <path
     clip-path="url(#clip7300)"
     d="M 0 0 M1408.6 1919.99 Q1383.41 1919.99 1368.6 1937.21 Q1353.97 1954.44 1353.97 1984.44 Q1353.97 2014.25 1368.6 2031.66 Q1383.41 2048.88 1408.6 2048.88 Q1433.78 2048.88 1448.41 2031.66 Q1463.23 2014.25 1463.23 1984.44 Q1463.23 1954.44 1448.41 1937.21 Q1433.78 1919.99 1408.6 1919.99 M1482.86 1802.77 L1482.86 1836.84 Q1468.78 1830.18 1454.34 1826.66 Q1440.08 1823.14 1426 1823.14 Q1388.97 1823.14 1369.34 1848.14 Q1349.89 1873.14 1347.12 1923.69 Q1358.04 1907.58 1374.52 1899.07 Q1391.01 1890.36 1410.82 1890.36 Q1452.49 1890.36 1476.56 1915.73 Q1500.82 1940.92 1500.82 1984.44 Q1500.82 2027.03 1475.63 2052.77 Q1450.45 2078.51 1408.6 2078.51 Q1360.63 2078.51 1335.26 2041.84 Q1309.89 2004.99 1309.89 1935.18 Q1309.89 1869.62 1341.01 1830.73 Q1372.12 1791.66 1424.52 1791.66 Q1438.6 1791.66 1452.86 1794.44 Q1467.3 1797.21 1482.86 1802.77 Z"
     fill="#000000"
     fill-rule="evenodd"
     fill-opacity="1"
     id="path123" />
  <path
     clip-path="url(#clip7300)"
     d="M 0 0 M10096.6 12068.2 L10418.2 12068.2 L10418.2 12111.5 L10283.3 12111.5 L10283.3 12448.4 L10231.6 12448.4 L10231.6 12111.5 L10096.6 12111.5 L10096.6 12068.2 Z"
     fill="#000000"
     fill-rule="evenodd"
     fill-opacity="1"
     id="path125" />
  <path
     clip-path="url(#clip7300)"
     d="M 0 0 M522.483 5965.09 L661.765 5965.09 L661.765 5882.59 Q661.765 5841.08 644.705 5821.22 Q627.39 5801.11 591.997 5801.11 Q556.349 5801.11 539.543 5821.22 Q522.483 5841.08 522.483 5882.59 L522.483 5965.09 M366.142 5965.09 L480.724 5965.09 L480.724 5888.95 Q480.724 5851.27 466.72 5832.93 Q452.461 5814.35 423.433 5814.35 Q394.66 5814.35 380.401 5832.93 Q366.142 5851.27 366.142 5888.95 L366.142 5965.09 M323.873 6016.52 L323.873 5885.13 Q323.873 5826.31 348.318 5794.49 Q372.762 5762.66 417.831 5762.66 Q452.715 5762.66 473.34 5778.95 Q493.965 5795.25 499.058 5826.82 Q507.206 5788.88 533.178 5768 Q558.895 5746.87 597.599 5746.87 Q648.524 5746.87 676.279 5781.5 Q704.033 5816.13 704.033 5880.04 L704.033 6016.52 L323.873 6016.52 Z"
     fill="#000000"
     fill-rule="evenodd"
     fill-opacity="1"
     id="path127" />
  <polyline
     clip-path="url(#clip7302)"
     style="stroke:#009af9; stroke-width:48; stroke-opacity:1; fill:none"
     points="   2177.61,10890.4 2500.8,10865.4 2823.99,10812.5 3147.19,10853.4 3470.38,10840.6 3793.57,10831.3 4116.77,10808.5 4439.96,10824.9 4763.15,10733.3 5086.35,10778.2    5409.54,10751.4 5732.73,10659 6055.92,10719.8 6379.12,10599.5 6702.31,10600.4 7025.5,10612 7348.7,10452 7671.89,10516.5 7995.08,10389.6 8318.28,10394.5    8641.47,10322.5 8964.66,10360.9 9287.85,10268.4 9611.05,10149.1 9934.24,9937.99 10257.4,10209.5 10580.6,9916.55 10903.8,9881.93 11227,9834.47 11550.2,9692.76    11873.4,9655.07 12196.6,9635.64 12519.8,9539.28 12843,9408.11 13166.2,9406.9 13489.4,9426.95 13812.6,9016.56 14135.7,8838.56 14458.9,8692.4 14782.1,8581.73    15105.3,8768.97 15428.5,8626.36 15751.7,8557.76 16074.9,8364.77 16398.1,8134.13 16721.3,8077.6 17044.5,8040.42 17367.7,7760.38 17690.9,7637.94 18014.1,7890.85    18337.3,7175.49    "
     id="polyline129" />
  <polyline
     clip-path="url(#clip7302)"
     style="stroke:#e26f46; stroke-width:48; stroke-opacity:1; fill:none"
     points="   2177.61,10967.6 2500.8,10986 2823.99,10958.7 3147.19,10914.7 3470.38,10942.8 3793.57,10909.1 4116.77,10922.5 4439.96,10899.5 4763.15,10911.8 5086.35,10908.3    5409.54,10821 5732.73,10821.7 6055.92,10831.7 6379.12,10697.4 6702.31,10735.6 7025.5,10669.6 7348.7,10655 7671.89,10531.7 7995.08,10603.5 8318.28,10566.2    8641.47,10324.6 8964.66,10407.1 9287.85,10249.7 9611.05,10178.1 9934.24,10090.4 10257.4,10000.7 10580.6,10080.1 10903.8,9986.84 11227,9717.53 11550.2,9871.81    11873.4,9243.94 12196.6,9477.99 12519.8,9249.3 12843,9191.52 13166.2,9032.61 13489.4,8397.57 13812.6,8231.8 14135.7,8686.83 14458.9,8597.67 14782.1,7741.05    15105.3,8028.25 15428.5,7174.51 15751.7,7510.85 16074.9,7160.93 16398.1,6964.21 16721.3,6723.42 17044.5,5964.67 17367.7,5901.88 17690.9,6336.8 18014.1,5203.77    18337.3,5611.21    "
     id="polyline131" />
  <polyline
     clip-path="url(#clip7302)"
     style="stroke:#3da44d; stroke-width:48; stroke-opacity:1; fill:none"
     points="   2177.61,11025.9 2500.8,11015 2823.99,11009.5 3147.19,10997.2 3470.38,11002 3793.57,10989.9 4116.77,10977.6 4439.96,10955.8 4763.15,10891.7 5086.35,10936.9    5409.54,10952.8 5732.73,10895.1 6055.92,10914 6379.12,10863.7 6702.31,10811.3 7025.5,10840.2 7348.7,10855.1 7671.89,10780.1 7995.08,10691 8318.28,10611    8641.47,10653.5 8964.66,10610.4 9287.85,10442.5 9611.05,10657.8 9934.24,10381.1 10257.4,10215.7 10580.6,10057.7 10903.8,9713.66 11227,10059.6 11550.2,9551.43    11873.4,9669.54 12196.6,9580.68 12519.8,9356.01 12843,8876.33 13166.2,8380.58 13489.4,8394.78 13812.6,7711.87 14135.7,7151.81 14458.9,7169.34 14782.1,6908.21    15105.3,6783.6 15428.5,7078.49 15751.7,5164.59 16074.9,5539.61 16398.1,6155.97 16721.3,5136.56 17044.5,4794.4 17367.7,4527.2 17690.9,3883.9 18014.1,4557.67    18337.3,3102.22    "
     id="polyline133" />
  <polyline
     clip-path="url(#clip7302)"
     style="stroke:#c271d2; stroke-width:48; stroke-opacity:1; fill:none"
     points="   2177.61,11046.9 2500.8,11044 2823.99,11040.8 3147.19,11042.8 3470.38,11031.4 3793.57,11039.3 4116.77,11025.4 4439.96,11018 4763.15,11014.2 5086.35,10998.4    5409.54,10981.4 5732.73,10996.6 6055.92,10964.9 6379.12,10998.4 6702.31,10958 7025.5,10855.7 7348.7,10921.6 7671.89,10930.7 7995.08,10899.2 8318.28,10634.3    8641.47,10708.5 8964.66,10731.1 9287.85,10724.8 9611.05,10748.3 9934.24,10431.5 10257.4,9881.21 10580.6,9704.43 10903.8,10191.1 11227,8956.07 11550.2,9495.43    11873.4,9609.84 12196.6,9343.09 12519.8,9087.22 12843,7565.11 13166.2,7521.72 13489.4,7097.83 13812.6,6397.36 14135.7,4649.2 14458.9,5164.94 14782.1,5221.26    15105.3,5470.49 15428.5,5154.69 15751.7,2680.46 16074.9,2591.6 16398.1,2544.32 16721.3,1106.39 17044.5,1151.89 17367.7,689.485 17690.9,1741.65 18014.1,2539.52    18337.3,1068.8    "
     id="polyline135" />
  <polyline
     clip-path="url(#clip7302)"
     style="fill:none;stroke:#ac8d18;stroke-width:32;stroke-opacity:1"
     stroke-dasharray="128, 80"
     points="   10866.9,11073.9 10866.9,3458.07    "
     id="polyline137"
     transform="matrix(1,0,0,1.1097606,0,-963.55997)" />
  <path
     clip-path="url(#clip7300)"
     d=" M2268.82 3465.31 L5001.96 3465.31 L5001.96 1046.11 L2268.82 1046.11  Z   "
     fill="#ffffff"
     fill-rule="evenodd"
     fill-opacity="1"
     id="path139" />
  <polyline
     clip-path="url(#clip7300)"
     style="stroke:#000000; stroke-width:32; stroke-opacity:1; fill:none"
     points="   2268.82,3465.31 5001.96,3465.31 5001.96,1046.11 2268.82,1046.11 2268.82,3465.31    "
     id="polyline141" />
  <polyline
     clip-path="url(#clip7300)"
     style="stroke:#009af9; stroke-width:48; stroke-opacity:1; fill:none"
     points="   2460.82,1529.95 3612.82,1529.95    "
     id="polyline143" />
  <path
     clip-path="url(#clip7300)"
     d="M 0 0 M3842.23 1536.16 L3842.23 1637.45 L3902.23 1637.45 Q3932.41 1637.45 3946.86 1625.04 Q3961.49 1612.45 3961.49 1586.71 Q3961.49 1560.79 3946.86 1548.56 Q3932.41 1536.16 3902.23 1536.16 L3842.23 1536.16 M3842.23 1422.45 L3842.23 1505.79 L3897.6 1505.79 Q3925 1505.79 3938.34 1495.6 Q3951.86 1485.23 3951.86 1464.12 Q3951.86 1443.19 3938.34 1432.82 Q3925 1422.45 3897.6 1422.45 L3842.23 1422.45 M3804.82 1391.71 L3900.37 1391.71 Q3943.15 1391.71 3966.3 1409.49 Q3989.45 1427.27 3989.45 1460.05 Q3989.45 1485.42 3977.6 1500.42 Q3965.74 1515.42 3942.78 1519.12 Q3970.37 1525.05 3985.56 1543.93 Q4000.93 1562.64 4000.93 1590.79 Q4000.93 1627.82 3975.74 1648.01 Q3950.56 1668.19 3904.08 1668.19 L3804.82 1668.19 L3804.82 1391.71 Z"
     fill="#000000"
     fill-rule="evenodd"
     fill-opacity="1"
     id="path145" />
  <path
     clip-path="url(#clip7300)"
     d="M 0 0 M4194.26 1731.16 L4194.26 1757.64 L3997.23 1757.64 L3997.23 1731.16 L4194.26 1731.16 Z"
     fill="#000000"
     fill-rule="evenodd"
     fill-opacity="1"
     id="path147" />
  <path
     clip-path="url(#clip7300)"
     d="M 0 0 M4314.82 1536.9 Q4288.15 1536.9 4272.78 1551.16 Q4257.59 1565.42 4257.59 1590.42 Q4257.59 1615.42 4272.78 1629.67 Q4288.15 1643.93 4314.82 1643.93 Q4341.48 1643.93 4356.85 1629.67 Q4372.22 1615.23 4372.22 1590.42 Q4372.22 1565.42 4356.85 1551.16 Q4341.67 1536.9 4314.82 1536.9 M4277.41 1520.97 Q4253.34 1515.05 4239.82 1498.56 Q4226.48 1482.08 4226.48 1458.38 Q4226.48 1425.23 4250 1405.97 Q4273.71 1386.71 4314.82 1386.71 Q4356.11 1386.71 4379.63 1405.97 Q4403.15 1425.23 4403.15 1458.38 Q4403.15 1482.08 4389.63 1498.56 Q4376.3 1515.05 4352.41 1520.97 Q4379.45 1527.27 4394.45 1545.6 Q4409.63 1563.93 4409.63 1590.42 Q4409.63 1630.6 4385 1652.08 Q4360.56 1673.56 4314.82 1673.56 Q4269.08 1673.56 4244.45 1652.08 Q4220 1630.6 4220 1590.42 Q4220 1563.93 4235.19 1545.6 Q4250.37 1527.27 4277.41 1520.97 M4263.71 1461.9 Q4263.71 1483.38 4277.04 1495.42 Q4290.56 1507.45 4314.82 1507.45 Q4338.89 1507.45 4352.41 1495.42 Q4366.11 1483.38 4366.11 1461.9 Q4366.11 1440.42 4352.41 1428.38 Q4338.89 1416.34 4314.82 1416.34 Q4290.56 1416.34 4277.04 1428.38 Q4263.71 1440.42 4263.71 1461.9 Z"
     fill="#000000"
     fill-rule="evenodd"
     fill-opacity="1"
     id="path149" />
  <polyline
     clip-path="url(#clip7300)"
     style="stroke:#e26f46; stroke-width:48; stroke-opacity:1; fill:none"
     points="   2460.82,2013.79 3612.82,2013.79    "
     id="polyline151" />
  <path
     clip-path="url(#clip7300)"
     d="M 0 0 M3842.23 2020 L3842.23 2121.29 L3902.23 2121.29 Q3932.41 2121.29 3946.86 2108.88 Q3961.49 2096.29 3961.49 2070.55 Q3961.49 2044.63 3946.86 2032.4 Q3932.41 2020 3902.23 2020 L3842.23 2020 M3842.23 1906.29 L3842.23 1989.63 L3897.6 1989.63 Q3925 1989.63 3938.34 1979.44 Q3951.86 1969.07 3951.86 1947.96 Q3951.86 1927.03 3938.34 1916.66 Q3925 1906.29 3897.6 1906.29 L3842.23 1906.29 M3804.82 1875.55 L3900.37 1875.55 Q3943.15 1875.55 3966.3 1893.33 Q3989.45 1911.11 3989.45 1943.89 Q3989.45 1969.26 3977.6 1984.26 Q3965.74 1999.26 3942.78 2002.96 Q3970.37 2008.89 3985.56 2027.77 Q4000.93 2046.48 4000.93 2074.63 Q4000.93 2111.66 3975.74 2131.85 Q3950.56 2152.03 3904.08 2152.03 L3804.82 2152.03 L3804.82 1875.55 Z"
     fill="#000000"
     fill-rule="evenodd"
     fill-opacity="1"
     id="path153" />
  <path
     clip-path="url(#clip7300)"
     d="M 0 0 M4194.26 2215 L4194.26 2241.48 L3997.23 2241.48 L3997.23 2215 L4194.26 2215 Z"
     fill="#000000"
     fill-rule="evenodd"
     fill-opacity="1"
     id="path155" />
  <path
     clip-path="url(#clip7300)"
     d="M 0 0 M4241.3 2120.55 L4302.41 2120.55 L4302.41 1909.63 L4235.93 1922.96 L4235.93 1888.89 L4302.04 1875.55 L4339.45 1875.55 L4339.45 2120.55 L4400.56 2120.55 L4400.56 2152.03 L4241.3 2152.03 L4241.3 2120.55 Z"
     fill="#000000"
     fill-rule="evenodd"
     fill-opacity="1"
     id="path157" />
  <path
     clip-path="url(#clip7300)"
     d="M 0 0 M4473.33 2120.55 L4603.89 2120.55 L4603.89 2152.03 L4428.33 2152.03 L4428.33 2120.55 Q4449.63 2098.51 4486.3 2061.48 Q4523.15 2024.26 4532.59 2013.51 Q4550.56 1993.33 4557.59 1979.44 Q4564.82 1965.37 4564.82 1951.85 Q4564.82 1929.81 4549.26 1915.92 Q4533.89 1902.03 4509.07 1902.03 Q4491.48 1902.03 4471.85 1908.15 Q4452.41 1914.26 4430.19 1926.66 L4430.19 1888.89 Q4452.78 1879.81 4472.41 1875.18 Q4492.04 1870.55 4508.33 1870.55 Q4551.3 1870.55 4576.85 1892.03 Q4602.41 1913.52 4602.41 1949.44 Q4602.41 1966.48 4595.93 1981.85 Q4589.63 1997.03 4572.78 2017.77 Q4568.15 2023.14 4543.33 2048.89 Q4518.52 2074.44 4473.33 2120.55 Z"
     fill="#000000"
     fill-rule="evenodd"
     fill-opacity="1"
     id="path159" />
  <polyline
     clip-path="url(#clip7300)"
     style="stroke:#3da44d; stroke-width:48; stroke-opacity:1; fill:none"
     points="   2460.82,2497.63 3612.82,2497.63    "
     id="polyline161" />
  <path
     clip-path="url(#clip7300)"
     d="M 0 0 M3842.23 2503.84 L3842.23 2605.13 L3902.23 2605.13 Q3932.41 2605.13 3946.86 2592.72 Q3961.49 2580.13 3961.49 2554.39 Q3961.49 2528.47 3946.86 2516.24 Q3932.41 2503.84 3902.23 2503.84 L3842.23 2503.84 M3842.23 2390.13 L3842.23 2473.47 L3897.6 2473.47 Q3925 2473.47 3938.34 2463.28 Q3951.86 2452.91 3951.86 2431.8 Q3951.86 2410.87 3938.34 2400.5 Q3925 2390.13 3897.6 2390.13 L3842.23 2390.13 M3804.82 2359.39 L3900.37 2359.39 Q3943.15 2359.39 3966.3 2377.17 Q3989.45 2394.95 3989.45 2427.73 Q3989.45 2453.1 3977.6 2468.1 Q3965.74 2483.1 3942.78 2486.8 Q3970.37 2492.73 3985.56 2511.61 Q4000.93 2530.32 4000.93 2558.47 Q4000.93 2595.5 3975.74 2615.69 Q3950.56 2635.87 3904.08 2635.87 L3804.82 2635.87 L3804.82 2359.39 Z"
     fill="#000000"
     fill-rule="evenodd"
     fill-opacity="1"
     id="path163" />
  <path
     clip-path="url(#clip7300)"
     d="M 0 0 M4194.26 2698.84 L4194.26 2725.32 L3997.23 2725.32 L3997.23 2698.84 L4194.26 2698.84 Z"
     fill="#000000"
     fill-rule="evenodd"
     fill-opacity="1"
     id="path165" />
  <path
     clip-path="url(#clip7300)"
     d="M 0 0 M4241.3 2604.39 L4302.41 2604.39 L4302.41 2393.47 L4235.93 2406.8 L4235.93 2372.73 L4302.04 2359.39 L4339.45 2359.39 L4339.45 2604.39 L4400.56 2604.39 L4400.56 2635.87 L4241.3 2635.87 L4241.3 2604.39 Z"
     fill="#000000"
     fill-rule="evenodd"
     fill-opacity="1"
     id="path167" />
  <path
     clip-path="url(#clip7300)"
     d="M 0 0 M4525.74 2482.73 Q4500.56 2482.73 4485.74 2499.95 Q4471.11 2517.17 4471.11 2547.17 Q4471.11 2576.98 4485.74 2594.39 Q4500.56 2611.61 4525.74 2611.61 Q4550.93 2611.61 4565.56 2594.39 Q4580.37 2576.98 4580.37 2547.17 Q4580.37 2517.17 4565.56 2499.95 Q4550.93 2482.73 4525.74 2482.73 M4600 2365.5 L4600 2399.58 Q4585.93 2392.91 4571.48 2389.39 Q4557.22 2385.87 4543.15 2385.87 Q4506.11 2385.87 4486.48 2410.87 Q4467.04 2435.87 4464.26 2486.43 Q4475.19 2470.32 4491.67 2461.8 Q4508.15 2453.1 4527.96 2453.1 Q4569.63 2453.1 4593.7 2478.47 Q4617.96 2503.65 4617.96 2547.17 Q4617.96 2589.76 4592.78 2615.5 Q4567.59 2641.24 4525.74 2641.24 Q4477.78 2641.24 4452.41 2604.58 Q4427.04 2567.72 4427.04 2497.91 Q4427.04 2432.36 4458.15 2393.47 Q4489.26 2354.39 4541.67 2354.39 Q4555.74 2354.39 4570 2357.17 Q4584.44 2359.95 4600 2365.5 Z"
     fill="#000000"
     fill-rule="evenodd"
     fill-opacity="1"
     id="path169" />
  <polyline
     clip-path="url(#clip7300)"
     style="stroke:#c271d2; stroke-width:48; stroke-opacity:1; fill:none"
     points="   2460.82,2981.47 3612.82,2981.47    "
     id="polyline171" />
  <path
     clip-path="url(#clip7300)"
     d="M 0 0 M3842.23 2987.68 L3842.23 3088.97 L3902.23 3088.97 Q3932.41 3088.97 3946.86 3076.56 Q3961.49 3063.97 3961.49 3038.23 Q3961.49 3012.31 3946.86 3000.08 Q3932.41 2987.68 3902.23 2987.68 L3842.23 2987.68 M3842.23 2873.97 L3842.23 2957.31 L3897.6 2957.31 Q3925 2957.31 3938.34 2947.12 Q3951.86 2936.75 3951.86 2915.64 Q3951.86 2894.71 3938.34 2884.34 Q3925 2873.97 3897.6 2873.97 L3842.23 2873.97 M3804.82 2843.23 L3900.37 2843.23 Q3943.15 2843.23 3966.3 2861.01 Q3989.45 2878.79 3989.45 2911.57 Q3989.45 2936.94 3977.6 2951.94 Q3965.74 2966.94 3942.78 2970.64 Q3970.37 2976.57 3985.56 2995.45 Q4000.93 3014.16 4000.93 3042.31 Q4000.93 3079.34 3975.74 3099.53 Q3950.56 3119.71 3904.08 3119.71 L3804.82 3119.71 L3804.82 2843.23 Z"
     fill="#000000"
     fill-rule="evenodd"
     fill-opacity="1"
     id="path173" />
  <path
     clip-path="url(#clip7300)"
     d="M 0 0 M4194.26 3182.68 L4194.26 3209.16 L3997.23 3209.16 L3997.23 3182.68 L4194.26 3182.68 Z"
     fill="#000000"
     fill-rule="evenodd"
     fill-opacity="1"
     id="path175" />
  <path
     clip-path="url(#clip7300)"
     d="M 0 0 M4267.04 3088.23 L4397.59 3088.23 L4397.59 3119.71 L4222.04 3119.71 L4222.04 3088.23 Q4243.34 3066.19 4280 3029.16 Q4316.85 2991.94 4326.3 2981.19 Q4344.26 2961.01 4351.3 2947.12 Q4358.52 2933.05 4358.52 2919.53 Q4358.52 2897.49 4342.96 2883.6 Q4327.59 2869.71 4302.78 2869.71 Q4285.19 2869.71 4265.56 2875.83 Q4246.11 2881.94 4223.89 2894.34 L4223.89 2856.57 Q4246.48 2847.49 4266.11 2842.86 Q4285.74 2838.23 4302.04 2838.23 Q4345 2838.23 4370.56 2859.71 Q4396.11 2881.2 4396.11 2917.12 Q4396.11 2934.16 4389.63 2949.53 Q4383.33 2964.71 4366.48 2985.45 Q4361.85 2990.82 4337.04 3016.57 Q4312.22 3042.12 4267.04 3088.23 Z"
     fill="#000000"
     fill-rule="evenodd"
     fill-opacity="1"
     id="path177" />
  <path
     clip-path="url(#clip7300)"
     d="M 0 0 M4540.93 2875.83 L4446.48 3023.42 L4540.93 3023.42 L4540.93 2875.83 M4531.11 2843.23 L4578.15 2843.23 L4578.15 3023.42 L4617.59 3023.42 L4617.59 3054.53 L4578.15 3054.53 L4578.15 3119.71 L4540.93 3119.71 L4540.93 3054.53 L4416.11 3054.53 L4416.11 3018.42 L4531.11 2843.23 Z"
     fill="#000000"
     fill-rule="evenodd"
     fill-opacity="1"
     id="path179" />
  <text
     xml:space="preserve"
     style="font-style:normal;font-weight:normal;font-size:384px;line-height:1.25;font-family:sans-serif;fill:#000000;fill-opacity:1;stroke:none;stroke-width:4"
     x="10432.979"
     y="11829.225"
     id="text1012"><tspan
       sodipodi:role="line"
       id="tspan1010"
       x="10432.979"
       y="11829.225"
       style="font-size:384px;stroke-width:4">2.26</tspan></text>
</svg>
