<?xml version="1.0" encoding="utf-8"?>
<svg xmlns="http://www.w3.org/2000/svg" xmlns:xlink="http://www.w3.org/1999/xlink" width="4800" height="3200" viewBox="0 0 19200 12800">
<defs>
  <clipPath id="clip8400">
    <rect x="0" y="0" width="19200" height="12800"/>
  </clipPath>
</defs>
<path clip-path="url(#clip8400)" d="
M0 12800 L19200 12800 L19200 0 L0 0  Z
  " fill="#ffffff" fill-rule="evenodd" fill-opacity="1"/>
<defs>
  <clipPath id="clip8401">
    <rect x="3840" y="0" width="13441" height="12800"/>
  </clipPath>
</defs>
<path clip-path="url(#clip8400)" d="
M2125.04 11385.4 L18822 11385.4 L18822 987.777 L2125.04 987.777  Z
  " fill="#ffffff" fill-rule="evenodd" fill-opacity="1"/>
<defs>
  <clipPath id="clip8402">
    <rect x="2125" y="987" width="16698" height="10399"/>
  </clipPath>
</defs>
<polyline clip-path="url(#clip8402)" style="stroke:#000000; stroke-width:16; stroke-opacity:0.1; fill:none" points="
  2597.12,11385.4 2597.12,987.777 
  "/>
<polyline clip-path="url(#clip8402)" style="stroke:#000000; stroke-width:16; stroke-opacity:0.1; fill:none" points="
  5000.74,11385.4 5000.74,987.777 
  "/>
<polyline clip-path="url(#clip8402)" style="stroke:#000000; stroke-width:16; stroke-opacity:0.1; fill:none" points="
  7404.36,11385.4 7404.36,987.777 
  "/>
<polyline clip-path="url(#clip8402)" style="stroke:#000000; stroke-width:16; stroke-opacity:0.1; fill:none" points="
  9807.98,11385.4 9807.98,987.777 
  "/>
<polyline clip-path="url(#clip8402)" style="stroke:#000000; stroke-width:16; stroke-opacity:0.1; fill:none" points="
  12211.6,11385.4 12211.6,987.777 
  "/>
<polyline clip-path="url(#clip8402)" style="stroke:#000000; stroke-width:16; stroke-opacity:0.1; fill:none" points="
  14615.2,11385.4 14615.2,987.777 
  "/>
<polyline clip-path="url(#clip8402)" style="stroke:#000000; stroke-width:16; stroke-opacity:0.1; fill:none" points="
  17018.8,11385.4 17018.8,987.777 
  "/>
<polyline clip-path="url(#clip8402)" style="stroke:#000000; stroke-width:16; stroke-opacity:0.1; fill:none" points="
  2125.04,9827.35 18822,9827.35 
  "/>
<polyline clip-path="url(#clip8402)" style="stroke:#000000; stroke-width:16; stroke-opacity:0.1; fill:none" points="
  2125.04,8258.69 18822,8258.69 
  "/>
<polyline clip-path="url(#clip8402)" style="stroke:#000000; stroke-width:16; stroke-opacity:0.1; fill:none" points="
  2125.04,6690.02 18822,6690.02 
  "/>
<polyline clip-path="url(#clip8402)" style="stroke:#000000; stroke-width:16; stroke-opacity:0.1; fill:none" points="
  2125.04,5121.36 18822,5121.36 
  "/>
<polyline clip-path="url(#clip8402)" style="stroke:#000000; stroke-width:16; stroke-opacity:0.1; fill:none" points="
  2125.04,3552.7 18822,3552.7 
  "/>
<polyline clip-path="url(#clip8402)" style="stroke:#000000; stroke-width:16; stroke-opacity:0.1; fill:none" points="
  2125.04,1984.03 18822,1984.03 
  "/>
<polyline clip-path="url(#clip8400)" style="stroke:#000000; stroke-width:32; stroke-opacity:1; fill:none" points="
  2125.04,11385.4 18822,11385.4 
  "/>
<polyline clip-path="url(#clip8400)" style="stroke:#000000; stroke-width:32; stroke-opacity:1; fill:none" points="
  2125.04,11385.4 2125.04,987.777 
  "/>
<polyline clip-path="url(#clip8400)" style="stroke:#000000; stroke-width:32; stroke-opacity:1; fill:none" points="
  2597.12,11385.4 2597.12,11260.7 
  "/>
<polyline clip-path="url(#clip8400)" style="stroke:#000000; stroke-width:32; stroke-opacity:1; fill:none" points="
  5000.74,11385.4 5000.74,11260.7 
  "/>
<polyline clip-path="url(#clip8400)" style="stroke:#000000; stroke-width:32; stroke-opacity:1; fill:none" points="
  7404.36,11385.4 7404.36,11260.7 
  "/>
<polyline clip-path="url(#clip8400)" style="stroke:#000000; stroke-width:32; stroke-opacity:1; fill:none" points="
  9807.98,11385.4 9807.98,11260.7 
  "/>
<polyline clip-path="url(#clip8400)" style="stroke:#000000; stroke-width:32; stroke-opacity:1; fill:none" points="
  12211.6,11385.4 12211.6,11260.7 
  "/>
<polyline clip-path="url(#clip8400)" style="stroke:#000000; stroke-width:32; stroke-opacity:1; fill:none" points="
  14615.2,11385.4 14615.2,11260.7 
  "/>
<polyline clip-path="url(#clip8400)" style="stroke:#000000; stroke-width:32; stroke-opacity:1; fill:none" points="
  17018.8,11385.4 17018.8,11260.7 
  "/>
<polyline clip-path="url(#clip8400)" style="stroke:#000000; stroke-width:32; stroke-opacity:1; fill:none" points="
  2125.04,9827.35 2325.4,9827.35 
  "/>
<polyline clip-path="url(#clip8400)" style="stroke:#000000; stroke-width:32; stroke-opacity:1; fill:none" points="
  2125.04,8258.69 2325.4,8258.69 
  "/>
<polyline clip-path="url(#clip8400)" style="stroke:#000000; stroke-width:32; stroke-opacity:1; fill:none" points="
  2125.04,6690.02 2325.4,6690.02 
  "/>
<polyline clip-path="url(#clip8400)" style="stroke:#000000; stroke-width:32; stroke-opacity:1; fill:none" points="
  2125.04,5121.36 2325.4,5121.36 
  "/>
<polyline clip-path="url(#clip8400)" style="stroke:#000000; stroke-width:32; stroke-opacity:1; fill:none" points="
  2125.04,3552.7 2325.4,3552.7 
  "/>
<polyline clip-path="url(#clip8400)" style="stroke:#000000; stroke-width:32; stroke-opacity:1; fill:none" points="
  2125.04,1984.03 2325.4,1984.03 
  "/>
<path clip-path="url(#clip8400)" d="M 0 0 M2597.12 11561.4 Q2568.23 11561.4 2553.6 11589.9 Q2539.15 11618.2 2539.15 11675.3 Q2539.15 11732.1 2553.6 11760.6 Q2568.23 11789 2597.12 11789 Q2626.19 11789 2640.63 11760.6 Q2655.26 11732.1 2655.26 11675.3 Q2655.26 11618.2 2640.63 11589.9 Q2626.19 11561.4 2597.12 11561.4 M2597.12 11531.7 Q2643.6 11531.7 2668.04 11568.6 Q2692.67 11605.3 2692.67 11675.3 Q2692.67 11745.1 2668.04 11781.9 Q2643.6 11818.6 2597.12 11818.6 Q2550.63 11818.6 2526 11781.9 Q2501.56 11745.1 2501.56 11675.3 Q2501.56 11605.3 2526 11568.6 Q2550.63 11531.7 2597.12 11531.7 Z" fill="#000000" fill-rule="evenodd" fill-opacity="1" /><path clip-path="url(#clip8400)" d="M 0 0 M4697.31 11954 L4758.42 11954 L4758.42 11743.1 L4691.94 11756.4 L4691.94 11722.3 L4758.05 11709 L4795.46 11709 L4795.46 11954 L4856.57 11954 L4856.57 11985.5 L4697.31 11985.5 L4697.31 11954 Z" fill="#000000" fill-rule="evenodd" fill-opacity="1" /><path clip-path="url(#clip8400)" d="M 0 0 M4895.27 11741.1 L4929.72 11741.1 L4929.72 12022.5 L4895.27 12022.5 L4895.27 11741.1 Z" fill="#000000" fill-rule="evenodd" fill-opacity="1" /><path clip-path="url(#clip8400)" d="M 0 0 M5050.27 11733.6 Q5021.39 11733.6 5006.76 11762.2 Q4992.31 11790.5 4992.31 11847.5 Q4992.31 11904.4 5006.76 11932.9 Q5021.39 11961.2 5050.27 11961.2 Q5079.35 11961.2 5093.79 11932.9 Q5108.42 11904.4 5108.42 11847.5 Q5108.42 11790.5 5093.79 11762.2 Q5079.35 11733.6 5050.27 11733.6 M5050.27 11704 Q5096.76 11704 5121.2 11740.9 Q5145.83 11777.5 5145.83 11847.5 Q5145.83 11917.3 5121.2 11954.2 Q5096.76 11990.9 5050.27 11990.9 Q5003.79 11990.9 4979.16 11954.2 Q4954.72 11917.3 4954.72 11847.5 Q4954.72 11777.5 4979.16 11740.9 Q5003.79 11704 5050.27 11704 Z" fill="#000000" fill-rule="evenodd" fill-opacity="1" /><path clip-path="url(#clip8400)" d="M 0 0 M5247.24 11568.1 L5170.5 11688 L5247.24 11688 L5247.24 11568.1 M5239.27 11541.6 L5277.48 11541.6 L5277.48 11688 L5309.53 11688 L5309.53 11713.3 L5277.48 11713.3 L5277.48 11766.2 L5247.24 11766.2 L5247.24 11713.3 L5145.83 11713.3 L5145.83 11683.9 L5239.27 11541.6 Z" fill="#000000" fill-rule="evenodd" fill-opacity="1" /><path clip-path="url(#clip8400)" d="M 0 0 M7135.1 11954 L7265.66 11954 L7265.66 11985.5 L7090.1 11985.5 L7090.1 11954 Q7111.4 11932 7148.06 11894.9 Q7184.92 11857.7 7194.36 11847 Q7212.32 11826.8 7219.36 11812.9 Q7226.58 11798.8 7226.58 11785.3 Q7226.58 11763.3 7211.03 11749.4 Q7195.66 11735.5 7170.84 11735.5 Q7153.25 11735.5 7133.62 11741.6 Q7114.18 11747.7 7091.95 11760.1 L7091.95 11722.3 Q7114.55 11713.3 7134.18 11708.6 Q7153.8 11704 7170.1 11704 Q7213.06 11704 7238.62 11725.5 Q7264.17 11747 7264.17 11782.9 Q7264.17 11799.9 7257.69 11815.3 Q7251.4 11830.5 7234.54 11851.2 Q7229.92 11856.6 7205.1 11882.3 Q7180.29 11907.9 7135.1 11954 Z" fill="#000000" fill-rule="evenodd" fill-opacity="1" /><path clip-path="url(#clip8400)" d="M 0 0 M7304.36 11741.1 L7338.8 11741.1 L7338.8 12022.5 L7304.36 12022.5 L7304.36 11741.1 Z" fill="#000000" fill-rule="evenodd" fill-opacity="1" /><path clip-path="url(#clip8400)" d="M 0 0 M7459.36 11733.6 Q7430.47 11733.6 7415.84 11762.2 Q7401.4 11790.5 7401.4 11847.5 Q7401.4 11904.4 7415.84 11932.9 Q7430.47 11961.2 7459.36 11961.2 Q7488.43 11961.2 7502.88 11932.9 Q7517.51 11904.4 7517.51 11847.5 Q7517.51 11790.5 7502.88 11762.2 Q7488.43 11733.6 7459.36 11733.6 M7459.36 11704 Q7505.84 11704 7530.28 11740.9 Q7554.91 11777.5 7554.91 11847.5 Q7554.91 11917.3 7530.28 11954.2 Q7505.84 11990.9 7459.36 11990.9 Q7412.88 11990.9 7388.25 11954.2 Q7363.8 11917.3 7363.8 11847.5 Q7363.8 11777.5 7388.25 11740.9 Q7412.88 11704 7459.36 11704 Z" fill="#000000" fill-rule="evenodd" fill-opacity="1" /><path clip-path="url(#clip8400)" d="M 0 0 M7656.32 11568.1 L7579.59 11688 L7656.32 11688 L7656.32 11568.1 M7648.35 11541.6 L7686.57 11541.6 L7686.57 11688 L7718.62 11688 L7718.62 11713.3 L7686.57 11713.3 L7686.57 11766.2 L7656.32 11766.2 L7656.32 11713.3 L7554.91 11713.3 L7554.91 11683.9 L7648.35 11541.6 Z" fill="#000000" fill-rule="evenodd" fill-opacity="1" /><path clip-path="url(#clip8400)" d="M 0 0 M9615.48 11836.4 Q9642.33 11842.2 9657.33 11860.3 Q9672.52 11878.5 9672.52 11905.1 Q9672.52 11946.1 9644.37 11968.5 Q9616.22 11990.9 9564.37 11990.9 Q9546.96 11990.9 9528.44 11987.3 Q9510.11 11984 9490.48 11977.2 L9490.48 11941.1 Q9506.04 11950.1 9524.56 11954.8 Q9543.07 11959.4 9563.26 11959.4 Q9598.44 11959.4 9616.78 11945.5 Q9635.3 11931.6 9635.3 11905.1 Q9635.3 11880.7 9618.07 11867 Q9601.04 11853.1 9570.48 11853.1 L9538.26 11853.1 L9538.26 11822.3 L9571.96 11822.3 Q9599.56 11822.3 9614.19 11811.4 Q9628.81 11800.3 9628.81 11779.6 Q9628.81 11758.3 9613.63 11747 Q9598.63 11735.5 9570.48 11735.5 Q9555.11 11735.5 9537.52 11738.8 Q9519.93 11742.2 9498.82 11749.2 L9498.82 11715.9 Q9520.11 11709.9 9538.63 11707 Q9557.33 11704 9573.82 11704 Q9616.41 11704 9641.22 11723.5 Q9666.04 11742.7 9666.04 11775.7 Q9666.04 11798.6 9652.89 11814.6 Q9639.74 11830.3 9615.48 11836.4 Z" fill="#000000" fill-rule="evenodd" fill-opacity="1" /><path clip-path="url(#clip8400)" d="M 0 0 M9711.22 11741.1 L9745.67 11741.1 L9745.67 12022.5 L9711.22 12022.5 L9711.22 11741.1 Z" fill="#000000" fill-rule="evenodd" fill-opacity="1" /><path clip-path="url(#clip8400)" d="M 0 0 M9866.22 11733.6 Q9837.33 11733.6 9822.7 11762.2 Q9808.26 11790.5 9808.26 11847.5 Q9808.26 11904.4 9822.7 11932.9 Q9837.33 11961.2 9866.22 11961.2 Q9895.29 11961.2 9909.74 11932.9 Q9924.37 11904.4 9924.37 11847.5 Q9924.37 11790.5 9909.74 11762.2 Q9895.29 11733.6 9866.22 11733.6 M9866.22 11704 Q9912.7 11704 9937.15 11740.9 Q9961.78 11777.5 9961.78 11847.5 Q9961.78 11917.3 9937.15 11954.2 Q9912.7 11990.9 9866.22 11990.9 Q9819.74 11990.9 9795.11 11954.2 Q9770.67 11917.3 9770.67 11847.5 Q9770.67 11777.5 9795.11 11740.9 Q9819.74 11704 9866.22 11704 Z" fill="#000000" fill-rule="evenodd" fill-opacity="1" /><path clip-path="url(#clip8400)" d="M 0 0 M10063.2 11568.1 L9986.45 11688 L10063.2 11688 L10063.2 11568.1 M10055.2 11541.6 L10093.4 11541.6 L10093.4 11688 L10125.5 11688 L10125.5 11713.3 L10093.4 11713.3 L10093.4 11766.2 L10063.2 11766.2 L10063.2 11713.3 L9961.78 11713.3 L9961.78 11683.9 L10055.2 11541.6 Z" fill="#000000" fill-rule="evenodd" fill-opacity="1" /><path clip-path="url(#clip8400)" d="M 0 0 M12009.2 11741.6 L11914.8 11889.2 L12009.2 11889.2 L12009.2 11741.6 M11999.4 11709 L12046.4 11709 L12046.4 11889.2 L12085.9 11889.2 L12085.9 11920.3 L12046.4 11920.3 L12046.4 11985.5 L12009.2 11985.5 L12009.2 11920.3 L11884.4 11920.3 L11884.4 11884.2 L11999.4 11709 Z" fill="#000000" fill-rule="evenodd" fill-opacity="1" /><path clip-path="url(#clip8400)" d="M 0 0 M12124.6 11741.1 L12159 11741.1 L12159 12022.5 L12124.6 12022.5 L12124.6 11741.1 Z" fill="#000000" fill-rule="evenodd" fill-opacity="1" /><path clip-path="url(#clip8400)" d="M 0 0 M12279.6 11733.6 Q12250.7 11733.6 12236 11762.2 Q12221.6 11790.5 12221.6 11847.5 Q12221.6 11904.4 12236 11932.9 Q12250.7 11961.2 12279.6 11961.2 Q12308.6 11961.2 12323.1 11932.9 Q12337.7 11904.4 12337.7 11847.5 Q12337.7 11790.5 12323.1 11762.2 Q12308.6 11733.6 12279.6 11733.6 M12279.6 11704 Q12326 11704 12350.5 11740.9 Q12375.1 11777.5 12375.1 11847.5 Q12375.1 11917.3 12350.5 11954.2 Q12326 11990.9 12279.6 11990.9 Q12233.1 11990.9 12208.5 11954.2 Q12184 11917.3 12184 11847.5 Q12184 11777.5 12208.5 11740.9 Q12233.1 11704 12279.6 11704 Z" fill="#000000" fill-rule="evenodd" fill-opacity="1" /><path clip-path="url(#clip8400)" d="M 0 0 M12476.5 11568.1 L12399.8 11688 L12476.5 11688 L12476.5 11568.1 M12468.6 11541.6 L12506.8 11541.6 L12506.8 11688 L12538.8 11688 L12538.8 11713.3 L12506.8 11713.3 L12506.8 11766.2 L12476.5 11766.2 L12476.5 11713.3 L12375.1 11713.3 L12375.1 11683.9 L12468.6 11541.6 Z" fill="#000000" fill-rule="evenodd" fill-opacity="1" /><path clip-path="url(#clip8400)" d="M 0 0 M14311 11709 L14457.8 11709 L14457.8 11740.5 L14345.2 11740.5 L14345.2 11808.3 Q14353.4 11805.5 14361.5 11804.2 Q14369.7 11802.7 14377.8 11802.7 Q14424.1 11802.7 14451.2 11828.1 Q14478.2 11853.5 14478.2 11896.8 Q14478.2 11941.4 14450.4 11966.2 Q14422.6 11990.9 14372.1 11990.9 Q14354.7 11990.9 14336.5 11987.9 Q14318.6 11984.9 14299.3 11979 L14299.3 11941.4 Q14316 11950.5 14333.7 11954.9 Q14351.5 11959.4 14371.3 11959.4 Q14403.4 11959.4 14422.1 11942.5 Q14440.8 11925.7 14440.8 11896.8 Q14440.8 11867.9 14422.1 11851.1 Q14403.4 11834.2 14371.3 11834.2 Q14356.3 11834.2 14341.3 11837.5 Q14326.5 11840.9 14311 11847.9 L14311 11709 Z" fill="#000000" fill-rule="evenodd" fill-opacity="1" /><path clip-path="url(#clip8400)" d="M 0 0 M14516.9 11741.1 L14551.3 11741.1 L14551.3 12022.5 L14516.9 12022.5 L14516.9 11741.1 Z" fill="#000000" fill-rule="evenodd" fill-opacity="1" /><path clip-path="url(#clip8400)" d="M 0 0 M14671.9 11733.6 Q14643 11733.6 14628.4 11762.2 Q14613.9 11790.5 14613.9 11847.5 Q14613.9 11904.4 14628.4 11932.9 Q14643 11961.2 14671.9 11961.2 Q14701 11961.2 14715.4 11932.9 Q14730 11904.4 14730 11847.5 Q14730 11790.5 14715.4 11762.2 Q14701 11733.6 14671.9 11733.6 M14671.9 11704 Q14718.4 11704 14742.8 11740.9 Q14767.4 11777.5 14767.4 11847.5 Q14767.4 11917.3 14742.8 11954.2 Q14718.4 11990.9 14671.9 11990.9 Q14625.4 11990.9 14600.8 11954.2 Q14576.3 11917.3 14576.3 11847.5 Q14576.3 11777.5 14600.8 11740.9 Q14625.4 11704 14671.9 11704 Z" fill="#000000" fill-rule="evenodd" fill-opacity="1" /><path clip-path="url(#clip8400)" d="M 0 0 M14868.9 11568.1 L14792.1 11688 L14868.9 11688 L14868.9 11568.1 M14860.9 11541.6 L14899.1 11541.6 L14899.1 11688 L14931.1 11688 L14931.1 11713.3 L14899.1 11713.3 L14899.1 11766.2 L14868.9 11766.2 L14868.9 11713.3 L14767.4 11713.3 L14767.4 11683.9 L14860.9 11541.6 Z" fill="#000000" fill-rule="evenodd" fill-opacity="1" /><path clip-path="url(#clip8400)" d="M 0 0 M16795.6 11832.3 Q16770.4 11832.3 16755.6 11849.6 Q16741 11866.8 16741 11896.8 Q16741 11926.6 16755.6 11944 Q16770.4 11961.2 16795.6 11961.2 Q16820.8 11961.2 16835.4 11944 Q16850.2 11926.6 16850.2 11896.8 Q16850.2 11866.8 16835.4 11849.6 Q16820.8 11832.3 16795.6 11832.3 M16869.9 11715.1 L16869.9 11749.2 Q16855.8 11742.5 16841.3 11739 Q16827.1 11735.5 16813 11735.5 Q16776 11735.5 16756.3 11760.5 Q16736.9 11785.5 16734.1 11836.1 Q16745.1 11819.9 16761.5 11811.4 Q16778 11802.7 16797.8 11802.7 Q16839.5 11802.7 16863.6 11828.1 Q16887.8 11853.3 16887.8 11896.8 Q16887.8 11939.4 16862.6 11965.1 Q16837.5 11990.9 16795.6 11990.9 Q16747.6 11990.9 16722.3 11954.2 Q16696.9 11917.3 16696.9 11847.5 Q16696.9 11782 16728 11743.1 Q16759.1 11704 16811.5 11704 Q16825.6 11704 16839.9 11706.8 Q16854.3 11709.6 16869.9 11715.1 Z" fill="#000000" fill-rule="evenodd" fill-opacity="1" /><path clip-path="url(#clip8400)" d="M 0 0 M16926.5 11741.1 L16961 11741.1 L16961 12022.5 L16926.5 12022.5 L16926.5 11741.1 Z" fill="#000000" fill-rule="evenodd" fill-opacity="1" /><path clip-path="url(#clip8400)" d="M 0 0 M17081.5 11733.6 Q17052.6 11733.6 17038 11762.2 Q17023.6 11790.5 17023.6 11847.5 Q17023.6 11904.4 17038 11932.9 Q17052.6 11961.2 17081.5 11961.2 Q17110.6 11961.2 17125 11932.9 Q17139.7 11904.4 17139.7 11847.5 Q17139.7 11790.5 17125 11762.2 Q17110.6 11733.6 17081.5 11733.6 M17081.5 11704 Q17128 11704 17152.5 11740.9 Q17177.1 11777.5 17177.1 11847.5 Q17177.1 11917.3 17152.5 11954.2 Q17128 11990.9 17081.5 11990.9 Q17035 11990.9 17010.4 11954.2 Q16986 11917.3 16986 11847.5 Q16986 11777.5 17010.4 11740.9 Q17035 11704 17081.5 11704 Z" fill="#000000" fill-rule="evenodd" fill-opacity="1" /><path clip-path="url(#clip8400)" d="M 0 0 M17278.5 11568.1 L17201.8 11688 L17278.5 11688 L17278.5 11568.1 M17270.5 11541.6 L17308.7 11541.6 L17308.7 11688 L17340.8 11688 L17340.8 11713.3 L17308.7 11713.3 L17308.7 11766.2 L17278.5 11766.2 L17278.5 11713.3 L17177.1 11713.3 L17177.1 11683.9 L17270.5 11541.6 Z" fill="#000000" fill-rule="evenodd" fill-opacity="1" /><path clip-path="url(#clip8400)" d="M 0 0 M1119.34 9713.74 Q1090.45 9713.74 1075.82 9742.26 Q1061.38 9770.59 1061.38 9827.63 Q1061.38 9884.48 1075.82 9913 Q1090.45 9941.33 1119.34 9941.33 Q1148.41 9941.33 1162.86 9913 Q1177.49 9884.48 1177.49 9827.63 Q1177.49 9770.59 1162.86 9742.26 Q1148.41 9713.74 1119.34 9713.74 M1119.34 9684.11 Q1165.82 9684.11 1190.27 9720.96 Q1214.89 9757.63 1214.89 9827.63 Q1214.89 9897.44 1190.27 9934.29 Q1165.82 9970.96 1119.34 9970.96 Q1072.86 9970.96 1048.23 9934.29 Q1023.78 9897.44 1023.78 9827.63 Q1023.78 9757.63 1048.23 9720.96 Q1072.86 9684.11 1119.34 9684.11 Z" fill="#000000" fill-rule="evenodd" fill-opacity="1" /><path clip-path="url(#clip8400)" d="M 0 0 M1255.45 9918.55 L1294.52 9918.55 L1294.52 9965.59 L1255.45 9965.59 L1255.45 9918.55 Z" fill="#000000" fill-rule="evenodd" fill-opacity="1" /><path clip-path="url(#clip8400)" d="M 0 0 M1415.08 9713.74 Q1386.19 9713.74 1371.56 9742.26 Q1357.12 9770.59 1357.12 9827.63 Q1357.12 9884.48 1371.56 9913 Q1386.19 9941.33 1415.08 9941.33 Q1444.15 9941.33 1458.6 9913 Q1473.23 9884.48 1473.23 9827.63 Q1473.23 9770.59 1458.6 9742.26 Q1444.15 9713.74 1415.08 9713.74 M1415.08 9684.11 Q1461.56 9684.11 1486 9720.96 Q1510.63 9757.63 1510.63 9827.63 Q1510.63 9897.44 1486 9934.29 Q1461.56 9970.96 1415.08 9970.96 Q1368.6 9970.96 1343.97 9934.29 Q1319.52 9897.44 1319.52 9827.63 Q1319.52 9757.63 1343.97 9720.96 Q1368.6 9684.11 1415.08 9684.11 Z" fill="#000000" fill-rule="evenodd" fill-opacity="1" /><path clip-path="url(#clip8400)" d="M 0 0 M1631.19 9713.74 Q1602.3 9713.74 1587.67 9742.26 Q1573.23 9770.59 1573.23 9827.63 Q1573.23 9884.48 1587.67 9913 Q1602.3 9941.33 1631.19 9941.33 Q1660.26 9941.33 1674.71 9913 Q1689.34 9884.48 1689.34 9827.63 Q1689.34 9770.59 1674.71 9742.26 Q1660.26 9713.74 1631.19 9713.74 M1631.19 9684.11 Q1677.67 9684.11 1702.11 9720.96 Q1726.74 9757.63 1726.74 9827.63 Q1726.74 9897.44 1702.11 9934.29 Q1677.67 9970.96 1631.19 9970.96 Q1584.71 9970.96 1560.08 9934.29 Q1535.63 9897.44 1535.63 9827.63 Q1535.63 9757.63 1560.08 9720.96 Q1584.71 9684.11 1631.19 9684.11 Z" fill="#000000" fill-rule="evenodd" fill-opacity="1" /><path clip-path="url(#clip8400)" d="M 0 0 M1773.78 9934.11 L1834.89 9934.11 L1834.89 9723.18 L1768.41 9736.52 L1768.41 9702.44 L1834.52 9689.11 L1871.93 9689.11 L1871.93 9934.11 L1933.04 9934.11 L1933.04 9965.59 L1773.78 9965.59 L1773.78 9934.11 Z" fill="#000000" fill-rule="evenodd" fill-opacity="1" /><path clip-path="url(#clip8400)" d="M 0 0 M1122.3 8145.07 Q1093.41 8145.07 1078.78 8173.59 Q1064.34 8201.93 1064.34 8258.96 Q1064.34 8315.81 1078.78 8344.33 Q1093.41 8372.67 1122.3 8372.67 Q1151.38 8372.67 1165.82 8344.33 Q1180.45 8315.81 1180.45 8258.96 Q1180.45 8201.93 1165.82 8173.59 Q1151.38 8145.07 1122.3 8145.07 M1122.3 8115.45 Q1168.78 8115.45 1193.23 8152.3 Q1217.86 8188.96 1217.86 8258.96 Q1217.86 8328.78 1193.23 8365.63 Q1168.78 8402.3 1122.3 8402.3 Q1075.82 8402.3 1051.19 8365.63 Q1026.75 8328.78 1026.75 8258.96 Q1026.75 8188.96 1051.19 8152.3 Q1075.82 8115.45 1122.3 8115.45 Z" fill="#000000" fill-rule="evenodd" fill-opacity="1" /><path clip-path="url(#clip8400)" d="M 0 0 M1258.41 8349.89 L1297.49 8349.89 L1297.49 8396.93 L1258.41 8396.93 L1258.41 8349.89 Z" fill="#000000" fill-rule="evenodd" fill-opacity="1" /><path clip-path="url(#clip8400)" d="M 0 0 M1418.04 8145.07 Q1389.15 8145.07 1374.52 8173.59 Q1360.08 8201.93 1360.08 8258.96 Q1360.08 8315.81 1374.52 8344.33 Q1389.15 8372.67 1418.04 8372.67 Q1447.12 8372.67 1461.56 8344.33 Q1476.19 8315.81 1476.19 8258.96 Q1476.19 8201.93 1461.56 8173.59 Q1447.12 8145.07 1418.04 8145.07 M1418.04 8115.45 Q1464.52 8115.45 1488.97 8152.3 Q1513.6 8188.96 1513.6 8258.96 Q1513.6 8328.78 1488.97 8365.63 Q1464.52 8402.3 1418.04 8402.3 Q1371.56 8402.3 1346.93 8365.63 Q1322.49 8328.78 1322.49 8258.96 Q1322.49 8188.96 1346.93 8152.3 Q1371.56 8115.45 1418.04 8115.45 Z" fill="#000000" fill-rule="evenodd" fill-opacity="1" /><path clip-path="url(#clip8400)" d="M 0 0 M1634.15 8145.07 Q1605.26 8145.07 1590.63 8173.59 Q1576.19 8201.93 1576.19 8258.96 Q1576.19 8315.81 1590.63 8344.33 Q1605.26 8372.67 1634.15 8372.67 Q1663.23 8372.67 1677.67 8344.33 Q1692.3 8315.81 1692.3 8258.96 Q1692.3 8201.93 1677.67 8173.59 Q1663.23 8145.07 1634.15 8145.07 M1634.15 8115.45 Q1680.63 8115.45 1705.08 8152.3 Q1729.71 8188.96 1729.71 8258.96 Q1729.71 8328.78 1705.08 8365.63 Q1680.63 8402.3 1634.15 8402.3 Q1587.67 8402.3 1563.04 8365.63 Q1538.6 8328.78 1538.6 8258.96 Q1538.6 8188.96 1563.04 8152.3 Q1587.67 8115.45 1634.15 8115.45 Z" fill="#000000" fill-rule="evenodd" fill-opacity="1" /><path clip-path="url(#clip8400)" d="M 0 0 M1802.48 8365.44 L1933.04 8365.44 L1933.04 8396.93 L1757.48 8396.93 L1757.48 8365.44 Q1778.78 8343.41 1815.45 8306.37 Q1852.3 8269.15 1861.74 8258.41 Q1879.71 8238.22 1886.74 8224.33 Q1893.97 8210.26 1893.97 8196.74 Q1893.97 8174.7 1878.41 8160.82 Q1863.04 8146.93 1838.22 8146.93 Q1820.63 8146.93 1801 8153.04 Q1781.56 8159.15 1759.34 8171.56 L1759.34 8133.78 Q1781.93 8124.7 1801.56 8120.08 Q1821.19 8115.45 1837.48 8115.45 Q1880.45 8115.45 1906 8136.93 Q1931.56 8158.41 1931.56 8194.33 Q1931.56 8211.37 1925.08 8226.74 Q1918.78 8241.93 1901.93 8262.67 Q1897.3 8268.04 1872.48 8293.78 Q1847.67 8319.33 1802.48 8365.44 Z" fill="#000000" fill-rule="evenodd" fill-opacity="1" /><path clip-path="url(#clip8400)" d="M 0 0 M1114.71 6576.41 Q1085.82 6576.41 1071.19 6604.93 Q1056.75 6633.26 1056.75 6690.3 Q1056.75 6747.15 1071.19 6775.67 Q1085.82 6804 1114.71 6804 Q1143.78 6804 1158.23 6775.67 Q1172.86 6747.15 1172.86 6690.3 Q1172.86 6633.26 1158.23 6604.93 Q1143.78 6576.41 1114.71 6576.41 M1114.71 6546.78 Q1161.19 6546.78 1185.64 6583.63 Q1210.27 6620.3 1210.27 6690.3 Q1210.27 6760.11 1185.64 6796.97 Q1161.19 6833.63 1114.71 6833.63 Q1068.23 6833.63 1043.6 6796.97 Q1019.16 6760.11 1019.16 6690.3 Q1019.16 6620.3 1043.6 6583.63 Q1068.23 6546.78 1114.71 6546.78 Z" fill="#000000" fill-rule="evenodd" fill-opacity="1" /><path clip-path="url(#clip8400)" d="M 0 0 M1250.82 6781.23 L1289.89 6781.23 L1289.89 6828.26 L1250.82 6828.26 L1250.82 6781.23 Z" fill="#000000" fill-rule="evenodd" fill-opacity="1" /><path clip-path="url(#clip8400)" d="M 0 0 M1410.45 6576.41 Q1381.56 6576.41 1366.93 6604.93 Q1352.49 6633.26 1352.49 6690.3 Q1352.49 6747.15 1366.93 6775.67 Q1381.56 6804 1410.45 6804 Q1439.52 6804 1453.97 6775.67 Q1468.6 6747.15 1468.6 6690.3 Q1468.6 6633.26 1453.97 6604.93 Q1439.52 6576.41 1410.45 6576.41 M1410.45 6546.78 Q1456.93 6546.78 1481.38 6583.63 Q1506 6620.3 1506 6690.3 Q1506 6760.11 1481.38 6796.97 Q1456.93 6833.63 1410.45 6833.63 Q1363.97 6833.63 1339.34 6796.97 Q1314.89 6760.11 1314.89 6690.3 Q1314.89 6620.3 1339.34 6583.63 Q1363.97 6546.78 1410.45 6546.78 Z" fill="#000000" fill-rule="evenodd" fill-opacity="1" /><path clip-path="url(#clip8400)" d="M 0 0 M1626.56 6576.41 Q1597.67 6576.41 1583.04 6604.93 Q1568.6 6633.26 1568.6 6690.3 Q1568.6 6747.15 1583.04 6775.67 Q1597.67 6804 1626.56 6804 Q1655.63 6804 1670.08 6775.67 Q1684.71 6747.15 1684.71 6690.3 Q1684.71 6633.26 1670.08 6604.93 Q1655.63 6576.41 1626.56 6576.41 M1626.56 6546.78 Q1673.04 6546.78 1697.48 6583.63 Q1722.11 6620.3 1722.11 6690.3 Q1722.11 6760.11 1697.48 6796.97 Q1673.04 6833.63 1626.56 6833.63 Q1580.08 6833.63 1555.45 6796.97 Q1531 6760.11 1531 6690.3 Q1531 6620.3 1555.45 6583.63 Q1580.08 6546.78 1626.56 6546.78 Z" fill="#000000" fill-rule="evenodd" fill-opacity="1" /><path clip-path="url(#clip8400)" d="M 0 0 M1876 6679.19 Q1902.85 6684.93 1917.85 6703.08 Q1933.04 6721.23 1933.04 6747.89 Q1933.04 6788.82 1904.89 6811.23 Q1876.74 6833.63 1824.89 6833.63 Q1807.48 6833.63 1788.97 6830.11 Q1770.63 6826.78 1751 6819.93 L1751 6783.82 Q1766.56 6792.89 1785.08 6797.52 Q1803.6 6802.15 1823.78 6802.15 Q1858.97 6802.15 1877.3 6788.26 Q1895.82 6774.37 1895.82 6747.89 Q1895.82 6723.45 1878.6 6709.74 Q1861.56 6695.86 1831 6695.86 L1798.78 6695.86 L1798.78 6665.12 L1832.48 6665.12 Q1860.08 6665.12 1874.71 6654.19 Q1889.34 6643.08 1889.34 6622.34 Q1889.34 6601.04 1874.15 6589.75 Q1859.15 6578.26 1831 6578.26 Q1815.63 6578.26 1798.04 6581.6 Q1780.45 6584.93 1759.34 6591.97 L1759.34 6558.63 Q1780.63 6552.71 1799.15 6549.75 Q1817.85 6546.78 1834.34 6546.78 Q1876.93 6546.78 1901.74 6566.23 Q1926.56 6585.49 1926.56 6618.45 Q1926.56 6641.41 1913.41 6657.34 Q1900.26 6673.08 1876 6679.19 Z" fill="#000000" fill-rule="evenodd" fill-opacity="1" /><path clip-path="url(#clip8400)" d="M 0 0 M1105.64 5007.75 Q1076.75 5007.75 1062.12 5036.27 Q1047.67 5064.6 1047.67 5121.64 Q1047.67 5178.49 1062.12 5207.01 Q1076.75 5235.34 1105.64 5235.34 Q1134.71 5235.34 1149.15 5207.01 Q1163.78 5178.49 1163.78 5121.64 Q1163.78 5064.6 1149.15 5036.27 Q1134.71 5007.75 1105.64 5007.75 M1105.64 4978.12 Q1152.12 4978.12 1176.56 5014.97 Q1201.19 5051.64 1201.19 5121.64 Q1201.19 5191.45 1176.56 5228.3 Q1152.12 5264.97 1105.64 5264.97 Q1059.16 5264.97 1034.53 5228.3 Q1010.08 5191.45 1010.08 5121.64 Q1010.08 5051.64 1034.53 5014.97 Q1059.16 4978.12 1105.64 4978.12 Z" fill="#000000" fill-rule="evenodd" fill-opacity="1" /><path clip-path="url(#clip8400)" d="M 0 0 M1241.75 5212.56 L1280.82 5212.56 L1280.82 5259.6 L1241.75 5259.6 L1241.75 5212.56 Z" fill="#000000" fill-rule="evenodd" fill-opacity="1" /><path clip-path="url(#clip8400)" d="M 0 0 M1401.38 5007.75 Q1372.49 5007.75 1357.86 5036.27 Q1343.41 5064.6 1343.41 5121.64 Q1343.41 5178.49 1357.86 5207.01 Q1372.49 5235.34 1401.38 5235.34 Q1430.45 5235.34 1444.89 5207.01 Q1459.52 5178.49 1459.52 5121.64 Q1459.52 5064.6 1444.89 5036.27 Q1430.45 5007.75 1401.38 5007.75 M1401.38 4978.12 Q1447.86 4978.12 1472.3 5014.97 Q1496.93 5051.64 1496.93 5121.64 Q1496.93 5191.45 1472.3 5228.3 Q1447.86 5264.97 1401.38 5264.97 Q1354.89 5264.97 1330.26 5228.3 Q1305.82 5191.45 1305.82 5121.64 Q1305.82 5051.64 1330.26 5014.97 Q1354.89 4978.12 1401.38 4978.12 Z" fill="#000000" fill-rule="evenodd" fill-opacity="1" /><path clip-path="url(#clip8400)" d="M 0 0 M1617.49 5007.75 Q1588.6 5007.75 1573.97 5036.27 Q1559.52 5064.6 1559.52 5121.64 Q1559.52 5178.49 1573.97 5207.01 Q1588.6 5235.34 1617.49 5235.34 Q1646.56 5235.34 1661 5207.01 Q1675.63 5178.49 1675.63 5121.64 Q1675.63 5064.6 1661 5036.27 Q1646.56 5007.75 1617.49 5007.75 M1617.49 4978.12 Q1663.97 4978.12 1688.41 5014.97 Q1713.04 5051.64 1713.04 5121.64 Q1713.04 5191.45 1688.41 5228.3 Q1663.97 5264.97 1617.49 5264.97 Q1571 5264.97 1546.37 5228.3 Q1521.93 5191.45 1521.93 5121.64 Q1521.93 5051.64 1546.37 5014.97 Q1571 4978.12 1617.49 4978.12 Z" fill="#000000" fill-rule="evenodd" fill-opacity="1" /><path clip-path="url(#clip8400)" d="M 0 0 M1856.37 5015.71 L1761.93 5163.3 L1856.37 5163.3 L1856.37 5015.71 M1846.56 4983.12 L1893.6 4983.12 L1893.6 5163.3 L1933.04 5163.3 L1933.04 5194.41 L1893.6 5194.41 L1893.6 5259.6 L1856.37 5259.6 L1856.37 5194.41 L1731.56 5194.41 L1731.56 5158.3 L1846.56 4983.12 Z" fill="#000000" fill-rule="evenodd" fill-opacity="1" /><path clip-path="url(#clip8400)" d="M 0 0 M1117.49 3439.09 Q1088.6 3439.09 1073.97 3467.6 Q1059.53 3495.94 1059.53 3552.97 Q1059.53 3609.83 1073.97 3638.34 Q1088.6 3666.68 1117.49 3666.68 Q1146.56 3666.68 1161.01 3638.34 Q1175.64 3609.83 1175.64 3552.97 Q1175.64 3495.94 1161.01 3467.6 Q1146.56 3439.09 1117.49 3439.09 M1117.49 3409.46 Q1163.97 3409.46 1188.41 3446.31 Q1213.04 3482.97 1213.04 3552.97 Q1213.04 3622.79 1188.41 3659.64 Q1163.97 3696.31 1117.49 3696.31 Q1071.01 3696.31 1046.38 3659.64 Q1021.93 3622.79 1021.93 3552.97 Q1021.93 3482.97 1046.38 3446.31 Q1071.01 3409.46 1117.49 3409.46 Z" fill="#000000" fill-rule="evenodd" fill-opacity="1" /><path clip-path="url(#clip8400)" d="M 0 0 M1253.6 3643.9 L1292.67 3643.9 L1292.67 3690.94 L1253.6 3690.94 L1253.6 3643.9 Z" fill="#000000" fill-rule="evenodd" fill-opacity="1" /><path clip-path="url(#clip8400)" d="M 0 0 M1413.23 3439.09 Q1384.34 3439.09 1369.71 3467.6 Q1355.26 3495.94 1355.26 3552.97 Q1355.26 3609.83 1369.71 3638.34 Q1384.34 3666.68 1413.23 3666.68 Q1442.3 3666.68 1456.75 3638.34 Q1471.38 3609.83 1471.38 3552.97 Q1471.38 3495.94 1456.75 3467.6 Q1442.3 3439.09 1413.23 3439.09 M1413.23 3409.46 Q1459.71 3409.46 1484.15 3446.31 Q1508.78 3482.97 1508.78 3552.97 Q1508.78 3622.79 1484.15 3659.64 Q1459.71 3696.31 1413.23 3696.31 Q1366.75 3696.31 1342.12 3659.64 Q1317.67 3622.79 1317.67 3552.97 Q1317.67 3482.97 1342.12 3446.31 Q1366.75 3409.46 1413.23 3409.46 Z" fill="#000000" fill-rule="evenodd" fill-opacity="1" /><path clip-path="url(#clip8400)" d="M 0 0 M1629.34 3439.09 Q1600.45 3439.09 1585.82 3467.6 Q1571.37 3495.94 1571.37 3552.97 Q1571.37 3609.83 1585.82 3638.34 Q1600.45 3666.68 1629.34 3666.68 Q1658.41 3666.68 1672.86 3638.34 Q1687.49 3609.83 1687.49 3552.97 Q1687.49 3495.94 1672.86 3467.6 Q1658.41 3439.09 1629.34 3439.09 M1629.34 3409.46 Q1675.82 3409.46 1700.26 3446.31 Q1724.89 3482.97 1724.89 3552.97 Q1724.89 3622.79 1700.26 3659.64 Q1675.82 3696.31 1629.34 3696.31 Q1582.86 3696.31 1558.23 3659.64 Q1533.78 3622.79 1533.78 3552.97 Q1533.78 3482.97 1558.23 3446.31 Q1582.86 3409.46 1629.34 3409.46 Z" fill="#000000" fill-rule="evenodd" fill-opacity="1" /><path clip-path="url(#clip8400)" d="M 0 0 M1765.82 3414.46 L1912.67 3414.46 L1912.67 3445.94 L1800.08 3445.94 L1800.08 3513.71 Q1808.23 3510.94 1816.37 3509.64 Q1824.52 3508.16 1832.67 3508.16 Q1878.97 3508.16 1906 3533.53 Q1933.04 3558.9 1933.04 3602.23 Q1933.04 3646.86 1905.26 3671.68 Q1877.48 3696.31 1826.93 3696.31 Q1809.52 3696.31 1791.37 3693.34 Q1773.41 3690.38 1754.15 3684.45 L1754.15 3646.86 Q1770.82 3655.94 1788.6 3660.38 Q1806.37 3664.83 1826.19 3664.83 Q1858.22 3664.83 1876.93 3647.97 Q1895.63 3631.12 1895.63 3602.23 Q1895.63 3573.34 1876.93 3556.49 Q1858.22 3539.64 1826.19 3539.64 Q1811.19 3539.64 1796.19 3542.97 Q1781.37 3546.31 1765.82 3553.34 L1765.82 3414.46 Z" fill="#000000" fill-rule="evenodd" fill-opacity="1" /><path clip-path="url(#clip8400)" d="M 0 0 M1108.23 1870.42 Q1079.34 1870.42 1064.71 1898.94 Q1050.27 1927.27 1050.27 1984.31 Q1050.27 2041.16 1064.71 2069.68 Q1079.34 2098.01 1108.23 2098.01 Q1137.3 2098.01 1151.75 2069.68 Q1166.38 2041.16 1166.38 1984.31 Q1166.38 1927.27 1151.75 1898.94 Q1137.3 1870.42 1108.23 1870.42 M1108.23 1840.79 Q1154.71 1840.79 1179.15 1877.64 Q1203.78 1914.31 1203.78 1984.31 Q1203.78 2054.13 1179.15 2090.98 Q1154.71 2127.64 1108.23 2127.64 Q1061.75 2127.64 1037.12 2090.98 Q1012.67 2054.13 1012.67 1984.31 Q1012.67 1914.31 1037.12 1877.64 Q1061.75 1840.79 1108.23 1840.79 Z" fill="#000000" fill-rule="evenodd" fill-opacity="1" /><path clip-path="url(#clip8400)" d="M 0 0 M1244.34 2075.24 L1283.41 2075.24 L1283.41 2122.27 L1244.34 2122.27 L1244.34 2075.24 Z" fill="#000000" fill-rule="evenodd" fill-opacity="1" /><path clip-path="url(#clip8400)" d="M 0 0 M1403.97 1870.42 Q1375.08 1870.42 1360.45 1898.94 Q1346.01 1927.27 1346.01 1984.31 Q1346.01 2041.16 1360.45 2069.68 Q1375.08 2098.01 1403.97 2098.01 Q1433.04 2098.01 1447.49 2069.68 Q1462.12 2041.16 1462.12 1984.31 Q1462.12 1927.27 1447.49 1898.94 Q1433.04 1870.42 1403.97 1870.42 M1403.97 1840.79 Q1450.45 1840.79 1474.89 1877.64 Q1499.52 1914.31 1499.52 1984.31 Q1499.52 2054.13 1474.89 2090.98 Q1450.45 2127.64 1403.97 2127.64 Q1357.49 2127.64 1332.86 2090.98 Q1308.41 2054.13 1308.41 1984.31 Q1308.41 1914.31 1332.86 1877.64 Q1357.49 1840.79 1403.97 1840.79 Z" fill="#000000" fill-rule="evenodd" fill-opacity="1" /><path clip-path="url(#clip8400)" d="M 0 0 M1620.08 1870.42 Q1591.19 1870.42 1576.56 1898.94 Q1562.12 1927.27 1562.12 1984.31 Q1562.12 2041.16 1576.56 2069.68 Q1591.19 2098.01 1620.08 2098.01 Q1649.15 2098.01 1663.6 2069.68 Q1678.23 2041.16 1678.23 1984.31 Q1678.23 1927.27 1663.6 1898.94 Q1649.15 1870.42 1620.08 1870.42 M1620.08 1840.79 Q1666.56 1840.79 1691 1877.64 Q1715.63 1914.31 1715.63 1984.31 Q1715.63 2054.13 1691 2090.98 Q1666.56 2127.64 1620.08 2127.64 Q1573.6 2127.64 1548.97 2090.98 Q1524.52 2054.13 1524.52 1984.31 Q1524.52 1914.31 1548.97 1877.64 Q1573.6 1840.79 1620.08 1840.79 Z" fill="#000000" fill-rule="evenodd" fill-opacity="1" /><path clip-path="url(#clip8400)" d="M 0 0 M1840.82 1969.13 Q1815.63 1969.13 1800.82 1986.35 Q1786.19 2003.57 1786.19 2033.57 Q1786.19 2063.38 1800.82 2080.79 Q1815.63 2098.01 1840.82 2098.01 Q1866 2098.01 1880.63 2080.79 Q1895.45 2063.38 1895.45 2033.57 Q1895.45 2003.57 1880.63 1986.35 Q1866 1969.13 1840.82 1969.13 M1915.08 1851.9 L1915.08 1885.98 Q1901 1879.31 1886.56 1875.79 Q1872.3 1872.27 1858.22 1872.27 Q1821.19 1872.27 1801.56 1897.27 Q1782.11 1922.27 1779.34 1972.83 Q1790.26 1956.72 1806.74 1948.2 Q1823.23 1939.5 1843.04 1939.5 Q1884.71 1939.5 1908.78 1964.87 Q1933.04 1990.05 1933.04 2033.57 Q1933.04 2076.16 1907.85 2101.9 Q1882.67 2127.64 1840.82 2127.64 Q1792.85 2127.64 1767.48 2090.98 Q1742.11 2054.13 1742.11 1984.31 Q1742.11 1918.76 1773.23 1879.87 Q1804.34 1840.79 1856.74 1840.79 Q1870.82 1840.79 1885.08 1843.57 Q1899.52 1846.35 1915.08 1851.9 Z" fill="#000000" fill-rule="evenodd" fill-opacity="1" /><path clip-path="url(#clip8400)" d="M 0 0 M2566.5 384.22 L2566.5 413.387 L2292.34 413.387 Q2296.23 474.96 2329.28 507.368 Q2362.66 539.451 2421.97 539.451 Q2456.32 539.451 2488.4 531.025 Q2520.81 522.599 2552.57 505.747 L2552.57 562.136 Q2520.48 575.747 2486.78 582.877 Q2453.08 590.006 2418.4 590.006 Q2331.55 590.006 2280.67 539.451 Q2230.12 488.896 2230.12 402.692 Q2230.12 313.572 2278.08 261.397 Q2326.36 208.897 2408.03 208.897 Q2481.27 208.897 2523.72 256.212 Q2566.5 303.202 2566.5 384.22 M2506.87 366.72 Q2506.22 317.785 2479.33 288.619 Q2452.75 259.452 2408.68 259.452 Q2358.77 259.452 2328.63 287.647 Q2298.82 315.841 2294.28 367.044 L2506.87 366.72 Z" fill="#000000" fill-rule="evenodd" fill-opacity="1" /><path clip-path="url(#clip8400)" d="M 0 0 M2839.37 273.387 Q2829.32 267.554 2817.33 264.962 Q2805.67 262.045 2791.41 262.045 Q2740.85 262.045 2713.63 295.1 Q2686.73 327.832 2686.73 389.405 L2686.73 580.608 L2626.78 580.608 L2626.78 217.647 L2686.73 217.647 L2686.73 274.036 Q2705.53 240.98 2735.67 225.101 Q2765.81 208.897 2808.91 208.897 Q2815.07 208.897 2822.52 209.869 Q2829.97 210.517 2839.05 212.138 L2839.37 273.387 Z" fill="#000000" fill-rule="evenodd" fill-opacity="1" /><path clip-path="url(#clip8400)" d="M 0 0 M3100.57 273.387 Q3090.53 267.554 3078.54 264.962 Q3066.87 262.045 3052.61 262.045 Q3002.06 262.045 2974.83 295.1 Q2947.94 327.832 2947.94 389.405 L2947.94 580.608 L2887.98 580.608 L2887.98 217.647 L2947.94 217.647 L2947.94 274.036 Q2966.73 240.98 2996.87 225.101 Q3027.01 208.897 3070.11 208.897 Q3076.27 208.897 3083.72 209.869 Q3091.18 210.517 3100.25 212.138 L3100.57 273.387 Z" fill="#000000" fill-rule="evenodd" fill-opacity="1" /><path clip-path="url(#clip8400)" d="M 0 0 M3289.18 259.452 Q3241.22 259.452 3213.35 297.045 Q3185.48 334.313 3185.48 399.452 Q3185.48 464.59 3213.03 502.182 Q3240.9 539.451 3289.18 539.451 Q3336.82 539.451 3364.69 501.858 Q3392.56 464.266 3392.56 399.452 Q3392.56 334.961 3364.69 297.369 Q3336.82 259.452 3289.18 259.452 M3289.18 208.897 Q3366.96 208.897 3411.36 259.452 Q3455.76 310.008 3455.76 399.452 Q3455.76 488.571 3411.36 539.451 Q3366.96 590.006 3289.18 590.006 Q3211.08 590.006 3166.68 539.451 Q3122.61 488.571 3122.61 399.452 Q3122.61 310.008 3166.68 259.452 Q3211.08 208.897 3289.18 208.897 Z" fill="#000000" fill-rule="evenodd" fill-opacity="1" /><path clip-path="url(#clip8400)" d="M 0 0 M3728.63 273.387 Q3718.58 267.554 3706.59 264.962 Q3694.92 262.045 3680.66 262.045 Q3630.11 262.045 3602.89 295.1 Q3575.99 327.832 3575.99 389.405 L3575.99 580.608 L3516.03 580.608 L3516.03 217.647 L3575.99 217.647 L3575.99 274.036 Q3594.78 240.98 3624.92 225.101 Q3655.06 208.897 3698.16 208.897 Q3704.32 208.897 3711.77 209.869 Q3719.23 210.517 3728.3 212.138 L3728.63 273.387 Z" fill="#000000" fill-rule="evenodd" fill-opacity="1" /><path clip-path="url(#clip8400)" d="M 0 0 M3967.47 217.647 L4027.1 217.647 L4101.63 500.886 L4175.85 217.647 L4246.17 217.647 L4320.71 500.886 L4394.92 217.647 L4454.55 217.647 L4359.59 580.608 L4289.27 580.608 L4211.17 283.11 L4132.74 580.608 L4062.42 580.608 L3967.47 217.647 Z" fill="#000000" fill-rule="evenodd" fill-opacity="1" /><path clip-path="url(#clip8400)" d="M 0 0 M4517.09 217.647 L4576.72 217.647 L4576.72 580.608 L4517.09 580.608 L4517.09 217.647 M4517.09 76.3514 L4576.72 76.3514 L4576.72 151.86 L4517.09 151.86 L4517.09 76.3514 Z" fill="#000000" fill-rule="evenodd" fill-opacity="1" /><path clip-path="url(#clip8400)" d="M 0 0 M4698.25 114.592 L4698.25 217.647 L4821.07 217.647 L4821.07 263.989 L4698.25 263.989 L4698.25 461.025 Q4698.25 505.423 4710.24 518.062 Q4722.56 530.701 4759.82 530.701 L4821.07 530.701 L4821.07 580.608 L4759.82 580.608 Q4690.8 580.608 4664.55 555.006 Q4638.3 529.08 4638.3 461.025 L4638.3 263.989 L4594.55 263.989 L4594.55 217.647 L4638.3 217.647 L4638.3 114.592 L4698.25 114.592 Z" fill="#000000" fill-rule="evenodd" fill-opacity="1" /><path clip-path="url(#clip8400)" d="M 0 0 M5185.33 361.535 L5185.33 580.608 L5125.7 580.608 L5125.7 363.48 Q5125.7 311.952 5105.61 286.35 Q5085.52 260.749 5045.33 260.749 Q4997.04 260.749 4969.17 291.535 Q4941.3 322.322 4941.3 375.47 L4941.3 580.608 L4881.35 580.608 L4881.35 76.3514 L4941.3 76.3514 L4941.3 274.036 Q4962.69 241.304 4991.54 225.101 Q5020.7 208.897 5058.62 208.897 Q5121.16 208.897 5153.25 247.786 Q5185.33 286.35 5185.33 361.535 Z" fill="#000000" fill-rule="evenodd" fill-opacity="1" /><path clip-path="url(#clip8400)" d="M 0 0 M5697.69 272.739 L5697.69 76.3514 L5757.32 76.3514 L5757.32 580.608 L5697.69 580.608 L5697.69 526.164 Q5678.89 558.571 5650.05 574.451 Q5621.53 590.006 5581.35 590.006 Q5515.56 590.006 5474.08 537.506 Q5432.92 485.007 5432.92 399.452 Q5432.92 313.896 5474.08 261.397 Q5515.56 208.897 5581.35 208.897 Q5621.53 208.897 5650.05 224.777 Q5678.89 240.332 5697.69 272.739 M5494.5 399.452 Q5494.5 465.238 5521.39 502.831 Q5548.62 540.099 5595.93 540.099 Q5643.25 540.099 5670.47 502.831 Q5697.69 465.238 5697.69 399.452 Q5697.69 333.665 5670.47 296.397 Q5643.25 258.804 5595.93 258.804 Q5548.62 258.804 5521.39 296.397 Q5494.5 333.665 5494.5 399.452 Z" fill="#000000" fill-rule="evenodd" fill-opacity="1" /><path clip-path="url(#clip8400)" d="M 0 0 M5819.86 217.647 L5879.49 217.647 L5879.49 580.608 L5819.86 580.608 L5819.86 217.647 M5819.86 76.3514 L5879.49 76.3514 L5879.49 151.86 L5819.86 151.86 L5819.86 76.3514 Z" fill="#000000" fill-rule="evenodd" fill-opacity="1" /><path clip-path="url(#clip8400)" d="M 0 0 M6125.79 76.3514 L6125.79 125.935 L6068.75 125.935 Q6036.67 125.935 6024.03 138.897 Q6011.72 151.86 6011.72 185.564 L6011.72 217.647 L6109.91 217.647 L6109.91 263.989 L6011.72 263.989 L6011.72 580.608 L5951.76 580.608 L5951.76 263.989 L5894.73 263.989 L5894.73 217.647 L5951.76 217.647 L5951.76 192.369 Q5951.76 131.768 5979.96 104.222 Q6008.15 76.3514 6069.4 76.3514 L6125.79 76.3514 Z" fill="#000000" fill-rule="evenodd" fill-opacity="1" /><path clip-path="url(#clip8400)" d="M 0 0 M6372.08 76.3514 L6372.08 125.935 L6315.05 125.935 Q6282.96 125.935 6270.33 138.897 Q6258.01 151.86 6258.01 185.564 L6258.01 217.647 L6356.2 217.647 L6356.2 263.989 L6258.01 263.989 L6258.01 580.608 L6198.06 580.608 L6198.06 263.989 L6141.02 263.989 L6141.02 217.647 L6198.06 217.647 L6198.06 192.369 Q6198.06 131.768 6226.25 104.222 Q6254.45 76.3514 6315.7 76.3514 L6372.08 76.3514 Z" fill="#000000" fill-rule="evenodd" fill-opacity="1" /><path clip-path="url(#clip8400)" d="M 0 0 M6745.09 384.22 L6745.09 413.387 L6470.93 413.387 Q6474.81 474.96 6507.87 507.368 Q6541.25 539.451 6600.55 539.451 Q6634.91 539.451 6666.99 531.025 Q6699.4 522.599 6731.16 505.747 L6731.16 562.136 Q6699.07 575.747 6665.37 582.877 Q6631.67 590.006 6596.99 590.006 Q6510.14 590.006 6459.26 539.451 Q6408.7 488.896 6408.7 402.692 Q6408.7 313.572 6456.67 261.397 Q6504.95 208.897 6586.62 208.897 Q6659.86 208.897 6702.31 256.212 Q6745.09 303.202 6745.09 384.22 M6685.46 366.72 Q6684.81 317.785 6657.92 288.619 Q6631.34 259.452 6587.27 259.452 Q6537.36 259.452 6507.22 287.647 Q6477.41 315.841 6472.87 367.044 L6685.46 366.72 Z" fill="#000000" fill-rule="evenodd" fill-opacity="1" /><path clip-path="url(#clip8400)" d="M 0 0 M7017.96 273.387 Q7007.91 267.554 6995.92 264.962 Q6984.26 262.045 6970 262.045 Q6919.44 262.045 6892.22 295.1 Q6865.32 327.832 6865.32 389.405 L6865.32 580.608 L6805.37 580.608 L6805.37 217.647 L6865.32 217.647 L6865.32 274.036 Q6884.12 240.98 6914.26 225.101 Q6944.4 208.897 6987.5 208.897 Q6993.65 208.897 7001.11 209.869 Q7008.56 210.517 7017.64 212.138 L7017.96 273.387 Z" fill="#000000" fill-rule="evenodd" fill-opacity="1" /><path clip-path="url(#clip8400)" d="M 0 0 M7376.38 384.22 L7376.38 413.387 L7102.22 413.387 Q7106.11 474.96 7139.16 507.368 Q7172.54 539.451 7231.85 539.451 Q7266.2 539.451 7298.28 531.025 Q7330.69 522.599 7362.45 505.747 L7362.45 562.136 Q7330.37 575.747 7296.66 582.877 Q7262.96 590.006 7228.28 590.006 Q7141.43 590.006 7090.55 539.451 Q7040 488.896 7040 402.692 Q7040 313.572 7087.96 261.397 Q7136.25 208.897 7217.91 208.897 Q7291.15 208.897 7333.61 256.212 Q7376.38 303.202 7376.38 384.22 M7316.75 366.72 Q7316.11 317.785 7289.21 288.619 Q7262.63 259.452 7218.56 259.452 Q7168.65 259.452 7138.51 287.647 Q7108.7 315.841 7104.16 367.044 L7316.75 366.72 Z" fill="#000000" fill-rule="evenodd" fill-opacity="1" /><path clip-path="url(#clip8400)" d="M 0 0 M7740.64 361.535 L7740.64 580.608 L7681.01 580.608 L7681.01 363.48 Q7681.01 311.952 7660.92 286.35 Q7640.83 260.749 7600.64 260.749 Q7552.36 260.749 7524.48 291.535 Q7496.61 322.322 7496.61 375.47 L7496.61 580.608 L7436.66 580.608 L7436.66 217.647 L7496.61 217.647 L7496.61 274.036 Q7518 241.304 7546.85 225.101 Q7576.01 208.897 7613.93 208.897 Q7676.47 208.897 7708.56 247.786 Q7740.64 286.35 7740.64 361.535 Z" fill="#000000" fill-rule="evenodd" fill-opacity="1" /><path clip-path="url(#clip8400)" d="M 0 0 M7862.17 114.592 L7862.17 217.647 L7984.99 217.647 L7984.99 263.989 L7862.17 263.989 L7862.17 461.025 Q7862.17 505.423 7874.16 518.062 Q7886.47 530.701 7923.74 530.701 L7984.99 530.701 L7984.99 580.608 L7923.74 580.608 Q7854.71 580.608 7828.46 555.006 Q7802.21 529.08 7802.21 461.025 L7802.21 263.989 L7758.47 263.989 L7758.47 217.647 L7802.21 217.647 L7802.21 114.592 L7862.17 114.592 Z" fill="#000000" fill-rule="evenodd" fill-opacity="1" /><path clip-path="url(#clip8400)" d="M 0 0 M8519.06 399.452 Q8519.06 333.665 8491.84 296.397 Q8464.94 258.804 8417.63 258.804 Q8370.31 258.804 8343.09 296.397 Q8316.19 333.665 8316.19 399.452 Q8316.19 465.238 8343.09 502.831 Q8370.31 540.099 8417.63 540.099 Q8464.94 540.099 8491.84 502.831 Q8519.06 465.238 8519.06 399.452 M8316.19 272.739 Q8334.99 240.332 8363.51 224.777 Q8392.35 208.897 8432.21 208.897 Q8498.32 208.897 8539.48 261.397 Q8580.96 313.896 8580.96 399.452 Q8580.96 485.007 8539.48 537.506 Q8498.32 590.006 8432.21 590.006 Q8392.35 590.006 8363.51 574.451 Q8334.99 558.571 8316.19 526.164 L8316.19 580.608 L8256.24 580.608 L8256.24 76.3514 L8316.19 76.3514 L8316.19 272.739 Z" fill="#000000" fill-rule="evenodd" fill-opacity="1" /><path clip-path="url(#clip8400)" d="M 0 0 M8643.51 217.647 L8703.14 217.647 L8703.14 580.608 L8643.51 580.608 L8643.51 217.647 M8643.51 76.3514 L8703.14 76.3514 L8703.14 151.86 L8643.51 151.86 L8643.51 76.3514 Z" fill="#000000" fill-rule="evenodd" fill-opacity="1" /><path clip-path="url(#clip8400)" d="M 0 0 M9067.39 361.535 L9067.39 580.608 L9007.76 580.608 L9007.76 363.48 Q9007.76 311.952 8987.67 286.35 Q8967.58 260.749 8927.39 260.749 Q8879.11 260.749 8851.24 291.535 Q8823.37 322.322 8823.37 375.47 L8823.37 580.608 L8763.41 580.608 L8763.41 217.647 L8823.37 217.647 L8823.37 274.036 Q8844.76 241.304 8873.6 225.101 Q8902.76 208.897 8940.68 208.897 Q9003.23 208.897 9035.31 247.786 Q9067.39 286.35 9067.39 361.535 Z" fill="#000000" fill-rule="evenodd" fill-opacity="1" /><path clip-path="url(#clip8400)" d="M 0 0 M9572.3 228.341 L9572.3 284.73 Q9547.02 271.767 9519.8 265.286 Q9492.58 258.804 9463.41 258.804 Q9419.01 258.804 9396.65 272.415 Q9374.61 286.026 9374.61 313.248 Q9374.61 333.989 9390.49 345.98 Q9406.37 357.646 9454.34 368.341 L9474.75 372.878 Q9538.27 386.489 9564.84 411.442 Q9591.74 436.072 9591.74 480.47 Q9591.74 531.025 9551.56 560.516 Q9511.7 590.006 9441.7 590.006 Q9412.53 590.006 9380.77 584.173 Q9349.34 578.664 9314.34 567.321 L9314.34 505.747 Q9347.39 522.923 9379.48 531.673 Q9411.56 540.099 9442.99 540.099 Q9485.12 540.099 9507.81 525.84 Q9530.49 511.257 9530.49 485.007 Q9530.49 460.701 9513.97 447.738 Q9497.76 434.775 9442.35 422.785 L9421.6 417.924 Q9366.19 406.257 9341.56 382.276 Q9316.93 357.97 9316.93 315.841 Q9316.93 264.637 9353.23 236.767 Q9389.52 208.897 9456.28 208.897 Q9489.34 208.897 9518.5 213.758 Q9547.67 218.619 9572.3 228.341 Z" fill="#000000" fill-rule="evenodd" fill-opacity="1" /><path clip-path="url(#clip8400)" d="M 0 0 M9654.29 217.647 L9713.92 217.647 L9713.92 580.608 L9654.29 580.608 L9654.29 217.647 M9654.29 76.3514 L9713.92 76.3514 L9713.92 151.86 L9654.29 151.86 L9654.29 76.3514 Z" fill="#000000" fill-rule="evenodd" fill-opacity="1" /><path clip-path="url(#clip8400)" d="M 0 0 M9750.54 217.647 L10033.8 217.647 L10033.8 272.091 L9809.52 532.969 L10033.8 532.969 L10033.8 580.608 L9742.44 580.608 L9742.44 526.164 L9966.69 265.286 L9750.54 265.286 L9750.54 217.647 Z" fill="#000000" fill-rule="evenodd" fill-opacity="1" /><path clip-path="url(#clip8400)" d="M 0 0 M10406.8 384.22 L10406.8 413.387 L10132.6 413.387 Q10136.5 474.96 10169.6 507.368 Q10202.9 539.451 10262.2 539.451 Q10296.6 539.451 10328.7 531.025 Q10361.1 522.599 10392.8 505.747 L10392.8 562.136 Q10360.8 575.747 10327.1 582.877 Q10293.4 590.006 10258.7 590.006 Q10171.8 590.006 10121 539.451 Q10070.4 488.896 10070.4 402.692 Q10070.4 313.572 10118.4 261.397 Q10166.6 208.897 10248.3 208.897 Q10321.6 208.897 10364 256.212 Q10406.8 303.202 10406.8 384.22 M10347.2 366.72 Q10346.5 317.785 10319.6 288.619 Q10293 259.452 10249 259.452 Q10199.1 259.452 10168.9 287.647 Q10139.1 315.841 10134.6 367.044 L10347.2 366.72 Z" fill="#000000" fill-rule="evenodd" fill-opacity="1" /><path clip-path="url(#clip8400)" d="M 0 0 M10700.7 228.341 L10700.7 284.73 Q10675.4 271.767 10648.2 265.286 Q10621 258.804 10591.8 258.804 Q10547.4 258.804 10525.1 272.415 Q10503 286.026 10503 313.248 Q10503 333.989 10518.9 345.98 Q10534.8 357.646 10582.8 368.341 L10603.2 372.878 Q10666.7 386.489 10693.3 411.442 Q10720.2 436.072 10720.2 480.47 Q10720.2 531.025 10680 560.516 Q10640.1 590.006 10570.1 590.006 Q10541 590.006 10509.2 584.173 Q10477.8 578.664 10442.8 567.321 L10442.8 505.747 Q10475.8 522.923 10507.9 531.673 Q10540 540.099 10571.4 540.099 Q10613.5 540.099 10636.2 525.84 Q10658.9 511.257 10658.9 485.007 Q10658.9 460.701 10642.4 447.738 Q10626.2 434.775 10570.8 422.785 L10550 417.924 Q10494.6 406.257 10470 382.276 Q10445.3 357.97 10445.3 315.841 Q10445.3 264.637 10481.6 236.767 Q10517.9 208.897 10584.7 208.897 Q10617.8 208.897 10646.9 213.758 Q10676.1 218.619 10700.7 228.341 Z" fill="#000000" fill-rule="evenodd" fill-opacity="1" /><path clip-path="url(#clip8400)" d="M 0 0 M11158.6 398.155 Q11086.4 398.155 11058.5 414.683 Q11030.6 431.211 11030.6 471.072 Q11030.6 502.831 11051.4 521.627 Q11072.4 540.099 11108.4 540.099 Q11158 540.099 11187.8 505.099 Q11217.9 469.775 11217.9 411.442 L11217.9 398.155 L11158.6 398.155 M11277.6 373.526 L11277.6 580.608 L11217.9 580.608 L11217.9 525.516 Q11197.5 558.571 11167.1 574.451 Q11136.6 590.006 11092.5 590.006 Q11036.8 590.006 11003.7 558.895 Q10971 527.46 10971 474.96 Q10971 413.711 11011.8 382.6 Q11053 351.489 11134.3 351.489 L11217.9 351.489 L11217.9 345.656 Q11217.9 304.498 11190.7 282.137 Q11163.8 259.452 11114.9 259.452 Q11083.8 259.452 11054.3 266.906 Q11024.8 274.36 10997.6 289.267 L10997.6 234.175 Q11030.3 221.536 11061.1 215.378 Q11091.9 208.897 11121 208.897 Q11199.8 208.897 11238.7 249.73 Q11277.6 290.563 11277.6 373.526 Z" fill="#000000" fill-rule="evenodd" fill-opacity="1" /><path clip-path="url(#clip8400)" d="M 0 0 M11399.1 114.592 L11399.1 217.647 L11521.9 217.647 L11521.9 263.989 L11399.1 263.989 L11399.1 461.025 Q11399.1 505.423 11411.1 518.062 Q11423.4 530.701 11460.7 530.701 L11521.9 530.701 L11521.9 580.608 L11460.7 580.608 Q11391.6 580.608 11365.4 555.006 Q11339.1 529.08 11339.1 461.025 L11339.1 263.989 L11295.4 263.989 L11295.4 217.647 L11339.1 217.647 L11339.1 114.592 L11399.1 114.592 Z" fill="#000000" fill-rule="evenodd" fill-opacity="1" /><path clip-path="url(#clip8400)" d="M 0 0 M12034.3 272.739 L12034.3 76.3514 L12093.9 76.3514 L12093.9 580.608 L12034.3 580.608 L12034.3 526.164 Q12015.5 558.571 11986.6 574.451 Q11958.1 590.006 11917.9 590.006 Q11852.1 590.006 11810.7 537.506 Q11769.5 485.007 11769.5 399.452 Q11769.5 313.896 11810.7 261.397 Q11852.1 208.897 11917.9 208.897 Q11958.1 208.897 11986.6 224.777 Q12015.5 240.332 12034.3 272.739 M11831.1 399.452 Q11831.1 465.238 11858 502.831 Q11885.2 540.099 11932.5 540.099 Q11979.8 540.099 12007.1 502.831 Q12034.3 465.238 12034.3 399.452 Q12034.3 333.665 12007.1 296.397 Q11979.8 258.804 11932.5 258.804 Q11885.2 258.804 11858 296.397 Q11831.1 333.665 11831.1 399.452 Z" fill="#000000" fill-rule="evenodd" fill-opacity="1" /><path clip-path="url(#clip8400)" d="M 0 0 M12156.5 217.647 L12216.1 217.647 L12216.1 580.608 L12156.5 580.608 L12156.5 217.647 M12156.5 76.3514 L12216.1 76.3514 L12216.1 151.86 L12156.5 151.86 L12156.5 76.3514 Z" fill="#000000" fill-rule="evenodd" fill-opacity="1" /><path clip-path="url(#clip8400)" d="M 0 0 M12462.4 76.3514 L12462.4 125.935 L12405.3 125.935 Q12373.3 125.935 12360.6 138.897 Q12348.3 151.86 12348.3 185.564 L12348.3 217.647 L12446.5 217.647 L12446.5 263.989 L12348.3 263.989 L12348.3 580.608 L12288.3 580.608 L12288.3 263.989 L12231.3 263.989 L12231.3 217.647 L12288.3 217.647 L12288.3 192.369 Q12288.3 131.768 12316.5 104.222 Q12344.7 76.3514 12406 76.3514 L12462.4 76.3514 Z" fill="#000000" fill-rule="evenodd" fill-opacity="1" /><path clip-path="url(#clip8400)" d="M 0 0 M12708.7 76.3514 L12708.7 125.935 L12651.6 125.935 Q12619.6 125.935 12606.9 138.897 Q12594.6 151.86 12594.6 185.564 L12594.6 217.647 L12692.8 217.647 L12692.8 263.989 L12594.6 263.989 L12594.6 580.608 L12534.6 580.608 L12534.6 263.989 L12477.6 263.989 L12477.6 217.647 L12534.6 217.647 L12534.6 192.369 Q12534.6 131.768 12562.8 104.222 Q12591 76.3514 12652.3 76.3514 L12708.7 76.3514 Z" fill="#000000" fill-rule="evenodd" fill-opacity="1" /><path clip-path="url(#clip8400)" d="M 0 0 M13081.7 384.22 L13081.7 413.387 L12807.5 413.387 Q12811.4 474.96 12844.5 507.368 Q12877.8 539.451 12937.1 539.451 Q12971.5 539.451 13003.6 531.025 Q13036 522.599 13067.7 505.747 L13067.7 562.136 Q13035.7 575.747 13002 582.877 Q12968.3 590.006 12933.6 590.006 Q12846.7 590.006 12795.8 539.451 Q12745.3 488.896 12745.3 402.692 Q12745.3 313.572 12793.3 261.397 Q12841.5 208.897 12923.2 208.897 Q12996.4 208.897 13038.9 256.212 Q13081.7 303.202 13081.7 384.22 M13022 366.72 Q13021.4 317.785 12994.5 288.619 Q12967.9 259.452 12923.9 259.452 Q12873.9 259.452 12843.8 287.647 Q12814 315.841 12809.5 367.044 L13022 366.72 Z" fill="#000000" fill-rule="evenodd" fill-opacity="1" /><path clip-path="url(#clip8400)" d="M 0 0 M13354.5 273.387 Q13344.5 267.554 13332.5 264.962 Q13320.8 262.045 13306.6 262.045 Q13256 262.045 13228.8 295.1 Q13201.9 327.832 13201.9 389.405 L13201.9 580.608 L13142 580.608 L13142 217.647 L13201.9 217.647 L13201.9 274.036 Q13220.7 240.98 13250.8 225.101 Q13281 208.897 13324.1 208.897 Q13330.2 208.897 13337.7 209.869 Q13345.1 210.517 13354.2 212.138 L13354.5 273.387 Z" fill="#000000" fill-rule="evenodd" fill-opacity="1" /><path clip-path="url(#clip8400)" d="M 0 0 M13713 384.22 L13713 413.387 L13438.8 413.387 Q13442.7 474.96 13475.7 507.368 Q13509.1 539.451 13568.4 539.451 Q13602.8 539.451 13634.9 531.025 Q13667.3 522.599 13699 505.747 L13699 562.136 Q13667 575.747 13633.2 582.877 Q13599.5 590.006 13564.9 590.006 Q13478 590.006 13427.1 539.451 Q13376.6 488.896 13376.6 402.692 Q13376.6 313.572 13424.5 261.397 Q13472.8 208.897 13554.5 208.897 Q13627.7 208.897 13670.2 256.212 Q13713 303.202 13713 384.22 M13653.3 366.72 Q13652.7 317.785 13625.8 288.619 Q13599.2 259.452 13555.1 259.452 Q13505.2 259.452 13475.1 287.647 Q13445.3 315.841 13440.7 367.044 L13653.3 366.72 Z" fill="#000000" fill-rule="evenodd" fill-opacity="1" /><path clip-path="url(#clip8400)" d="M 0 0 M14077.2 361.535 L14077.2 580.608 L14017.6 580.608 L14017.6 363.48 Q14017.6 311.952 13997.5 286.35 Q13977.4 260.749 13937.2 260.749 Q13888.9 260.749 13861.1 291.535 Q13833.2 322.322 13833.2 375.47 L13833.2 580.608 L13773.2 580.608 L13773.2 217.647 L13833.2 217.647 L13833.2 274.036 Q13854.6 241.304 13883.4 225.101 Q13912.6 208.897 13950.5 208.897 Q14013.1 208.897 14045.1 247.786 Q14077.2 286.35 14077.2 361.535 Z" fill="#000000" fill-rule="evenodd" fill-opacity="1" /><path clip-path="url(#clip8400)" d="M 0 0 M14198.8 114.592 L14198.8 217.647 L14321.6 217.647 L14321.6 263.989 L14198.8 263.989 L14198.8 461.025 Q14198.8 505.423 14210.7 518.062 Q14223.1 530.701 14260.3 530.701 L14321.6 530.701 L14321.6 580.608 L14260.3 580.608 Q14191.3 580.608 14165.1 555.006 Q14138.8 529.08 14138.8 461.025 L14138.8 263.989 L14095.1 263.989 L14095.1 217.647 L14138.8 217.647 L14138.8 114.592 L14198.8 114.592 Z" fill="#000000" fill-rule="evenodd" fill-opacity="1" /><path clip-path="url(#clip8400)" d="M 0 0 M14530.6 96.768 L14939.9 96.768 L14939.9 151.86 L14768.1 151.86 L14768.1 580.608 L14702.4 580.608 L14702.4 151.86 L14530.6 151.86 L14530.6 96.768 Z" fill="#000000" fill-rule="evenodd" fill-opacity="1" /><path clip-path="url(#clip8400)" d="M 0 0 M15200.1 384.22 L15200.1 413.387 L14926 413.387 Q14929.9 474.96 14962.9 507.368 Q14996.3 539.451 15055.6 539.451 Q15090 539.451 15122 531.025 Q15154.4 522.599 15186.2 505.747 L15186.2 562.136 Q15154.1 575.747 15120.4 582.877 Q15086.7 590.006 15052 590.006 Q14965.2 590.006 14914.3 539.451 Q14863.8 488.896 14863.8 402.692 Q14863.8 313.572 14911.7 261.397 Q14960 208.897 15041.7 208.897 Q15114.9 208.897 15157.4 256.212 Q15200.1 303.202 15200.1 384.22 M15140.5 366.72 Q15139.9 317.785 15113 288.619 Q15086.4 259.452 15042.3 259.452 Q14992.4 259.452 14962.3 287.647 Q14932.5 315.841 14927.9 367.044 L15140.5 366.72 Z" fill="#000000" fill-rule="evenodd" fill-opacity="1" /><path clip-path="url(#clip8400)" d="M 0 0 M15545.3 287.323 Q15567.6 247.138 15598.7 228.017 Q15629.9 208.897 15672 208.897 Q15728.7 208.897 15759.5 248.758 Q15790.3 288.295 15790.3 361.535 L15790.3 580.608 L15730.3 580.608 L15730.3 363.48 Q15730.3 311.304 15711.8 286.026 Q15693.4 260.749 15655.5 260.749 Q15609.1 260.749 15582.2 291.535 Q15555.3 322.322 15555.3 375.47 L15555.3 580.608 L15495.4 580.608 L15495.4 363.48 Q15495.4 310.98 15476.9 286.026 Q15458.4 260.749 15419.9 260.749 Q15374.2 260.749 15347.3 291.86 Q15320.4 322.646 15320.4 375.47 L15320.4 580.608 L15260.4 580.608 L15260.4 217.647 L15320.4 217.647 L15320.4 274.036 Q15340.8 240.656 15369.3 224.777 Q15397.8 208.897 15437 208.897 Q15476.6 208.897 15504.1 228.99 Q15532 249.082 15545.3 287.323 Z" fill="#000000" fill-rule="evenodd" fill-opacity="1" /><path clip-path="url(#clip8400)" d="M 0 0 M15910.5 526.164 L15910.5 718.663 L15850.6 718.663 L15850.6 217.647 L15910.5 217.647 L15910.5 272.739 Q15929.3 240.332 15957.8 224.777 Q15986.7 208.897 16026.5 208.897 Q16092.6 208.897 16133.8 261.397 Q16175.3 313.896 16175.3 399.452 Q16175.3 485.007 16133.8 537.506 Q16092.6 590.006 16026.5 590.006 Q15986.7 590.006 15957.8 574.451 Q15929.3 558.571 15910.5 526.164 M16113.4 399.452 Q16113.4 333.665 16086.2 296.397 Q16059.3 258.804 16011.9 258.804 Q15964.6 258.804 15937.4 296.397 Q15910.5 333.665 15910.5 399.452 Q15910.5 465.238 15937.4 502.831 Q15964.6 540.099 16011.9 540.099 Q16059.3 540.099 16086.2 502.831 Q16113.4 465.238 16113.4 399.452 Z" fill="#000000" fill-rule="evenodd" fill-opacity="1" /><path clip-path="url(#clip8400)" d="M 0 0 M16548.3 384.22 L16548.3 413.387 L16274.1 413.387 Q16278 474.96 16311.1 507.368 Q16344.4 539.451 16403.7 539.451 Q16438.1 539.451 16470.2 531.025 Q16502.6 522.599 16534.3 505.747 L16534.3 562.136 Q16502.3 575.747 16468.6 582.877 Q16434.9 590.006 16400.2 590.006 Q16313.3 590.006 16262.4 539.451 Q16211.9 488.896 16211.9 402.692 Q16211.9 313.572 16259.9 261.397 Q16308.1 208.897 16389.8 208.897 Q16463 208.897 16505.5 256.212 Q16548.3 303.202 16548.3 384.22 M16488.6 366.72 Q16488 317.785 16461.1 288.619 Q16434.5 259.452 16390.5 259.452 Q16340.5 259.452 16310.4 287.647 Q16280.6 315.841 16276.1 367.044 L16488.6 366.72 Z" fill="#000000" fill-rule="evenodd" fill-opacity="1" /><path clip-path="url(#clip8400)" d="M 0 0 M16821.1 273.387 Q16811.1 267.554 16799.1 264.962 Q16787.4 262.045 16773.2 262.045 Q16722.6 262.045 16695.4 295.1 Q16668.5 327.832 16668.5 389.405 L16668.5 580.608 L16608.6 580.608 L16608.6 217.647 L16668.5 217.647 L16668.5 274.036 Q16687.3 240.98 16717.4 225.101 Q16747.6 208.897 16790.7 208.897 Q16796.8 208.897 16804.3 209.869 Q16811.8 210.517 16820.8 212.138 L16821.1 273.387 Z" fill="#000000" fill-rule="evenodd" fill-opacity="1" /><path clip-path="url(#clip8400)" d="M 0 0 M17048.6 398.155 Q16976.4 398.155 16948.5 414.683 Q16920.6 431.211 16920.6 471.072 Q16920.6 502.831 16941.4 521.627 Q16962.4 540.099 16998.4 540.099 Q17048 540.099 17077.8 505.099 Q17108 469.775 17108 411.442 L17108 398.155 L17048.6 398.155 M17167.6 373.526 L17167.6 580.608 L17108 580.608 L17108 525.516 Q17087.5 558.571 17057.1 574.451 Q17026.6 590.006 16982.5 590.006 Q16926.8 590.006 16893.7 558.895 Q16861 527.46 16861 474.96 Q16861 413.711 16901.8 382.6 Q16943 351.489 17024.3 351.489 L17108 351.489 L17108 345.656 Q17108 304.498 17080.7 282.137 Q17053.8 259.452 17004.9 259.452 Q16973.8 259.452 16944.3 266.906 Q16914.8 274.36 16887.6 289.267 L16887.6 234.175 Q16920.3 221.536 16951.1 215.378 Q16981.9 208.897 17011.1 208.897 Q17089.8 208.897 17128.7 249.73 Q17167.6 290.563 17167.6 373.526 Z" fill="#000000" fill-rule="evenodd" fill-opacity="1" /><path clip-path="url(#clip8400)" d="M 0 0 M17289.1 114.592 L17289.1 217.647 L17411.9 217.647 L17411.9 263.989 L17289.1 263.989 L17289.1 461.025 Q17289.1 505.423 17301.1 518.062 Q17313.4 530.701 17350.7 530.701 L17411.9 530.701 L17411.9 580.608 L17350.7 580.608 Q17281.7 580.608 17255.4 555.006 Q17229.2 529.08 17229.2 461.025 L17229.2 263.989 L17185.4 263.989 L17185.4 217.647 L17229.2 217.647 L17229.2 114.592 L17289.1 114.592 Z" fill="#000000" fill-rule="evenodd" fill-opacity="1" /><path clip-path="url(#clip8400)" d="M 0 0 M17468.3 437.368 L17468.3 217.647 L17527.9 217.647 L17527.9 435.1 Q17527.9 486.627 17548 512.553 Q17568.1 538.155 17608.3 538.155 Q17656.6 538.155 17684.5 507.368 Q17712.7 476.581 17712.7 423.433 L17712.7 217.647 L17772.3 217.647 L17772.3 580.608 L17712.7 580.608 L17712.7 524.868 Q17691 557.923 17662.1 574.127 Q17633.6 590.006 17595.7 590.006 Q17533.1 590.006 17500.7 551.117 Q17468.3 512.229 17468.3 437.368 M17618.4 208.897 L17618.4 208.897 Z" fill="#000000" fill-rule="evenodd" fill-opacity="1" /><path clip-path="url(#clip8400)" d="M 0 0 M18045.2 273.387 Q18035.1 267.554 18023.1 264.962 Q18011.5 262.045 17997.2 262.045 Q17946.7 262.045 17919.4 295.1 Q17892.5 327.832 17892.5 389.405 L17892.5 580.608 L17832.6 580.608 L17832.6 217.647 L17892.5 217.647 L17892.5 274.036 Q17911.3 240.98 17941.5 225.101 Q17971.6 208.897 18014.7 208.897 Q18020.9 208.897 18028.3 209.869 Q18035.8 210.517 18044.8 212.138 L18045.2 273.387 Z" fill="#000000" fill-rule="evenodd" fill-opacity="1" /><path clip-path="url(#clip8400)" d="M 0 0 M18403.6 384.22 L18403.6 413.387 L18129.4 413.387 Q18133.3 474.96 18166.4 507.368 Q18199.8 539.451 18259.1 539.451 Q18293.4 539.451 18325.5 531.025 Q18357.9 522.599 18389.7 505.747 L18389.7 562.136 Q18357.6 575.747 18323.9 582.877 Q18290.2 590.006 18255.5 590.006 Q18168.6 590.006 18117.8 539.451 Q18067.2 488.896 18067.2 402.692 Q18067.2 313.572 18115.2 261.397 Q18163.5 208.897 18245.1 208.897 Q18318.4 208.897 18360.8 256.212 Q18403.6 303.202 18403.6 384.22 M18344 366.72 Q18343.3 317.785 18316.4 288.619 Q18289.8 259.452 18245.8 259.452 Q18195.9 259.452 18165.7 287.647 Q18135.9 315.841 18131.4 367.044 L18344 366.72 Z" fill="#000000" fill-rule="evenodd" fill-opacity="1" /><path clip-path="url(#clip8400)" d="M 0 0 M18697.5 228.341 L18697.5 284.73 Q18672.2 271.767 18645 265.286 Q18617.8 258.804 18588.6 258.804 Q18544.2 258.804 18521.9 272.415 Q18499.8 286.026 18499.8 313.248 Q18499.8 333.989 18515.7 345.98 Q18531.6 357.646 18579.6 368.341 L18600 372.878 Q18663.5 386.489 18690.1 411.442 Q18717 436.072 18717 480.47 Q18717 531.025 18676.8 560.516 Q18636.9 590.006 18566.9 590.006 Q18537.8 590.006 18506 584.173 Q18474.6 578.664 18439.6 567.321 L18439.6 505.747 Q18472.6 522.923 18504.7 531.673 Q18536.8 540.099 18568.2 540.099 Q18610.4 540.099 18633 525.84 Q18655.7 511.257 18655.7 485.007 Q18655.7 460.701 18639.2 447.738 Q18623 434.775 18567.6 422.785 L18546.8 417.924 Q18491.4 406.257 18466.8 382.276 Q18442.2 357.97 18442.2 315.841 Q18442.2 264.637 18478.5 236.767 Q18514.8 208.897 18581.5 208.897 Q18614.6 208.897 18643.7 213.758 Q18672.9 218.619 18697.5 228.341 Z" fill="#000000" fill-rule="evenodd" fill-opacity="1" /><path clip-path="url(#clip8400)" d="M 0 0 M9835.19 12306 Q9835.19 12254.3 9813.8 12225 Q9792.67 12195.5 9755.49 12195.5 Q9718.32 12195.5 9696.93 12225 Q9675.79 12254.3 9675.79 12306 Q9675.79 12357.7 9696.93 12387.2 Q9718.32 12416.5 9755.49 12416.5 Q9792.67 12416.5 9813.8 12387.2 Q9835.19 12357.7 9835.19 12306 M9675.79 12206.5 Q9690.56 12181 9712.97 12168.8 Q9735.63 12156.3 9766.95 12156.3 Q9818.89 12156.3 9851.23 12197.5 Q9883.82 12238.8 9883.82 12306 Q9883.82 12373.2 9851.23 12414.5 Q9818.89 12455.7 9766.95 12455.7 Q9735.63 12455.7 9712.97 12443.5 Q9690.56 12431 9675.79 12405.6 L9675.79 12448.4 L9628.69 12448.4 L9628.69 12052.1 L9675.79 12052.1 L9675.79 12206.5 Z" fill="#000000" fill-rule="evenodd" fill-opacity="1" /><path clip-path="url(#clip8400)" d="M 0 0 M9932.97 12163.2 L9979.82 12163.2 L9979.82 12448.4 L9932.97 12448.4 L9932.97 12163.2 M9932.97 12052.1 L9979.82 12052.1 L9979.82 12111.5 L9932.97 12111.5 L9932.97 12052.1 Z" fill="#000000" fill-rule="evenodd" fill-opacity="1" /><path clip-path="url(#clip8400)" d="M 0 0 M10266 12276.2 L10266 12448.4 L10219.2 12448.4 L10219.2 12277.7 Q10219.2 12237.3 10203.4 12217.1 Q10187.6 12197 10156 12197 Q10118.1 12197 10096.2 12221.2 Q10074.3 12245.4 10074.3 12287.2 L10074.3 12448.4 L10027.2 12448.4 L10027.2 12163.2 L10074.3 12163.2 L10074.3 12207.5 Q10091.1 12181.8 10113.8 12169 Q10136.7 12156.3 10166.5 12156.3 Q10215.6 12156.3 10240.8 12186.8 Q10266 12217.1 10266 12276.2 Z" fill="#000000" fill-rule="evenodd" fill-opacity="1" /><path clip-path="url(#clip8400)" d="M 0 0 M10662.7 12171.6 L10662.7 12215.9 Q10642.9 12205.7 10621.5 12200.6 Q10600.1 12195.5 10577.2 12195.5 Q10542.3 12195.5 10524.7 12206.2 Q10507.4 12216.9 10507.4 12238.3 Q10507.4 12254.6 10519.9 12264 Q10532.4 12273.2 10570 12281.6 L10586.1 12285.1 Q10636 12295.8 10656.9 12315.4 Q10678 12334.8 10678 12369.7 Q10678 12409.4 10646.4 12432.6 Q10615.1 12455.7 10560.1 12455.7 Q10537.2 12455.7 10512.2 12451.2 Q10487.5 12446.8 10460 12437.9 L10460 12389.5 Q10486 12403 10511.2 12409.9 Q10536.4 12416.5 10561.1 12416.5 Q10594.2 12416.5 10612.1 12405.3 Q10629.9 12393.9 10629.9 12373.2 Q10629.9 12354.1 10616.9 12344 Q10604.2 12333.8 10560.6 12324.3 L10544.3 12320.5 Q10500.8 12311.4 10481.4 12292.5 Q10462.1 12273.4 10462.1 12240.3 Q10462.1 12200.1 10490.6 12178.2 Q10519.1 12156.3 10571.6 12156.3 Q10597.5 12156.3 10620.5 12160.1 Q10643.4 12163.9 10662.7 12171.6 Z" fill="#000000" fill-rule="evenodd" fill-opacity="1" /><path clip-path="url(#clip8400)" d="M 0 0 M10727.2 12163.2 L10774 12163.2 L10774 12448.4 L10727.2 12448.4 L10727.2 12163.2 M10727.2 12052.1 L10774 12052.1 L10774 12111.5 L10727.2 12111.5 L10727.2 12052.1 Z" fill="#000000" fill-rule="evenodd" fill-opacity="1" /><path clip-path="url(#clip8400)" d="M 0 0 M10802.8 12163.2 L11025.3 12163.2 L11025.3 12205.9 L10849.1 12410.9 L11025.3 12410.9 L11025.3 12448.4 L10796.4 12448.4 L10796.4 12405.6 L10972.6 12200.6 L10802.8 12200.6 L10802.8 12163.2 Z" fill="#000000" fill-rule="evenodd" fill-opacity="1" /><path clip-path="url(#clip8400)" d="M 0 0 M11318.4 12294 L11318.4 12317 L11103 12317 Q11106 12365.3 11132 12390.8 Q11158.2 12416 11204.8 12416 Q11231.8 12416 11257 12409.4 Q11282.5 12402.8 11307.5 12389.5 L11307.5 12433.8 Q11282.2 12444.5 11255.8 12450.1 Q11229.3 12455.7 11202 12455.7 Q11133.8 12455.7 11093.8 12416 Q11054.1 12376.3 11054.1 12308.6 Q11054.1 12238.5 11091.8 12197.5 Q11129.7 12156.3 11193.9 12156.3 Q11251.4 12156.3 11284.8 12193.5 Q11318.4 12230.4 11318.4 12294 M11271.5 12280.3 Q11271 12241.8 11249.9 12218.9 Q11229 12196 11194.4 12196 Q11155.2 12196 11131.5 12218.2 Q11108.1 12240.3 11104.5 12280.6 L11271.5 12280.3 Z" fill="#000000" fill-rule="evenodd" fill-opacity="1" /><path clip-path="url(#clip8400)" d="M 0 0 M549.729 6511 L572.645 6511 L572.645 6726.42 Q621.024 6723.36 646.487 6697.39 Q671.695 6671.17 671.695 6624.57 Q671.695 6597.58 665.075 6572.37 Q658.455 6546.91 645.214 6521.95 L689.519 6521.95 Q700.214 6547.16 705.816 6573.64 Q711.417 6600.12 711.417 6627.37 Q711.417 6695.61 671.695 6735.59 Q631.973 6775.31 564.242 6775.31 Q494.22 6775.31 453.224 6737.62 Q411.975 6699.68 411.975 6635.52 Q411.975 6577.97 449.15 6544.62 Q486.071 6511 549.729 6511 M535.979 6557.86 Q497.53 6558.37 474.613 6579.5 Q451.697 6600.38 451.697 6635.01 Q451.697 6674.22 473.849 6697.9 Q496.002 6721.33 536.233 6724.89 L535.979 6557.86 Z" fill="#000000" fill-rule="evenodd" fill-opacity="1" /><path clip-path="url(#clip8400)" d="M 0 0 M462.646 6296.61 Q458.062 6304.5 456.025 6313.92 Q453.734 6323.09 453.734 6334.29 Q453.734 6374.01 479.706 6395.4 Q505.423 6416.54 553.803 6416.54 L704.033 6416.54 L704.033 6463.64 L418.85 6463.64 L418.85 6416.54 L463.155 6416.54 Q437.183 6401.77 424.706 6378.09 Q411.975 6354.41 411.975 6320.54 Q411.975 6315.7 412.739 6309.85 Q413.248 6303.99 414.521 6296.86 L462.646 6296.61 Z" fill="#000000" fill-rule="evenodd" fill-opacity="1" /><path clip-path="url(#clip8400)" d="M 0 0 M462.646 6091.38 Q458.062 6099.27 456.025 6108.69 Q453.734 6117.86 453.734 6129.06 Q453.734 6168.78 479.706 6190.17 Q505.423 6211.31 553.803 6211.31 L704.033 6211.31 L704.033 6258.41 L418.85 6258.41 L418.85 6211.31 L463.155 6211.31 Q437.183 6196.54 424.706 6172.86 Q411.975 6149.18 411.975 6115.31 Q411.975 6110.47 412.739 6104.62 Q413.248 6098.76 414.521 6091.63 L462.646 6091.38 Z" fill="#000000" fill-rule="evenodd" fill-opacity="1" /><path clip-path="url(#clip8400)" d="M 0 0 M451.697 5943.18 Q451.697 5980.87 481.234 6002.77 Q510.516 6024.66 561.696 6024.66 Q612.876 6024.66 642.413 6003.02 Q671.695 5981.12 671.695 5943.18 Q671.695 5905.75 642.159 5883.85 Q612.622 5861.96 561.696 5861.96 Q511.025 5861.96 481.488 5883.85 Q451.697 5905.75 451.697 5943.18 M411.975 5943.18 Q411.975 5882.07 451.697 5847.19 Q491.419 5812.3 561.696 5812.3 Q631.719 5812.3 671.695 5847.19 Q711.417 5882.07 711.417 5943.18 Q711.417 6004.55 671.695 6039.43 Q631.719 6074.06 561.696 6074.06 Q491.419 6074.06 451.697 6039.43 Q411.975 6004.55 411.975 5943.18 Z" fill="#000000" fill-rule="evenodd" fill-opacity="1" /><path clip-path="url(#clip8400)" d="M 0 0 M462.646 5597.91 Q458.062 5605.8 456.025 5615.22 Q453.734 5624.39 453.734 5635.59 Q453.734 5675.31 479.706 5696.7 Q505.423 5717.84 553.803 5717.84 L704.033 5717.84 L704.033 5764.94 L418.85 5764.94 L418.85 5717.84 L463.155 5717.84 Q437.183 5703.07 424.706 5679.39 Q411.975 5655.71 411.975 5621.84 Q411.975 5617 412.739 5611.15 Q413.248 5605.29 414.521 5598.16 L462.646 5597.91 Z" fill="#000000" fill-rule="evenodd" fill-opacity="1" /><polyline clip-path="url(#clip8402)" style="stroke:#009af9; stroke-width:32; stroke-opacity:1; fill:none" points="
  2597.6,11091.2 2598.08,10966.1 2599.04,10791.2 2600.96,10549.3 2604.81,10221.8 2612.5,9794.79 2627.88,9276.65 2658.65,8730.92 2720.18,8217.03 2843.25,7796.29 
  3089.38,7575.59 3581.64,7384.78 4566.16,7661.02 6535.21,7908.78 10473.3,8186.39 18349.5,7465.17 
  "/>
<polyline clip-path="url(#clip8402)" style="stroke:#e26f46; stroke-width:32; stroke-opacity:1; fill:none" points="
  2597.6,11006.5 2598.08,10845.9 2599.04,10619.9 2600.96,10303.6 2604.81,9864.89 2612.5,9266.38 2627.88,8476.1 2658.65,7468.7 2720.18,6286.29 2843.25,4993.26 
  3089.38,3616.69 3581.64,2299.56 4566.16,1401.78 6535.21,1282.05 10473.3,2792.05 18349.5,2321.53 
  "/>
<path clip-path="url(#clip8400)" d="
M15057.7 3107.46 L18246 3107.46 L18246 1655.94 L15057.7 1655.94  Z
  " fill="#ffffff" fill-rule="evenodd" fill-opacity="1"/>
<polyline clip-path="url(#clip8400)" style="stroke:#000000; stroke-width:32; stroke-opacity:1; fill:none" points="
  15057.7,3107.46 18246,3107.46 18246,1655.94 15057.7,1655.94 15057.7,3107.46 
  "/>
<polyline clip-path="url(#clip8400)" style="stroke:#009af9; stroke-width:32; stroke-opacity:1; fill:none" points="
  15249.7,2139.78 16401.7,2139.78 
  "/>
<path clip-path="url(#clip8400)" d="M 0 0 M16593.7 2001.54 L16827.6 2001.54 L16827.6 2033.02 L16729.5 2033.02 L16729.5 2278.02 L16691.9 2278.02 L16691.9 2033.02 L16593.7 2033.02 L16593.7 2001.54 Z" fill="#000000" fill-rule="evenodd" fill-opacity="1" /><path clip-path="url(#clip8400)" d="M 0 0 M16988.3 2105.8 L17225.8 2105.8 L17225.8 2136.91 L16988.3 2136.91 L16988.3 2105.8 M16988.3 2181.35 L17225.8 2181.35 L17225.8 2212.83 L16988.3 2212.83 L16988.3 2181.35 Z" fill="#000000" fill-rule="evenodd" fill-opacity="1" /><path clip-path="url(#clip8400)" d="M 0 0 M17489.6 2034.13 L17395.2 2181.72 L17489.6 2181.72 L17489.6 2034.13 M17479.8 2001.54 L17526.9 2001.54 L17526.9 2181.72 L17566.3 2181.72 L17566.3 2212.83 L17526.9 2212.83 L17526.9 2278.02 L17489.6 2278.02 L17489.6 2212.83 L17364.8 2212.83 L17364.8 2176.72 L17479.8 2001.54 Z" fill="#000000" fill-rule="evenodd" fill-opacity="1" /><path clip-path="url(#clip8400)" d="M 0 0 M17606.9 2230.98 L17645.9 2230.98 L17645.9 2278.02 L17606.9 2278.02 L17606.9 2230.98 Z" fill="#000000" fill-rule="evenodd" fill-opacity="1" /><path clip-path="url(#clip8400)" d="M 0 0 M17766.5 2026.17 Q17737.6 2026.17 17723 2054.68 Q17708.5 2083.02 17708.5 2140.05 Q17708.5 2196.91 17723 2225.42 Q17737.6 2253.76 17766.5 2253.76 Q17795.6 2253.76 17810 2225.42 Q17824.6 2196.91 17824.6 2140.05 Q17824.6 2083.02 17810 2054.68 Q17795.6 2026.17 17766.5 2026.17 M17766.5 1996.54 Q17813 1996.54 17837.4 2033.39 Q17862 2070.06 17862 2140.05 Q17862 2209.87 17837.4 2246.72 Q17813 2283.39 17766.5 2283.39 Q17720 2283.39 17695.4 2246.72 Q17670.9 2209.87 17670.9 2140.05 Q17670.9 2070.06 17695.4 2033.39 Q17720 1996.54 17766.5 1996.54 Z" fill="#000000" fill-rule="evenodd" fill-opacity="1" /><polyline clip-path="url(#clip8400)" style="stroke:#e26f46; stroke-width:32; stroke-opacity:1; fill:none" points="
  15249.7,2623.62 16401.7,2623.62 
  "/>
<path clip-path="url(#clip8400)" d="M 0 0 M16593.7 2485.38 L16827.6 2485.38 L16827.6 2516.86 L16729.5 2516.86 L16729.5 2761.86 L16691.9 2761.86 L16691.9 2516.86 L16593.7 2516.86 L16593.7 2485.38 Z" fill="#000000" fill-rule="evenodd" fill-opacity="1" /><path clip-path="url(#clip8400)" d="M 0 0 M16988.3 2589.64 L17225.8 2589.64 L17225.8 2620.75 L16988.3 2620.75 L16988.3 2589.64 M16988.3 2665.19 L17225.8 2665.19 L17225.8 2696.67 L16988.3 2696.67 L16988.3 2665.19 Z" fill="#000000" fill-rule="evenodd" fill-opacity="1" /><path clip-path="url(#clip8400)" d="M 0 0 M17419.1 2730.38 L17549.6 2730.38 L17549.6 2761.86 L17374.1 2761.86 L17374.1 2730.38 Q17395.4 2708.34 17432 2671.3 Q17468.9 2634.08 17478.3 2623.34 Q17496.3 2603.15 17503.3 2589.27 Q17510.6 2575.19 17510.6 2561.67 Q17510.6 2539.64 17495 2525.75 Q17479.6 2511.86 17454.8 2511.86 Q17437.2 2511.86 17417.6 2517.97 Q17398.2 2524.08 17375.9 2536.49 L17375.9 2498.71 Q17398.5 2489.64 17418.2 2485.01 Q17437.8 2480.38 17454.1 2480.38 Q17497 2480.38 17522.6 2501.86 Q17548.2 2523.34 17548.2 2559.27 Q17548.2 2576.3 17541.7 2591.67 Q17535.4 2606.86 17518.5 2627.6 Q17513.9 2632.97 17489.1 2658.71 Q17464.3 2684.26 17419.1 2730.38 Z" fill="#000000" fill-rule="evenodd" fill-opacity="1" /><path clip-path="url(#clip8400)" d="M 0 0 M17590.2 2714.82 L17629.3 2714.82 L17629.3 2761.86 L17590.2 2761.86 L17590.2 2714.82 Z" fill="#000000" fill-rule="evenodd" fill-opacity="1" /><path clip-path="url(#clip8400)" d="M 0 0 M17749.8 2630.56 Q17723.2 2630.56 17707.8 2644.82 Q17692.6 2659.08 17692.6 2684.08 Q17692.6 2709.08 17707.8 2723.34 Q17723.2 2737.6 17749.8 2737.6 Q17776.5 2737.6 17791.9 2723.34 Q17807.2 2708.89 17807.2 2684.08 Q17807.2 2659.08 17791.9 2644.82 Q17776.7 2630.56 17749.8 2630.56 M17712.4 2614.64 Q17688.3 2608.71 17674.8 2592.23 Q17661.5 2575.75 17661.5 2552.04 Q17661.5 2518.9 17685 2499.64 Q17708.7 2480.38 17749.8 2480.38 Q17791.1 2480.38 17814.6 2499.64 Q17838.2 2518.9 17838.2 2552.04 Q17838.2 2575.75 17824.6 2592.23 Q17811.3 2608.71 17787.4 2614.64 Q17814.5 2620.93 17829.5 2639.27 Q17844.6 2657.6 17844.6 2684.08 Q17844.6 2724.26 17820 2745.75 Q17795.6 2767.23 17749.8 2767.23 Q17704.1 2767.23 17679.5 2745.75 Q17655 2724.26 17655 2684.08 Q17655 2657.6 17670.2 2639.27 Q17685.4 2620.93 17712.4 2614.64 M17698.7 2555.56 Q17698.7 2577.04 17712 2589.08 Q17725.6 2601.12 17749.8 2601.12 Q17773.9 2601.12 17787.4 2589.08 Q17801.1 2577.04 17801.1 2555.56 Q17801.1 2534.08 17787.4 2522.04 Q17773.9 2510.01 17749.8 2510.01 Q17725.6 2510.01 17712 2522.04 Q17698.7 2534.08 17698.7 2555.56 Z" fill="#000000" fill-rule="evenodd" fill-opacity="1" /></svg>
