<?xml version="1.0" encoding="utf-8"?>
<svg xmlns="http://www.w3.org/2000/svg" xmlns:xlink="http://www.w3.org/1999/xlink" width="4800" height="3200" viewBox="0 0 19200 12800">
<defs>
  <clipPath id="clip6000">
    <rect x="0" y="0" width="19200" height="12800"/>
  </clipPath>
</defs>
<path clip-path="url(#clip6000)" d="
M0 12800 L19200 12800 L19200 0 L0 0  Z
  " fill="#ffffff" fill-rule="evenodd" fill-opacity="1"/>
<defs>
  <clipPath id="clip6001">
    <rect x="3840" y="0" width="13441" height="12800"/>
  </clipPath>
</defs>
<path clip-path="url(#clip6000)" d="
M2125.04 11385.4 L18822 11385.4 L18822 987.777 L2125.04 987.777  Z
  " fill="#ffffff" fill-rule="evenodd" fill-opacity="1"/>
<defs>
  <clipPath id="clip6002">
    <rect x="2125" y="987" width="16698" height="10399"/>
  </clipPath>
</defs>
<polyline clip-path="url(#clip6002)" style="stroke:#000000; stroke-width:16; stroke-opacity:0.1; fill:none" points="
  2596.63,11385.4 2596.63,987.777 
  "/>
<polyline clip-path="url(#clip6002)" style="stroke:#000000; stroke-width:16; stroke-opacity:0.1; fill:none" points="
  7404.02,11385.4 7404.02,987.777 
  "/>
<polyline clip-path="url(#clip6002)" style="stroke:#000000; stroke-width:16; stroke-opacity:0.1; fill:none" points="
  12211.4,11385.4 12211.4,987.777 
  "/>
<polyline clip-path="url(#clip6002)" style="stroke:#000000; stroke-width:16; stroke-opacity:0.1; fill:none" points="
  17018.8,11385.4 17018.8,987.777 
  "/>
<polyline clip-path="url(#clip6002)" style="stroke:#000000; stroke-width:16; stroke-opacity:0.1; fill:none" points="
  2125.04,11364.4 18822,11364.4 
  "/>
<polyline clip-path="url(#clip6002)" style="stroke:#000000; stroke-width:16; stroke-opacity:0.1; fill:none" points="
  2125.04,9211.51 18822,9211.51 
  "/>
<polyline clip-path="url(#clip6002)" style="stroke:#000000; stroke-width:16; stroke-opacity:0.1; fill:none" points="
  2125.04,7058.59 18822,7058.59 
  "/>
<polyline clip-path="url(#clip6002)" style="stroke:#000000; stroke-width:16; stroke-opacity:0.1; fill:none" points="
  2125.04,4905.68 18822,4905.68 
  "/>
<polyline clip-path="url(#clip6002)" style="stroke:#000000; stroke-width:16; stroke-opacity:0.1; fill:none" points="
  2125.04,2752.76 18822,2752.76 
  "/>
<polyline clip-path="url(#clip6000)" style="stroke:#000000; stroke-width:32; stroke-opacity:1; fill:none" points="
  2125.04,11385.4 18822,11385.4 
  "/>
<polyline clip-path="url(#clip6000)" style="stroke:#000000; stroke-width:32; stroke-opacity:1; fill:none" points="
  2125.04,11385.4 2125.04,987.777 
  "/>
<polyline clip-path="url(#clip6000)" style="stroke:#000000; stroke-width:32; stroke-opacity:1; fill:none" points="
  2596.63,11385.4 2596.63,11260.7 
  "/>
<polyline clip-path="url(#clip6000)" style="stroke:#000000; stroke-width:32; stroke-opacity:1; fill:none" points="
  7404.02,11385.4 7404.02,11260.7 
  "/>
<polyline clip-path="url(#clip6000)" style="stroke:#000000; stroke-width:32; stroke-opacity:1; fill:none" points="
  12211.4,11385.4 12211.4,11260.7 
  "/>
<polyline clip-path="url(#clip6000)" style="stroke:#000000; stroke-width:32; stroke-opacity:1; fill:none" points="
  17018.8,11385.4 17018.8,11260.7 
  "/>
<polyline clip-path="url(#clip6000)" style="stroke:#000000; stroke-width:32; stroke-opacity:1; fill:none" points="
  2125.04,11364.4 2325.4,11364.4 
  "/>
<polyline clip-path="url(#clip6000)" style="stroke:#000000; stroke-width:32; stroke-opacity:1; fill:none" points="
  2125.04,9211.51 2325.4,9211.51 
  "/>
<polyline clip-path="url(#clip6000)" style="stroke:#000000; stroke-width:32; stroke-opacity:1; fill:none" points="
  2125.04,7058.59 2325.4,7058.59 
  "/>
<polyline clip-path="url(#clip6000)" style="stroke:#000000; stroke-width:32; stroke-opacity:1; fill:none" points="
  2125.04,4905.68 2325.4,4905.68 
  "/>
<polyline clip-path="url(#clip6000)" style="stroke:#000000; stroke-width:32; stroke-opacity:1; fill:none" points="
  2125.04,2752.76 2325.4,2752.76 
  "/>
<path clip-path="url(#clip6000)" d="M 0 0 M2596.63 11561.4 Q2567.75 11561.4 2553.12 11589.9 Q2538.67 11618.2 2538.67 11675.3 Q2538.67 11732.1 2553.12 11760.6 Q2567.75 11789 2596.63 11789 Q2625.71 11789 2640.15 11760.6 Q2654.78 11732.1 2654.78 11675.3 Q2654.78 11618.2 2640.15 11589.9 Q2625.71 11561.4 2596.63 11561.4 M2596.63 11531.7 Q2643.12 11531.7 2667.56 11568.6 Q2692.19 11605.3 2692.19 11675.3 Q2692.19 11745.1 2667.56 11781.9 Q2643.12 11818.6 2596.63 11818.6 Q2550.15 11818.6 2525.52 11781.9 Q2501.08 11745.1 2501.08 11675.3 Q2501.08 11605.3 2525.52 11568.6 Q2550.15 11531.7 2596.63 11531.7 Z" fill="#000000" fill-rule="evenodd" fill-opacity="1" /><path clip-path="url(#clip6000)" d="M 0 0 M7100.6 11954 L7161.71 11954 L7161.71 11743.1 L7095.23 11756.4 L7095.23 11722.3 L7161.34 11709 L7198.75 11709 L7198.75 11954 L7259.86 11954 L7259.86 11985.5 L7100.6 11985.5 L7100.6 11954 Z" fill="#000000" fill-rule="evenodd" fill-opacity="1" /><path clip-path="url(#clip6000)" d="M 0 0 M7298.56 11741.1 L7333.01 11741.1 L7333.01 12022.5 L7298.56 12022.5 L7298.56 11741.1 Z" fill="#000000" fill-rule="evenodd" fill-opacity="1" /><path clip-path="url(#clip6000)" d="M 0 0 M7453.56 11733.6 Q7424.67 11733.6 7410.04 11762.2 Q7395.6 11790.5 7395.6 11847.5 Q7395.6 11904.4 7410.04 11932.9 Q7424.67 11961.2 7453.56 11961.2 Q7482.64 11961.2 7497.08 11932.9 Q7511.71 11904.4 7511.71 11847.5 Q7511.71 11790.5 7497.08 11762.2 Q7482.64 11733.6 7453.56 11733.6 M7453.56 11704 Q7500.04 11704 7524.49 11740.9 Q7549.12 11777.5 7549.12 11847.5 Q7549.12 11917.3 7524.49 11954.2 Q7500.04 11990.9 7453.56 11990.9 Q7407.08 11990.9 7382.45 11954.2 Q7358.01 11917.3 7358.01 11847.5 Q7358.01 11777.5 7382.45 11740.9 Q7407.08 11704 7453.56 11704 Z" fill="#000000" fill-rule="evenodd" fill-opacity="1" /><path clip-path="url(#clip6000)" d="M 0 0 M7650.53 11568.1 L7573.79 11688 L7650.53 11688 L7650.53 11568.1 M7642.55 11541.6 L7680.77 11541.6 L7680.77 11688 L7712.82 11688 L7712.82 11713.3 L7680.77 11713.3 L7680.77 11766.2 L7650.53 11766.2 L7650.53 11713.3 L7549.12 11713.3 L7549.12 11683.9 L7642.55 11541.6 Z" fill="#000000" fill-rule="evenodd" fill-opacity="1" /><path clip-path="url(#clip6000)" d="M 0 0 M11942.2 11954 L12072.7 11954 L12072.7 11985.5 L11897.2 11985.5 L11897.2 11954 Q11918.5 11932 11955.1 11894.9 Q11992 11857.7 12001.4 11847 Q12019.4 11826.8 12026.4 11812.9 Q12033.6 11798.8 12033.6 11785.3 Q12033.6 11763.3 12018.1 11749.4 Q12002.7 11735.5 11977.9 11735.5 Q11960.3 11735.5 11940.7 11741.6 Q11921.2 11747.7 11899 11760.1 L11899 11722.3 Q11921.6 11713.3 11941.2 11708.6 Q11960.9 11704 11977.2 11704 Q12020.1 11704 12045.7 11725.5 Q12071.2 11747 12071.2 11782.9 Q12071.2 11799.9 12064.7 11815.3 Q12058.5 11830.5 12041.6 11851.2 Q12037 11856.6 12012.2 11882.3 Q11987.3 11907.9 11942.2 11954 Z" fill="#000000" fill-rule="evenodd" fill-opacity="1" /><path clip-path="url(#clip6000)" d="M 0 0 M12111.4 11741.1 L12145.9 11741.1 L12145.9 12022.5 L12111.4 12022.5 L12111.4 11741.1 Z" fill="#000000" fill-rule="evenodd" fill-opacity="1" /><path clip-path="url(#clip6000)" d="M 0 0 M12266.4 11733.6 Q12237.5 11733.6 12222.9 11762.2 Q12208.5 11790.5 12208.5 11847.5 Q12208.5 11904.4 12222.9 11932.9 Q12237.5 11961.2 12266.4 11961.2 Q12295.5 11961.2 12309.9 11932.9 Q12324.6 11904.4 12324.6 11847.5 Q12324.6 11790.5 12309.9 11762.2 Q12295.5 11733.6 12266.4 11733.6 M12266.4 11704 Q12312.9 11704 12337.3 11740.9 Q12362 11777.5 12362 11847.5 Q12362 11917.3 12337.3 11954.2 Q12312.9 11990.9 12266.4 11990.9 Q12219.9 11990.9 12195.3 11954.2 Q12170.9 11917.3 12170.9 11847.5 Q12170.9 11777.5 12195.3 11740.9 Q12219.9 11704 12266.4 11704 Z" fill="#000000" fill-rule="evenodd" fill-opacity="1" /><path clip-path="url(#clip6000)" d="M 0 0 M12463.4 11568.1 L12386.6 11688 L12463.4 11688 L12463.4 11568.1 M12455.4 11541.6 L12493.6 11541.6 L12493.6 11688 L12525.7 11688 L12525.7 11713.3 L12493.6 11713.3 L12493.6 11766.2 L12463.4 11766.2 L12463.4 11713.3 L12362 11713.3 L12362 11683.9 L12455.4 11541.6 Z" fill="#000000" fill-rule="evenodd" fill-opacity="1" /><path clip-path="url(#clip6000)" d="M 0 0 M16826.3 11836.4 Q16853.2 11842.2 16868.2 11860.3 Q16883.3 11878.5 16883.3 11905.1 Q16883.3 11946.1 16855.2 11968.5 Q16827 11990.9 16775.2 11990.9 Q16757.8 11990.9 16739.3 11987.3 Q16720.9 11984 16701.3 11977.2 L16701.3 11941.1 Q16716.9 11950.1 16735.4 11954.8 Q16753.9 11959.4 16774.1 11959.4 Q16809.3 11959.4 16827.6 11945.5 Q16846.1 11931.6 16846.1 11905.1 Q16846.1 11880.7 16828.9 11867 Q16811.9 11853.1 16781.3 11853.1 L16749.1 11853.1 L16749.1 11822.3 L16782.8 11822.3 Q16810.4 11822.3 16825 11811.4 Q16839.6 11800.3 16839.6 11779.6 Q16839.6 11758.3 16824.5 11747 Q16809.5 11735.5 16781.3 11735.5 Q16765.9 11735.5 16748.3 11738.8 Q16730.8 11742.2 16709.6 11749.2 L16709.6 11715.9 Q16730.9 11709.9 16749.5 11707 Q16768.2 11704 16784.6 11704 Q16827.2 11704 16852 11723.5 Q16876.9 11742.7 16876.9 11775.7 Q16876.9 11798.6 16863.7 11814.6 Q16850.6 11830.3 16826.3 11836.4 Z" fill="#000000" fill-rule="evenodd" fill-opacity="1" /><path clip-path="url(#clip6000)" d="M 0 0 M16922 11741.1 L16956.5 11741.1 L16956.5 12022.5 L16922 12022.5 L16922 11741.1 Z" fill="#000000" fill-rule="evenodd" fill-opacity="1" /><path clip-path="url(#clip6000)" d="M 0 0 M17077 11733.6 Q17048.2 11733.6 17033.5 11762.2 Q17019.1 11790.5 17019.1 11847.5 Q17019.1 11904.4 17033.5 11932.9 Q17048.2 11961.2 17077 11961.2 Q17106.1 11961.2 17120.6 11932.9 Q17135.2 11904.4 17135.2 11847.5 Q17135.2 11790.5 17120.6 11762.2 Q17106.1 11733.6 17077 11733.6 M17077 11704 Q17123.5 11704 17148 11740.9 Q17172.6 11777.5 17172.6 11847.5 Q17172.6 11917.3 17148 11954.2 Q17123.5 11990.9 17077 11990.9 Q17030.6 11990.9 17005.9 11954.2 Q16981.5 11917.3 16981.5 11847.5 Q16981.5 11777.5 17005.9 11740.9 Q17030.6 11704 17077 11704 Z" fill="#000000" fill-rule="evenodd" fill-opacity="1" /><path clip-path="url(#clip6000)" d="M 0 0 M17274 11568.1 L17197.3 11688 L17274 11688 L17274 11568.1 M17266 11541.6 L17304.3 11541.6 L17304.3 11688 L17336.3 11688 L17336.3 11713.3 L17304.3 11713.3 L17304.3 11766.2 L17274 11766.2 L17274 11713.3 L17172.6 11713.3 L17172.6 11683.9 L17266 11541.6 Z" fill="#000000" fill-rule="evenodd" fill-opacity="1" /><path clip-path="url(#clip6000)" d="M 0 0 M1109.53 11250.8 Q1080.64 11250.8 1066.01 11279.3 Q1051.56 11307.7 1051.56 11364.7 Q1051.56 11421.6 1066.01 11450.1 Q1080.64 11478.4 1109.53 11478.4 Q1138.6 11478.4 1153.04 11450.1 Q1167.67 11421.6 1167.67 11364.7 Q1167.67 11307.7 1153.04 11279.3 Q1138.6 11250.8 1109.53 11250.8 M1109.53 11221.2 Q1156.01 11221.2 1180.45 11258 Q1205.08 11294.7 1205.08 11364.7 Q1205.08 11434.5 1180.45 11471.4 Q1156.01 11508 1109.53 11508 Q1063.04 11508 1038.41 11471.4 Q1013.97 11434.5 1013.97 11364.7 Q1013.97 11294.7 1038.41 11258 Q1063.04 11221.2 1109.53 11221.2 Z" fill="#000000" fill-rule="evenodd" fill-opacity="1" /><path clip-path="url(#clip6000)" d="M 0 0 M1245.64 11455.6 L1284.71 11455.6 L1284.71 11502.7 L1245.64 11502.7 L1245.64 11455.6 Z" fill="#000000" fill-rule="evenodd" fill-opacity="1" /><path clip-path="url(#clip6000)" d="M 0 0 M1405.26 11250.8 Q1376.38 11250.8 1361.75 11279.3 Q1347.3 11307.7 1347.3 11364.7 Q1347.3 11421.6 1361.75 11450.1 Q1376.38 11478.4 1405.26 11478.4 Q1434.34 11478.4 1448.78 11450.1 Q1463.41 11421.6 1463.41 11364.7 Q1463.41 11307.7 1448.78 11279.3 Q1434.34 11250.8 1405.26 11250.8 M1405.26 11221.2 Q1451.75 11221.2 1476.19 11258 Q1500.82 11294.7 1500.82 11364.7 Q1500.82 11434.5 1476.19 11471.4 Q1451.75 11508 1405.26 11508 Q1358.78 11508 1334.15 11471.4 Q1309.71 11434.5 1309.71 11364.7 Q1309.71 11294.7 1334.15 11258 Q1358.78 11221.2 1405.26 11221.2 Z" fill="#000000" fill-rule="evenodd" fill-opacity="1" /><path clip-path="url(#clip6000)" d="M 0 0 M1621.37 11250.8 Q1592.49 11250.8 1577.86 11279.3 Q1563.41 11307.7 1563.41 11364.7 Q1563.41 11421.6 1577.86 11450.1 Q1592.49 11478.4 1621.37 11478.4 Q1650.45 11478.4 1664.89 11450.1 Q1679.52 11421.6 1679.52 11364.7 Q1679.52 11307.7 1664.89 11279.3 Q1650.45 11250.8 1621.37 11250.8 M1621.37 11221.2 Q1667.86 11221.2 1692.3 11258 Q1716.93 11294.7 1716.93 11364.7 Q1716.93 11434.5 1692.3 11471.4 Q1667.86 11508 1621.37 11508 Q1574.89 11508 1550.26 11471.4 Q1525.82 11434.5 1525.82 11364.7 Q1525.82 11294.7 1550.26 11258 Q1574.89 11221.2 1621.37 11221.2 Z" fill="#000000" fill-rule="evenodd" fill-opacity="1" /><path clip-path="url(#clip6000)" d="M 0 0 M1837.48 11250.8 Q1808.6 11250.8 1793.97 11279.3 Q1779.52 11307.7 1779.52 11364.7 Q1779.52 11421.6 1793.97 11450.1 Q1808.6 11478.4 1837.48 11478.4 Q1866.56 11478.4 1881 11450.1 Q1895.63 11421.6 1895.63 11364.7 Q1895.63 11307.7 1881 11279.3 Q1866.56 11250.8 1837.48 11250.8 M1837.48 11221.2 Q1883.97 11221.2 1908.41 11258 Q1933.04 11294.7 1933.04 11364.7 Q1933.04 11434.5 1908.41 11471.4 Q1883.97 11508 1837.48 11508 Q1791 11508 1766.37 11471.4 Q1741.93 11434.5 1741.93 11364.7 Q1741.93 11294.7 1766.37 11258 Q1791 11221.2 1837.48 11221.2 Z" fill="#000000" fill-rule="evenodd" fill-opacity="1" /><path clip-path="url(#clip6000)" d="M 0 0 M1122.3 9097.9 Q1093.41 9097.9 1078.78 9126.41 Q1064.34 9154.75 1064.34 9211.78 Q1064.34 9268.64 1078.78 9297.15 Q1093.41 9325.49 1122.3 9325.49 Q1151.38 9325.49 1165.82 9297.15 Q1180.45 9268.64 1180.45 9211.78 Q1180.45 9154.75 1165.82 9126.41 Q1151.38 9097.9 1122.3 9097.9 M1122.3 9068.27 Q1168.78 9068.27 1193.23 9105.12 Q1217.86 9141.78 1217.86 9211.78 Q1217.86 9281.6 1193.23 9318.45 Q1168.78 9355.12 1122.3 9355.12 Q1075.82 9355.12 1051.19 9318.45 Q1026.75 9281.6 1026.75 9211.78 Q1026.75 9141.78 1051.19 9105.12 Q1075.82 9068.27 1122.3 9068.27 Z" fill="#000000" fill-rule="evenodd" fill-opacity="1" /><path clip-path="url(#clip6000)" d="M 0 0 M1258.41 9302.71 L1297.49 9302.71 L1297.49 9349.75 L1258.41 9349.75 L1258.41 9302.71 Z" fill="#000000" fill-rule="evenodd" fill-opacity="1" /><path clip-path="url(#clip6000)" d="M 0 0 M1418.04 9097.9 Q1389.15 9097.9 1374.52 9126.41 Q1360.08 9154.75 1360.08 9211.78 Q1360.08 9268.64 1374.52 9297.15 Q1389.15 9325.49 1418.04 9325.49 Q1447.12 9325.49 1461.56 9297.15 Q1476.19 9268.64 1476.19 9211.78 Q1476.19 9154.75 1461.56 9126.41 Q1447.12 9097.9 1418.04 9097.9 M1418.04 9068.27 Q1464.52 9068.27 1488.97 9105.12 Q1513.6 9141.78 1513.6 9211.78 Q1513.6 9281.6 1488.97 9318.45 Q1464.52 9355.12 1418.04 9355.12 Q1371.56 9355.12 1346.93 9318.45 Q1322.49 9281.6 1322.49 9211.78 Q1322.49 9141.78 1346.93 9105.12 Q1371.56 9068.27 1418.04 9068.27 Z" fill="#000000" fill-rule="evenodd" fill-opacity="1" /><path clip-path="url(#clip6000)" d="M 0 0 M1634.15 9097.9 Q1605.26 9097.9 1590.63 9126.41 Q1576.19 9154.75 1576.19 9211.78 Q1576.19 9268.64 1590.63 9297.15 Q1605.26 9325.49 1634.15 9325.49 Q1663.23 9325.49 1677.67 9297.15 Q1692.3 9268.64 1692.3 9211.78 Q1692.3 9154.75 1677.67 9126.41 Q1663.23 9097.9 1634.15 9097.9 M1634.15 9068.27 Q1680.63 9068.27 1705.08 9105.12 Q1729.71 9141.78 1729.71 9211.78 Q1729.71 9281.6 1705.08 9318.45 Q1680.63 9355.12 1634.15 9355.12 Q1587.67 9355.12 1563.04 9318.45 Q1538.6 9281.6 1538.6 9211.78 Q1538.6 9141.78 1563.04 9105.12 Q1587.67 9068.27 1634.15 9068.27 Z" fill="#000000" fill-rule="evenodd" fill-opacity="1" /><path clip-path="url(#clip6000)" d="M 0 0 M1802.48 9318.26 L1933.04 9318.26 L1933.04 9349.75 L1757.48 9349.75 L1757.48 9318.26 Q1778.78 9296.23 1815.45 9259.19 Q1852.3 9221.97 1861.74 9211.23 Q1879.71 9191.04 1886.74 9177.15 Q1893.97 9163.08 1893.97 9149.56 Q1893.97 9127.53 1878.41 9113.64 Q1863.04 9099.75 1838.22 9099.75 Q1820.63 9099.75 1801 9105.86 Q1781.56 9111.97 1759.34 9124.38 L1759.34 9086.6 Q1781.93 9077.53 1801.56 9072.9 Q1821.19 9068.27 1837.48 9068.27 Q1880.45 9068.27 1906 9089.75 Q1931.56 9111.23 1931.56 9147.15 Q1931.56 9164.19 1925.08 9179.56 Q1918.78 9194.75 1901.93 9215.49 Q1897.3 9220.86 1872.48 9246.6 Q1847.67 9272.15 1802.48 9318.26 Z" fill="#000000" fill-rule="evenodd" fill-opacity="1" /><path clip-path="url(#clip6000)" d="M 0 0 M1105.64 6944.98 Q1076.75 6944.98 1062.12 6973.5 Q1047.67 7001.83 1047.67 7058.87 Q1047.67 7115.72 1062.12 7144.24 Q1076.75 7172.57 1105.64 7172.57 Q1134.71 7172.57 1149.15 7144.24 Q1163.78 7115.72 1163.78 7058.87 Q1163.78 7001.83 1149.15 6973.5 Q1134.71 6944.98 1105.64 6944.98 M1105.64 6915.35 Q1152.12 6915.35 1176.56 6952.2 Q1201.19 6988.87 1201.19 7058.87 Q1201.19 7128.68 1176.56 7165.54 Q1152.12 7202.2 1105.64 7202.2 Q1059.16 7202.2 1034.53 7165.54 Q1010.08 7128.68 1010.08 7058.87 Q1010.08 6988.87 1034.53 6952.2 Q1059.16 6915.35 1105.64 6915.35 Z" fill="#000000" fill-rule="evenodd" fill-opacity="1" /><path clip-path="url(#clip6000)" d="M 0 0 M1241.75 7149.79 L1280.82 7149.79 L1280.82 7196.83 L1241.75 7196.83 L1241.75 7149.79 Z" fill="#000000" fill-rule="evenodd" fill-opacity="1" /><path clip-path="url(#clip6000)" d="M 0 0 M1401.38 6944.98 Q1372.49 6944.98 1357.86 6973.5 Q1343.41 7001.83 1343.41 7058.87 Q1343.41 7115.72 1357.86 7144.24 Q1372.49 7172.57 1401.38 7172.57 Q1430.45 7172.57 1444.89 7144.24 Q1459.52 7115.72 1459.52 7058.87 Q1459.52 7001.83 1444.89 6973.5 Q1430.45 6944.98 1401.38 6944.98 M1401.38 6915.35 Q1447.86 6915.35 1472.3 6952.2 Q1496.93 6988.87 1496.93 7058.87 Q1496.93 7128.68 1472.3 7165.54 Q1447.86 7202.2 1401.38 7202.2 Q1354.89 7202.2 1330.26 7165.54 Q1305.82 7128.68 1305.82 7058.87 Q1305.82 6988.87 1330.26 6952.2 Q1354.89 6915.35 1401.38 6915.35 Z" fill="#000000" fill-rule="evenodd" fill-opacity="1" /><path clip-path="url(#clip6000)" d="M 0 0 M1617.49 6944.98 Q1588.6 6944.98 1573.97 6973.5 Q1559.52 7001.83 1559.52 7058.87 Q1559.52 7115.72 1573.97 7144.24 Q1588.6 7172.57 1617.49 7172.57 Q1646.56 7172.57 1661 7144.24 Q1675.63 7115.72 1675.63 7058.87 Q1675.63 7001.83 1661 6973.5 Q1646.56 6944.98 1617.49 6944.98 M1617.49 6915.35 Q1663.97 6915.35 1688.41 6952.2 Q1713.04 6988.87 1713.04 7058.87 Q1713.04 7128.68 1688.41 7165.54 Q1663.97 7202.2 1617.49 7202.2 Q1571 7202.2 1546.37 7165.54 Q1521.93 7128.68 1521.93 7058.87 Q1521.93 6988.87 1546.37 6952.2 Q1571 6915.35 1617.49 6915.35 Z" fill="#000000" fill-rule="evenodd" fill-opacity="1" /><path clip-path="url(#clip6000)" d="M 0 0 M1856.37 6952.94 L1761.93 7100.54 L1856.37 7100.54 L1856.37 6952.94 M1846.56 6920.35 L1893.6 6920.35 L1893.6 7100.54 L1933.04 7100.54 L1933.04 7131.65 L1893.6 7131.65 L1893.6 7196.83 L1856.37 7196.83 L1856.37 7131.65 L1731.56 7131.65 L1731.56 7095.54 L1846.56 6920.35 Z" fill="#000000" fill-rule="evenodd" fill-opacity="1" /><path clip-path="url(#clip6000)" d="M 0 0 M1108.23 4792.07 Q1079.34 4792.07 1064.71 4820.58 Q1050.27 4848.92 1050.27 4905.95 Q1050.27 4962.81 1064.71 4991.32 Q1079.34 5019.66 1108.23 5019.66 Q1137.3 5019.66 1151.75 4991.32 Q1166.38 4962.81 1166.38 4905.95 Q1166.38 4848.92 1151.75 4820.58 Q1137.3 4792.07 1108.23 4792.07 M1108.23 4762.44 Q1154.71 4762.44 1179.15 4799.29 Q1203.78 4835.95 1203.78 4905.95 Q1203.78 4975.77 1179.15 5012.62 Q1154.71 5049.29 1108.23 5049.29 Q1061.75 5049.29 1037.12 5012.62 Q1012.67 4975.77 1012.67 4905.95 Q1012.67 4835.95 1037.12 4799.29 Q1061.75 4762.44 1108.23 4762.44 Z" fill="#000000" fill-rule="evenodd" fill-opacity="1" /><path clip-path="url(#clip6000)" d="M 0 0 M1244.34 4996.88 L1283.41 4996.88 L1283.41 5043.92 L1244.34 5043.92 L1244.34 4996.88 Z" fill="#000000" fill-rule="evenodd" fill-opacity="1" /><path clip-path="url(#clip6000)" d="M 0 0 M1403.97 4792.07 Q1375.08 4792.07 1360.45 4820.58 Q1346.01 4848.92 1346.01 4905.95 Q1346.01 4962.81 1360.45 4991.32 Q1375.08 5019.66 1403.97 5019.66 Q1433.04 5019.66 1447.49 4991.32 Q1462.12 4962.81 1462.12 4905.95 Q1462.12 4848.92 1447.49 4820.58 Q1433.04 4792.07 1403.97 4792.07 M1403.97 4762.44 Q1450.45 4762.44 1474.89 4799.29 Q1499.52 4835.95 1499.52 4905.95 Q1499.52 4975.77 1474.89 5012.62 Q1450.45 5049.29 1403.97 5049.29 Q1357.49 5049.29 1332.86 5012.62 Q1308.41 4975.77 1308.41 4905.95 Q1308.41 4835.95 1332.86 4799.29 Q1357.49 4762.44 1403.97 4762.44 Z" fill="#000000" fill-rule="evenodd" fill-opacity="1" /><path clip-path="url(#clip6000)" d="M 0 0 M1620.08 4792.07 Q1591.19 4792.07 1576.56 4820.58 Q1562.12 4848.92 1562.12 4905.95 Q1562.12 4962.81 1576.56 4991.32 Q1591.19 5019.66 1620.08 5019.66 Q1649.15 5019.66 1663.6 4991.32 Q1678.23 4962.81 1678.23 4905.95 Q1678.23 4848.92 1663.6 4820.58 Q1649.15 4792.07 1620.08 4792.07 M1620.08 4762.44 Q1666.56 4762.44 1691 4799.29 Q1715.63 4835.95 1715.63 4905.95 Q1715.63 4975.77 1691 5012.62 Q1666.56 5049.29 1620.08 5049.29 Q1573.6 5049.29 1548.97 5012.62 Q1524.52 4975.77 1524.52 4905.95 Q1524.52 4835.95 1548.97 4799.29 Q1573.6 4762.44 1620.08 4762.44 Z" fill="#000000" fill-rule="evenodd" fill-opacity="1" /><path clip-path="url(#clip6000)" d="M 0 0 M1840.82 4890.77 Q1815.63 4890.77 1800.82 4907.99 Q1786.19 4925.21 1786.19 4955.21 Q1786.19 4985.03 1800.82 5002.43 Q1815.63 5019.66 1840.82 5019.66 Q1866 5019.66 1880.63 5002.43 Q1895.45 4985.03 1895.45 4955.21 Q1895.45 4925.21 1880.63 4907.99 Q1866 4890.77 1840.82 4890.77 M1915.08 4773.55 L1915.08 4807.62 Q1901 4800.95 1886.56 4797.44 Q1872.3 4793.92 1858.22 4793.92 Q1821.19 4793.92 1801.56 4818.92 Q1782.11 4843.92 1779.34 4894.47 Q1790.26 4878.36 1806.74 4869.84 Q1823.23 4861.14 1843.04 4861.14 Q1884.71 4861.14 1908.78 4886.51 Q1933.04 4911.69 1933.04 4955.21 Q1933.04 4997.81 1907.85 5023.55 Q1882.67 5049.29 1840.82 5049.29 Q1792.85 5049.29 1767.48 5012.62 Q1742.11 4975.77 1742.11 4905.95 Q1742.11 4840.4 1773.23 4801.51 Q1804.34 4762.44 1856.74 4762.44 Q1870.82 4762.44 1885.08 4765.21 Q1899.52 4767.99 1915.08 4773.55 Z" fill="#000000" fill-rule="evenodd" fill-opacity="1" /><path clip-path="url(#clip6000)" d="M 0 0 M1110.27 2639.15 Q1081.38 2639.15 1066.75 2667.67 Q1052.3 2696 1052.3 2753.04 Q1052.3 2809.89 1066.75 2838.41 Q1081.38 2866.74 1110.27 2866.74 Q1139.34 2866.74 1153.78 2838.41 Q1168.41 2809.89 1168.41 2753.04 Q1168.41 2696 1153.78 2667.67 Q1139.34 2639.15 1110.27 2639.15 M1110.27 2609.52 Q1156.75 2609.52 1181.19 2646.37 Q1205.82 2683.04 1205.82 2753.04 Q1205.82 2822.85 1181.19 2859.7 Q1156.75 2896.37 1110.27 2896.37 Q1063.78 2896.37 1039.16 2859.7 Q1014.71 2822.85 1014.71 2753.04 Q1014.71 2683.04 1039.16 2646.37 Q1063.78 2609.52 1110.27 2609.52 Z" fill="#000000" fill-rule="evenodd" fill-opacity="1" /><path clip-path="url(#clip6000)" d="M 0 0 M1246.38 2843.96 L1285.45 2843.96 L1285.45 2891 L1246.38 2891 L1246.38 2843.96 Z" fill="#000000" fill-rule="evenodd" fill-opacity="1" /><path clip-path="url(#clip6000)" d="M 0 0 M1406.01 2639.15 Q1377.12 2639.15 1362.49 2667.67 Q1348.04 2696 1348.04 2753.04 Q1348.04 2809.89 1362.49 2838.41 Q1377.12 2866.74 1406.01 2866.74 Q1435.08 2866.74 1449.52 2838.41 Q1464.15 2809.89 1464.15 2753.04 Q1464.15 2696 1449.52 2667.67 Q1435.08 2639.15 1406.01 2639.15 M1406.01 2609.52 Q1452.49 2609.52 1476.93 2646.37 Q1501.56 2683.04 1501.56 2753.04 Q1501.56 2822.85 1476.93 2859.7 Q1452.49 2896.37 1406.01 2896.37 Q1359.52 2896.37 1334.89 2859.7 Q1310.45 2822.85 1310.45 2753.04 Q1310.45 2683.04 1334.89 2646.37 Q1359.52 2609.52 1406.01 2609.52 Z" fill="#000000" fill-rule="evenodd" fill-opacity="1" /><path clip-path="url(#clip6000)" d="M 0 0 M1622.12 2639.15 Q1593.23 2639.15 1578.6 2667.67 Q1564.15 2696 1564.15 2753.04 Q1564.15 2809.89 1578.6 2838.41 Q1593.23 2866.74 1622.12 2866.74 Q1651.19 2866.74 1665.63 2838.41 Q1680.26 2809.89 1680.26 2753.04 Q1680.26 2696 1665.63 2667.67 Q1651.19 2639.15 1622.12 2639.15 M1622.12 2609.52 Q1668.6 2609.52 1693.04 2646.37 Q1717.67 2683.04 1717.67 2753.04 Q1717.67 2822.85 1693.04 2859.7 Q1668.6 2896.37 1622.12 2896.37 Q1575.63 2896.37 1551 2859.7 Q1526.56 2822.85 1526.56 2753.04 Q1526.56 2683.04 1551 2646.37 Q1575.63 2609.52 1622.12 2609.52 Z" fill="#000000" fill-rule="evenodd" fill-opacity="1" /><path clip-path="url(#clip6000)" d="M 0 0 M1838.22 2759.71 Q1811.56 2759.71 1796.19 2773.96 Q1781 2788.22 1781 2813.22 Q1781 2838.22 1796.19 2852.48 Q1811.56 2866.74 1838.22 2866.74 Q1864.89 2866.74 1880.26 2852.48 Q1895.63 2838.04 1895.63 2813.22 Q1895.63 2788.22 1880.26 2773.96 Q1865.08 2759.71 1838.22 2759.71 M1800.82 2743.78 Q1776.74 2737.85 1763.23 2721.37 Q1749.89 2704.89 1749.89 2681.19 Q1749.89 2648.04 1773.41 2628.78 Q1797.11 2609.52 1838.22 2609.52 Q1879.52 2609.52 1903.04 2628.78 Q1926.56 2648.04 1926.56 2681.19 Q1926.56 2704.89 1913.04 2721.37 Q1899.71 2737.85 1875.82 2743.78 Q1902.85 2750.08 1917.85 2768.41 Q1933.04 2786.74 1933.04 2813.22 Q1933.04 2853.41 1908.41 2874.89 Q1883.97 2896.37 1838.22 2896.37 Q1792.48 2896.37 1767.85 2874.89 Q1743.41 2853.41 1743.41 2813.22 Q1743.41 2786.74 1758.6 2768.41 Q1773.78 2750.08 1800.82 2743.78 M1787.11 2684.71 Q1787.11 2706.19 1800.45 2718.22 Q1813.97 2730.26 1838.22 2730.26 Q1862.3 2730.26 1875.82 2718.22 Q1889.52 2706.19 1889.52 2684.71 Q1889.52 2663.22 1875.82 2651.19 Q1862.3 2639.15 1838.22 2639.15 Q1813.97 2639.15 1800.45 2651.19 Q1787.11 2663.22 1787.11 2684.71 Z" fill="#000000" fill-rule="evenodd" fill-opacity="1" /><path clip-path="url(#clip6000)" d="M 0 0 M6564.91 384.22 L6564.91 413.387 L6290.74 413.387 Q6294.63 474.96 6327.69 507.368 Q6361.07 539.451 6420.37 539.451 Q6454.72 539.451 6486.81 531.025 Q6519.21 522.599 6550.97 505.747 L6550.97 562.136 Q6518.89 575.747 6485.19 582.877 Q6451.48 590.006 6416.81 590.006 Q6329.95 590.006 6279.07 539.451 Q6228.52 488.896 6228.52 402.692 Q6228.52 313.572 6276.48 261.397 Q6324.77 208.897 6406.44 208.897 Q6479.68 208.897 6522.13 256.212 Q6564.91 303.202 6564.91 384.22 M6505.28 366.72 Q6504.63 317.785 6477.73 288.619 Q6451.16 259.452 6407.08 259.452 Q6357.18 259.452 6327.04 287.647 Q6297.22 315.841 6292.69 367.044 L6505.28 366.72 Z" fill="#000000" fill-rule="evenodd" fill-opacity="1" /><path clip-path="url(#clip6000)" d="M 0 0 M6837.78 273.387 Q6827.73 267.554 6815.74 264.962 Q6804.07 262.045 6789.81 262.045 Q6739.26 262.045 6712.04 295.1 Q6685.14 327.832 6685.14 389.405 L6685.14 580.608 L6625.18 580.608 L6625.18 217.647 L6685.14 217.647 L6685.14 274.036 Q6703.93 240.98 6734.07 225.101 Q6764.21 208.897 6807.31 208.897 Q6813.47 208.897 6820.92 209.869 Q6828.38 210.517 6837.45 212.138 L6837.78 273.387 Z" fill="#000000" fill-rule="evenodd" fill-opacity="1" /><path clip-path="url(#clip6000)" d="M 0 0 M7098.98 273.387 Q7088.93 267.554 7076.94 264.962 Q7065.27 262.045 7051.02 262.045 Q7000.46 262.045 6973.24 295.1 Q6946.34 327.832 6946.34 389.405 L6946.34 580.608 L6886.39 580.608 L6886.39 217.647 L6946.34 217.647 L6946.34 274.036 Q6965.14 240.98 6995.27 225.101 Q7025.41 208.897 7068.52 208.897 Q7074.67 208.897 7082.13 209.869 Q7089.58 210.517 7098.65 212.138 L7098.98 273.387 Z" fill="#000000" fill-rule="evenodd" fill-opacity="1" /><path clip-path="url(#clip6000)" d="M 0 0 M7287.59 259.452 Q7239.63 259.452 7211.76 297.045 Q7183.88 334.313 7183.88 399.452 Q7183.88 464.59 7211.43 502.182 Q7239.3 539.451 7287.59 539.451 Q7335.23 539.451 7363.1 501.858 Q7390.97 464.266 7390.97 399.452 Q7390.97 334.961 7363.1 297.369 Q7335.23 259.452 7287.59 259.452 M7287.59 208.897 Q7365.37 208.897 7409.76 259.452 Q7454.16 310.008 7454.16 399.452 Q7454.16 488.571 7409.76 539.451 Q7365.37 590.006 7287.59 590.006 Q7209.49 590.006 7165.09 539.451 Q7121.01 488.571 7121.01 399.452 Q7121.01 310.008 7165.09 259.452 Q7209.49 208.897 7287.59 208.897 Z" fill="#000000" fill-rule="evenodd" fill-opacity="1" /><path clip-path="url(#clip6000)" d="M 0 0 M7727.03 273.387 Q7716.98 267.554 7704.99 264.962 Q7693.33 262.045 7679.07 262.045 Q7628.51 262.045 7601.29 295.1 Q7574.39 327.832 7574.39 389.405 L7574.39 580.608 L7514.44 580.608 L7514.44 217.647 L7574.39 217.647 L7574.39 274.036 Q7593.19 240.98 7623.33 225.101 Q7653.47 208.897 7696.57 208.897 Q7702.72 208.897 7710.18 209.869 Q7717.63 210.517 7726.71 212.138 L7727.03 273.387 Z" fill="#000000" fill-rule="evenodd" fill-opacity="1" /><path clip-path="url(#clip6000)" d="M 0 0 M7965.87 217.647 L8025.5 217.647 L8100.04 500.886 L8174.25 217.647 L8244.57 217.647 L8319.11 500.886 L8393.32 217.647 L8452.95 217.647 L8358 580.608 L8287.68 580.608 L8209.57 283.11 L8131.15 580.608 L8060.82 580.608 L7965.87 217.647 Z" fill="#000000" fill-rule="evenodd" fill-opacity="1" /><path clip-path="url(#clip6000)" d="M 0 0 M8515.5 217.647 L8575.13 217.647 L8575.13 580.608 L8515.5 580.608 L8515.5 217.647 M8515.5 76.3514 L8575.13 76.3514 L8575.13 151.86 L8515.5 151.86 L8515.5 76.3514 Z" fill="#000000" fill-rule="evenodd" fill-opacity="1" /><path clip-path="url(#clip6000)" d="M 0 0 M8696.65 114.592 L8696.65 217.647 L8819.48 217.647 L8819.48 263.989 L8696.65 263.989 L8696.65 461.025 Q8696.65 505.423 8708.65 518.062 Q8720.96 530.701 8758.23 530.701 L8819.48 530.701 L8819.48 580.608 L8758.23 580.608 Q8689.2 580.608 8662.95 555.006 Q8636.7 529.08 8636.7 461.025 L8636.7 263.989 L8592.95 263.989 L8592.95 217.647 L8636.7 217.647 L8636.7 114.592 L8696.65 114.592 Z" fill="#000000" fill-rule="evenodd" fill-opacity="1" /><path clip-path="url(#clip6000)" d="M 0 0 M9183.74 361.535 L9183.74 580.608 L9124.11 580.608 L9124.11 363.48 Q9124.11 311.952 9104.01 286.35 Q9083.92 260.749 9043.74 260.749 Q8995.45 260.749 8967.58 291.535 Q8939.71 322.322 8939.71 375.47 L8939.71 580.608 L8879.76 580.608 L8879.76 76.3514 L8939.71 76.3514 L8939.71 274.036 Q8961.1 241.304 8989.94 225.101 Q9019.11 208.897 9057.02 208.897 Q9119.57 208.897 9151.65 247.786 Q9183.74 286.35 9183.74 361.535 Z" fill="#000000" fill-rule="evenodd" fill-opacity="1" /><path clip-path="url(#clip6000)" d="M 0 0 M9696.09 272.739 L9696.09 76.3514 L9755.72 76.3514 L9755.72 580.608 L9696.09 580.608 L9696.09 526.164 Q9677.3 558.571 9648.46 574.451 Q9619.94 590.006 9579.75 590.006 Q9513.97 590.006 9472.48 537.506 Q9431.33 485.007 9431.33 399.452 Q9431.33 313.896 9472.48 261.397 Q9513.97 208.897 9579.75 208.897 Q9619.94 208.897 9648.46 224.777 Q9677.3 240.332 9696.09 272.739 M9492.9 399.452 Q9492.9 465.238 9519.8 502.831 Q9547.02 540.099 9594.34 540.099 Q9641.65 540.099 9668.87 502.831 Q9696.09 465.238 9696.09 399.452 Q9696.09 333.665 9668.87 296.397 Q9641.65 258.804 9594.34 258.804 Q9547.02 258.804 9519.8 296.397 Q9492.9 333.665 9492.9 399.452 Z" fill="#000000" fill-rule="evenodd" fill-opacity="1" /><path clip-path="url(#clip6000)" d="M 0 0 M9818.27 217.647 L9877.9 217.647 L9877.9 580.608 L9818.27 580.608 L9818.27 217.647 M9818.27 76.3514 L9877.9 76.3514 L9877.9 151.86 L9818.27 151.86 L9818.27 76.3514 Z" fill="#000000" fill-rule="evenodd" fill-opacity="1" /><path clip-path="url(#clip6000)" d="M 0 0 M10124.2 76.3514 L10124.2 125.935 L10067.2 125.935 Q10035.1 125.935 10022.4 138.897 Q10010.1 151.86 10010.1 185.564 L10010.1 217.647 L10108.3 217.647 L10108.3 263.989 L10010.1 263.989 L10010.1 580.608 L9950.17 580.608 L9950.17 263.989 L9893.13 263.989 L9893.13 217.647 L9950.17 217.647 L9950.17 192.369 Q9950.17 131.768 9978.36 104.222 Q10006.6 76.3514 10067.8 76.3514 L10124.2 76.3514 Z" fill="#000000" fill-rule="evenodd" fill-opacity="1" /><path clip-path="url(#clip6000)" d="M 0 0 M10370.5 76.3514 L10370.5 125.935 L10313.5 125.935 Q10281.4 125.935 10268.7 138.897 Q10256.4 151.86 10256.4 185.564 L10256.4 217.647 L10354.6 217.647 L10354.6 263.989 L10256.4 263.989 L10256.4 580.608 L10196.5 580.608 L10196.5 263.989 L10139.4 263.989 L10139.4 217.647 L10196.5 217.647 L10196.5 192.369 Q10196.5 131.768 10224.7 104.222 Q10252.8 76.3514 10314.1 76.3514 L10370.5 76.3514 Z" fill="#000000" fill-rule="evenodd" fill-opacity="1" /><path clip-path="url(#clip6000)" d="M 0 0 M10743.5 384.22 L10743.5 413.387 L10469.3 413.387 Q10473.2 474.96 10506.3 507.368 Q10539.7 539.451 10599 539.451 Q10633.3 539.451 10665.4 531.025 Q10697.8 522.599 10729.6 505.747 L10729.6 562.136 Q10697.5 575.747 10663.8 582.877 Q10630.1 590.006 10595.4 590.006 Q10508.5 590.006 10457.7 539.451 Q10407.1 488.896 10407.1 402.692 Q10407.1 313.572 10455.1 261.397 Q10503.4 208.897 10585 208.897 Q10658.3 208.897 10700.7 256.212 Q10743.5 303.202 10743.5 384.22 M10683.9 366.72 Q10683.2 317.785 10656.3 288.619 Q10629.7 259.452 10585.7 259.452 Q10535.8 259.452 10505.6 287.647 Q10475.8 315.841 10471.3 367.044 L10683.9 366.72 Z" fill="#000000" fill-rule="evenodd" fill-opacity="1" /><path clip-path="url(#clip6000)" d="M 0 0 M11016.4 273.387 Q11006.3 267.554 10994.3 264.962 Q10982.7 262.045 10968.4 262.045 Q10917.8 262.045 10890.6 295.1 Q10863.7 327.832 10863.7 389.405 L10863.7 580.608 L10803.8 580.608 L10803.8 217.647 L10863.7 217.647 L10863.7 274.036 Q10882.5 240.98 10912.7 225.101 Q10942.8 208.897 10985.9 208.897 Q10992.1 208.897 10999.5 209.869 Q11007 210.517 11016 212.138 L11016.4 273.387 Z" fill="#000000" fill-rule="evenodd" fill-opacity="1" /><path clip-path="url(#clip6000)" d="M 0 0 M11374.8 384.22 L11374.8 413.387 L11100.6 413.387 Q11104.5 474.96 11137.6 507.368 Q11170.9 539.451 11230.3 539.451 Q11264.6 539.451 11296.7 531.025 Q11329.1 522.599 11360.9 505.747 L11360.9 562.136 Q11328.8 575.747 11295.1 582.877 Q11261.4 590.006 11226.7 590.006 Q11139.8 590.006 11089 539.451 Q11038.4 488.896 11038.4 402.692 Q11038.4 313.572 11086.4 261.397 Q11134.7 208.897 11216.3 208.897 Q11289.6 208.897 11332 256.212 Q11374.8 303.202 11374.8 384.22 M11315.2 366.72 Q11314.5 317.785 11287.6 288.619 Q11261 259.452 11217 259.452 Q11167.1 259.452 11136.9 287.647 Q11107.1 315.841 11102.6 367.044 L11315.2 366.72 Z" fill="#000000" fill-rule="evenodd" fill-opacity="1" /><path clip-path="url(#clip6000)" d="M 0 0 M11739 361.535 L11739 580.608 L11679.4 580.608 L11679.4 363.48 Q11679.4 311.952 11659.3 286.35 Q11639.2 260.749 11599 260.749 Q11550.8 260.749 11522.9 291.535 Q11495 322.322 11495 375.47 L11495 580.608 L11435.1 580.608 L11435.1 217.647 L11495 217.647 L11495 274.036 Q11516.4 241.304 11545.3 225.101 Q11574.4 208.897 11612.3 208.897 Q11674.9 208.897 11707 247.786 Q11739 286.35 11739 361.535 Z" fill="#000000" fill-rule="evenodd" fill-opacity="1" /><path clip-path="url(#clip6000)" d="M 0 0 M11860.6 114.592 L11860.6 217.647 L11983.4 217.647 L11983.4 263.989 L11860.6 263.989 L11860.6 461.025 Q11860.6 505.423 11872.6 518.062 Q11884.9 530.701 11922.1 530.701 L11983.4 530.701 L11983.4 580.608 L11922.1 580.608 Q11853.1 580.608 11826.9 555.006 Q11800.6 529.08 11800.6 461.025 L11800.6 263.989 L11756.9 263.989 L11756.9 217.647 L11800.6 217.647 L11800.6 114.592 L11860.6 114.592 Z" fill="#000000" fill-rule="evenodd" fill-opacity="1" /><path clip-path="url(#clip6000)" d="M 0 0 M12517.5 399.452 Q12517.5 333.665 12490.2 296.397 Q12463.3 258.804 12416 258.804 Q12368.7 258.804 12341.5 296.397 Q12314.6 333.665 12314.6 399.452 Q12314.6 465.238 12341.5 502.831 Q12368.7 540.099 12416 540.099 Q12463.3 540.099 12490.2 502.831 Q12517.5 465.238 12517.5 399.452 M12314.6 272.739 Q12333.4 240.332 12361.9 224.777 Q12390.8 208.897 12430.6 208.897 Q12496.7 208.897 12537.9 261.397 Q12579.4 313.896 12579.4 399.452 Q12579.4 485.007 12537.9 537.506 Q12496.7 590.006 12430.6 590.006 Q12390.8 590.006 12361.9 574.451 Q12333.4 558.571 12314.6 526.164 L12314.6 580.608 L12254.6 580.608 L12254.6 76.3514 L12314.6 76.3514 L12314.6 272.739 Z" fill="#000000" fill-rule="evenodd" fill-opacity="1" /><path clip-path="url(#clip6000)" d="M 0 0 M12641.9 217.647 L12701.5 217.647 L12701.5 580.608 L12641.9 580.608 L12641.9 217.647 M12641.9 76.3514 L12701.5 76.3514 L12701.5 151.86 L12641.9 151.86 L12641.9 76.3514 Z" fill="#000000" fill-rule="evenodd" fill-opacity="1" /><path clip-path="url(#clip6000)" d="M 0 0 M13065.8 361.535 L13065.8 580.608 L13006.2 580.608 L13006.2 363.48 Q13006.2 311.952 12986.1 286.35 Q12966 260.749 12925.8 260.749 Q12877.5 260.749 12849.6 291.535 Q12821.8 322.322 12821.8 375.47 L12821.8 580.608 L12761.8 580.608 L12761.8 217.647 L12821.8 217.647 L12821.8 274.036 Q12843.2 241.304 12872 225.101 Q12901.2 208.897 12939.1 208.897 Q13001.6 208.897 13033.7 247.786 Q13065.8 286.35 13065.8 361.535 Z" fill="#000000" fill-rule="evenodd" fill-opacity="1" /><path clip-path="url(#clip6000)" d="M 0 0 M13570.7 228.341 L13570.7 284.73 Q13545.4 271.767 13518.2 265.286 Q13491 258.804 13461.8 258.804 Q13417.4 258.804 13395.1 272.415 Q13373 286.026 13373 313.248 Q13373 333.989 13388.9 345.98 Q13404.8 357.646 13452.7 368.341 L13473.2 372.878 Q13536.7 386.489 13563.2 411.442 Q13590.1 436.072 13590.1 480.47 Q13590.1 531.025 13550 560.516 Q13510.1 590.006 13440.1 590.006 Q13410.9 590.006 13379.2 584.173 Q13347.7 578.664 13312.7 567.321 L13312.7 505.747 Q13345.8 522.923 13377.9 531.673 Q13410 540.099 13441.4 540.099 Q13483.5 540.099 13506.2 525.84 Q13528.9 511.257 13528.9 485.007 Q13528.9 460.701 13512.4 447.738 Q13496.2 434.775 13440.7 422.785 L13420 417.924 Q13364.6 406.257 13340 382.276 Q13315.3 357.97 13315.3 315.841 Q13315.3 264.637 13351.6 236.767 Q13387.9 208.897 13454.7 208.897 Q13487.7 208.897 13516.9 213.758 Q13546.1 218.619 13570.7 228.341 Z" fill="#000000" fill-rule="evenodd" fill-opacity="1" /><path clip-path="url(#clip6000)" d="M 0 0 M13652.7 217.647 L13712.3 217.647 L13712.3 580.608 L13652.7 580.608 L13652.7 217.647 M13652.7 76.3514 L13712.3 76.3514 L13712.3 151.86 L13652.7 151.86 L13652.7 76.3514 Z" fill="#000000" fill-rule="evenodd" fill-opacity="1" /><path clip-path="url(#clip6000)" d="M 0 0 M13748.9 217.647 L14032.2 217.647 L14032.2 272.091 L13807.9 532.969 L14032.2 532.969 L14032.2 580.608 L13740.8 580.608 L13740.8 526.164 L13965.1 265.286 L13748.9 265.286 L13748.9 217.647 Z" fill="#000000" fill-rule="evenodd" fill-opacity="1" /><path clip-path="url(#clip6000)" d="M 0 0 M14405.2 384.22 L14405.2 413.387 L14131 413.387 Q14134.9 474.96 14168 507.368 Q14201.3 539.451 14260.7 539.451 Q14295 539.451 14327.1 531.025 Q14359.5 522.599 14391.3 505.747 L14391.3 562.136 Q14359.2 575.747 14325.5 582.877 Q14291.8 590.006 14257.1 590.006 Q14170.2 590.006 14119.4 539.451 Q14068.8 488.896 14068.8 402.692 Q14068.8 313.572 14116.8 261.397 Q14165.1 208.897 14246.7 208.897 Q14320 208.897 14362.4 256.212 Q14405.2 303.202 14405.2 384.22 M14345.6 366.72 Q14344.9 317.785 14318 288.619 Q14291.4 259.452 14247.4 259.452 Q14197.5 259.452 14167.3 287.647 Q14137.5 315.841 14133 367.044 L14345.6 366.72 Z" fill="#000000" fill-rule="evenodd" fill-opacity="1" /><path clip-path="url(#clip6000)" d="M 0 0 M14699.1 228.341 L14699.1 284.73 Q14673.8 271.767 14646.6 265.286 Q14619.4 258.804 14590.2 258.804 Q14545.8 258.804 14523.5 272.415 Q14501.4 286.026 14501.4 313.248 Q14501.4 333.989 14517.3 345.98 Q14533.2 357.646 14581.2 368.341 L14601.6 372.878 Q14665.1 386.489 14691.7 411.442 Q14718.6 436.072 14718.6 480.47 Q14718.6 531.025 14678.4 560.516 Q14638.5 590.006 14568.5 590.006 Q14539.4 590.006 14507.6 584.173 Q14476.2 578.664 14441.2 567.321 L14441.2 505.747 Q14474.2 522.923 14506.3 531.673 Q14538.4 540.099 14569.8 540.099 Q14611.9 540.099 14634.6 525.84 Q14657.3 511.257 14657.3 485.007 Q14657.3 460.701 14640.8 447.738 Q14624.6 434.775 14569.2 422.785 L14548.4 417.924 Q14493 406.257 14468.4 382.276 Q14443.8 357.97 14443.8 315.841 Q14443.8 264.637 14480 236.767 Q14516.3 208.897 14583.1 208.897 Q14616.2 208.897 14645.3 213.758 Q14674.5 218.619 14699.1 228.341 Z" fill="#000000" fill-rule="evenodd" fill-opacity="1" /><path clip-path="url(#clip6000)" d="M 0 0 M9835.19 12306 Q9835.19 12254.3 9813.8 12225 Q9792.67 12195.5 9755.49 12195.5 Q9718.32 12195.5 9696.93 12225 Q9675.79 12254.3 9675.79 12306 Q9675.79 12357.7 9696.93 12387.2 Q9718.32 12416.5 9755.49 12416.5 Q9792.67 12416.5 9813.8 12387.2 Q9835.19 12357.7 9835.19 12306 M9675.79 12206.5 Q9690.56 12181 9712.97 12168.8 Q9735.63 12156.3 9766.95 12156.3 Q9818.89 12156.3 9851.23 12197.5 Q9883.82 12238.8 9883.82 12306 Q9883.82 12373.2 9851.23 12414.5 Q9818.89 12455.7 9766.95 12455.7 Q9735.63 12455.7 9712.97 12443.5 Q9690.56 12431 9675.79 12405.6 L9675.79 12448.4 L9628.69 12448.4 L9628.69 12052.1 L9675.79 12052.1 L9675.79 12206.5 Z" fill="#000000" fill-rule="evenodd" fill-opacity="1" /><path clip-path="url(#clip6000)" d="M 0 0 M9932.97 12163.2 L9979.82 12163.2 L9979.82 12448.4 L9932.97 12448.4 L9932.97 12163.2 M9932.97 12052.1 L9979.82 12052.1 L9979.82 12111.5 L9932.97 12111.5 L9932.97 12052.1 Z" fill="#000000" fill-rule="evenodd" fill-opacity="1" /><path clip-path="url(#clip6000)" d="M 0 0 M10266 12276.2 L10266 12448.4 L10219.2 12448.4 L10219.2 12277.7 Q10219.2 12237.3 10203.4 12217.1 Q10187.6 12197 10156 12197 Q10118.1 12197 10096.2 12221.2 Q10074.3 12245.4 10074.3 12287.2 L10074.3 12448.4 L10027.2 12448.4 L10027.2 12163.2 L10074.3 12163.2 L10074.3 12207.5 Q10091.1 12181.8 10113.8 12169 Q10136.7 12156.3 10166.5 12156.3 Q10215.6 12156.3 10240.8 12186.8 Q10266 12217.1 10266 12276.2 Z" fill="#000000" fill-rule="evenodd" fill-opacity="1" /><path clip-path="url(#clip6000)" d="M 0 0 M10662.7 12171.6 L10662.7 12215.9 Q10642.9 12205.7 10621.5 12200.6 Q10600.1 12195.5 10577.2 12195.5 Q10542.3 12195.5 10524.7 12206.2 Q10507.4 12216.9 10507.4 12238.3 Q10507.4 12254.6 10519.9 12264 Q10532.4 12273.2 10570 12281.6 L10586.1 12285.1 Q10636 12295.8 10656.9 12315.4 Q10678 12334.8 10678 12369.7 Q10678 12409.4 10646.4 12432.6 Q10615.1 12455.7 10560.1 12455.7 Q10537.2 12455.7 10512.2 12451.2 Q10487.5 12446.8 10460 12437.9 L10460 12389.5 Q10486 12403 10511.2 12409.9 Q10536.4 12416.5 10561.1 12416.5 Q10594.2 12416.5 10612.1 12405.3 Q10629.9 12393.9 10629.9 12373.2 Q10629.9 12354.1 10616.9 12344 Q10604.2 12333.8 10560.6 12324.3 L10544.3 12320.5 Q10500.8 12311.4 10481.4 12292.5 Q10462.1 12273.4 10462.1 12240.3 Q10462.1 12200.1 10490.6 12178.2 Q10519.1 12156.3 10571.6 12156.3 Q10597.5 12156.3 10620.5 12160.1 Q10643.4 12163.9 10662.7 12171.6 Z" fill="#000000" fill-rule="evenodd" fill-opacity="1" /><path clip-path="url(#clip6000)" d="M 0 0 M10727.2 12163.2 L10774 12163.2 L10774 12448.4 L10727.2 12448.4 L10727.2 12163.2 M10727.2 12052.1 L10774 12052.1 L10774 12111.5 L10727.2 12111.5 L10727.2 12052.1 Z" fill="#000000" fill-rule="evenodd" fill-opacity="1" /><path clip-path="url(#clip6000)" d="M 0 0 M10802.8 12163.2 L11025.3 12163.2 L11025.3 12205.9 L10849.1 12410.9 L11025.3 12410.9 L11025.3 12448.4 L10796.4 12448.4 L10796.4 12405.6 L10972.6 12200.6 L10802.8 12200.6 L10802.8 12163.2 Z" fill="#000000" fill-rule="evenodd" fill-opacity="1" /><path clip-path="url(#clip6000)" d="M 0 0 M11318.4 12294 L11318.4 12317 L11103 12317 Q11106 12365.3 11132 12390.8 Q11158.2 12416 11204.8 12416 Q11231.8 12416 11257 12409.4 Q11282.5 12402.8 11307.5 12389.5 L11307.5 12433.8 Q11282.2 12444.5 11255.8 12450.1 Q11229.3 12455.7 11202 12455.7 Q11133.8 12455.7 11093.8 12416 Q11054.1 12376.3 11054.1 12308.6 Q11054.1 12238.5 11091.8 12197.5 Q11129.7 12156.3 11193.9 12156.3 Q11251.4 12156.3 11284.8 12193.5 Q11318.4 12230.4 11318.4 12294 M11271.5 12280.3 Q11271 12241.8 11249.9 12218.9 Q11229 12196 11194.4 12196 Q11155.2 12196 11131.5 12218.2 Q11108.1 12240.3 11104.5 12280.6 L11271.5 12280.3 Z" fill="#000000" fill-rule="evenodd" fill-opacity="1" /><path clip-path="url(#clip6000)" d="M 0 0 M549.729 6511 L572.645 6511 L572.645 6726.42 Q621.024 6723.36 646.487 6697.39 Q671.695 6671.17 671.695 6624.57 Q671.695 6597.58 665.075 6572.37 Q658.455 6546.91 645.214 6521.95 L689.519 6521.95 Q700.214 6547.16 705.816 6573.64 Q711.417 6600.12 711.417 6627.37 Q711.417 6695.61 671.695 6735.59 Q631.973 6775.31 564.242 6775.31 Q494.22 6775.31 453.224 6737.62 Q411.975 6699.68 411.975 6635.52 Q411.975 6577.97 449.15 6544.62 Q486.071 6511 549.729 6511 M535.979 6557.86 Q497.53 6558.37 474.613 6579.5 Q451.697 6600.38 451.697 6635.01 Q451.697 6674.22 473.849 6697.9 Q496.002 6721.33 536.233 6724.89 L535.979 6557.86 Z" fill="#000000" fill-rule="evenodd" fill-opacity="1" /><path clip-path="url(#clip6000)" d="M 0 0 M462.646 6296.61 Q458.062 6304.5 456.025 6313.92 Q453.734 6323.09 453.734 6334.29 Q453.734 6374.01 479.706 6395.4 Q505.423 6416.54 553.803 6416.54 L704.033 6416.54 L704.033 6463.64 L418.85 6463.64 L418.85 6416.54 L463.155 6416.54 Q437.183 6401.77 424.706 6378.09 Q411.975 6354.41 411.975 6320.54 Q411.975 6315.7 412.739 6309.85 Q413.248 6303.99 414.521 6296.86 L462.646 6296.61 Z" fill="#000000" fill-rule="evenodd" fill-opacity="1" /><path clip-path="url(#clip6000)" d="M 0 0 M462.646 6091.38 Q458.062 6099.27 456.025 6108.69 Q453.734 6117.86 453.734 6129.06 Q453.734 6168.78 479.706 6190.17 Q505.423 6211.31 553.803 6211.31 L704.033 6211.31 L704.033 6258.41 L418.85 6258.41 L418.85 6211.31 L463.155 6211.31 Q437.183 6196.54 424.706 6172.86 Q411.975 6149.18 411.975 6115.31 Q411.975 6110.47 412.739 6104.62 Q413.248 6098.76 414.521 6091.63 L462.646 6091.38 Z" fill="#000000" fill-rule="evenodd" fill-opacity="1" /><path clip-path="url(#clip6000)" d="M 0 0 M451.697 5943.18 Q451.697 5980.87 481.234 6002.77 Q510.516 6024.66 561.696 6024.66 Q612.876 6024.66 642.413 6003.02 Q671.695 5981.12 671.695 5943.18 Q671.695 5905.75 642.159 5883.85 Q612.622 5861.96 561.696 5861.96 Q511.025 5861.96 481.488 5883.85 Q451.697 5905.75 451.697 5943.18 M411.975 5943.18 Q411.975 5882.07 451.697 5847.19 Q491.419 5812.3 561.696 5812.3 Q631.719 5812.3 671.695 5847.19 Q711.417 5882.07 711.417 5943.18 Q711.417 6004.55 671.695 6039.43 Q631.719 6074.06 561.696 6074.06 Q491.419 6074.06 451.697 6039.43 Q411.975 6004.55 411.975 5943.18 Z" fill="#000000" fill-rule="evenodd" fill-opacity="1" /><path clip-path="url(#clip6000)" d="M 0 0 M462.646 5597.91 Q458.062 5605.8 456.025 5615.22 Q453.734 5624.39 453.734 5635.59 Q453.734 5675.31 479.706 5696.7 Q505.423 5717.84 553.803 5717.84 L704.033 5717.84 L704.033 5764.94 L418.85 5764.94 L418.85 5717.84 L463.155 5717.84 Q437.183 5703.07 424.706 5679.39 Q411.975 5655.71 411.975 5621.84 Q411.975 5617 412.739 5611.15 Q413.248 5605.29 414.521 5598.16 L462.646 5597.91 Z" fill="#000000" fill-rule="evenodd" fill-opacity="1" /><polyline clip-path="url(#clip6002)" style="stroke:#009af9; stroke-width:32; stroke-opacity:1; fill:none" points="
  2597.6,11091.2 2598.56,10978.3 2600.48,10819.1 2604.33,10595.4 2612.02,10282.6 2627.4,9850.02 2658.17,9262.76 2719.7,8490.84 2842.77,7529.77 3088.91,6372.07 
  3581.19,5043.52 4565.74,3665.77 6534.85,2514.01 10473.1,1282.05 18349.5,1314.17 
  "/>
<path clip-path="url(#clip6000)" d="
M15917.9 2623.62 L18246 2623.62 L18246 1655.94 L15917.9 1655.94  Z
  " fill="#ffffff" fill-rule="evenodd" fill-opacity="1"/>
<polyline clip-path="url(#clip6000)" style="stroke:#000000; stroke-width:32; stroke-opacity:1; fill:none" points="
  15917.9,2623.62 18246,2623.62 18246,1655.94 15917.9,1655.94 15917.9,2623.62 
  "/>
<polyline clip-path="url(#clip6000)" style="stroke:#009af9; stroke-width:32; stroke-opacity:1; fill:none" points="
  16109.9,2139.78 17261.9,2139.78 
  "/>
<path clip-path="url(#clip6000)" d="M 0 0 M17564.6 2297.28 Q17550.2 2334.31 17536.5 2345.61 Q17522.8 2356.91 17499.8 2356.91 L17472.6 2356.91 L17472.6 2328.39 L17492.6 2328.39 Q17506.7 2328.39 17514.5 2321.72 Q17522.2 2315.05 17531.7 2290.24 L17537.8 2274.68 L17453.9 2070.61 L17490 2070.61 L17554.8 2232.83 L17619.6 2070.61 L17655.8 2070.61 L17564.6 2297.28 Z" fill="#000000" fill-rule="evenodd" fill-opacity="1" /><path clip-path="url(#clip6000)" d="M 0 0 M17702.8 2246.54 L17763.9 2246.54 L17763.9 2035.61 L17697.4 2048.94 L17697.4 2014.87 L17763.5 2001.54 L17800.9 2001.54 L17800.9 2246.54 L17862 2246.54 L17862 2278.02 L17702.8 2278.02 L17702.8 2246.54 Z" fill="#000000" fill-rule="evenodd" fill-opacity="1" /></svg>
