<?xml version="1.0" encoding="utf-8"?>
<svg xmlns="http://www.w3.org/2000/svg" xmlns:xlink="http://www.w3.org/1999/xlink" width="4800" height="3200" viewBox="0 0 19200 12800">
<defs>
  <clipPath id="clip9200">
    <rect x="0" y="0" width="19200" height="12800"/>
  </clipPath>
</defs>
<path clip-path="url(#clip9200)" d="
M0 12800 L19200 12800 L19200 0 L0 0  Z
  " fill="#ffffff" fill-rule="evenodd" fill-opacity="1"/>
<defs>
  <clipPath id="clip9201">
    <rect x="3840" y="0" width="13441" height="12800"/>
  </clipPath>
</defs>
<path clip-path="url(#clip9200)" d="
M2121.15 11385.4 L18822 11385.4 L18822 987.777 L2121.15 987.777  Z
  " fill="#ffffff" fill-rule="evenodd" fill-opacity="1"/>
<defs>
  <clipPath id="clip9202">
    <rect x="2121" y="987" width="16702" height="10399"/>
  </clipPath>
</defs>
<polyline clip-path="url(#clip9202)" style="stroke:#000000; stroke-width:16; stroke-opacity:0.1; fill:none" points="
  2593.34,11385.4 2593.34,987.777 
  "/>
<polyline clip-path="url(#clip9202)" style="stroke:#000000; stroke-width:16; stroke-opacity:0.1; fill:none" points="
  4997.52,11385.4 4997.52,987.777 
  "/>
<polyline clip-path="url(#clip9202)" style="stroke:#000000; stroke-width:16; stroke-opacity:0.1; fill:none" points="
  7401.7,11385.4 7401.7,987.777 
  "/>
<polyline clip-path="url(#clip9202)" style="stroke:#000000; stroke-width:16; stroke-opacity:0.1; fill:none" points="
  9805.88,11385.4 9805.88,987.777 
  "/>
<polyline clip-path="url(#clip9202)" style="stroke:#000000; stroke-width:16; stroke-opacity:0.1; fill:none" points="
  12210.1,11385.4 12210.1,987.777 
  "/>
<polyline clip-path="url(#clip9202)" style="stroke:#000000; stroke-width:16; stroke-opacity:0.1; fill:none" points="
  14614.2,11385.4 14614.2,987.777 
  "/>
<polyline clip-path="url(#clip9202)" style="stroke:#000000; stroke-width:16; stroke-opacity:0.1; fill:none" points="
  17018.4,11385.4 17018.4,987.777 
  "/>
<polyline clip-path="url(#clip9202)" style="stroke:#000000; stroke-width:16; stroke-opacity:0.1; fill:none" points="
  2121.15,11135.6 18822,11135.6 
  "/>
<polyline clip-path="url(#clip9202)" style="stroke:#000000; stroke-width:16; stroke-opacity:0.1; fill:none" points="
  2121.15,8322.11 18822,8322.11 
  "/>
<polyline clip-path="url(#clip9202)" style="stroke:#000000; stroke-width:16; stroke-opacity:0.1; fill:none" points="
  2121.15,5508.63 18822,5508.63 
  "/>
<polyline clip-path="url(#clip9202)" style="stroke:#000000; stroke-width:16; stroke-opacity:0.1; fill:none" points="
  2121.15,2695.15 18822,2695.15 
  "/>
<polyline clip-path="url(#clip9200)" style="stroke:#000000; stroke-width:32; stroke-opacity:1; fill:none" points="
  2121.15,11385.4 18822,11385.4 
  "/>
<polyline clip-path="url(#clip9200)" style="stroke:#000000; stroke-width:32; stroke-opacity:1; fill:none" points="
  2121.15,11385.4 2121.15,987.777 
  "/>
<polyline clip-path="url(#clip9200)" style="stroke:#000000; stroke-width:32; stroke-opacity:1; fill:none" points="
  2593.34,11385.4 2593.34,11260.7 
  "/>
<polyline clip-path="url(#clip9200)" style="stroke:#000000; stroke-width:32; stroke-opacity:1; fill:none" points="
  4997.52,11385.4 4997.52,11260.7 
  "/>
<polyline clip-path="url(#clip9200)" style="stroke:#000000; stroke-width:32; stroke-opacity:1; fill:none" points="
  7401.7,11385.4 7401.7,11260.7 
  "/>
<polyline clip-path="url(#clip9200)" style="stroke:#000000; stroke-width:32; stroke-opacity:1; fill:none" points="
  9805.88,11385.4 9805.88,11260.7 
  "/>
<polyline clip-path="url(#clip9200)" style="stroke:#000000; stroke-width:32; stroke-opacity:1; fill:none" points="
  12210.1,11385.4 12210.1,11260.7 
  "/>
<polyline clip-path="url(#clip9200)" style="stroke:#000000; stroke-width:32; stroke-opacity:1; fill:none" points="
  14614.2,11385.4 14614.2,11260.7 
  "/>
<polyline clip-path="url(#clip9200)" style="stroke:#000000; stroke-width:32; stroke-opacity:1; fill:none" points="
  17018.4,11385.4 17018.4,11260.7 
  "/>
<polyline clip-path="url(#clip9200)" style="stroke:#000000; stroke-width:32; stroke-opacity:1; fill:none" points="
  2121.15,11135.6 2321.56,11135.6 
  "/>
<polyline clip-path="url(#clip9200)" style="stroke:#000000; stroke-width:32; stroke-opacity:1; fill:none" points="
  2121.15,8322.11 2321.56,8322.11 
  "/>
<polyline clip-path="url(#clip9200)" style="stroke:#000000; stroke-width:32; stroke-opacity:1; fill:none" points="
  2121.15,5508.63 2321.56,5508.63 
  "/>
<polyline clip-path="url(#clip9200)" style="stroke:#000000; stroke-width:32; stroke-opacity:1; fill:none" points="
  2121.15,2695.15 2321.56,2695.15 
  "/>
<path clip-path="url(#clip9200)" d="M 0 0 M2593.34 11561.4 Q2564.45 11561.4 2549.82 11589.9 Q2535.37 11618.2 2535.37 11675.3 Q2535.37 11732.1 2549.82 11760.6 Q2564.45 11789 2593.34 11789 Q2622.41 11789 2636.85 11760.6 Q2651.48 11732.1 2651.48 11675.3 Q2651.48 11618.2 2636.85 11589.9 Q2622.41 11561.4 2593.34 11561.4 M2593.34 11531.7 Q2639.82 11531.7 2664.26 11568.6 Q2688.89 11605.3 2688.89 11675.3 Q2688.89 11745.1 2664.26 11781.9 Q2639.82 11818.6 2593.34 11818.6 Q2546.86 11818.6 2522.23 11781.9 Q2497.78 11745.1 2497.78 11675.3 Q2497.78 11605.3 2522.23 11568.6 Q2546.86 11531.7 2593.34 11531.7 Z" fill="#000000" fill-rule="evenodd" fill-opacity="1" /><path clip-path="url(#clip9200)" d="M 0 0 M4694.09 11954 L4755.2 11954 L4755.2 11743.1 L4688.72 11756.4 L4688.72 11722.3 L4754.83 11709 L4792.24 11709 L4792.24 11954 L4853.35 11954 L4853.35 11985.5 L4694.09 11985.5 L4694.09 11954 Z" fill="#000000" fill-rule="evenodd" fill-opacity="1" /><path clip-path="url(#clip9200)" d="M 0 0 M4892.06 11741.1 L4926.5 11741.1 L4926.5 12022.5 L4892.06 12022.5 L4892.06 11741.1 Z" fill="#000000" fill-rule="evenodd" fill-opacity="1" /><path clip-path="url(#clip9200)" d="M 0 0 M5047.05 11733.6 Q5018.17 11733.6 5003.54 11762.2 Q4989.09 11790.5 4989.09 11847.5 Q4989.09 11904.4 5003.54 11932.9 Q5018.17 11961.2 5047.05 11961.2 Q5076.13 11961.2 5090.57 11932.9 Q5105.2 11904.4 5105.2 11847.5 Q5105.2 11790.5 5090.57 11762.2 Q5076.13 11733.6 5047.05 11733.6 M5047.05 11704 Q5093.54 11704 5117.98 11740.9 Q5142.61 11777.5 5142.61 11847.5 Q5142.61 11917.3 5117.98 11954.2 Q5093.54 11990.9 5047.05 11990.9 Q5000.57 11990.9 4975.94 11954.2 Q4951.5 11917.3 4951.5 11847.5 Q4951.5 11777.5 4975.94 11740.9 Q5000.57 11704 5047.05 11704 Z" fill="#000000" fill-rule="evenodd" fill-opacity="1" /><path clip-path="url(#clip9200)" d="M 0 0 M5244.02 11568.1 L5167.29 11688 L5244.02 11688 L5244.02 11568.1 M5236.05 11541.6 L5274.26 11541.6 L5274.26 11688 L5306.31 11688 L5306.31 11713.3 L5274.26 11713.3 L5274.26 11766.2 L5244.02 11766.2 L5244.02 11713.3 L5142.61 11713.3 L5142.61 11683.9 L5236.05 11541.6 Z" fill="#000000" fill-rule="evenodd" fill-opacity="1" /><path clip-path="url(#clip9200)" d="M 0 0 M7132.44 11954 L7263 11954 L7263 11985.5 L7087.44 11985.5 L7087.44 11954 Q7108.74 11932 7145.4 11894.9 Q7182.26 11857.7 7191.7 11847 Q7209.66 11826.8 7216.7 11812.9 Q7223.92 11798.8 7223.92 11785.3 Q7223.92 11763.3 7208.37 11749.4 Q7193 11735.5 7168.18 11735.5 Q7150.59 11735.5 7130.96 11741.6 Q7111.52 11747.7 7089.29 11760.1 L7089.29 11722.3 Q7111.89 11713.3 7131.52 11708.6 Q7151.15 11704 7167.44 11704 Q7210.4 11704 7235.96 11725.5 Q7261.52 11747 7261.52 11782.9 Q7261.52 11799.9 7255.03 11815.3 Q7248.74 11830.5 7231.89 11851.2 Q7227.26 11856.6 7202.44 11882.3 Q7177.63 11907.9 7132.44 11954 Z" fill="#000000" fill-rule="evenodd" fill-opacity="1" /><path clip-path="url(#clip9200)" d="M 0 0 M7301.7 11741.1 L7336.14 11741.1 L7336.14 12022.5 L7301.7 12022.5 L7301.7 11741.1 Z" fill="#000000" fill-rule="evenodd" fill-opacity="1" /><path clip-path="url(#clip9200)" d="M 0 0 M7456.7 11733.6 Q7427.81 11733.6 7413.18 11762.2 Q7398.74 11790.5 7398.74 11847.5 Q7398.74 11904.4 7413.18 11932.9 Q7427.81 11961.2 7456.7 11961.2 Q7485.77 11961.2 7500.22 11932.9 Q7514.85 11904.4 7514.85 11847.5 Q7514.85 11790.5 7500.22 11762.2 Q7485.77 11733.6 7456.7 11733.6 M7456.7 11704 Q7503.18 11704 7527.62 11740.9 Q7552.25 11777.5 7552.25 11847.5 Q7552.25 11917.3 7527.62 11954.2 Q7503.18 11990.9 7456.7 11990.9 Q7410.22 11990.9 7385.59 11954.2 Q7361.14 11917.3 7361.14 11847.5 Q7361.14 11777.5 7385.59 11740.9 Q7410.22 11704 7456.7 11704 Z" fill="#000000" fill-rule="evenodd" fill-opacity="1" /><path clip-path="url(#clip9200)" d="M 0 0 M7653.67 11568.1 L7576.93 11688 L7653.67 11688 L7653.67 11568.1 M7645.69 11541.6 L7683.91 11541.6 L7683.91 11688 L7715.96 11688 L7715.96 11713.3 L7683.91 11713.3 L7683.91 11766.2 L7653.67 11766.2 L7653.67 11713.3 L7552.25 11713.3 L7552.25 11683.9 L7645.69 11541.6 Z" fill="#000000" fill-rule="evenodd" fill-opacity="1" /><path clip-path="url(#clip9200)" d="M 0 0 M9613.38 11836.4 Q9640.23 11842.2 9655.23 11860.3 Q9670.42 11878.5 9670.42 11905.1 Q9670.42 11946.1 9642.27 11968.5 Q9614.12 11990.9 9562.27 11990.9 Q9544.86 11990.9 9526.35 11987.3 Q9508.01 11984 9488.38 11977.2 L9488.38 11941.1 Q9503.94 11950.1 9522.46 11954.8 Q9540.97 11959.4 9561.16 11959.4 Q9596.35 11959.4 9614.68 11945.5 Q9633.2 11931.6 9633.2 11905.1 Q9633.2 11880.7 9615.97 11867 Q9598.94 11853.1 9568.38 11853.1 L9536.16 11853.1 L9536.16 11822.3 L9569.86 11822.3 Q9597.46 11822.3 9612.09 11811.4 Q9626.72 11800.3 9626.72 11779.6 Q9626.72 11758.3 9611.53 11747 Q9596.53 11735.5 9568.38 11735.5 Q9553.01 11735.5 9535.42 11738.8 Q9517.83 11742.2 9496.72 11749.2 L9496.72 11715.9 Q9518.01 11709.9 9536.53 11707 Q9555.23 11704 9571.72 11704 Q9614.31 11704 9639.12 11723.5 Q9663.94 11742.7 9663.94 11775.7 Q9663.94 11798.6 9650.79 11814.6 Q9637.64 11830.3 9613.38 11836.4 Z" fill="#000000" fill-rule="evenodd" fill-opacity="1" /><path clip-path="url(#clip9200)" d="M 0 0 M9709.12 11741.1 L9743.57 11741.1 L9743.57 12022.5 L9709.12 12022.5 L9709.12 11741.1 Z" fill="#000000" fill-rule="evenodd" fill-opacity="1" /><path clip-path="url(#clip9200)" d="M 0 0 M9864.12 11733.6 Q9835.23 11733.6 9820.6 11762.2 Q9806.16 11790.5 9806.16 11847.5 Q9806.16 11904.4 9820.6 11932.9 Q9835.23 11961.2 9864.12 11961.2 Q9893.2 11961.2 9907.64 11932.9 Q9922.27 11904.4 9922.27 11847.5 Q9922.27 11790.5 9907.64 11762.2 Q9893.2 11733.6 9864.12 11733.6 M9864.12 11704 Q9910.6 11704 9935.05 11740.9 Q9959.68 11777.5 9959.68 11847.5 Q9959.68 11917.3 9935.05 11954.2 Q9910.6 11990.9 9864.12 11990.9 Q9817.64 11990.9 9793.01 11954.2 Q9768.57 11917.3 9768.57 11847.5 Q9768.57 11777.5 9793.01 11740.9 Q9817.64 11704 9864.12 11704 Z" fill="#000000" fill-rule="evenodd" fill-opacity="1" /><path clip-path="url(#clip9200)" d="M 0 0 M10061.1 11568.1 L9984.35 11688 L10061.1 11688 L10061.1 11568.1 M10053.1 11541.6 L10091.3 11541.6 L10091.3 11688 L10123.4 11688 L10123.4 11713.3 L10091.3 11713.3 L10091.3 11766.2 L10061.1 11766.2 L10061.1 11713.3 L9959.68 11713.3 L9959.68 11683.9 L10053.1 11541.6 Z" fill="#000000" fill-rule="evenodd" fill-opacity="1" /><path clip-path="url(#clip9200)" d="M 0 0 M12007.7 11741.6 L11913.2 11889.2 L12007.7 11889.2 L12007.7 11741.6 M11997.8 11709 L12044.9 11709 L12044.9 11889.2 L12084.3 11889.2 L12084.3 11920.3 L12044.9 11920.3 L12044.9 11985.5 L12007.7 11985.5 L12007.7 11920.3 L11882.8 11920.3 L11882.8 11884.2 L11997.8 11709 Z" fill="#000000" fill-rule="evenodd" fill-opacity="1" /><path clip-path="url(#clip9200)" d="M 0 0 M12123 11741.1 L12157.5 11741.1 L12157.5 12022.5 L12123 12022.5 L12123 11741.1 Z" fill="#000000" fill-rule="evenodd" fill-opacity="1" /><path clip-path="url(#clip9200)" d="M 0 0 M12278 11733.6 Q12249.1 11733.6 12234.5 11762.2 Q12220.1 11790.5 12220.1 11847.5 Q12220.1 11904.4 12234.5 11932.9 Q12249.1 11961.2 12278 11961.2 Q12307.1 11961.2 12321.5 11932.9 Q12336.2 11904.4 12336.2 11847.5 Q12336.2 11790.5 12321.5 11762.2 Q12307.1 11733.6 12278 11733.6 M12278 11704 Q12324.5 11704 12349 11740.9 Q12373.6 11777.5 12373.6 11847.5 Q12373.6 11917.3 12349 11954.2 Q12324.5 11990.9 12278 11990.9 Q12231.5 11990.9 12206.9 11954.2 Q12182.5 11917.3 12182.5 11847.5 Q12182.5 11777.5 12206.9 11740.9 Q12231.5 11704 12278 11704 Z" fill="#000000" fill-rule="evenodd" fill-opacity="1" /><path clip-path="url(#clip9200)" d="M 0 0 M12475 11568.1 L12398.3 11688 L12475 11688 L12475 11568.1 M12467 11541.6 L12505.2 11541.6 L12505.2 11688 L12537.3 11688 L12537.3 11713.3 L12505.2 11713.3 L12505.2 11766.2 L12475 11766.2 L12475 11713.3 L12373.6 11713.3 L12373.6 11683.9 L12467 11541.6 Z" fill="#000000" fill-rule="evenodd" fill-opacity="1" /><path clip-path="url(#clip9200)" d="M 0 0 M14310 11709 L14456.8 11709 L14456.8 11740.5 L14344.2 11740.5 L14344.2 11808.3 Q14352.4 11805.5 14360.5 11804.2 Q14368.7 11802.7 14376.8 11802.7 Q14423.1 11802.7 14450.2 11828.1 Q14477.2 11853.5 14477.2 11896.8 Q14477.2 11941.4 14449.4 11966.2 Q14421.7 11990.9 14371.1 11990.9 Q14353.7 11990.9 14335.5 11987.9 Q14317.6 11984.9 14298.3 11979 L14298.3 11941.4 Q14315 11950.5 14332.8 11954.9 Q14350.5 11959.4 14370.4 11959.4 Q14402.4 11959.4 14421.1 11942.5 Q14439.8 11925.7 14439.8 11896.8 Q14439.8 11867.9 14421.1 11851.1 Q14402.4 11834.2 14370.4 11834.2 Q14355.4 11834.2 14340.4 11837.5 Q14325.5 11840.9 14310 11847.9 L14310 11709 Z" fill="#000000" fill-rule="evenodd" fill-opacity="1" /><path clip-path="url(#clip9200)" d="M 0 0 M14515.9 11741.1 L14550.4 11741.1 L14550.4 12022.5 L14515.9 12022.5 L14515.9 11741.1 Z" fill="#000000" fill-rule="evenodd" fill-opacity="1" /><path clip-path="url(#clip9200)" d="M 0 0 M14670.9 11733.6 Q14642 11733.6 14627.4 11762.2 Q14612.9 11790.5 14612.9 11847.5 Q14612.9 11904.4 14627.4 11932.9 Q14642 11961.2 14670.9 11961.2 Q14700 11961.2 14714.4 11932.9 Q14729.1 11904.4 14729.1 11847.5 Q14729.1 11790.5 14714.4 11762.2 Q14700 11733.6 14670.9 11733.6 M14670.9 11704 Q14717.4 11704 14741.8 11740.9 Q14766.5 11777.5 14766.5 11847.5 Q14766.5 11917.3 14741.8 11954.2 Q14717.4 11990.9 14670.9 11990.9 Q14624.4 11990.9 14599.8 11954.2 Q14575.4 11917.3 14575.4 11847.5 Q14575.4 11777.5 14599.8 11740.9 Q14624.4 11704 14670.9 11704 Z" fill="#000000" fill-rule="evenodd" fill-opacity="1" /><path clip-path="url(#clip9200)" d="M 0 0 M14867.9 11568.1 L14791.1 11688 L14867.9 11688 L14867.9 11568.1 M14859.9 11541.6 L14898.1 11541.6 L14898.1 11688 L14930.2 11688 L14930.2 11713.3 L14898.1 11713.3 L14898.1 11766.2 L14867.9 11766.2 L14867.9 11713.3 L14766.5 11713.3 L14766.5 11683.9 L14859.9 11541.6 Z" fill="#000000" fill-rule="evenodd" fill-opacity="1" /><path clip-path="url(#clip9200)" d="M 0 0 M16795.2 11832.3 Q16770 11832.3 16755.2 11849.6 Q16740.6 11866.8 16740.6 11896.8 Q16740.6 11926.6 16755.2 11944 Q16770 11961.2 16795.2 11961.2 Q16820.4 11961.2 16835 11944 Q16849.8 11926.6 16849.8 11896.8 Q16849.8 11866.8 16835 11849.6 Q16820.4 11832.3 16795.2 11832.3 M16869.4 11715.1 L16869.4 11749.2 Q16855.4 11742.5 16840.9 11739 Q16826.7 11735.5 16812.6 11735.5 Q16775.6 11735.5 16755.9 11760.5 Q16736.5 11785.5 16733.7 11836.1 Q16744.6 11819.9 16761.1 11811.4 Q16777.6 11802.7 16797.4 11802.7 Q16839.1 11802.7 16863.1 11828.1 Q16887.4 11853.3 16887.4 11896.8 Q16887.4 11939.4 16862.2 11965.1 Q16837 11990.9 16795.2 11990.9 Q16747.2 11990.9 16721.9 11954.2 Q16696.5 11917.3 16696.5 11847.5 Q16696.5 11782 16727.6 11743.1 Q16758.7 11704 16811.1 11704 Q16825.2 11704 16839.4 11706.8 Q16853.9 11709.6 16869.4 11715.1 Z" fill="#000000" fill-rule="evenodd" fill-opacity="1" /><path clip-path="url(#clip9200)" d="M 0 0 M16926.1 11741.1 L16960.6 11741.1 L16960.6 12022.5 L16926.1 12022.5 L16926.1 11741.1 Z" fill="#000000" fill-rule="evenodd" fill-opacity="1" /><path clip-path="url(#clip9200)" d="M 0 0 M17081.1 11733.6 Q17052.2 11733.6 17037.6 11762.2 Q17023.1 11790.5 17023.1 11847.5 Q17023.1 11904.4 17037.6 11932.9 Q17052.2 11961.2 17081.1 11961.2 Q17110.2 11961.2 17124.6 11932.9 Q17139.3 11904.4 17139.3 11847.5 Q17139.3 11790.5 17124.6 11762.2 Q17110.2 11733.6 17081.1 11733.6 M17081.1 11704 Q17127.6 11704 17152 11740.9 Q17176.7 11777.5 17176.7 11847.5 Q17176.7 11917.3 17152 11954.2 Q17127.6 11990.9 17081.1 11990.9 Q17034.6 11990.9 17010 11954.2 Q16985.6 11917.3 16985.6 11847.5 Q16985.6 11777.5 17010 11740.9 Q17034.6 11704 17081.1 11704 Z" fill="#000000" fill-rule="evenodd" fill-opacity="1" /><path clip-path="url(#clip9200)" d="M 0 0 M17278.1 11568.1 L17201.3 11688 L17278.1 11688 L17278.1 11568.1 M17270.1 11541.6 L17308.3 11541.6 L17308.3 11688 L17340.4 11688 L17340.4 11713.3 L17308.3 11713.3 L17308.3 11766.2 L17278.1 11766.2 L17278.1 11713.3 L17176.7 11713.3 L17176.7 11683.9 L17270.1 11541.6 Z" fill="#000000" fill-rule="evenodd" fill-opacity="1" /><path clip-path="url(#clip9200)" d="M 0 0 M1105.64 11022 Q1076.75 11022 1062.12 11050.5 Q1047.67 11078.8 1047.67 11135.9 Q1047.67 11192.7 1062.12 11221.2 Q1076.75 11249.6 1105.64 11249.6 Q1134.71 11249.6 1149.15 11221.2 Q1163.78 11192.7 1163.78 11135.9 Q1163.78 11078.8 1149.15 11050.5 Q1134.71 11022 1105.64 11022 M1105.64 10992.4 Q1152.12 10992.4 1176.56 11029.2 Q1201.19 11065.9 1201.19 11135.9 Q1201.19 11205.7 1176.56 11242.5 Q1152.12 11279.2 1105.64 11279.2 Q1059.16 11279.2 1034.53 11242.5 Q1010.08 11205.7 1010.08 11135.9 Q1010.08 11065.9 1034.53 11029.2 Q1059.16 10992.4 1105.64 10992.4 Z" fill="#000000" fill-rule="evenodd" fill-opacity="1" /><path clip-path="url(#clip9200)" d="M 0 0 M1241.75 11226.8 L1280.82 11226.8 L1280.82 11273.8 L1241.75 11273.8 L1241.75 11226.8 Z" fill="#000000" fill-rule="evenodd" fill-opacity="1" /><path clip-path="url(#clip9200)" d="M 0 0 M1401.38 11022 Q1372.49 11022 1357.86 11050.5 Q1343.41 11078.8 1343.41 11135.9 Q1343.41 11192.7 1357.86 11221.2 Q1372.49 11249.6 1401.38 11249.6 Q1430.45 11249.6 1444.89 11221.2 Q1459.52 11192.7 1459.52 11135.9 Q1459.52 11078.8 1444.89 11050.5 Q1430.45 11022 1401.38 11022 M1401.38 10992.4 Q1447.86 10992.4 1472.3 11029.2 Q1496.93 11065.9 1496.93 11135.9 Q1496.93 11205.7 1472.3 11242.5 Q1447.86 11279.2 1401.38 11279.2 Q1354.89 11279.2 1330.26 11242.5 Q1305.82 11205.7 1305.82 11135.9 Q1305.82 11065.9 1330.26 11029.2 Q1354.89 10992.4 1401.38 10992.4 Z" fill="#000000" fill-rule="evenodd" fill-opacity="1" /><path clip-path="url(#clip9200)" d="M 0 0 M1617.49 11022 Q1588.6 11022 1573.97 11050.5 Q1559.52 11078.8 1559.52 11135.9 Q1559.52 11192.7 1573.97 11221.2 Q1588.6 11249.6 1617.49 11249.6 Q1646.56 11249.6 1661 11221.2 Q1675.63 11192.7 1675.63 11135.9 Q1675.63 11078.8 1661 11050.5 Q1646.56 11022 1617.49 11022 M1617.49 10992.4 Q1663.97 10992.4 1688.41 11029.2 Q1713.04 11065.9 1713.04 11135.9 Q1713.04 11205.7 1688.41 11242.5 Q1663.97 11279.2 1617.49 11279.2 Q1571 11279.2 1546.37 11242.5 Q1521.93 11205.7 1521.93 11135.9 Q1521.93 11065.9 1546.37 11029.2 Q1571 10992.4 1617.49 10992.4 Z" fill="#000000" fill-rule="evenodd" fill-opacity="1" /><path clip-path="url(#clip9200)" d="M 0 0 M1833.6 11022 Q1804.71 11022 1790.08 11050.5 Q1775.63 11078.8 1775.63 11135.9 Q1775.63 11192.7 1790.08 11221.2 Q1804.71 11249.6 1833.6 11249.6 Q1862.67 11249.6 1877.11 11221.2 Q1891.74 11192.7 1891.74 11135.9 Q1891.74 11078.8 1877.11 11050.5 Q1862.67 11022 1833.6 11022 M1833.6 10992.4 Q1880.08 10992.4 1904.52 11029.2 Q1929.15 11065.9 1929.15 11135.9 Q1929.15 11205.7 1904.52 11242.5 Q1880.08 11279.2 1833.6 11279.2 Q1787.11 11279.2 1762.48 11242.5 Q1738.04 11205.7 1738.04 11135.9 Q1738.04 11065.9 1762.48 11029.2 Q1787.11 10992.4 1833.6 10992.4 Z" fill="#000000" fill-rule="evenodd" fill-opacity="1" /><path clip-path="url(#clip9200)" d="M 0 0 M1113.6 8208.5 Q1084.71 8208.5 1070.08 8237.02 Q1055.64 8265.35 1055.64 8322.39 Q1055.64 8379.24 1070.08 8407.76 Q1084.71 8436.09 1113.6 8436.09 Q1142.67 8436.09 1157.12 8407.76 Q1171.75 8379.24 1171.75 8322.39 Q1171.75 8265.35 1157.12 8237.02 Q1142.67 8208.5 1113.6 8208.5 M1113.6 8178.87 Q1160.08 8178.87 1184.52 8215.72 Q1209.15 8252.39 1209.15 8322.39 Q1209.15 8392.2 1184.52 8429.06 Q1160.08 8465.72 1113.6 8465.72 Q1067.12 8465.72 1042.49 8429.06 Q1018.04 8392.2 1018.04 8322.39 Q1018.04 8252.39 1042.49 8215.72 Q1067.12 8178.87 1113.6 8178.87 Z" fill="#000000" fill-rule="evenodd" fill-opacity="1" /><path clip-path="url(#clip9200)" d="M 0 0 M1249.71 8413.32 L1288.78 8413.32 L1288.78 8460.35 L1249.71 8460.35 L1249.71 8413.32 Z" fill="#000000" fill-rule="evenodd" fill-opacity="1" /><path clip-path="url(#clip9200)" d="M 0 0 M1409.34 8208.5 Q1380.45 8208.5 1365.82 8237.02 Q1351.38 8265.35 1351.38 8322.39 Q1351.38 8379.24 1365.82 8407.76 Q1380.45 8436.09 1409.34 8436.09 Q1438.41 8436.09 1452.86 8407.76 Q1467.49 8379.24 1467.49 8322.39 Q1467.49 8265.35 1452.86 8237.02 Q1438.41 8208.5 1409.34 8208.5 M1409.34 8178.87 Q1455.82 8178.87 1480.26 8215.72 Q1504.89 8252.39 1504.89 8322.39 Q1504.89 8392.2 1480.26 8429.06 Q1455.82 8465.72 1409.34 8465.72 Q1362.86 8465.72 1338.23 8429.06 Q1313.78 8392.2 1313.78 8322.39 Q1313.78 8252.39 1338.23 8215.72 Q1362.86 8178.87 1409.34 8178.87 Z" fill="#000000" fill-rule="evenodd" fill-opacity="1" /><path clip-path="url(#clip9200)" d="M 0 0 M1625.45 8208.5 Q1596.56 8208.5 1581.93 8237.02 Q1567.49 8265.35 1567.49 8322.39 Q1567.49 8379.24 1581.93 8407.76 Q1596.56 8436.09 1625.45 8436.09 Q1654.52 8436.09 1668.97 8407.76 Q1683.6 8379.24 1683.6 8322.39 Q1683.6 8265.35 1668.97 8237.02 Q1654.52 8208.5 1625.45 8208.5 M1625.45 8178.87 Q1671.93 8178.87 1696.37 8215.72 Q1721 8252.39 1721 8322.39 Q1721 8392.2 1696.37 8429.06 Q1671.93 8465.72 1625.45 8465.72 Q1578.97 8465.72 1554.34 8429.06 Q1529.89 8392.2 1529.89 8322.39 Q1529.89 8252.39 1554.34 8215.72 Q1578.97 8178.87 1625.45 8178.87 Z" fill="#000000" fill-rule="evenodd" fill-opacity="1" /><path clip-path="url(#clip9200)" d="M 0 0 M1761.93 8183.87 L1908.78 8183.87 L1908.78 8215.35 L1796.19 8215.35 L1796.19 8283.13 Q1804.34 8280.35 1812.48 8279.06 Q1820.63 8277.58 1828.78 8277.58 Q1875.08 8277.58 1902.11 8302.95 Q1929.15 8328.32 1929.15 8371.65 Q1929.15 8416.28 1901.37 8441.09 Q1873.6 8465.72 1823.04 8465.72 Q1805.63 8465.72 1787.48 8462.76 Q1769.52 8459.8 1750.26 8453.87 L1750.26 8416.28 Q1766.93 8425.35 1784.71 8429.8 Q1802.48 8434.24 1822.3 8434.24 Q1854.34 8434.24 1873.04 8417.39 Q1891.74 8400.54 1891.74 8371.65 Q1891.74 8342.76 1873.04 8325.91 Q1854.34 8309.06 1822.3 8309.06 Q1807.3 8309.06 1792.3 8312.39 Q1777.48 8315.72 1761.93 8322.76 L1761.93 8183.87 Z" fill="#000000" fill-rule="evenodd" fill-opacity="1" /><path clip-path="url(#clip9200)" d="M 0 0 M1115.45 5395.02 Q1086.56 5395.02 1071.93 5423.54 Q1057.49 5451.87 1057.49 5508.91 Q1057.49 5565.76 1071.93 5594.28 Q1086.56 5622.61 1115.45 5622.61 Q1144.52 5622.61 1158.97 5594.28 Q1173.6 5565.76 1173.6 5508.91 Q1173.6 5451.87 1158.97 5423.54 Q1144.52 5395.02 1115.45 5395.02 M1115.45 5365.39 Q1161.93 5365.39 1186.38 5402.24 Q1211.01 5438.91 1211.01 5508.91 Q1211.01 5578.72 1186.38 5615.58 Q1161.93 5652.24 1115.45 5652.24 Q1068.97 5652.24 1044.34 5615.58 Q1019.9 5578.72 1019.9 5508.91 Q1019.9 5438.91 1044.34 5402.24 Q1068.97 5365.39 1115.45 5365.39 Z" fill="#000000" fill-rule="evenodd" fill-opacity="1" /><path clip-path="url(#clip9200)" d="M 0 0 M1251.56 5599.84 L1290.64 5599.84 L1290.64 5646.87 L1251.56 5646.87 L1251.56 5599.84 Z" fill="#000000" fill-rule="evenodd" fill-opacity="1" /><path clip-path="url(#clip9200)" d="M 0 0 M1411.19 5395.02 Q1382.3 5395.02 1367.67 5423.54 Q1353.23 5451.87 1353.23 5508.91 Q1353.23 5565.76 1367.67 5594.28 Q1382.3 5622.61 1411.19 5622.61 Q1440.26 5622.61 1454.71 5594.28 Q1469.34 5565.76 1469.34 5508.91 Q1469.34 5451.87 1454.71 5423.54 Q1440.26 5395.02 1411.19 5395.02 M1411.19 5365.39 Q1457.67 5365.39 1482.12 5402.24 Q1506.75 5438.91 1506.75 5508.91 Q1506.75 5578.72 1482.12 5615.58 Q1457.67 5652.24 1411.19 5652.24 Q1364.71 5652.24 1340.08 5615.58 Q1315.64 5578.72 1315.64 5508.91 Q1315.64 5438.91 1340.08 5402.24 Q1364.71 5365.39 1411.19 5365.39 Z" fill="#000000" fill-rule="evenodd" fill-opacity="1" /><path clip-path="url(#clip9200)" d="M 0 0 M1553.78 5615.39 L1614.89 5615.39 L1614.89 5404.47 L1548.41 5417.8 L1548.41 5383.73 L1614.52 5370.39 L1651.93 5370.39 L1651.93 5615.39 L1713.04 5615.39 L1713.04 5646.87 L1553.78 5646.87 L1553.78 5615.39 Z" fill="#000000" fill-rule="evenodd" fill-opacity="1" /><path clip-path="url(#clip9200)" d="M 0 0 M1833.6 5395.02 Q1804.71 5395.02 1790.08 5423.54 Q1775.63 5451.87 1775.63 5508.91 Q1775.63 5565.76 1790.08 5594.28 Q1804.71 5622.61 1833.6 5622.61 Q1862.67 5622.61 1877.11 5594.28 Q1891.74 5565.76 1891.74 5508.91 Q1891.74 5451.87 1877.11 5423.54 Q1862.67 5395.02 1833.6 5395.02 M1833.6 5365.39 Q1880.08 5365.39 1904.52 5402.24 Q1929.15 5438.91 1929.15 5508.91 Q1929.15 5578.72 1904.52 5615.58 Q1880.08 5652.24 1833.6 5652.24 Q1787.11 5652.24 1762.48 5615.58 Q1738.04 5578.72 1738.04 5508.91 Q1738.04 5438.91 1762.48 5402.24 Q1787.11 5365.39 1833.6 5365.39 Z" fill="#000000" fill-rule="evenodd" fill-opacity="1" /><path clip-path="url(#clip9200)" d="M 0 0 M1123.41 2581.54 Q1094.53 2581.54 1079.9 2610.06 Q1065.45 2638.39 1065.45 2695.43 Q1065.45 2752.28 1079.9 2780.8 Q1094.53 2809.13 1123.41 2809.13 Q1152.49 2809.13 1166.93 2780.8 Q1181.56 2752.28 1181.56 2695.43 Q1181.56 2638.39 1166.93 2610.06 Q1152.49 2581.54 1123.41 2581.54 M1123.41 2551.91 Q1169.9 2551.91 1194.34 2588.76 Q1218.97 2625.43 1218.97 2695.43 Q1218.97 2765.24 1194.34 2802.1 Q1169.9 2838.76 1123.41 2838.76 Q1076.93 2838.76 1052.3 2802.1 Q1027.86 2765.24 1027.86 2695.43 Q1027.86 2625.43 1052.3 2588.76 Q1076.93 2551.91 1123.41 2551.91 Z" fill="#000000" fill-rule="evenodd" fill-opacity="1" /><path clip-path="url(#clip9200)" d="M 0 0 M1259.52 2786.36 L1298.6 2786.36 L1298.6 2833.39 L1259.52 2833.39 L1259.52 2786.36 Z" fill="#000000" fill-rule="evenodd" fill-opacity="1" /><path clip-path="url(#clip9200)" d="M 0 0 M1419.15 2581.54 Q1390.26 2581.54 1375.63 2610.06 Q1361.19 2638.39 1361.19 2695.43 Q1361.19 2752.28 1375.63 2780.8 Q1390.26 2809.13 1419.15 2809.13 Q1448.23 2809.13 1462.67 2780.8 Q1477.3 2752.28 1477.3 2695.43 Q1477.3 2638.39 1462.67 2610.06 Q1448.23 2581.54 1419.15 2581.54 M1419.15 2551.91 Q1465.63 2551.91 1490.08 2588.76 Q1514.71 2625.43 1514.71 2695.43 Q1514.71 2765.24 1490.08 2802.1 Q1465.63 2838.76 1419.15 2838.76 Q1372.67 2838.76 1348.04 2802.1 Q1323.6 2765.24 1323.6 2695.43 Q1323.6 2625.43 1348.04 2588.76 Q1372.67 2551.91 1419.15 2551.91 Z" fill="#000000" fill-rule="evenodd" fill-opacity="1" /><path clip-path="url(#clip9200)" d="M 0 0 M1561.74 2801.91 L1622.86 2801.91 L1622.86 2590.99 L1556.37 2604.32 L1556.37 2570.25 L1622.49 2556.91 L1659.89 2556.91 L1659.89 2801.91 L1721 2801.91 L1721 2833.39 L1561.74 2833.39 L1561.74 2801.91 Z" fill="#000000" fill-rule="evenodd" fill-opacity="1" /><path clip-path="url(#clip9200)" d="M 0 0 M1761.93 2556.91 L1908.78 2556.91 L1908.78 2588.39 L1796.19 2588.39 L1796.19 2656.17 Q1804.34 2653.39 1812.48 2652.1 Q1820.63 2650.62 1828.78 2650.62 Q1875.08 2650.62 1902.11 2675.99 Q1929.15 2701.36 1929.15 2744.69 Q1929.15 2789.32 1901.37 2814.13 Q1873.6 2838.76 1823.04 2838.76 Q1805.63 2838.76 1787.48 2835.8 Q1769.52 2832.84 1750.26 2826.91 L1750.26 2789.32 Q1766.93 2798.39 1784.71 2802.84 Q1802.48 2807.28 1822.3 2807.28 Q1854.34 2807.28 1873.04 2790.43 Q1891.74 2773.58 1891.74 2744.69 Q1891.74 2715.8 1873.04 2698.95 Q1854.34 2682.1 1822.3 2682.1 Q1807.3 2682.1 1792.3 2685.43 Q1777.48 2688.76 1761.93 2695.8 L1761.93 2556.91 Z" fill="#000000" fill-rule="evenodd" fill-opacity="1" /><path clip-path="url(#clip9200)" d="M 0 0 M2564.56 384.22 L2564.56 413.387 L2290.39 413.387 Q2294.28 474.96 2327.34 507.368 Q2360.72 539.451 2420.02 539.451 Q2454.37 539.451 2486.46 531.025 Q2518.86 522.599 2550.62 505.747 L2550.62 562.136 Q2518.54 575.747 2484.84 582.877 Q2451.13 590.006 2416.46 590.006 Q2329.61 590.006 2278.73 539.451 Q2228.17 488.896 2228.17 402.692 Q2228.17 313.572 2276.13 261.397 Q2324.42 208.897 2406.09 208.897 Q2479.33 208.897 2521.78 256.212 Q2564.56 303.202 2564.56 384.22 M2504.93 366.72 Q2504.28 317.785 2477.38 288.619 Q2450.81 259.452 2406.73 259.452 Q2356.83 259.452 2326.69 287.647 Q2296.87 315.841 2292.34 367.044 L2504.93 366.72 Z" fill="#000000" fill-rule="evenodd" fill-opacity="1" /><path clip-path="url(#clip9200)" d="M 0 0 M2837.43 273.387 Q2827.38 267.554 2815.39 264.962 Q2803.72 262.045 2789.46 262.045 Q2738.91 262.045 2711.69 295.1 Q2684.79 327.832 2684.79 389.405 L2684.79 580.608 L2624.84 580.608 L2624.84 217.647 L2684.79 217.647 L2684.79 274.036 Q2703.58 240.98 2733.72 225.101 Q2763.86 208.897 2806.96 208.897 Q2813.12 208.897 2820.58 209.869 Q2828.03 210.517 2837.1 212.138 L2837.43 273.387 Z" fill="#000000" fill-rule="evenodd" fill-opacity="1" /><path clip-path="url(#clip9200)" d="M 0 0 M3098.63 273.387 Q3088.58 267.554 3076.59 264.962 Q3064.93 262.045 3050.67 262.045 Q3000.11 262.045 2972.89 295.1 Q2945.99 327.832 2945.99 389.405 L2945.99 580.608 L2886.04 580.608 L2886.04 217.647 L2945.99 217.647 L2945.99 274.036 Q2964.79 240.98 2994.93 225.101 Q3025.06 208.897 3068.17 208.897 Q3074.32 208.897 3081.78 209.869 Q3089.23 210.517 3098.31 212.138 L3098.63 273.387 Z" fill="#000000" fill-rule="evenodd" fill-opacity="1" /><path clip-path="url(#clip9200)" d="M 0 0 M3287.24 259.452 Q3239.28 259.452 3211.41 297.045 Q3183.54 334.313 3183.54 399.452 Q3183.54 464.59 3211.08 502.182 Q3238.95 539.451 3287.24 539.451 Q3334.88 539.451 3362.75 501.858 Q3390.62 464.266 3390.62 399.452 Q3390.62 334.961 3362.75 297.369 Q3334.88 259.452 3287.24 259.452 M3287.24 208.897 Q3365.02 208.897 3409.41 259.452 Q3453.81 310.008 3453.81 399.452 Q3453.81 488.571 3409.41 539.451 Q3365.02 590.006 3287.24 590.006 Q3209.14 590.006 3164.74 539.451 Q3120.67 488.571 3120.67 399.452 Q3120.67 310.008 3164.74 259.452 Q3209.14 208.897 3287.24 208.897 Z" fill="#000000" fill-rule="evenodd" fill-opacity="1" /><path clip-path="url(#clip9200)" d="M 0 0 M3726.68 273.387 Q3716.64 267.554 3704.64 264.962 Q3692.98 262.045 3678.72 262.045 Q3628.16 262.045 3600.94 295.1 Q3574.04 327.832 3574.04 389.405 L3574.04 580.608 L3514.09 580.608 L3514.09 217.647 L3574.04 217.647 L3574.04 274.036 Q3592.84 240.98 3622.98 225.101 Q3653.12 208.897 3696.22 208.897 Q3702.38 208.897 3709.83 209.869 Q3717.28 210.517 3726.36 212.138 L3726.68 273.387 Z" fill="#000000" fill-rule="evenodd" fill-opacity="1" /><path clip-path="url(#clip9200)" d="M 0 0 M3965.52 217.647 L4025.15 217.647 L4099.69 500.886 L4173.9 217.647 L4244.22 217.647 L4318.76 500.886 L4392.97 217.647 L4452.6 217.647 L4357.65 580.608 L4287.33 580.608 L4209.22 283.11 L4130.8 580.608 L4060.48 580.608 L3965.52 217.647 Z" fill="#000000" fill-rule="evenodd" fill-opacity="1" /><path clip-path="url(#clip9200)" d="M 0 0 M4515.15 217.647 L4574.78 217.647 L4574.78 580.608 L4515.15 580.608 L4515.15 217.647 M4515.15 76.3514 L4574.78 76.3514 L4574.78 151.86 L4515.15 151.86 L4515.15 76.3514 Z" fill="#000000" fill-rule="evenodd" fill-opacity="1" /><path clip-path="url(#clip9200)" d="M 0 0 M4696.31 114.592 L4696.31 217.647 L4819.13 217.647 L4819.13 263.989 L4696.31 263.989 L4696.31 461.025 Q4696.31 505.423 4708.3 518.062 Q4720.61 530.701 4757.88 530.701 L4819.13 530.701 L4819.13 580.608 L4757.88 580.608 Q4688.85 580.608 4662.6 555.006 Q4636.35 529.08 4636.35 461.025 L4636.35 263.989 L4592.6 263.989 L4592.6 217.647 L4636.35 217.647 L4636.35 114.592 L4696.31 114.592 Z" fill="#000000" fill-rule="evenodd" fill-opacity="1" /><path clip-path="url(#clip9200)" d="M 0 0 M5183.39 361.535 L5183.39 580.608 L5123.76 580.608 L5123.76 363.48 Q5123.76 311.952 5103.66 286.35 Q5083.57 260.749 5043.39 260.749 Q4995.1 260.749 4967.23 291.535 Q4939.36 322.322 4939.36 375.47 L4939.36 580.608 L4879.41 580.608 L4879.41 76.3514 L4939.36 76.3514 L4939.36 274.036 Q4960.75 241.304 4989.59 225.101 Q5018.76 208.897 5056.67 208.897 Q5119.22 208.897 5151.3 247.786 Q5183.39 286.35 5183.39 361.535 Z" fill="#000000" fill-rule="evenodd" fill-opacity="1" /><path clip-path="url(#clip9200)" d="M 0 0 M5695.74 272.739 L5695.74 76.3514 L5755.37 76.3514 L5755.37 580.608 L5695.74 580.608 L5695.74 526.164 Q5676.95 558.571 5648.11 574.451 Q5619.59 590.006 5579.4 590.006 Q5513.62 590.006 5472.13 537.506 Q5430.98 485.007 5430.98 399.452 Q5430.98 313.896 5472.13 261.397 Q5513.62 208.897 5579.4 208.897 Q5619.59 208.897 5648.11 224.777 Q5676.95 240.332 5695.74 272.739 M5492.55 399.452 Q5492.55 465.238 5519.45 502.831 Q5546.67 540.099 5593.99 540.099 Q5641.3 540.099 5668.52 502.831 Q5695.74 465.238 5695.74 399.452 Q5695.74 333.665 5668.52 296.397 Q5641.3 258.804 5593.99 258.804 Q5546.67 258.804 5519.45 296.397 Q5492.55 333.665 5492.55 399.452 Z" fill="#000000" fill-rule="evenodd" fill-opacity="1" /><path clip-path="url(#clip9200)" d="M 0 0 M5817.92 217.647 L5877.55 217.647 L5877.55 580.608 L5817.92 580.608 L5817.92 217.647 M5817.92 76.3514 L5877.55 76.3514 L5877.55 151.86 L5817.92 151.86 L5817.92 76.3514 Z" fill="#000000" fill-rule="evenodd" fill-opacity="1" /><path clip-path="url(#clip9200)" d="M 0 0 M6123.84 76.3514 L6123.84 125.935 L6066.81 125.935 Q6034.72 125.935 6022.09 138.897 Q6009.77 151.86 6009.77 185.564 L6009.77 217.647 L6107.96 217.647 L6107.96 263.989 L6009.77 263.989 L6009.77 580.608 L5949.82 580.608 L5949.82 263.989 L5892.78 263.989 L5892.78 217.647 L5949.82 217.647 L5949.82 192.369 Q5949.82 131.768 5978.01 104.222 Q6006.21 76.3514 6067.46 76.3514 L6123.84 76.3514 Z" fill="#000000" fill-rule="evenodd" fill-opacity="1" /><path clip-path="url(#clip9200)" d="M 0 0 M6370.14 76.3514 L6370.14 125.935 L6313.1 125.935 Q6281.02 125.935 6268.38 138.897 Q6256.07 151.86 6256.07 185.564 L6256.07 217.647 L6354.26 217.647 L6354.26 263.989 L6256.07 263.989 L6256.07 580.608 L6196.11 580.608 L6196.11 263.989 L6139.08 263.989 L6139.08 217.647 L6196.11 217.647 L6196.11 192.369 Q6196.11 131.768 6224.31 104.222 Q6252.5 76.3514 6313.75 76.3514 L6370.14 76.3514 Z" fill="#000000" fill-rule="evenodd" fill-opacity="1" /><path clip-path="url(#clip9200)" d="M 0 0 M6743.15 384.22 L6743.15 413.387 L6468.98 413.387 Q6472.87 474.96 6505.93 507.368 Q6539.31 539.451 6598.61 539.451 Q6632.96 539.451 6665.05 531.025 Q6697.45 522.599 6729.21 505.747 L6729.21 562.136 Q6697.13 575.747 6663.42 582.877 Q6629.72 590.006 6595.05 590.006 Q6508.19 590.006 6457.31 539.451 Q6406.76 488.896 6406.76 402.692 Q6406.76 313.572 6454.72 261.397 Q6503.01 208.897 6584.68 208.897 Q6657.92 208.897 6700.37 256.212 Q6743.15 303.202 6743.15 384.22 M6683.52 366.72 Q6682.87 317.785 6655.97 288.619 Q6629.4 259.452 6585.32 259.452 Q6535.42 259.452 6505.28 287.647 Q6475.46 315.841 6470.93 367.044 L6683.52 366.72 Z" fill="#000000" fill-rule="evenodd" fill-opacity="1" /><path clip-path="url(#clip9200)" d="M 0 0 M7016.02 273.387 Q7005.97 267.554 6993.98 264.962 Q6982.31 262.045 6968.05 262.045 Q6917.5 262.045 6890.28 295.1 Q6863.38 327.832 6863.38 389.405 L6863.38 580.608 L6803.42 580.608 L6803.42 217.647 L6863.38 217.647 L6863.38 274.036 Q6882.17 240.98 6912.31 225.101 Q6942.45 208.897 6985.55 208.897 Q6991.71 208.897 6999.16 209.869 Q7006.62 210.517 7015.69 212.138 L7016.02 273.387 Z" fill="#000000" fill-rule="evenodd" fill-opacity="1" /><path clip-path="url(#clip9200)" d="M 0 0 M7374.44 384.22 L7374.44 413.387 L7100.27 413.387 Q7104.16 474.96 7137.22 507.368 Q7170.6 539.451 7229.9 539.451 Q7264.25 539.451 7296.34 531.025 Q7328.75 522.599 7360.5 505.747 L7360.5 562.136 Q7328.42 575.747 7294.72 582.877 Q7261.01 590.006 7226.34 590.006 Q7139.49 590.006 7088.61 539.451 Q7038.05 488.896 7038.05 402.692 Q7038.05 313.572 7086.02 261.397 Q7134.3 208.897 7215.97 208.897 Q7289.21 208.897 7331.66 256.212 Q7374.44 303.202 7374.44 384.22 M7314.81 366.72 Q7314.16 317.785 7287.26 288.619 Q7260.69 259.452 7216.62 259.452 Q7166.71 259.452 7136.57 287.647 Q7106.76 315.841 7102.22 367.044 L7314.81 366.72 Z" fill="#000000" fill-rule="evenodd" fill-opacity="1" /><path clip-path="url(#clip9200)" d="M 0 0 M7738.7 361.535 L7738.7 580.608 L7679.07 580.608 L7679.07 363.48 Q7679.07 311.952 7658.98 286.35 Q7638.88 260.749 7598.7 260.749 Q7550.41 260.749 7522.54 291.535 Q7494.67 322.322 7494.67 375.47 L7494.67 580.608 L7434.72 580.608 L7434.72 217.647 L7494.67 217.647 L7494.67 274.036 Q7516.06 241.304 7544.9 225.101 Q7574.07 208.897 7611.98 208.897 Q7674.53 208.897 7706.61 247.786 Q7738.7 286.35 7738.7 361.535 Z" fill="#000000" fill-rule="evenodd" fill-opacity="1" /><path clip-path="url(#clip9200)" d="M 0 0 M7860.22 114.592 L7860.22 217.647 L7983.05 217.647 L7983.05 263.989 L7860.22 263.989 L7860.22 461.025 Q7860.22 505.423 7872.21 518.062 Q7884.53 530.701 7921.8 530.701 L7983.05 530.701 L7983.05 580.608 L7921.8 580.608 Q7852.77 580.608 7826.52 555.006 Q7800.27 529.08 7800.27 461.025 L7800.27 263.989 L7756.52 263.989 L7756.52 217.647 L7800.27 217.647 L7800.27 114.592 L7860.22 114.592 Z" fill="#000000" fill-rule="evenodd" fill-opacity="1" /><path clip-path="url(#clip9200)" d="M 0 0 M8517.12 399.452 Q8517.12 333.665 8489.9 296.397 Q8463 258.804 8415.68 258.804 Q8368.37 258.804 8341.15 296.397 Q8314.25 333.665 8314.25 399.452 Q8314.25 465.238 8341.15 502.831 Q8368.37 540.099 8415.68 540.099 Q8463 540.099 8489.9 502.831 Q8517.12 465.238 8517.12 399.452 M8314.25 272.739 Q8333.05 240.332 8361.56 224.777 Q8390.41 208.897 8430.27 208.897 Q8496.38 208.897 8537.54 261.397 Q8579.02 313.896 8579.02 399.452 Q8579.02 485.007 8537.54 537.506 Q8496.38 590.006 8430.27 590.006 Q8390.41 590.006 8361.56 574.451 Q8333.05 558.571 8314.25 526.164 L8314.25 580.608 L8254.3 580.608 L8254.3 76.3514 L8314.25 76.3514 L8314.25 272.739 Z" fill="#000000" fill-rule="evenodd" fill-opacity="1" /><path clip-path="url(#clip9200)" d="M 0 0 M8641.56 217.647 L8701.19 217.647 L8701.19 580.608 L8641.56 580.608 L8641.56 217.647 M8641.56 76.3514 L8701.19 76.3514 L8701.19 151.86 L8641.56 151.86 L8641.56 76.3514 Z" fill="#000000" fill-rule="evenodd" fill-opacity="1" /><path clip-path="url(#clip9200)" d="M 0 0 M9065.45 361.535 L9065.45 580.608 L9005.82 580.608 L9005.82 363.48 Q9005.82 311.952 8985.73 286.35 Q8965.63 260.749 8925.45 260.749 Q8877.16 260.749 8849.29 291.535 Q8821.42 322.322 8821.42 375.47 L8821.42 580.608 L8761.47 580.608 L8761.47 217.647 L8821.42 217.647 L8821.42 274.036 Q8842.81 241.304 8871.65 225.101 Q8900.82 208.897 8938.74 208.897 Q9001.28 208.897 9033.37 247.786 Q9065.45 286.35 9065.45 361.535 Z" fill="#000000" fill-rule="evenodd" fill-opacity="1" /><path clip-path="url(#clip9200)" d="M 0 0 M9570.35 228.341 L9570.35 284.73 Q9545.08 271.767 9517.85 265.286 Q9490.63 258.804 9461.47 258.804 Q9417.07 258.804 9394.71 272.415 Q9372.67 286.026 9372.67 313.248 Q9372.67 333.989 9388.55 345.98 Q9404.43 357.646 9452.39 368.341 L9472.81 372.878 Q9536.33 386.489 9562.9 411.442 Q9589.8 436.072 9589.8 480.47 Q9589.8 531.025 9549.61 560.516 Q9509.75 590.006 9439.75 590.006 Q9410.59 590.006 9378.83 584.173 Q9347.39 578.664 9312.39 567.321 L9312.39 505.747 Q9345.45 522.923 9377.53 531.673 Q9409.61 540.099 9441.05 540.099 Q9483.18 540.099 9505.86 525.84 Q9528.55 511.257 9528.55 485.007 Q9528.55 460.701 9512.02 447.738 Q9495.82 434.775 9440.4 422.785 L9419.66 417.924 Q9364.24 406.257 9339.61 382.276 Q9314.98 357.97 9314.98 315.841 Q9314.98 264.637 9351.28 236.767 Q9387.58 208.897 9454.34 208.897 Q9487.39 208.897 9516.56 213.758 Q9545.72 218.619 9570.35 228.341 Z" fill="#000000" fill-rule="evenodd" fill-opacity="1" /><path clip-path="url(#clip9200)" d="M 0 0 M9652.34 217.647 L9711.97 217.647 L9711.97 580.608 L9652.34 580.608 L9652.34 217.647 M9652.34 76.3514 L9711.97 76.3514 L9711.97 151.86 L9652.34 151.86 L9652.34 76.3514 Z" fill="#000000" fill-rule="evenodd" fill-opacity="1" /><path clip-path="url(#clip9200)" d="M 0 0 M9748.59 217.647 L10031.8 217.647 L10031.8 272.091 L9807.57 532.969 L10031.8 532.969 L10031.8 580.608 L9740.49 580.608 L9740.49 526.164 L9964.75 265.286 L9748.59 265.286 L9748.59 217.647 Z" fill="#000000" fill-rule="evenodd" fill-opacity="1" /><path clip-path="url(#clip9200)" d="M 0 0 M10404.8 384.22 L10404.8 413.387 L10130.7 413.387 Q10134.6 474.96 10167.6 507.368 Q10201 539.451 10260.3 539.451 Q10294.7 539.451 10326.7 531.025 Q10359.1 522.599 10390.9 505.747 L10390.9 562.136 Q10358.8 575.747 10325.1 582.877 Q10291.4 590.006 10256.7 590.006 Q10169.9 590.006 10119 539.451 Q10068.5 488.896 10068.5 402.692 Q10068.5 313.572 10116.4 261.397 Q10164.7 208.897 10246.4 208.897 Q10319.6 208.897 10362.1 256.212 Q10404.8 303.202 10404.8 384.22 M10345.2 366.72 Q10344.6 317.785 10317.7 288.619 Q10291.1 259.452 10247 259.452 Q10197.1 259.452 10167 287.647 Q10137.2 315.841 10132.6 367.044 L10345.2 366.72 Z" fill="#000000" fill-rule="evenodd" fill-opacity="1" /><path clip-path="url(#clip9200)" d="M 0 0 M10698.8 228.341 L10698.8 284.73 Q10673.5 271.767 10646.3 265.286 Q10619.1 258.804 10589.9 258.804 Q10545.5 258.804 10523.1 272.415 Q10501.1 286.026 10501.1 313.248 Q10501.1 333.989 10517 345.98 Q10532.8 357.646 10580.8 368.341 L10601.2 372.878 Q10664.7 386.489 10691.3 411.442 Q10718.2 436.072 10718.2 480.47 Q10718.2 531.025 10678 560.516 Q10638.2 590.006 10568.2 590.006 Q10539 590.006 10507.2 584.173 Q10475.8 578.664 10440.8 567.321 L10440.8 505.747 Q10473.9 522.923 10506 531.673 Q10538 540.099 10569.5 540.099 Q10611.6 540.099 10634.3 525.84 Q10657 511.257 10657 485.007 Q10657 460.701 10640.4 447.738 Q10624.2 434.775 10568.8 422.785 L10548.1 417.924 Q10492.7 406.257 10468 382.276 Q10443.4 357.97 10443.4 315.841 Q10443.4 264.637 10479.7 236.767 Q10516 208.897 10582.8 208.897 Q10615.8 208.897 10645 213.758 Q10674.1 218.619 10698.8 228.341 Z" fill="#000000" fill-rule="evenodd" fill-opacity="1" /><path clip-path="url(#clip9200)" d="M 0 0 M11156.7 398.155 Q11084.4 398.155 11056.5 414.683 Q11028.7 431.211 11028.7 471.072 Q11028.7 502.831 11049.4 521.627 Q11070.5 540.099 11106.5 540.099 Q11156 540.099 11185.9 505.099 Q11216 469.775 11216 411.442 L11216 398.155 L11156.7 398.155 M11275.6 373.526 L11275.6 580.608 L11216 580.608 L11216 525.516 Q11195.6 558.571 11165.1 574.451 Q11134.7 590.006 11090.6 590.006 Q11034.8 590.006 11001.8 558.895 Q10969 527.46 10969 474.96 Q10969 413.711 11009.9 382.6 Q11051 351.489 11132.4 351.489 L11216 351.489 L11216 345.656 Q11216 304.498 11188.8 282.137 Q11161.9 259.452 11112.9 259.452 Q11081.8 259.452 11052.3 266.906 Q11022.8 274.36 10995.6 289.267 L10995.6 234.175 Q11028.4 221.536 11059.1 215.378 Q11089.9 208.897 11119.1 208.897 Q11197.8 208.897 11236.7 249.73 Q11275.6 290.563 11275.6 373.526 Z" fill="#000000" fill-rule="evenodd" fill-opacity="1" /><path clip-path="url(#clip9200)" d="M 0 0 M11397.1 114.592 L11397.1 217.647 L11520 217.647 L11520 263.989 L11397.1 263.989 L11397.1 461.025 Q11397.1 505.423 11409.1 518.062 Q11421.5 530.701 11458.7 530.701 L11520 530.701 L11520 580.608 L11458.7 580.608 Q11389.7 580.608 11363.4 555.006 Q11337.2 529.08 11337.2 461.025 L11337.2 263.989 L11293.4 263.989 L11293.4 217.647 L11337.2 217.647 L11337.2 114.592 L11397.1 114.592 Z" fill="#000000" fill-rule="evenodd" fill-opacity="1" /><path clip-path="url(#clip9200)" d="M 0 0 M12032.3 272.739 L12032.3 76.3514 L12092 76.3514 L12092 580.608 L12032.3 580.608 L12032.3 526.164 Q12013.5 558.571 11984.7 574.451 Q11956.2 590.006 11916 590.006 Q11850.2 590.006 11808.7 537.506 Q11767.6 485.007 11767.6 399.452 Q11767.6 313.896 11808.7 261.397 Q11850.2 208.897 11916 208.897 Q11956.2 208.897 11984.7 224.777 Q12013.5 240.332 12032.3 272.739 M11829.1 399.452 Q11829.1 465.238 11856 502.831 Q11883.3 540.099 11930.6 540.099 Q11977.9 540.099 12005.1 502.831 Q12032.3 465.238 12032.3 399.452 Q12032.3 333.665 12005.1 296.397 Q11977.9 258.804 11930.6 258.804 Q11883.3 258.804 11856 296.397 Q11829.1 333.665 11829.1 399.452 Z" fill="#000000" fill-rule="evenodd" fill-opacity="1" /><path clip-path="url(#clip9200)" d="M 0 0 M12154.5 217.647 L12214.1 217.647 L12214.1 580.608 L12154.5 580.608 L12154.5 217.647 M12154.5 76.3514 L12214.1 76.3514 L12214.1 151.86 L12154.5 151.86 L12154.5 76.3514 Z" fill="#000000" fill-rule="evenodd" fill-opacity="1" /><path clip-path="url(#clip9200)" d="M 0 0 M12460.4 76.3514 L12460.4 125.935 L12403.4 125.935 Q12371.3 125.935 12358.7 138.897 Q12346.4 151.86 12346.4 185.564 L12346.4 217.647 L12444.6 217.647 L12444.6 263.989 L12346.4 263.989 L12346.4 580.608 L12286.4 580.608 L12286.4 263.989 L12229.4 263.989 L12229.4 217.647 L12286.4 217.647 L12286.4 192.369 Q12286.4 131.768 12314.6 104.222 Q12342.8 76.3514 12404 76.3514 L12460.4 76.3514 Z" fill="#000000" fill-rule="evenodd" fill-opacity="1" /><path clip-path="url(#clip9200)" d="M 0 0 M12706.7 76.3514 L12706.7 125.935 L12649.7 125.935 Q12617.6 125.935 12605 138.897 Q12592.7 151.86 12592.7 185.564 L12592.7 217.647 L12690.8 217.647 L12690.8 263.989 L12592.7 263.989 L12592.7 580.608 L12532.7 580.608 L12532.7 263.989 L12475.7 263.989 L12475.7 217.647 L12532.7 217.647 L12532.7 192.369 Q12532.7 131.768 12560.9 104.222 Q12589.1 76.3514 12650.3 76.3514 L12706.7 76.3514 Z" fill="#000000" fill-rule="evenodd" fill-opacity="1" /><path clip-path="url(#clip9200)" d="M 0 0 M13079.7 384.22 L13079.7 413.387 L12805.6 413.387 Q12809.5 474.96 12842.5 507.368 Q12875.9 539.451 12935.2 539.451 Q12969.5 539.451 13001.6 531.025 Q13034 522.599 13065.8 505.747 L13065.8 562.136 Q13033.7 575.747 13000 582.877 Q12966.3 590.006 12931.6 590.006 Q12844.8 590.006 12793.9 539.451 Q12743.3 488.896 12743.3 402.692 Q12743.3 313.572 12791.3 261.397 Q12839.6 208.897 12921.3 208.897 Q12994.5 208.897 13037 256.212 Q13079.7 303.202 13079.7 384.22 M13020.1 366.72 Q13019.5 317.785 12992.6 288.619 Q12966 259.452 12921.9 259.452 Q12872 259.452 12841.9 287.647 Q12812 315.841 12807.5 367.044 L13020.1 366.72 Z" fill="#000000" fill-rule="evenodd" fill-opacity="1" /><path clip-path="url(#clip9200)" d="M 0 0 M13352.6 273.387 Q13342.6 267.554 13330.6 264.962 Q13318.9 262.045 13304.6 262.045 Q13254.1 262.045 13226.9 295.1 Q13200 327.832 13200 389.405 L13200 580.608 L13140 580.608 L13140 217.647 L13200 217.647 L13200 274.036 Q13218.8 240.98 13248.9 225.101 Q13279 208.897 13322.1 208.897 Q13328.3 208.897 13335.8 209.869 Q13343.2 210.517 13352.3 212.138 L13352.6 273.387 Z" fill="#000000" fill-rule="evenodd" fill-opacity="1" /><path clip-path="url(#clip9200)" d="M 0 0 M13711 384.22 L13711 413.387 L13436.9 413.387 Q13440.7 474.96 13473.8 507.368 Q13507.2 539.451 13566.5 539.451 Q13600.8 539.451 13632.9 531.025 Q13665.3 522.599 13697.1 505.747 L13697.1 562.136 Q13665 575.747 13631.3 582.877 Q13597.6 590.006 13562.9 590.006 Q13476.1 590.006 13425.2 539.451 Q13374.6 488.896 13374.6 402.692 Q13374.6 313.572 13422.6 261.397 Q13470.9 208.897 13552.6 208.897 Q13625.8 208.897 13668.2 256.212 Q13711 303.202 13711 384.22 M13651.4 366.72 Q13650.7 317.785 13623.9 288.619 Q13597.3 259.452 13553.2 259.452 Q13503.3 259.452 13473.2 287.647 Q13443.3 315.841 13438.8 367.044 L13651.4 366.72 Z" fill="#000000" fill-rule="evenodd" fill-opacity="1" /><path clip-path="url(#clip9200)" d="M 0 0 M14075.3 361.535 L14075.3 580.608 L14015.7 580.608 L14015.7 363.48 Q14015.7 311.952 13995.6 286.35 Q13975.5 260.749 13935.3 260.749 Q13887 260.749 13859.1 291.535 Q13831.3 322.322 13831.3 375.47 L13831.3 580.608 L13771.3 580.608 L13771.3 217.647 L13831.3 217.647 L13831.3 274.036 Q13852.6 241.304 13881.5 225.101 Q13910.7 208.897 13948.6 208.897 Q14011.1 208.897 14043.2 247.786 Q14075.3 286.35 14075.3 361.535 Z" fill="#000000" fill-rule="evenodd" fill-opacity="1" /><path clip-path="url(#clip9200)" d="M 0 0 M14196.8 114.592 L14196.8 217.647 L14319.6 217.647 L14319.6 263.989 L14196.8 263.989 L14196.8 461.025 Q14196.8 505.423 14208.8 518.062 Q14221.1 530.701 14258.4 530.701 L14319.6 530.701 L14319.6 580.608 L14258.4 580.608 Q14189.4 580.608 14163.1 555.006 Q14136.9 529.08 14136.9 461.025 L14136.9 263.989 L14093.1 263.989 L14093.1 217.647 L14136.9 217.647 L14136.9 114.592 L14196.8 114.592 Z" fill="#000000" fill-rule="evenodd" fill-opacity="1" /><path clip-path="url(#clip9200)" d="M 0 0 M14528.7 96.768 L14938 96.768 L14938 151.86 L14766.2 151.86 L14766.2 580.608 L14700.4 580.608 L14700.4 151.86 L14528.7 151.86 L14528.7 96.768 Z" fill="#000000" fill-rule="evenodd" fill-opacity="1" /><path clip-path="url(#clip9200)" d="M 0 0 M15198.2 384.22 L15198.2 413.387 L14924 413.387 Q14927.9 474.96 14961 507.368 Q14994.4 539.451 15053.7 539.451 Q15088 539.451 15120.1 531.025 Q15152.5 522.599 15184.3 505.747 L15184.3 562.136 Q15152.2 575.747 15118.5 582.877 Q15084.8 590.006 15050.1 590.006 Q14963.2 590.006 14912.4 539.451 Q14861.8 488.896 14861.8 402.692 Q14861.8 313.572 14909.8 261.397 Q14958.1 208.897 15039.7 208.897 Q15113 208.897 15155.4 256.212 Q15198.2 303.202 15198.2 384.22 M15138.6 366.72 Q15137.9 317.785 15111 288.619 Q15084.4 259.452 15040.4 259.452 Q14990.5 259.452 14960.3 287.647 Q14930.5 315.841 14926 367.044 L15138.6 366.72 Z" fill="#000000" fill-rule="evenodd" fill-opacity="1" /><path clip-path="url(#clip9200)" d="M 0 0 M15543.3 287.323 Q15565.7 247.138 15596.8 228.017 Q15627.9 208.897 15670 208.897 Q15726.8 208.897 15757.5 248.758 Q15788.3 288.295 15788.3 361.535 L15788.3 580.608 L15728.4 580.608 L15728.4 363.48 Q15728.4 311.304 15709.9 286.026 Q15691.4 260.749 15653.5 260.749 Q15607.2 260.749 15580.3 291.535 Q15553.4 322.322 15553.4 375.47 L15553.4 580.608 L15493.4 580.608 L15493.4 363.48 Q15493.4 310.98 15475 286.026 Q15456.5 260.749 15417.9 260.749 Q15372.2 260.749 15345.3 291.86 Q15318.4 322.646 15318.4 375.47 L15318.4 580.608 L15258.5 580.608 L15258.5 217.647 L15318.4 217.647 L15318.4 274.036 Q15338.8 240.656 15367.4 224.777 Q15395.9 208.897 15435.1 208.897 Q15474.6 208.897 15502.2 228.99 Q15530 249.082 15543.3 287.323 Z" fill="#000000" fill-rule="evenodd" fill-opacity="1" /><path clip-path="url(#clip9200)" d="M 0 0 M15908.6 526.164 L15908.6 718.663 L15848.6 718.663 L15848.6 217.647 L15908.6 217.647 L15908.6 272.739 Q15927.4 240.332 15955.9 224.777 Q15984.7 208.897 16024.6 208.897 Q16090.7 208.897 16131.8 261.397 Q16173.3 313.896 16173.3 399.452 Q16173.3 485.007 16131.8 537.506 Q16090.7 590.006 16024.6 590.006 Q15984.7 590.006 15955.9 574.451 Q15927.4 558.571 15908.6 526.164 M16111.4 399.452 Q16111.4 333.665 16084.2 296.397 Q16057.3 258.804 16010 258.804 Q15962.7 258.804 15935.5 296.397 Q15908.6 333.665 15908.6 399.452 Q15908.6 465.238 15935.5 502.831 Q15962.7 540.099 16010 540.099 Q16057.3 540.099 16084.2 502.831 Q16111.4 465.238 16111.4 399.452 Z" fill="#000000" fill-rule="evenodd" fill-opacity="1" /><path clip-path="url(#clip9200)" d="M 0 0 M16546.3 384.22 L16546.3 413.387 L16272.2 413.387 Q16276.1 474.96 16309.1 507.368 Q16342.5 539.451 16401.8 539.451 Q16436.2 539.451 16468.2 531.025 Q16500.6 522.599 16532.4 505.747 L16532.4 562.136 Q16500.3 575.747 16466.6 582.877 Q16432.9 590.006 16398.2 590.006 Q16311.4 590.006 16260.5 539.451 Q16209.9 488.896 16209.9 402.692 Q16209.9 313.572 16257.9 261.397 Q16306.2 208.897 16387.9 208.897 Q16461.1 208.897 16503.6 256.212 Q16546.3 303.202 16546.3 384.22 M16486.7 366.72 Q16486.1 317.785 16459.2 288.619 Q16432.6 259.452 16388.5 259.452 Q16338.6 259.452 16308.5 287.647 Q16278.7 315.841 16274.1 367.044 L16486.7 366.72 Z" fill="#000000" fill-rule="evenodd" fill-opacity="1" /><path clip-path="url(#clip9200)" d="M 0 0 M16819.2 273.387 Q16809.2 267.554 16797.2 264.962 Q16785.5 262.045 16771.2 262.045 Q16720.7 262.045 16693.5 295.1 Q16666.6 327.832 16666.6 389.405 L16666.6 580.608 L16606.6 580.608 L16606.6 217.647 L16666.6 217.647 L16666.6 274.036 Q16685.4 240.98 16715.5 225.101 Q16745.6 208.897 16788.7 208.897 Q16794.9 208.897 16802.4 209.869 Q16809.8 210.517 16818.9 212.138 L16819.2 273.387 Z" fill="#000000" fill-rule="evenodd" fill-opacity="1" /><path clip-path="url(#clip9200)" d="M 0 0 M17046.7 398.155 Q16974.4 398.155 16946.6 414.683 Q16918.7 431.211 16918.7 471.072 Q16918.7 502.831 16939.4 521.627 Q16960.5 540.099 16996.5 540.099 Q17046.1 540.099 17075.9 505.099 Q17106 469.775 17106 411.442 L17106 398.155 L17046.7 398.155 M17165.6 373.526 L17165.6 580.608 L17106 580.608 L17106 525.516 Q17085.6 558.571 17055.1 574.451 Q17024.7 590.006 16980.6 590.006 Q16924.9 590.006 16891.8 558.895 Q16859.1 527.46 16859.1 474.96 Q16859.1 413.711 16899.9 382.6 Q16941.1 351.489 17022.4 351.489 L17106 351.489 L17106 345.656 Q17106 304.498 17078.8 282.137 Q17051.9 259.452 17003 259.452 Q16971.8 259.452 16942.4 266.906 Q16912.9 274.36 16885.6 289.267 L16885.6 234.175 Q16918.4 221.536 16949.2 215.378 Q16979.9 208.897 17009.1 208.897 Q17087.9 208.897 17126.7 249.73 Q17165.6 290.563 17165.6 373.526 Z" fill="#000000" fill-rule="evenodd" fill-opacity="1" /><path clip-path="url(#clip9200)" d="M 0 0 M17287.2 114.592 L17287.2 217.647 L17410 217.647 L17410 263.989 L17287.2 263.989 L17287.2 461.025 Q17287.2 505.423 17299.2 518.062 Q17311.5 530.701 17348.7 530.701 L17410 530.701 L17410 580.608 L17348.7 580.608 Q17279.7 580.608 17253.5 555.006 Q17227.2 529.08 17227.2 461.025 L17227.2 263.989 L17183.5 263.989 L17183.5 217.647 L17227.2 217.647 L17227.2 114.592 L17287.2 114.592 Z" fill="#000000" fill-rule="evenodd" fill-opacity="1" /><path clip-path="url(#clip9200)" d="M 0 0 M17466.4 437.368 L17466.4 217.647 L17526 217.647 L17526 435.1 Q17526 486.627 17546.1 512.553 Q17566.2 538.155 17606.4 538.155 Q17654.7 538.155 17682.5 507.368 Q17710.7 476.581 17710.7 423.433 L17710.7 217.647 L17770.4 217.647 L17770.4 580.608 L17710.7 580.608 L17710.7 524.868 Q17689 557.923 17660.2 574.127 Q17631.7 590.006 17593.7 590.006 Q17531.2 590.006 17498.8 551.117 Q17466.4 512.229 17466.4 437.368 M17616.4 208.897 L17616.4 208.897 Z" fill="#000000" fill-rule="evenodd" fill-opacity="1" /><path clip-path="url(#clip9200)" d="M 0 0 M18043.2 273.387 Q18033.2 267.554 18021.2 264.962 Q18009.5 262.045 17995.3 262.045 Q17944.7 262.045 17917.5 295.1 Q17890.6 327.832 17890.6 389.405 L17890.6 580.608 L17830.6 580.608 L17830.6 217.647 L17890.6 217.647 L17890.6 274.036 Q17909.4 240.98 17939.5 225.101 Q17969.7 208.897 18012.8 208.897 Q18018.9 208.897 18026.4 209.869 Q18033.8 210.517 18042.9 212.138 L18043.2 273.387 Z" fill="#000000" fill-rule="evenodd" fill-opacity="1" /><path clip-path="url(#clip9200)" d="M 0 0 M18401.6 384.22 L18401.6 413.387 L18127.5 413.387 Q18131.4 474.96 18164.4 507.368 Q18197.8 539.451 18257.1 539.451 Q18291.5 539.451 18323.5 531.025 Q18356 522.599 18387.7 505.747 L18387.7 562.136 Q18355.6 575.747 18321.9 582.877 Q18288.2 590.006 18253.5 590.006 Q18166.7 590.006 18115.8 539.451 Q18065.3 488.896 18065.3 402.692 Q18065.3 313.572 18113.2 261.397 Q18161.5 208.897 18243.2 208.897 Q18316.4 208.897 18358.9 256.212 Q18401.6 303.202 18401.6 384.22 M18342 366.72 Q18341.4 317.785 18314.5 288.619 Q18287.9 259.452 18243.8 259.452 Q18193.9 259.452 18163.8 287.647 Q18134 315.841 18129.4 367.044 L18342 366.72 Z" fill="#000000" fill-rule="evenodd" fill-opacity="1" /><path clip-path="url(#clip9200)" d="M 0 0 M18695.6 228.341 L18695.6 284.73 Q18670.3 271.767 18643.1 265.286 Q18615.9 258.804 18586.7 258.804 Q18542.3 258.804 18519.9 272.415 Q18497.9 286.026 18497.9 313.248 Q18497.9 333.989 18513.8 345.98 Q18529.7 357.646 18577.6 368.341 L18598 372.878 Q18661.6 386.489 18688.1 411.442 Q18715 436.072 18715 480.47 Q18715 531.025 18674.8 560.516 Q18635 590.006 18565 590.006 Q18535.8 590.006 18504.1 584.173 Q18472.6 578.664 18437.6 567.321 L18437.6 505.747 Q18470.7 522.923 18502.8 531.673 Q18534.8 540.099 18566.3 540.099 Q18608.4 540.099 18631.1 525.84 Q18653.8 511.257 18653.8 485.007 Q18653.8 460.701 18637.2 447.738 Q18621 434.775 18565.6 422.785 L18544.9 417.924 Q18489.5 406.257 18464.8 382.276 Q18440.2 357.97 18440.2 315.841 Q18440.2 264.637 18476.5 236.767 Q18512.8 208.897 18579.6 208.897 Q18612.6 208.897 18641.8 213.758 Q18671 218.619 18695.6 228.341 Z" fill="#000000" fill-rule="evenodd" fill-opacity="1" /><path clip-path="url(#clip9200)" d="M 0 0 M9833.25 12306 Q9833.25 12254.3 9811.86 12225 Q9790.72 12195.5 9753.55 12195.5 Q9716.37 12195.5 9694.98 12225 Q9673.85 12254.3 9673.85 12306 Q9673.85 12357.7 9694.98 12387.2 Q9716.37 12416.5 9753.55 12416.5 Q9790.72 12416.5 9811.86 12387.2 Q9833.25 12357.7 9833.25 12306 M9673.85 12206.5 Q9688.62 12181 9711.02 12168.8 Q9733.69 12156.3 9765.01 12156.3 Q9816.95 12156.3 9849.29 12197.5 Q9881.88 12238.8 9881.88 12306 Q9881.88 12373.2 9849.29 12414.5 Q9816.95 12455.7 9765.01 12455.7 Q9733.69 12455.7 9711.02 12443.5 Q9688.62 12431 9673.85 12405.6 L9673.85 12448.4 L9626.74 12448.4 L9626.74 12052.1 L9673.85 12052.1 L9673.85 12206.5 Z" fill="#000000" fill-rule="evenodd" fill-opacity="1" /><path clip-path="url(#clip9200)" d="M 0 0 M9931.02 12163.2 L9977.87 12163.2 L9977.87 12448.4 L9931.02 12448.4 L9931.02 12163.2 M9931.02 12052.1 L9977.87 12052.1 L9977.87 12111.5 L9931.02 12111.5 L9931.02 12052.1 Z" fill="#000000" fill-rule="evenodd" fill-opacity="1" /><path clip-path="url(#clip9200)" d="M 0 0 M10264.1 12276.2 L10264.1 12448.4 L10217.2 12448.4 L10217.2 12277.7 Q10217.2 12237.3 10201.4 12217.1 Q10185.7 12197 10154.1 12197 Q10116.1 12197 10094.2 12221.2 Q10072.3 12245.4 10072.3 12287.2 L10072.3 12448.4 L10025.2 12448.4 L10025.2 12163.2 L10072.3 12163.2 L10072.3 12207.5 Q10089.1 12181.8 10111.8 12169 Q10134.7 12156.3 10164.5 12156.3 Q10213.7 12156.3 10238.9 12186.8 Q10264.1 12217.1 10264.1 12276.2 Z" fill="#000000" fill-rule="evenodd" fill-opacity="1" /><path clip-path="url(#clip9200)" d="M 0 0 M10660.8 12171.6 L10660.8 12215.9 Q10640.9 12205.7 10619.5 12200.6 Q10598.1 12195.5 10575.2 12195.5 Q10540.3 12195.5 10522.8 12206.2 Q10505.5 12216.9 10505.5 12238.3 Q10505.5 12254.6 10517.9 12264 Q10530.4 12273.2 10568.1 12281.6 L10584.1 12285.1 Q10634.1 12295.8 10654.9 12315.4 Q10676.1 12334.8 10676.1 12369.7 Q10676.1 12409.4 10644.5 12432.6 Q10613.2 12455.7 10558.2 12455.7 Q10535.3 12455.7 10510.3 12451.2 Q10485.6 12446.8 10458.1 12437.9 L10458.1 12389.5 Q10484.1 12403 10509.3 12409.9 Q10534.5 12416.5 10559.2 12416.5 Q10592.3 12416.5 10610.1 12405.3 Q10627.9 12393.9 10627.9 12373.2 Q10627.9 12354.1 10615 12344 Q10602.2 12333.8 10558.7 12324.3 L10542.4 12320.5 Q10498.8 12311.4 10479.5 12292.5 Q10460.1 12273.4 10460.1 12240.3 Q10460.1 12200.1 10488.7 12178.2 Q10517.2 12156.3 10569.6 12156.3 Q10595.6 12156.3 10618.5 12160.1 Q10641.4 12163.9 10660.8 12171.6 Z" fill="#000000" fill-rule="evenodd" fill-opacity="1" /><path clip-path="url(#clip9200)" d="M 0 0 M10725.2 12163.2 L10772.1 12163.2 L10772.1 12448.4 L10725.2 12448.4 L10725.2 12163.2 M10725.2 12052.1 L10772.1 12052.1 L10772.1 12111.5 L10725.2 12111.5 L10725.2 12052.1 Z" fill="#000000" fill-rule="evenodd" fill-opacity="1" /><path clip-path="url(#clip9200)" d="M 0 0 M10800.8 12163.2 L11023.4 12163.2 L11023.4 12205.9 L10847.2 12410.9 L11023.4 12410.9 L11023.4 12448.4 L10794.5 12448.4 L10794.5 12405.6 L10970.7 12200.6 L10800.8 12200.6 L10800.8 12163.2 Z" fill="#000000" fill-rule="evenodd" fill-opacity="1" /><path clip-path="url(#clip9200)" d="M 0 0 M11316.5 12294 L11316.5 12317 L11101 12317 Q11104.1 12365.3 11130.1 12390.8 Q11156.3 12416 11202.9 12416 Q11229.9 12416 11255.1 12409.4 Q11280.6 12402.8 11305.5 12389.5 L11305.5 12433.8 Q11280.3 12444.5 11253.8 12450.1 Q11227.3 12455.7 11200.1 12455.7 Q11131.8 12455.7 11091.9 12416 Q11052.2 12376.3 11052.2 12308.6 Q11052.2 12238.5 11089.8 12197.5 Q11127.8 12156.3 11191.9 12156.3 Q11249.5 12156.3 11282.8 12193.5 Q11316.5 12230.4 11316.5 12294 M11269.6 12280.3 Q11269.1 12241.8 11248 12218.9 Q11227.1 12196 11192.5 12196 Q11153.2 12196 11129.6 12218.2 Q11106.1 12240.3 11102.6 12280.6 L11269.6 12280.3 Z" fill="#000000" fill-rule="evenodd" fill-opacity="1" /><path clip-path="url(#clip9200)" d="M 0 0 M549.729 6511 L572.645 6511 L572.645 6726.42 Q621.024 6723.36 646.487 6697.39 Q671.695 6671.17 671.695 6624.57 Q671.695 6597.58 665.075 6572.37 Q658.455 6546.91 645.214 6521.95 L689.519 6521.95 Q700.214 6547.16 705.816 6573.64 Q711.417 6600.12 711.417 6627.37 Q711.417 6695.61 671.695 6735.59 Q631.973 6775.31 564.242 6775.31 Q494.22 6775.31 453.224 6737.62 Q411.975 6699.68 411.975 6635.52 Q411.975 6577.97 449.15 6544.62 Q486.071 6511 549.729 6511 M535.979 6557.86 Q497.53 6558.37 474.613 6579.5 Q451.697 6600.38 451.697 6635.01 Q451.697 6674.22 473.849 6697.9 Q496.002 6721.33 536.233 6724.89 L535.979 6557.86 Z" fill="#000000" fill-rule="evenodd" fill-opacity="1" /><path clip-path="url(#clip9200)" d="M 0 0 M462.646 6296.61 Q458.062 6304.5 456.025 6313.92 Q453.734 6323.09 453.734 6334.29 Q453.734 6374.01 479.706 6395.4 Q505.423 6416.54 553.803 6416.54 L704.033 6416.54 L704.033 6463.64 L418.85 6463.64 L418.85 6416.54 L463.155 6416.54 Q437.183 6401.77 424.706 6378.09 Q411.975 6354.41 411.975 6320.54 Q411.975 6315.7 412.739 6309.85 Q413.248 6303.99 414.521 6296.86 L462.646 6296.61 Z" fill="#000000" fill-rule="evenodd" fill-opacity="1" /><path clip-path="url(#clip9200)" d="M 0 0 M462.646 6091.38 Q458.062 6099.27 456.025 6108.69 Q453.734 6117.86 453.734 6129.06 Q453.734 6168.78 479.706 6190.17 Q505.423 6211.31 553.803 6211.31 L704.033 6211.31 L704.033 6258.41 L418.85 6258.41 L418.85 6211.31 L463.155 6211.31 Q437.183 6196.54 424.706 6172.86 Q411.975 6149.18 411.975 6115.31 Q411.975 6110.47 412.739 6104.62 Q413.248 6098.76 414.521 6091.63 L462.646 6091.38 Z" fill="#000000" fill-rule="evenodd" fill-opacity="1" /><path clip-path="url(#clip9200)" d="M 0 0 M451.697 5943.18 Q451.697 5980.87 481.234 6002.77 Q510.516 6024.66 561.696 6024.66 Q612.876 6024.66 642.413 6003.02 Q671.695 5981.12 671.695 5943.18 Q671.695 5905.75 642.159 5883.85 Q612.622 5861.96 561.696 5861.96 Q511.025 5861.96 481.488 5883.85 Q451.697 5905.75 451.697 5943.18 M411.975 5943.18 Q411.975 5882.07 451.697 5847.19 Q491.419 5812.3 561.696 5812.3 Q631.719 5812.3 671.695 5847.19 Q711.417 5882.07 711.417 5943.18 Q711.417 6004.55 671.695 6039.43 Q631.719 6074.06 561.696 6074.06 Q491.419 6074.06 451.697 6039.43 Q411.975 6004.55 411.975 5943.18 Z" fill="#000000" fill-rule="evenodd" fill-opacity="1" /><path clip-path="url(#clip9200)" d="M 0 0 M462.646 5597.91 Q458.062 5605.8 456.025 5615.22 Q453.734 5624.39 453.734 5635.59 Q453.734 5675.31 479.706 5696.7 Q505.423 5717.84 553.803 5717.84 L704.033 5717.84 L704.033 5764.94 L418.85 5764.94 L418.85 5717.84 L463.155 5717.84 Q437.183 5703.07 424.706 5679.39 Q411.975 5655.71 411.975 5621.84 Q411.975 5617 412.739 5611.15 Q413.248 5605.29 414.521 5598.16 L462.646 5597.91 Z" fill="#000000" fill-rule="evenodd" fill-opacity="1" /><polyline clip-path="url(#clip9202)" style="stroke:#009af9; stroke-width:32; stroke-opacity:1; fill:none" points="
  2593.82,11026.2 2594.3,10981.4 2595.26,10918.7 2597.18,10831.9 2601.03,10714.4 2608.72,10561.2 2624.11,10375.4 2654.88,10179.6 2716.43,9995.26 2839.52,9844.33 
  3085.71,9765.17 3578.09,9696.72 4562.84,9795.81 6532.35,9884.69 10471.4,9984.27 18349.4,9725.56 
  "/>
<polyline clip-path="url(#clip9202)" style="stroke:#e26f46; stroke-width:32; stroke-opacity:1; fill:none" points="
  2593.82,10995.9 2594.3,10938.3 2595.26,10857.2 2597.18,10743.7 2601.03,10586.4 2608.72,10371.7 2624.11,10088.2 2654.88,9726.82 2716.43,9302.68 2839.52,8838.86 
  3085.71,8345.07 3578.09,7872.6 4562.84,7550.56 6532.35,7507.61 10471.4,8049.26 18349.4,7880.48 
  "/>
<polyline clip-path="url(#clip9202)" style="stroke:#3da44d; stroke-width:32; stroke-opacity:1; fill:none" points="
  2593.82,10952.5 2594.3,10876.8 2595.26,10770 2597.18,10619.6 2601.03,10408.9 2608.72,10115.9 2624.11,9714.06 2654.88,9173.54 2716.43,8459.84 2839.52,7570.33 
  3085.71,6451.9 3578.09,5321.94 4562.84,3870.63 6532.35,2730.93 10471.4,1721.55 18349.4,1282.05 
  "/>
<polyline clip-path="url(#clip9202)" style="stroke:#c271d2; stroke-width:32; stroke-opacity:1; fill:none" points="
  2593.82,11091.2 2594.3,11072.9 2595.26,11047.2 2597.18,11011.5 2601.03,10962.3 2608.72,10896.8 2624.11,10813.8 2654.88,10719 2716.43,10627.9 2839.52,10562.8 
  3085.71,10516.8 3578.09,10498 4562.84,10485 6532.35,10456.5 10471.4,10433 18349.4,10455.5 
  "/>
<path clip-path="url(#clip9200)" d="
M15057.7 4075.14 L18246 4075.14 L18246 1655.94 L15057.7 1655.94  Z
  " fill="#ffffff" fill-rule="evenodd" fill-opacity="1"/>
<polyline clip-path="url(#clip9200)" style="stroke:#000000; stroke-width:32; stroke-opacity:1; fill:none" points="
  15057.7,4075.14 18246,4075.14 18246,1655.94 15057.7,1655.94 15057.7,4075.14 
  "/>
<polyline clip-path="url(#clip9200)" style="stroke:#009af9; stroke-width:32; stroke-opacity:1; fill:none" points="
  15249.7,2139.78 16401.7,2139.78 
  "/>
<path clip-path="url(#clip9200)" d="M 0 0 M16593.7 2001.54 L16827.6 2001.54 L16827.6 2033.02 L16729.5 2033.02 L16729.5 2278.02 L16691.9 2278.02 L16691.9 2033.02 L16593.7 2033.02 L16593.7 2001.54 Z" fill="#000000" fill-rule="evenodd" fill-opacity="1" /><path clip-path="url(#clip9200)" d="M 0 0 M16988.3 2105.8 L17225.8 2105.8 L17225.8 2136.91 L16988.3 2136.91 L16988.3 2105.8 M16988.3 2181.35 L17225.8 2181.35 L17225.8 2212.83 L16988.3 2212.83 L16988.3 2181.35 Z" fill="#000000" fill-rule="evenodd" fill-opacity="1" /><path clip-path="url(#clip9200)" d="M 0 0 M17489.6 2034.13 L17395.2 2181.72 L17489.6 2181.72 L17489.6 2034.13 M17479.8 2001.54 L17526.9 2001.54 L17526.9 2181.72 L17566.3 2181.72 L17566.3 2212.83 L17526.9 2212.83 L17526.9 2278.02 L17489.6 2278.02 L17489.6 2212.83 L17364.8 2212.83 L17364.8 2176.72 L17479.8 2001.54 Z" fill="#000000" fill-rule="evenodd" fill-opacity="1" /><path clip-path="url(#clip9200)" d="M 0 0 M17606.9 2230.98 L17645.9 2230.98 L17645.9 2278.02 L17606.9 2278.02 L17606.9 2230.98 Z" fill="#000000" fill-rule="evenodd" fill-opacity="1" /><path clip-path="url(#clip9200)" d="M 0 0 M17766.5 2026.17 Q17737.6 2026.17 17723 2054.68 Q17708.5 2083.02 17708.5 2140.05 Q17708.5 2196.91 17723 2225.42 Q17737.6 2253.76 17766.5 2253.76 Q17795.6 2253.76 17810 2225.42 Q17824.6 2196.91 17824.6 2140.05 Q17824.6 2083.02 17810 2054.68 Q17795.6 2026.17 17766.5 2026.17 M17766.5 1996.54 Q17813 1996.54 17837.4 2033.39 Q17862 2070.06 17862 2140.05 Q17862 2209.87 17837.4 2246.72 Q17813 2283.39 17766.5 2283.39 Q17720 2283.39 17695.4 2246.72 Q17670.9 2209.87 17670.9 2140.05 Q17670.9 2070.06 17695.4 2033.39 Q17720 1996.54 17766.5 1996.54 Z" fill="#000000" fill-rule="evenodd" fill-opacity="1" /><polyline clip-path="url(#clip9200)" style="stroke:#e26f46; stroke-width:32; stroke-opacity:1; fill:none" points="
  15249.7,2623.62 16401.7,2623.62 
  "/>
<path clip-path="url(#clip9200)" d="M 0 0 M16593.7 2485.38 L16827.6 2485.38 L16827.6 2516.86 L16729.5 2516.86 L16729.5 2761.86 L16691.9 2761.86 L16691.9 2516.86 L16593.7 2516.86 L16593.7 2485.38 Z" fill="#000000" fill-rule="evenodd" fill-opacity="1" /><path clip-path="url(#clip9200)" d="M 0 0 M16988.3 2589.64 L17225.8 2589.64 L17225.8 2620.75 L16988.3 2620.75 L16988.3 2589.64 M16988.3 2665.19 L17225.8 2665.19 L17225.8 2696.67 L16988.3 2696.67 L16988.3 2665.19 Z" fill="#000000" fill-rule="evenodd" fill-opacity="1" /><path clip-path="url(#clip9200)" d="M 0 0 M17419.1 2730.38 L17549.6 2730.38 L17549.6 2761.86 L17374.1 2761.86 L17374.1 2730.38 Q17395.4 2708.34 17432 2671.3 Q17468.9 2634.08 17478.3 2623.34 Q17496.3 2603.15 17503.3 2589.27 Q17510.6 2575.19 17510.6 2561.67 Q17510.6 2539.64 17495 2525.75 Q17479.6 2511.86 17454.8 2511.86 Q17437.2 2511.86 17417.6 2517.97 Q17398.2 2524.08 17375.9 2536.49 L17375.9 2498.71 Q17398.5 2489.64 17418.2 2485.01 Q17437.8 2480.38 17454.1 2480.38 Q17497 2480.38 17522.6 2501.86 Q17548.2 2523.34 17548.2 2559.27 Q17548.2 2576.3 17541.7 2591.67 Q17535.4 2606.86 17518.5 2627.6 Q17513.9 2632.97 17489.1 2658.71 Q17464.3 2684.26 17419.1 2730.38 Z" fill="#000000" fill-rule="evenodd" fill-opacity="1" /><path clip-path="url(#clip9200)" d="M 0 0 M17590.2 2714.82 L17629.3 2714.82 L17629.3 2761.86 L17590.2 2761.86 L17590.2 2714.82 Z" fill="#000000" fill-rule="evenodd" fill-opacity="1" /><path clip-path="url(#clip9200)" d="M 0 0 M17749.8 2630.56 Q17723.2 2630.56 17707.8 2644.82 Q17692.6 2659.08 17692.6 2684.08 Q17692.6 2709.08 17707.8 2723.34 Q17723.2 2737.6 17749.8 2737.6 Q17776.5 2737.6 17791.9 2723.34 Q17807.2 2708.89 17807.2 2684.08 Q17807.2 2659.08 17791.9 2644.82 Q17776.7 2630.56 17749.8 2630.56 M17712.4 2614.64 Q17688.3 2608.71 17674.8 2592.23 Q17661.5 2575.75 17661.5 2552.04 Q17661.5 2518.9 17685 2499.64 Q17708.7 2480.38 17749.8 2480.38 Q17791.1 2480.38 17814.6 2499.64 Q17838.2 2518.9 17838.2 2552.04 Q17838.2 2575.75 17824.6 2592.23 Q17811.3 2608.71 17787.4 2614.64 Q17814.5 2620.93 17829.5 2639.27 Q17844.6 2657.6 17844.6 2684.08 Q17844.6 2724.26 17820 2745.75 Q17795.6 2767.23 17749.8 2767.23 Q17704.1 2767.23 17679.5 2745.75 Q17655 2724.26 17655 2684.08 Q17655 2657.6 17670.2 2639.27 Q17685.4 2620.93 17712.4 2614.64 M17698.7 2555.56 Q17698.7 2577.04 17712 2589.08 Q17725.6 2601.12 17749.8 2601.12 Q17773.9 2601.12 17787.4 2589.08 Q17801.1 2577.04 17801.1 2555.56 Q17801.1 2534.08 17787.4 2522.04 Q17773.9 2510.01 17749.8 2510.01 Q17725.6 2510.01 17712 2522.04 Q17698.7 2534.08 17698.7 2555.56 Z" fill="#000000" fill-rule="evenodd" fill-opacity="1" /><polyline clip-path="url(#clip9200)" style="stroke:#3da44d; stroke-width:32; stroke-opacity:1; fill:none" points="
  15249.7,3107.46 16401.7,3107.46 
  "/>
<path clip-path="url(#clip9200)" d="M 0 0 M16593.7 2969.22 L16827.6 2969.22 L16827.6 3000.7 L16729.5 3000.7 L16729.5 3245.7 L16691.9 3245.7 L16691.9 3000.7 L16593.7 3000.7 L16593.7 2969.22 Z" fill="#000000" fill-rule="evenodd" fill-opacity="1" /><path clip-path="url(#clip9200)" d="M 0 0 M16988.3 3073.48 L17225.8 3073.48 L17225.8 3104.59 L16988.3 3104.59 L16988.3 3073.48 M16988.3 3149.03 L17225.8 3149.03 L17225.8 3180.51 L16988.3 3180.51 L16988.3 3149.03 Z" fill="#000000" fill-rule="evenodd" fill-opacity="1" /><path clip-path="url(#clip9200)" d="M 0 0 M17419.1 3214.22 L17549.6 3214.22 L17549.6 3245.7 L17374.1 3245.7 L17374.1 3214.22 Q17395.4 3192.18 17432 3155.14 Q17468.9 3117.92 17478.3 3107.18 Q17496.3 3086.99 17503.3 3073.11 Q17510.6 3059.03 17510.6 3045.51 Q17510.6 3023.48 17495 3009.59 Q17479.6 2995.7 17454.8 2995.7 Q17437.2 2995.7 17417.6 3001.81 Q17398.2 3007.92 17375.9 3020.33 L17375.9 2982.55 Q17398.5 2973.48 17418.2 2968.85 Q17437.8 2964.22 17454.1 2964.22 Q17497 2964.22 17522.6 2985.7 Q17548.2 3007.18 17548.2 3043.11 Q17548.2 3060.14 17541.7 3075.51 Q17535.4 3090.7 17518.5 3111.44 Q17513.9 3116.81 17489.1 3142.55 Q17464.3 3168.1 17419.1 3214.22 Z" fill="#000000" fill-rule="evenodd" fill-opacity="1" /><path clip-path="url(#clip9200)" d="M 0 0 M17590.2 3198.66 L17629.3 3198.66 L17629.3 3245.7 L17590.2 3245.7 L17590.2 3198.66 Z" fill="#000000" fill-rule="evenodd" fill-opacity="1" /><path clip-path="url(#clip9200)" d="M 0 0 M17783.2 3096.62 Q17810 3102.36 17825 3120.51 Q17840.2 3138.66 17840.2 3165.33 Q17840.2 3206.25 17812 3228.66 Q17783.9 3251.07 17732 3251.07 Q17714.6 3251.07 17696.1 3247.55 Q17677.8 3244.22 17658.2 3237.36 L17658.2 3201.25 Q17673.7 3210.33 17692.2 3214.96 Q17710.8 3219.59 17730.9 3219.59 Q17766.1 3219.59 17784.5 3205.7 Q17803 3191.81 17803 3165.33 Q17803 3140.88 17785.8 3127.18 Q17768.7 3113.29 17738.2 3113.29 L17705.9 3113.29 L17705.9 3082.55 L17739.6 3082.55 Q17767.2 3082.55 17781.9 3071.62 Q17796.5 3060.51 17796.5 3039.77 Q17796.5 3018.48 17781.3 3007.18 Q17766.3 2995.7 17738.2 2995.7 Q17722.8 2995.7 17705.2 2999.03 Q17687.6 3002.36 17666.5 3009.4 L17666.5 2976.07 Q17687.8 2970.14 17706.3 2967.18 Q17725 2964.22 17741.5 2964.22 Q17784.1 2964.22 17808.9 2983.66 Q17833.7 3002.92 17833.7 3035.88 Q17833.7 3058.85 17820.6 3074.77 Q17807.4 3090.51 17783.2 3096.62 Z" fill="#000000" fill-rule="evenodd" fill-opacity="1" /><polyline clip-path="url(#clip9200)" style="stroke:#c271d2; stroke-width:32; stroke-opacity:1; fill:none" points="
  15249.7,3591.3 16401.7,3591.3 
  "/>
<path clip-path="url(#clip9200)" d="M 0 0 M16593.7 3453.06 L16827.6 3453.06 L16827.6 3484.54 L16729.5 3484.54 L16729.5 3729.54 L16691.9 3729.54 L16691.9 3484.54 L16593.7 3484.54 L16593.7 3453.06 Z" fill="#000000" fill-rule="evenodd" fill-opacity="1" /><path clip-path="url(#clip9200)" d="M 0 0 M16988.3 3557.32 L17225.8 3557.32 L17225.8 3588.43 L16988.3 3588.43 L16988.3 3557.32 M16988.3 3632.87 L17225.8 3632.87 L17225.8 3664.35 L16988.3 3664.35 L16988.3 3632.87 Z" fill="#000000" fill-rule="evenodd" fill-opacity="1" /><path clip-path="url(#clip9200)" d="M 0 0 M17393.3 3698.06 L17454.5 3698.06 L17454.5 3487.13 L17388 3500.46 L17388 3466.39 L17454.1 3453.06 L17491.5 3453.06 L17491.5 3698.06 L17552.6 3698.06 L17552.6 3729.54 L17393.3 3729.54 L17393.3 3698.06 Z" fill="#000000" fill-rule="evenodd" fill-opacity="1" /><path clip-path="url(#clip9200)" d="M 0 0 M17593.2 3682.5 L17632.2 3682.5 L17632.2 3729.54 L17593.2 3729.54 L17593.2 3682.5 Z" fill="#000000" fill-rule="evenodd" fill-opacity="1" /><path clip-path="url(#clip9200)" d="M 0 0 M17673.2 3453.06 L17820 3453.06 L17820 3484.54 L17707.4 3484.54 L17707.4 3552.32 Q17715.6 3549.54 17723.7 3548.24 Q17731.9 3546.76 17740 3546.76 Q17786.3 3546.76 17813.3 3572.13 Q17840.4 3597.5 17840.4 3640.83 Q17840.4 3685.46 17812.6 3710.28 Q17784.8 3734.91 17734.3 3734.91 Q17716.9 3734.91 17698.7 3731.94 Q17680.8 3728.98 17661.5 3723.06 L17661.5 3685.46 Q17678.2 3694.54 17695.9 3698.98 Q17713.7 3703.43 17733.5 3703.43 Q17765.6 3703.43 17784.3 3686.57 Q17803 3669.72 17803 3640.83 Q17803 3611.95 17784.3 3595.09 Q17765.6 3578.24 17733.5 3578.24 Q17718.5 3578.24 17703.5 3581.57 Q17688.7 3584.91 17673.2 3591.95 L17673.2 3453.06 Z" fill="#000000" fill-rule="evenodd" fill-opacity="1" /></svg>
