<?xml version="1.0" encoding="utf-8"?>
<svg xmlns="http://www.w3.org/2000/svg" xmlns:xlink="http://www.w3.org/1999/xlink" width="4800" height="3200" viewBox="0 0 19200 12800">
<defs>
  <clipPath id="clip8000">
    <rect x="0" y="0" width="19200" height="12800"/>
  </clipPath>
</defs>
<path clip-path="url(#clip8000)" d="
M0 12800 L19200 12800 L19200 0 L0 0  Z
  " fill="#ffffff" fill-rule="evenodd" fill-opacity="1"/>
<defs>
  <clipPath id="clip8001">
    <rect x="3840" y="0" width="13441" height="12800"/>
  </clipPath>
</defs>
<path clip-path="url(#clip8000)" d="
M2329.3 11385.4 L18822 11385.4 L18822 987.777 L2329.3 987.777  Z
  " fill="#ffffff" fill-rule="evenodd" fill-opacity="1"/>
<defs>
  <clipPath id="clip8002">
    <rect x="2329" y="987" width="16494" height="10399"/>
  </clipPath>
</defs>
<polyline clip-path="url(#clip8002)" style="stroke:#000000; stroke-width:16; stroke-opacity:0.1; fill:none" points="
  2795.6,11385.4 2795.6,987.777 
  "/>
<polyline clip-path="url(#clip8002)" style="stroke:#000000; stroke-width:16; stroke-opacity:0.1; fill:none" points="
  5169.82,11385.4 5169.82,987.777 
  "/>
<polyline clip-path="url(#clip8002)" style="stroke:#000000; stroke-width:16; stroke-opacity:0.1; fill:none" points="
  7544.03,11385.4 7544.03,987.777 
  "/>
<polyline clip-path="url(#clip8002)" style="stroke:#000000; stroke-width:16; stroke-opacity:0.1; fill:none" points="
  9918.25,11385.4 9918.25,987.777 
  "/>
<polyline clip-path="url(#clip8002)" style="stroke:#000000; stroke-width:16; stroke-opacity:0.1; fill:none" points="
  12292.5,11385.4 12292.5,987.777 
  "/>
<polyline clip-path="url(#clip8002)" style="stroke:#000000; stroke-width:16; stroke-opacity:0.1; fill:none" points="
  14666.7,11385.4 14666.7,987.777 
  "/>
<polyline clip-path="url(#clip8002)" style="stroke:#000000; stroke-width:16; stroke-opacity:0.1; fill:none" points="
  17040.9,11385.4 17040.9,987.777 
  "/>
<polyline clip-path="url(#clip8002)" style="stroke:#000000; stroke-width:16; stroke-opacity:0.1; fill:none" points="
  2329.3,9822.19 18822,9822.19 
  "/>
<polyline clip-path="url(#clip8002)" style="stroke:#000000; stroke-width:16; stroke-opacity:0.1; fill:none" points="
  2329.3,7746.42 18822,7746.42 
  "/>
<polyline clip-path="url(#clip8002)" style="stroke:#000000; stroke-width:16; stroke-opacity:0.1; fill:none" points="
  2329.3,5670.66 18822,5670.66 
  "/>
<polyline clip-path="url(#clip8002)" style="stroke:#000000; stroke-width:16; stroke-opacity:0.1; fill:none" points="
  2329.3,3594.89 18822,3594.89 
  "/>
<polyline clip-path="url(#clip8002)" style="stroke:#000000; stroke-width:16; stroke-opacity:0.1; fill:none" points="
  2329.3,1519.12 18822,1519.12 
  "/>
<polyline clip-path="url(#clip8000)" style="stroke:#000000; stroke-width:32; stroke-opacity:1; fill:none" points="
  2329.3,11385.4 18822,11385.4 
  "/>
<polyline clip-path="url(#clip8000)" style="stroke:#000000; stroke-width:32; stroke-opacity:1; fill:none" points="
  2329.3,11385.4 2329.3,987.777 
  "/>
<polyline clip-path="url(#clip8000)" style="stroke:#000000; stroke-width:32; stroke-opacity:1; fill:none" points="
  2795.6,11385.4 2795.6,11260.7 
  "/>
<polyline clip-path="url(#clip8000)" style="stroke:#000000; stroke-width:32; stroke-opacity:1; fill:none" points="
  5169.82,11385.4 5169.82,11260.7 
  "/>
<polyline clip-path="url(#clip8000)" style="stroke:#000000; stroke-width:32; stroke-opacity:1; fill:none" points="
  7544.03,11385.4 7544.03,11260.7 
  "/>
<polyline clip-path="url(#clip8000)" style="stroke:#000000; stroke-width:32; stroke-opacity:1; fill:none" points="
  9918.25,11385.4 9918.25,11260.7 
  "/>
<polyline clip-path="url(#clip8000)" style="stroke:#000000; stroke-width:32; stroke-opacity:1; fill:none" points="
  12292.5,11385.4 12292.5,11260.7 
  "/>
<polyline clip-path="url(#clip8000)" style="stroke:#000000; stroke-width:32; stroke-opacity:1; fill:none" points="
  14666.7,11385.4 14666.7,11260.7 
  "/>
<polyline clip-path="url(#clip8000)" style="stroke:#000000; stroke-width:32; stroke-opacity:1; fill:none" points="
  17040.9,11385.4 17040.9,11260.7 
  "/>
<polyline clip-path="url(#clip8000)" style="stroke:#000000; stroke-width:32; stroke-opacity:1; fill:none" points="
  2329.3,9822.19 2527.21,9822.19 
  "/>
<polyline clip-path="url(#clip8000)" style="stroke:#000000; stroke-width:32; stroke-opacity:1; fill:none" points="
  2329.3,7746.42 2527.21,7746.42 
  "/>
<polyline clip-path="url(#clip8000)" style="stroke:#000000; stroke-width:32; stroke-opacity:1; fill:none" points="
  2329.3,5670.66 2527.21,5670.66 
  "/>
<polyline clip-path="url(#clip8000)" style="stroke:#000000; stroke-width:32; stroke-opacity:1; fill:none" points="
  2329.3,3594.89 2527.21,3594.89 
  "/>
<polyline clip-path="url(#clip8000)" style="stroke:#000000; stroke-width:32; stroke-opacity:1; fill:none" points="
  2329.3,1519.12 2527.21,1519.12 
  "/>
<path clip-path="url(#clip8000)" d="M 0 0 M2795.6 11561.4 Q2766.71 11561.4 2752.08 11589.9 Q2737.64 11618.2 2737.64 11675.3 Q2737.64 11732.1 2752.08 11760.6 Q2766.71 11789 2795.6 11789 Q2824.67 11789 2839.12 11760.6 Q2853.75 11732.1 2853.75 11675.3 Q2853.75 11618.2 2839.12 11589.9 Q2824.67 11561.4 2795.6 11561.4 M2795.6 11531.7 Q2842.08 11531.7 2866.52 11568.6 Q2891.15 11605.3 2891.15 11675.3 Q2891.15 11745.1 2866.52 11781.9 Q2842.08 11818.6 2795.6 11818.6 Q2749.12 11818.6 2724.49 11781.9 Q2700.04 11745.1 2700.04 11675.3 Q2700.04 11605.3 2724.49 11568.6 Q2749.12 11531.7 2795.6 11531.7 Z" fill="#000000" fill-rule="evenodd" fill-opacity="1" /><path clip-path="url(#clip8000)" d="M 0 0 M4866.39 11954 L4927.5 11954 L4927.5 11743.1 L4861.02 11756.4 L4861.02 11722.3 L4927.13 11709 L4964.54 11709 L4964.54 11954 L5025.65 11954 L5025.65 11985.5 L4866.39 11985.5 L4866.39 11954 Z" fill="#000000" fill-rule="evenodd" fill-opacity="1" /><path clip-path="url(#clip8000)" d="M 0 0 M5064.35 11741.1 L5098.8 11741.1 L5098.8 12022.5 L5064.35 12022.5 L5064.35 11741.1 Z" fill="#000000" fill-rule="evenodd" fill-opacity="1" /><path clip-path="url(#clip8000)" d="M 0 0 M5219.35 11733.6 Q5190.46 11733.6 5175.83 11762.2 Q5161.39 11790.5 5161.39 11847.5 Q5161.39 11904.4 5175.83 11932.9 Q5190.46 11961.2 5219.35 11961.2 Q5248.43 11961.2 5262.87 11932.9 Q5277.5 11904.4 5277.5 11847.5 Q5277.5 11790.5 5262.87 11762.2 Q5248.43 11733.6 5219.35 11733.6 M5219.35 11704 Q5265.83 11704 5290.28 11740.9 Q5314.91 11777.5 5314.91 11847.5 Q5314.91 11917.3 5290.28 11954.2 Q5265.83 11990.9 5219.35 11990.9 Q5172.87 11990.9 5148.24 11954.2 Q5123.8 11917.3 5123.8 11847.5 Q5123.8 11777.5 5148.24 11740.9 Q5172.87 11704 5219.35 11704 Z" fill="#000000" fill-rule="evenodd" fill-opacity="1" /><path clip-path="url(#clip8000)" d="M 0 0 M5416.32 11568.1 L5339.58 11688 L5416.32 11688 L5416.32 11568.1 M5408.34 11541.6 L5446.56 11541.6 L5446.56 11688 L5478.61 11688 L5478.61 11713.3 L5446.56 11713.3 L5446.56 11766.2 L5416.32 11766.2 L5416.32 11713.3 L5314.91 11713.3 L5314.91 11683.9 L5408.34 11541.6 Z" fill="#000000" fill-rule="evenodd" fill-opacity="1" /><path clip-path="url(#clip8000)" d="M 0 0 M7274.78 11954 L7405.33 11954 L7405.33 11985.5 L7229.78 11985.5 L7229.78 11954 Q7251.07 11932 7287.74 11894.9 Q7324.59 11857.7 7334.03 11847 Q7352 11826.8 7359.03 11812.9 Q7366.26 11798.8 7366.26 11785.3 Q7366.26 11763.3 7350.7 11749.4 Q7335.33 11735.5 7310.52 11735.5 Q7292.92 11735.5 7273.29 11741.6 Q7253.85 11747.7 7231.63 11760.1 L7231.63 11722.3 Q7254.22 11713.3 7273.85 11708.6 Q7293.48 11704 7309.78 11704 Q7352.74 11704 7378.29 11725.5 Q7403.85 11747 7403.85 11782.9 Q7403.85 11799.9 7397.37 11815.3 Q7391.07 11830.5 7374.22 11851.2 Q7369.59 11856.6 7344.78 11882.3 Q7319.96 11907.9 7274.78 11954 Z" fill="#000000" fill-rule="evenodd" fill-opacity="1" /><path clip-path="url(#clip8000)" d="M 0 0 M7444.03 11741.1 L7478.48 11741.1 L7478.48 12022.5 L7444.03 12022.5 L7444.03 11741.1 Z" fill="#000000" fill-rule="evenodd" fill-opacity="1" /><path clip-path="url(#clip8000)" d="M 0 0 M7599.03 11733.6 Q7570.14 11733.6 7555.52 11762.2 Q7541.07 11790.5 7541.07 11847.5 Q7541.07 11904.4 7555.52 11932.9 Q7570.14 11961.2 7599.03 11961.2 Q7628.11 11961.2 7642.55 11932.9 Q7657.18 11904.4 7657.18 11847.5 Q7657.18 11790.5 7642.55 11762.2 Q7628.11 11733.6 7599.03 11733.6 M7599.03 11704 Q7645.51 11704 7669.96 11740.9 Q7694.59 11777.5 7694.59 11847.5 Q7694.59 11917.3 7669.96 11954.2 Q7645.51 11990.9 7599.03 11990.9 Q7552.55 11990.9 7527.92 11954.2 Q7503.48 11917.3 7503.48 11847.5 Q7503.48 11777.5 7527.92 11740.9 Q7552.55 11704 7599.03 11704 Z" fill="#000000" fill-rule="evenodd" fill-opacity="1" /><path clip-path="url(#clip8000)" d="M 0 0 M7796 11568.1 L7719.26 11688 L7796 11688 L7796 11568.1 M7788.03 11541.6 L7826.24 11541.6 L7826.24 11688 L7858.29 11688 L7858.29 11713.3 L7826.24 11713.3 L7826.24 11766.2 L7796 11766.2 L7796 11713.3 L7694.59 11713.3 L7694.59 11683.9 L7788.03 11541.6 Z" fill="#000000" fill-rule="evenodd" fill-opacity="1" /><path clip-path="url(#clip8000)" d="M 0 0 M9725.75 11836.4 Q9752.6 11842.2 9767.6 11860.3 Q9782.79 11878.5 9782.79 11905.1 Q9782.79 11946.1 9754.64 11968.5 Q9726.49 11990.9 9674.64 11990.9 Q9657.23 11990.9 9638.72 11987.3 Q9620.38 11984 9600.75 11977.2 L9600.75 11941.1 Q9616.31 11950.1 9634.83 11954.8 Q9653.35 11959.4 9673.53 11959.4 Q9708.72 11959.4 9727.05 11945.5 Q9745.57 11931.6 9745.57 11905.1 Q9745.57 11880.7 9728.35 11867 Q9711.31 11853.1 9680.75 11853.1 L9648.53 11853.1 L9648.53 11822.3 L9682.23 11822.3 Q9709.83 11822.3 9724.46 11811.4 Q9739.09 11800.3 9739.09 11779.6 Q9739.09 11758.3 9723.9 11747 Q9708.9 11735.5 9680.75 11735.5 Q9665.38 11735.5 9647.79 11738.8 Q9630.2 11742.2 9609.09 11749.2 L9609.09 11715.9 Q9630.38 11709.9 9648.9 11707 Q9667.6 11704 9684.09 11704 Q9726.68 11704 9751.49 11723.5 Q9776.31 11742.7 9776.31 11775.7 Q9776.31 11798.6 9763.16 11814.6 Q9750.01 11830.3 9725.75 11836.4 Z" fill="#000000" fill-rule="evenodd" fill-opacity="1" /><path clip-path="url(#clip8000)" d="M 0 0 M9821.49 11741.1 L9855.94 11741.1 L9855.94 12022.5 L9821.49 12022.5 L9821.49 11741.1 Z" fill="#000000" fill-rule="evenodd" fill-opacity="1" /><path clip-path="url(#clip8000)" d="M 0 0 M9976.49 11733.6 Q9947.6 11733.6 9932.97 11762.2 Q9918.53 11790.5 9918.53 11847.5 Q9918.53 11904.4 9932.97 11932.9 Q9947.6 11961.2 9976.49 11961.2 Q10005.6 11961.2 10020 11932.9 Q10034.6 11904.4 10034.6 11847.5 Q10034.6 11790.5 10020 11762.2 Q10005.6 11733.6 9976.49 11733.6 M9976.49 11704 Q10023 11704 10047.4 11740.9 Q10072 11777.5 10072 11847.5 Q10072 11917.3 10047.4 11954.2 Q10023 11990.9 9976.49 11990.9 Q9930.01 11990.9 9905.38 11954.2 Q9880.94 11917.3 9880.94 11847.5 Q9880.94 11777.5 9905.38 11740.9 Q9930.01 11704 9976.49 11704 Z" fill="#000000" fill-rule="evenodd" fill-opacity="1" /><path clip-path="url(#clip8000)" d="M 0 0 M10173.5 11568.1 L10096.7 11688 L10173.5 11688 L10173.5 11568.1 M10165.5 11541.6 L10203.7 11541.6 L10203.7 11688 L10235.7 11688 L10235.7 11713.3 L10203.7 11713.3 L10203.7 11766.2 L10173.5 11766.2 L10173.5 11713.3 L10072 11713.3 L10072 11683.9 L10165.5 11541.6 Z" fill="#000000" fill-rule="evenodd" fill-opacity="1" /><path clip-path="url(#clip8000)" d="M 0 0 M12090.1 11741.6 L11995.6 11889.2 L12090.1 11889.2 L12090.1 11741.6 M12080.2 11709 L12127.3 11709 L12127.3 11889.2 L12166.7 11889.2 L12166.7 11920.3 L12127.3 11920.3 L12127.3 11985.5 L12090.1 11985.5 L12090.1 11920.3 L11965.2 11920.3 L11965.2 11884.2 L12080.2 11709 Z" fill="#000000" fill-rule="evenodd" fill-opacity="1" /><path clip-path="url(#clip8000)" d="M 0 0 M12205.4 11741.1 L12239.9 11741.1 L12239.9 12022.5 L12205.4 12022.5 L12205.4 11741.1 Z" fill="#000000" fill-rule="evenodd" fill-opacity="1" /><path clip-path="url(#clip8000)" d="M 0 0 M12360.4 11733.6 Q12331.5 11733.6 12316.9 11762.2 Q12302.5 11790.5 12302.5 11847.5 Q12302.5 11904.4 12316.9 11932.9 Q12331.5 11961.2 12360.4 11961.2 Q12389.5 11961.2 12404 11932.9 Q12418.6 11904.4 12418.6 11847.5 Q12418.6 11790.5 12404 11762.2 Q12389.5 11733.6 12360.4 11733.6 M12360.4 11704 Q12406.9 11704 12431.4 11740.9 Q12456 11777.5 12456 11847.5 Q12456 11917.3 12431.4 11954.2 Q12406.9 11990.9 12360.4 11990.9 Q12314 11990.9 12289.3 11954.2 Q12264.9 11917.3 12264.9 11847.5 Q12264.9 11777.5 12289.3 11740.9 Q12314 11704 12360.4 11704 Z" fill="#000000" fill-rule="evenodd" fill-opacity="1" /><path clip-path="url(#clip8000)" d="M 0 0 M12557.4 11568.1 L12480.7 11688 L12557.4 11688 L12557.4 11568.1 M12549.4 11541.6 L12587.6 11541.6 L12587.6 11688 L12619.7 11688 L12619.7 11713.3 L12587.6 11713.3 L12587.6 11766.2 L12557.4 11766.2 L12557.4 11713.3 L12456 11713.3 L12456 11683.9 L12549.4 11541.6 Z" fill="#000000" fill-rule="evenodd" fill-opacity="1" /><path clip-path="url(#clip8000)" d="M 0 0 M14362.4 11709 L14509.3 11709 L14509.3 11740.5 L14396.7 11740.5 L14396.7 11808.3 Q14404.8 11805.5 14413 11804.2 Q14421.1 11802.7 14429.3 11802.7 Q14475.6 11802.7 14502.6 11828.1 Q14529.7 11853.5 14529.7 11896.8 Q14529.7 11941.4 14501.9 11966.2 Q14474.1 11990.9 14423.5 11990.9 Q14406.1 11990.9 14388 11987.9 Q14370 11984.9 14350.8 11979 L14350.8 11941.4 Q14367.4 11950.5 14385.2 11954.9 Q14403 11959.4 14422.8 11959.4 Q14454.8 11959.4 14473.5 11942.5 Q14492.2 11925.7 14492.2 11896.8 Q14492.2 11867.9 14473.5 11851.1 Q14454.8 11834.2 14422.8 11834.2 Q14407.8 11834.2 14392.8 11837.5 Q14378 11840.9 14362.4 11847.9 L14362.4 11709 Z" fill="#000000" fill-rule="evenodd" fill-opacity="1" /><path clip-path="url(#clip8000)" d="M 0 0 M14568.4 11741.1 L14602.8 11741.1 L14602.8 12022.5 L14568.4 12022.5 L14568.4 11741.1 Z" fill="#000000" fill-rule="evenodd" fill-opacity="1" /><path clip-path="url(#clip8000)" d="M 0 0 M14723.4 11733.6 Q14694.5 11733.6 14679.8 11762.2 Q14665.4 11790.5 14665.4 11847.5 Q14665.4 11904.4 14679.8 11932.9 Q14694.5 11961.2 14723.4 11961.2 Q14752.4 11961.2 14766.9 11932.9 Q14781.5 11904.4 14781.5 11847.5 Q14781.5 11790.5 14766.9 11762.2 Q14752.4 11733.6 14723.4 11733.6 M14723.4 11704 Q14769.8 11704 14794.3 11740.9 Q14818.9 11777.5 14818.9 11847.5 Q14818.9 11917.3 14794.3 11954.2 Q14769.8 11990.9 14723.4 11990.9 Q14676.9 11990.9 14652.2 11954.2 Q14627.8 11917.3 14627.8 11847.5 Q14627.8 11777.5 14652.2 11740.9 Q14676.9 11704 14723.4 11704 Z" fill="#000000" fill-rule="evenodd" fill-opacity="1" /><path clip-path="url(#clip8000)" d="M 0 0 M14920.3 11568.1 L14843.6 11688 L14920.3 11688 L14920.3 11568.1 M14912.3 11541.6 L14950.6 11541.6 L14950.6 11688 L14982.6 11688 L14982.6 11713.3 L14950.6 11713.3 L14950.6 11766.2 L14920.3 11766.2 L14920.3 11713.3 L14818.9 11713.3 L14818.9 11683.9 L14912.3 11541.6 Z" fill="#000000" fill-rule="evenodd" fill-opacity="1" /><path clip-path="url(#clip8000)" d="M 0 0 M16817.7 11832.3 Q16792.5 11832.3 16777.7 11849.6 Q16763 11866.8 16763 11896.8 Q16763 11926.6 16777.7 11944 Q16792.5 11961.2 16817.7 11961.2 Q16842.8 11961.2 16857.5 11944 Q16872.3 11926.6 16872.3 11896.8 Q16872.3 11866.8 16857.5 11849.6 Q16842.8 11832.3 16817.7 11832.3 M16891.9 11715.1 L16891.9 11749.2 Q16877.8 11742.5 16863.4 11739 Q16849.1 11735.5 16835.1 11735.5 Q16798 11735.5 16778.4 11760.5 Q16759 11785.5 16756.2 11836.1 Q16767.1 11819.9 16783.6 11811.4 Q16800.1 11802.7 16819.9 11802.7 Q16861.6 11802.7 16885.6 11828.1 Q16909.9 11853.3 16909.9 11896.8 Q16909.9 11939.4 16884.7 11965.1 Q16859.5 11990.9 16817.7 11990.9 Q16769.7 11990.9 16744.3 11954.2 Q16719 11917.3 16719 11847.5 Q16719 11782 16750.1 11743.1 Q16781.2 11704 16833.6 11704 Q16847.7 11704 16861.9 11706.8 Q16876.4 11709.6 16891.9 11715.1 Z" fill="#000000" fill-rule="evenodd" fill-opacity="1" /><path clip-path="url(#clip8000)" d="M 0 0 M16948.6 11741.1 L16983 11741.1 L16983 12022.5 L16948.6 12022.5 L16948.6 11741.1 Z" fill="#000000" fill-rule="evenodd" fill-opacity="1" /><path clip-path="url(#clip8000)" d="M 0 0 M17103.6 11733.6 Q17074.7 11733.6 17060.1 11762.2 Q17045.6 11790.5 17045.6 11847.5 Q17045.6 11904.4 17060.1 11932.9 Q17074.7 11961.2 17103.6 11961.2 Q17132.7 11961.2 17147.1 11932.9 Q17161.7 11904.4 17161.7 11847.5 Q17161.7 11790.5 17147.1 11762.2 Q17132.7 11733.6 17103.6 11733.6 M17103.6 11704 Q17150.1 11704 17174.5 11740.9 Q17199.1 11777.5 17199.1 11847.5 Q17199.1 11917.3 17174.5 11954.2 Q17150.1 11990.9 17103.6 11990.9 Q17057.1 11990.9 17032.5 11954.2 Q17008 11917.3 17008 11847.5 Q17008 11777.5 17032.5 11740.9 Q17057.1 11704 17103.6 11704 Z" fill="#000000" fill-rule="evenodd" fill-opacity="1" /><path clip-path="url(#clip8000)" d="M 0 0 M17300.6 11568.1 L17223.8 11688 L17300.6 11688 L17300.6 11568.1 M17292.6 11541.6 L17330.8 11541.6 L17330.8 11688 L17362.8 11688 L17362.8 11713.3 L17330.8 11713.3 L17330.8 11766.2 L17300.6 11766.2 L17300.6 11713.3 L17199.1 11713.3 L17199.1 11683.9 L17292.6 11541.6 Z" fill="#000000" fill-rule="evenodd" fill-opacity="1" /><path clip-path="url(#clip8000)" d="M 0 0 M1105.64 9708.58 Q1076.75 9708.58 1062.12 9737.1 Q1047.67 9765.43 1047.67 9822.47 Q1047.67 9879.32 1062.12 9907.84 Q1076.75 9936.17 1105.64 9936.17 Q1134.71 9936.17 1149.15 9907.84 Q1163.78 9879.32 1163.78 9822.47 Q1163.78 9765.43 1149.15 9737.1 Q1134.71 9708.58 1105.64 9708.58 M1105.64 9678.95 Q1152.12 9678.95 1176.56 9715.8 Q1201.19 9752.47 1201.19 9822.47 Q1201.19 9892.28 1176.56 9929.13 Q1152.12 9965.8 1105.64 9965.8 Q1059.16 9965.8 1034.53 9929.13 Q1010.08 9892.28 1010.08 9822.47 Q1010.08 9752.47 1034.53 9715.8 Q1059.16 9678.95 1105.64 9678.95 Z" fill="#000000" fill-rule="evenodd" fill-opacity="1" /><path clip-path="url(#clip8000)" d="M 0 0 M1241.75 9913.39 L1280.82 9913.39 L1280.82 9960.43 L1241.75 9960.43 L1241.75 9913.39 Z" fill="#000000" fill-rule="evenodd" fill-opacity="1" /><path clip-path="url(#clip8000)" d="M 0 0 M1401.38 9708.58 Q1372.49 9708.58 1357.86 9737.1 Q1343.41 9765.43 1343.41 9822.47 Q1343.41 9879.32 1357.86 9907.84 Q1372.49 9936.17 1401.38 9936.17 Q1430.45 9936.17 1444.89 9907.84 Q1459.52 9879.32 1459.52 9822.47 Q1459.52 9765.43 1444.89 9737.1 Q1430.45 9708.58 1401.38 9708.58 M1401.38 9678.95 Q1447.86 9678.95 1472.3 9715.8 Q1496.93 9752.47 1496.93 9822.47 Q1496.93 9892.28 1472.3 9929.13 Q1447.86 9965.8 1401.38 9965.8 Q1354.89 9965.8 1330.26 9929.13 Q1305.82 9892.28 1305.82 9822.47 Q1305.82 9752.47 1330.26 9715.8 Q1354.89 9678.95 1401.38 9678.95 Z" fill="#000000" fill-rule="evenodd" fill-opacity="1" /><path clip-path="url(#clip8000)" d="M 0 0 M1617.49 9708.58 Q1588.6 9708.58 1573.97 9737.1 Q1559.52 9765.43 1559.52 9822.47 Q1559.52 9879.32 1573.97 9907.84 Q1588.6 9936.17 1617.49 9936.17 Q1646.56 9936.17 1661 9907.84 Q1675.63 9879.32 1675.63 9822.47 Q1675.63 9765.43 1661 9737.1 Q1646.56 9708.58 1617.49 9708.58 M1617.49 9678.95 Q1663.97 9678.95 1688.41 9715.8 Q1713.04 9752.47 1713.04 9822.47 Q1713.04 9892.28 1688.41 9929.13 Q1663.97 9965.8 1617.49 9965.8 Q1571 9965.8 1546.37 9929.13 Q1521.93 9892.28 1521.93 9822.47 Q1521.93 9752.47 1546.37 9715.8 Q1571 9678.95 1617.49 9678.95 Z" fill="#000000" fill-rule="evenodd" fill-opacity="1" /><path clip-path="url(#clip8000)" d="M 0 0 M1833.6 9708.58 Q1804.71 9708.58 1790.08 9737.1 Q1775.63 9765.43 1775.63 9822.47 Q1775.63 9879.32 1790.08 9907.84 Q1804.71 9936.17 1833.6 9936.17 Q1862.67 9936.17 1877.11 9907.84 Q1891.74 9879.32 1891.74 9822.47 Q1891.74 9765.43 1877.11 9737.1 Q1862.67 9708.58 1833.6 9708.58 M1833.6 9678.95 Q1880.08 9678.95 1904.52 9715.8 Q1929.15 9752.47 1929.15 9822.47 Q1929.15 9892.28 1904.52 9929.13 Q1880.08 9965.8 1833.6 9965.8 Q1787.11 9965.8 1762.48 9929.13 Q1738.04 9892.28 1738.04 9822.47 Q1738.04 9752.47 1762.48 9715.8 Q1787.11 9678.95 1833.6 9678.95 Z" fill="#000000" fill-rule="evenodd" fill-opacity="1" /><path clip-path="url(#clip8000)" d="M 0 0 M1970.08 9683.95 L2116.93 9683.95 L2116.93 9715.43 L2004.34 9715.43 L2004.34 9783.21 Q2012.48 9780.43 2020.63 9779.13 Q2028.78 9777.65 2036.93 9777.65 Q2083.22 9777.65 2110.26 9803.02 Q2137.3 9828.39 2137.3 9871.72 Q2137.3 9916.35 2109.52 9941.17 Q2081.74 9965.8 2031.19 9965.8 Q2013.78 9965.8 1995.63 9962.84 Q1977.67 9959.87 1958.41 9953.95 L1958.41 9916.35 Q1975.08 9925.43 1992.85 9929.87 Q2010.63 9934.32 2030.45 9934.32 Q2062.48 9934.32 2081.19 9917.47 Q2099.89 9900.61 2099.89 9871.72 Q2099.89 9842.84 2081.19 9825.98 Q2062.48 9809.13 2030.45 9809.13 Q2015.45 9809.13 2000.45 9812.47 Q1985.63 9815.8 1970.08 9822.84 L1970.08 9683.95 Z" fill="#000000" fill-rule="evenodd" fill-opacity="1" /><path clip-path="url(#clip8000)" d="M 0 0 M1107.49 7632.81 Q1078.6 7632.81 1063.97 7661.33 Q1049.53 7689.66 1049.53 7746.7 Q1049.53 7803.55 1063.97 7832.07 Q1078.6 7860.4 1107.49 7860.4 Q1136.56 7860.4 1151.01 7832.07 Q1165.64 7803.55 1165.64 7746.7 Q1165.64 7689.66 1151.01 7661.33 Q1136.56 7632.81 1107.49 7632.81 M1107.49 7603.18 Q1153.97 7603.18 1178.41 7640.03 Q1203.04 7676.7 1203.04 7746.7 Q1203.04 7816.51 1178.41 7853.37 Q1153.97 7890.03 1107.49 7890.03 Q1061.01 7890.03 1036.38 7853.37 Q1011.93 7816.51 1011.93 7746.7 Q1011.93 7676.7 1036.38 7640.03 Q1061.01 7603.18 1107.49 7603.18 Z" fill="#000000" fill-rule="evenodd" fill-opacity="1" /><path clip-path="url(#clip8000)" d="M 0 0 M1243.6 7837.63 L1282.67 7837.63 L1282.67 7884.66 L1243.6 7884.66 L1243.6 7837.63 Z" fill="#000000" fill-rule="evenodd" fill-opacity="1" /><path clip-path="url(#clip8000)" d="M 0 0 M1403.23 7632.81 Q1374.34 7632.81 1359.71 7661.33 Q1345.26 7689.66 1345.26 7746.7 Q1345.26 7803.55 1359.71 7832.07 Q1374.34 7860.4 1403.23 7860.4 Q1432.3 7860.4 1446.75 7832.07 Q1461.38 7803.55 1461.38 7746.7 Q1461.38 7689.66 1446.75 7661.33 Q1432.3 7632.81 1403.23 7632.81 M1403.23 7603.18 Q1449.71 7603.18 1474.15 7640.03 Q1498.78 7676.7 1498.78 7746.7 Q1498.78 7816.51 1474.15 7853.37 Q1449.71 7890.03 1403.23 7890.03 Q1356.75 7890.03 1332.12 7853.37 Q1307.67 7816.51 1307.67 7746.7 Q1307.67 7676.7 1332.12 7640.03 Q1356.75 7603.18 1403.23 7603.18 Z" fill="#000000" fill-rule="evenodd" fill-opacity="1" /><path clip-path="url(#clip8000)" d="M 0 0 M1619.34 7632.81 Q1590.45 7632.81 1575.82 7661.33 Q1561.37 7689.66 1561.37 7746.7 Q1561.37 7803.55 1575.82 7832.07 Q1590.45 7860.4 1619.34 7860.4 Q1648.41 7860.4 1662.86 7832.07 Q1677.49 7803.55 1677.49 7746.7 Q1677.49 7689.66 1662.86 7661.33 Q1648.41 7632.81 1619.34 7632.81 M1619.34 7603.18 Q1665.82 7603.18 1690.26 7640.03 Q1714.89 7676.7 1714.89 7746.7 Q1714.89 7816.51 1690.26 7853.37 Q1665.82 7890.03 1619.34 7890.03 Q1572.86 7890.03 1548.23 7853.37 Q1523.78 7816.51 1523.78 7746.7 Q1523.78 7676.7 1548.23 7640.03 Q1572.86 7603.18 1619.34 7603.18 Z" fill="#000000" fill-rule="evenodd" fill-opacity="1" /><path clip-path="url(#clip8000)" d="M 0 0 M1761.93 7853.18 L1823.04 7853.18 L1823.04 7642.26 L1756.56 7655.59 L1756.56 7621.52 L1822.67 7608.18 L1860.08 7608.18 L1860.08 7853.18 L1921.19 7853.18 L1921.19 7884.66 L1761.93 7884.66 L1761.93 7853.18 Z" fill="#000000" fill-rule="evenodd" fill-opacity="1" /><path clip-path="url(#clip8000)" d="M 0 0 M2041.74 7632.81 Q2012.85 7632.81 1998.22 7661.33 Q1983.78 7689.66 1983.78 7746.7 Q1983.78 7803.55 1998.22 7832.07 Q2012.85 7860.4 2041.74 7860.4 Q2070.82 7860.4 2085.26 7832.07 Q2099.89 7803.55 2099.89 7746.7 Q2099.89 7689.66 2085.26 7661.33 Q2070.82 7632.81 2041.74 7632.81 M2041.74 7603.18 Q2088.22 7603.18 2112.67 7640.03 Q2137.3 7676.7 2137.3 7746.7 Q2137.3 7816.51 2112.67 7853.37 Q2088.22 7890.03 2041.74 7890.03 Q1995.26 7890.03 1970.63 7853.37 Q1946.19 7816.51 1946.19 7746.7 Q1946.19 7676.7 1970.63 7640.03 Q1995.26 7603.18 2041.74 7603.18 Z" fill="#000000" fill-rule="evenodd" fill-opacity="1" /><path clip-path="url(#clip8000)" d="M 0 0 M1115.45 5557.05 Q1086.56 5557.05 1071.93 5585.56 Q1057.49 5613.9 1057.49 5670.93 Q1057.49 5727.79 1071.93 5756.3 Q1086.56 5784.64 1115.45 5784.64 Q1144.52 5784.64 1158.97 5756.3 Q1173.6 5727.79 1173.6 5670.93 Q1173.6 5613.9 1158.97 5585.56 Q1144.52 5557.05 1115.45 5557.05 M1115.45 5527.42 Q1161.93 5527.42 1186.38 5564.27 Q1211.01 5600.93 1211.01 5670.93 Q1211.01 5740.75 1186.38 5777.6 Q1161.93 5814.27 1115.45 5814.27 Q1068.97 5814.27 1044.34 5777.6 Q1019.9 5740.75 1019.9 5670.93 Q1019.9 5600.93 1044.34 5564.27 Q1068.97 5527.42 1115.45 5527.42 Z" fill="#000000" fill-rule="evenodd" fill-opacity="1" /><path clip-path="url(#clip8000)" d="M 0 0 M1251.56 5761.86 L1290.64 5761.86 L1290.64 5808.9 L1251.56 5808.9 L1251.56 5761.86 Z" fill="#000000" fill-rule="evenodd" fill-opacity="1" /><path clip-path="url(#clip8000)" d="M 0 0 M1411.19 5557.05 Q1382.3 5557.05 1367.67 5585.56 Q1353.23 5613.9 1353.23 5670.93 Q1353.23 5727.79 1367.67 5756.3 Q1382.3 5784.64 1411.19 5784.64 Q1440.26 5784.64 1454.71 5756.3 Q1469.34 5727.79 1469.34 5670.93 Q1469.34 5613.9 1454.71 5585.56 Q1440.26 5557.05 1411.19 5557.05 M1411.19 5527.42 Q1457.67 5527.42 1482.12 5564.27 Q1506.75 5600.93 1506.75 5670.93 Q1506.75 5740.75 1482.12 5777.6 Q1457.67 5814.27 1411.19 5814.27 Q1364.71 5814.27 1340.08 5777.6 Q1315.64 5740.75 1315.64 5670.93 Q1315.64 5600.93 1340.08 5564.27 Q1364.71 5527.42 1411.19 5527.42 Z" fill="#000000" fill-rule="evenodd" fill-opacity="1" /><path clip-path="url(#clip8000)" d="M 0 0 M1627.3 5557.05 Q1598.41 5557.05 1583.78 5585.56 Q1569.34 5613.9 1569.34 5670.93 Q1569.34 5727.79 1583.78 5756.3 Q1598.41 5784.64 1627.3 5784.64 Q1656.37 5784.64 1670.82 5756.3 Q1685.45 5727.79 1685.45 5670.93 Q1685.45 5613.9 1670.82 5585.56 Q1656.37 5557.05 1627.3 5557.05 M1627.3 5527.42 Q1673.78 5527.42 1698.23 5564.27 Q1722.86 5600.93 1722.86 5670.93 Q1722.86 5740.75 1698.23 5777.6 Q1673.78 5814.27 1627.3 5814.27 Q1580.82 5814.27 1556.19 5777.6 Q1531.75 5740.75 1531.75 5670.93 Q1531.75 5600.93 1556.19 5564.27 Q1580.82 5527.42 1627.3 5527.42 Z" fill="#000000" fill-rule="evenodd" fill-opacity="1" /><path clip-path="url(#clip8000)" d="M 0 0 M1769.89 5777.41 L1831 5777.41 L1831 5566.49 L1764.52 5579.82 L1764.52 5545.75 L1830.63 5532.42 L1868.04 5532.42 L1868.04 5777.41 L1929.15 5777.41 L1929.15 5808.9 L1769.89 5808.9 L1769.89 5777.41 Z" fill="#000000" fill-rule="evenodd" fill-opacity="1" /><path clip-path="url(#clip8000)" d="M 0 0 M1970.08 5532.42 L2116.93 5532.42 L2116.93 5563.9 L2004.34 5563.9 L2004.34 5631.67 Q2012.48 5628.9 2020.63 5627.6 Q2028.78 5626.12 2036.93 5626.12 Q2083.22 5626.12 2110.26 5651.49 Q2137.3 5676.86 2137.3 5720.19 Q2137.3 5764.82 2109.52 5789.64 Q2081.74 5814.27 2031.19 5814.27 Q2013.78 5814.27 1995.63 5811.3 Q1977.67 5808.34 1958.41 5802.41 L1958.41 5764.82 Q1975.08 5773.9 1992.85 5778.34 Q2010.63 5782.78 2030.45 5782.78 Q2062.48 5782.78 2081.19 5765.93 Q2099.89 5749.08 2099.89 5720.19 Q2099.89 5691.3 2081.19 5674.45 Q2062.48 5657.6 2030.45 5657.6 Q2015.45 5657.6 2000.45 5660.93 Q1985.63 5664.27 1970.08 5671.3 L1970.08 5532.42 Z" fill="#000000" fill-rule="evenodd" fill-opacity="1" /><path clip-path="url(#clip8000)" d="M 0 0 M1110.45 3481.28 Q1081.56 3481.28 1066.93 3509.8 Q1052.49 3538.13 1052.49 3595.17 Q1052.49 3652.02 1066.93 3680.54 Q1081.56 3708.87 1110.45 3708.87 Q1139.53 3708.87 1153.97 3680.54 Q1168.6 3652.02 1168.6 3595.17 Q1168.6 3538.13 1153.97 3509.8 Q1139.53 3481.28 1110.45 3481.28 M1110.45 3451.65 Q1156.93 3451.65 1181.38 3488.5 Q1206.01 3525.17 1206.01 3595.17 Q1206.01 3664.98 1181.38 3701.83 Q1156.93 3738.5 1110.45 3738.5 Q1063.97 3738.5 1039.34 3701.83 Q1014.9 3664.98 1014.9 3595.17 Q1014.9 3525.17 1039.34 3488.5 Q1063.97 3451.65 1110.45 3451.65 Z" fill="#000000" fill-rule="evenodd" fill-opacity="1" /><path clip-path="url(#clip8000)" d="M 0 0 M1246.56 3686.09 L1285.64 3686.09 L1285.64 3733.13 L1246.56 3733.13 L1246.56 3686.09 Z" fill="#000000" fill-rule="evenodd" fill-opacity="1" /><path clip-path="url(#clip8000)" d="M 0 0 M1406.19 3481.28 Q1377.3 3481.28 1362.67 3509.8 Q1348.23 3538.13 1348.23 3595.17 Q1348.23 3652.02 1362.67 3680.54 Q1377.3 3708.87 1406.19 3708.87 Q1435.26 3708.87 1449.71 3680.54 Q1464.34 3652.02 1464.34 3595.17 Q1464.34 3538.13 1449.71 3509.8 Q1435.26 3481.28 1406.19 3481.28 M1406.19 3451.65 Q1452.67 3451.65 1477.12 3488.5 Q1501.75 3525.17 1501.75 3595.17 Q1501.75 3664.98 1477.12 3701.83 Q1452.67 3738.5 1406.19 3738.5 Q1359.71 3738.5 1335.08 3701.83 Q1310.64 3664.98 1310.64 3595.17 Q1310.64 3525.17 1335.08 3488.5 Q1359.71 3451.65 1406.19 3451.65 Z" fill="#000000" fill-rule="evenodd" fill-opacity="1" /><path clip-path="url(#clip8000)" d="M 0 0 M1622.3 3481.28 Q1593.41 3481.28 1578.78 3509.8 Q1564.34 3538.13 1564.34 3595.17 Q1564.34 3652.02 1578.78 3680.54 Q1593.41 3708.87 1622.3 3708.87 Q1651.37 3708.87 1665.82 3680.54 Q1680.45 3652.02 1680.45 3595.17 Q1680.45 3538.13 1665.82 3509.8 Q1651.37 3481.28 1622.3 3481.28 M1622.3 3451.65 Q1668.78 3451.65 1693.23 3488.5 Q1717.86 3525.17 1717.86 3595.17 Q1717.86 3664.98 1693.23 3701.83 Q1668.78 3738.5 1622.3 3738.5 Q1575.82 3738.5 1551.19 3701.83 Q1526.75 3664.98 1526.75 3595.17 Q1526.75 3525.17 1551.19 3488.5 Q1575.82 3451.65 1622.3 3451.65 Z" fill="#000000" fill-rule="evenodd" fill-opacity="1" /><path clip-path="url(#clip8000)" d="M 0 0 M1790.63 3701.65 L1921.19 3701.65 L1921.19 3733.13 L1745.63 3733.13 L1745.63 3701.65 Q1766.93 3679.61 1803.6 3642.57 Q1840.45 3605.35 1849.89 3594.61 Q1867.85 3574.43 1874.89 3560.54 Q1882.11 3546.46 1882.11 3532.95 Q1882.11 3510.91 1866.56 3497.02 Q1851.19 3483.13 1826.37 3483.13 Q1808.78 3483.13 1789.15 3489.24 Q1769.71 3495.35 1747.48 3507.76 L1747.48 3469.98 Q1770.08 3460.91 1789.71 3456.28 Q1809.34 3451.65 1825.63 3451.65 Q1868.6 3451.65 1894.15 3473.13 Q1919.71 3494.61 1919.71 3530.54 Q1919.71 3547.58 1913.22 3562.95 Q1906.93 3578.13 1890.08 3598.87 Q1885.45 3604.24 1860.63 3629.98 Q1835.82 3655.54 1790.63 3701.65 Z" fill="#000000" fill-rule="evenodd" fill-opacity="1" /><path clip-path="url(#clip8000)" d="M 0 0 M2041.74 3481.28 Q2012.85 3481.28 1998.22 3509.8 Q1983.78 3538.13 1983.78 3595.17 Q1983.78 3652.02 1998.22 3680.54 Q2012.85 3708.87 2041.74 3708.87 Q2070.82 3708.87 2085.26 3680.54 Q2099.89 3652.02 2099.89 3595.17 Q2099.89 3538.13 2085.26 3509.8 Q2070.82 3481.28 2041.74 3481.28 M2041.74 3451.65 Q2088.22 3451.65 2112.67 3488.5 Q2137.3 3525.17 2137.3 3595.17 Q2137.3 3664.98 2112.67 3701.83 Q2088.22 3738.5 2041.74 3738.5 Q1995.26 3738.5 1970.63 3701.83 Q1946.19 3664.98 1946.19 3595.17 Q1946.19 3525.17 1970.63 3488.5 Q1995.26 3451.65 2041.74 3451.65 Z" fill="#000000" fill-rule="evenodd" fill-opacity="1" /><path clip-path="url(#clip8000)" d="M 0 0 M1118.41 1405.51 Q1089.53 1405.51 1074.9 1434.03 Q1060.45 1462.37 1060.45 1519.4 Q1060.45 1576.25 1074.9 1604.77 Q1089.53 1633.1 1118.41 1633.1 Q1147.49 1633.1 1161.93 1604.77 Q1176.56 1576.25 1176.56 1519.4 Q1176.56 1462.37 1161.93 1434.03 Q1147.49 1405.51 1118.41 1405.51 M1118.41 1375.88 Q1164.9 1375.88 1189.34 1412.74 Q1213.97 1449.4 1213.97 1519.4 Q1213.97 1589.22 1189.34 1626.07 Q1164.9 1662.73 1118.41 1662.73 Q1071.93 1662.73 1047.3 1626.07 Q1022.86 1589.22 1022.86 1519.4 Q1022.86 1449.4 1047.3 1412.74 Q1071.93 1375.88 1118.41 1375.88 Z" fill="#000000" fill-rule="evenodd" fill-opacity="1" /><path clip-path="url(#clip8000)" d="M 0 0 M1254.52 1610.33 L1293.6 1610.33 L1293.6 1657.36 L1254.52 1657.36 L1254.52 1610.33 Z" fill="#000000" fill-rule="evenodd" fill-opacity="1" /><path clip-path="url(#clip8000)" d="M 0 0 M1414.15 1405.51 Q1385.26 1405.51 1370.63 1434.03 Q1356.19 1462.37 1356.19 1519.4 Q1356.19 1576.25 1370.63 1604.77 Q1385.26 1633.1 1414.15 1633.1 Q1443.23 1633.1 1457.67 1604.77 Q1472.3 1576.25 1472.3 1519.4 Q1472.3 1462.37 1457.67 1434.03 Q1443.23 1405.51 1414.15 1405.51 M1414.15 1375.88 Q1460.63 1375.88 1485.08 1412.74 Q1509.71 1449.4 1509.71 1519.4 Q1509.71 1589.22 1485.08 1626.07 Q1460.63 1662.73 1414.15 1662.73 Q1367.67 1662.73 1343.04 1626.07 Q1318.6 1589.22 1318.6 1519.4 Q1318.6 1449.4 1343.04 1412.74 Q1367.67 1375.88 1414.15 1375.88 Z" fill="#000000" fill-rule="evenodd" fill-opacity="1" /><path clip-path="url(#clip8000)" d="M 0 0 M1630.26 1405.51 Q1601.37 1405.51 1586.74 1434.03 Q1572.3 1462.37 1572.3 1519.4 Q1572.3 1576.25 1586.74 1604.77 Q1601.37 1633.1 1630.26 1633.1 Q1659.34 1633.1 1673.78 1604.77 Q1688.41 1576.25 1688.41 1519.4 Q1688.41 1462.37 1673.78 1434.03 Q1659.34 1405.51 1630.26 1405.51 M1630.26 1375.88 Q1676.74 1375.88 1701.19 1412.74 Q1725.82 1449.4 1725.82 1519.4 Q1725.82 1589.22 1701.19 1626.07 Q1676.74 1662.73 1630.26 1662.73 Q1583.78 1662.73 1559.15 1626.07 Q1534.71 1589.22 1534.71 1519.4 Q1534.71 1449.4 1559.15 1412.74 Q1583.78 1375.88 1630.26 1375.88 Z" fill="#000000" fill-rule="evenodd" fill-opacity="1" /><path clip-path="url(#clip8000)" d="M 0 0 M1798.6 1625.88 L1929.15 1625.88 L1929.15 1657.36 L1753.6 1657.36 L1753.6 1625.88 Q1774.89 1603.85 1811.56 1566.81 Q1848.41 1529.59 1857.85 1518.85 Q1875.82 1498.66 1882.85 1484.77 Q1890.08 1470.7 1890.08 1457.18 Q1890.08 1435.14 1874.52 1421.25 Q1859.15 1407.37 1834.34 1407.37 Q1816.74 1407.37 1797.11 1413.48 Q1777.67 1419.59 1755.45 1431.99 L1755.45 1394.22 Q1778.04 1385.14 1797.67 1380.51 Q1817.3 1375.88 1833.6 1375.88 Q1876.56 1375.88 1902.11 1397.37 Q1927.67 1418.85 1927.67 1454.77 Q1927.67 1471.81 1921.19 1487.18 Q1914.89 1502.36 1898.04 1523.11 Q1893.41 1528.48 1868.6 1554.22 Q1843.78 1579.77 1798.6 1625.88 Z" fill="#000000" fill-rule="evenodd" fill-opacity="1" /><path clip-path="url(#clip8000)" d="M 0 0 M1970.08 1380.88 L2116.93 1380.88 L2116.93 1412.37 L2004.34 1412.37 L2004.34 1480.14 Q2012.48 1477.36 2020.63 1476.07 Q2028.78 1474.59 2036.93 1474.59 Q2083.22 1474.59 2110.26 1499.96 Q2137.3 1525.33 2137.3 1568.66 Q2137.3 1613.29 2109.52 1638.1 Q2081.74 1662.73 2031.19 1662.73 Q2013.78 1662.73 1995.63 1659.77 Q1977.67 1656.81 1958.41 1650.88 L1958.41 1613.29 Q1975.08 1622.36 1992.85 1626.81 Q2010.63 1631.25 2030.45 1631.25 Q2062.48 1631.25 2081.19 1614.4 Q2099.89 1597.55 2099.89 1568.66 Q2099.89 1539.77 2081.19 1522.92 Q2062.48 1506.07 2030.45 1506.07 Q2015.45 1506.07 2000.45 1509.4 Q1985.63 1512.74 1970.08 1519.77 L1970.08 1380.88 Z" fill="#000000" fill-rule="evenodd" fill-opacity="1" /><path clip-path="url(#clip8000)" d="M 0 0 M2668.63 384.22 L2668.63 413.387 L2394.47 413.387 Q2398.36 474.96 2431.41 507.368 Q2464.79 539.451 2524.1 539.451 Q2558.45 539.451 2590.53 531.025 Q2622.94 522.599 2654.7 505.747 L2654.7 562.136 Q2622.61 575.747 2588.91 582.877 Q2555.21 590.006 2520.53 590.006 Q2433.68 590.006 2382.8 539.451 Q2332.24 488.896 2332.24 402.692 Q2332.24 313.572 2380.21 261.397 Q2428.49 208.897 2510.16 208.897 Q2583.4 208.897 2625.85 256.212 Q2668.63 303.202 2668.63 384.22 M2609 366.72 Q2608.35 317.785 2581.46 288.619 Q2554.88 259.452 2510.81 259.452 Q2460.9 259.452 2430.76 287.647 Q2400.95 315.841 2396.41 367.044 L2609 366.72 Z" fill="#000000" fill-rule="evenodd" fill-opacity="1" /><path clip-path="url(#clip8000)" d="M 0 0 M2941.5 273.387 Q2931.45 267.554 2919.46 264.962 Q2907.8 262.045 2893.54 262.045 Q2842.98 262.045 2815.76 295.1 Q2788.86 327.832 2788.86 389.405 L2788.86 580.608 L2728.91 580.608 L2728.91 217.647 L2788.86 217.647 L2788.86 274.036 Q2807.66 240.98 2837.8 225.101 Q2867.94 208.897 2911.04 208.897 Q2917.19 208.897 2924.65 209.869 Q2932.1 210.517 2941.18 212.138 L2941.5 273.387 Z" fill="#000000" fill-rule="evenodd" fill-opacity="1" /><path clip-path="url(#clip8000)" d="M 0 0 M3202.7 273.387 Q3192.66 267.554 3180.67 264.962 Q3169 262.045 3154.74 262.045 Q3104.18 262.045 3076.96 295.1 Q3050.06 327.832 3050.06 389.405 L3050.06 580.608 L2990.11 580.608 L2990.11 217.647 L3050.06 217.647 L3050.06 274.036 Q3068.86 240.98 3099 225.101 Q3129.14 208.897 3172.24 208.897 Q3178.4 208.897 3185.85 209.869 Q3193.3 210.517 3202.38 212.138 L3202.7 273.387 Z" fill="#000000" fill-rule="evenodd" fill-opacity="1" /><path clip-path="url(#clip8000)" d="M 0 0 M3391.31 259.452 Q3343.35 259.452 3315.48 297.045 Q3287.61 334.313 3287.61 399.452 Q3287.61 464.59 3315.16 502.182 Q3343.03 539.451 3391.31 539.451 Q3438.95 539.451 3466.82 501.858 Q3494.69 464.266 3494.69 399.452 Q3494.69 334.961 3466.82 297.369 Q3438.95 259.452 3391.31 259.452 M3391.31 208.897 Q3469.09 208.897 3513.49 259.452 Q3557.89 310.008 3557.89 399.452 Q3557.89 488.571 3513.49 539.451 Q3469.09 590.006 3391.31 590.006 Q3313.21 590.006 3268.81 539.451 Q3224.74 488.571 3224.74 399.452 Q3224.74 310.008 3268.81 259.452 Q3313.21 208.897 3391.31 208.897 Z" fill="#000000" fill-rule="evenodd" fill-opacity="1" /><path clip-path="url(#clip8000)" d="M 0 0 M3830.75 273.387 Q3820.71 267.554 3808.72 264.962 Q3797.05 262.045 3782.79 262.045 Q3732.24 262.045 3705.01 295.1 Q3678.12 327.832 3678.12 389.405 L3678.12 580.608 L3618.16 580.608 L3618.16 217.647 L3678.12 217.647 L3678.12 274.036 Q3696.91 240.98 3727.05 225.101 Q3757.19 208.897 3800.29 208.897 Q3806.45 208.897 3813.9 209.869 Q3821.36 210.517 3830.43 212.138 L3830.75 273.387 Z" fill="#000000" fill-rule="evenodd" fill-opacity="1" /><path clip-path="url(#clip8000)" d="M 0 0 M4069.6 217.647 L4129.23 217.647 L4203.76 500.886 L4277.97 217.647 L4348.3 217.647 L4422.83 500.886 L4497.05 217.647 L4556.68 217.647 L4461.72 580.608 L4391.4 580.608 L4313.3 283.11 L4234.87 580.608 L4164.55 580.608 L4069.6 217.647 Z" fill="#000000" fill-rule="evenodd" fill-opacity="1" /><path clip-path="url(#clip8000)" d="M 0 0 M4619.22 217.647 L4678.85 217.647 L4678.85 580.608 L4619.22 580.608 L4619.22 217.647 M4619.22 76.3514 L4678.85 76.3514 L4678.85 151.86 L4619.22 151.86 L4619.22 76.3514 Z" fill="#000000" fill-rule="evenodd" fill-opacity="1" /><path clip-path="url(#clip8000)" d="M 0 0 M4800.38 114.592 L4800.38 217.647 L4923.2 217.647 L4923.2 263.989 L4800.38 263.989 L4800.38 461.025 Q4800.38 505.423 4812.37 518.062 Q4824.68 530.701 4861.95 530.701 L4923.2 530.701 L4923.2 580.608 L4861.95 580.608 Q4792.93 580.608 4766.68 555.006 Q4740.43 529.08 4740.43 461.025 L4740.43 263.989 L4696.68 263.989 L4696.68 217.647 L4740.43 217.647 L4740.43 114.592 L4800.38 114.592 Z" fill="#000000" fill-rule="evenodd" fill-opacity="1" /><path clip-path="url(#clip8000)" d="M 0 0 M5287.46 361.535 L5287.46 580.608 L5227.83 580.608 L5227.83 363.48 Q5227.83 311.952 5207.74 286.35 Q5187.65 260.749 5147.46 260.749 Q5099.17 260.749 5071.3 291.535 Q5043.43 322.322 5043.43 375.47 L5043.43 580.608 L4983.48 580.608 L4983.48 76.3514 L5043.43 76.3514 L5043.43 274.036 Q5064.82 241.304 5093.66 225.101 Q5122.83 208.897 5160.75 208.897 Q5223.29 208.897 5255.38 247.786 Q5287.46 286.35 5287.46 361.535 Z" fill="#000000" fill-rule="evenodd" fill-opacity="1" /><path clip-path="url(#clip8000)" d="M 0 0 M5799.82 272.739 L5799.82 76.3514 L5859.45 76.3514 L5859.45 580.608 L5799.82 580.608 L5799.82 526.164 Q5781.02 558.571 5752.18 574.451 Q5723.66 590.006 5683.48 590.006 Q5617.69 590.006 5576.21 537.506 Q5535.05 485.007 5535.05 399.452 Q5535.05 313.896 5576.21 261.397 Q5617.69 208.897 5683.48 208.897 Q5723.66 208.897 5752.18 224.777 Q5781.02 240.332 5799.82 272.739 M5596.62 399.452 Q5596.62 465.238 5623.52 502.831 Q5650.75 540.099 5698.06 540.099 Q5745.37 540.099 5772.6 502.831 Q5799.82 465.238 5799.82 399.452 Q5799.82 333.665 5772.6 296.397 Q5745.37 258.804 5698.06 258.804 Q5650.75 258.804 5623.52 296.397 Q5596.62 333.665 5596.62 399.452 Z" fill="#000000" fill-rule="evenodd" fill-opacity="1" /><path clip-path="url(#clip8000)" d="M 0 0 M5921.99 217.647 L5981.62 217.647 L5981.62 580.608 L5921.99 580.608 L5921.99 217.647 M5921.99 76.3514 L5981.62 76.3514 L5981.62 151.86 L5921.99 151.86 L5921.99 76.3514 Z" fill="#000000" fill-rule="evenodd" fill-opacity="1" /><path clip-path="url(#clip8000)" d="M 0 0 M6227.92 76.3514 L6227.92 125.935 L6170.88 125.935 Q6138.8 125.935 6126.16 138.897 Q6113.84 151.86 6113.84 185.564 L6113.84 217.647 L6212.04 217.647 L6212.04 263.989 L6113.84 263.989 L6113.84 580.608 L6053.89 580.608 L6053.89 263.989 L5996.85 263.989 L5996.85 217.647 L6053.89 217.647 L6053.89 192.369 Q6053.89 131.768 6082.09 104.222 Q6110.28 76.3514 6171.53 76.3514 L6227.92 76.3514 Z" fill="#000000" fill-rule="evenodd" fill-opacity="1" /><path clip-path="url(#clip8000)" d="M 0 0 M6474.21 76.3514 L6474.21 125.935 L6417.18 125.935 Q6385.09 125.935 6372.45 138.897 Q6360.14 151.86 6360.14 185.564 L6360.14 217.647 L6458.33 217.647 L6458.33 263.989 L6360.14 263.989 L6360.14 580.608 L6300.19 580.608 L6300.19 263.989 L6243.15 263.989 L6243.15 217.647 L6300.19 217.647 L6300.19 192.369 Q6300.19 131.768 6328.38 104.222 Q6356.57 76.3514 6417.82 76.3514 L6474.21 76.3514 Z" fill="#000000" fill-rule="evenodd" fill-opacity="1" /><path clip-path="url(#clip8000)" d="M 0 0 M6847.22 384.22 L6847.22 413.387 L6573.05 413.387 Q6576.94 474.96 6610 507.368 Q6643.38 539.451 6702.68 539.451 Q6737.04 539.451 6769.12 531.025 Q6801.53 522.599 6833.28 505.747 L6833.28 562.136 Q6801.2 575.747 6767.5 582.877 Q6733.79 590.006 6699.12 590.006 Q6612.27 590.006 6561.39 539.451 Q6510.83 488.896 6510.83 402.692 Q6510.83 313.572 6558.8 261.397 Q6607.08 208.897 6688.75 208.897 Q6761.99 208.897 6804.44 256.212 Q6847.22 303.202 6847.22 384.22 M6787.59 366.72 Q6786.94 317.785 6760.04 288.619 Q6733.47 259.452 6689.4 259.452 Q6639.49 259.452 6609.35 287.647 Q6579.54 315.841 6575 367.044 L6787.59 366.72 Z" fill="#000000" fill-rule="evenodd" fill-opacity="1" /><path clip-path="url(#clip8000)" d="M 0 0 M7120.09 273.387 Q7110.04 267.554 7098.05 264.962 Q7086.39 262.045 7072.13 262.045 Q7021.57 262.045 6994.35 295.1 Q6967.45 327.832 6967.45 389.405 L6967.45 580.608 L6907.5 580.608 L6907.5 217.647 L6967.45 217.647 L6967.45 274.036 Q6986.25 240.98 7016.39 225.101 Q7046.52 208.897 7089.63 208.897 Q7095.78 208.897 7103.24 209.869 Q7110.69 210.517 7119.76 212.138 L7120.09 273.387 Z" fill="#000000" fill-rule="evenodd" fill-opacity="1" /><path clip-path="url(#clip8000)" d="M 0 0 M7478.51 384.22 L7478.51 413.387 L7204.35 413.387 Q7208.24 474.96 7241.29 507.368 Q7274.67 539.451 7333.98 539.451 Q7368.33 539.451 7400.41 531.025 Q7432.82 522.599 7464.58 505.747 L7464.58 562.136 Q7432.49 575.747 7398.79 582.877 Q7365.09 590.006 7330.41 590.006 Q7243.56 590.006 7192.68 539.451 Q7142.13 488.896 7142.13 402.692 Q7142.13 313.572 7190.09 261.397 Q7238.38 208.897 7320.04 208.897 Q7393.28 208.897 7435.74 256.212 Q7478.51 303.202 7478.51 384.22 M7418.88 366.72 Q7418.24 317.785 7391.34 288.619 Q7364.76 259.452 7320.69 259.452 Q7270.78 259.452 7240.64 287.647 Q7210.83 315.841 7206.29 367.044 L7418.88 366.72 Z" fill="#000000" fill-rule="evenodd" fill-opacity="1" /><path clip-path="url(#clip8000)" d="M 0 0 M7842.77 361.535 L7842.77 580.608 L7783.14 580.608 L7783.14 363.48 Q7783.14 311.952 7763.05 286.35 Q7742.96 260.749 7702.77 260.749 Q7654.48 260.749 7626.61 291.535 Q7598.74 322.322 7598.74 375.47 L7598.74 580.608 L7538.79 580.608 L7538.79 217.647 L7598.74 217.647 L7598.74 274.036 Q7620.13 241.304 7648.98 225.101 Q7678.14 208.897 7716.06 208.897 Q7778.6 208.897 7810.69 247.786 Q7842.77 286.35 7842.77 361.535 Z" fill="#000000" fill-rule="evenodd" fill-opacity="1" /><path clip-path="url(#clip8000)" d="M 0 0 M7964.3 114.592 L7964.3 217.647 L8087.12 217.647 L8087.12 263.989 L7964.3 263.989 L7964.3 461.025 Q7964.3 505.423 7976.29 518.062 Q7988.6 530.701 8025.87 530.701 L8087.12 530.701 L8087.12 580.608 L8025.87 580.608 Q7956.84 580.608 7930.59 555.006 Q7904.34 529.08 7904.34 461.025 L7904.34 263.989 L7860.59 263.989 L7860.59 217.647 L7904.34 217.647 L7904.34 114.592 L7964.3 114.592 Z" fill="#000000" fill-rule="evenodd" fill-opacity="1" /><path clip-path="url(#clip8000)" d="M 0 0 M8621.19 399.452 Q8621.19 333.665 8593.97 296.397 Q8567.07 258.804 8519.76 258.804 Q8472.44 258.804 8445.22 296.397 Q8418.32 333.665 8418.32 399.452 Q8418.32 465.238 8445.22 502.831 Q8472.44 540.099 8519.76 540.099 Q8567.07 540.099 8593.97 502.831 Q8621.19 465.238 8621.19 399.452 M8418.32 272.739 Q8437.12 240.332 8465.64 224.777 Q8494.48 208.897 8534.34 208.897 Q8600.45 208.897 8641.61 261.397 Q8683.09 313.896 8683.09 399.452 Q8683.09 485.007 8641.61 537.506 Q8600.45 590.006 8534.34 590.006 Q8494.48 590.006 8465.64 574.451 Q8437.12 558.571 8418.32 526.164 L8418.32 580.608 L8358.37 580.608 L8358.37 76.3514 L8418.32 76.3514 L8418.32 272.739 Z" fill="#000000" fill-rule="evenodd" fill-opacity="1" /><path clip-path="url(#clip8000)" d="M 0 0 M8745.64 217.647 L8805.27 217.647 L8805.27 580.608 L8745.64 580.608 L8745.64 217.647 M8745.64 76.3514 L8805.27 76.3514 L8805.27 151.86 L8745.64 151.86 L8745.64 76.3514 Z" fill="#000000" fill-rule="evenodd" fill-opacity="1" /><path clip-path="url(#clip8000)" d="M 0 0 M9169.52 361.535 L9169.52 580.608 L9109.89 580.608 L9109.89 363.48 Q9109.89 311.952 9089.8 286.35 Q9069.71 260.749 9029.52 260.749 Q8981.24 260.749 8953.37 291.535 Q8925.5 322.322 8925.5 375.47 L8925.5 580.608 L8865.54 580.608 L8865.54 217.647 L8925.5 217.647 L8925.5 274.036 Q8946.88 241.304 8975.73 225.101 Q9004.89 208.897 9042.81 208.897 Q9105.36 208.897 9137.44 247.786 Q9169.52 286.35 9169.52 361.535 Z" fill="#000000" fill-rule="evenodd" fill-opacity="1" /><path clip-path="url(#clip8000)" d="M 0 0 M9674.43 228.341 L9674.43 284.73 Q9649.15 271.767 9621.93 265.286 Q9594.71 258.804 9565.54 258.804 Q9521.14 258.804 9498.78 272.415 Q9476.74 286.026 9476.74 313.248 Q9476.74 333.989 9492.62 345.98 Q9508.5 357.646 9556.46 368.341 L9576.88 372.878 Q9640.4 386.489 9666.97 411.442 Q9693.87 436.072 9693.87 480.47 Q9693.87 531.025 9653.69 560.516 Q9613.83 590.006 9543.83 590.006 Q9514.66 590.006 9482.9 584.173 Q9451.47 578.664 9416.47 567.321 L9416.47 505.747 Q9449.52 522.923 9481.6 531.673 Q9513.69 540.099 9545.12 540.099 Q9587.25 540.099 9609.94 525.84 Q9632.62 511.257 9632.62 485.007 Q9632.62 460.701 9616.09 447.738 Q9599.89 434.775 9544.47 422.785 L9523.73 417.924 Q9468.32 406.257 9443.69 382.276 Q9419.06 357.97 9419.06 315.841 Q9419.06 264.637 9455.35 236.767 Q9491.65 208.897 9558.41 208.897 Q9591.46 208.897 9620.63 213.758 Q9649.8 218.619 9674.43 228.341 Z" fill="#000000" fill-rule="evenodd" fill-opacity="1" /><path clip-path="url(#clip8000)" d="M 0 0 M9756.42 217.647 L9816.05 217.647 L9816.05 580.608 L9756.42 580.608 L9756.42 217.647 M9756.42 76.3514 L9816.05 76.3514 L9816.05 151.86 L9756.42 151.86 L9756.42 76.3514 Z" fill="#000000" fill-rule="evenodd" fill-opacity="1" /><path clip-path="url(#clip8000)" d="M 0 0 M9852.67 217.647 L10135.9 217.647 L10135.9 272.091 L9911.65 532.969 L10135.9 532.969 L10135.9 580.608 L9844.57 580.608 L9844.57 526.164 L10068.8 265.286 L9852.67 265.286 L9852.67 217.647 Z" fill="#000000" fill-rule="evenodd" fill-opacity="1" /><path clip-path="url(#clip8000)" d="M 0 0 M10508.9 384.22 L10508.9 413.387 L10234.7 413.387 Q10238.6 474.96 10271.7 507.368 Q10305.1 539.451 10364.4 539.451 Q10398.7 539.451 10430.8 531.025 Q10463.2 522.599 10495 505.747 L10495 562.136 Q10462.9 575.747 10429.2 582.877 Q10395.5 590.006 10360.8 590.006 Q10274 590.006 10223.1 539.451 Q10172.5 488.896 10172.5 402.692 Q10172.5 313.572 10220.5 261.397 Q10268.8 208.897 10350.4 208.897 Q10423.7 208.897 10466.1 256.212 Q10508.9 303.202 10508.9 384.22 M10449.3 366.72 Q10448.6 317.785 10421.7 288.619 Q10395.2 259.452 10351.1 259.452 Q10301.2 259.452 10271 287.647 Q10241.2 315.841 10236.7 367.044 L10449.3 366.72 Z" fill="#000000" fill-rule="evenodd" fill-opacity="1" /><path clip-path="url(#clip8000)" d="M 0 0 M10802.8 228.341 L10802.8 284.73 Q10777.6 271.767 10750.3 265.286 Q10723.1 258.804 10694 258.804 Q10649.6 258.804 10627.2 272.415 Q10605.2 286.026 10605.2 313.248 Q10605.2 333.989 10621 345.98 Q10636.9 357.646 10684.9 368.341 L10705.3 372.878 Q10768.8 386.489 10795.4 411.442 Q10822.3 436.072 10822.3 480.47 Q10822.3 531.025 10782.1 560.516 Q10742.2 590.006 10672.2 590.006 Q10643.1 590.006 10611.3 584.173 Q10579.9 578.664 10544.9 567.321 L10544.9 505.747 Q10577.9 522.923 10610 531.673 Q10642.1 540.099 10673.5 540.099 Q10715.7 540.099 10738.4 525.84 Q10761 511.257 10761 485.007 Q10761 460.701 10744.5 447.738 Q10728.3 434.775 10672.9 422.785 L10652.2 417.924 Q10596.7 406.257 10572.1 382.276 Q10547.5 357.97 10547.5 315.841 Q10547.5 264.637 10583.8 236.767 Q10620.1 208.897 10686.8 208.897 Q10719.9 208.897 10749.1 213.758 Q10778.2 218.619 10802.8 228.341 Z" fill="#000000" fill-rule="evenodd" fill-opacity="1" /><path clip-path="url(#clip8000)" d="M 0 0 M11260.8 398.155 Q11188.5 398.155 11160.6 414.683 Q11132.8 431.211 11132.8 471.072 Q11132.8 502.831 11153.5 521.627 Q11174.6 540.099 11210.5 540.099 Q11260.1 540.099 11289.9 505.099 Q11320.1 469.775 11320.1 411.442 L11320.1 398.155 L11260.8 398.155 M11379.7 373.526 L11379.7 580.608 L11320.1 580.608 L11320.1 525.516 Q11299.6 558.571 11269.2 574.451 Q11238.7 590.006 11194.7 590.006 Q11138.9 590.006 11105.9 558.895 Q11073.1 527.46 11073.1 474.96 Q11073.1 413.711 11114 382.6 Q11155.1 351.489 11236.5 351.489 L11320.1 351.489 L11320.1 345.656 Q11320.1 304.498 11292.8 282.137 Q11265.9 259.452 11217 259.452 Q11185.9 259.452 11156.4 266.906 Q11126.9 274.36 11099.7 289.267 L11099.7 234.175 Q11132.4 221.536 11163.2 215.378 Q11194 208.897 11223.2 208.897 Q11301.9 208.897 11340.8 249.73 Q11379.7 290.563 11379.7 373.526 Z" fill="#000000" fill-rule="evenodd" fill-opacity="1" /><path clip-path="url(#clip8000)" d="M 0 0 M11501.2 114.592 L11501.2 217.647 L11624 217.647 L11624 263.989 L11501.2 263.989 L11501.2 461.025 Q11501.2 505.423 11513.2 518.062 Q11525.5 530.701 11562.8 530.701 L11624 530.701 L11624 580.608 L11562.8 580.608 Q11493.8 580.608 11467.5 555.006 Q11441.3 529.08 11441.3 461.025 L11441.3 263.989 L11397.5 263.989 L11397.5 217.647 L11441.3 217.647 L11441.3 114.592 L11501.2 114.592 Z" fill="#000000" fill-rule="evenodd" fill-opacity="1" /><path clip-path="url(#clip8000)" d="M 0 0 M12136.4 272.739 L12136.4 76.3514 L12196 76.3514 L12196 580.608 L12136.4 580.608 L12136.4 526.164 Q12117.6 558.571 12088.8 574.451 Q12060.2 590.006 12020.1 590.006 Q11954.3 590.006 11912.8 537.506 Q11871.6 485.007 11871.6 399.452 Q11871.6 313.896 11912.8 261.397 Q11954.3 208.897 12020.1 208.897 Q12060.2 208.897 12088.8 224.777 Q12117.6 240.332 12136.4 272.739 M11933.2 399.452 Q11933.2 465.238 11960.1 502.831 Q11987.3 540.099 12034.6 540.099 Q12082 540.099 12109.2 502.831 Q12136.4 465.238 12136.4 399.452 Q12136.4 333.665 12109.2 296.397 Q12082 258.804 12034.6 258.804 Q11987.3 258.804 11960.1 296.397 Q11933.2 333.665 11933.2 399.452 Z" fill="#000000" fill-rule="evenodd" fill-opacity="1" /><path clip-path="url(#clip8000)" d="M 0 0 M12258.6 217.647 L12318.2 217.647 L12318.2 580.608 L12258.6 580.608 L12258.6 217.647 M12258.6 76.3514 L12318.2 76.3514 L12318.2 151.86 L12258.6 151.86 L12258.6 76.3514 Z" fill="#000000" fill-rule="evenodd" fill-opacity="1" /><path clip-path="url(#clip8000)" d="M 0 0 M12564.5 76.3514 L12564.5 125.935 L12507.5 125.935 Q12475.4 125.935 12462.7 138.897 Q12450.4 151.86 12450.4 185.564 L12450.4 217.647 L12548.6 217.647 L12548.6 263.989 L12450.4 263.989 L12450.4 580.608 L12390.5 580.608 L12390.5 263.989 L12333.4 263.989 L12333.4 217.647 L12390.5 217.647 L12390.5 192.369 Q12390.5 131.768 12418.7 104.222 Q12446.9 76.3514 12508.1 76.3514 L12564.5 76.3514 Z" fill="#000000" fill-rule="evenodd" fill-opacity="1" /><path clip-path="url(#clip8000)" d="M 0 0 M12810.8 76.3514 L12810.8 125.935 L12753.8 125.935 Q12721.7 125.935 12709 138.897 Q12696.7 151.86 12696.7 185.564 L12696.7 217.647 L12794.9 217.647 L12794.9 263.989 L12696.7 263.989 L12696.7 580.608 L12636.8 580.608 L12636.8 263.989 L12579.7 263.989 L12579.7 217.647 L12636.8 217.647 L12636.8 192.369 Q12636.8 131.768 12665 104.222 Q12693.2 76.3514 12754.4 76.3514 L12810.8 76.3514 Z" fill="#000000" fill-rule="evenodd" fill-opacity="1" /><path clip-path="url(#clip8000)" d="M 0 0 M13183.8 384.22 L13183.8 413.387 L12909.6 413.387 Q12913.5 474.96 12946.6 507.368 Q12980 539.451 13039.3 539.451 Q13073.6 539.451 13105.7 531.025 Q13138.1 522.599 13169.9 505.747 L13169.9 562.136 Q13137.8 575.747 13104.1 582.877 Q13070.4 590.006 13035.7 590.006 Q12948.9 590.006 12898 539.451 Q12847.4 488.896 12847.4 402.692 Q12847.4 313.572 12895.4 261.397 Q12943.7 208.897 13025.3 208.897 Q13098.6 208.897 13141 256.212 Q13183.8 303.202 13183.8 384.22 M13124.2 366.72 Q13123.5 317.785 13096.6 288.619 Q13070.1 259.452 13026 259.452 Q12976.1 259.452 12945.9 287.647 Q12916.1 315.841 12911.6 367.044 L13124.2 366.72 Z" fill="#000000" fill-rule="evenodd" fill-opacity="1" /><path clip-path="url(#clip8000)" d="M 0 0 M13456.7 273.387 Q13446.6 267.554 13434.6 264.962 Q13423 262.045 13408.7 262.045 Q13358.2 262.045 13330.9 295.1 Q13304 327.832 13304 389.405 L13304 580.608 L13244.1 580.608 L13244.1 217.647 L13304 217.647 L13304 274.036 Q13322.8 240.98 13353 225.101 Q13383.1 208.897 13426.2 208.897 Q13432.4 208.897 13439.8 209.869 Q13447.3 210.517 13456.4 212.138 L13456.7 273.387 Z" fill="#000000" fill-rule="evenodd" fill-opacity="1" /><path clip-path="url(#clip8000)" d="M 0 0 M13815.1 384.22 L13815.1 413.387 L13540.9 413.387 Q13544.8 474.96 13577.9 507.368 Q13611.3 539.451 13670.6 539.451 Q13704.9 539.451 13737 531.025 Q13769.4 522.599 13801.2 505.747 L13801.2 562.136 Q13769.1 575.747 13735.4 582.877 Q13701.7 590.006 13667 590.006 Q13580.1 590.006 13529.3 539.451 Q13478.7 488.896 13478.7 402.692 Q13478.7 313.572 13526.7 261.397 Q13575 208.897 13656.6 208.897 Q13729.9 208.897 13772.3 256.212 Q13815.1 303.202 13815.1 384.22 M13755.5 366.72 Q13754.8 317.785 13727.9 288.619 Q13701.4 259.452 13657.3 259.452 Q13607.4 259.452 13577.2 287.647 Q13547.4 315.841 13542.9 367.044 L13755.5 366.72 Z" fill="#000000" fill-rule="evenodd" fill-opacity="1" /><path clip-path="url(#clip8000)" d="M 0 0 M14179.4 361.535 L14179.4 580.608 L14119.7 580.608 L14119.7 363.48 Q14119.7 311.952 14099.6 286.35 Q14079.5 260.749 14039.4 260.749 Q13991.1 260.749 13963.2 291.535 Q13935.3 322.322 13935.3 375.47 L13935.3 580.608 L13875.4 580.608 L13875.4 217.647 L13935.3 217.647 L13935.3 274.036 Q13956.7 241.304 13985.6 225.101 Q14014.7 208.897 14052.6 208.897 Q14115.2 208.897 14147.3 247.786 Q14179.4 286.35 14179.4 361.535 Z" fill="#000000" fill-rule="evenodd" fill-opacity="1" /><path clip-path="url(#clip8000)" d="M 0 0 M14300.9 114.592 L14300.9 217.647 L14423.7 217.647 L14423.7 263.989 L14300.9 263.989 L14300.9 461.025 Q14300.9 505.423 14312.9 518.062 Q14325.2 530.701 14362.5 530.701 L14423.7 530.701 L14423.7 580.608 L14362.5 580.608 Q14293.4 580.608 14267.2 555.006 Q14240.9 529.08 14240.9 461.025 L14240.9 263.989 L14197.2 263.989 L14197.2 217.647 L14240.9 217.647 L14240.9 114.592 L14300.9 114.592 Z" fill="#000000" fill-rule="evenodd" fill-opacity="1" /><path clip-path="url(#clip8000)" d="M 0 0 M14632.7 96.768 L15042 96.768 L15042 151.86 L14870.3 151.86 L14870.3 580.608 L14804.5 580.608 L14804.5 151.86 L14632.7 151.86 L14632.7 96.768 Z" fill="#000000" fill-rule="evenodd" fill-opacity="1" /><path clip-path="url(#clip8000)" d="M 0 0 M15302.3 384.22 L15302.3 413.387 L15028.1 413.387 Q15032 474.96 15065 507.368 Q15098.4 539.451 15157.7 539.451 Q15192.1 539.451 15224.2 531.025 Q15256.6 522.599 15288.3 505.747 L15288.3 562.136 Q15256.2 575.747 15222.5 582.877 Q15188.8 590.006 15154.2 590.006 Q15067.3 590.006 15016.4 539.451 Q14965.9 488.896 14965.9 402.692 Q14965.9 313.572 15013.8 261.397 Q15062.1 208.897 15143.8 208.897 Q15217 208.897 15259.5 256.212 Q15302.3 303.202 15302.3 384.22 M15242.6 366.72 Q15242 317.785 15215.1 288.619 Q15188.5 259.452 15144.4 259.452 Q15094.5 259.452 15064.4 287.647 Q15034.6 315.841 15030 367.044 L15242.6 366.72 Z" fill="#000000" fill-rule="evenodd" fill-opacity="1" /><path clip-path="url(#clip8000)" d="M 0 0 M15647.4 287.323 Q15669.8 247.138 15700.9 228.017 Q15732 208.897 15774.1 208.897 Q15830.8 208.897 15861.6 248.758 Q15892.4 288.295 15892.4 361.535 L15892.4 580.608 L15832.4 580.608 L15832.4 363.48 Q15832.4 311.304 15814 286.026 Q15795.5 260.749 15757.6 260.749 Q15711.2 260.749 15684.3 291.535 Q15657.5 322.322 15657.5 375.47 L15657.5 580.608 L15597.5 580.608 L15597.5 363.48 Q15597.5 310.98 15579 286.026 Q15560.6 260.749 15522 260.749 Q15476.3 260.749 15449.4 291.86 Q15422.5 322.646 15422.5 375.47 L15422.5 580.608 L15362.5 580.608 L15362.5 217.647 L15422.5 217.647 L15422.5 274.036 Q15442.9 240.656 15471.4 224.777 Q15500 208.897 15539.2 208.897 Q15578.7 208.897 15606.2 228.99 Q15634.1 249.082 15647.4 287.323 Z" fill="#000000" fill-rule="evenodd" fill-opacity="1" /><path clip-path="url(#clip8000)" d="M 0 0 M16012.6 526.164 L16012.6 718.663 L15952.7 718.663 L15952.7 217.647 L16012.6 217.647 L16012.6 272.739 Q16031.4 240.332 16059.9 224.777 Q16088.8 208.897 16128.7 208.897 Q16194.8 208.897 16235.9 261.397 Q16277.4 313.896 16277.4 399.452 Q16277.4 485.007 16235.9 537.506 Q16194.8 590.006 16128.7 590.006 Q16088.8 590.006 16059.9 574.451 Q16031.4 558.571 16012.6 526.164 M16215.5 399.452 Q16215.5 333.665 16188.3 296.397 Q16161.4 258.804 16114.1 258.804 Q16066.8 258.804 16039.5 296.397 Q16012.6 333.665 16012.6 399.452 Q16012.6 465.238 16039.5 502.831 Q16066.8 540.099 16114.1 540.099 Q16161.4 540.099 16188.3 502.831 Q16215.5 465.238 16215.5 399.452 Z" fill="#000000" fill-rule="evenodd" fill-opacity="1" /><path clip-path="url(#clip8000)" d="M 0 0 M16650.4 384.22 L16650.4 413.387 L16376.2 413.387 Q16380.1 474.96 16413.2 507.368 Q16446.6 539.451 16505.9 539.451 Q16540.2 539.451 16572.3 531.025 Q16604.7 522.599 16636.5 505.747 L16636.5 562.136 Q16604.4 575.747 16570.7 582.877 Q16537 590.006 16502.3 590.006 Q16415.5 590.006 16364.6 539.451 Q16314 488.896 16314 402.692 Q16314 313.572 16362 261.397 Q16410.3 208.897 16491.9 208.897 Q16565.2 208.897 16607.6 256.212 Q16650.4 303.202 16650.4 384.22 M16590.8 366.72 Q16590.1 317.785 16563.2 288.619 Q16536.7 259.452 16492.6 259.452 Q16442.7 259.452 16412.5 287.647 Q16382.7 315.841 16378.2 367.044 L16590.8 366.72 Z" fill="#000000" fill-rule="evenodd" fill-opacity="1" /><path clip-path="url(#clip8000)" d="M 0 0 M16923.3 273.387 Q16913.2 267.554 16901.2 264.962 Q16889.6 262.045 16875.3 262.045 Q16824.8 262.045 16797.5 295.1 Q16770.6 327.832 16770.6 389.405 L16770.6 580.608 L16710.7 580.608 L16710.7 217.647 L16770.6 217.647 L16770.6 274.036 Q16789.4 240.98 16819.6 225.101 Q16849.7 208.897 16892.8 208.897 Q16899 208.897 16906.4 209.869 Q16913.9 210.517 16923 212.138 L16923.3 273.387 Z" fill="#000000" fill-rule="evenodd" fill-opacity="1" /><path clip-path="url(#clip8000)" d="M 0 0 M17150.8 398.155 Q17078.5 398.155 17050.6 414.683 Q17022.8 431.211 17022.8 471.072 Q17022.8 502.831 17043.5 521.627 Q17064.6 540.099 17100.5 540.099 Q17150.1 540.099 17179.9 505.099 Q17210.1 469.775 17210.1 411.442 L17210.1 398.155 L17150.8 398.155 M17269.7 373.526 L17269.7 580.608 L17210.1 580.608 L17210.1 525.516 Q17189.7 558.571 17159.2 574.451 Q17128.7 590.006 17084.7 590.006 Q17028.9 590.006 16995.9 558.895 Q16963.1 527.46 16963.1 474.96 Q16963.1 413.711 17004 382.6 Q17045.1 351.489 17126.5 351.489 L17210.1 351.489 L17210.1 345.656 Q17210.1 304.498 17182.9 282.137 Q17156 259.452 17107 259.452 Q17075.9 259.452 17046.4 266.906 Q17016.9 274.36 16989.7 289.267 L16989.7 234.175 Q17022.4 221.536 17053.2 215.378 Q17084 208.897 17113.2 208.897 Q17191.9 208.897 17230.8 249.73 Q17269.7 290.563 17269.7 373.526 Z" fill="#000000" fill-rule="evenodd" fill-opacity="1" /><path clip-path="url(#clip8000)" d="M 0 0 M17391.2 114.592 L17391.2 217.647 L17514.1 217.647 L17514.1 263.989 L17391.2 263.989 L17391.2 461.025 Q17391.2 505.423 17403.2 518.062 Q17415.5 530.701 17452.8 530.701 L17514.1 530.701 L17514.1 580.608 L17452.8 580.608 Q17383.8 580.608 17357.5 555.006 Q17331.3 529.08 17331.3 461.025 L17331.3 263.989 L17287.5 263.989 L17287.5 217.647 L17331.3 217.647 L17331.3 114.592 L17391.2 114.592 Z" fill="#000000" fill-rule="evenodd" fill-opacity="1" /><path clip-path="url(#clip8000)" d="M 0 0 M17570.4 437.368 L17570.4 217.647 L17630.1 217.647 L17630.1 435.1 Q17630.1 486.627 17650.2 512.553 Q17670.3 538.155 17710.4 538.155 Q17758.7 538.155 17786.6 507.368 Q17814.8 476.581 17814.8 423.433 L17814.8 217.647 L17874.4 217.647 L17874.4 580.608 L17814.8 580.608 L17814.8 524.868 Q17793.1 557.923 17764.2 574.127 Q17735.7 590.006 17697.8 590.006 Q17635.3 590.006 17602.9 551.117 Q17570.4 512.229 17570.4 437.368 M17720.5 208.897 L17720.5 208.897 Z" fill="#000000" fill-rule="evenodd" fill-opacity="1" /><path clip-path="url(#clip8000)" d="M 0 0 M18147.3 273.387 Q18137.3 267.554 18125.3 264.962 Q18113.6 262.045 18099.3 262.045 Q18048.8 262.045 18021.6 295.1 Q17994.7 327.832 17994.7 389.405 L17994.7 580.608 L17934.7 580.608 L17934.7 217.647 L17994.7 217.647 L17994.7 274.036 Q18013.5 240.98 18043.6 225.101 Q18073.7 208.897 18116.8 208.897 Q18123 208.897 18130.4 209.869 Q18137.9 210.517 18147 212.138 L18147.3 273.387 Z" fill="#000000" fill-rule="evenodd" fill-opacity="1" /><path clip-path="url(#clip8000)" d="M 0 0 M18505.7 384.22 L18505.7 413.387 L18231.6 413.387 Q18235.4 474.96 18268.5 507.368 Q18301.9 539.451 18361.2 539.451 Q18395.5 539.451 18427.6 531.025 Q18460 522.599 18491.8 505.747 L18491.8 562.136 Q18459.7 575.747 18426 582.877 Q18392.3 590.006 18357.6 590.006 Q18270.8 590.006 18219.9 539.451 Q18169.3 488.896 18169.3 402.692 Q18169.3 313.572 18217.3 261.397 Q18265.6 208.897 18347.3 208.897 Q18420.5 208.897 18462.9 256.212 Q18505.7 303.202 18505.7 384.22 M18446.1 366.72 Q18445.4 317.785 18418.5 288.619 Q18392 259.452 18347.9 259.452 Q18298 259.452 18267.9 287.647 Q18238 315.841 18233.5 367.044 L18446.1 366.72 Z" fill="#000000" fill-rule="evenodd" fill-opacity="1" /><path clip-path="url(#clip8000)" d="M 0 0 M18799.7 228.341 L18799.7 284.73 Q18774.4 271.767 18747.2 265.286 Q18719.9 258.804 18690.8 258.804 Q18646.4 258.804 18624 272.415 Q18602 286.026 18602 313.248 Q18602 333.989 18617.9 345.98 Q18633.7 357.646 18681.7 368.341 L18702.1 372.878 Q18765.6 386.489 18792.2 411.442 Q18819.1 436.072 18819.1 480.47 Q18819.1 531.025 18778.9 560.516 Q18739.1 590.006 18669.1 590.006 Q18639.9 590.006 18608.1 584.173 Q18576.7 578.664 18541.7 567.321 L18541.7 505.747 Q18574.7 522.923 18606.8 531.673 Q18638.9 540.099 18670.4 540.099 Q18712.5 540.099 18735.2 525.84 Q18757.9 511.257 18757.9 485.007 Q18757.9 460.701 18741.3 447.738 Q18725.1 434.775 18669.7 422.785 L18649 417.924 Q18593.5 406.257 18568.9 382.276 Q18544.3 357.97 18544.3 315.841 Q18544.3 264.637 18580.6 236.767 Q18616.9 208.897 18683.6 208.897 Q18716.7 208.897 18745.9 213.758 Q18775 218.619 18799.7 228.341 Z" fill="#000000" fill-rule="evenodd" fill-opacity="1" /><path clip-path="url(#clip8000)" d="M 0 0 M9937.32 12306 Q9937.32 12254.3 9915.93 12225 Q9894.8 12195.5 9857.62 12195.5 Q9820.44 12195.5 9799.06 12225 Q9777.92 12254.3 9777.92 12306 Q9777.92 12357.7 9799.06 12387.2 Q9820.44 12416.5 9857.62 12416.5 Q9894.8 12416.5 9915.93 12387.2 Q9937.32 12357.7 9937.32 12306 M9777.92 12206.5 Q9792.69 12181 9815.1 12168.8 Q9837.76 12156.3 9869.08 12156.3 Q9921.02 12156.3 9953.36 12197.5 Q9985.95 12238.8 9985.95 12306 Q9985.95 12373.2 9953.36 12414.5 Q9921.02 12455.7 9869.08 12455.7 Q9837.76 12455.7 9815.1 12443.5 Q9792.69 12431 9777.92 12405.6 L9777.92 12448.4 L9730.82 12448.4 L9730.82 12052.1 L9777.92 12052.1 L9777.92 12206.5 Z" fill="#000000" fill-rule="evenodd" fill-opacity="1" /><path clip-path="url(#clip8000)" d="M 0 0 M10035.1 12163.2 L10081.9 12163.2 L10081.9 12448.4 L10035.1 12448.4 L10035.1 12163.2 M10035.1 12052.1 L10081.9 12052.1 L10081.9 12111.5 L10035.1 12111.5 L10035.1 12052.1 Z" fill="#000000" fill-rule="evenodd" fill-opacity="1" /><path clip-path="url(#clip8000)" d="M 0 0 M10368.2 12276.2 L10368.2 12448.4 L10321.3 12448.4 L10321.3 12277.7 Q10321.3 12237.3 10305.5 12217.1 Q10289.7 12197 10258.2 12197 Q10220.2 12197 10198.3 12221.2 Q10176.4 12245.4 10176.4 12287.2 L10176.4 12448.4 L10129.3 12448.4 L10129.3 12163.2 L10176.4 12163.2 L10176.4 12207.5 Q10193.2 12181.8 10215.9 12169 Q10238.8 12156.3 10268.6 12156.3 Q10317.7 12156.3 10342.9 12186.8 Q10368.2 12217.1 10368.2 12276.2 Z" fill="#000000" fill-rule="evenodd" fill-opacity="1" /><path clip-path="url(#clip8000)" d="M 0 0 M10764.9 12171.6 L10764.9 12215.9 Q10745 12205.7 10723.6 12200.6 Q10702.2 12195.5 10679.3 12195.5 Q10644.4 12195.5 10626.9 12206.2 Q10609.5 12216.9 10609.5 12238.3 Q10609.5 12254.6 10622 12264 Q10634.5 12273.2 10672.2 12281.6 L10688.2 12285.1 Q10738.1 12295.8 10759 12315.4 Q10780.1 12334.8 10780.1 12369.7 Q10780.1 12409.4 10748.6 12432.6 Q10717.2 12455.7 10662.2 12455.7 Q10639.3 12455.7 10614.4 12451.2 Q10589.7 12446.8 10562.2 12437.9 L10562.2 12389.5 Q10588.1 12403 10613.4 12409.9 Q10638.6 12416.5 10663.3 12416.5 Q10696.4 12416.5 10714.2 12405.3 Q10732 12393.9 10732 12373.2 Q10732 12354.1 10719 12344 Q10706.3 12333.8 10662.8 12324.3 L10646.5 12320.5 Q10602.9 12311.4 10583.6 12292.5 Q10564.2 12273.4 10564.2 12240.3 Q10564.2 12200.1 10592.7 12178.2 Q10621.3 12156.3 10673.7 12156.3 Q10699.7 12156.3 10722.6 12160.1 Q10745.5 12163.9 10764.9 12171.6 Z" fill="#000000" fill-rule="evenodd" fill-opacity="1" /><path clip-path="url(#clip8000)" d="M 0 0 M10829.3 12163.2 L10876.1 12163.2 L10876.1 12448.4 L10829.3 12448.4 L10829.3 12163.2 M10829.3 12052.1 L10876.1 12052.1 L10876.1 12111.5 L10829.3 12111.5 L10829.3 12052.1 Z" fill="#000000" fill-rule="evenodd" fill-opacity="1" /><path clip-path="url(#clip8000)" d="M 0 0 M10904.9 12163.2 L11127.5 12163.2 L11127.5 12205.9 L10951.2 12410.9 L11127.5 12410.9 L11127.5 12448.4 L10898.5 12448.4 L10898.5 12405.6 L11074.7 12200.6 L10904.9 12200.6 L10904.9 12163.2 Z" fill="#000000" fill-rule="evenodd" fill-opacity="1" /><path clip-path="url(#clip8000)" d="M 0 0 M11420.5 12294 L11420.5 12317 L11205.1 12317 Q11208.2 12365.3 11234.1 12390.8 Q11260.4 12416 11307 12416 Q11334 12416 11359.2 12409.4 Q11384.6 12402.8 11409.6 12389.5 L11409.6 12433.8 Q11384.4 12444.5 11357.9 12450.1 Q11331.4 12455.7 11304.2 12455.7 Q11235.9 12455.7 11195.9 12416 Q11156.2 12376.3 11156.2 12308.6 Q11156.2 12238.5 11193.9 12197.5 Q11231.8 12156.3 11296 12156.3 Q11353.6 12156.3 11386.9 12193.5 Q11420.5 12230.4 11420.5 12294 M11373.7 12280.3 Q11373.2 12241.8 11352 12218.9 Q11331.2 12196 11296.5 12196 Q11257.3 12196 11233.6 12218.2 Q11210.2 12240.3 11206.6 12280.6 L11373.7 12280.3 Z" fill="#000000" fill-rule="evenodd" fill-opacity="1" /><path clip-path="url(#clip8000)" d="M 0 0 M549.729 6511 L572.645 6511 L572.645 6726.42 Q621.024 6723.36 646.487 6697.39 Q671.695 6671.17 671.695 6624.57 Q671.695 6597.58 665.075 6572.37 Q658.455 6546.91 645.214 6521.95 L689.519 6521.95 Q700.214 6547.16 705.816 6573.64 Q711.417 6600.12 711.417 6627.37 Q711.417 6695.61 671.695 6735.59 Q631.973 6775.31 564.242 6775.31 Q494.22 6775.31 453.224 6737.62 Q411.975 6699.68 411.975 6635.52 Q411.975 6577.97 449.15 6544.62 Q486.071 6511 549.729 6511 M535.979 6557.86 Q497.53 6558.37 474.613 6579.5 Q451.697 6600.38 451.697 6635.01 Q451.697 6674.22 473.849 6697.9 Q496.002 6721.33 536.233 6724.89 L535.979 6557.86 Z" fill="#000000" fill-rule="evenodd" fill-opacity="1" /><path clip-path="url(#clip8000)" d="M 0 0 M462.646 6296.61 Q458.062 6304.5 456.025 6313.92 Q453.734 6323.09 453.734 6334.29 Q453.734 6374.01 479.706 6395.4 Q505.423 6416.54 553.803 6416.54 L704.033 6416.54 L704.033 6463.64 L418.85 6463.64 L418.85 6416.54 L463.155 6416.54 Q437.183 6401.77 424.706 6378.09 Q411.975 6354.41 411.975 6320.54 Q411.975 6315.7 412.739 6309.85 Q413.248 6303.99 414.521 6296.86 L462.646 6296.61 Z" fill="#000000" fill-rule="evenodd" fill-opacity="1" /><path clip-path="url(#clip8000)" d="M 0 0 M462.646 6091.38 Q458.062 6099.27 456.025 6108.69 Q453.734 6117.86 453.734 6129.06 Q453.734 6168.78 479.706 6190.17 Q505.423 6211.31 553.803 6211.31 L704.033 6211.31 L704.033 6258.41 L418.85 6258.41 L418.85 6211.31 L463.155 6211.31 Q437.183 6196.54 424.706 6172.86 Q411.975 6149.18 411.975 6115.31 Q411.975 6110.47 412.739 6104.62 Q413.248 6098.76 414.521 6091.63 L462.646 6091.38 Z" fill="#000000" fill-rule="evenodd" fill-opacity="1" /><path clip-path="url(#clip8000)" d="M 0 0 M451.697 5943.18 Q451.697 5980.87 481.234 6002.77 Q510.516 6024.66 561.696 6024.66 Q612.876 6024.66 642.413 6003.02 Q671.695 5981.12 671.695 5943.18 Q671.695 5905.75 642.159 5883.85 Q612.622 5861.96 561.696 5861.96 Q511.025 5861.96 481.488 5883.85 Q451.697 5905.75 451.697 5943.18 M411.975 5943.18 Q411.975 5882.07 451.697 5847.19 Q491.419 5812.3 561.696 5812.3 Q631.719 5812.3 671.695 5847.19 Q711.417 5882.07 711.417 5943.18 Q711.417 6004.55 671.695 6039.43 Q631.719 6074.06 561.696 6074.06 Q491.419 6074.06 451.697 6039.43 Q411.975 6004.55 411.975 5943.18 Z" fill="#000000" fill-rule="evenodd" fill-opacity="1" /><path clip-path="url(#clip8000)" d="M 0 0 M462.646 5597.91 Q458.062 5605.8 456.025 5615.22 Q453.734 5624.39 453.734 5635.59 Q453.734 5675.31 479.706 5696.7 Q505.423 5717.84 553.803 5717.84 L704.033 5717.84 L704.033 5764.94 L418.85 5764.94 L418.85 5717.84 L463.155 5717.84 Q437.183 5703.07 424.706 5679.39 Q411.975 5655.71 411.975 5621.84 Q411.975 5617 412.739 5611.15 Q413.248 5605.29 414.521 5598.16 L462.646 5597.91 Z" fill="#000000" fill-rule="evenodd" fill-opacity="1" /><polyline clip-path="url(#clip8002)" style="stroke:#009af9; stroke-width:32; stroke-opacity:1; fill:none" points="
  2796.07,11091.2 2796.55,10760.2 2797.5,10297.4 2799.4,9657.01 2803.2,8790.33 2810.79,7660.27 2825.99,6288.96 2856.38,4844.67 2917.16,3484.65 3038.72,2371.13 
  3281.84,1787.05 3768.08,1282.05 4740.56,2013.16 6685.52,2668.85 10575.4,3403.55 18355.3,1494.83 
  "/>
<path clip-path="url(#clip8000)" d="
M15057.7 2623.62 L18246 2623.62 L18246 1655.94 L15057.7 1655.94  Z
  " fill="#ffffff" fill-rule="evenodd" fill-opacity="1"/>
<polyline clip-path="url(#clip8000)" style="stroke:#000000; stroke-width:32; stroke-opacity:1; fill:none" points="
  15057.7,2623.62 18246,2623.62 18246,1655.94 15057.7,1655.94 15057.7,2623.62 
  "/>
<polyline clip-path="url(#clip8000)" style="stroke:#009af9; stroke-width:32; stroke-opacity:1; fill:none" points="
  15249.7,2139.78 16401.7,2139.78 
  "/>
<path clip-path="url(#clip8000)" d="M 0 0 M16593.7 2001.54 L16827.6 2001.54 L16827.6 2033.02 L16729.5 2033.02 L16729.5 2278.02 L16691.9 2278.02 L16691.9 2033.02 L16593.7 2033.02 L16593.7 2001.54 Z" fill="#000000" fill-rule="evenodd" fill-opacity="1" /><path clip-path="url(#clip8000)" d="M 0 0 M16988.3 2105.8 L17225.8 2105.8 L17225.8 2136.91 L16988.3 2136.91 L16988.3 2105.8 M16988.3 2181.35 L17225.8 2181.35 L17225.8 2212.83 L16988.3 2212.83 L16988.3 2181.35 Z" fill="#000000" fill-rule="evenodd" fill-opacity="1" /><path clip-path="url(#clip8000)" d="M 0 0 M17489.6 2034.13 L17395.2 2181.72 L17489.6 2181.72 L17489.6 2034.13 M17479.8 2001.54 L17526.9 2001.54 L17526.9 2181.72 L17566.3 2181.72 L17566.3 2212.83 L17526.9 2212.83 L17526.9 2278.02 L17489.6 2278.02 L17489.6 2212.83 L17364.8 2212.83 L17364.8 2176.72 L17479.8 2001.54 Z" fill="#000000" fill-rule="evenodd" fill-opacity="1" /><path clip-path="url(#clip8000)" d="M 0 0 M17606.9 2230.98 L17645.9 2230.98 L17645.9 2278.02 L17606.9 2278.02 L17606.9 2230.98 Z" fill="#000000" fill-rule="evenodd" fill-opacity="1" /><path clip-path="url(#clip8000)" d="M 0 0 M17766.5 2026.17 Q17737.6 2026.17 17723 2054.68 Q17708.5 2083.02 17708.5 2140.05 Q17708.5 2196.91 17723 2225.42 Q17737.6 2253.76 17766.5 2253.76 Q17795.6 2253.76 17810 2225.42 Q17824.6 2196.91 17824.6 2140.05 Q17824.6 2083.02 17810 2054.68 Q17795.6 2026.17 17766.5 2026.17 M17766.5 1996.54 Q17813 1996.54 17837.4 2033.39 Q17862 2070.06 17862 2140.05 Q17862 2209.87 17837.4 2246.72 Q17813 2283.39 17766.5 2283.39 Q17720 2283.39 17695.4 2246.72 Q17670.9 2209.87 17670.9 2140.05 Q17670.9 2070.06 17695.4 2033.39 Q17720 1996.54 17766.5 1996.54 Z" fill="#000000" fill-rule="evenodd" fill-opacity="1" /></svg>
