<?xml version="1.0" encoding="utf-8"?>
<svg xmlns="http://www.w3.org/2000/svg" xmlns:xlink="http://www.w3.org/1999/xlink" width="4800" height="3200" viewBox="0 0 19200 12800">
<defs>
  <clipPath id="clip7400">
    <rect x="0" y="0" width="19200" height="12800"/>
  </clipPath>
</defs>
<path clip-path="url(#clip7400)" d="
M0 12800 L19200 12800 L19200 0 L0 0  Z
  " fill="#ffffff" fill-rule="evenodd" fill-opacity="1"/>
<defs>
  <clipPath id="clip7401">
    <rect x="3840" y="0" width="13441" height="12800"/>
  </clipPath>
</defs>
<path clip-path="url(#clip7400)" d="
M1393.19 11385.4 L18822 11385.4 L18822 377.953 L1393.19 377.953  Z
  " fill="#ffffff" fill-rule="evenodd" fill-opacity="1"/>
<defs>
  <clipPath id="clip7402">
    <rect x="1393" y="377" width="17430" height="11008"/>
  </clipPath>
</defs>
<polyline clip-path="url(#clip7402)" style="stroke:#000000; stroke-width:16; stroke-opacity:0.1; fill:none" points="
  1550.9,11385.4 1550.9,377.953 
  "/>
<polyline clip-path="url(#clip7402)" style="stroke:#000000; stroke-width:16; stroke-opacity:0.1; fill:none" points="
  4906.48,11385.4 4906.48,377.953 
  "/>
<polyline clip-path="url(#clip7402)" style="stroke:#000000; stroke-width:16; stroke-opacity:0.1; fill:none" points="
  8262.05,11385.4 8262.05,377.953 
  "/>
<polyline clip-path="url(#clip7402)" style="stroke:#000000; stroke-width:16; stroke-opacity:0.1; fill:none" points="
  11617.6,11385.4 11617.6,377.953 
  "/>
<polyline clip-path="url(#clip7402)" style="stroke:#000000; stroke-width:16; stroke-opacity:0.1; fill:none" points="
  14973.2,11385.4 14973.2,377.953 
  "/>
<polyline clip-path="url(#clip7402)" style="stroke:#000000; stroke-width:16; stroke-opacity:0.1; fill:none" points="
  18328.8,11385.4 18328.8,377.953 
  "/>
<polyline clip-path="url(#clip7402)" style="stroke:#000000; stroke-width:16; stroke-opacity:0.1; fill:none" points="
  1393.19,11073.9 18822,11073.9 
  "/>
<polyline clip-path="url(#clip7402)" style="stroke:#000000; stroke-width:16; stroke-opacity:0.1; fill:none" points="
  1393.19,8063.28 18822,8063.28 
  "/>
<polyline clip-path="url(#clip7402)" style="stroke:#000000; stroke-width:16; stroke-opacity:0.1; fill:none" points="
  1393.19,5052.66 18822,5052.66 
  "/>
<polyline clip-path="url(#clip7402)" style="stroke:#000000; stroke-width:16; stroke-opacity:0.1; fill:none" points="
  1393.19,2042.04 18822,2042.04 
  "/>
<polyline clip-path="url(#clip7400)" style="stroke:#000000; stroke-width:32; stroke-opacity:1; fill:none" points="
  1393.19,11385.4 18822,11385.4 
  "/>
<polyline clip-path="url(#clip7400)" style="stroke:#000000; stroke-width:32; stroke-opacity:1; fill:none" points="
  1393.19,11385.4 1393.19,377.953 
  "/>
<polyline clip-path="url(#clip7400)" style="stroke:#000000; stroke-width:32; stroke-opacity:1; fill:none" points="
  1550.9,11385.4 1550.9,11253.3 
  "/>
<polyline clip-path="url(#clip7400)" style="stroke:#000000; stroke-width:32; stroke-opacity:1; fill:none" points="
  4906.48,11385.4 4906.48,11253.3 
  "/>
<polyline clip-path="url(#clip7400)" style="stroke:#000000; stroke-width:32; stroke-opacity:1; fill:none" points="
  8262.05,11385.4 8262.05,11253.3 
  "/>
<polyline clip-path="url(#clip7400)" style="stroke:#000000; stroke-width:32; stroke-opacity:1; fill:none" points="
  11617.6,11385.4 11617.6,11253.3 
  "/>
<polyline clip-path="url(#clip7400)" style="stroke:#000000; stroke-width:32; stroke-opacity:1; fill:none" points="
  14973.2,11385.4 14973.2,11253.3 
  "/>
<polyline clip-path="url(#clip7400)" style="stroke:#000000; stroke-width:32; stroke-opacity:1; fill:none" points="
  18328.8,11385.4 18328.8,11253.3 
  "/>
<polyline clip-path="url(#clip7400)" style="stroke:#000000; stroke-width:32; stroke-opacity:1; fill:none" points="
  1393.19,11073.9 1602.34,11073.9 
  "/>
<polyline clip-path="url(#clip7400)" style="stroke:#000000; stroke-width:32; stroke-opacity:1; fill:none" points="
  1393.19,8063.28 1602.34,8063.28 
  "/>
<polyline clip-path="url(#clip7400)" style="stroke:#000000; stroke-width:32; stroke-opacity:1; fill:none" points="
  1393.19,5052.66 1602.34,5052.66 
  "/>
<polyline clip-path="url(#clip7400)" style="stroke:#000000; stroke-width:32; stroke-opacity:1; fill:none" points="
  1393.19,2042.04 1602.34,2042.04 
  "/>
<path clip-path="url(#clip7400)" d="M 0 0 M1550.9 11561.4 Q1522.01 11561.4 1507.39 11589.9 Q1492.94 11618.2 1492.94 11675.3 Q1492.94 11732.1 1507.39 11760.6 Q1522.01 11789 1550.9 11789 Q1579.98 11789 1594.42 11760.6 Q1609.05 11732.1 1609.05 11675.3 Q1609.05 11618.2 1594.42 11589.9 Q1579.98 11561.4 1550.9 11561.4 M1550.9 11531.7 Q1597.38 11531.7 1621.83 11568.6 Q1646.46 11605.3 1646.46 11675.3 Q1646.46 11745.1 1621.83 11781.9 Q1597.38 11818.6 1550.9 11818.6 Q1504.42 11818.6 1479.79 11781.9 Q1455.35 11745.1 1455.35 11675.3 Q1455.35 11605.3 1479.79 11568.6 Q1504.42 11531.7 1550.9 11531.7 Z" fill="#000000" fill-rule="evenodd" fill-opacity="1" /><path clip-path="url(#clip7400)" d="M 0 0 M4829.53 11781.7 L4890.64 11781.7 L4890.64 11570.8 L4824.16 11584.1 L4824.16 11550.1 L4890.27 11536.7 L4927.68 11536.7 L4927.68 11781.7 L4988.79 11781.7 L4988.79 11813.2 L4829.53 11813.2 L4829.53 11781.7 Z" fill="#000000" fill-rule="evenodd" fill-opacity="1" /><path clip-path="url(#clip7400)" d="M 0 0 M8219.28 11781.7 L8349.83 11781.7 L8349.83 11813.2 L8174.28 11813.2 L8174.28 11781.7 Q8195.57 11759.7 8232.24 11722.7 Q8269.09 11685.4 8278.53 11674.7 Q8296.5 11654.5 8303.53 11640.6 Q8310.76 11626.5 8310.76 11613 Q8310.76 11591 8295.2 11577.1 Q8279.83 11563.2 8255.02 11563.2 Q8237.42 11563.2 8217.79 11569.3 Q8198.35 11575.4 8176.13 11587.8 L8176.13 11550.1 Q8198.72 11541 8218.35 11536.4 Q8237.98 11531.7 8254.28 11531.7 Q8297.24 11531.7 8322.79 11553.2 Q8348.35 11574.7 8348.35 11610.6 Q8348.35 11627.7 8341.87 11643 Q8335.57 11658.2 8318.72 11679 Q8314.09 11684.3 8289.28 11710.1 Q8264.46 11735.6 8219.28 11781.7 Z" fill="#000000" fill-rule="evenodd" fill-opacity="1" /><path clip-path="url(#clip7400)" d="M 0 0 M11651.6 11664.1 Q11678.5 11669.9 11693.5 11688 Q11708.6 11706.2 11708.6 11732.8 Q11708.6 11773.8 11680.5 11796.2 Q11652.4 11818.6 11600.5 11818.6 Q11583.1 11818.6 11564.6 11815.1 Q11546.2 11811.7 11526.6 11804.9 L11526.6 11768.8 Q11542.2 11777.8 11560.7 11782.5 Q11579.2 11787.1 11599.4 11787.1 Q11634.6 11787.1 11652.9 11773.2 Q11671.4 11759.3 11671.4 11732.8 Q11671.4 11708.4 11654.2 11694.7 Q11637.2 11680.8 11606.6 11680.8 L11574.4 11680.8 L11574.4 11650.1 L11608.1 11650.1 Q11635.7 11650.1 11650.3 11639.1 Q11664.9 11628 11664.9 11607.3 Q11664.9 11586 11649.8 11574.7 Q11634.8 11563.2 11606.6 11563.2 Q11591.2 11563.2 11573.6 11566.5 Q11556.1 11569.9 11534.9 11576.9 L11534.9 11543.6 Q11556.2 11537.7 11574.8 11534.7 Q11593.5 11531.7 11609.9 11531.7 Q11652.5 11531.7 11677.3 11551.2 Q11702.2 11570.4 11702.2 11603.4 Q11702.2 11626.4 11689 11642.3 Q11675.9 11658 11651.6 11664.1 Z" fill="#000000" fill-rule="evenodd" fill-opacity="1" /><path clip-path="url(#clip7400)" d="M 0 0 M14997.3 11569.3 L14902.8 11716.9 L14997.3 11716.9 L14997.3 11569.3 M14987.5 11536.7 L15034.5 11536.7 L15034.5 11716.9 L15073.9 11716.9 L15073.9 11748 L15034.5 11748 L15034.5 11813.2 L14997.3 11813.2 L14997.3 11748 L14872.5 11748 L14872.5 11711.9 L14987.5 11536.7 Z" fill="#000000" fill-rule="evenodd" fill-opacity="1" /><path clip-path="url(#clip7400)" d="M 0 0 M18251 11536.7 L18397.9 11536.7 L18397.9 11568.2 L18285.3 11568.2 L18285.3 11636 Q18293.4 11633.2 18301.6 11631.9 Q18309.7 11630.4 18317.9 11630.4 Q18364.1 11630.4 18391.2 11655.8 Q18418.2 11681.2 18418.2 11724.5 Q18418.2 11769.1 18390.4 11794 Q18362.7 11818.6 18312.1 11818.6 Q18294.7 11818.6 18276.6 11815.6 Q18258.6 11812.7 18239.3 11806.7 L18239.3 11769.1 Q18256 11778.2 18273.8 11782.7 Q18291.6 11787.1 18311.4 11787.1 Q18343.4 11787.1 18362.1 11770.3 Q18380.8 11753.4 18380.8 11724.5 Q18380.8 11695.6 18362.1 11678.8 Q18343.4 11661.9 18311.4 11661.9 Q18296.4 11661.9 18281.4 11665.3 Q18266.6 11668.6 18251 11675.6 L18251 11536.7 Z" fill="#000000" fill-rule="evenodd" fill-opacity="1" /><path clip-path="url(#clip7400)" d="M 0 0 M1105.64 10960.3 Q1076.75 10960.3 1062.12 10988.8 Q1047.67 11017.1 1047.67 11074.2 Q1047.67 11131 1062.12 11159.6 Q1076.75 11187.9 1105.64 11187.9 Q1134.71 11187.9 1149.15 11159.6 Q1163.78 11131 1163.78 11074.2 Q1163.78 11017.1 1149.15 10988.8 Q1134.71 10960.3 1105.64 10960.3 M1105.64 10930.7 Q1152.12 10930.7 1176.56 10967.5 Q1201.19 11004.2 1201.19 11074.2 Q1201.19 11144 1176.56 11180.8 Q1152.12 11217.5 1105.64 11217.5 Q1059.16 11217.5 1034.53 11180.8 Q1010.08 11144 1010.08 11074.2 Q1010.08 11004.2 1034.53 10967.5 Q1059.16 10930.7 1105.64 10930.7 Z" fill="#000000" fill-rule="evenodd" fill-opacity="1" /><path clip-path="url(#clip7400)" d="M 0 0 M1041.93 8170.04 L1103.04 8170.04 L1103.04 7959.12 L1036.56 7972.45 L1036.56 7938.38 L1102.67 7925.04 L1140.08 7925.04 L1140.08 8170.04 L1201.19 8170.04 L1201.19 8201.52 L1041.93 8201.52 L1041.93 8170.04 Z" fill="#000000" fill-rule="evenodd" fill-opacity="1" /><path clip-path="url(#clip7400)" d="M 0 0 M1070.64 5159.42 L1201.19 5159.42 L1201.19 5190.9 L1025.64 5190.9 L1025.64 5159.42 Q1046.93 5137.38 1083.6 5100.35 Q1120.45 5063.13 1129.9 5052.38 Q1147.86 5032.2 1154.9 5018.31 Q1162.12 5004.24 1162.12 4990.72 Q1162.12 4968.68 1146.56 4954.79 Q1131.19 4940.9 1106.38 4940.9 Q1088.78 4940.9 1069.16 4947.01 Q1049.71 4953.13 1027.49 4965.53 L1027.49 4927.76 Q1050.08 4918.68 1069.71 4914.05 Q1089.34 4909.42 1105.64 4909.42 Q1148.6 4909.42 1174.15 4930.9 Q1199.71 4952.38 1199.71 4988.31 Q1199.71 5005.35 1193.23 5020.72 Q1186.93 5035.9 1170.08 5056.64 Q1165.45 5062.01 1140.64 5087.75 Q1115.82 5113.31 1070.64 5159.42 Z" fill="#000000" fill-rule="evenodd" fill-opacity="1" /><path clip-path="url(#clip7400)" d="M 0 0 M1144.15 2031.21 Q1171.01 2036.95 1186.01 2055.1 Q1201.19 2073.24 1201.19 2099.91 Q1201.19 2140.84 1173.04 2163.24 Q1144.9 2185.65 1093.04 2185.65 Q1075.64 2185.65 1057.12 2182.13 Q1038.78 2178.8 1019.16 2171.95 L1019.16 2135.84 Q1034.71 2144.91 1053.23 2149.54 Q1071.75 2154.17 1091.93 2154.17 Q1127.12 2154.17 1145.45 2140.28 Q1163.97 2126.39 1163.97 2099.91 Q1163.97 2075.47 1146.75 2061.76 Q1129.71 2047.87 1099.15 2047.87 L1066.93 2047.87 L1066.93 2017.13 L1100.64 2017.13 Q1128.23 2017.13 1142.86 2006.21 Q1157.49 1995.1 1157.49 1974.36 Q1157.49 1953.06 1142.3 1941.76 Q1127.3 1930.28 1099.15 1930.28 Q1083.78 1930.28 1066.19 1933.61 Q1048.6 1936.95 1027.49 1943.99 L1027.49 1910.65 Q1048.78 1904.73 1067.3 1901.76 Q1086.01 1898.8 1102.49 1898.8 Q1145.08 1898.8 1169.9 1918.24 Q1194.71 1937.5 1194.71 1970.47 Q1194.71 1993.43 1181.56 2009.36 Q1168.41 2025.1 1144.15 2031.21 Z" fill="#000000" fill-rule="evenodd" fill-opacity="1" /><path clip-path="url(#clip7400)" d="M 0 0 M9946.82 12068.2 L10268.4 12068.2 L10268.4 12111.5 L10133.5 12111.5 L10133.5 12448.4 L10081.8 12448.4 L10081.8 12111.5 L9946.82 12111.5 L9946.82 12068.2 Z" fill="#000000" fill-rule="evenodd" fill-opacity="1" /><path clip-path="url(#clip7400)" d="M 0 0 M353.156 5728.41 L407.391 5728.41 Q383.202 5754.38 371.234 5783.92 Q359.267 5813.2 359.267 5846.3 Q359.267 5911.49 399.243 5946.12 Q438.965 5980.75 514.335 5980.75 Q589.451 5980.75 629.427 5946.12 Q669.149 5911.49 669.149 5846.3 Q669.149 5813.2 657.182 5783.92 Q645.214 5754.38 621.024 5728.41 L674.751 5728.41 Q693.084 5755.4 702.251 5785.7 Q711.417 5815.75 711.417 5849.36 Q711.417 5935.68 658.709 5985.33 Q605.747 6034.98 514.335 6034.98 Q422.669 6034.98 369.961 5985.33 Q316.998 5935.68 316.998 5849.36 Q316.998 5815.24 326.165 5785.19 Q335.077 5754.89 353.156 5728.41 Z" fill="#000000" fill-rule="evenodd" fill-opacity="1" /><polyline clip-path="url(#clip7402)" style="stroke:#009af9; stroke-width:48; stroke-opacity:1; fill:none" points="
  1886.46,11073.9 1927.67,11073.9 1968.88,11073.9 2010.09,11073.9 2051.3,11073.9 2092.5,11073.9 2133.71,11073.9 2174.92,11073.9 2216.13,11073.9 2257.34,11073.9 
  2298.55,11073.9 2339.76,11073.9 2380.97,11073.9 2422.18,11073.9 2463.38,11073.9 2504.59,11073.9 2545.8,11073.9 2587.01,11073.9 2628.22,11073.9 2669.43,11073.9 
  2710.64,11073.9 2751.85,11073.9 2793.05,11073.9 2834.26,11073.9 2875.47,11073.9 2916.68,11073.9 2957.89,11073.9 2999.1,11073.9 3040.31,11073.9 3081.52,11073.9 
  3122.73,11073.9 3163.93,11073.8 3205.14,11073.9 3246.35,11073.9 3287.56,11073.9 3328.77,11073.9 3369.98,11073.7 3411.19,11073.9 3452.4,11073.5 3493.6,11073.7 
  3534.81,11073.6 3576.02,11073.7 3617.23,11073.6 3658.44,11073.9 3699.65,11073.3 3740.86,11073.2 3782.07,11072.6 3823.28,11072.4 3864.48,11071.8 3905.69,11070.5 
  3946.9,11069 3988.11,11068.7 4029.32,11068.9 4070.53,11069.9 4111.74,11064.6 4152.95,11065.2 4194.15,11062.7 4235.36,11063.6 4276.57,11060.8 4317.78,11057.7 
  4358.99,11061.2 4400.2,11058.6 4441.41,11052.1 4482.62,11043.3 4523.82,11046.9 4565.03,11043.8 4606.24,11037.8 4647.45,11033.4 4688.66,11038.8 4729.87,11026.3 
  4771.08,11019.3 4812.29,11021.4 4853.5,11005.4 4894.7,11007.1 4935.91,10993.9 4977.12,10994.7 5018.33,10982.5 5059.54,10970.6 5100.75,10965.5 5141.96,10960 
  5183.17,10947.5 5224.37,10945.6 5265.58,10939.1 5306.79,10926.8 5348,10914.6 5389.21,10888 5430.42,10871.6 5471.63,10867.1 5512.84,10867.1 5554.05,10841.8 
  5595.25,10831.3 5636.46,10813.1 5677.67,10799.1 5718.88,10771 5760.09,10747.7 5801.3,10735.1 5842.51,10724.9 5883.72,10696.8 5924.92,10667.5 5966.13,10652.8 
  6007.34,10599.1 6048.55,10623.9 6089.76,10581.2 6130.97,10540.2 6172.18,10539.7 6213.39,10502.2 6254.6,10455.2 6295.8,10400.7 6337.01,10415.8 6378.22,10381.6 
  6419.43,10358.2 6460.64,10316.2 6501.85,10255.8 6543.06,10203.5 6584.27,10196 6625.47,10171.8 6666.68,10072.5 6707.89,10038.8 6749.1,10046.3 6790.31,9952.74 
  6831.52,9940.34 6872.73,9890.47 6913.94,9834.7 6955.15,9775.44 6996.35,9666.43 7037.56,9664.83 7078.77,9575.56 7119.98,9453.11 7161.19,9461.64 7202.4,9378.23 
  7243.61,9358.66 7284.82,9211.84 7326.02,9136.02 7367.23,9187.85 7408.44,9069.45 7449.65,9068.03 7490.86,8886.99 7532.07,8714.44 7573.28,8768.61 7614.49,8668.24 
  7655.69,8434.02 7696.9,8080.04 7738.11,8549.31 7779.32,8002.1 7820.53,8236.49 7861.74,7820.55 7902.95,7946.16 7944.16,7908.39 7985.37,7706.73 8026.57,7351.68 
  8067.78,7623.17 8108.99,7226.49 8150.2,6747.18 8191.41,7013.8 8232.62,6775.58 8273.83,6781.42 8315.04,6441.09 8356.24,6568.89 8397.45,6513.94 8438.66,5815.62 
  8479.87,5693.13 8521.08,5873.09 8562.29,4745.53 8603.5,5049 8644.71,4753.9 8685.92,4404.07 8727.12,3993.81 8768.33,4152.68 8809.54,3917.23 8850.75,2867.54 
  8891.96,3415.4 8933.17,2543.05 8974.38,2677.8 9015.59,2436.03 9056.79,2139.68 9098,2590.02 9139.21,2154.03 9180.42,1479.3 9221.63,1716.19 9262.84,689.485 
  9304.05,1547.03 9345.26,954.806 9386.47,1121.62 9427.67,1602.01 9468.88,797.401 9510.09,760.716 9551.3,1348.14 9592.51,1494.13 9633.72,1359.4 9674.93,1547.01 
  9716.14,1721.07 9757.34,2231.75 9798.55,2032.73 9839.76,2198.36 9880.97,2530.83 9922.18,2296.42 9963.39,2394.97 10004.6,2884.29 10045.8,3261.61 10087,3237.23 
  10128.2,3472.93 10169.4,4052.31 10210.6,3761 10251.9,4390.42 10293.1,4566.62 10334.3,4546.66 10375.5,4602.13 10416.7,4601.56 10457.9,4673.52 10499.1,4887.82 
  10540.3,5349.41 10581.5,5293.72 10622.7,5060.53 10663.9,5463.23 10705.1,5335.61 10746.4,5583.34 10787.6,5694.93 10828.8,6092.06 10870,6060.7 10911.2,5914.53 
  10952.4,6169.82 10993.6,6368.36 11034.8,6473.4 11076,6274.99 11117.2,6801.72 11158.4,6665.43 11199.7,6851.43 11240.9,6824.48 11282.1,6847.61 11323.3,6879.27 
  11364.5,7077.21 11405.7,6865.45 11446.9,7059.23 11488.1,7106.99 11529.3,7171.25 11570.5,7187.29 11611.7,7286.98 11652.9,7119.95 11694.2,7397.52 11735.4,7473.54 
  11776.6,7475.27 11817.8,7483.82 11859,7592.96 11900.2,7673.98 11941.4,7689.89 11982.6,7701.93 12023.8,7635.29 12065,7836.44 12106.2,7842.31 12147.5,7718.1 
  12188.7,7787.58 12229.9,7880.6 12271.1,7855.07 12312.3,7935.05 12353.5,7928.11 12394.7,7787.57 12435.9,8007.42 12477.1,8006.05 12518.3,7941.69 12559.5,8059.89 
  12600.8,8120.85 12642,8047.64 12683.2,8170.19 12724.4,8130.64 12765.6,8250.82 12806.8,8161.02 12848,8312.99 12889.2,8249.04 12930.4,8356.66 12971.6,8307.19 
  13012.8,8314.48 13054,8304.15 13095.3,8336.73 13136.5,8367.73 13177.7,8419.32 13218.9,8414.68 13260.1,8474.46 13301.3,8474.63 13342.5,8377.97 13383.7,8487.47 
  13424.9,8490.6 13466.1,8556.05 13507.3,8551.13 13548.6,8553.37 13589.8,8550.44 13631,8623.79 13672.2,8612.37 13713.4,8618.68 13754.6,8585.47 13795.8,8701.66 
  13837,8666.97 13878.2,8664.2 13919.4,8690.73 13960.6,8713.09 14001.9,8722.2 14043.1,8721.73 14084.3,8787.66 14125.5,8789.74 14166.7,8802.7 14207.9,8800.72 
  14249.1,8829.96 14290.3,8796.49 14331.5,8864.75 14372.7,8879.63 14413.9,8869.89 14455.1,8899.61 14496.4,8900.85 14537.6,8884.87 14578.8,8866.15 14620,8923.19 
  14661.2,8926.87 14702.4,8917.9 14743.6,8968.58 14784.8,8960.62 14826,8959.52 14867.2,8955.7 14908.4,8947.15 14949.7,9019.09 14990.9,9013.74 15032.1,9013.19 
  15073.3,9045.61 15114.5,9032.65 15155.7,9041.38 15196.9,9035.29 15238.1,9113.31 15279.3,9107.41 15320.5,9064.15 15361.7,9123.3 15403,9094.38 15444.2,9128.36 
  15485.4,9145.33 15526.6,9131.38 15567.8,9164.27 15609,9167.29 15650.2,9158.1 15691.4,9241.02 15732.6,9177.29 15773.8,9174.86 15815,9196.45 15856.2,9195.24 
  15897.5,9225.13 15938.7,9264.7 15979.9,9259.45 16021.1,9241.93 16062.3,9233.1 16103.5,9261.26 16144.7,9295.79 16185.9,9283.61 16227.1,9266.63 16268.3,9283.74 
  16309.5,9277.18 16350.8,9287.56 16392,9329.03 16433.2,9324.16 16474.4,9358.63 16515.6,9326.41 16556.8,9345.53 16598,9361.95 16639.2,9377.26 16680.4,9347.5 
  16721.6,9374.32 16762.8,9379.25 16804.1,9366.49 16845.3,9396.45 16886.5,9425.27 16927.7,9446.16 16968.9,9404.61 17010.1,9426.63 17051.3,9402.71 17092.5,9444.6 
  17133.7,9435.21 17174.9,9455.57 17216.1,9439.54 17257.3,9431.92 17298.6,9434.47 17339.8,9466.6 17381,9470.26 17422.2,9452.71 17463.4,9487.57 17504.6,9474.61 
  17545.8,9489.74 17587,9467.66 17628.2,9534.39 17669.4,9533.77 17710.6,9519.44 17751.9,9513.7 17793.1,9553.48 17834.3,9533.57 17875.5,9532.91 17916.7,9530.95 
  17957.9,9573.04 17999.1,9557.28 18040.3,9594.1 18081.5,9579.08 18122.7,9565.37 18163.9,9558.36 18205.2,9611.18 18246.4,9619.55 18287.6,9606.53 18328.8,9590.96 
  
  "/>
<polyline clip-path="url(#clip7402)" style="stroke:#e26f46; stroke-width:32; stroke-opacity:1; fill:none" points="
  9468.88,797.401 9468.88,11073.9 
  "/>
<path clip-path="url(#clip7400)" d="
M15920.9 2497.63 L18246 2497.63 L18246 1046.11 L15920.9 1046.11  Z
  " fill="#ffffff" fill-rule="evenodd" fill-opacity="1"/>
<polyline clip-path="url(#clip7400)" style="stroke:#000000; stroke-width:32; stroke-opacity:1; fill:none" points="
  15920.9,2497.63 18246,2497.63 18246,1046.11 15920.9,1046.11 15920.9,2497.63 
  "/>
<polyline clip-path="url(#clip7400)" style="stroke:#009af9; stroke-width:48; stroke-opacity:1; fill:none" points="
  16112.9,1529.95 17264.9,1529.95 
  "/>
<path clip-path="url(#clip7400)" d="M 0 0 M17679.8 1413.01 L17679.8 1452.45 Q17660.9 1434.86 17639.5 1426.16 Q17618.2 1417.45 17594.1 1417.45 Q17546.7 1417.45 17521.5 1446.53 Q17496.3 1475.42 17496.3 1530.23 Q17496.3 1584.86 17521.5 1613.93 Q17546.7 1642.82 17594.1 1642.82 Q17618.2 1642.82 17639.5 1634.12 Q17660.9 1625.42 17679.8 1607.82 L17679.8 1646.9 Q17660.2 1660.23 17638.2 1666.9 Q17616.3 1673.56 17591.9 1673.56 Q17529.1 1673.56 17493 1635.23 Q17456.9 1596.71 17456.9 1530.23 Q17456.9 1463.56 17493 1425.23 Q17529.1 1386.71 17591.9 1386.71 Q17616.7 1386.71 17638.5 1393.38 Q17660.6 1399.86 17679.8 1413.01 Z" fill="#000000" fill-rule="evenodd" fill-opacity="1" /><polyline clip-path="url(#clip7400)" style="stroke:#e26f46; stroke-width:32; stroke-opacity:1; fill:none" points="
  16112.9,2013.79 17264.9,2013.79 
  "/>
<path clip-path="url(#clip7400)" d="M 0 0 M17567.6 2171.29 Q17553.2 2208.33 17539.5 2219.62 Q17525.8 2230.92 17502.8 2230.92 L17475.6 2230.92 L17475.6 2202.4 L17495.6 2202.4 Q17509.6 2202.4 17517.4 2195.74 Q17525.2 2189.07 17534.6 2164.25 L17540.8 2148.7 L17456.9 1944.63 L17493 1944.63 L17557.8 2106.85 L17622.6 1944.63 L17658.7 1944.63 L17567.6 2171.29 Z" fill="#000000" fill-rule="evenodd" fill-opacity="1" /><path clip-path="url(#clip7400)" d="M 0 0 M17731.5 2120.55 L17862 2120.55 L17862 2152.03 L17686.5 2152.03 L17686.5 2120.55 Q17707.8 2098.51 17744.5 2061.48 Q17781.3 2024.26 17790.8 2013.51 Q17808.7 1993.33 17815.8 1979.44 Q17823 1965.37 17823 1951.85 Q17823 1929.81 17807.4 1915.92 Q17792 1902.03 17767.2 1902.03 Q17749.6 1902.03 17730 1908.15 Q17710.6 1914.26 17688.3 1926.66 L17688.3 1888.89 Q17710.9 1879.81 17730.6 1875.18 Q17750.2 1870.55 17766.5 1870.55 Q17809.5 1870.55 17835 1892.03 Q17860.6 1913.52 17860.6 1949.44 Q17860.6 1966.48 17854.1 1981.85 Q17847.8 1997.03 17830.9 2017.77 Q17826.3 2023.14 17801.5 2048.89 Q17776.7 2074.44 17731.5 2120.55 Z" fill="#000000" fill-rule="evenodd" fill-opacity="1" /></svg>
