<?xml version="1.0" encoding="utf-8"?>
<svg xmlns="http://www.w3.org/2000/svg" xmlns:xlink="http://www.w3.org/1999/xlink" width="4800" height="3200" viewBox="0 0 19200 12800">
<defs>
  <clipPath id="clip9600">
    <rect x="0" y="0" width="19200" height="12800"/>
  </clipPath>
</defs>
<path clip-path="url(#clip9600)" d="
M0 12800 L19200 12800 L19200 0 L0 0  Z
  " fill="#ffffff" fill-rule="evenodd" fill-opacity="1"/>
<defs>
  <clipPath id="clip9601">
    <rect x="3840" y="0" width="13441" height="12800"/>
  </clipPath>
</defs>
<path clip-path="url(#clip9600)" d="
M1393.19 11385.4 L18822 11385.4 L18822 377.953 L1393.19 377.953  Z
  " fill="#ffffff" fill-rule="evenodd" fill-opacity="1"/>
<defs>
  <clipPath id="clip9602">
    <rect x="1393" y="377" width="17430" height="11008"/>
  </clipPath>
</defs>
<polyline clip-path="url(#clip9602)" style="stroke:#000000; stroke-width:16; stroke-opacity:0.1; fill:none" points="
  1550.9,11385.4 1550.9,377.953 
  "/>
<polyline clip-path="url(#clip9602)" style="stroke:#000000; stroke-width:16; stroke-opacity:0.1; fill:none" points="
  4906.48,11385.4 4906.48,377.953 
  "/>
<polyline clip-path="url(#clip9602)" style="stroke:#000000; stroke-width:16; stroke-opacity:0.1; fill:none" points="
  8262.05,11385.4 8262.05,377.953 
  "/>
<polyline clip-path="url(#clip9602)" style="stroke:#000000; stroke-width:16; stroke-opacity:0.1; fill:none" points="
  11617.6,11385.4 11617.6,377.953 
  "/>
<polyline clip-path="url(#clip9602)" style="stroke:#000000; stroke-width:16; stroke-opacity:0.1; fill:none" points="
  14973.2,11385.4 14973.2,377.953 
  "/>
<polyline clip-path="url(#clip9602)" style="stroke:#000000; stroke-width:16; stroke-opacity:0.1; fill:none" points="
  18328.8,11385.4 18328.8,377.953 
  "/>
<polyline clip-path="url(#clip9602)" style="stroke:#000000; stroke-width:16; stroke-opacity:0.1; fill:none" points="
  1393.19,11073.9 18822,11073.9 
  "/>
<polyline clip-path="url(#clip9602)" style="stroke:#000000; stroke-width:16; stroke-opacity:0.1; fill:none" points="
  1393.19,8225.53 18822,8225.53 
  "/>
<polyline clip-path="url(#clip9602)" style="stroke:#000000; stroke-width:16; stroke-opacity:0.1; fill:none" points="
  1393.19,5377.15 18822,5377.15 
  "/>
<polyline clip-path="url(#clip9602)" style="stroke:#000000; stroke-width:16; stroke-opacity:0.1; fill:none" points="
  1393.19,2528.78 18822,2528.78 
  "/>
<polyline clip-path="url(#clip9600)" style="stroke:#000000; stroke-width:32; stroke-opacity:1; fill:none" points="
  1393.19,11385.4 18822,11385.4 
  "/>
<polyline clip-path="url(#clip9600)" style="stroke:#000000; stroke-width:32; stroke-opacity:1; fill:none" points="
  1393.19,11385.4 1393.19,377.953 
  "/>
<polyline clip-path="url(#clip9600)" style="stroke:#000000; stroke-width:32; stroke-opacity:1; fill:none" points="
  1550.9,11385.4 1550.9,11253.3 
  "/>
<polyline clip-path="url(#clip9600)" style="stroke:#000000; stroke-width:32; stroke-opacity:1; fill:none" points="
  4906.48,11385.4 4906.48,11253.3 
  "/>
<polyline clip-path="url(#clip9600)" style="stroke:#000000; stroke-width:32; stroke-opacity:1; fill:none" points="
  8262.05,11385.4 8262.05,11253.3 
  "/>
<polyline clip-path="url(#clip9600)" style="stroke:#000000; stroke-width:32; stroke-opacity:1; fill:none" points="
  11617.6,11385.4 11617.6,11253.3 
  "/>
<polyline clip-path="url(#clip9600)" style="stroke:#000000; stroke-width:32; stroke-opacity:1; fill:none" points="
  14973.2,11385.4 14973.2,11253.3 
  "/>
<polyline clip-path="url(#clip9600)" style="stroke:#000000; stroke-width:32; stroke-opacity:1; fill:none" points="
  18328.8,11385.4 18328.8,11253.3 
  "/>
<polyline clip-path="url(#clip9600)" style="stroke:#000000; stroke-width:32; stroke-opacity:1; fill:none" points="
  1393.19,11073.9 1602.34,11073.9 
  "/>
<polyline clip-path="url(#clip9600)" style="stroke:#000000; stroke-width:32; stroke-opacity:1; fill:none" points="
  1393.19,8225.53 1602.34,8225.53 
  "/>
<polyline clip-path="url(#clip9600)" style="stroke:#000000; stroke-width:32; stroke-opacity:1; fill:none" points="
  1393.19,5377.15 1602.34,5377.15 
  "/>
<polyline clip-path="url(#clip9600)" style="stroke:#000000; stroke-width:32; stroke-opacity:1; fill:none" points="
  1393.19,2528.78 1602.34,2528.78 
  "/>
<path clip-path="url(#clip9600)" d="M 0 0 M1550.9 11561.4 Q1522.01 11561.4 1507.39 11589.9 Q1492.94 11618.2 1492.94 11675.3 Q1492.94 11732.1 1507.39 11760.6 Q1522.01 11789 1550.9 11789 Q1579.98 11789 1594.42 11760.6 Q1609.05 11732.1 1609.05 11675.3 Q1609.05 11618.2 1594.42 11589.9 Q1579.98 11561.4 1550.9 11561.4 M1550.9 11531.7 Q1597.38 11531.7 1621.83 11568.6 Q1646.46 11605.3 1646.46 11675.3 Q1646.46 11745.1 1621.83 11781.9 Q1597.38 11818.6 1550.9 11818.6 Q1504.42 11818.6 1479.79 11781.9 Q1455.35 11745.1 1455.35 11675.3 Q1455.35 11605.3 1479.79 11568.6 Q1504.42 11531.7 1550.9 11531.7 Z" fill="#000000" fill-rule="evenodd" fill-opacity="1" /><path clip-path="url(#clip9600)" d="M 0 0 M4829.53 11781.7 L4890.64 11781.7 L4890.64 11570.8 L4824.16 11584.1 L4824.16 11550.1 L4890.27 11536.7 L4927.68 11536.7 L4927.68 11781.7 L4988.79 11781.7 L4988.79 11813.2 L4829.53 11813.2 L4829.53 11781.7 Z" fill="#000000" fill-rule="evenodd" fill-opacity="1" /><path clip-path="url(#clip9600)" d="M 0 0 M8219.28 11781.7 L8349.83 11781.7 L8349.83 11813.2 L8174.28 11813.2 L8174.28 11781.7 Q8195.57 11759.7 8232.24 11722.7 Q8269.09 11685.4 8278.53 11674.7 Q8296.5 11654.5 8303.53 11640.6 Q8310.76 11626.5 8310.76 11613 Q8310.76 11591 8295.2 11577.1 Q8279.83 11563.2 8255.02 11563.2 Q8237.42 11563.2 8217.79 11569.3 Q8198.35 11575.4 8176.13 11587.8 L8176.13 11550.1 Q8198.72 11541 8218.35 11536.4 Q8237.98 11531.7 8254.28 11531.7 Q8297.24 11531.7 8322.79 11553.2 Q8348.35 11574.7 8348.35 11610.6 Q8348.35 11627.7 8341.87 11643 Q8335.57 11658.2 8318.72 11679 Q8314.09 11684.3 8289.28 11710.1 Q8264.46 11735.6 8219.28 11781.7 Z" fill="#000000" fill-rule="evenodd" fill-opacity="1" /><path clip-path="url(#clip9600)" d="M 0 0 M11651.6 11664.1 Q11678.5 11669.9 11693.5 11688 Q11708.6 11706.2 11708.6 11732.8 Q11708.6 11773.8 11680.5 11796.2 Q11652.4 11818.6 11600.5 11818.6 Q11583.1 11818.6 11564.6 11815.1 Q11546.2 11811.7 11526.6 11804.9 L11526.6 11768.8 Q11542.2 11777.8 11560.7 11782.5 Q11579.2 11787.1 11599.4 11787.1 Q11634.6 11787.1 11652.9 11773.2 Q11671.4 11759.3 11671.4 11732.8 Q11671.4 11708.4 11654.2 11694.7 Q11637.2 11680.8 11606.6 11680.8 L11574.4 11680.8 L11574.4 11650.1 L11608.1 11650.1 Q11635.7 11650.1 11650.3 11639.1 Q11664.9 11628 11664.9 11607.3 Q11664.9 11586 11649.8 11574.7 Q11634.8 11563.2 11606.6 11563.2 Q11591.2 11563.2 11573.6 11566.5 Q11556.1 11569.9 11534.9 11576.9 L11534.9 11543.6 Q11556.2 11537.7 11574.8 11534.7 Q11593.5 11531.7 11609.9 11531.7 Q11652.5 11531.7 11677.3 11551.2 Q11702.2 11570.4 11702.2 11603.4 Q11702.2 11626.4 11689 11642.3 Q11675.9 11658 11651.6 11664.1 Z" fill="#000000" fill-rule="evenodd" fill-opacity="1" /><path clip-path="url(#clip9600)" d="M 0 0 M14997.3 11569.3 L14902.8 11716.9 L14997.3 11716.9 L14997.3 11569.3 M14987.5 11536.7 L15034.5 11536.7 L15034.5 11716.9 L15073.9 11716.9 L15073.9 11748 L15034.5 11748 L15034.5 11813.2 L14997.3 11813.2 L14997.3 11748 L14872.5 11748 L14872.5 11711.9 L14987.5 11536.7 Z" fill="#000000" fill-rule="evenodd" fill-opacity="1" /><path clip-path="url(#clip9600)" d="M 0 0 M18251 11536.7 L18397.9 11536.7 L18397.9 11568.2 L18285.3 11568.2 L18285.3 11636 Q18293.4 11633.2 18301.6 11631.9 Q18309.7 11630.4 18317.9 11630.4 Q18364.1 11630.4 18391.2 11655.8 Q18418.2 11681.2 18418.2 11724.5 Q18418.2 11769.1 18390.4 11794 Q18362.7 11818.6 18312.1 11818.6 Q18294.7 11818.6 18276.6 11815.6 Q18258.6 11812.7 18239.3 11806.7 L18239.3 11769.1 Q18256 11778.2 18273.8 11782.7 Q18291.6 11787.1 18311.4 11787.1 Q18343.4 11787.1 18362.1 11770.3 Q18380.8 11753.4 18380.8 11724.5 Q18380.8 11695.6 18362.1 11678.8 Q18343.4 11661.9 18311.4 11661.9 Q18296.4 11661.9 18281.4 11665.3 Q18266.6 11668.6 18251 11675.6 L18251 11536.7 Z" fill="#000000" fill-rule="evenodd" fill-opacity="1" /><path clip-path="url(#clip9600)" d="M 0 0 M1105.64 10960.3 Q1076.75 10960.3 1062.12 10988.8 Q1047.67 11017.1 1047.67 11074.2 Q1047.67 11131 1062.12 11159.6 Q1076.75 11187.9 1105.64 11187.9 Q1134.71 11187.9 1149.15 11159.6 Q1163.78 11131 1163.78 11074.2 Q1163.78 11017.1 1149.15 10988.8 Q1134.71 10960.3 1105.64 10960.3 M1105.64 10930.7 Q1152.12 10930.7 1176.56 10967.5 Q1201.19 11004.2 1201.19 11074.2 Q1201.19 11144 1176.56 11180.8 Q1152.12 11217.5 1105.64 11217.5 Q1059.16 11217.5 1034.53 11180.8 Q1010.08 11144 1010.08 11074.2 Q1010.08 11004.2 1034.53 10967.5 Q1059.16 10930.7 1105.64 10930.7 Z" fill="#000000" fill-rule="evenodd" fill-opacity="1" /><path clip-path="url(#clip9600)" d="M 0 0 M1041.93 8332.29 L1103.04 8332.29 L1103.04 8121.36 L1036.56 8134.7 L1036.56 8100.62 L1102.67 8087.29 L1140.08 8087.29 L1140.08 8332.29 L1201.19 8332.29 L1201.19 8363.77 L1041.93 8363.77 L1041.93 8332.29 Z" fill="#000000" fill-rule="evenodd" fill-opacity="1" /><path clip-path="url(#clip9600)" d="M 0 0 M1070.64 5483.91 L1201.19 5483.91 L1201.19 5515.39 L1025.64 5515.39 L1025.64 5483.91 Q1046.93 5461.88 1083.6 5424.84 Q1120.45 5387.62 1129.9 5376.88 Q1147.86 5356.69 1154.9 5342.8 Q1162.12 5328.73 1162.12 5315.21 Q1162.12 5293.17 1146.56 5279.28 Q1131.19 5265.4 1106.38 5265.4 Q1088.78 5265.4 1069.16 5271.51 Q1049.71 5277.62 1027.49 5290.03 L1027.49 5252.25 Q1050.08 5243.17 1069.71 5238.54 Q1089.34 5233.91 1105.64 5233.91 Q1148.6 5233.91 1174.15 5255.4 Q1199.71 5276.88 1199.71 5312.8 Q1199.71 5329.84 1193.23 5345.21 Q1186.93 5360.4 1170.08 5381.14 Q1165.45 5386.51 1140.64 5412.25 Q1115.82 5437.8 1070.64 5483.91 Z" fill="#000000" fill-rule="evenodd" fill-opacity="1" /><path clip-path="url(#clip9600)" d="M 0 0 M1144.15 2517.95 Q1171.01 2523.69 1186.01 2541.83 Q1201.19 2559.98 1201.19 2586.65 Q1201.19 2627.57 1173.04 2649.98 Q1144.9 2672.39 1093.04 2672.39 Q1075.64 2672.39 1057.12 2668.87 Q1038.78 2665.54 1019.16 2658.69 L1019.16 2622.57 Q1034.71 2631.65 1053.23 2636.28 Q1071.75 2640.91 1091.93 2640.91 Q1127.12 2640.91 1145.45 2627.02 Q1163.97 2613.13 1163.97 2586.65 Q1163.97 2562.2 1146.75 2548.5 Q1129.71 2534.61 1099.15 2534.61 L1066.93 2534.61 L1066.93 2503.87 L1100.64 2503.87 Q1128.23 2503.87 1142.86 2492.95 Q1157.49 2481.83 1157.49 2461.09 Q1157.49 2439.8 1142.3 2428.5 Q1127.3 2417.02 1099.15 2417.02 Q1083.78 2417.02 1066.19 2420.35 Q1048.6 2423.69 1027.49 2430.72 L1027.49 2397.39 Q1048.78 2391.46 1067.3 2388.5 Q1086.01 2385.54 1102.49 2385.54 Q1145.08 2385.54 1169.9 2404.98 Q1194.71 2424.24 1194.71 2457.2 Q1194.71 2480.17 1181.56 2496.09 Q1168.41 2511.83 1144.15 2517.95 Z" fill="#000000" fill-rule="evenodd" fill-opacity="1" /><path clip-path="url(#clip9600)" d="M 0 0 M9946.82 12068.2 L10268.4 12068.2 L10268.4 12111.5 L10133.5 12111.5 L10133.5 12448.4 L10081.8 12448.4 L10081.8 12111.5 L9946.82 12111.5 L9946.82 12068.2 Z" fill="#000000" fill-rule="evenodd" fill-opacity="1" /><path clip-path="url(#clip9600)" d="M 0 0 M353.156 5728.41 L407.391 5728.41 Q383.202 5754.38 371.234 5783.92 Q359.267 5813.2 359.267 5846.3 Q359.267 5911.49 399.243 5946.12 Q438.965 5980.75 514.335 5980.75 Q589.451 5980.75 629.427 5946.12 Q669.149 5911.49 669.149 5846.3 Q669.149 5813.2 657.182 5783.92 Q645.214 5754.38 621.024 5728.41 L674.751 5728.41 Q693.084 5755.4 702.251 5785.7 Q711.417 5815.75 711.417 5849.36 Q711.417 5935.68 658.709 5985.33 Q605.747 6034.98 514.335 6034.98 Q422.669 6034.98 369.961 5985.33 Q316.998 5935.68 316.998 5849.36 Q316.998 5815.24 326.165 5785.19 Q335.077 5754.89 353.156 5728.41 Z" fill="#000000" fill-rule="evenodd" fill-opacity="1" /><polyline clip-path="url(#clip9602)" style="stroke:#009af9; stroke-width:48; stroke-opacity:1; fill:none" points="
  1886.46,11073.9 1927.67,11073.9 1968.88,11073.9 2010.09,11073.9 2051.3,11073.9 2092.5,11073.9 2133.71,11073.9 2174.92,11073.9 2216.13,11073.9 2257.34,11073.9 
  2298.55,11073.9 2339.76,11073.9 2380.97,11073.9 2422.18,11073.9 2463.38,11073.9 2504.59,11073.9 2545.8,11073.9 2587.01,11073.9 2628.22,11073.9 2669.43,11073.9 
  2710.64,11073.9 2751.85,11073.9 2793.05,11073.9 2834.26,11073.9 2875.47,11073.9 2916.68,11073.9 2957.89,11073.9 2999.1,11073.9 3040.31,11073.9 3081.52,11073.9 
  3122.73,11073.9 3163.93,11073.9 3205.14,11073.9 3246.35,11073.8 3287.56,11073.8 3328.77,11073.8 3369.98,11073.8 3411.19,11073.7 3452.4,11073.1 3493.6,11073.7 
  3534.81,11073.2 3576.02,11073.6 3617.23,11073.2 3658.44,11073.5 3699.65,11072.5 3740.86,11072.8 3782.07,11072.1 3823.28,11071.6 3864.48,11070.6 3905.69,11071 
  3946.9,11071 3988.11,11069.3 4029.32,11068.9 4070.53,11068.4 4111.74,11067.9 4152.95,11066.3 4194.15,11064 4235.36,11064.2 4276.57,11060.4 4317.78,11058.1 
  4358.99,11056.9 4400.2,11056.4 4441.41,11051.7 4482.62,11051.4 4523.82,11045.4 4565.03,11040.5 4606.24,11041.9 4647.45,11039.1 4688.66,11035.3 4729.87,11028 
  4771.08,11025.3 4812.29,11013.4 4853.5,11011.4 4894.7,11005.4 4935.91,10998.7 4977.12,10998.7 5018.33,10989.4 5059.54,10981.1 5100.75,10968.4 5141.96,10960.6 
  5183.17,10956.7 5224.37,10942.9 5265.58,10934 5306.79,10927.4 5348,10920.1 5389.21,10906.7 5430.42,10895.4 5471.63,10885.2 5512.84,10863.5 5554.05,10860.1 
  5595.25,10839.4 5636.46,10829.5 5677.67,10815.2 5718.88,10787.2 5760.09,10765.5 5801.3,10745 5842.51,10750.8 5883.72,10698.2 5924.92,10712.4 5966.13,10671.2 
  6007.34,10642.5 6048.55,10628.9 6089.76,10607.4 6130.97,10581.4 6172.18,10555.8 6213.39,10520.1 6254.6,10482.3 6295.8,10477.2 6337.01,10432.9 6378.22,10420.7 
  6419.43,10393.5 6460.64,10345.3 6501.85,10296.1 6543.06,10215.2 6584.27,10228.4 6625.47,10191.1 6666.68,10150.8 6707.89,10113.8 6749.1,10065.6 6790.31,9987.62 
  6831.52,10019.5 6872.73,9931.21 6913.94,9887.25 6955.15,9821.61 6996.35,9811.4 7037.56,9705.85 7078.77,9660.22 7119.98,9600.71 7161.19,9484.09 7202.4,9502.52 
  7243.61,9454.53 7284.82,9311.99 7326.02,9321.17 7367.23,9170.38 7408.44,9173.74 7449.65,9108.5 7490.86,9047.98 7532.07,9048.37 7573.28,8722.43 7614.49,8761.31 
  7655.69,8726.53 7696.9,8677.68 7738.11,8439.38 7779.32,8491.81 7820.53,8325.3 7861.74,8198.05 7902.95,8071.13 7944.16,7924.31 7985.37,7891 8026.57,7929.02 
  8067.78,7555.59 8108.99,7533.74 8150.2,7383.15 8191.41,7314.23 8232.62,7065.51 8273.83,6869.14 8315.04,6641.59 8356.24,5903.19 8397.45,6343.94 8438.66,6413.46 
  8479.87,5850.8 8521.08,6059.42 8562.29,5537.48 8603.5,4886 8644.71,5269.66 8685.92,5152.12 8727.12,4764.42 8768.33,4056.55 8809.54,3724.53 8850.75,3969.46 
  8891.96,3530.22 8933.17,2947.76 8974.38,4157.42 9015.59,2828.78 9056.79,2059.66 9098,1716.78 9139.21,1436.17 9180.42,2119.77 9221.63,1140.41 9262.84,1681.55 
  9304.05,1320.09 9345.26,800.603 9386.47,689.485 9427.67,991.276 9468.88,1121.58 9510.09,1040.65 9551.3,1175.08 9592.51,1423.6 9633.72,1559.05 9674.93,1805.25 
  9716.14,2571.27 9757.34,2454.6 9798.55,2872 9839.76,2629.17 9880.97,2899.46 9922.18,3204.23 9963.39,3606.27 10004.6,4016.99 10045.8,3768.01 10087,4099.63 
  10128.2,4580.02 10169.4,4662.87 10210.6,4930.67 10251.9,5142.91 10293.1,5106.16 10334.3,5418.17 10375.5,5466.46 10416.7,5511.87 10457.9,6052.37 10499.1,5698.27 
  10540.3,5940.48 10581.5,5874.22 10622.7,6304.43 10663.9,6278.32 10705.1,6346.8 10746.4,6372.84 10787.6,6484.07 10828.8,6800.78 10870,6978.84 10911.2,6600.92 
  10952.4,6867.75 10993.6,6933.98 11034.8,7027.97 11076,7174.53 11117.2,6835.12 11158.4,7247.01 11199.7,7167.59 11240.9,7324.83 11282.1,7358.07 11323.3,7248.81 
  11364.5,7295.94 11405.7,7456.44 11446.9,7436.57 11488.1,7551.68 11529.3,7517.84 11570.5,7638.1 11611.7,7596.71 11652.9,7703.08 11694.2,7607.28 11735.4,7514 
  11776.6,7651.93 11817.8,7875.85 11859,7856.07 11900.2,7893.04 11941.4,7823.27 11982.6,7917.79 12023.8,7807.7 12065,7899.89 12106.2,8008.48 12147.5,8087.29 
  12188.7,8133.86 12229.9,8041.81 12271.1,8060.84 12312.3,8163.21 12353.5,8145.2 12394.7,8145.61 12435.9,8186.06 12477.1,8223.47 12518.3,8250.31 12559.5,8189.33 
  12600.8,8296.84 12642,8187.9 12683.2,8394.97 12724.4,8256.79 12765.6,8349.07 12806.8,8375.36 12848,8387.16 12889.2,8415.85 12930.4,8470.39 12971.6,8506.4 
  13012.8,8476.44 13054,8488.24 13095.3,8574.42 13136.5,8522.6 13177.7,8594.35 13218.9,8536.63 13260.1,8599.25 13301.3,8616.34 13342.5,8586.51 13383.7,8641.15 
  13424.9,8674.29 13466.1,8631.89 13507.3,8701.6 13548.6,8660.94 13589.8,8675.95 13631,8677.92 13672.2,8812.38 13713.4,8788.08 13754.6,8732.34 13795.8,8793.43 
  13837,8767.36 13878.2,8769.14 13919.4,8814.21 13960.6,8878.05 14001.9,8929.1 14043.1,8841.71 14084.3,8829.41 14125.5,8821.49 14166.7,8854.69 14207.9,8915.1 
  14249.1,8943.19 14290.3,8946.28 14331.5,8955.59 14372.7,8983.3 14413.9,8967.38 14455.1,8970.96 14496.4,8999.67 14537.6,9033.12 14578.8,9001.61 14620,9046.31 
  14661.2,9054.47 14702.4,9052.8 14743.6,9088.78 14784.8,9146.69 14826,9086.07 14867.2,9097.85 14908.4,9057.93 14949.7,9119.03 14990.9,9164.18 15032.1,9114.11 
  15073.3,9117.12 15114.5,9148.39 15155.7,9155.85 15196.9,9181.17 15238.1,9180.83 15279.3,9153.57 15320.5,9220.88 15361.7,9239.35 15403,9201.15 15444.2,9248.18 
  15485.4,9222.51 15526.6,9239 15567.8,9259.67 15609,9253.43 15650.2,9253.26 15691.4,9295.66 15732.6,9271.57 15773.8,9302.78 15815,9336.38 15856.2,9324.36 
  15897.5,9309.06 15938.7,9357.29 15979.9,9365.2 16021.1,9317.7 16062.3,9351.32 16103.5,9359.62 16144.7,9407.65 16185.9,9397.13 16227.1,9400.47 16268.3,9428.18 
  16309.5,9397.67 16350.8,9355.74 16392,9375.97 16433.2,9408.73 16474.4,9439.95 16515.6,9411.94 16556.8,9421.57 16598,9475.21 16639.2,9460.98 16680.4,9464.05 
  16721.6,9457.33 16762.8,9514.27 16804.1,9506.51 16845.3,9497.63 16886.5,9486.81 16927.7,9527.91 16968.9,9505.88 17010.1,9523.79 17051.3,9523.8 17092.5,9503.26 
  17133.7,9545.83 17174.9,9523.88 17216.1,9543.89 17257.3,9548.97 17298.6,9540.07 17339.8,9559.26 17381,9562.52 17422.2,9581.85 17463.4,9602.83 17504.6,9565.22 
  17545.8,9600.72 17587,9610.98 17628.2,9596.77 17669.4,9611.94 17710.6,9633.96 17751.9,9635.67 17793.1,9640.75 17834.3,9651.22 17875.5,9610.62 17916.7,9634.37 
  17957.9,9641.95 17999.1,9676.57 18040.3,9653.79 18081.5,9661.7 18122.7,9665.79 18163.9,9664.18 18205.2,9674.38 18246.4,9695.7 18287.6,9660.9 18328.8,9682.27 
  
  "/>
<polyline clip-path="url(#clip9602)" style="stroke:#e26f46; stroke-width:32; stroke-opacity:1; fill:none" points="
  9427.67,991.276 9427.67,11073.9 
  "/>
<path clip-path="url(#clip9600)" d="
M15920.9 2497.63 L18246 2497.63 L18246 1046.11 L15920.9 1046.11  Z
  " fill="#ffffff" fill-rule="evenodd" fill-opacity="1"/>
<polyline clip-path="url(#clip9600)" style="stroke:#000000; stroke-width:32; stroke-opacity:1; fill:none" points="
  15920.9,2497.63 18246,2497.63 18246,1046.11 15920.9,1046.11 15920.9,2497.63 
  "/>
<polyline clip-path="url(#clip9600)" style="stroke:#009af9; stroke-width:48; stroke-opacity:1; fill:none" points="
  16112.9,1529.95 17264.9,1529.95 
  "/>
<path clip-path="url(#clip9600)" d="M 0 0 M17679.8 1413.01 L17679.8 1452.45 Q17660.9 1434.86 17639.5 1426.16 Q17618.2 1417.45 17594.1 1417.45 Q17546.7 1417.45 17521.5 1446.53 Q17496.3 1475.42 17496.3 1530.23 Q17496.3 1584.86 17521.5 1613.93 Q17546.7 1642.82 17594.1 1642.82 Q17618.2 1642.82 17639.5 1634.12 Q17660.9 1625.42 17679.8 1607.82 L17679.8 1646.9 Q17660.2 1660.23 17638.2 1666.9 Q17616.3 1673.56 17591.9 1673.56 Q17529.1 1673.56 17493 1635.23 Q17456.9 1596.71 17456.9 1530.23 Q17456.9 1463.56 17493 1425.23 Q17529.1 1386.71 17591.9 1386.71 Q17616.7 1386.71 17638.5 1393.38 Q17660.6 1399.86 17679.8 1413.01 Z" fill="#000000" fill-rule="evenodd" fill-opacity="1" /><polyline clip-path="url(#clip9600)" style="stroke:#e26f46; stroke-width:32; stroke-opacity:1; fill:none" points="
  16112.9,2013.79 17264.9,2013.79 
  "/>
<path clip-path="url(#clip9600)" d="M 0 0 M17567.6 2171.29 Q17553.2 2208.33 17539.5 2219.62 Q17525.8 2230.92 17502.8 2230.92 L17475.6 2230.92 L17475.6 2202.4 L17495.6 2202.4 Q17509.6 2202.4 17517.4 2195.74 Q17525.2 2189.07 17534.6 2164.25 L17540.8 2148.7 L17456.9 1944.63 L17493 1944.63 L17557.8 2106.85 L17622.6 1944.63 L17658.7 1944.63 L17567.6 2171.29 Z" fill="#000000" fill-rule="evenodd" fill-opacity="1" /><path clip-path="url(#clip9600)" d="M 0 0 M17731.5 2120.55 L17862 2120.55 L17862 2152.03 L17686.5 2152.03 L17686.5 2120.55 Q17707.8 2098.51 17744.5 2061.48 Q17781.3 2024.26 17790.8 2013.51 Q17808.7 1993.33 17815.8 1979.44 Q17823 1965.37 17823 1951.85 Q17823 1929.81 17807.4 1915.92 Q17792 1902.03 17767.2 1902.03 Q17749.6 1902.03 17730 1908.15 Q17710.6 1914.26 17688.3 1926.66 L17688.3 1888.89 Q17710.9 1879.81 17730.6 1875.18 Q17750.2 1870.55 17766.5 1870.55 Q17809.5 1870.55 17835 1892.03 Q17860.6 1913.52 17860.6 1949.44 Q17860.6 1966.48 17854.1 1981.85 Q17847.8 1997.03 17830.9 2017.77 Q17826.3 2023.14 17801.5 2048.89 Q17776.7 2074.44 17731.5 2120.55 Z" fill="#000000" fill-rule="evenodd" fill-opacity="1" /></svg>
