<?xml version="1.0" encoding="utf-8"?>
<svg xmlns="http://www.w3.org/2000/svg" xmlns:xlink="http://www.w3.org/1999/xlink" width="4800" height="3200" viewBox="0 0 19200 12800">
<defs>
  <clipPath id="clip5200">
    <rect x="0" y="0" width="19200" height="12800"/>
  </clipPath>
</defs>
<path clip-path="url(#clip5200)" d="
M0 12800 L19200 12800 L19200 0 L0 0  Z
  " fill="#ffffff" fill-rule="evenodd" fill-opacity="1"/>
<defs>
  <clipPath id="clip5201">
    <rect x="3840" y="0" width="13441" height="12800"/>
  </clipPath>
</defs>
<path clip-path="url(#clip5200)" d="
M1393.19 11385.4 L18822 11385.4 L18822 377.953 L1393.19 377.953  Z
  " fill="#ffffff" fill-rule="evenodd" fill-opacity="1"/>
<defs>
  <clipPath id="clip5202">
    <rect x="1393" y="377" width="17430" height="11008"/>
  </clipPath>
</defs>
<polyline clip-path="url(#clip5202)" style="stroke:#000000; stroke-width:16; stroke-opacity:0.1; fill:none" points="
  1550.9,11385.4 1550.9,377.953 
  "/>
<polyline clip-path="url(#clip5202)" style="stroke:#000000; stroke-width:16; stroke-opacity:0.1; fill:none" points="
  4906.48,11385.4 4906.48,377.953 
  "/>
<polyline clip-path="url(#clip5202)" style="stroke:#000000; stroke-width:16; stroke-opacity:0.1; fill:none" points="
  8262.05,11385.4 8262.05,377.953 
  "/>
<polyline clip-path="url(#clip5202)" style="stroke:#000000; stroke-width:16; stroke-opacity:0.1; fill:none" points="
  11617.6,11385.4 11617.6,377.953 
  "/>
<polyline clip-path="url(#clip5202)" style="stroke:#000000; stroke-width:16; stroke-opacity:0.1; fill:none" points="
  14973.2,11385.4 14973.2,377.953 
  "/>
<polyline clip-path="url(#clip5202)" style="stroke:#000000; stroke-width:16; stroke-opacity:0.1; fill:none" points="
  18328.8,11385.4 18328.8,377.953 
  "/>
<polyline clip-path="url(#clip5202)" style="stroke:#000000; stroke-width:16; stroke-opacity:0.1; fill:none" points="
  1393.19,11073.9 18822,11073.9 
  "/>
<polyline clip-path="url(#clip5202)" style="stroke:#000000; stroke-width:16; stroke-opacity:0.1; fill:none" points="
  1393.19,7581.6 18822,7581.6 
  "/>
<polyline clip-path="url(#clip5202)" style="stroke:#000000; stroke-width:16; stroke-opacity:0.1; fill:none" points="
  1393.19,4089.29 18822,4089.29 
  "/>
<polyline clip-path="url(#clip5202)" style="stroke:#000000; stroke-width:16; stroke-opacity:0.1; fill:none" points="
  1393.19,596.98 18822,596.98 
  "/>
<polyline clip-path="url(#clip5200)" style="stroke:#000000; stroke-width:32; stroke-opacity:1; fill:none" points="
  1393.19,11385.4 18822,11385.4 
  "/>
<polyline clip-path="url(#clip5200)" style="stroke:#000000; stroke-width:32; stroke-opacity:1; fill:none" points="
  1393.19,11385.4 1393.19,377.953 
  "/>
<polyline clip-path="url(#clip5200)" style="stroke:#000000; stroke-width:32; stroke-opacity:1; fill:none" points="
  1550.9,11385.4 1550.9,11253.3 
  "/>
<polyline clip-path="url(#clip5200)" style="stroke:#000000; stroke-width:32; stroke-opacity:1; fill:none" points="
  4906.48,11385.4 4906.48,11253.3 
  "/>
<polyline clip-path="url(#clip5200)" style="stroke:#000000; stroke-width:32; stroke-opacity:1; fill:none" points="
  8262.05,11385.4 8262.05,11253.3 
  "/>
<polyline clip-path="url(#clip5200)" style="stroke:#000000; stroke-width:32; stroke-opacity:1; fill:none" points="
  11617.6,11385.4 11617.6,11253.3 
  "/>
<polyline clip-path="url(#clip5200)" style="stroke:#000000; stroke-width:32; stroke-opacity:1; fill:none" points="
  14973.2,11385.4 14973.2,11253.3 
  "/>
<polyline clip-path="url(#clip5200)" style="stroke:#000000; stroke-width:32; stroke-opacity:1; fill:none" points="
  18328.8,11385.4 18328.8,11253.3 
  "/>
<polyline clip-path="url(#clip5200)" style="stroke:#000000; stroke-width:32; stroke-opacity:1; fill:none" points="
  1393.19,11073.9 1602.34,11073.9 
  "/>
<polyline clip-path="url(#clip5200)" style="stroke:#000000; stroke-width:32; stroke-opacity:1; fill:none" points="
  1393.19,7581.6 1602.34,7581.6 
  "/>
<polyline clip-path="url(#clip5200)" style="stroke:#000000; stroke-width:32; stroke-opacity:1; fill:none" points="
  1393.19,4089.29 1602.34,4089.29 
  "/>
<polyline clip-path="url(#clip5200)" style="stroke:#000000; stroke-width:32; stroke-opacity:1; fill:none" points="
  1393.19,596.98 1602.34,596.98 
  "/>
<path clip-path="url(#clip5200)" d="M 0 0 M1550.9 11561.4 Q1522.01 11561.4 1507.39 11589.9 Q1492.94 11618.2 1492.94 11675.3 Q1492.94 11732.1 1507.39 11760.6 Q1522.01 11789 1550.9 11789 Q1579.98 11789 1594.42 11760.6 Q1609.05 11732.1 1609.05 11675.3 Q1609.05 11618.2 1594.42 11589.9 Q1579.98 11561.4 1550.9 11561.4 M1550.9 11531.7 Q1597.38 11531.7 1621.83 11568.6 Q1646.46 11605.3 1646.46 11675.3 Q1646.46 11745.1 1621.83 11781.9 Q1597.38 11818.6 1550.9 11818.6 Q1504.42 11818.6 1479.79 11781.9 Q1455.35 11745.1 1455.35 11675.3 Q1455.35 11605.3 1479.79 11568.6 Q1504.42 11531.7 1550.9 11531.7 Z" fill="#000000" fill-rule="evenodd" fill-opacity="1" /><path clip-path="url(#clip5200)" d="M 0 0 M4829.53 11781.7 L4890.64 11781.7 L4890.64 11570.8 L4824.16 11584.1 L4824.16 11550.1 L4890.27 11536.7 L4927.68 11536.7 L4927.68 11781.7 L4988.79 11781.7 L4988.79 11813.2 L4829.53 11813.2 L4829.53 11781.7 Z" fill="#000000" fill-rule="evenodd" fill-opacity="1" /><path clip-path="url(#clip5200)" d="M 0 0 M8219.28 11781.7 L8349.83 11781.7 L8349.83 11813.2 L8174.28 11813.2 L8174.28 11781.7 Q8195.57 11759.7 8232.24 11722.7 Q8269.09 11685.4 8278.53 11674.7 Q8296.5 11654.5 8303.53 11640.6 Q8310.76 11626.5 8310.76 11613 Q8310.76 11591 8295.2 11577.1 Q8279.83 11563.2 8255.02 11563.2 Q8237.42 11563.2 8217.79 11569.3 Q8198.35 11575.4 8176.13 11587.8 L8176.13 11550.1 Q8198.72 11541 8218.35 11536.4 Q8237.98 11531.7 8254.28 11531.7 Q8297.24 11531.7 8322.79 11553.2 Q8348.35 11574.7 8348.35 11610.6 Q8348.35 11627.7 8341.87 11643 Q8335.57 11658.2 8318.72 11679 Q8314.09 11684.3 8289.28 11710.1 Q8264.46 11735.6 8219.28 11781.7 Z" fill="#000000" fill-rule="evenodd" fill-opacity="1" /><path clip-path="url(#clip5200)" d="M 0 0 M11651.6 11664.1 Q11678.5 11669.9 11693.5 11688 Q11708.6 11706.2 11708.6 11732.8 Q11708.6 11773.8 11680.5 11796.2 Q11652.4 11818.6 11600.5 11818.6 Q11583.1 11818.6 11564.6 11815.1 Q11546.2 11811.7 11526.6 11804.9 L11526.6 11768.8 Q11542.2 11777.8 11560.7 11782.5 Q11579.2 11787.1 11599.4 11787.1 Q11634.6 11787.1 11652.9 11773.2 Q11671.4 11759.3 11671.4 11732.8 Q11671.4 11708.4 11654.2 11694.7 Q11637.2 11680.8 11606.6 11680.8 L11574.4 11680.8 L11574.4 11650.1 L11608.1 11650.1 Q11635.7 11650.1 11650.3 11639.1 Q11664.9 11628 11664.9 11607.3 Q11664.9 11586 11649.8 11574.7 Q11634.8 11563.2 11606.6 11563.2 Q11591.2 11563.2 11573.6 11566.5 Q11556.1 11569.9 11534.9 11576.9 L11534.9 11543.6 Q11556.2 11537.7 11574.8 11534.7 Q11593.5 11531.7 11609.9 11531.7 Q11652.5 11531.7 11677.3 11551.2 Q11702.2 11570.4 11702.2 11603.4 Q11702.2 11626.4 11689 11642.3 Q11675.9 11658 11651.6 11664.1 Z" fill="#000000" fill-rule="evenodd" fill-opacity="1" /><path clip-path="url(#clip5200)" d="M 0 0 M14997.3 11569.3 L14902.8 11716.9 L14997.3 11716.9 L14997.3 11569.3 M14987.5 11536.7 L15034.5 11536.7 L15034.5 11716.9 L15073.9 11716.9 L15073.9 11748 L15034.5 11748 L15034.5 11813.2 L14997.3 11813.2 L14997.3 11748 L14872.5 11748 L14872.5 11711.9 L14987.5 11536.7 Z" fill="#000000" fill-rule="evenodd" fill-opacity="1" /><path clip-path="url(#clip5200)" d="M 0 0 M18251 11536.7 L18397.9 11536.7 L18397.9 11568.2 L18285.3 11568.2 L18285.3 11636 Q18293.4 11633.2 18301.6 11631.9 Q18309.7 11630.4 18317.9 11630.4 Q18364.1 11630.4 18391.2 11655.8 Q18418.2 11681.2 18418.2 11724.5 Q18418.2 11769.1 18390.4 11794 Q18362.7 11818.6 18312.1 11818.6 Q18294.7 11818.6 18276.6 11815.6 Q18258.6 11812.7 18239.3 11806.7 L18239.3 11769.1 Q18256 11778.2 18273.8 11782.7 Q18291.6 11787.1 18311.4 11787.1 Q18343.4 11787.1 18362.1 11770.3 Q18380.8 11753.4 18380.8 11724.5 Q18380.8 11695.6 18362.1 11678.8 Q18343.4 11661.9 18311.4 11661.9 Q18296.4 11661.9 18281.4 11665.3 Q18266.6 11668.6 18251 11675.6 L18251 11536.7 Z" fill="#000000" fill-rule="evenodd" fill-opacity="1" /><path clip-path="url(#clip5200)" d="M 0 0 M1105.64 10960.3 Q1076.75 10960.3 1062.12 10988.8 Q1047.67 11017.1 1047.67 11074.2 Q1047.67 11131 1062.12 11159.6 Q1076.75 11187.9 1105.64 11187.9 Q1134.71 11187.9 1149.15 11159.6 Q1163.78 11131 1163.78 11074.2 Q1163.78 11017.1 1149.15 10988.8 Q1134.71 10960.3 1105.64 10960.3 M1105.64 10930.7 Q1152.12 10930.7 1176.56 10967.5 Q1201.19 11004.2 1201.19 11074.2 Q1201.19 11144 1176.56 11180.8 Q1152.12 11217.5 1105.64 11217.5 Q1059.16 11217.5 1034.53 11180.8 Q1010.08 11144 1010.08 11074.2 Q1010.08 11004.2 1034.53 10967.5 Q1059.16 10930.7 1105.64 10930.7 Z" fill="#000000" fill-rule="evenodd" fill-opacity="1" /><path clip-path="url(#clip5200)" d="M 0 0 M1041.93 7688.36 L1103.04 7688.36 L1103.04 7477.43 L1036.56 7490.76 L1036.56 7456.69 L1102.67 7443.36 L1140.08 7443.36 L1140.08 7688.36 L1201.19 7688.36 L1201.19 7719.84 L1041.93 7719.84 L1041.93 7688.36 Z" fill="#000000" fill-rule="evenodd" fill-opacity="1" /><path clip-path="url(#clip5200)" d="M 0 0 M1070.64 4196.05 L1201.19 4196.05 L1201.19 4227.53 L1025.64 4227.53 L1025.64 4196.05 Q1046.93 4174.01 1083.6 4136.97 Q1120.45 4099.75 1129.9 4089.01 Q1147.86 4068.83 1154.9 4054.94 Q1162.12 4040.86 1162.12 4027.34 Q1162.12 4005.31 1146.56 3991.42 Q1131.19 3977.53 1106.38 3977.53 Q1088.78 3977.53 1069.16 3983.64 Q1049.71 3989.75 1027.49 4002.16 L1027.49 3964.38 Q1050.08 3955.31 1069.71 3950.68 Q1089.34 3946.05 1105.64 3946.05 Q1148.6 3946.05 1174.15 3967.53 Q1199.71 3989.01 1199.71 4024.94 Q1199.71 4041.97 1193.23 4057.34 Q1186.93 4072.53 1170.08 4093.27 Q1165.45 4098.64 1140.64 4124.38 Q1115.82 4149.94 1070.64 4196.05 Z" fill="#000000" fill-rule="evenodd" fill-opacity="1" /><path clip-path="url(#clip5200)" d="M 0 0 M1144.15 586.147 Q1171.01 591.887 1186.01 610.036 Q1201.19 628.184 1201.19 654.85 Q1201.19 695.776 1173.04 718.183 Q1144.9 740.59 1093.04 740.59 Q1075.64 740.59 1057.12 737.072 Q1038.78 733.739 1019.16 726.887 L1019.16 690.776 Q1034.71 699.85 1053.23 704.479 Q1071.75 709.109 1091.93 709.109 Q1127.12 709.109 1145.45 695.22 Q1163.97 681.331 1163.97 654.85 Q1163.97 630.406 1146.75 616.702 Q1129.71 602.813 1099.15 602.813 L1066.93 602.813 L1066.93 572.073 L1100.64 572.073 Q1128.23 572.073 1142.86 561.147 Q1157.49 550.036 1157.49 529.295 Q1157.49 507.999 1142.3 496.703 Q1127.3 485.221 1099.15 485.221 Q1083.78 485.221 1066.19 488.555 Q1048.6 491.888 1027.49 498.925 L1027.49 465.592 Q1048.78 459.666 1067.3 456.703 Q1086.01 453.74 1102.49 453.74 Q1145.08 453.74 1169.9 473.184 Q1194.71 492.444 1194.71 525.406 Q1194.71 548.369 1181.56 564.295 Q1168.41 580.036 1144.15 586.147 Z" fill="#000000" fill-rule="evenodd" fill-opacity="1" /><path clip-path="url(#clip5200)" d="M 0 0 M9946.82 12068.2 L10268.4 12068.2 L10268.4 12111.5 L10133.5 12111.5 L10133.5 12448.4 L10081.8 12448.4 L10081.8 12111.5 L9946.82 12111.5 L9946.82 12068.2 Z" fill="#000000" fill-rule="evenodd" fill-opacity="1" /><path clip-path="url(#clip5200)" d="M 0 0 M353.156 5728.41 L407.391 5728.41 Q383.202 5754.38 371.234 5783.92 Q359.267 5813.2 359.267 5846.3 Q359.267 5911.49 399.243 5946.12 Q438.965 5980.75 514.335 5980.75 Q589.451 5980.75 629.427 5946.12 Q669.149 5911.49 669.149 5846.3 Q669.149 5813.2 657.182 5783.92 Q645.214 5754.38 621.024 5728.41 L674.751 5728.41 Q693.084 5755.4 702.251 5785.7 Q711.417 5815.75 711.417 5849.36 Q711.417 5935.68 658.709 5985.33 Q605.747 6034.98 514.335 6034.98 Q422.669 6034.98 369.961 5985.33 Q316.998 5935.68 316.998 5849.36 Q316.998 5815.24 326.165 5785.19 Q335.077 5754.89 353.156 5728.41 Z" fill="#000000" fill-rule="evenodd" fill-opacity="1" /><polyline clip-path="url(#clip5202)" style="stroke:#009af9; stroke-width:48; stroke-opacity:1; fill:none" points="
  1886.46,11073.9 1927.67,11073.9 1968.88,11073.9 2010.09,11073.9 2051.3,11073.9 2092.5,11073.9 2133.71,11073.9 2174.92,11073.9 2216.13,11073.9 2257.34,11073.9 
  2298.55,11073.9 2339.76,11073.9 2380.97,11073.9 2422.18,11073.9 2463.38,11073.9 2504.59,11073.9 2545.8,11073.9 2587.01,11073.9 2628.22,11073.9 2669.43,11073.9 
  2710.64,11073.9 2751.85,11073.9 2793.05,11073.9 2834.26,11073.9 2875.47,11073.9 2916.68,11073.9 2957.89,11073.9 2999.1,11073.9 3040.31,11073.9 3081.52,11073.9 
  3122.73,11073.9 3163.93,11073.9 3205.14,11073.9 3246.35,11073.9 3287.56,11073.9 3328.77,11073.9 3369.98,11073.9 3411.19,11073.5 3452.4,11073.4 3493.6,11073.6 
  3534.81,11072.8 3576.02,11073.9 3617.23,11072.9 3658.44,11073.8 3699.65,11070.7 3740.86,11072.4 3782.07,11069.8 3823.28,11072.8 3864.48,11071.5 3905.69,11072.8 
  3946.9,11066.1 3988.11,11067.4 4029.32,11065.6 4070.53,11062.2 4111.74,11066.5 4152.95,11066.6 4194.15,11059.7 4235.36,11064.3 4276.57,11064.3 4317.78,11055.9 
  4358.99,11056.7 4400.2,11055.2 4441.41,11049.4 4482.62,11053 4523.82,11049.4 4565.03,11031.7 4606.24,11044.5 4647.45,11035.8 4688.66,11027.8 4729.87,11009.6 
  4771.08,11007.9 4812.29,11011.6 4853.5,11001.5 4894.7,10984.9 4935.91,10973.9 4977.12,10989 5018.33,10975.1 5059.54,10978.8 5100.75,10952.5 5141.96,10944 
  5183.17,10927.6 5224.37,10914.2 5265.58,10904.7 5306.79,10891 5348,10886.5 5389.21,10846.3 5430.42,10853.8 5471.63,10834.9 5512.84,10844.1 5554.05,10797.3 
  5595.25,10771.6 5636.46,10764.5 5677.67,10744 5718.88,10731.6 5760.09,10695.5 5801.3,10674.9 5842.51,10672.3 5883.72,10625.3 5924.92,10594.4 5966.13,10600.2 
  6007.34,10567.8 6048.55,10509.2 6089.76,10492.1 6130.97,10491.7 6172.18,10408.2 6213.39,10362.2 6254.6,10326.9 6295.8,10336.9 6337.01,10260.9 6378.22,10240.1 
  6419.43,10213.6 6460.64,10140.7 6501.85,10087.6 6543.06,10057.4 6584.27,9986.76 6625.47,9973.05 6666.68,9955.73 6707.89,9905.62 6749.1,9860.18 6790.31,9763.57 
  6831.52,9701.23 6872.73,9730.23 6913.94,9597.61 6955.15,9548.66 6996.35,9463.53 7037.56,9434.6 7078.77,9364.53 7119.98,9330.75 7161.19,9180.65 7202.4,9110.2 
  7243.61,8988.04 7284.82,8918.09 7326.02,8920.26 7367.23,8767.99 7408.44,8810.01 7449.65,8722.09 7490.86,8628.73 7532.07,8437.97 7573.28,8425.29 7614.49,8122.4 
  7655.69,8299.81 7696.9,8000.72 7738.11,7935.4 7779.32,8124.23 7820.53,7725.29 7861.74,7751.16 7902.95,7751.53 7944.16,7497.66 7985.37,7154.41 8026.57,6978.66 
  8067.78,6785.97 8108.99,6325.36 8150.2,6526.71 8191.41,6473.44 8232.62,6392.55 8273.83,6152.1 8315.04,6312.63 8356.24,5492.76 8397.45,5884.29 8438.66,5684.08 
  8479.87,4973.8 8521.08,5416.35 8562.29,4619.7 8603.5,4694.87 8644.71,4734.09 8685.92,3807.57 8727.12,4149.72 8768.33,3442.56 8809.54,3786.88 8850.75,3227.42 
  8891.96,3566 8933.17,3184.3 8974.38,2508.43 9015.59,2107.2 9056.79,3051.74 9098,2140.33 9139.21,2019.39 9180.42,2052.61 9221.63,1622.19 9262.84,1781.34 
  9304.05,1882.22 9345.26,1615.98 9386.47,1444.43 9427.67,1463.25 9468.88,1389.54 9510.09,1292.07 9551.3,853.949 9592.51,689.485 9633.72,976.184 9674.93,1301.47 
  9716.14,1360.16 9757.34,1358.04 9798.55,1281.23 9839.76,1540.92 9880.97,1537.58 9922.18,1502.34 9963.39,1561.9 10004.6,1513.25 10045.8,1899.14 10087,1553.03 
  10128.2,2063.11 10169.4,1938.77 10210.6,2393.45 10251.9,2404.37 10293.1,2099.25 10334.3,2568.82 10375.5,2550.62 10416.7,2841.83 10457.9,2873.09 10499.1,3236.58 
  10540.3,3201.28 10581.5,3263.78 10622.7,3369.5 10663.9,3373.33 10705.1,3857.58 10746.4,3650.09 10787.6,3949.76 10828.8,4283.85 10870,3942.11 10911.2,4144.21 
  10952.4,4677.16 10993.6,4261.7 11034.8,4675.54 11076,4767.78 11117.2,4718.77 11158.4,5206.85 11199.7,5092.87 11240.9,5161.92 11282.1,5010.91 11323.3,5537.06 
  11364.5,5713.03 11405.7,5290.41 11446.9,5541.96 11488.1,5822.01 11529.3,5858.49 11570.5,6003.46 11611.7,5947.02 11652.9,6279.75 11694.2,6166.81 11735.4,6126.01 
  11776.6,6280.27 11817.8,6421.7 11859,6461.12 11900.2,6396.87 11941.4,6692.31 11982.6,6533.4 12023.8,6858.02 12065,6665.16 12106.2,6545.81 12147.5,6817.67 
  12188.7,6919.99 12229.9,6940.98 12271.1,6979.02 12312.3,7020.99 12353.5,7092.77 12394.7,7132.47 12435.9,7253.07 12477.1,7164.55 12518.3,7319.65 12559.5,7357.78 
  12600.8,7436.33 12642,7320.6 12683.2,7289.09 12724.4,7485.28 12765.6,7573.37 12806.8,7512.95 12848,7566.44 12889.2,7501.87 12930.4,7626.44 12971.6,7644.36 
  13012.8,7797.34 13054,7742.81 13095.3,7739.49 13136.5,7800.84 13177.7,7870.3 13218.9,7783.06 13260.1,7911.93 13301.3,7744.12 13342.5,7857.02 13383.7,7818.47 
  13424.9,7902.19 13466.1,8086.45 13507.3,7936.69 13548.6,7982.72 13589.8,8013.57 13631,8016.72 13672.2,8090.8 13713.4,8005.29 13754.6,8163.86 13795.8,8090.67 
  13837,8173.31 13878.2,8216 13919.4,8144.56 13960.6,8296.78 14001.9,8262.74 14043.1,8315.94 14084.3,8281.18 14125.5,8375.67 14166.7,8229.78 14207.9,8312.27 
  14249.1,8376.64 14290.3,8352.4 14331.5,8380.93 14372.7,8388.88 14413.9,8427.32 14455.1,8470.27 14496.4,8449.23 14537.6,8519.03 14578.8,8542.56 14620,8481.87 
  14661.2,8554.1 14702.4,8514.02 14743.6,8563.38 14784.8,8529.95 14826,8619.11 14867.2,8532.02 14908.4,8598.19 14949.7,8674.61 14990.9,8639.32 15032.1,8684.71 
  15073.3,8647.9 15114.5,8692.91 15155.7,8717.93 15196.9,8737.48 15238.1,8683.07 15279.3,8764.49 15320.5,8830.21 15361.7,8751.88 15403,8734.16 15444.2,8720.99 
  15485.4,8840.92 15526.6,8787.67 15567.8,8814.97 15609,8789.06 15650.2,8796.5 15691.4,8881.92 15732.6,8819.24 15773.8,8897.83 15815,8851.89 15856.2,8923.34 
  15897.5,8923.74 15938.7,8891.65 15979.9,8952.16 16021.1,8929.73 16062.3,8950.17 16103.5,8912.34 16144.7,8993.51 16185.9,8972.15 16227.1,8954.82 16268.3,8977.93 
  16309.5,9010.94 16350.8,9042.13 16392,9014.66 16433.2,9012.99 16474.4,9032.86 16515.6,9089.99 16556.8,9058.56 16598,9014.72 16639.2,9071.71 16680.4,9073.96 
  16721.6,9091.03 16762.8,9045.28 16804.1,9106.11 16845.3,9089.11 16886.5,9114.04 16927.7,9093.35 16968.9,9159.15 17010.1,9172.49 17051.3,9134.26 17092.5,9162.99 
  17133.7,9172.24 17174.9,9170.8 17216.1,9214.38 17257.3,9205.41 17298.6,9158.2 17339.8,9213.06 17381,9209.12 17422.2,9240.19 17463.4,9226.48 17504.6,9189.56 
  17545.8,9284.77 17587,9236.51 17628.2,9265.12 17669.4,9279.75 17710.6,9281.15 17751.9,9278.64 17793.1,9278.2 17834.3,9301.5 17875.5,9310.9 17916.7,9289.11 
  17957.9,9288.03 17999.1,9323.76 18040.3,9266.62 18081.5,9304.03 18122.7,9341.68 18163.9,9364.61 18205.2,9324.03 18246.4,9363.36 18287.6,9372.87 18328.8,9361.54 
  
  "/>
<polyline clip-path="url(#clip5202)" style="stroke:#e26f46; stroke-width:32; stroke-opacity:1; fill:none" points="
  9592.51,689.485 9592.51,11073.9 
  "/>
<path clip-path="url(#clip5200)" d="
M15920.9 2497.63 L18246 2497.63 L18246 1046.11 L15920.9 1046.11  Z
  " fill="#ffffff" fill-rule="evenodd" fill-opacity="1"/>
<polyline clip-path="url(#clip5200)" style="stroke:#000000; stroke-width:32; stroke-opacity:1; fill:none" points="
  15920.9,2497.63 18246,2497.63 18246,1046.11 15920.9,1046.11 15920.9,2497.63 
  "/>
<polyline clip-path="url(#clip5200)" style="stroke:#009af9; stroke-width:48; stroke-opacity:1; fill:none" points="
  16112.9,1529.95 17264.9,1529.95 
  "/>
<path clip-path="url(#clip5200)" d="M 0 0 M17679.8 1413.01 L17679.8 1452.45 Q17660.9 1434.86 17639.5 1426.16 Q17618.2 1417.45 17594.1 1417.45 Q17546.7 1417.45 17521.5 1446.53 Q17496.3 1475.42 17496.3 1530.23 Q17496.3 1584.86 17521.5 1613.93 Q17546.7 1642.82 17594.1 1642.82 Q17618.2 1642.82 17639.5 1634.12 Q17660.9 1625.42 17679.8 1607.82 L17679.8 1646.9 Q17660.2 1660.23 17638.2 1666.9 Q17616.3 1673.56 17591.9 1673.56 Q17529.1 1673.56 17493 1635.23 Q17456.9 1596.71 17456.9 1530.23 Q17456.9 1463.56 17493 1425.23 Q17529.1 1386.71 17591.9 1386.71 Q17616.7 1386.71 17638.5 1393.38 Q17660.6 1399.86 17679.8 1413.01 Z" fill="#000000" fill-rule="evenodd" fill-opacity="1" /><polyline clip-path="url(#clip5200)" style="stroke:#e26f46; stroke-width:32; stroke-opacity:1; fill:none" points="
  16112.9,2013.79 17264.9,2013.79 
  "/>
<path clip-path="url(#clip5200)" d="M 0 0 M17567.6 2171.29 Q17553.2 2208.33 17539.5 2219.62 Q17525.8 2230.92 17502.8 2230.92 L17475.6 2230.92 L17475.6 2202.4 L17495.6 2202.4 Q17509.6 2202.4 17517.4 2195.74 Q17525.2 2189.07 17534.6 2164.25 L17540.8 2148.7 L17456.9 1944.63 L17493 1944.63 L17557.8 2106.85 L17622.6 1944.63 L17658.7 1944.63 L17567.6 2171.29 Z" fill="#000000" fill-rule="evenodd" fill-opacity="1" /><path clip-path="url(#clip5200)" d="M 0 0 M17731.5 2120.55 L17862 2120.55 L17862 2152.03 L17686.5 2152.03 L17686.5 2120.55 Q17707.8 2098.51 17744.5 2061.48 Q17781.3 2024.26 17790.8 2013.51 Q17808.7 1993.33 17815.8 1979.44 Q17823 1965.37 17823 1951.85 Q17823 1929.81 17807.4 1915.92 Q17792 1902.03 17767.2 1902.03 Q17749.6 1902.03 17730 1908.15 Q17710.6 1914.26 17688.3 1926.66 L17688.3 1888.89 Q17710.9 1879.81 17730.6 1875.18 Q17750.2 1870.55 17766.5 1870.55 Q17809.5 1870.55 17835 1892.03 Q17860.6 1913.52 17860.6 1949.44 Q17860.6 1966.48 17854.1 1981.85 Q17847.8 1997.03 17830.9 2017.77 Q17826.3 2023.14 17801.5 2048.89 Q17776.7 2074.44 17731.5 2120.55 Z" fill="#000000" fill-rule="evenodd" fill-opacity="1" /></svg>
