<?xml version="1.0" encoding="utf-8"?>
<svg xmlns="http://www.w3.org/2000/svg" xmlns:xlink="http://www.w3.org/1999/xlink" width="4800" height="3200" viewBox="0 0 19200 12800">
<defs>
  <clipPath id="clip4900">
    <rect x="0" y="0" width="19200" height="12800"/>
  </clipPath>
</defs>
<path clip-path="url(#clip4900)" d="
M0 12800 L19200 12800 L19200 0 L0 0  Z
  " fill="#ffffff" fill-rule="evenodd" fill-opacity="1"/>
<defs>
  <clipPath id="clip4901">
    <rect x="3840" y="0" width="13441" height="12800"/>
  </clipPath>
</defs>
<path clip-path="url(#clip4900)" d="
M1680.97 11385.4 L18822 11385.4 L18822 987.777 L1680.97 987.777  Z
  " fill="#ffffff" fill-rule="evenodd" fill-opacity="1"/>
<defs>
  <clipPath id="clip4902">
    <rect x="1680" y="987" width="17142" height="10399"/>
  </clipPath>
</defs>
<polyline clip-path="url(#clip4902)" style="stroke:#000000; stroke-width:16; stroke-opacity:0.1; fill:none" points="
  3459.76,11385.4 3459.76,987.777 
  "/>
<polyline clip-path="url(#clip4902)" style="stroke:#000000; stroke-width:16; stroke-opacity:0.1; fill:none" points="
  7340.76,11385.4 7340.76,987.777 
  "/>
<polyline clip-path="url(#clip4902)" style="stroke:#000000; stroke-width:16; stroke-opacity:0.1; fill:none" points="
  11221.8,11385.4 11221.8,987.777 
  "/>
<polyline clip-path="url(#clip4902)" style="stroke:#000000; stroke-width:16; stroke-opacity:0.1; fill:none" points="
  15102.8,11385.4 15102.8,987.777 
  "/>
<polyline clip-path="url(#clip4902)" style="stroke:#000000; stroke-width:16; stroke-opacity:0.1; fill:none" points="
  1680.97,10552.2 18822,10552.2 
  "/>
<polyline clip-path="url(#clip4902)" style="stroke:#000000; stroke-width:16; stroke-opacity:0.1; fill:none" points="
  1680.97,8431.24 18822,8431.24 
  "/>
<polyline clip-path="url(#clip4902)" style="stroke:#000000; stroke-width:16; stroke-opacity:0.1; fill:none" points="
  1680.97,6310.25 18822,6310.25 
  "/>
<polyline clip-path="url(#clip4902)" style="stroke:#000000; stroke-width:16; stroke-opacity:0.1; fill:none" points="
  1680.97,4189.25 18822,4189.25 
  "/>
<polyline clip-path="url(#clip4902)" style="stroke:#000000; stroke-width:16; stroke-opacity:0.1; fill:none" points="
  1680.97,2068.26 18822,2068.26 
  "/>
<polyline clip-path="url(#clip4900)" style="stroke:#000000; stroke-width:32; stroke-opacity:1; fill:none" points="
  1680.97,11385.4 18822,11385.4 
  "/>
<polyline clip-path="url(#clip4900)" style="stroke:#000000; stroke-width:32; stroke-opacity:1; fill:none" points="
  1680.97,11385.4 1680.97,987.777 
  "/>
<polyline clip-path="url(#clip4900)" style="stroke:#000000; stroke-width:32; stroke-opacity:1; fill:none" points="
  3459.76,11385.4 3459.76,11260.7 
  "/>
<polyline clip-path="url(#clip4900)" style="stroke:#000000; stroke-width:32; stroke-opacity:1; fill:none" points="
  7340.76,11385.4 7340.76,11260.7 
  "/>
<polyline clip-path="url(#clip4900)" style="stroke:#000000; stroke-width:32; stroke-opacity:1; fill:none" points="
  11221.8,11385.4 11221.8,11260.7 
  "/>
<polyline clip-path="url(#clip4900)" style="stroke:#000000; stroke-width:32; stroke-opacity:1; fill:none" points="
  15102.8,11385.4 15102.8,11260.7 
  "/>
<polyline clip-path="url(#clip4900)" style="stroke:#000000; stroke-width:32; stroke-opacity:1; fill:none" points="
  1680.97,10552.2 1886.66,10552.2 
  "/>
<polyline clip-path="url(#clip4900)" style="stroke:#000000; stroke-width:32; stroke-opacity:1; fill:none" points="
  1680.97,8431.24 1886.66,8431.24 
  "/>
<polyline clip-path="url(#clip4900)" style="stroke:#000000; stroke-width:32; stroke-opacity:1; fill:none" points="
  1680.97,6310.25 1886.66,6310.25 
  "/>
<polyline clip-path="url(#clip4900)" style="stroke:#000000; stroke-width:32; stroke-opacity:1; fill:none" points="
  1680.97,4189.25 1886.66,4189.25 
  "/>
<polyline clip-path="url(#clip4900)" style="stroke:#000000; stroke-width:32; stroke-opacity:1; fill:none" points="
  1680.97,2068.26 1886.66,2068.26 
  "/>
<path clip-path="url(#clip4900)" d="M 0 0 M3274.02 11781.7 L3404.57 11781.7 L3404.57 11813.2 L3229.02 11813.2 L3229.02 11781.7 Q3250.32 11759.7 3286.98 11722.7 Q3323.83 11685.4 3333.28 11674.7 Q3351.24 11654.5 3358.28 11640.6 Q3365.5 11626.5 3365.5 11613 Q3365.5 11591 3349.94 11577.1 Q3334.57 11563.2 3309.76 11563.2 Q3292.17 11563.2 3272.54 11569.3 Q3253.09 11575.4 3230.87 11587.8 L3230.87 11550.1 Q3253.46 11541 3273.09 11536.4 Q3292.72 11531.7 3309.02 11531.7 Q3351.98 11531.7 3377.54 11553.2 Q3403.09 11574.7 3403.09 11610.6 Q3403.09 11627.7 3396.61 11643 Q3390.31 11658.2 3373.46 11679 Q3368.83 11684.3 3344.02 11710.1 Q3319.2 11735.6 3274.02 11781.7 Z" fill="#000000" fill-rule="evenodd" fill-opacity="1" /><path clip-path="url(#clip4900)" d="M 0 0 M3445.13 11766.2 L3484.2 11766.2 L3484.2 11813.2 L3445.13 11813.2 L3445.13 11766.2 Z" fill="#000000" fill-rule="evenodd" fill-opacity="1" /><path clip-path="url(#clip4900)" d="M 0 0 M3531.24 11781.7 L3592.35 11781.7 L3592.35 11570.8 L3525.87 11584.1 L3525.87 11550.1 L3591.98 11536.7 L3629.39 11536.7 L3629.39 11781.7 L3690.5 11781.7 L3690.5 11813.2 L3531.24 11813.2 L3531.24 11781.7 Z" fill="#000000" fill-rule="evenodd" fill-opacity="1" /><path clip-path="url(#clip4900)" d="M 0 0 M7148.17 11781.7 L7278.72 11781.7 L7278.72 11813.2 L7103.17 11813.2 L7103.17 11781.7 Q7124.46 11759.7 7161.13 11722.7 Q7197.98 11685.4 7207.43 11674.7 Q7225.39 11654.5 7232.43 11640.6 Q7239.65 11626.5 7239.65 11613 Q7239.65 11591 7224.09 11577.1 Q7208.72 11563.2 7183.91 11563.2 Q7166.31 11563.2 7146.69 11569.3 Q7127.24 11575.4 7105.02 11587.8 L7105.02 11550.1 Q7127.61 11541 7147.24 11536.4 Q7166.87 11531.7 7183.17 11531.7 Q7226.13 11531.7 7251.68 11553.2 Q7277.24 11574.7 7277.24 11610.6 Q7277.24 11627.7 7270.76 11643 Q7264.46 11658.2 7247.61 11679 Q7242.98 11684.3 7218.17 11710.1 Q7193.35 11735.6 7148.17 11781.7 Z" fill="#000000" fill-rule="evenodd" fill-opacity="1" /><path clip-path="url(#clip4900)" d="M 0 0 M7319.28 11766.2 L7358.35 11766.2 L7358.35 11813.2 L7319.28 11813.2 L7319.28 11766.2 Z" fill="#000000" fill-rule="evenodd" fill-opacity="1" /><path clip-path="url(#clip4900)" d="M 0 0 M7501.68 11569.3 L7407.24 11716.9 L7501.68 11716.9 L7501.68 11569.3 M7491.87 11536.7 L7538.91 11536.7 L7538.91 11716.9 L7578.35 11716.9 L7578.35 11748 L7538.91 11748 L7538.91 11813.2 L7501.68 11813.2 L7501.68 11748 L7376.87 11748 L7376.87 11711.9 L7491.87 11536.7 Z" fill="#000000" fill-rule="evenodd" fill-opacity="1" /><path clip-path="url(#clip4900)" d="M 0 0 M11034.7 11781.7 L11165.3 11781.7 L11165.3 11813.2 L10989.7 11813.2 L10989.7 11781.7 Q11011 11759.7 11047.7 11722.7 Q11084.5 11685.4 11094 11674.7 Q11111.9 11654.5 11119 11640.6 Q11126.2 11626.5 11126.2 11613 Q11126.2 11591 11110.6 11577.1 Q11095.3 11563.2 11070.5 11563.2 Q11052.9 11563.2 11033.2 11569.3 Q11013.8 11575.4 10991.6 11587.8 L10991.6 11550.1 Q11014.2 11541 11033.8 11536.4 Q11053.4 11531.7 11069.7 11531.7 Q11112.7 11531.7 11138.2 11553.2 Q11163.8 11574.7 11163.8 11610.6 Q11163.8 11627.7 11157.3 11643 Q11151 11658.2 11134.2 11679 Q11129.5 11684.3 11104.7 11710.1 Q11079.9 11735.6 11034.7 11781.7 Z" fill="#000000" fill-rule="evenodd" fill-opacity="1" /><path clip-path="url(#clip4900)" d="M 0 0 M11205.8 11766.2 L11244.9 11766.2 L11244.9 11813.2 L11205.8 11813.2 L11205.8 11766.2 Z" fill="#000000" fill-rule="evenodd" fill-opacity="1" /><path clip-path="url(#clip4900)" d="M 0 0 M11276 11536.7 L11453.8 11536.7 L11453.8 11552.7 L11353.4 11813.2 L11314.3 11813.2 L11408.8 11568.2 L11276 11568.2 L11276 11536.7 Z" fill="#000000" fill-rule="evenodd" fill-opacity="1" /><path clip-path="url(#clip4900)" d="M 0 0 M14988.9 11664.1 Q15015.7 11669.9 15030.7 11688 Q15045.9 11706.2 15045.9 11732.8 Q15045.9 11773.8 15017.8 11796.2 Q14989.6 11818.6 14937.8 11818.6 Q14920.3 11818.6 14901.8 11815.1 Q14883.5 11811.7 14863.9 11804.9 L14863.9 11768.8 Q14879.4 11777.8 14897.9 11782.5 Q14916.5 11787.1 14936.6 11787.1 Q14971.8 11787.1 14990.2 11773.2 Q15008.7 11759.3 15008.7 11732.8 Q15008.7 11708.4 14991.5 11694.7 Q14974.4 11680.8 14943.9 11680.8 L14911.6 11680.8 L14911.6 11650.1 L14945.3 11650.1 Q14972.9 11650.1 14987.6 11639.1 Q15002.2 11628 15002.2 11607.3 Q15002.2 11586 14987 11574.7 Q14972 11563.2 14943.9 11563.2 Q14928.5 11563.2 14910.9 11566.5 Q14893.3 11569.9 14872.2 11576.9 L14872.2 11543.6 Q14893.5 11537.7 14912 11534.7 Q14930.7 11531.7 14947.2 11531.7 Q14989.8 11531.7 15014.6 11551.2 Q15039.4 11570.4 15039.4 11603.4 Q15039.4 11626.4 15026.3 11642.3 Q15013.1 11658 14988.9 11664.1 Z" fill="#000000" fill-rule="evenodd" fill-opacity="1" /><path clip-path="url(#clip4900)" d="M 0 0 M15086.5 11766.2 L15125.5 11766.2 L15125.5 11813.2 L15086.5 11813.2 L15086.5 11766.2 Z" fill="#000000" fill-rule="evenodd" fill-opacity="1" /><path clip-path="url(#clip4900)" d="M 0 0 M15246.1 11561.4 Q15217.2 11561.4 15202.6 11589.9 Q15188.1 11618.2 15188.1 11675.3 Q15188.1 11732.1 15202.6 11760.6 Q15217.2 11789 15246.1 11789 Q15275.2 11789 15289.6 11760.6 Q15304.2 11732.1 15304.2 11675.3 Q15304.2 11618.2 15289.6 11589.9 Q15275.2 11561.4 15246.1 11561.4 M15246.1 11531.7 Q15292.6 11531.7 15317 11568.6 Q15341.6 11605.3 15341.6 11675.3 Q15341.6 11745.1 15317 11781.9 Q15292.6 11818.6 15246.1 11818.6 Q15199.6 11818.6 15175 11781.9 Q15150.5 11745.1 15150.5 11675.3 Q15150.5 11605.3 15175 11568.6 Q15199.6 11531.7 15246.1 11531.7 Z" fill="#000000" fill-rule="evenodd" fill-opacity="1" /><path clip-path="url(#clip4900)" d="M 0 0 M1105.64 10438.6 Q1076.75 10438.6 1062.12 10467.1 Q1047.67 10495.5 1047.67 10552.5 Q1047.67 10609.4 1062.12 10637.9 Q1076.75 10666.2 1105.64 10666.2 Q1134.71 10666.2 1149.15 10637.9 Q1163.78 10609.4 1163.78 10552.5 Q1163.78 10495.5 1149.15 10467.1 Q1134.71 10438.6 1105.64 10438.6 M1105.64 10409 Q1152.12 10409 1176.56 10445.8 Q1201.19 10482.5 1201.19 10552.5 Q1201.19 10622.3 1176.56 10659.2 Q1152.12 10695.8 1105.64 10695.8 Q1059.16 10695.8 1034.53 10659.2 Q1010.08 10622.3 1010.08 10552.5 Q1010.08 10482.5 1034.53 10445.8 Q1059.16 10409 1105.64 10409 Z" fill="#000000" fill-rule="evenodd" fill-opacity="1" /><path clip-path="url(#clip4900)" d="M 0 0 M1241.75 10643.4 L1280.82 10643.4 L1280.82 10690.5 L1241.75 10690.5 L1241.75 10643.4 Z" fill="#000000" fill-rule="evenodd" fill-opacity="1" /><path clip-path="url(#clip4900)" d="M 0 0 M1321.75 10414 L1468.6 10414 L1468.6 10445.5 L1356.01 10445.5 L1356.01 10513.3 Q1364.15 10510.5 1372.3 10509.2 Q1380.45 10507.7 1388.6 10507.7 Q1434.89 10507.7 1461.93 10533.1 Q1488.97 10558.4 1488.97 10601.8 Q1488.97 10646.4 1461.19 10671.2 Q1433.41 10695.8 1382.86 10695.8 Q1365.45 10695.8 1347.3 10692.9 Q1329.34 10689.9 1310.08 10684 L1310.08 10646.4 Q1326.75 10655.5 1344.52 10659.9 Q1362.3 10664.4 1382.12 10664.4 Q1414.15 10664.4 1432.86 10647.5 Q1451.56 10630.7 1451.56 10601.8 Q1451.56 10572.9 1432.86 10556 Q1414.15 10539.2 1382.12 10539.2 Q1367.12 10539.2 1352.12 10542.5 Q1337.3 10545.8 1321.75 10552.9 L1321.75 10414 Z" fill="#000000" fill-rule="evenodd" fill-opacity="1" /><path clip-path="url(#clip4900)" d="M 0 0 M1033.97 8538 L1095.08 8538 L1095.08 8327.07 L1028.6 8340.41 L1028.6 8306.33 L1094.71 8293 L1132.12 8293 L1132.12 8538 L1193.23 8538 L1193.23 8569.48 L1033.97 8569.48 L1033.97 8538 Z" fill="#000000" fill-rule="evenodd" fill-opacity="1" /><path clip-path="url(#clip4900)" d="M 0 0 M1233.78 8522.44 L1272.86 8522.44 L1272.86 8569.48 L1233.78 8569.48 L1233.78 8522.44 Z" fill="#000000" fill-rule="evenodd" fill-opacity="1" /><path clip-path="url(#clip4900)" d="M 0 0 M1393.41 8317.63 Q1364.52 8317.63 1349.89 8346.15 Q1335.45 8374.48 1335.45 8431.52 Q1335.45 8488.37 1349.89 8516.89 Q1364.52 8545.22 1393.41 8545.22 Q1422.49 8545.22 1436.93 8516.89 Q1451.56 8488.37 1451.56 8431.52 Q1451.56 8374.48 1436.93 8346.15 Q1422.49 8317.63 1393.41 8317.63 M1393.41 8288 Q1439.89 8288 1464.34 8324.85 Q1488.97 8361.52 1488.97 8431.52 Q1488.97 8501.33 1464.34 8538.18 Q1439.89 8574.85 1393.41 8574.85 Q1346.93 8574.85 1322.3 8538.18 Q1297.86 8501.33 1297.86 8431.52 Q1297.86 8361.52 1322.3 8324.85 Q1346.93 8288 1393.41 8288 Z" fill="#000000" fill-rule="evenodd" fill-opacity="1" /><path clip-path="url(#clip4900)" d="M 0 0 M1041.93 6417 L1103.04 6417 L1103.04 6206.08 L1036.56 6219.41 L1036.56 6185.34 L1102.67 6172.01 L1140.08 6172.01 L1140.08 6417 L1201.19 6417 L1201.19 6448.49 L1041.93 6448.49 L1041.93 6417 Z" fill="#000000" fill-rule="evenodd" fill-opacity="1" /><path clip-path="url(#clip4900)" d="M 0 0 M1241.75 6401.45 L1280.82 6401.45 L1280.82 6448.49 L1241.75 6448.49 L1241.75 6401.45 Z" fill="#000000" fill-rule="evenodd" fill-opacity="1" /><path clip-path="url(#clip4900)" d="M 0 0 M1321.75 6172.01 L1468.6 6172.01 L1468.6 6203.49 L1356.01 6203.49 L1356.01 6271.26 Q1364.15 6268.49 1372.3 6267.19 Q1380.45 6265.71 1388.6 6265.71 Q1434.89 6265.71 1461.93 6291.08 Q1488.97 6316.45 1488.97 6359.78 Q1488.97 6404.41 1461.19 6429.23 Q1433.41 6453.86 1382.86 6453.86 Q1365.45 6453.86 1347.3 6450.89 Q1329.34 6447.93 1310.08 6442 L1310.08 6404.41 Q1326.75 6413.49 1344.52 6417.93 Q1362.3 6422.37 1382.12 6422.37 Q1414.15 6422.37 1432.86 6405.52 Q1451.56 6388.67 1451.56 6359.78 Q1451.56 6330.89 1432.86 6314.04 Q1414.15 6297.19 1382.12 6297.19 Q1367.12 6297.19 1352.12 6300.52 Q1337.3 6303.86 1321.75 6310.89 L1321.75 6172.01 Z" fill="#000000" fill-rule="evenodd" fill-opacity="1" /><path clip-path="url(#clip4900)" d="M 0 0 M1062.67 4296.01 L1193.23 4296.01 L1193.23 4327.49 L1017.67 4327.49 L1017.67 4296.01 Q1038.97 4273.97 1075.64 4236.94 Q1112.49 4199.71 1121.93 4188.97 Q1139.9 4168.79 1146.93 4154.9 Q1154.15 4140.83 1154.15 4127.31 Q1154.15 4105.27 1138.6 4091.38 Q1123.23 4077.49 1098.41 4077.49 Q1080.82 4077.49 1061.19 4083.6 Q1041.75 4089.72 1019.53 4102.12 L1019.53 4064.35 Q1042.12 4055.27 1061.75 4050.64 Q1081.38 4046.01 1097.67 4046.01 Q1140.64 4046.01 1166.19 4067.49 Q1191.75 4088.97 1191.75 4124.9 Q1191.75 4141.94 1185.27 4157.31 Q1178.97 4172.49 1162.12 4193.23 Q1157.49 4198.6 1132.67 4224.34 Q1107.86 4249.9 1062.67 4296.01 Z" fill="#000000" fill-rule="evenodd" fill-opacity="1" /><path clip-path="url(#clip4900)" d="M 0 0 M1233.78 4280.46 L1272.86 4280.46 L1272.86 4327.49 L1233.78 4327.49 L1233.78 4280.46 Z" fill="#000000" fill-rule="evenodd" fill-opacity="1" /><path clip-path="url(#clip4900)" d="M 0 0 M1393.41 4075.64 Q1364.52 4075.64 1349.89 4104.16 Q1335.45 4132.49 1335.45 4189.53 Q1335.45 4246.38 1349.89 4274.9 Q1364.52 4303.23 1393.41 4303.23 Q1422.49 4303.23 1436.93 4274.9 Q1451.56 4246.38 1451.56 4189.53 Q1451.56 4132.49 1436.93 4104.16 Q1422.49 4075.64 1393.41 4075.64 M1393.41 4046.01 Q1439.89 4046.01 1464.34 4082.86 Q1488.97 4119.53 1488.97 4189.53 Q1488.97 4259.34 1464.34 4296.2 Q1439.89 4332.86 1393.41 4332.86 Q1346.93 4332.86 1322.3 4296.2 Q1297.86 4259.34 1297.86 4189.53 Q1297.86 4119.53 1322.3 4082.86 Q1346.93 4046.01 1393.41 4046.01 Z" fill="#000000" fill-rule="evenodd" fill-opacity="1" /><path clip-path="url(#clip4900)" d="M 0 0 M1070.64 2175.02 L1201.19 2175.02 L1201.19 2206.5 L1025.64 2206.5 L1025.64 2175.02 Q1046.93 2152.98 1083.6 2115.94 Q1120.45 2078.72 1129.9 2067.98 Q1147.86 2047.8 1154.9 2033.91 Q1162.12 2019.83 1162.12 2006.31 Q1162.12 1984.28 1146.56 1970.39 Q1131.19 1956.5 1106.38 1956.5 Q1088.78 1956.5 1069.16 1962.61 Q1049.71 1968.72 1027.49 1981.13 L1027.49 1943.35 Q1050.08 1934.28 1069.71 1929.65 Q1089.34 1925.02 1105.64 1925.02 Q1148.6 1925.02 1174.15 1946.5 Q1199.71 1967.98 1199.71 2003.91 Q1199.71 2020.94 1193.23 2036.31 Q1186.93 2051.5 1170.08 2072.24 Q1165.45 2077.61 1140.64 2103.35 Q1115.82 2128.91 1070.64 2175.02 Z" fill="#000000" fill-rule="evenodd" fill-opacity="1" /><path clip-path="url(#clip4900)" d="M 0 0 M1241.75 2159.46 L1280.82 2159.46 L1280.82 2206.5 L1241.75 2206.5 L1241.75 2159.46 Z" fill="#000000" fill-rule="evenodd" fill-opacity="1" /><path clip-path="url(#clip4900)" d="M 0 0 M1321.75 1930.02 L1468.6 1930.02 L1468.6 1961.5 L1356.01 1961.5 L1356.01 2029.28 Q1364.15 2026.5 1372.3 2025.2 Q1380.45 2023.72 1388.6 2023.72 Q1434.89 2023.72 1461.93 2049.09 Q1488.97 2074.46 1488.97 2117.8 Q1488.97 2162.42 1461.19 2187.24 Q1433.41 2211.87 1382.86 2211.87 Q1365.45 2211.87 1347.3 2208.91 Q1329.34 2205.94 1310.08 2200.02 L1310.08 2162.42 Q1326.75 2171.5 1344.52 2175.94 Q1362.3 2180.39 1382.12 2180.39 Q1414.15 2180.39 1432.86 2163.54 Q1451.56 2146.68 1451.56 2117.8 Q1451.56 2088.91 1432.86 2072.05 Q1414.15 2055.2 1382.12 2055.2 Q1367.12 2055.2 1352.12 2058.54 Q1337.3 2061.87 1321.75 2068.91 L1321.75 1930.02 Z" fill="#000000" fill-rule="evenodd" fill-opacity="1" /><path clip-path="url(#clip4900)" d="M 0 0 M7335.67 76.3514 L7395.3 76.3514 L7395.3 580.608 L7335.67 580.608 L7335.67 76.3514 Z" fill="#000000" fill-rule="evenodd" fill-opacity="1" /><path clip-path="url(#clip4900)" d="M 0 0 M7598.49 259.452 Q7550.53 259.452 7522.66 297.045 Q7494.79 334.313 7494.79 399.452 Q7494.79 464.59 7522.33 502.182 Q7550.2 539.451 7598.49 539.451 Q7646.13 539.451 7674 501.858 Q7701.87 464.266 7701.87 399.452 Q7701.87 334.961 7674 297.369 Q7646.13 259.452 7598.49 259.452 M7598.49 208.897 Q7676.27 208.897 7720.66 259.452 Q7765.06 310.008 7765.06 399.452 Q7765.06 488.571 7720.66 539.451 Q7676.27 590.006 7598.49 590.006 Q7520.39 590.006 7475.99 539.451 Q7431.92 488.571 7431.92 399.452 Q7431.92 310.008 7475.99 259.452 Q7520.39 208.897 7598.49 208.897 Z" fill="#000000" fill-rule="evenodd" fill-opacity="1" /><path clip-path="url(#clip4900)" d="M 0 0 M8066.45 394.915 Q8066.45 330.1 8039.55 294.452 Q8012.98 258.804 7964.69 258.804 Q7916.73 258.804 7889.83 294.452 Q7863.26 330.1 7863.26 394.915 Q7863.26 459.405 7889.83 495.053 Q7916.73 530.701 7964.69 530.701 Q8012.98 530.701 8039.55 495.053 Q8066.45 459.405 8066.45 394.915 M8126.08 535.562 Q8126.08 628.247 8084.92 673.293 Q8043.76 718.663 7958.86 718.663 Q7927.42 718.663 7899.55 713.802 Q7871.68 709.265 7845.43 699.543 L7845.43 641.534 Q7871.68 655.793 7897.28 662.598 Q7922.89 669.404 7949.46 669.404 Q8008.12 669.404 8037.28 638.617 Q8066.45 608.154 8066.45 546.256 L8066.45 516.766 Q8047.98 548.849 8019.14 564.728 Q7990.29 580.608 7950.11 580.608 Q7883.35 580.608 7842.52 529.729 Q7801.68 478.849 7801.68 394.915 Q7801.68 310.656 7842.52 259.776 Q7883.35 208.897 7950.11 208.897 Q7990.29 208.897 8019.14 224.777 Q8047.98 240.656 8066.45 272.739 L8066.45 217.647 L8126.08 217.647 L8126.08 535.562 Z" fill="#000000" fill-rule="evenodd" fill-opacity="1" /><path clip-path="url(#clip4900)" d="M 0 0 M8553.53 134.036 L8553.53 203.064 Q8520.48 172.277 8482.88 157.045 Q8445.61 141.814 8403.48 141.814 Q8320.52 141.814 8276.45 192.693 Q8232.37 243.249 8232.37 339.174 Q8232.37 434.775 8276.45 485.655 Q8320.52 536.21 8403.48 536.21 Q8445.61 536.21 8482.88 520.979 Q8520.48 505.747 8553.53 474.96 L8553.53 543.34 Q8519.18 566.673 8480.61 578.339 Q8442.37 590.006 8399.6 590.006 Q8289.74 590.006 8226.54 522.923 Q8163.35 455.516 8163.35 339.174 Q8163.35 222.508 8226.54 155.425 Q8289.74 88.018 8399.6 88.018 Q8443.02 88.018 8481.26 99.6847 Q8519.83 111.027 8553.53 134.036 Z" fill="#000000" fill-rule="evenodd" fill-opacity="1" /><path clip-path="url(#clip4900)" d="M 0 0 M8917.79 361.535 L8917.79 580.608 L8858.16 580.608 L8858.16 363.48 Q8858.16 311.952 8838.07 286.35 Q8817.97 260.749 8777.79 260.749 Q8729.5 260.749 8701.63 291.535 Q8673.76 322.322 8673.76 375.47 L8673.76 580.608 L8613.81 580.608 L8613.81 76.3514 L8673.76 76.3514 L8673.76 274.036 Q8695.15 241.304 8723.99 225.101 Q8753.16 208.897 8791.08 208.897 Q8853.62 208.897 8885.7 247.786 Q8917.79 286.35 8917.79 361.535 Z" fill="#000000" fill-rule="evenodd" fill-opacity="1" /><path clip-path="url(#clip4900)" d="M 0 0 M8980.33 217.647 L9039.96 217.647 L9039.96 580.608 L8980.33 580.608 L8980.33 217.647 M8980.33 76.3514 L9039.96 76.3514 L9039.96 151.86 L8980.33 151.86 L8980.33 76.3514 Z" fill="#000000" fill-rule="evenodd" fill-opacity="1" /><path clip-path="url(#clip4900)" d="M 0 0 M9245.75 76.9996 Q9202.32 151.536 9181.26 224.453 Q9160.19 297.369 9160.19 372.229 Q9160.19 447.09 9181.26 520.655 Q9202.65 593.895 9245.75 668.108 L9193.9 668.108 Q9145.29 591.951 9120.98 518.386 Q9097 444.822 9097 372.229 Q9097 299.961 9120.98 226.721 Q9144.96 153.481 9193.9 76.9996 L9245.75 76.9996 Z" fill="#000000" fill-rule="evenodd" fill-opacity="1" /><path clip-path="url(#clip4900)" d="M 0 0 M9243.8 96.768 L9653.11 96.768 L9653.11 151.86 L9481.35 151.86 L9481.35 580.608 L9415.56 580.608 L9415.56 151.86 L9243.8 151.86 L9243.8 96.768 Z" fill="#000000" fill-rule="evenodd" fill-opacity="1" /><path clip-path="url(#clip4900)" d="M 0 0 M9864.08 231.582 L9864.08 287.323 Q9838.8 273.387 9813.2 266.582 Q9787.92 259.452 9762 259.452 Q9703.99 259.452 9671.9 296.397 Q9639.82 333.017 9639.82 399.452 Q9639.82 465.886 9671.9 502.831 Q9703.99 539.451 9762 539.451 Q9787.92 539.451 9813.2 532.645 Q9838.8 525.516 9864.08 511.581 L9864.08 566.673 Q9839.13 578.339 9812.23 584.173 Q9785.65 590.006 9755.51 590.006 Q9673.52 590.006 9625.24 538.479 Q9576.95 486.951 9576.95 399.452 Q9576.95 310.656 9625.56 259.776 Q9674.5 208.897 9759.4 208.897 Q9786.95 208.897 9813.2 214.73 Q9839.45 220.24 9864.08 231.582 Z" fill="#000000" fill-rule="evenodd" fill-opacity="1" /><path clip-path="url(#clip4900)" d="M 0 0 M10069.9 76.9996 Q10026.4 151.536 10005.4 224.453 Q9984.31 297.369 9984.31 372.229 Q9984.31 447.09 10005.4 520.655 Q10026.8 593.895 10069.9 668.108 L10018 668.108 Q9969.4 591.951 9945.1 518.386 Q9921.12 444.822 9921.12 372.229 Q9921.12 299.961 9945.1 226.721 Q9969.08 153.481 10018 76.9996 L10069.9 76.9996 Z" fill="#000000" fill-rule="evenodd" fill-opacity="1" /><path clip-path="url(#clip4900)" d="M 0 0 M10135 96.768 L10200.5 96.768 L10200.5 525.516 L10436.1 525.516 L10436.1 580.608 L10135 580.608 L10135 96.768 Z" fill="#000000" fill-rule="evenodd" fill-opacity="1" /><path clip-path="url(#clip4900)" d="M 0 0 M10489.2 76.9996 L10541.1 76.9996 Q10589.7 153.481 10613.7 226.721 Q10638 299.961 10638 372.229 Q10638 444.822 10613.7 518.386 Q10589.7 591.951 10541.1 668.108 L10489.2 668.108 Q10532.3 593.895 10553.4 520.655 Q10574.8 447.09 10574.8 372.229 Q10574.8 297.369 10553.4 224.453 Q10532.3 151.536 10489.2 76.9996 Z" fill="#000000" fill-rule="evenodd" fill-opacity="1" /><path clip-path="url(#clip4900)" d="M 0 0 M10691.1 76.9996 L10743 76.9996 Q10791.6 153.481 10815.6 226.721 Q10839.9 299.961 10839.9 372.229 Q10839.9 444.822 10815.6 518.386 Q10791.6 591.951 10743 668.108 L10691.1 668.108 Q10734.2 593.895 10755.3 520.655 Q10776.7 447.09 10776.7 372.229 Q10776.7 297.369 10755.3 224.453 Q10734.2 151.536 10691.1 76.9996 Z" fill="#000000" fill-rule="evenodd" fill-opacity="1" /><path clip-path="url(#clip4900)" d="M 0 0 M11070.6 217.647 L11133.8 217.647 L11247.2 522.275 L11360.6 217.647 L11423.8 217.647 L11287.7 580.608 L11206.7 580.608 L11070.6 217.647 Z" fill="#000000" fill-rule="evenodd" fill-opacity="1" /><path clip-path="url(#clip4900)" d="M 0 0 M11717.8 228.341 L11717.8 284.73 Q11692.5 271.767 11665.3 265.286 Q11638.1 258.804 11608.9 258.804 Q11564.5 258.804 11542.1 272.415 Q11520.1 286.026 11520.1 313.248 Q11520.1 333.989 11536 345.98 Q11551.8 357.646 11599.8 368.341 L11620.2 372.878 Q11683.7 386.489 11710.3 411.442 Q11737.2 436.072 11737.2 480.47 Q11737.2 531.025 11697 560.516 Q11657.2 590.006 11587.2 590.006 Q11558 590.006 11526.2 584.173 Q11494.8 578.664 11459.8 567.321 L11459.8 505.747 Q11492.9 522.923 11524.9 531.673 Q11557 540.099 11588.5 540.099 Q11630.6 540.099 11653.3 525.84 Q11676 511.257 11676 485.007 Q11676 460.701 11659.4 447.738 Q11643.2 434.775 11587.8 422.785 L11567.1 417.924 Q11511.7 406.257 11487 382.276 Q11462.4 357.97 11462.4 315.841 Q11462.4 264.637 11498.7 236.767 Q11535 208.897 11601.8 208.897 Q11634.8 208.897 11664 213.758 Q11693.1 218.619 11717.8 228.341 Z" fill="#000000" fill-rule="evenodd" fill-opacity="1" /><path clip-path="url(#clip4900)" d="M 0 0 M12010.7 76.3514 L12070.4 76.3514 L12070.4 580.608 L12010.7 580.608 L12010.7 76.3514 Z" fill="#000000" fill-rule="evenodd" fill-opacity="1" /><path clip-path="url(#clip4900)" d="M 0 0 M12273.6 259.452 Q12225.6 259.452 12197.7 297.045 Q12169.9 334.313 12169.9 399.452 Q12169.9 464.59 12197.4 502.182 Q12225.3 539.451 12273.6 539.451 Q12321.2 539.451 12349.1 501.858 Q12376.9 464.266 12376.9 399.452 Q12376.9 334.961 12349.1 297.369 Q12321.2 259.452 12273.6 259.452 M12273.6 208.897 Q12351.3 208.897 12395.7 259.452 Q12440.1 310.008 12440.1 399.452 Q12440.1 488.571 12395.7 539.451 Q12351.3 590.006 12273.6 590.006 Q12195.5 590.006 12151.1 539.451 Q12107 488.571 12107 399.452 Q12107 310.008 12151.1 259.452 Q12195.5 208.897 12273.6 208.897 Z" fill="#000000" fill-rule="evenodd" fill-opacity="1" /><path clip-path="url(#clip4900)" d="M 0 0 M12741.5 394.915 Q12741.5 330.1 12714.6 294.452 Q12688 258.804 12639.8 258.804 Q12591.8 258.804 12564.9 294.452 Q12538.3 330.1 12538.3 394.915 Q12538.3 459.405 12564.9 495.053 Q12591.8 530.701 12639.8 530.701 Q12688 530.701 12714.6 495.053 Q12741.5 459.405 12741.5 394.915 M12801.1 535.562 Q12801.1 628.247 12760 673.293 Q12718.8 718.663 12633.9 718.663 Q12602.5 718.663 12574.6 713.802 Q12546.7 709.265 12520.5 699.543 L12520.5 641.534 Q12546.7 655.793 12572.4 662.598 Q12598 669.404 12624.5 669.404 Q12683.2 669.404 12712.4 638.617 Q12741.5 608.154 12741.5 546.256 L12741.5 516.766 Q12723 548.849 12694.2 564.728 Q12665.4 580.608 12625.2 580.608 Q12558.4 580.608 12517.6 529.729 Q12476.8 478.849 12476.8 394.915 Q12476.8 310.656 12517.6 259.776 Q12558.4 208.897 12625.2 208.897 Q12665.4 208.897 12694.2 224.777 Q12723 240.656 12741.5 272.739 L12741.5 217.647 L12801.1 217.647 L12801.1 535.562 Z" fill="#000000" fill-rule="evenodd" fill-opacity="1" /><path clip-path="url(#clip4900)" d="M 0 0 M12866.3 96.768 L12931.7 96.768 L12931.7 525.516 L13167.3 525.516 L13167.3 580.608 L12866.3 580.608 L12866.3 96.768 Z" fill="#000000" fill-rule="evenodd" fill-opacity="1" /><path clip-path="url(#clip4900)" d="M 0 0 M9797.12 12052.1 L9843.97 12052.1 L9843.97 12448.4 L9797.12 12448.4 L9797.12 12052.1 Z" fill="#000000" fill-rule="evenodd" fill-opacity="1" /><path clip-path="url(#clip4900)" d="M 0 0 M10003.6 12196 Q9965.94 12196 9944.04 12225.6 Q9922.15 12254.8 9922.15 12306 Q9922.15 12357.2 9943.79 12386.7 Q9965.69 12416 10003.6 12416 Q10041.1 12416 10063 12386.5 Q10084.9 12356.9 10084.9 12306 Q10084.9 12255.3 10063 12225.8 Q10041.1 12196 10003.6 12196 M10003.6 12156.3 Q10064.7 12156.3 10099.6 12196 Q10134.5 12235.7 10134.5 12306 Q10134.5 12376 10099.6 12416 Q10064.7 12455.7 10003.6 12455.7 Q9942.26 12455.7 9907.38 12416 Q9872.75 12376 9872.75 12306 Q9872.75 12235.7 9907.38 12196 Q9942.26 12156.3 10003.6 12156.3 Z" fill="#000000" fill-rule="evenodd" fill-opacity="1" /><path clip-path="url(#clip4900)" d="M 0 0 M10371.3 12302.4 Q10371.3 12251.5 10350.2 12223.5 Q10329.3 12195.5 10291.4 12195.5 Q10253.7 12195.5 10232.5 12223.5 Q10211.7 12251.5 10211.7 12302.4 Q10211.7 12353.1 10232.5 12381.1 Q10253.7 12409.1 10291.4 12409.1 Q10329.3 12409.1 10350.2 12381.1 Q10371.3 12353.1 10371.3 12302.4 M10418.2 12413 Q10418.2 12485.8 10385.8 12521.2 Q10353.5 12556.8 10286.8 12556.8 Q10262.1 12556.8 10240.2 12553 Q10218.3 12549.4 10197.7 12541.8 L10197.7 12496.2 Q10218.3 12507.4 10238.4 12512.8 Q10258.5 12518.1 10279.4 12518.1 Q10325.5 12518.1 10348.4 12493.9 Q10371.3 12470 10371.3 12421.4 L10371.3 12398.2 Q10356.8 12423.4 10334.1 12435.9 Q10311.5 12448.4 10279.9 12448.4 Q10227.4 12448.4 10195.4 12408.4 Q10163.3 12368.4 10163.3 12302.4 Q10163.3 12236.2 10195.4 12196.3 Q10227.4 12156.3 10279.9 12156.3 Q10311.5 12156.3 10334.1 12168.8 Q10356.8 12181.2 10371.3 12206.5 L10371.3 12163.2 L10418.2 12163.2 L10418.2 12413 Z" fill="#000000" fill-rule="evenodd" fill-opacity="1" /><path clip-path="url(#clip4900)" d="M 0 0 M10469.3 12068.2 L10520.8 12068.2 L10520.8 12405.1 L10705.9 12405.1 L10705.9 12448.4 L10469.3 12448.4 L10469.3 12068.2 Z" fill="#000000" fill-rule="evenodd" fill-opacity="1" /><path clip-path="url(#clip4900)" d="M 0 0 M307.832 7563.26 L307.832 7516.4 L704.033 7516.4 L704.033 7563.26 L307.832 7563.26 Z" fill="#000000" fill-rule="evenodd" fill-opacity="1" /><path clip-path="url(#clip4900)" d="M 0 0 M451.697 7356.75 Q451.697 7394.44 481.234 7416.34 Q510.516 7438.23 561.696 7438.23 Q612.876 7438.23 642.413 7416.59 Q671.695 7394.69 671.695 7356.75 Q671.695 7319.32 642.159 7297.42 Q612.622 7275.53 561.696 7275.53 Q511.025 7275.53 481.488 7297.42 Q451.697 7319.32 451.697 7356.75 M411.975 7356.75 Q411.975 7295.64 451.697 7260.76 Q491.419 7225.87 561.696 7225.87 Q631.719 7225.87 671.695 7260.76 Q711.417 7295.64 711.417 7356.75 Q711.417 7418.12 671.695 7453 Q631.719 7487.63 561.696 7487.63 Q491.419 7487.63 451.697 7453 Q411.975 7418.12 411.975 7356.75 Z" fill="#000000" fill-rule="evenodd" fill-opacity="1" /><path clip-path="url(#clip4900)" d="M 0 0 M558.131 6989.07 Q507.206 6989.07 479.197 7010.2 Q451.187 7031.08 451.187 7069.02 Q451.187 7106.71 479.197 7127.84 Q507.206 7148.72 558.131 7148.72 Q608.802 7148.72 636.811 7127.84 Q664.821 7106.71 664.821 7069.02 Q664.821 7031.08 636.811 7010.2 Q608.802 6989.07 558.131 6989.07 M668.64 6942.22 Q741.464 6942.22 776.857 6974.56 Q812.505 7006.89 812.505 7073.61 Q812.505 7098.3 808.685 7120.2 Q805.121 7142.1 797.482 7162.73 L751.903 7162.73 Q763.107 7142.1 768.454 7121.98 Q773.801 7101.87 773.801 7080.99 Q773.801 7034.9 749.612 7011.99 Q725.677 6989.07 677.043 6989.07 L653.871 6989.07 Q679.08 7003.58 691.556 7026.24 Q704.033 7048.91 704.033 7080.48 Q704.033 7132.93 664.057 7165.02 Q624.08 7197.1 558.131 7197.1 Q491.928 7197.1 451.951 7165.02 Q411.975 7132.93 411.975 7080.48 Q411.975 7048.91 424.451 7026.24 Q436.928 7003.58 462.136 6989.07 L418.85 6989.07 L418.85 6942.22 L668.64 6942.22 Z" fill="#000000" fill-rule="evenodd" fill-opacity="1" /><path clip-path="url(#clip4900)" d="M 0 0 M353.156 6606.36 L407.391 6606.36 Q383.202 6632.33 371.234 6661.87 Q359.267 6691.15 359.267 6724.26 Q359.267 6789.44 399.243 6824.07 Q438.965 6858.7 514.335 6858.7 Q589.451 6858.7 629.427 6824.07 Q669.149 6789.44 669.149 6724.26 Q669.149 6691.15 657.182 6661.87 Q645.214 6632.33 621.024 6606.36 L674.751 6606.36 Q693.084 6633.35 702.251 6663.65 Q711.417 6693.7 711.417 6727.31 Q711.417 6813.63 658.709 6863.28 Q605.747 6912.94 514.335 6912.94 Q422.669 6912.94 369.961 6863.28 Q316.998 6813.63 316.998 6727.31 Q316.998 6693.19 326.165 6663.14 Q335.077 6632.84 353.156 6606.36 Z" fill="#000000" fill-rule="evenodd" fill-opacity="1" /><path clip-path="url(#clip4900)" d="M 0 0 M531.905 6320.16 L704.033 6320.16 L704.033 6367.01 L533.432 6367.01 Q492.946 6367.01 472.831 6382.8 Q452.715 6398.59 452.715 6430.16 Q452.715 6468.1 476.905 6490 Q501.095 6511.9 542.854 6511.9 L704.033 6511.9 L704.033 6559 L307.832 6559 L307.832 6511.9 L463.155 6511.9 Q437.437 6495.09 424.706 6472.43 Q411.975 6449.51 411.975 6419.72 Q411.975 6370.58 442.53 6345.37 Q472.831 6320.16 531.905 6320.16 Z" fill="#000000" fill-rule="evenodd" fill-opacity="1" /><path clip-path="url(#clip4900)" d="M 0 0 M418.85 6271.02 L418.85 6224.17 L704.033 6224.17 L704.033 6271.02 L418.85 6271.02 M307.832 6271.02 L307.832 6224.17 L367.16 6224.17 L367.16 6271.02 L307.832 6271.02 Z" fill="#000000" fill-rule="evenodd" fill-opacity="1" /><path clip-path="url(#clip4900)" d="M 0 0 M308.341 6062.48 Q366.905 6096.6 424.197 6113.15 Q481.488 6129.7 540.307 6129.7 Q599.126 6129.7 656.927 6113.15 Q714.473 6096.34 772.783 6062.48 L772.783 6103.22 Q712.945 6141.41 655.145 6160.51 Q597.344 6179.35 540.307 6179.35 Q483.525 6179.35 425.979 6160.51 Q368.433 6141.67 308.341 6103.22 L308.341 6062.48 Z" fill="#000000" fill-rule="evenodd" fill-opacity="1" /><path clip-path="url(#clip4900)" d="M 0 0 M323.873 6064 L323.873 5742.41 L367.16 5742.41 L367.16 5877.36 L704.033 5877.36 L704.033 5929.05 L367.16 5929.05 L367.16 6064 L323.873 6064 Z" fill="#000000" fill-rule="evenodd" fill-opacity="1" /><path clip-path="url(#clip4900)" d="M 0 0 M429.799 5576.65 L473.595 5576.65 Q462.646 5596.51 457.298 5616.62 Q451.697 5636.48 451.697 5656.85 Q451.697 5702.43 480.724 5727.64 Q509.497 5752.85 561.696 5752.85 Q613.895 5752.85 642.922 5727.64 Q671.695 5702.43 671.695 5656.85 Q671.695 5636.48 666.348 5616.62 Q660.746 5596.51 649.797 5576.65 L693.084 5576.65 Q702.251 5596.25 706.834 5617.39 Q711.417 5638.27 711.417 5661.95 Q711.417 5726.37 670.932 5764.31 Q630.446 5802.25 561.696 5802.25 Q491.928 5802.25 451.951 5764.05 Q411.975 5725.6 411.975 5658.89 Q411.975 5637.25 416.558 5616.62 Q420.887 5596 429.799 5576.65 Z" fill="#000000" fill-rule="evenodd" fill-opacity="1" /><path clip-path="url(#clip4900)" d="M 0 0 M308.341 5414.96 Q366.905 5449.08 424.197 5465.63 Q481.488 5482.18 540.307 5482.18 Q599.126 5482.18 656.927 5465.63 Q714.473 5448.82 772.783 5414.96 L772.783 5455.7 Q712.945 5493.89 655.145 5512.99 Q597.344 5531.83 540.307 5531.83 Q483.525 5531.83 425.979 5512.99 Q368.433 5494.15 308.341 5455.7 L308.341 5414.96 Z" fill="#000000" fill-rule="evenodd" fill-opacity="1" /><path clip-path="url(#clip4900)" d="M 0 0 M323.873 5363.78 L323.873 5312.34 L660.746 5312.34 L660.746 5127.23 L704.033 5127.23 L704.033 5363.78 L323.873 5363.78 Z" fill="#000000" fill-rule="evenodd" fill-opacity="1" /><path clip-path="url(#clip4900)" d="M 0 0 M308.341 5085.47 L308.341 5044.73 Q368.433 5006.53 425.979 4987.69 Q483.525 4968.59 540.307 4968.59 Q597.344 4968.59 655.145 4987.69 Q712.945 5006.53 772.783 5044.73 L772.783 5085.47 Q714.473 5051.6 656.927 5035.05 Q599.126 5018.25 540.307 5018.25 Q481.488 5018.25 424.197 5035.05 Q366.905 5051.6 308.341 5085.47 Z" fill="#000000" fill-rule="evenodd" fill-opacity="1" /><path clip-path="url(#clip4900)" d="M 0 0 M308.341 4926.83 L308.341 4886.09 Q368.433 4847.9 425.979 4829.06 Q483.525 4809.96 540.307 4809.96 Q597.344 4809.96 655.145 4829.06 Q712.945 4847.9 772.783 4886.09 L772.783 4926.83 Q714.473 4892.97 656.927 4876.42 Q599.126 4859.61 540.307 4859.61 Q481.488 4859.61 424.197 4876.42 Q366.905 4892.97 308.341 4926.83 Z" fill="#000000" fill-rule="evenodd" fill-opacity="1" /><circle clip-path="url(#clip4902)" cx="3193.8" cy="10266.8" r="57" fill="#009af9" fill-rule="evenodd" fill-opacity="1" stroke="#000000" stroke-opacity="1" stroke-width="7.68"/>
<circle clip-path="url(#clip4902)" cx="8439.17" cy="7393.53" r="57" fill="#009af9" fill-rule="evenodd" fill-opacity="1" stroke="#000000" stroke-opacity="1" stroke-width="7.68"/>
<circle clip-path="url(#clip4902)" cx="12160.8" cy="5389.07" r="57" fill="#009af9" fill-rule="evenodd" fill-opacity="1" stroke="#000000" stroke-opacity="1" stroke-width="7.68"/>
<circle clip-path="url(#clip4902)" cx="17406.2" cy="1579.4" r="57" fill="#009af9" fill-rule="evenodd" fill-opacity="1" stroke="#000000" stroke-opacity="1" stroke-width="7.68"/>
<polyline clip-path="url(#clip4902)" style="stroke:#e26f46; stroke-width:32; stroke-opacity:1; fill:none" points="
  2166.09,11091.2 2324.01,10995.4 3784.23,10109.6 4661.75,9577.32 5403.69,9127.26 6209.64,8638.38 6952.66,8187.67 7749.25,7704.46 8672.18,7144.62 9492.37,6647.1 
  10211.6,6210.81 10995.8,5735.15 11784.6,5256.66 12656.7,4727.62 13486.5,4224.26 14349.4,3700.88 15075.7,3260.31 15962.4,2722.41 16796,2216.78 18131.4,1406.72 
  18336.9,1282.05 
  "/>
<path clip-path="url(#clip4900)" d="
M2256.97 3107.46 L6179.36 3107.46 L6179.36 1655.94 L2256.97 1655.94  Z
  " fill="#ffffff" fill-rule="evenodd" fill-opacity="1"/>
<polyline clip-path="url(#clip4900)" style="stroke:#000000; stroke-width:32; stroke-opacity:1; fill:none" points="
  2256.97,3107.46 6179.36,3107.46 6179.36,1655.94 2256.97,1655.94 2256.97,3107.46 
  "/>
<circle clip-path="url(#clip4900)" cx="3120.97" cy="2139.78" r="172" fill="#009af9" fill-rule="evenodd" fill-opacity="1" stroke="#000000" stroke-opacity="1" stroke-width="7.68"/>
<path clip-path="url(#clip4900)" d="M 0 0 M3792.97 1989.87 L3827.04 1989.87 L3827.04 2278.02 L3792.97 2278.02 L3792.97 1989.87 Z" fill="#000000" fill-rule="evenodd" fill-opacity="1" /><path clip-path="url(#clip4900)" d="M 0 0 M3943.15 2094.5 Q3915.74 2094.5 3899.82 2115.98 Q3883.89 2137.28 3883.89 2174.5 Q3883.89 2211.72 3899.63 2233.2 Q3915.56 2254.5 3943.15 2254.5 Q3970.37 2254.5 3986.3 2233.02 Q4002.23 2211.54 4002.23 2174.5 Q4002.23 2137.65 3986.3 2116.17 Q3970.37 2094.5 3943.15 2094.5 M3943.15 2065.61 Q3987.6 2065.61 4012.97 2094.5 Q4038.34 2123.39 4038.34 2174.5 Q4038.34 2225.42 4012.97 2254.5 Q3987.6 2283.39 3943.15 2283.39 Q3898.52 2283.39 3873.15 2254.5 Q3847.97 2225.42 3847.97 2174.5 Q3847.97 2123.39 3873.15 2094.5 Q3898.52 2065.61 3943.15 2065.61 Z" fill="#000000" fill-rule="evenodd" fill-opacity="1" /><path clip-path="url(#clip4900)" d="M 0 0 M4210.56 2171.91 Q4210.56 2134.87 4195.19 2114.5 Q4180 2094.13 4152.41 2094.13 Q4125 2094.13 4109.63 2114.5 Q4094.45 2134.87 4094.45 2171.91 Q4094.45 2208.76 4109.63 2229.13 Q4125 2249.5 4152.41 2249.5 Q4180 2249.5 4195.19 2229.13 Q4210.56 2208.76 4210.56 2171.91 M4244.63 2252.28 Q4244.63 2305.24 4221.11 2330.98 Q4197.6 2356.91 4149.08 2356.91 Q4131.11 2356.91 4115.19 2354.13 Q4099.26 2351.54 4084.26 2345.98 L4084.26 2312.83 Q4099.26 2320.98 4113.89 2324.87 Q4128.52 2328.76 4143.71 2328.76 Q4177.22 2328.76 4193.89 2311.16 Q4210.56 2293.76 4210.56 2258.39 L4210.56 2241.54 Q4200 2259.87 4183.52 2268.94 Q4167.04 2278.02 4144.08 2278.02 Q4105.93 2278.02 4082.6 2248.94 Q4059.26 2219.87 4059.26 2171.91 Q4059.26 2123.76 4082.6 2094.68 Q4105.93 2065.61 4144.08 2065.61 Q4167.04 2065.61 4183.52 2074.68 Q4200 2083.76 4210.56 2102.09 L4210.56 2070.61 L4244.63 2070.61 L4244.63 2252.28 Z" fill="#000000" fill-rule="evenodd" fill-opacity="1" /><path clip-path="url(#clip4900)" d="M 0 0 M4488.89 2022.83 L4488.89 2062.28 Q4470 2044.68 4448.52 2035.98 Q4427.22 2027.28 4403.15 2027.28 Q4355.74 2027.28 4330.56 2056.35 Q4305.37 2085.24 4305.37 2140.05 Q4305.37 2194.68 4330.56 2223.76 Q4355.74 2252.65 4403.15 2252.65 Q4427.22 2252.65 4448.52 2243.94 Q4470 2235.24 4488.89 2217.65 L4488.89 2256.72 Q4469.26 2270.05 4447.22 2276.72 Q4425.37 2283.39 4400.93 2283.39 Q4338.15 2283.39 4302.04 2245.05 Q4265.93 2206.54 4265.93 2140.05 Q4265.93 2073.39 4302.04 2035.06 Q4338.15 1996.54 4400.93 1996.54 Q4425.74 1996.54 4447.59 2003.2 Q4469.63 2009.69 4488.89 2022.83 Z" fill="#000000" fill-rule="evenodd" fill-opacity="1" /><path clip-path="url(#clip4900)" d="M 0 0 M4697.04 2152.83 L4697.04 2278.02 L4662.96 2278.02 L4662.96 2153.94 Q4662.96 2124.5 4651.48 2109.87 Q4640 2095.24 4617.04 2095.24 Q4589.44 2095.24 4573.52 2112.83 Q4557.59 2130.43 4557.59 2160.8 L4557.59 2278.02 L4523.33 2278.02 L4523.33 1989.87 L4557.59 1989.87 L4557.59 2102.83 Q4569.82 2084.13 4586.3 2074.87 Q4602.96 2065.61 4624.63 2065.61 Q4660.37 2065.61 4678.7 2087.83 Q4697.04 2109.87 4697.04 2152.83 Z" fill="#000000" fill-rule="evenodd" fill-opacity="1" /><path clip-path="url(#clip4900)" d="M 0 0 M4732.78 2070.61 L4766.85 2070.61 L4766.85 2278.02 L4732.78 2278.02 L4732.78 2070.61 M4732.78 1989.87 L4766.85 1989.87 L4766.85 2033.02 L4732.78 2033.02 L4732.78 1989.87 Z" fill="#000000" fill-rule="evenodd" fill-opacity="1" /><path clip-path="url(#clip4900)" d="M 0 0 M4884.44 1990.24 Q4859.63 2032.83 4847.59 2074.5 Q4835.55 2116.17 4835.55 2158.94 Q4835.55 2201.72 4847.59 2243.76 Q4859.81 2285.61 4884.44 2328.02 L4854.81 2328.02 Q4827.04 2284.5 4813.15 2242.46 Q4799.44 2200.42 4799.44 2158.94 Q4799.44 2117.65 4813.15 2075.8 Q4826.85 2033.94 4854.81 1990.24 L4884.44 1990.24 Z" fill="#000000" fill-rule="evenodd" fill-opacity="1" /><path clip-path="url(#clip4900)" d="M 0 0 M4883.33 2001.54 L5117.22 2001.54 L5117.22 2033.02 L5019.07 2033.02 L5019.07 2278.02 L4981.48 2278.02 L4981.48 2033.02 L4883.33 2033.02 L4883.33 2001.54 Z" fill="#000000" fill-rule="evenodd" fill-opacity="1" /><path clip-path="url(#clip4900)" d="M 0 0 M5237.77 2078.57 L5237.77 2110.43 Q5223.33 2102.46 5208.7 2098.57 Q5194.26 2094.5 5179.44 2094.5 Q5146.29 2094.5 5127.96 2115.61 Q5109.63 2136.54 5109.63 2174.5 Q5109.63 2212.46 5127.96 2233.57 Q5146.29 2254.5 5179.44 2254.5 Q5194.26 2254.5 5208.7 2250.61 Q5223.33 2246.54 5237.77 2238.57 L5237.77 2270.05 Q5223.52 2276.72 5208.15 2280.05 Q5192.96 2283.39 5175.74 2283.39 Q5128.89 2283.39 5101.29 2253.94 Q5073.7 2224.5 5073.7 2174.5 Q5073.7 2123.76 5101.48 2094.68 Q5129.44 2065.61 5177.96 2065.61 Q5193.7 2065.61 5208.7 2068.94 Q5223.7 2072.09 5237.77 2078.57 Z" fill="#000000" fill-rule="evenodd" fill-opacity="1" /><path clip-path="url(#clip4900)" d="M 0 0 M5355.37 1990.24 Q5330.55 2032.83 5318.51 2074.5 Q5306.48 2116.17 5306.48 2158.94 Q5306.48 2201.72 5318.51 2243.76 Q5330.74 2285.61 5355.37 2328.02 L5325.74 2328.02 Q5297.96 2284.5 5284.07 2242.46 Q5270.37 2200.42 5270.37 2158.94 Q5270.37 2117.65 5284.07 2075.8 Q5297.77 2033.94 5325.74 1990.24 L5355.37 1990.24 Z" fill="#000000" fill-rule="evenodd" fill-opacity="1" /><path clip-path="url(#clip4900)" d="M 0 0 M5392.59 2001.54 L5430 2001.54 L5430 2246.54 L5564.62 2246.54 L5564.62 2278.02 L5392.59 2278.02 L5392.59 2001.54 Z" fill="#000000" fill-rule="evenodd" fill-opacity="1" /><path clip-path="url(#clip4900)" d="M 0 0 M5594.99 1990.24 L5624.62 1990.24 Q5652.4 2033.94 5666.11 2075.8 Q5679.99 2117.65 5679.99 2158.94 Q5679.99 2200.42 5666.11 2242.46 Q5652.4 2284.5 5624.62 2328.02 L5594.99 2328.02 Q5619.62 2285.61 5631.66 2243.76 Q5643.88 2201.72 5643.88 2158.94 Q5643.88 2116.17 5631.66 2074.5 Q5619.62 2032.83 5594.99 1990.24 Z" fill="#000000" fill-rule="evenodd" fill-opacity="1" /><path clip-path="url(#clip4900)" d="M 0 0 M5710.36 1990.24 L5739.99 1990.24 Q5767.77 2033.94 5781.48 2075.8 Q5795.36 2117.65 5795.36 2158.94 Q5795.36 2200.42 5781.48 2242.46 Q5767.77 2284.5 5739.99 2328.02 L5710.36 2328.02 Q5734.99 2285.61 5747.03 2243.76 Q5759.25 2201.72 5759.25 2158.94 Q5759.25 2116.17 5747.03 2074.5 Q5734.99 2032.83 5710.36 1990.24 Z" fill="#000000" fill-rule="evenodd" fill-opacity="1" /><polyline clip-path="url(#clip4900)" style="stroke:#e26f46; stroke-width:32; stroke-opacity:1; fill:none" points="
  2448.97,2623.62 3600.97,2623.62 
  "/>
<path clip-path="url(#clip4900)" d="M 0 0 M3792.97 2485.38 L3951.86 2485.38 L3951.86 2516.86 L3830.37 2516.86 L3830.37 2598.34 L3940 2598.34 L3940 2629.82 L3830.37 2629.82 L3830.37 2761.86 L3792.97 2761.86 L3792.97 2485.38 Z" fill="#000000" fill-rule="evenodd" fill-opacity="1" /><path clip-path="url(#clip4900)" d="M 0 0 M3960 2554.45 L3994.08 2554.45 L3994.08 2761.86 L3960 2761.86 L3960 2554.45 M3960 2473.71 L3994.08 2473.71 L3994.08 2516.86 L3960 2516.86 L3960 2473.71 Z" fill="#000000" fill-rule="evenodd" fill-opacity="1" /><path clip-path="url(#clip4900)" d="M 0 0 M4063.52 2495.56 L4063.52 2554.45 L4133.71 2554.45 L4133.71 2580.93 L4063.52 2580.93 L4063.52 2693.52 Q4063.52 2718.89 4070.37 2726.12 Q4077.41 2733.34 4098.71 2733.34 L4133.71 2733.34 L4133.71 2761.86 L4098.71 2761.86 Q4059.26 2761.86 4044.26 2747.23 Q4029.26 2732.41 4029.26 2693.52 L4029.26 2580.93 L4004.26 2580.93 L4004.26 2554.45 L4029.26 2554.45 L4029.26 2495.56 L4063.52 2495.56 Z" fill="#000000" fill-rule="evenodd" fill-opacity="1" /><path clip-path="url(#clip4900)" d="M 0 0 M4203.15 2495.56 L4203.15 2554.45 L4273.34 2554.45 L4273.34 2580.93 L4203.15 2580.93 L4203.15 2693.52 Q4203.15 2718.89 4210 2726.12 Q4217.04 2733.34 4238.34 2733.34 L4273.34 2733.34 L4273.34 2761.86 L4238.34 2761.86 Q4198.89 2761.86 4183.89 2747.23 Q4168.89 2732.41 4168.89 2693.52 L4168.89 2580.93 L4143.89 2580.93 L4143.89 2554.45 L4168.89 2554.45 L4168.89 2495.56 L4203.15 2495.56 Z" fill="#000000" fill-rule="evenodd" fill-opacity="1" /><path clip-path="url(#clip4900)" d="M 0 0 M4486.48 2649.64 L4486.48 2666.3 L4329.82 2666.3 Q4332.04 2701.49 4350.93 2720.01 Q4370 2738.34 4403.89 2738.34 Q4423.52 2738.34 4441.85 2733.52 Q4460.37 2728.71 4478.52 2719.08 L4478.52 2751.3 Q4460.19 2759.08 4440.93 2763.15 Q4421.67 2767.23 4401.85 2767.23 Q4352.22 2767.23 4323.15 2738.34 Q4294.26 2709.45 4294.26 2660.19 Q4294.26 2609.27 4321.67 2579.45 Q4349.26 2549.45 4395.93 2549.45 Q4437.78 2549.45 4462.04 2576.49 Q4486.48 2603.34 4486.48 2649.64 M4452.41 2639.64 Q4452.04 2611.67 4436.67 2595.01 Q4421.48 2578.34 4396.3 2578.34 Q4367.78 2578.34 4350.56 2594.45 Q4333.52 2610.56 4330.93 2639.82 L4452.41 2639.64 Z" fill="#000000" fill-rule="evenodd" fill-opacity="1" /><path clip-path="url(#clip4900)" d="M 0 0 M4658.7 2585.93 L4658.7 2473.71 L4692.78 2473.71 L4692.78 2761.86 L4658.7 2761.86 L4658.7 2730.75 Q4647.96 2749.26 4631.48 2758.34 Q4615.19 2767.23 4592.22 2767.23 Q4554.63 2767.23 4530.93 2737.23 Q4507.41 2707.23 4507.41 2658.34 Q4507.41 2609.45 4530.93 2579.45 Q4554.63 2549.45 4592.22 2549.45 Q4615.19 2549.45 4631.48 2558.52 Q4647.96 2567.41 4658.7 2585.93 M4542.59 2658.34 Q4542.59 2695.93 4557.96 2717.41 Q4573.52 2738.71 4600.56 2738.71 Q4627.59 2738.71 4643.15 2717.41 Q4658.7 2695.93 4658.7 2658.34 Q4658.7 2620.75 4643.15 2599.45 Q4627.59 2577.97 4600.56 2577.97 Q4573.52 2577.97 4557.96 2599.45 Q4542.59 2620.75 4542.59 2658.34 Z" fill="#000000" fill-rule="evenodd" fill-opacity="1" /><path clip-path="url(#clip4900)" d="M 0 0 M4849.07 2473.71 L4883.15 2473.71 L4883.15 2761.86 L4849.07 2761.86 L4849.07 2473.71 Z" fill="#000000" fill-rule="evenodd" fill-opacity="1" /><path clip-path="url(#clip4900)" d="M 0 0 M4918.89 2554.45 L4952.96 2554.45 L4952.96 2761.86 L4918.89 2761.86 L4918.89 2554.45 M4918.89 2473.71 L4952.96 2473.71 L4952.96 2516.86 L4918.89 2516.86 L4918.89 2473.71 Z" fill="#000000" fill-rule="evenodd" fill-opacity="1" /><path clip-path="url(#clip4900)" d="M 0 0 M5161.11 2636.67 L5161.11 2761.86 L5127.03 2761.86 L5127.03 2637.78 Q5127.03 2608.34 5115.55 2593.71 Q5104.07 2579.08 5081.11 2579.08 Q5053.52 2579.08 5037.59 2596.67 Q5021.66 2614.27 5021.66 2644.64 L5021.66 2761.86 L4987.41 2761.86 L4987.41 2554.45 L5021.66 2554.45 L5021.66 2586.67 Q5033.89 2567.97 5050.37 2558.71 Q5067.03 2549.45 5088.7 2549.45 Q5124.44 2549.45 5142.78 2571.67 Q5161.11 2593.71 5161.11 2636.67 Z" fill="#000000" fill-rule="evenodd" fill-opacity="1" /><path clip-path="url(#clip4900)" d="M 0 0 M5374.26 2649.64 L5374.26 2666.3 L5217.59 2666.3 Q5219.81 2701.49 5238.7 2720.01 Q5257.77 2738.34 5291.66 2738.34 Q5311.29 2738.34 5329.63 2733.52 Q5348.14 2728.71 5366.29 2719.08 L5366.29 2751.3 Q5347.96 2759.08 5328.7 2763.15 Q5309.44 2767.23 5289.63 2767.23 Q5240 2767.23 5210.92 2738.34 Q5182.03 2709.45 5182.03 2660.19 Q5182.03 2609.27 5209.44 2579.45 Q5237.03 2549.45 5283.7 2549.45 Q5325.55 2549.45 5349.81 2576.49 Q5374.26 2603.34 5374.26 2649.64 M5340.18 2639.64 Q5339.81 2611.67 5324.44 2595.01 Q5309.26 2578.34 5284.07 2578.34 Q5255.55 2578.34 5238.33 2594.45 Q5221.29 2610.56 5218.7 2639.82 L5340.18 2639.64 Z" fill="#000000" fill-rule="evenodd" fill-opacity="1" /></svg>
