<?xml version="1.0" encoding="utf-8"?>
<svg xmlns="http://www.w3.org/2000/svg" xmlns:xlink="http://www.w3.org/1999/xlink" width="600" height="400" viewBox="0 0 2400 1600">
<defs>
  <clipPath id="clip8600">
    <rect x="0" y="0" width="2400" height="1600"/>
  </clipPath>
</defs>
<path clip-path="url(#clip8600)" d="
M0 1600 L2400 1600 L2400 0 L0 0  Z
  " fill="#ffffff" fill-rule="evenodd" fill-opacity="1"/>
<defs>
  <clipPath id="clip8601">
    <rect x="480" y="0" width="1681" height="1600"/>
  </clipPath>
</defs>
<path clip-path="url(#clip8600)" d="
M147.2 1486.45 L2352.76 1486.45 L2352.76 47.2441 L147.2 47.2441  Z
  " fill="#ffffff" fill-rule="evenodd" fill-opacity="1"/>
<defs>
  <clipPath id="clip8602">
    <rect x="147" y="47" width="2207" height="1440"/>
  </clipPath>
</defs>
<polyline clip-path="url(#clip8602)" style="stroke:#000000; stroke-width:2; stroke-opacity:0.1; fill:none" points="
  532.65,1486.45 532.65,47.2441 
  "/>
<polyline clip-path="url(#clip8602)" style="stroke:#000000; stroke-width:2; stroke-opacity:0.1; fill:none" points="
  1006.14,1486.45 1006.14,47.2441 
  "/>
<polyline clip-path="url(#clip8602)" style="stroke:#000000; stroke-width:2; stroke-opacity:0.1; fill:none" points="
  1479.62,1486.45 1479.62,47.2441 
  "/>
<polyline clip-path="url(#clip8602)" style="stroke:#000000; stroke-width:2; stroke-opacity:0.1; fill:none" points="
  1953.11,1486.45 1953.11,47.2441 
  "/>
<polyline clip-path="url(#clip8602)" style="stroke:#000000; stroke-width:2; stroke-opacity:0.1; fill:none" points="
  147.2,1346.93 2352.76,1346.93 
  "/>
<polyline clip-path="url(#clip8602)" style="stroke:#000000; stroke-width:2; stroke-opacity:0.1; fill:none" points="
  147.2,1060.04 2352.76,1060.04 
  "/>
<polyline clip-path="url(#clip8602)" style="stroke:#000000; stroke-width:2; stroke-opacity:0.1; fill:none" points="
  147.2,773.147 2352.76,773.147 
  "/>
<polyline clip-path="url(#clip8602)" style="stroke:#000000; stroke-width:2; stroke-opacity:0.1; fill:none" points="
  147.2,486.258 2352.76,486.258 
  "/>
<polyline clip-path="url(#clip8602)" style="stroke:#000000; stroke-width:2; stroke-opacity:0.1; fill:none" points="
  147.2,199.369 2352.76,199.369 
  "/>
<polyline clip-path="url(#clip8600)" style="stroke:#000000; stroke-width:4; stroke-opacity:1; fill:none" points="
  147.2,1486.45 2352.76,1486.45 
  "/>
<polyline clip-path="url(#clip8600)" style="stroke:#000000; stroke-width:4; stroke-opacity:1; fill:none" points="
  147.2,1486.45 147.2,47.2441 
  "/>
<polyline clip-path="url(#clip8600)" style="stroke:#000000; stroke-width:4; stroke-opacity:1; fill:none" points="
  532.65,1486.45 532.65,1469.18 
  "/>
<polyline clip-path="url(#clip8600)" style="stroke:#000000; stroke-width:4; stroke-opacity:1; fill:none" points="
  1006.14,1486.45 1006.14,1469.18 
  "/>
<polyline clip-path="url(#clip8600)" style="stroke:#000000; stroke-width:4; stroke-opacity:1; fill:none" points="
  1479.62,1486.45 1479.62,1469.18 
  "/>
<polyline clip-path="url(#clip8600)" style="stroke:#000000; stroke-width:4; stroke-opacity:1; fill:none" points="
  1953.11,1486.45 1953.11,1469.18 
  "/>
<polyline clip-path="url(#clip8600)" style="stroke:#000000; stroke-width:4; stroke-opacity:1; fill:none" points="
  147.2,1346.93 173.667,1346.93 
  "/>
<polyline clip-path="url(#clip8600)" style="stroke:#000000; stroke-width:4; stroke-opacity:1; fill:none" points="
  147.2,1060.04 173.667,1060.04 
  "/>
<polyline clip-path="url(#clip8600)" style="stroke:#000000; stroke-width:4; stroke-opacity:1; fill:none" points="
  147.2,773.147 173.667,773.147 
  "/>
<polyline clip-path="url(#clip8600)" style="stroke:#000000; stroke-width:4; stroke-opacity:1; fill:none" points="
  147.2,486.258 173.667,486.258 
  "/>
<polyline clip-path="url(#clip8600)" style="stroke:#000000; stroke-width:4; stroke-opacity:1; fill:none" points="
  147.2,199.369 173.667,199.369 
  "/>
<path clip-path="url(#clip8600)" d="M 0 0 M496.609 1535.98 L512.928 1535.98 L512.928 1539.92 L490.984 1539.92 L490.984 1535.98 Q493.646 1533.23 498.229 1528.6 Q502.835 1523.95 504.016 1522.61 Q506.261 1520.08 507.141 1518.35 Q508.044 1516.59 508.044 1514.9 Q508.044 1512.14 506.099 1510.41 Q504.178 1508.67 501.076 1508.67 Q498.877 1508.67 496.423 1509.43 Q493.993 1510.2 491.215 1511.75 L491.215 1507.03 Q494.039 1505.89 496.493 1505.31 Q498.947 1504.73 500.984 1504.73 Q506.354 1504.73 509.548 1507.42 Q512.743 1510.11 512.743 1514.6 Q512.743 1516.73 511.933 1518.65 Q511.146 1520.54 509.039 1523.14 Q508.46 1523.81 505.359 1527.03 Q502.257 1530.22 496.609 1535.98 Z" fill="#000000" fill-rule="evenodd" fill-opacity="1" /><path clip-path="url(#clip8600)" d="M 0 0 M517.997 1534.04 L522.882 1534.04 L522.882 1539.92 L517.997 1539.92 L517.997 1534.04 Z" fill="#000000" fill-rule="evenodd" fill-opacity="1" /><path clip-path="url(#clip8600)" d="M 0 0 M531.979 1535.98 L548.298 1535.98 L548.298 1539.92 L526.354 1539.92 L526.354 1535.98 Q529.016 1533.23 533.599 1528.6 Q538.206 1523.95 539.386 1522.61 Q541.632 1520.08 542.511 1518.35 Q543.414 1516.59 543.414 1514.9 Q543.414 1512.14 541.47 1510.41 Q539.548 1508.67 536.446 1508.67 Q534.247 1508.67 531.794 1509.43 Q529.363 1510.2 526.585 1511.75 L526.585 1507.03 Q529.409 1505.89 531.863 1505.31 Q534.317 1504.73 536.354 1504.73 Q541.724 1504.73 544.919 1507.42 Q548.113 1510.11 548.113 1514.6 Q548.113 1516.73 547.303 1518.65 Q546.516 1520.54 544.409 1523.14 Q543.831 1523.81 540.729 1527.03 Q537.627 1530.22 531.979 1535.98 Z" fill="#000000" fill-rule="evenodd" fill-opacity="1" /><path clip-path="url(#clip8600)" d="M 0 0 M553.414 1505.36 L571.77 1505.36 L571.77 1509.3 L557.696 1509.3 L557.696 1517.77 Q558.715 1517.42 559.733 1517.26 Q560.752 1517.07 561.77 1517.07 Q567.557 1517.07 570.937 1520.24 Q574.317 1523.42 574.317 1528.83 Q574.317 1534.41 570.844 1537.51 Q567.372 1540.59 561.053 1540.59 Q558.877 1540.59 556.608 1540.22 Q554.363 1539.85 551.956 1539.11 L551.956 1534.41 Q554.039 1535.54 556.261 1536.1 Q558.483 1536.66 560.96 1536.66 Q564.965 1536.66 567.303 1534.55 Q569.641 1532.44 569.641 1528.83 Q569.641 1525.22 567.303 1523.11 Q564.965 1521.01 560.96 1521.01 Q559.085 1521.01 557.21 1521.42 Q555.358 1521.84 553.414 1522.72 L553.414 1505.36 Z" fill="#000000" fill-rule="evenodd" fill-opacity="1" /><path clip-path="url(#clip8600)" d="M 0 0 M969.297 1535.98 L985.616 1535.98 L985.616 1539.92 L963.672 1539.92 L963.672 1535.98 Q966.334 1533.23 970.917 1528.6 Q975.524 1523.95 976.704 1522.61 Q978.949 1520.08 979.829 1518.35 Q980.732 1516.59 980.732 1514.9 Q980.732 1512.14 978.787 1510.41 Q976.866 1508.67 973.764 1508.67 Q971.565 1508.67 969.112 1509.43 Q966.681 1510.2 963.903 1511.75 L963.903 1507.03 Q966.727 1505.89 969.181 1505.31 Q971.635 1504.73 973.672 1504.73 Q979.042 1504.73 982.236 1507.42 Q985.431 1510.11 985.431 1514.6 Q985.431 1516.73 984.621 1518.65 Q983.834 1520.54 981.727 1523.14 Q981.148 1523.81 978.047 1527.03 Q974.945 1530.22 969.297 1535.98 Z" fill="#000000" fill-rule="evenodd" fill-opacity="1" /><path clip-path="url(#clip8600)" d="M 0 0 M990.685 1534.04 L995.57 1534.04 L995.57 1539.92 L990.685 1539.92 L990.685 1534.04 Z" fill="#000000" fill-rule="evenodd" fill-opacity="1" /><path clip-path="url(#clip8600)" d="M 0 0 M1000.69 1505.36 L1019.04 1505.36 L1019.04 1509.3 L1004.97 1509.3 L1004.97 1517.77 Q1005.99 1517.42 1007 1517.26 Q1008.02 1517.07 1009.04 1517.07 Q1014.83 1517.07 1018.21 1520.24 Q1021.59 1523.42 1021.59 1528.83 Q1021.59 1534.41 1018.12 1537.51 Q1014.64 1540.59 1008.32 1540.59 Q1006.15 1540.59 1003.88 1540.22 Q1001.63 1539.85 999.227 1539.11 L999.227 1534.41 Q1001.31 1535.54 1003.53 1536.1 Q1005.75 1536.66 1008.23 1536.66 Q1012.24 1536.66 1014.57 1534.55 Q1016.91 1532.44 1016.91 1528.83 Q1016.91 1525.22 1014.57 1523.11 Q1012.24 1521.01 1008.23 1521.01 Q1006.36 1521.01 1004.48 1521.42 Q1002.63 1521.84 1000.69 1522.72 L1000.69 1505.36 Z" fill="#000000" fill-rule="evenodd" fill-opacity="1" /><path clip-path="url(#clip8600)" d="M 0 0 M1036.66 1508.44 Q1033.05 1508.44 1031.22 1512 Q1029.41 1515.55 1029.41 1522.67 Q1029.41 1529.78 1031.22 1533.35 Q1033.05 1536.89 1036.66 1536.89 Q1040.29 1536.89 1042.1 1533.35 Q1043.93 1529.78 1043.93 1522.67 Q1043.93 1515.55 1042.1 1512 Q1040.29 1508.44 1036.66 1508.44 M1036.66 1504.73 Q1042.47 1504.73 1045.52 1509.34 Q1048.6 1513.92 1048.6 1522.67 Q1048.6 1531.4 1045.52 1536.01 Q1042.47 1540.59 1036.66 1540.59 Q1030.85 1540.59 1027.77 1536.01 Q1024.71 1531.4 1024.71 1522.67 Q1024.71 1513.92 1027.77 1509.34 Q1030.85 1504.73 1036.66 1504.73 Z" fill="#000000" fill-rule="evenodd" fill-opacity="1" /><path clip-path="url(#clip8600)" d="M 0 0 M1443.23 1535.98 L1459.55 1535.98 L1459.55 1539.92 L1437.61 1539.92 L1437.61 1535.98 Q1440.27 1533.23 1444.86 1528.6 Q1449.46 1523.95 1450.64 1522.61 Q1452.89 1520.08 1453.77 1518.35 Q1454.67 1516.59 1454.67 1514.9 Q1454.67 1512.14 1452.73 1510.41 Q1450.8 1508.67 1447.7 1508.67 Q1445.5 1508.67 1443.05 1509.43 Q1440.62 1510.2 1437.84 1511.75 L1437.84 1507.03 Q1440.67 1505.89 1443.12 1505.31 Q1445.57 1504.73 1447.61 1504.73 Q1452.98 1504.73 1456.17 1507.42 Q1459.37 1510.11 1459.37 1514.6 Q1459.37 1516.73 1458.56 1518.65 Q1457.77 1520.54 1455.67 1523.14 Q1455.09 1523.81 1451.98 1527.03 Q1448.88 1530.22 1443.23 1535.98 Z" fill="#000000" fill-rule="evenodd" fill-opacity="1" /><path clip-path="url(#clip8600)" d="M 0 0 M1464.62 1534.04 L1469.51 1534.04 L1469.51 1539.92 L1464.62 1539.92 L1464.62 1534.04 Z" fill="#000000" fill-rule="evenodd" fill-opacity="1" /><path clip-path="url(#clip8600)" d="M 0 0 M1473.4 1505.36 L1495.62 1505.36 L1495.62 1507.35 L1483.07 1539.92 L1478.19 1539.92 L1489.99 1509.3 L1473.4 1509.3 L1473.4 1505.36 Z" fill="#000000" fill-rule="evenodd" fill-opacity="1" /><path clip-path="url(#clip8600)" d="M 0 0 M1500.73 1505.36 L1519.09 1505.36 L1519.09 1509.3 L1505.02 1509.3 L1505.02 1517.77 Q1506.04 1517.42 1507.05 1517.26 Q1508.07 1517.07 1509.09 1517.07 Q1514.88 1517.07 1518.26 1520.24 Q1521.64 1523.42 1521.64 1528.83 Q1521.64 1534.41 1518.16 1537.51 Q1514.69 1540.59 1508.37 1540.59 Q1506.2 1540.59 1503.93 1540.22 Q1501.68 1539.85 1499.28 1539.11 L1499.28 1534.41 Q1501.36 1535.54 1503.58 1536.1 Q1505.8 1536.66 1508.28 1536.66 Q1512.29 1536.66 1514.62 1534.55 Q1516.96 1532.44 1516.96 1528.83 Q1516.96 1525.22 1514.62 1523.11 Q1512.29 1521.01 1508.28 1521.01 Q1506.41 1521.01 1504.53 1521.42 Q1502.68 1521.84 1500.73 1522.72 L1500.73 1505.36 Z" fill="#000000" fill-rule="evenodd" fill-opacity="1" /><path clip-path="url(#clip8600)" d="M 0 0 M1925.37 1521.29 Q1928.72 1522 1930.6 1524.27 Q1932.5 1526.54 1932.5 1529.87 Q1932.5 1534.99 1928.98 1537.79 Q1925.46 1540.59 1918.98 1540.59 Q1916.8 1540.59 1914.49 1540.15 Q1912.2 1539.73 1909.74 1538.88 L1909.74 1534.36 Q1911.69 1535.5 1914 1536.08 Q1916.32 1536.66 1918.84 1536.66 Q1923.24 1536.66 1925.53 1534.92 Q1927.84 1533.18 1927.84 1529.87 Q1927.84 1526.82 1925.69 1525.11 Q1923.56 1523.37 1919.74 1523.37 L1915.71 1523.37 L1915.71 1519.53 L1919.93 1519.53 Q1923.38 1519.53 1925.21 1518.16 Q1927.03 1516.77 1927.03 1514.18 Q1927.03 1511.52 1925.14 1510.11 Q1923.26 1508.67 1919.74 1508.67 Q1917.82 1508.67 1915.62 1509.09 Q1913.42 1509.5 1910.78 1510.38 L1910.78 1506.22 Q1913.45 1505.48 1915.76 1505.11 Q1918.1 1504.73 1920.16 1504.73 Q1925.48 1504.73 1928.58 1507.17 Q1931.69 1509.57 1931.69 1513.69 Q1931.69 1516.56 1930.04 1518.55 Q1928.4 1520.52 1925.37 1521.29 Z" fill="#000000" fill-rule="evenodd" fill-opacity="1" /><path clip-path="url(#clip8600)" d="M 0 0 M1937.57 1534.04 L1942.45 1534.04 L1942.45 1539.92 L1937.57 1539.92 L1937.57 1534.04 Z" fill="#000000" fill-rule="evenodd" fill-opacity="1" /><path clip-path="url(#clip8600)" d="M 0 0 M1957.52 1508.44 Q1953.91 1508.44 1952.08 1512 Q1950.27 1515.55 1950.27 1522.67 Q1950.27 1529.78 1952.08 1533.35 Q1953.91 1536.89 1957.52 1536.89 Q1961.15 1536.89 1962.96 1533.35 Q1964.79 1529.78 1964.79 1522.67 Q1964.79 1515.55 1962.96 1512 Q1961.15 1508.44 1957.52 1508.44 M1957.52 1504.73 Q1963.33 1504.73 1966.39 1509.34 Q1969.46 1513.92 1969.46 1522.67 Q1969.46 1531.4 1966.39 1536.01 Q1963.33 1540.59 1957.52 1540.59 Q1951.71 1540.59 1948.63 1536.01 Q1945.58 1531.4 1945.58 1522.67 Q1945.58 1513.92 1948.63 1509.34 Q1951.71 1504.73 1957.52 1504.73 Z" fill="#000000" fill-rule="evenodd" fill-opacity="1" /><path clip-path="url(#clip8600)" d="M 0 0 M1984.53 1508.44 Q1980.92 1508.44 1979.09 1512 Q1977.29 1515.55 1977.29 1522.67 Q1977.29 1529.78 1979.09 1533.35 Q1980.92 1536.89 1984.53 1536.89 Q1988.17 1536.89 1989.97 1533.35 Q1991.8 1529.78 1991.8 1522.67 Q1991.8 1515.55 1989.97 1512 Q1988.17 1508.44 1984.53 1508.44 M1984.53 1504.73 Q1990.34 1504.73 1993.4 1509.34 Q1996.48 1513.92 1996.48 1522.67 Q1996.48 1531.4 1993.4 1536.01 Q1990.34 1540.59 1984.53 1540.59 Q1978.72 1540.59 1975.64 1536.01 Q1972.59 1531.4 1972.59 1522.67 Q1972.59 1513.92 1975.64 1509.34 Q1978.72 1504.73 1984.53 1504.73 Z" fill="#000000" fill-rule="evenodd" fill-opacity="1" /><path clip-path="url(#clip8600)" d="M 0 0 M79.1032 1345.57 Q82.4596 1346.29 84.3346 1348.56 Q86.2327 1350.83 86.2327 1354.16 Q86.2327 1359.27 82.7142 1362.08 Q79.1957 1364.88 72.7143 1364.88 Q70.5384 1364.88 68.2236 1364.44 Q65.9319 1364.02 63.4782 1363.16 L63.4782 1358.65 Q65.4227 1359.78 67.7375 1360.36 Q70.0523 1360.94 72.5754 1360.94 Q76.9735 1360.94 79.2652 1359.21 Q81.58 1357.47 81.58 1354.16 Q81.58 1351.1 79.4272 1349.39 Q77.2976 1347.65 73.4782 1347.65 L69.4504 1347.65 L69.4504 1343.81 L73.6634 1343.81 Q77.1124 1343.81 78.9411 1342.45 Q80.7698 1341.06 80.7698 1338.46 Q80.7698 1335.8 78.8717 1334.39 Q76.9967 1332.96 73.4782 1332.96 Q71.5569 1332.96 69.3578 1333.37 Q67.1588 1333.79 64.5199 1334.67 L64.5199 1330.5 Q67.1819 1329.76 69.4967 1329.39 Q71.8347 1329.02 73.8948 1329.02 Q79.2189 1329.02 82.3207 1331.45 Q85.4226 1333.86 85.4226 1337.98 Q85.4226 1340.85 83.7791 1342.84 Q82.1355 1344.81 79.1032 1345.57 Z" fill="#000000" fill-rule="evenodd" fill-opacity="1" /><path clip-path="url(#clip8600)" d="M 0 0 M91.3022 1358.33 L96.1864 1358.33 L96.1864 1364.21 L91.3022 1364.21 L91.3022 1358.33 Z" fill="#000000" fill-rule="evenodd" fill-opacity="1" /><path clip-path="url(#clip8600)" d="M 0 0 M111.256 1332.72 Q107.645 1332.72 105.816 1336.29 Q104.01 1339.83 104.01 1346.96 Q104.01 1354.07 105.816 1357.63 Q107.645 1361.17 111.256 1361.17 Q114.89 1361.17 116.696 1357.63 Q118.524 1354.07 118.524 1346.96 Q118.524 1339.83 116.696 1336.29 Q114.89 1332.72 111.256 1332.72 M111.256 1329.02 Q117.066 1329.02 120.121 1333.63 Q123.2 1338.21 123.2 1346.96 Q123.2 1355.69 120.121 1360.29 Q117.066 1364.88 111.256 1364.88 Q105.446 1364.88 102.367 1360.29 Q99.3114 1355.69 99.3114 1346.96 Q99.3114 1338.21 102.367 1333.63 Q105.446 1329.02 111.256 1329.02 Z" fill="#000000" fill-rule="evenodd" fill-opacity="1" /><path clip-path="url(#clip8600)" d="M 0 0 M80.7004 1058.68 Q84.0568 1059.4 85.9318 1061.67 Q87.83 1063.94 87.83 1067.27 Q87.83 1072.39 84.3115 1075.19 Q80.793 1077.99 74.3115 1077.99 Q72.1356 1077.99 69.8208 1077.55 Q67.5291 1077.13 65.0754 1076.27 L65.0754 1071.76 Q67.0199 1072.89 69.3347 1073.47 Q71.6495 1074.05 74.1726 1074.05 Q78.5707 1074.05 80.8624 1072.32 Q83.1772 1070.58 83.1772 1067.27 Q83.1772 1064.21 81.0244 1062.5 Q78.8948 1060.77 75.0754 1060.77 L71.0476 1060.77 L71.0476 1056.92 L75.2606 1056.92 Q78.7096 1056.92 80.5383 1055.56 Q82.367 1054.17 82.367 1051.58 Q82.367 1048.91 80.4689 1047.5 Q78.5939 1046.07 75.0754 1046.07 Q73.1541 1046.07 70.955 1046.48 Q68.756 1046.9 66.1171 1047.78 L66.1171 1043.61 Q68.7791 1042.87 71.0939 1042.5 Q73.4319 1042.13 75.4921 1042.13 Q80.8161 1042.13 83.9179 1044.56 Q87.0198 1046.97 87.0198 1051.09 Q87.0198 1053.96 85.3763 1055.95 Q83.7328 1057.92 80.7004 1058.68 Z" fill="#000000" fill-rule="evenodd" fill-opacity="1" /><path clip-path="url(#clip8600)" d="M 0 0 M92.8994 1071.44 L97.7836 1071.44 L97.7836 1077.32 L92.8994 1077.32 L92.8994 1071.44 Z" fill="#000000" fill-rule="evenodd" fill-opacity="1" /><path clip-path="url(#clip8600)" d="M 0 0 M106.881 1073.38 L123.2 1073.38 L123.2 1077.32 L101.256 1077.32 L101.256 1073.38 Q103.918 1070.63 108.501 1066 Q113.108 1061.34 114.288 1060 Q116.534 1057.48 117.413 1055.74 Q118.316 1053.98 118.316 1052.29 Q118.316 1049.54 116.371 1047.8 Q114.45 1046.07 111.348 1046.07 Q109.149 1046.07 106.696 1046.83 Q104.265 1047.59 101.487 1049.14 L101.487 1044.42 Q104.311 1043.29 106.765 1042.71 Q109.219 1042.13 111.256 1042.13 Q116.626 1042.13 119.821 1044.82 Q123.015 1047.5 123.015 1051.99 Q123.015 1054.12 122.205 1056.04 Q121.418 1057.94 119.311 1060.53 Q118.733 1061.21 115.631 1064.42 Q112.529 1067.62 106.881 1073.38 Z" fill="#000000" fill-rule="evenodd" fill-opacity="1" /><path clip-path="url(#clip8600)" d="M 0 0 M78.617 771.793 Q81.9735 772.511 83.8485 774.779 Q85.7466 777.048 85.7466 780.381 Q85.7466 785.497 82.2281 788.298 Q78.7096 791.099 72.2282 791.099 Q70.0523 791.099 67.7375 790.659 Q65.4458 790.242 62.9921 789.386 L62.9921 784.872 Q64.9366 786.006 67.2514 786.585 Q69.5662 787.163 72.0893 787.163 Q76.4874 787.163 78.7791 785.427 Q81.0939 783.691 81.0939 780.381 Q81.0939 777.325 78.9411 775.612 Q76.8115 773.876 72.9921 773.876 L68.9643 773.876 L68.9643 770.034 L73.1773 770.034 Q76.6263 770.034 78.455 768.668 Q80.2837 767.279 80.2837 764.687 Q80.2837 762.025 78.3856 760.613 Q76.5106 759.177 72.9921 759.177 Q71.0708 759.177 68.8717 759.594 Q66.6727 760.011 64.0338 760.89 L64.0338 756.724 Q66.6958 755.983 69.0106 755.613 Q71.3486 755.242 73.4087 755.242 Q78.7328 755.242 81.8346 757.673 Q84.9365 760.08 84.9365 764.201 Q84.9365 767.071 83.2929 769.062 Q81.6494 771.029 78.617 771.793 Z" fill="#000000" fill-rule="evenodd" fill-opacity="1" /><path clip-path="url(#clip8600)" d="M 0 0 M90.8161 784.548 L95.7003 784.548 L95.7003 790.427 L90.8161 790.427 L90.8161 784.548 Z" fill="#000000" fill-rule="evenodd" fill-opacity="1" /><path clip-path="url(#clip8600)" d="M 0 0 M113.617 759.941 L101.811 778.39 L113.617 778.39 L113.617 759.941 M112.39 755.867 L118.27 755.867 L118.27 778.39 L123.2 778.39 L123.2 782.279 L118.27 782.279 L118.27 790.427 L113.617 790.427 L113.617 782.279 L98.0151 782.279 L98.0151 777.765 L112.39 755.867 Z" fill="#000000" fill-rule="evenodd" fill-opacity="1" /><path clip-path="url(#clip8600)" d="M 0 0 M78.9411 484.904 Q82.2976 485.622 84.1726 487.89 Q86.0707 490.159 86.0707 493.492 Q86.0707 498.608 82.5522 501.409 Q79.0337 504.21 72.5523 504.21 Q70.3763 504.21 68.0615 503.77 Q65.7699 503.353 63.3162 502.497 L63.3162 497.983 Q65.2606 499.117 67.5754 499.696 Q69.8902 500.274 72.4134 500.274 Q76.8115 500.274 79.1032 498.538 Q81.418 496.802 81.418 493.492 Q81.418 490.437 79.2652 488.724 Q77.1356 486.987 73.3161 486.987 L69.2884 486.987 L69.2884 483.145 L73.5013 483.145 Q76.9504 483.145 78.7791 481.779 Q80.6078 480.39 80.6078 477.798 Q80.6078 475.136 78.7096 473.724 Q76.8346 472.288 73.3161 472.288 Q71.3949 472.288 69.1958 472.705 Q66.9967 473.122 64.3579 474.001 L64.3579 469.835 Q67.0199 469.094 69.3347 468.724 Q71.6726 468.353 73.7328 468.353 Q79.0569 468.353 82.1587 470.784 Q85.2605 473.191 85.2605 477.312 Q85.2605 480.182 83.617 482.173 Q81.9735 484.14 78.9411 484.904 Z" fill="#000000" fill-rule="evenodd" fill-opacity="1" /><path clip-path="url(#clip8600)" d="M 0 0 M91.1401 497.659 L96.0244 497.659 L96.0244 503.538 L91.1401 503.538 L91.1401 497.659 Z" fill="#000000" fill-rule="evenodd" fill-opacity="1" /><path clip-path="url(#clip8600)" d="M 0 0 M111.672 484.395 Q108.524 484.395 106.672 486.548 Q104.844 488.7 104.844 492.45 Q104.844 496.177 106.672 498.353 Q108.524 500.506 111.672 500.506 Q114.821 500.506 116.649 498.353 Q118.501 496.177 118.501 492.45 Q118.501 488.7 116.649 486.548 Q114.821 484.395 111.672 484.395 M120.955 469.742 L120.955 474.001 Q119.196 473.168 117.39 472.728 Q115.608 472.288 113.848 472.288 Q109.219 472.288 106.765 475.413 Q104.334 478.538 103.987 484.858 Q105.353 482.844 107.413 481.779 Q109.473 480.691 111.95 480.691 Q117.159 480.691 120.168 483.863 Q123.2 487.011 123.2 492.45 Q123.2 497.774 120.052 500.992 Q116.904 504.21 111.672 504.21 Q105.677 504.21 102.506 499.626 Q99.3345 495.02 99.3345 486.293 Q99.3345 478.099 103.223 473.238 Q107.112 468.353 113.663 468.353 Q115.422 468.353 117.205 468.701 Q119.01 469.048 120.955 469.742 Z" fill="#000000" fill-rule="evenodd" fill-opacity="1" /><path clip-path="url(#clip8600)" d="M 0 0 M79.1957 198.015 Q82.5522 198.733 84.4272 201.001 Q86.3253 203.27 86.3253 206.603 Q86.3253 211.719 82.8068 214.52 Q79.2883 217.321 72.8069 217.321 Q70.631 217.321 68.3162 216.881 Q66.0245 216.464 63.5708 215.608 L63.5708 211.094 Q65.5153 212.228 67.8301 212.807 Q70.1449 213.386 72.668 213.386 Q77.0661 213.386 79.3578 211.649 Q81.6726 209.913 81.6726 206.603 Q81.6726 203.548 79.5198 201.835 Q77.3902 200.099 73.5708 200.099 L69.543 200.099 L69.543 196.256 L73.756 196.256 Q77.205 196.256 79.0337 194.89 Q80.8624 193.501 80.8624 190.909 Q80.8624 188.247 78.9643 186.835 Q77.0893 185.4 73.5708 185.4 Q71.6495 185.4 69.4504 185.816 Q67.2514 186.233 64.6125 187.113 L64.6125 182.946 Q67.2745 182.205 69.5893 181.835 Q71.9273 181.464 73.9874 181.464 Q79.3115 181.464 82.4133 183.895 Q85.5152 186.302 85.5152 190.423 Q85.5152 193.293 83.8716 195.284 Q82.2281 197.251 79.1957 198.015 Z" fill="#000000" fill-rule="evenodd" fill-opacity="1" /><path clip-path="url(#clip8600)" d="M 0 0 M91.3948 210.77 L96.279 210.77 L96.279 216.649 L91.3948 216.649 L91.3948 210.77 Z" fill="#000000" fill-rule="evenodd" fill-opacity="1" /><path clip-path="url(#clip8600)" d="M 0 0 M111.348 200.237 Q108.015 200.237 106.094 202.02 Q104.196 203.802 104.196 206.927 Q104.196 210.052 106.094 211.835 Q108.015 213.617 111.348 213.617 Q114.682 213.617 116.603 211.835 Q118.524 210.029 118.524 206.927 Q118.524 203.802 116.603 202.02 Q114.705 200.237 111.348 200.237 M106.672 198.247 Q103.663 197.506 101.973 195.446 Q100.307 193.386 100.307 190.423 Q100.307 186.279 103.247 183.872 Q106.209 181.464 111.348 181.464 Q116.51 181.464 119.45 183.872 Q122.39 186.279 122.39 190.423 Q122.39 193.386 120.7 195.446 Q119.033 197.506 116.047 198.247 Q119.427 199.034 121.302 201.325 Q123.2 203.617 123.2 206.927 Q123.2 211.95 120.121 214.636 Q117.066 217.321 111.348 217.321 Q105.631 217.321 102.552 214.636 Q99.4966 211.95 99.4966 206.927 Q99.4966 203.617 101.395 201.325 Q103.293 199.034 106.672 198.247 M104.959 190.863 Q104.959 193.548 106.626 195.052 Q108.316 196.557 111.348 196.557 Q114.358 196.557 116.047 195.052 Q117.76 193.548 117.76 190.863 Q117.76 188.177 116.047 186.673 Q114.358 185.168 111.348 185.168 Q108.316 185.168 106.626 186.673 Q104.959 188.177 104.959 190.863 Z" fill="#000000" fill-rule="evenodd" fill-opacity="1" /><polyline clip-path="url(#clip8602)" style="stroke:#009af9; stroke-width:4; stroke-opacity:1; fill:none" points="
  209.622,1445.72 977.551,1168.32 1522.41,408.771 2290.33,87.9763 
  "/>
<path clip-path="url(#clip8600)" d="
M1989.74 251.724 L2280.76 251.724 L2280.76 130.764 L1989.74 130.764  Z
  " fill="#ffffff" fill-rule="evenodd" fill-opacity="1"/>
<polyline clip-path="url(#clip8600)" style="stroke:#000000; stroke-width:4; stroke-opacity:1; fill:none" points="
  1989.74,251.724 2280.76,251.724 2280.76,130.764 1989.74,130.764 1989.74,251.724 
  "/>
<polyline clip-path="url(#clip8600)" style="stroke:#009af9; stroke-width:4; stroke-opacity:1; fill:none" points="
  2013.74,191.244 2157.74,191.244 
  "/>
<path clip-path="url(#clip8600)" d="M 0 0 M2195.58 210.931 Q2193.77 215.561 2192.06 216.973 Q2190.35 218.385 2187.48 218.385 L2184.08 218.385 L2184.08 214.82 L2186.58 214.82 Q2188.33 214.82 2189.31 213.987 Q2190.28 213.154 2191.46 210.052 L2192.22 208.107 L2181.74 182.598 L2186.25 182.598 L2194.35 202.876 L2202.46 182.598 L2206.97 182.598 L2195.58 210.931 Z" fill="#000000" fill-rule="evenodd" fill-opacity="1" /><path clip-path="url(#clip8600)" d="M 0 0 M2212.85 204.589 L2220.49 204.589 L2220.49 178.223 L2212.18 179.89 L2212.18 175.631 L2220.44 173.964 L2225.12 173.964 L2225.12 204.589 L2232.76 204.589 L2232.76 208.524 L2212.85 208.524 L2212.85 204.589 Z" fill="#000000" fill-rule="evenodd" fill-opacity="1" /></svg>
