<?xml version="1.0" encoding="utf-8"?>
<svg xmlns="http://www.w3.org/2000/svg" xmlns:xlink="http://www.w3.org/1999/xlink" width="600" height="400" viewBox="0 0 2400 1600">
<defs>
  <clipPath id="clip8200">
    <rect x="0" y="0" width="2400" height="1600"/>
  </clipPath>
</defs>
<path clip-path="url(#clip8200)" d="
M0 1600 L2400 1600 L2400 0 L0 0  Z
  " fill="#ffffff" fill-rule="evenodd" fill-opacity="1"/>
<defs>
  <clipPath id="clip8201">
    <rect x="480" y="0" width="1681" height="1600"/>
  </clipPath>
</defs>
<path clip-path="url(#clip8200)" d="
M200.417 1486.45 L2352.76 1486.45 L2352.76 47.2441 L200.417 47.2441  Z
  " fill="#ffffff" fill-rule="evenodd" fill-opacity="1"/>
<defs>
  <clipPath id="clip8202">
    <rect x="200" y="47" width="2153" height="1440"/>
  </clipPath>
</defs>
<polyline clip-path="url(#clip8202)" style="stroke:#000000; stroke-width:2; stroke-opacity:0.1; fill:none" points="
  220.723,1486.45 220.723,47.2441 
  "/>
<polyline clip-path="url(#clip8202)" style="stroke:#000000; stroke-width:2; stroke-opacity:0.1; fill:none" points="
  708.044,1486.45 708.044,47.2441 
  "/>
<polyline clip-path="url(#clip8202)" style="stroke:#000000; stroke-width:2; stroke-opacity:0.1; fill:none" points="
  1195.37,1486.45 1195.37,47.2441 
  "/>
<polyline clip-path="url(#clip8202)" style="stroke:#000000; stroke-width:2; stroke-opacity:0.1; fill:none" points="
  1682.69,1486.45 1682.69,47.2441 
  "/>
<polyline clip-path="url(#clip8202)" style="stroke:#000000; stroke-width:2; stroke-opacity:0.1; fill:none" points="
  2170.01,1486.45 2170.01,47.2441 
  "/>
<polyline clip-path="url(#clip8202)" style="stroke:#000000; stroke-width:2; stroke-opacity:0.1; fill:none" points="
  200.417,1267.92 2352.76,1267.92 
  "/>
<polyline clip-path="url(#clip8202)" style="stroke:#000000; stroke-width:2; stroke-opacity:0.1; fill:none" points="
  200.417,960.809 2352.76,960.809 
  "/>
<polyline clip-path="url(#clip8202)" style="stroke:#000000; stroke-width:2; stroke-opacity:0.1; fill:none" points="
  200.417,653.701 2352.76,653.701 
  "/>
<polyline clip-path="url(#clip8202)" style="stroke:#000000; stroke-width:2; stroke-opacity:0.1; fill:none" points="
  200.417,346.593 2352.76,346.593 
  "/>
<polyline clip-path="url(#clip8200)" style="stroke:#000000; stroke-width:4; stroke-opacity:1; fill:none" points="
  200.417,1486.45 2352.76,1486.45 
  "/>
<polyline clip-path="url(#clip8200)" style="stroke:#000000; stroke-width:4; stroke-opacity:1; fill:none" points="
  200.417,1486.45 200.417,47.2441 
  "/>
<polyline clip-path="url(#clip8200)" style="stroke:#000000; stroke-width:4; stroke-opacity:1; fill:none" points="
  220.723,1486.45 220.723,1469.18 
  "/>
<polyline clip-path="url(#clip8200)" style="stroke:#000000; stroke-width:4; stroke-opacity:1; fill:none" points="
  708.044,1486.45 708.044,1469.18 
  "/>
<polyline clip-path="url(#clip8200)" style="stroke:#000000; stroke-width:4; stroke-opacity:1; fill:none" points="
  1195.37,1486.45 1195.37,1469.18 
  "/>
<polyline clip-path="url(#clip8200)" style="stroke:#000000; stroke-width:4; stroke-opacity:1; fill:none" points="
  1682.69,1486.45 1682.69,1469.18 
  "/>
<polyline clip-path="url(#clip8200)" style="stroke:#000000; stroke-width:4; stroke-opacity:1; fill:none" points="
  2170.01,1486.45 2170.01,1469.18 
  "/>
<polyline clip-path="url(#clip8200)" style="stroke:#000000; stroke-width:4; stroke-opacity:1; fill:none" points="
  200.417,1267.92 226.246,1267.92 
  "/>
<polyline clip-path="url(#clip8200)" style="stroke:#000000; stroke-width:4; stroke-opacity:1; fill:none" points="
  200.417,960.809 226.246,960.809 
  "/>
<polyline clip-path="url(#clip8200)" style="stroke:#000000; stroke-width:4; stroke-opacity:1; fill:none" points="
  200.417,653.701 226.246,653.701 
  "/>
<polyline clip-path="url(#clip8200)" style="stroke:#000000; stroke-width:4; stroke-opacity:1; fill:none" points="
  200.417,346.593 226.246,346.593 
  "/>
<path clip-path="url(#clip8200)" d="M 0 0 M188.489 1508.44 Q184.878 1508.44 183.049 1512 Q181.244 1515.55 181.244 1522.67 Q181.244 1529.78 183.049 1533.35 Q184.878 1536.89 188.489 1536.89 Q192.123 1536.89 193.929 1533.35 Q195.757 1529.78 195.757 1522.67 Q195.757 1515.55 193.929 1512 Q192.123 1508.44 188.489 1508.44 M188.489 1504.73 Q194.299 1504.73 197.355 1509.34 Q200.433 1513.92 200.433 1522.67 Q200.433 1531.4 197.355 1536.01 Q194.299 1540.59 188.489 1540.59 Q182.679 1540.59 179.6 1536.01 Q176.545 1531.4 176.545 1522.67 Q176.545 1513.92 179.6 1509.34 Q182.679 1504.73 188.489 1504.73 Z" fill="#000000" fill-rule="evenodd" fill-opacity="1" /><path clip-path="url(#clip8200)" d="M 0 0 M205.503 1534.04 L210.387 1534.04 L210.387 1539.92 L205.503 1539.92 L205.503 1534.04 Z" fill="#000000" fill-rule="evenodd" fill-opacity="1" /><path clip-path="url(#clip8200)" d="M 0 0 M225.456 1508.44 Q221.845 1508.44 220.017 1512 Q218.211 1515.55 218.211 1522.67 Q218.211 1529.78 220.017 1533.35 Q221.845 1536.89 225.456 1536.89 Q229.091 1536.89 230.896 1533.35 Q232.725 1529.78 232.725 1522.67 Q232.725 1515.55 230.896 1512 Q229.091 1508.44 225.456 1508.44 M225.456 1504.73 Q231.266 1504.73 234.322 1509.34 Q237.401 1513.92 237.401 1522.67 Q237.401 1531.4 234.322 1536.01 Q231.266 1540.59 225.456 1540.59 Q219.646 1540.59 216.567 1536.01 Q213.512 1531.4 213.512 1522.67 Q213.512 1513.92 216.567 1509.34 Q219.646 1504.73 225.456 1504.73 Z" fill="#000000" fill-rule="evenodd" fill-opacity="1" /><path clip-path="url(#clip8200)" d="M 0 0 M255.317 1509.43 L243.512 1527.88 L255.317 1527.88 L255.317 1509.43 M254.09 1505.36 L259.97 1505.36 L259.97 1527.88 L264.901 1527.88 L264.901 1531.77 L259.97 1531.77 L259.97 1539.92 L255.317 1539.92 L255.317 1531.77 L239.715 1531.77 L239.715 1527.26 L254.09 1505.36 Z" fill="#000000" fill-rule="evenodd" fill-opacity="1" /><path clip-path="url(#clip8200)" d="M 0 0 M675.973 1508.44 Q672.362 1508.44 670.533 1512 Q668.728 1515.55 668.728 1522.67 Q668.728 1529.78 670.533 1533.35 Q672.362 1536.89 675.973 1536.89 Q679.607 1536.89 681.413 1533.35 Q683.241 1529.78 683.241 1522.67 Q683.241 1515.55 681.413 1512 Q679.607 1508.44 675.973 1508.44 M675.973 1504.73 Q681.783 1504.73 684.839 1509.34 Q687.917 1513.92 687.917 1522.67 Q687.917 1531.4 684.839 1536.01 Q681.783 1540.59 675.973 1540.59 Q670.163 1540.59 667.084 1536.01 Q664.028 1531.4 664.028 1522.67 Q664.028 1513.92 667.084 1509.34 Q670.163 1504.73 675.973 1504.73 Z" fill="#000000" fill-rule="evenodd" fill-opacity="1" /><path clip-path="url(#clip8200)" d="M 0 0 M692.987 1534.04 L697.871 1534.04 L697.871 1539.92 L692.987 1539.92 L692.987 1534.04 Z" fill="#000000" fill-rule="evenodd" fill-opacity="1" /><path clip-path="url(#clip8200)" d="M 0 0 M712.94 1508.44 Q709.329 1508.44 707.5 1512 Q705.695 1515.55 705.695 1522.67 Q705.695 1529.78 707.5 1533.35 Q709.329 1536.89 712.94 1536.89 Q716.574 1536.89 718.38 1533.35 Q720.209 1529.78 720.209 1522.67 Q720.209 1515.55 718.38 1512 Q716.574 1508.44 712.94 1508.44 M712.94 1504.73 Q718.75 1504.73 721.806 1509.34 Q724.885 1513.92 724.885 1522.67 Q724.885 1531.4 721.806 1536.01 Q718.75 1540.59 712.94 1540.59 Q707.13 1540.59 704.051 1536.01 Q700.996 1531.4 700.996 1522.67 Q700.996 1513.92 704.051 1509.34 Q707.13 1504.73 712.94 1504.73 Z" fill="#000000" fill-rule="evenodd" fill-opacity="1" /><path clip-path="url(#clip8200)" d="M 0 0 M740.533 1520.78 Q737.385 1520.78 735.533 1522.93 Q733.704 1525.08 733.704 1528.83 Q733.704 1532.56 735.533 1534.73 Q737.385 1536.89 740.533 1536.89 Q743.681 1536.89 745.51 1534.73 Q747.361 1532.56 747.361 1528.83 Q747.361 1525.08 745.51 1522.93 Q743.681 1520.78 740.533 1520.78 M749.815 1506.12 L749.815 1510.38 Q748.056 1509.55 746.25 1509.11 Q744.468 1508.67 742.709 1508.67 Q738.079 1508.67 735.625 1511.8 Q733.195 1514.92 732.848 1521.24 Q734.213 1519.23 736.273 1518.16 Q738.334 1517.07 740.81 1517.07 Q746.019 1517.07 749.028 1520.24 Q752.06 1523.39 752.06 1528.83 Q752.06 1534.16 748.912 1537.37 Q745.764 1540.59 740.533 1540.59 Q734.537 1540.59 731.366 1536.01 Q728.195 1531.4 728.195 1522.67 Q728.195 1514.48 732.084 1509.62 Q735.973 1504.73 742.523 1504.73 Q744.283 1504.73 746.065 1505.08 Q747.871 1505.43 749.815 1506.12 Z" fill="#000000" fill-rule="evenodd" fill-opacity="1" /><path clip-path="url(#clip8200)" d="M 0 0 M1163.42 1508.44 Q1159.81 1508.44 1157.98 1512 Q1156.18 1515.55 1156.18 1522.67 Q1156.18 1529.78 1157.98 1533.35 Q1159.81 1536.89 1163.42 1536.89 Q1167.06 1536.89 1168.86 1533.35 Q1170.69 1529.78 1170.69 1522.67 Q1170.69 1515.55 1168.86 1512 Q1167.06 1508.44 1163.42 1508.44 M1163.42 1504.73 Q1169.23 1504.73 1172.29 1509.34 Q1175.37 1513.92 1175.37 1522.67 Q1175.37 1531.4 1172.29 1536.01 Q1169.23 1540.59 1163.42 1540.59 Q1157.61 1540.59 1154.53 1536.01 Q1151.48 1531.4 1151.48 1522.67 Q1151.48 1513.92 1154.53 1509.34 Q1157.61 1504.73 1163.42 1504.73 Z" fill="#000000" fill-rule="evenodd" fill-opacity="1" /><path clip-path="url(#clip8200)" d="M 0 0 M1180.44 1534.04 L1185.32 1534.04 L1185.32 1539.92 L1180.44 1539.92 L1180.44 1534.04 Z" fill="#000000" fill-rule="evenodd" fill-opacity="1" /><path clip-path="url(#clip8200)" d="M 0 0 M1200.39 1508.44 Q1196.78 1508.44 1194.95 1512 Q1193.14 1515.55 1193.14 1522.67 Q1193.14 1529.78 1194.95 1533.35 Q1196.78 1536.89 1200.39 1536.89 Q1204.02 1536.89 1205.83 1533.35 Q1207.66 1529.78 1207.66 1522.67 Q1207.66 1515.55 1205.83 1512 Q1204.02 1508.44 1200.39 1508.44 M1200.39 1504.73 Q1206.2 1504.73 1209.26 1509.34 Q1212.33 1513.92 1212.33 1522.67 Q1212.33 1531.4 1209.26 1536.01 Q1206.2 1540.59 1200.39 1540.59 Q1194.58 1540.59 1191.5 1536.01 Q1188.45 1531.4 1188.45 1522.67 Q1188.45 1513.92 1191.5 1509.34 Q1194.58 1504.73 1200.39 1504.73 Z" fill="#000000" fill-rule="evenodd" fill-opacity="1" /><path clip-path="url(#clip8200)" d="M 0 0 M1227.4 1523.51 Q1224.07 1523.51 1222.15 1525.29 Q1220.25 1527.07 1220.25 1530.2 Q1220.25 1533.32 1222.15 1535.11 Q1224.07 1536.89 1227.4 1536.89 Q1230.74 1536.89 1232.66 1535.11 Q1234.58 1533.3 1234.58 1530.2 Q1234.58 1527.07 1232.66 1525.29 Q1230.76 1523.51 1227.4 1523.51 M1222.73 1521.52 Q1219.72 1520.78 1218.03 1518.72 Q1216.36 1516.66 1216.36 1513.69 Q1216.36 1509.55 1219.3 1507.14 Q1222.26 1504.73 1227.4 1504.73 Q1232.57 1504.73 1235.51 1507.14 Q1238.44 1509.55 1238.44 1513.69 Q1238.44 1516.66 1236.76 1518.72 Q1235.09 1520.78 1232.1 1521.52 Q1235.48 1522.3 1237.36 1524.6 Q1239.26 1526.89 1239.26 1530.2 Q1239.26 1535.22 1236.18 1537.91 Q1233.12 1540.59 1227.4 1540.59 Q1221.69 1540.59 1218.61 1537.91 Q1215.55 1535.22 1215.55 1530.2 Q1215.55 1526.89 1217.45 1524.6 Q1219.35 1522.3 1222.73 1521.52 M1221.01 1514.13 Q1221.01 1516.82 1222.68 1518.32 Q1224.37 1519.83 1227.4 1519.83 Q1230.41 1519.83 1232.1 1518.32 Q1233.82 1516.82 1233.82 1514.13 Q1233.82 1511.45 1232.1 1509.94 Q1230.41 1508.44 1227.4 1508.44 Q1224.37 1508.44 1222.68 1509.94 Q1221.01 1511.45 1221.01 1514.13 Z" fill="#000000" fill-rule="evenodd" fill-opacity="1" /><path clip-path="url(#clip8200)" d="M 0 0 M1651.31 1508.44 Q1647.7 1508.44 1645.87 1512 Q1644.07 1515.55 1644.07 1522.67 Q1644.07 1529.78 1645.87 1533.35 Q1647.7 1536.89 1651.31 1536.89 Q1654.95 1536.89 1656.75 1533.35 Q1658.58 1529.78 1658.58 1522.67 Q1658.58 1515.55 1656.75 1512 Q1654.95 1508.44 1651.31 1508.44 M1651.31 1504.73 Q1657.12 1504.73 1660.18 1509.34 Q1663.26 1513.92 1663.26 1522.67 Q1663.26 1531.4 1660.18 1536.01 Q1657.12 1540.59 1651.31 1540.59 Q1645.5 1540.59 1642.42 1536.01 Q1639.37 1531.4 1639.37 1522.67 Q1639.37 1513.92 1642.42 1509.34 Q1645.5 1504.73 1651.31 1504.73 Z" fill="#000000" fill-rule="evenodd" fill-opacity="1" /><path clip-path="url(#clip8200)" d="M 0 0 M1668.32 1534.04 L1673.21 1534.04 L1673.21 1539.92 L1668.32 1539.92 L1668.32 1534.04 Z" fill="#000000" fill-rule="evenodd" fill-opacity="1" /><path clip-path="url(#clip8200)" d="M 0 0 M1679.09 1535.98 L1686.73 1535.98 L1686.73 1509.62 L1678.42 1511.29 L1678.42 1507.03 L1686.68 1505.36 L1691.36 1505.36 L1691.36 1535.98 L1699 1535.98 L1699 1539.92 L1679.09 1539.92 L1679.09 1535.98 Z" fill="#000000" fill-rule="evenodd" fill-opacity="1" /><path clip-path="url(#clip8200)" d="M 0 0 M1714.07 1508.44 Q1710.45 1508.44 1708.63 1512 Q1706.82 1515.55 1706.82 1522.67 Q1706.82 1529.78 1708.63 1533.35 Q1710.45 1536.89 1714.07 1536.89 Q1717.7 1536.89 1719.51 1533.35 Q1721.33 1529.78 1721.33 1522.67 Q1721.33 1515.55 1719.51 1512 Q1717.7 1508.44 1714.07 1508.44 M1714.07 1504.73 Q1719.88 1504.73 1722.93 1509.34 Q1726.01 1513.92 1726.01 1522.67 Q1726.01 1531.4 1722.93 1536.01 Q1719.88 1540.59 1714.07 1540.59 Q1708.26 1540.59 1705.18 1536.01 Q1702.12 1531.4 1702.12 1522.67 Q1702.12 1513.92 1705.18 1509.34 Q1708.26 1504.73 1714.07 1504.73 Z" fill="#000000" fill-rule="evenodd" fill-opacity="1" /><path clip-path="url(#clip8200)" d="M 0 0 M2139.43 1508.44 Q2135.82 1508.44 2133.99 1512 Q2132.19 1515.55 2132.19 1522.67 Q2132.19 1529.78 2133.99 1533.35 Q2135.82 1536.89 2139.43 1536.89 Q2143.07 1536.89 2144.87 1533.35 Q2146.7 1529.78 2146.7 1522.67 Q2146.7 1515.55 2144.87 1512 Q2143.07 1508.44 2139.43 1508.44 M2139.43 1504.73 Q2145.24 1504.73 2148.3 1509.34 Q2151.38 1513.92 2151.38 1522.67 Q2151.38 1531.4 2148.3 1536.01 Q2145.24 1540.59 2139.43 1540.59 Q2133.62 1540.59 2130.54 1536.01 Q2127.49 1531.4 2127.49 1522.67 Q2127.49 1513.92 2130.54 1509.34 Q2133.62 1504.73 2139.43 1504.73 Z" fill="#000000" fill-rule="evenodd" fill-opacity="1" /><path clip-path="url(#clip8200)" d="M 0 0 M2156.45 1534.04 L2161.33 1534.04 L2161.33 1539.92 L2156.45 1539.92 L2156.45 1534.04 Z" fill="#000000" fill-rule="evenodd" fill-opacity="1" /><path clip-path="url(#clip8200)" d="M 0 0 M2167.21 1535.98 L2174.85 1535.98 L2174.85 1509.62 L2166.54 1511.29 L2166.54 1507.03 L2174.8 1505.36 L2179.48 1505.36 L2179.48 1535.98 L2187.12 1535.98 L2187.12 1539.92 L2167.21 1539.92 L2167.21 1535.98 Z" fill="#000000" fill-rule="evenodd" fill-opacity="1" /><path clip-path="url(#clip8200)" d="M 0 0 M2196.21 1535.98 L2212.53 1535.98 L2212.53 1539.92 L2190.59 1539.92 L2190.59 1535.98 Q2193.25 1533.23 2197.83 1528.6 Q2202.44 1523.95 2203.62 1522.61 Q2205.87 1520.08 2206.75 1518.35 Q2207.65 1516.59 2207.65 1514.9 Q2207.65 1512.14 2205.7 1510.41 Q2203.78 1508.67 2200.68 1508.67 Q2198.48 1508.67 2196.03 1509.43 Q2193.6 1510.2 2190.82 1511.75 L2190.82 1507.03 Q2193.64 1505.89 2196.1 1505.31 Q2198.55 1504.73 2200.59 1504.73 Q2205.96 1504.73 2209.15 1507.42 Q2212.35 1510.11 2212.35 1514.6 Q2212.35 1516.73 2211.54 1518.65 Q2210.75 1520.54 2208.64 1523.14 Q2208.07 1523.81 2204.96 1527.03 Q2201.86 1530.22 2196.21 1535.98 Z" fill="#000000" fill-rule="evenodd" fill-opacity="1" /><path clip-path="url(#clip8200)" d="M 0 0 M72.3439 1281.26 L88.6633 1281.26 L88.6633 1285.2 L66.719 1285.2 L66.719 1281.26 Q69.381 1278.51 73.9643 1273.88 Q78.5707 1269.22 79.7513 1267.88 Q81.9967 1265.36 82.8763 1263.62 Q83.7791 1261.86 83.7791 1260.17 Q83.7791 1257.42 81.8346 1255.68 Q79.9133 1253.95 76.8115 1253.95 Q74.6124 1253.95 72.1587 1254.71 Q69.7282 1255.47 66.9504 1257.03 L66.9504 1252.3 Q69.7745 1251.17 72.2282 1250.59 Q74.6819 1250.01 76.7189 1250.01 Q82.0892 1250.01 85.2837 1252.7 Q88.4781 1255.38 88.4781 1259.87 Q88.4781 1262 87.6679 1263.92 Q86.8809 1265.82 84.7744 1268.41 Q84.1957 1269.09 81.0939 1272.3 Q77.992 1275.5 72.3439 1281.26 Z" fill="#000000" fill-rule="evenodd" fill-opacity="1" /><path clip-path="url(#clip8200)" d="M 0 0 M93.7327 1279.32 L98.6169 1279.32 L98.6169 1285.2 L93.7327 1285.2 L93.7327 1279.32 Z" fill="#000000" fill-rule="evenodd" fill-opacity="1" /><path clip-path="url(#clip8200)" d="M 0 0 M117.853 1266.56 Q121.209 1267.28 123.084 1269.55 Q124.983 1271.82 124.983 1275.15 Q124.983 1280.27 121.464 1283.07 Q117.946 1285.87 111.464 1285.87 Q109.288 1285.87 106.973 1285.43 Q104.682 1285.01 102.228 1284.15 L102.228 1279.64 Q104.172 1280.78 106.487 1281.35 Q108.802 1281.93 111.325 1281.93 Q115.723 1281.93 118.015 1280.2 Q120.33 1278.46 120.33 1275.15 Q120.33 1272.09 118.177 1270.38 Q116.047 1268.65 112.228 1268.65 L108.2 1268.65 L108.2 1264.8 L112.413 1264.8 Q115.862 1264.8 117.691 1263.44 Q119.52 1262.05 119.52 1259.46 Q119.52 1256.79 117.621 1255.38 Q115.746 1253.95 112.228 1253.95 Q110.307 1253.95 108.108 1254.36 Q105.909 1254.78 103.27 1255.66 L103.27 1251.49 Q105.932 1250.75 108.247 1250.38 Q110.584 1250.01 112.645 1250.01 Q117.969 1250.01 121.071 1252.44 Q124.172 1254.85 124.172 1258.97 Q124.172 1261.84 122.529 1263.83 Q120.885 1265.8 117.853 1266.56 Z" fill="#000000" fill-rule="evenodd" fill-opacity="1" /><path clip-path="url(#clip8200)" d="M 0 0 M134.08 1281.26 L150.399 1281.26 L150.399 1285.2 L128.455 1285.2 L128.455 1281.26 Q131.117 1278.51 135.7 1273.88 Q140.307 1269.22 141.487 1267.88 Q143.732 1265.36 144.612 1263.62 Q145.515 1261.86 145.515 1260.17 Q145.515 1257.42 143.57 1255.68 Q141.649 1253.95 138.547 1253.95 Q136.348 1253.95 133.895 1254.71 Q131.464 1255.47 128.686 1257.03 L128.686 1252.3 Q131.51 1251.17 133.964 1250.59 Q136.418 1250.01 138.455 1250.01 Q143.825 1250.01 147.019 1252.7 Q150.214 1255.38 150.214 1259.87 Q150.214 1262 149.404 1263.92 Q148.617 1265.82 146.51 1268.41 Q145.931 1269.09 142.83 1272.3 Q139.728 1275.5 134.08 1281.26 Z" fill="#000000" fill-rule="evenodd" fill-opacity="1" /><path clip-path="url(#clip8200)" d="M 0 0 M155.515 1250.64 L173.871 1250.64 L173.871 1254.57 L159.797 1254.57 L159.797 1263.04 Q160.816 1262.7 161.834 1262.53 Q162.853 1262.35 163.871 1262.35 Q169.658 1262.35 173.038 1265.52 Q176.417 1268.69 176.417 1274.11 Q176.417 1279.69 172.945 1282.79 Q169.473 1285.87 163.154 1285.87 Q160.978 1285.87 158.709 1285.5 Q156.464 1285.13 154.056 1284.39 L154.056 1279.69 Q156.14 1280.82 158.362 1281.38 Q160.584 1281.93 163.061 1281.93 Q167.066 1281.93 169.404 1279.83 Q171.742 1277.72 171.742 1274.11 Q171.742 1270.5 169.404 1268.39 Q167.066 1266.28 163.061 1266.28 Q161.186 1266.28 159.311 1266.7 Q157.459 1267.12 155.515 1268 L155.515 1250.64 Z" fill="#000000" fill-rule="evenodd" fill-opacity="1" /><path clip-path="url(#clip8200)" d="M 0 0 M70.7467 974.154 L87.0661 974.154 L87.0661 978.089 L65.1217 978.089 L65.1217 974.154 Q67.7838 971.399 72.3671 966.769 Q76.9735 962.117 78.1541 960.774 Q80.3994 958.251 81.2791 956.515 Q82.1818 954.756 82.1818 953.066 Q82.1818 950.311 80.2374 948.575 Q78.3161 946.839 75.2143 946.839 Q73.0152 946.839 70.5615 947.603 Q68.131 948.367 65.3532 949.918 L65.3532 945.195 Q68.1773 944.061 70.631 943.482 Q73.0847 942.904 75.1217 942.904 Q80.492 942.904 83.6865 945.589 Q86.8809 948.274 86.8809 952.765 Q86.8809 954.894 86.0707 956.816 Q85.2837 958.714 83.1772 961.306 Q82.5985 961.978 79.4967 965.195 Q76.3948 968.39 70.7467 974.154 Z" fill="#000000" fill-rule="evenodd" fill-opacity="1" /><path clip-path="url(#clip8200)" d="M 0 0 M92.1355 972.209 L97.0197 972.209 L97.0197 978.089 L92.1355 978.089 L92.1355 972.209 Z" fill="#000000" fill-rule="evenodd" fill-opacity="1" /><path clip-path="url(#clip8200)" d="M 0 0 M116.256 959.455 Q119.612 960.172 121.487 962.441 Q123.385 964.709 123.385 968.043 Q123.385 973.158 119.867 975.959 Q116.348 978.76 109.867 978.76 Q107.691 978.76 105.376 978.32 Q103.085 977.904 100.631 977.047 L100.631 972.533 Q102.575 973.667 104.89 974.246 Q107.205 974.825 109.728 974.825 Q114.126 974.825 116.418 973.089 Q118.733 971.353 118.733 968.043 Q118.733 964.987 116.58 963.274 Q114.45 961.538 110.631 961.538 L106.603 961.538 L106.603 957.695 L110.816 957.695 Q114.265 957.695 116.094 956.33 Q117.922 954.941 117.922 952.348 Q117.922 949.686 116.024 948.274 Q114.149 946.839 110.631 946.839 Q108.709 946.839 106.51 947.256 Q104.311 947.672 101.672 948.552 L101.672 944.385 Q104.334 943.644 106.649 943.274 Q108.987 942.904 111.047 942.904 Q116.371 942.904 119.473 945.334 Q122.575 947.742 122.575 951.862 Q122.575 954.732 120.932 956.723 Q119.288 958.691 116.256 959.455 Z" fill="#000000" fill-rule="evenodd" fill-opacity="1" /><path clip-path="url(#clip8200)" d="M 0 0 M128.501 943.529 L146.857 943.529 L146.857 947.464 L132.783 947.464 L132.783 955.936 Q133.802 955.589 134.82 955.427 Q135.839 955.242 136.857 955.242 Q142.644 955.242 146.024 958.413 Q149.404 961.584 149.404 967.001 Q149.404 972.58 145.931 975.681 Q142.459 978.76 136.14 978.76 Q133.964 978.76 131.695 978.39 Q129.45 978.019 127.043 977.279 L127.043 972.58 Q129.126 973.714 131.348 974.269 Q133.57 974.825 136.047 974.825 Q140.052 974.825 142.39 972.718 Q144.728 970.612 144.728 967.001 Q144.728 963.39 142.39 961.283 Q140.052 959.177 136.047 959.177 Q134.172 959.177 132.297 959.593 Q130.445 960.01 128.501 960.89 L128.501 943.529 Z" fill="#000000" fill-rule="evenodd" fill-opacity="1" /><path clip-path="url(#clip8200)" d="M 0 0 M164.473 946.607 Q160.862 946.607 159.033 950.172 Q157.228 953.714 157.228 960.843 Q157.228 967.95 159.033 971.515 Q160.862 975.056 164.473 975.056 Q168.107 975.056 169.913 971.515 Q171.742 967.95 171.742 960.843 Q171.742 953.714 169.913 950.172 Q168.107 946.607 164.473 946.607 M164.473 942.904 Q170.283 942.904 173.339 947.51 Q176.417 952.094 176.417 960.843 Q176.417 969.57 173.339 974.177 Q170.283 978.76 164.473 978.76 Q158.663 978.76 155.584 974.177 Q152.529 969.57 152.529 960.843 Q152.529 952.094 155.584 947.51 Q158.663 942.904 164.473 942.904 Z" fill="#000000" fill-rule="evenodd" fill-opacity="1" /><path clip-path="url(#clip8200)" d="M 0 0 M71.6495 667.046 L87.9688 667.046 L87.9688 670.981 L66.0245 670.981 L66.0245 667.046 Q68.6865 664.291 73.2698 659.662 Q77.8763 655.009 79.0569 653.666 Q81.3022 651.143 82.1818 649.407 Q83.0846 647.648 83.0846 645.958 Q83.0846 643.203 81.1402 641.467 Q79.2189 639.731 76.1171 639.731 Q73.918 639.731 71.4643 640.495 Q69.0338 641.259 66.256 642.81 L66.256 638.088 Q69.0801 636.953 71.5337 636.375 Q73.9874 635.796 76.0245 635.796 Q81.3948 635.796 84.5892 638.481 Q87.7837 641.166 87.7837 645.657 Q87.7837 647.787 86.9735 649.708 Q86.1864 651.606 84.08 654.199 Q83.5013 654.87 80.3994 658.088 Q77.2976 661.282 71.6495 667.046 Z" fill="#000000" fill-rule="evenodd" fill-opacity="1" /><path clip-path="url(#clip8200)" d="M 0 0 M93.0383 665.101 L97.9225 665.101 L97.9225 670.981 L93.0383 670.981 L93.0383 665.101 Z" fill="#000000" fill-rule="evenodd" fill-opacity="1" /><path clip-path="url(#clip8200)" d="M 0 0 M117.159 652.347 Q120.515 653.064 122.39 655.333 Q124.288 657.601 124.288 660.935 Q124.288 666.051 120.77 668.851 Q117.251 671.652 110.77 671.652 Q108.594 671.652 106.279 671.213 Q103.987 670.796 101.534 669.939 L101.534 665.426 Q103.478 666.56 105.793 667.138 Q108.108 667.717 110.631 667.717 Q115.029 667.717 117.321 665.981 Q119.635 664.245 119.635 660.935 Q119.635 657.879 117.483 656.166 Q115.353 654.43 111.534 654.43 L107.506 654.43 L107.506 650.588 L111.719 650.588 Q115.168 650.588 116.996 649.222 Q118.825 647.833 118.825 645.24 Q118.825 642.578 116.927 641.166 Q115.052 639.731 111.534 639.731 Q109.612 639.731 107.413 640.148 Q105.214 640.565 102.575 641.444 L102.575 637.278 Q105.237 636.537 107.552 636.166 Q109.89 635.796 111.95 635.796 Q117.274 635.796 120.376 638.227 Q123.478 640.634 123.478 644.754 Q123.478 647.625 121.834 649.615 Q120.191 651.583 117.159 652.347 Z" fill="#000000" fill-rule="evenodd" fill-opacity="1" /><path clip-path="url(#clip8200)" d="M 0 0 M128.177 636.421 L150.399 636.421 L150.399 638.412 L137.853 670.981 L132.969 670.981 L144.774 640.356 L128.177 640.356 L128.177 636.421 Z" fill="#000000" fill-rule="evenodd" fill-opacity="1" /><path clip-path="url(#clip8200)" d="M 0 0 M155.515 636.421 L173.871 636.421 L173.871 640.356 L159.797 640.356 L159.797 648.828 Q160.816 648.481 161.834 648.319 Q162.853 648.134 163.871 648.134 Q169.658 648.134 173.038 651.305 Q176.417 654.476 176.417 659.893 Q176.417 665.472 172.945 668.574 Q169.473 671.652 163.154 671.652 Q160.978 671.652 158.709 671.282 Q156.464 670.912 154.056 670.171 L154.056 665.472 Q156.14 666.606 158.362 667.162 Q160.584 667.717 163.061 667.717 Q167.066 667.717 169.404 665.611 Q171.742 663.504 171.742 659.893 Q171.742 656.282 169.404 654.176 Q167.066 652.069 163.061 652.069 Q161.186 652.069 159.311 652.486 Q157.459 652.902 155.515 653.782 L155.515 636.421 Z" fill="#000000" fill-rule="evenodd" fill-opacity="1" /><path clip-path="url(#clip8200)" d="M 0 0 M68.6171 359.938 L84.9365 359.938 L84.9365 363.873 L62.9921 363.873 L62.9921 359.938 Q65.6541 357.184 70.2375 352.554 Q74.8439 347.901 76.0245 346.559 Q78.2698 344.035 79.1494 342.299 Q80.0522 340.54 80.0522 338.85 Q80.0522 336.096 78.1078 334.36 Q76.1865 332.623 73.0847 332.623 Q70.8856 332.623 68.4319 333.387 Q66.0014 334.151 63.2236 335.702 L63.2236 330.98 Q66.0477 329.846 68.5014 329.267 Q70.955 328.688 72.9921 328.688 Q78.3624 328.688 81.5568 331.373 Q84.7513 334.059 84.7513 338.549 Q84.7513 340.679 83.9411 342.6 Q83.1541 344.498 81.0476 347.091 Q80.4689 347.762 77.367 350.98 Q74.2652 354.174 68.6171 359.938 Z" fill="#000000" fill-rule="evenodd" fill-opacity="1" /><path clip-path="url(#clip8200)" d="M 0 0 M90.0059 357.994 L94.8901 357.994 L94.8901 363.873 L90.0059 363.873 L90.0059 357.994 Z" fill="#000000" fill-rule="evenodd" fill-opacity="1" /><path clip-path="url(#clip8200)" d="M 0 0 M112.807 333.387 L101.001 351.836 L112.807 351.836 L112.807 333.387 M111.58 329.313 L117.459 329.313 L117.459 351.836 L122.39 351.836 L122.39 355.725 L117.459 355.725 L117.459 363.873 L112.807 363.873 L112.807 355.725 L97.2049 355.725 L97.2049 351.211 L111.58 329.313 Z" fill="#000000" fill-rule="evenodd" fill-opacity="1" /><path clip-path="url(#clip8200)" d="M 0 0 M137.459 332.392 Q133.848 332.392 132.02 335.957 Q130.214 339.498 130.214 346.628 Q130.214 353.734 132.02 357.299 Q133.848 360.841 137.459 360.841 Q141.094 360.841 142.899 357.299 Q144.728 353.734 144.728 346.628 Q144.728 339.498 142.899 335.957 Q141.094 332.392 137.459 332.392 M137.459 328.688 Q143.269 328.688 146.325 333.295 Q149.404 337.878 149.404 346.628 Q149.404 355.355 146.325 359.961 Q143.269 364.545 137.459 364.545 Q131.649 364.545 128.57 359.961 Q125.515 355.355 125.515 346.628 Q125.515 337.878 128.57 333.295 Q131.649 328.688 137.459 328.688 Z" fill="#000000" fill-rule="evenodd" fill-opacity="1" /><path clip-path="url(#clip8200)" d="M 0 0 M164.473 332.392 Q160.862 332.392 159.033 335.957 Q157.228 339.498 157.228 346.628 Q157.228 353.734 159.033 357.299 Q160.862 360.841 164.473 360.841 Q168.107 360.841 169.913 357.299 Q171.742 353.734 171.742 346.628 Q171.742 339.498 169.913 335.957 Q168.107 332.392 164.473 332.392 M164.473 328.688 Q170.283 328.688 173.339 333.295 Q176.417 337.878 176.417 346.628 Q176.417 355.355 173.339 359.961 Q170.283 364.545 164.473 364.545 Q158.663 364.545 155.584 359.961 Q152.529 355.355 152.529 346.628 Q152.529 337.878 155.584 333.295 Q158.663 328.688 164.473 328.688 Z" fill="#000000" fill-rule="evenodd" fill-opacity="1" /><polyline clip-path="url(#clip8202)" style="stroke:#009af9; stroke-width:4; stroke-opacity:1; fill:none" points="
  2291.84,87.9763 1276.59,993.136 768.96,1144 261.333,1445.72 
  "/>
<path clip-path="url(#clip8200)" d="
M1989.74 251.724 L2280.76 251.724 L2280.76 130.764 L1989.74 130.764  Z
  " fill="#ffffff" fill-rule="evenodd" fill-opacity="1"/>
<polyline clip-path="url(#clip8200)" style="stroke:#000000; stroke-width:4; stroke-opacity:1; fill:none" points="
  1989.74,251.724 2280.76,251.724 2280.76,130.764 1989.74,130.764 1989.74,251.724 
  "/>
<polyline clip-path="url(#clip8200)" style="stroke:#009af9; stroke-width:4; stroke-opacity:1; fill:none" points="
  2013.74,191.244 2157.74,191.244 
  "/>
<path clip-path="url(#clip8200)" d="M 0 0 M2195.58 210.931 Q2193.77 215.561 2192.06 216.973 Q2190.35 218.385 2187.48 218.385 L2184.08 218.385 L2184.08 214.82 L2186.58 214.82 Q2188.33 214.82 2189.31 213.987 Q2190.28 213.154 2191.46 210.052 L2192.22 208.107 L2181.74 182.598 L2186.25 182.598 L2194.35 202.876 L2202.46 182.598 L2206.97 182.598 L2195.58 210.931 Z" fill="#000000" fill-rule="evenodd" fill-opacity="1" /><path clip-path="url(#clip8200)" d="M 0 0 M2212.85 204.589 L2220.49 204.589 L2220.49 178.223 L2212.18 179.89 L2212.18 175.631 L2220.44 173.964 L2225.12 173.964 L2225.12 204.589 L2232.76 204.589 L2232.76 208.524 L2212.85 208.524 L2212.85 204.589 Z" fill="#000000" fill-rule="evenodd" fill-opacity="1" /></svg>
