<?xml version="1.0" encoding="utf-8"?>
<svg xmlns="http://www.w3.org/2000/svg" xmlns:xlink="http://www.w3.org/1999/xlink" width="4800" height="3200" viewBox="0 0 19200 12800">
<defs>
  <clipPath id="clip6500">
    <rect x="0" y="0" width="19200" height="12800"/>
  </clipPath>
</defs>
<path clip-path="url(#clip6500)" d="
M0 12800 L19200 12800 L19200 0 L0 0  Z
  " fill="#ffffff" fill-rule="evenodd" fill-opacity="1"/>
<defs>
  <clipPath id="clip6501">
    <rect x="3840" y="0" width="13441" height="12800"/>
  </clipPath>
</defs>
<path clip-path="url(#clip6500)" d="
M1893.37 11385.4 L18822 11385.4 L18822 987.777 L1893.37 987.777  Z
  " fill="#ffffff" fill-rule="evenodd" fill-opacity="1"/>
<defs>
  <clipPath id="clip6502">
    <rect x="1893" y="987" width="16930" height="10399"/>
  </clipPath>
</defs>
<polyline clip-path="url(#clip6502)" style="stroke:#000000; stroke-width:16; stroke-opacity:0.1; fill:none" points="
  2372.49,11385.4 2372.49,987.777 
  "/>
<polyline clip-path="url(#clip6502)" style="stroke:#000000; stroke-width:16; stroke-opacity:0.1; fill:none" points="
  7695.97,11385.4 7695.97,987.777 
  "/>
<polyline clip-path="url(#clip6502)" style="stroke:#000000; stroke-width:16; stroke-opacity:0.1; fill:none" points="
  13019.5,11385.4 13019.5,987.777 
  "/>
<polyline clip-path="url(#clip6502)" style="stroke:#000000; stroke-width:16; stroke-opacity:0.1; fill:none" points="
  18342.9,11385.4 18342.9,987.777 
  "/>
<polyline clip-path="url(#clip6502)" style="stroke:#000000; stroke-width:16; stroke-opacity:0.1; fill:none" points="
  1893.37,11131 18822,11131 
  "/>
<polyline clip-path="url(#clip6502)" style="stroke:#000000; stroke-width:16; stroke-opacity:0.1; fill:none" points="
  1893.37,8640.75 18822,8640.75 
  "/>
<polyline clip-path="url(#clip6502)" style="stroke:#000000; stroke-width:16; stroke-opacity:0.1; fill:none" points="
  1893.37,6150.5 18822,6150.5 
  "/>
<polyline clip-path="url(#clip6502)" style="stroke:#000000; stroke-width:16; stroke-opacity:0.1; fill:none" points="
  1893.37,3660.24 18822,3660.24 
  "/>
<polyline clip-path="url(#clip6502)" style="stroke:#000000; stroke-width:16; stroke-opacity:0.1; fill:none" points="
  1893.37,1169.99 18822,1169.99 
  "/>
<polyline clip-path="url(#clip6500)" style="stroke:#000000; stroke-width:32; stroke-opacity:1; fill:none" points="
  1893.37,11385.4 18822,11385.4 
  "/>
<polyline clip-path="url(#clip6500)" style="stroke:#000000; stroke-width:32; stroke-opacity:1; fill:none" points="
  1893.37,11385.4 1893.37,987.777 
  "/>
<polyline clip-path="url(#clip6500)" style="stroke:#000000; stroke-width:32; stroke-opacity:1; fill:none" points="
  2372.49,11385.4 2372.49,11260.7 
  "/>
<polyline clip-path="url(#clip6500)" style="stroke:#000000; stroke-width:32; stroke-opacity:1; fill:none" points="
  7695.97,11385.4 7695.97,11260.7 
  "/>
<polyline clip-path="url(#clip6500)" style="stroke:#000000; stroke-width:32; stroke-opacity:1; fill:none" points="
  13019.5,11385.4 13019.5,11260.7 
  "/>
<polyline clip-path="url(#clip6500)" style="stroke:#000000; stroke-width:32; stroke-opacity:1; fill:none" points="
  18342.9,11385.4 18342.9,11260.7 
  "/>
<polyline clip-path="url(#clip6500)" style="stroke:#000000; stroke-width:32; stroke-opacity:1; fill:none" points="
  1893.37,11131 2096.52,11131 
  "/>
<polyline clip-path="url(#clip6500)" style="stroke:#000000; stroke-width:32; stroke-opacity:1; fill:none" points="
  1893.37,8640.75 2096.52,8640.75 
  "/>
<polyline clip-path="url(#clip6500)" style="stroke:#000000; stroke-width:32; stroke-opacity:1; fill:none" points="
  1893.37,6150.5 2096.52,6150.5 
  "/>
<polyline clip-path="url(#clip6500)" style="stroke:#000000; stroke-width:32; stroke-opacity:1; fill:none" points="
  1893.37,3660.24 2096.52,3660.24 
  "/>
<polyline clip-path="url(#clip6500)" style="stroke:#000000; stroke-width:32; stroke-opacity:1; fill:none" points="
  1893.37,1169.99 2096.52,1169.99 
  "/>
<path clip-path="url(#clip6500)" d="M 0 0 M2116.56 11561.4 Q2087.67 11561.4 2073.04 11589.9 Q2058.6 11618.2 2058.6 11675.3 Q2058.6 11732.1 2073.04 11760.6 Q2087.67 11789 2116.56 11789 Q2145.64 11789 2160.08 11760.6 Q2174.71 11732.1 2174.71 11675.3 Q2174.71 11618.2 2160.08 11589.9 Q2145.64 11561.4 2116.56 11561.4 M2116.56 11531.7 Q2163.04 11531.7 2187.49 11568.6 Q2212.12 11605.3 2212.12 11675.3 Q2212.12 11745.1 2187.49 11781.9 Q2163.04 11818.6 2116.56 11818.6 Q2070.08 11818.6 2045.45 11781.9 Q2021.01 11745.1 2021.01 11675.3 Q2021.01 11605.3 2045.45 11568.6 Q2070.08 11531.7 2116.56 11531.7 Z" fill="#000000" fill-rule="evenodd" fill-opacity="1" /><path clip-path="url(#clip6500)" d="M 0 0 M2252.67 11766.2 L2291.75 11766.2 L2291.75 11813.2 L2252.67 11813.2 L2252.67 11766.2 Z" fill="#000000" fill-rule="evenodd" fill-opacity="1" /><path clip-path="url(#clip6500)" d="M 0 0 M2412.3 11561.4 Q2383.41 11561.4 2368.78 11589.9 Q2354.34 11618.2 2354.34 11675.3 Q2354.34 11732.1 2368.78 11760.6 Q2383.41 11789 2412.3 11789 Q2441.38 11789 2455.82 11760.6 Q2470.45 11732.1 2470.45 11675.3 Q2470.45 11618.2 2455.82 11589.9 Q2441.38 11561.4 2412.3 11561.4 M2412.3 11531.7 Q2458.78 11531.7 2483.23 11568.6 Q2507.86 11605.3 2507.86 11675.3 Q2507.86 11745.1 2483.23 11781.9 Q2458.78 11818.6 2412.3 11818.6 Q2365.82 11818.6 2341.19 11781.9 Q2316.75 11745.1 2316.75 11675.3 Q2316.75 11605.3 2341.19 11568.6 Q2365.82 11531.7 2412.3 11531.7 Z" fill="#000000" fill-rule="evenodd" fill-opacity="1" /><path clip-path="url(#clip6500)" d="M 0 0 M2628.41 11561.4 Q2599.52 11561.4 2584.89 11589.9 Q2570.45 11618.2 2570.45 11675.3 Q2570.45 11732.1 2584.89 11760.6 Q2599.52 11789 2628.41 11789 Q2657.49 11789 2671.93 11760.6 Q2686.56 11732.1 2686.56 11675.3 Q2686.56 11618.2 2671.93 11589.9 Q2657.49 11561.4 2628.41 11561.4 M2628.41 11531.7 Q2674.89 11531.7 2699.34 11568.6 Q2723.97 11605.3 2723.97 11675.3 Q2723.97 11745.1 2699.34 11781.9 Q2674.89 11818.6 2628.41 11818.6 Q2581.93 11818.6 2557.3 11781.9 Q2532.86 11745.1 2532.86 11675.3 Q2532.86 11605.3 2557.3 11568.6 Q2581.93 11531.7 2628.41 11531.7 Z" fill="#000000" fill-rule="evenodd" fill-opacity="1" /><path clip-path="url(#clip6500)" d="M 0 0 M7444.03 11561.4 Q7415.14 11561.4 7400.51 11589.9 Q7386.06 11618.2 7386.06 11675.3 Q7386.06 11732.1 7400.51 11760.6 Q7415.14 11789 7444.03 11789 Q7473.1 11789 7487.54 11760.6 Q7502.17 11732.1 7502.17 11675.3 Q7502.17 11618.2 7487.54 11589.9 Q7473.1 11561.4 7444.03 11561.4 M7444.03 11531.7 Q7490.51 11531.7 7514.95 11568.6 Q7539.58 11605.3 7539.58 11675.3 Q7539.58 11745.1 7514.95 11781.9 Q7490.51 11818.6 7444.03 11818.6 Q7397.55 11818.6 7372.92 11781.9 Q7348.47 11745.1 7348.47 11675.3 Q7348.47 11605.3 7372.92 11568.6 Q7397.55 11531.7 7444.03 11531.7 Z" fill="#000000" fill-rule="evenodd" fill-opacity="1" /><path clip-path="url(#clip6500)" d="M 0 0 M7580.14 11766.2 L7619.21 11766.2 L7619.21 11813.2 L7580.14 11813.2 L7580.14 11766.2 Z" fill="#000000" fill-rule="evenodd" fill-opacity="1" /><path clip-path="url(#clip6500)" d="M 0 0 M7739.77 11561.4 Q7710.88 11561.4 7696.25 11589.9 Q7681.8 11618.2 7681.8 11675.3 Q7681.8 11732.1 7696.25 11760.6 Q7710.88 11789 7739.77 11789 Q7768.84 11789 7783.28 11760.6 Q7797.91 11732.1 7797.91 11675.3 Q7797.91 11618.2 7783.28 11589.9 Q7768.84 11561.4 7739.77 11561.4 M7739.77 11531.7 Q7786.25 11531.7 7810.69 11568.6 Q7835.32 11605.3 7835.32 11675.3 Q7835.32 11745.1 7810.69 11781.9 Q7786.25 11818.6 7739.77 11818.6 Q7693.28 11818.6 7668.65 11781.9 Q7644.21 11745.1 7644.21 11675.3 Q7644.21 11605.3 7668.65 11568.6 Q7693.28 11531.7 7739.77 11531.7 Z" fill="#000000" fill-rule="evenodd" fill-opacity="1" /><path clip-path="url(#clip6500)" d="M 0 0 M7876.25 11536.7 L8023.1 11536.7 L8023.1 11568.2 L7910.51 11568.2 L7910.51 11636 Q7918.65 11633.2 7926.8 11631.9 Q7934.95 11630.4 7943.1 11630.4 Q7989.39 11630.4 8016.43 11655.8 Q8043.47 11681.2 8043.47 11724.5 Q8043.47 11769.1 8015.69 11794 Q7987.91 11818.6 7937.36 11818.6 Q7919.95 11818.6 7901.8 11815.6 Q7883.84 11812.7 7864.58 11806.7 L7864.58 11769.1 Q7881.25 11778.2 7899.02 11782.7 Q7916.8 11787.1 7936.62 11787.1 Q7968.65 11787.1 7987.36 11770.3 Q8006.06 11753.4 8006.06 11724.5 Q8006.06 11695.6 7987.36 11678.8 Q7968.65 11661.9 7936.62 11661.9 Q7921.62 11661.9 7906.62 11665.3 Q7891.8 11668.6 7876.25 11675.6 L7876.25 11536.7 Z" fill="#000000" fill-rule="evenodd" fill-opacity="1" /><path clip-path="url(#clip6500)" d="M 0 0 M12768.4 11561.4 Q12739.5 11561.4 12724.9 11589.9 Q12710.5 11618.2 12710.5 11675.3 Q12710.5 11732.1 12724.9 11760.6 Q12739.5 11789 12768.4 11789 Q12797.5 11789 12812 11760.6 Q12826.6 11732.1 12826.6 11675.3 Q12826.6 11618.2 12812 11589.9 Q12797.5 11561.4 12768.4 11561.4 M12768.4 11531.7 Q12814.9 11531.7 12839.4 11568.6 Q12864 11605.3 12864 11675.3 Q12864 11745.1 12839.4 11781.9 Q12814.9 11818.6 12768.4 11818.6 Q12722 11818.6 12697.3 11781.9 Q12672.9 11745.1 12672.9 11675.3 Q12672.9 11605.3 12697.3 11568.6 Q12722 11531.7 12768.4 11531.7 Z" fill="#000000" fill-rule="evenodd" fill-opacity="1" /><path clip-path="url(#clip6500)" d="M 0 0 M12904.5 11766.2 L12943.6 11766.2 L12943.6 11813.2 L12904.5 11813.2 L12904.5 11766.2 Z" fill="#000000" fill-rule="evenodd" fill-opacity="1" /><path clip-path="url(#clip6500)" d="M 0 0 M12990.7 11781.7 L13051.8 11781.7 L13051.8 11570.8 L12985.3 11584.1 L12985.3 11550.1 L13051.4 11536.7 L13088.8 11536.7 L13088.8 11781.7 L13149.9 11781.7 L13149.9 11813.2 L12990.7 11813.2 L12990.7 11781.7 Z" fill="#000000" fill-rule="evenodd" fill-opacity="1" /><path clip-path="url(#clip6500)" d="M 0 0 M13270.5 11561.4 Q13241.6 11561.4 13227 11589.9 Q13212.5 11618.2 13212.5 11675.3 Q13212.5 11732.1 13227 11760.6 Q13241.6 11789 13270.5 11789 Q13299.5 11789 13314 11760.6 Q13328.6 11732.1 13328.6 11675.3 Q13328.6 11618.2 13314 11589.9 Q13299.5 11561.4 13270.5 11561.4 M13270.5 11531.7 Q13317 11531.7 13341.4 11568.6 Q13366 11605.3 13366 11675.3 Q13366 11745.1 13341.4 11781.9 Q13317 11818.6 13270.5 11818.6 Q13224 11818.6 13199.4 11781.9 Q13174.9 11745.1 13174.9 11675.3 Q13174.9 11605.3 13199.4 11568.6 Q13224 11531.7 13270.5 11531.7 Z" fill="#000000" fill-rule="evenodd" fill-opacity="1" /><path clip-path="url(#clip6500)" d="M 0 0 M18095.9 11561.4 Q18067 11561.4 18052.4 11589.9 Q18037.9 11618.2 18037.9 11675.3 Q18037.9 11732.1 18052.4 11760.6 Q18067 11789 18095.9 11789 Q18125 11789 18139.4 11760.6 Q18154 11732.1 18154 11675.3 Q18154 11618.2 18139.4 11589.9 Q18125 11561.4 18095.9 11561.4 M18095.9 11531.7 Q18142.4 11531.7 18166.8 11568.6 Q18191.5 11605.3 18191.5 11675.3 Q18191.5 11745.1 18166.8 11781.9 Q18142.4 11818.6 18095.9 11818.6 Q18049.4 11818.6 18024.8 11781.9 Q18000.3 11745.1 18000.3 11675.3 Q18000.3 11605.3 18024.8 11568.6 Q18049.4 11531.7 18095.9 11531.7 Z" fill="#000000" fill-rule="evenodd" fill-opacity="1" /><path clip-path="url(#clip6500)" d="M 0 0 M18232 11766.2 L18271.1 11766.2 L18271.1 11813.2 L18232 11813.2 L18232 11766.2 Z" fill="#000000" fill-rule="evenodd" fill-opacity="1" /><path clip-path="url(#clip6500)" d="M 0 0 M18318.1 11781.7 L18379.2 11781.7 L18379.2 11570.8 L18312.7 11584.1 L18312.7 11550.1 L18378.9 11536.7 L18416.3 11536.7 L18416.3 11781.7 L18477.4 11781.7 L18477.4 11813.2 L18318.1 11813.2 L18318.1 11781.7 Z" fill="#000000" fill-rule="evenodd" fill-opacity="1" /><path clip-path="url(#clip6500)" d="M 0 0 M18518.3 11536.7 L18665.2 11536.7 L18665.2 11568.2 L18552.6 11568.2 L18552.6 11636 Q18560.7 11633.2 18568.9 11631.9 Q18577 11630.4 18585.2 11630.4 Q18631.5 11630.4 18658.5 11655.8 Q18685.5 11681.2 18685.5 11724.5 Q18685.5 11769.1 18657.7 11794 Q18630 11818.6 18579.4 11818.6 Q18562 11818.6 18543.9 11815.6 Q18525.9 11812.7 18506.6 11806.7 L18506.6 11769.1 Q18523.3 11778.2 18541.1 11782.7 Q18558.9 11787.1 18578.7 11787.1 Q18610.7 11787.1 18629.4 11770.3 Q18648.1 11753.4 18648.1 11724.5 Q18648.1 11695.6 18629.4 11678.8 Q18610.7 11661.9 18578.7 11661.9 Q18563.7 11661.9 18548.7 11665.3 Q18533.9 11668.6 18518.3 11675.6 L18518.3 11536.7 Z" fill="#000000" fill-rule="evenodd" fill-opacity="1" /><path clip-path="url(#clip6500)" d="M 0 0 M1079.71 11237.8 L1210.27 11237.8 L1210.27 11269.2 L1034.71 11269.2 L1034.71 11237.8 Q1056.01 11215.7 1092.67 11178.7 Q1129.53 11141.5 1138.97 11130.7 Q1156.93 11110.5 1163.97 11096.7 Q1171.19 11082.6 1171.19 11069.1 Q1171.19 11047 1155.64 11033.1 Q1140.27 11019.3 1115.45 11019.3 Q1097.86 11019.3 1078.23 11025.4 Q1058.78 11031.5 1036.56 11043.9 L1036.56 11006.1 Q1059.16 10997 1078.78 10992.4 Q1098.41 10987.8 1114.71 10987.8 Q1157.67 10987.8 1183.23 11009.3 Q1208.78 11030.7 1208.78 11066.7 Q1208.78 11083.7 1202.3 11099.1 Q1196.01 11114.3 1179.15 11135 Q1174.52 11140.4 1149.71 11166.1 Q1124.9 11191.7 1079.71 11237.8 Z" fill="#000000" fill-rule="evenodd" fill-opacity="1" /><path clip-path="url(#clip6500)" d="M 0 0 M1250.82 11222.2 L1289.89 11222.2 L1289.89 11269.2 L1250.82 11269.2 L1250.82 11222.2 Z" fill="#000000" fill-rule="evenodd" fill-opacity="1" /><path clip-path="url(#clip6500)" d="M 0 0 M1362.67 11237.8 L1493.23 11237.8 L1493.23 11269.2 L1317.67 11269.2 L1317.67 11237.8 Q1338.97 11215.7 1375.63 11178.7 Q1412.49 11141.5 1421.93 11130.7 Q1439.89 11110.5 1446.93 11096.7 Q1454.15 11082.6 1454.15 11069.1 Q1454.15 11047 1438.6 11033.1 Q1423.23 11019.3 1398.41 11019.3 Q1380.82 11019.3 1361.19 11025.4 Q1341.75 11031.5 1319.52 11043.9 L1319.52 11006.1 Q1342.12 10997 1361.75 10992.4 Q1381.38 10987.8 1397.67 10987.8 Q1440.63 10987.8 1466.19 11009.3 Q1491.75 11030.7 1491.75 11066.7 Q1491.75 11083.7 1485.26 11099.1 Q1478.97 11114.3 1462.12 11135 Q1457.49 11140.4 1432.67 11166.1 Q1407.86 11191.7 1362.67 11237.8 Z" fill="#000000" fill-rule="evenodd" fill-opacity="1" /><path clip-path="url(#clip6500)" d="M 0 0 M1534.15 10992.8 L1681 10992.8 L1681 11024.3 L1568.41 11024.3 L1568.41 11092 Q1576.56 11089.3 1584.71 11088 Q1592.86 11086.5 1601 11086.5 Q1647.3 11086.5 1674.34 11111.8 Q1701.37 11137.2 1701.37 11180.5 Q1701.37 11225.2 1673.6 11250 Q1645.82 11274.6 1595.26 11274.6 Q1577.86 11274.6 1559.71 11271.7 Q1541.75 11268.7 1522.49 11262.8 L1522.49 11225.2 Q1539.15 11234.2 1556.93 11238.7 Q1574.71 11243.1 1594.52 11243.1 Q1626.56 11243.1 1645.26 11226.3 Q1663.97 11209.4 1663.97 11180.5 Q1663.97 11151.7 1645.26 11134.8 Q1626.56 11118 1594.52 11118 Q1579.52 11118 1564.52 11121.3 Q1549.71 11124.6 1534.15 11131.7 L1534.15 10992.8 Z" fill="#000000" fill-rule="evenodd" fill-opacity="1" /><path clip-path="url(#clip6500)" d="M 0 0 M1064.16 8747.51 L1194.71 8747.51 L1194.71 8778.99 L1019.16 8778.99 L1019.16 8747.51 Q1040.45 8725.48 1077.12 8688.44 Q1113.97 8651.22 1123.41 8640.48 Q1141.38 8620.29 1148.41 8606.4 Q1155.64 8592.33 1155.64 8578.81 Q1155.64 8556.77 1140.08 8542.88 Q1124.71 8529 1099.9 8529 Q1082.3 8529 1062.67 8535.11 Q1043.23 8541.22 1021.01 8553.63 L1021.01 8515.85 Q1043.6 8506.77 1063.23 8502.14 Q1082.86 8497.51 1099.15 8497.51 Q1142.12 8497.51 1167.67 8519 Q1193.23 8540.48 1193.23 8576.4 Q1193.23 8593.44 1186.75 8608.81 Q1180.45 8624 1163.6 8644.74 Q1158.97 8650.11 1134.15 8675.85 Q1109.34 8701.4 1064.16 8747.51 Z" fill="#000000" fill-rule="evenodd" fill-opacity="1" /><path clip-path="url(#clip6500)" d="M 0 0 M1235.27 8731.96 L1274.34 8731.96 L1274.34 8778.99 L1235.27 8778.99 L1235.27 8731.96 Z" fill="#000000" fill-rule="evenodd" fill-opacity="1" /><path clip-path="url(#clip6500)" d="M 0 0 M1428.23 8629.92 Q1455.08 8635.66 1470.08 8653.81 Q1485.26 8671.96 1485.26 8698.62 Q1485.26 8739.55 1457.12 8761.96 Q1428.97 8784.36 1377.12 8784.36 Q1359.71 8784.36 1341.19 8780.85 Q1322.86 8777.51 1303.23 8770.66 L1303.23 8734.55 Q1318.78 8743.62 1337.3 8748.25 Q1355.82 8752.88 1376.01 8752.88 Q1411.19 8752.88 1429.52 8738.99 Q1448.04 8725.11 1448.04 8698.62 Q1448.04 8674.18 1430.82 8660.48 Q1413.78 8646.59 1383.23 8646.59 L1351.01 8646.59 L1351.01 8615.85 L1384.71 8615.85 Q1412.3 8615.85 1426.93 8604.92 Q1441.56 8593.81 1441.56 8573.07 Q1441.56 8551.77 1426.38 8540.48 Q1411.38 8529 1383.23 8529 Q1367.86 8529 1350.26 8532.33 Q1332.67 8535.66 1311.56 8542.7 L1311.56 8509.37 Q1332.86 8503.44 1351.38 8500.48 Q1370.08 8497.51 1386.56 8497.51 Q1429.15 8497.51 1453.97 8516.96 Q1478.78 8536.22 1478.78 8569.18 Q1478.78 8592.14 1465.63 8608.07 Q1452.49 8623.81 1428.23 8629.92 Z" fill="#000000" fill-rule="evenodd" fill-opacity="1" /><path clip-path="url(#clip6500)" d="M 0 0 M1605.82 8527.14 Q1576.93 8527.14 1562.3 8555.66 Q1547.86 8584 1547.86 8641.03 Q1547.86 8697.88 1562.3 8726.4 Q1576.93 8754.74 1605.82 8754.74 Q1634.89 8754.74 1649.34 8726.4 Q1663.97 8697.88 1663.97 8641.03 Q1663.97 8584 1649.34 8555.66 Q1634.89 8527.14 1605.82 8527.14 M1605.82 8497.51 Q1652.3 8497.51 1676.74 8534.37 Q1701.37 8571.03 1701.37 8641.03 Q1701.37 8710.85 1676.74 8747.7 Q1652.3 8784.36 1605.82 8784.36 Q1559.34 8784.36 1534.71 8747.7 Q1510.26 8710.85 1510.26 8641.03 Q1510.26 8571.03 1534.71 8534.37 Q1559.34 8497.51 1605.82 8497.51 Z" fill="#000000" fill-rule="evenodd" fill-opacity="1" /><path clip-path="url(#clip6500)" d="M 0 0 M1072.12 6257.26 L1202.67 6257.26 L1202.67 6288.74 L1027.12 6288.74 L1027.12 6257.26 Q1048.41 6235.22 1085.08 6198.18 Q1121.93 6160.96 1131.38 6150.22 Q1149.34 6130.04 1156.38 6116.15 Q1163.6 6102.07 1163.6 6088.56 Q1163.6 6066.52 1148.04 6052.63 Q1132.67 6038.74 1107.86 6038.74 Q1090.27 6038.74 1070.64 6044.85 Q1051.19 6050.96 1028.97 6063.37 L1028.97 6025.59 Q1051.56 6016.52 1071.19 6011.89 Q1090.82 6007.26 1107.12 6007.26 Q1150.08 6007.26 1175.64 6028.74 Q1201.19 6050.22 1201.19 6086.15 Q1201.19 6103.18 1194.71 6118.55 Q1188.41 6133.74 1171.56 6154.48 Q1166.93 6159.85 1142.12 6185.59 Q1117.3 6211.15 1072.12 6257.26 Z" fill="#000000" fill-rule="evenodd" fill-opacity="1" /><path clip-path="url(#clip6500)" d="M 0 0 M1243.23 6241.7 L1282.3 6241.7 L1282.3 6288.74 L1243.23 6288.74 L1243.23 6241.7 Z" fill="#000000" fill-rule="evenodd" fill-opacity="1" /><path clip-path="url(#clip6500)" d="M 0 0 M1436.19 6139.67 Q1463.04 6145.41 1478.04 6163.55 Q1493.23 6181.7 1493.23 6208.37 Q1493.23 6249.29 1465.08 6271.7 Q1436.93 6294.11 1385.08 6294.11 Q1367.67 6294.11 1349.15 6290.59 Q1330.82 6287.26 1311.19 6280.41 L1311.19 6244.29 Q1326.75 6253.37 1345.26 6258 Q1363.78 6262.63 1383.97 6262.63 Q1419.15 6262.63 1437.49 6248.74 Q1456 6234.85 1456 6208.37 Q1456 6183.92 1438.78 6170.22 Q1421.75 6156.33 1391.19 6156.33 L1358.97 6156.33 L1358.97 6125.59 L1392.67 6125.59 Q1420.26 6125.59 1434.89 6114.67 Q1449.52 6103.55 1449.52 6082.81 Q1449.52 6061.52 1434.34 6050.22 Q1419.34 6038.74 1391.19 6038.74 Q1375.82 6038.74 1358.23 6042.07 Q1340.64 6045.41 1319.52 6052.44 L1319.52 6019.11 Q1340.82 6013.19 1359.34 6010.22 Q1378.04 6007.26 1394.52 6007.26 Q1437.12 6007.26 1461.93 6026.7 Q1486.75 6045.96 1486.75 6078.93 Q1486.75 6101.89 1473.6 6117.81 Q1460.45 6133.55 1436.19 6139.67 Z" fill="#000000" fill-rule="evenodd" fill-opacity="1" /><path clip-path="url(#clip6500)" d="M 0 0 M1534.15 6012.26 L1681 6012.26 L1681 6043.74 L1568.41 6043.74 L1568.41 6111.52 Q1576.56 6108.74 1584.71 6107.44 Q1592.86 6105.96 1601 6105.96 Q1647.3 6105.96 1674.34 6131.33 Q1701.37 6156.7 1701.37 6200.04 Q1701.37 6244.67 1673.6 6269.48 Q1645.82 6294.11 1595.26 6294.11 Q1577.86 6294.11 1559.71 6291.15 Q1541.75 6288.18 1522.49 6282.26 L1522.49 6244.67 Q1539.15 6253.74 1556.93 6258.18 Q1574.71 6262.63 1594.52 6262.63 Q1626.56 6262.63 1645.26 6245.78 Q1663.97 6228.92 1663.97 6200.04 Q1663.97 6171.15 1645.26 6154.3 Q1626.56 6137.44 1594.52 6137.44 Q1579.52 6137.44 1564.52 6140.78 Q1549.71 6144.11 1534.15 6151.15 L1534.15 6012.26 Z" fill="#000000" fill-rule="evenodd" fill-opacity="1" /><path clip-path="url(#clip6500)" d="M 0 0 M1055.08 3767 L1185.64 3767 L1185.64 3798.48 L1010.08 3798.48 L1010.08 3767 Q1031.38 3744.97 1068.04 3707.93 Q1104.9 3670.71 1114.34 3659.97 Q1132.3 3639.78 1139.34 3625.89 Q1146.56 3611.82 1146.56 3598.3 Q1146.56 3576.26 1131.01 3562.37 Q1115.64 3548.49 1090.82 3548.49 Q1073.23 3548.49 1053.6 3554.6 Q1034.16 3560.71 1011.93 3573.11 L1011.93 3535.34 Q1034.53 3526.26 1054.16 3521.63 Q1073.78 3517 1090.08 3517 Q1133.04 3517 1158.6 3538.49 Q1184.15 3559.97 1184.15 3595.89 Q1184.15 3612.93 1177.67 3628.3 Q1171.38 3643.48 1154.52 3664.23 Q1149.9 3669.6 1125.08 3695.34 Q1100.27 3720.89 1055.08 3767 Z" fill="#000000" fill-rule="evenodd" fill-opacity="1" /><path clip-path="url(#clip6500)" d="M 0 0 M1226.19 3751.45 L1265.27 3751.45 L1265.27 3798.48 L1226.19 3798.48 L1226.19 3751.45 Z" fill="#000000" fill-rule="evenodd" fill-opacity="1" /><path clip-path="url(#clip6500)" d="M 0 0 M1408.6 3554.6 L1314.15 3702.19 L1408.6 3702.19 L1408.6 3554.6 M1398.78 3522 L1445.82 3522 L1445.82 3702.19 L1485.26 3702.19 L1485.26 3733.3 L1445.82 3733.3 L1445.82 3798.48 L1408.6 3798.48 L1408.6 3733.3 L1283.78 3733.3 L1283.78 3697.19 L1398.78 3522 Z" fill="#000000" fill-rule="evenodd" fill-opacity="1" /><path clip-path="url(#clip6500)" d="M 0 0 M1605.82 3546.63 Q1576.93 3546.63 1562.3 3575.15 Q1547.86 3603.49 1547.86 3660.52 Q1547.86 3717.37 1562.3 3745.89 Q1576.93 3774.22 1605.82 3774.22 Q1634.89 3774.22 1649.34 3745.89 Q1663.97 3717.37 1663.97 3660.52 Q1663.97 3603.49 1649.34 3575.15 Q1634.89 3546.63 1605.82 3546.63 M1605.82 3517 Q1652.3 3517 1676.74 3553.86 Q1701.37 3590.52 1701.37 3660.52 Q1701.37 3730.34 1676.74 3767.19 Q1652.3 3803.85 1605.82 3803.85 Q1559.34 3803.85 1534.71 3767.19 Q1510.26 3730.34 1510.26 3660.52 Q1510.26 3590.52 1534.71 3553.86 Q1559.34 3517 1605.82 3517 Z" fill="#000000" fill-rule="evenodd" fill-opacity="1" /><path clip-path="url(#clip6500)" d="M 0 0 M1063.04 1276.75 L1193.6 1276.75 L1193.6 1308.23 L1018.04 1308.23 L1018.04 1276.75 Q1039.34 1254.71 1076.01 1217.67 Q1112.86 1180.45 1122.3 1169.71 Q1140.27 1149.53 1147.3 1135.64 Q1154.52 1121.56 1154.52 1108.04 Q1154.52 1086.01 1138.97 1072.12 Q1123.6 1058.23 1098.78 1058.23 Q1081.19 1058.23 1061.56 1064.34 Q1042.12 1070.45 1019.9 1082.86 L1019.9 1045.08 Q1042.49 1036.01 1062.12 1031.38 Q1081.75 1026.75 1098.04 1026.75 Q1141.01 1026.75 1166.56 1048.23 Q1192.12 1069.71 1192.12 1105.64 Q1192.12 1122.67 1185.64 1138.04 Q1179.34 1153.23 1162.49 1173.97 Q1157.86 1179.34 1133.04 1205.08 Q1108.23 1230.64 1063.04 1276.75 Z" fill="#000000" fill-rule="evenodd" fill-opacity="1" /><path clip-path="url(#clip6500)" d="M 0 0 M1234.15 1261.19 L1273.23 1261.19 L1273.23 1308.23 L1234.15 1308.23 L1234.15 1261.19 Z" fill="#000000" fill-rule="evenodd" fill-opacity="1" /><path clip-path="url(#clip6500)" d="M 0 0 M1416.56 1064.34 L1322.12 1211.93 L1416.56 1211.93 L1416.56 1064.34 M1406.75 1031.75 L1453.78 1031.75 L1453.78 1211.93 L1493.23 1211.93 L1493.23 1243.04 L1453.78 1243.04 L1453.78 1308.23 L1416.56 1308.23 L1416.56 1243.04 L1291.75 1243.04 L1291.75 1206.93 L1406.75 1031.75 Z" fill="#000000" fill-rule="evenodd" fill-opacity="1" /><path clip-path="url(#clip6500)" d="M 0 0 M1534.15 1031.75 L1681 1031.75 L1681 1063.23 L1568.41 1063.23 L1568.41 1131.01 Q1576.56 1128.23 1584.71 1126.93 Q1592.86 1125.45 1601 1125.45 Q1647.3 1125.45 1674.34 1150.82 Q1701.37 1176.19 1701.37 1219.53 Q1701.37 1264.16 1673.6 1288.97 Q1645.82 1313.6 1595.26 1313.6 Q1577.86 1313.6 1559.71 1310.64 Q1541.75 1307.67 1522.49 1301.75 L1522.49 1264.16 Q1539.15 1273.23 1556.93 1277.67 Q1574.71 1282.12 1594.52 1282.12 Q1626.56 1282.12 1645.26 1265.27 Q1663.97 1248.41 1663.97 1219.53 Q1663.97 1190.64 1645.26 1173.79 Q1626.56 1156.93 1594.52 1156.93 Q1579.52 1156.93 1564.52 1160.27 Q1549.71 1163.6 1534.15 1170.64 L1534.15 1031.75 Z" fill="#000000" fill-rule="evenodd" fill-opacity="1" /><path clip-path="url(#clip6500)" d="M 0 0 M7438.47 96.768 L7847.77 96.768 L7847.77 151.86 L7676.01 151.86 L7676.01 580.608 L7610.23 580.608 L7610.23 151.86 L7438.47 151.86 L7438.47 96.768 Z" fill="#000000" fill-rule="evenodd" fill-opacity="1" /><path clip-path="url(#clip6500)" d="M 0 0 M8236.33 134.036 L8236.33 203.064 Q8203.28 172.277 8165.69 157.045 Q8128.42 141.814 8086.29 141.814 Q8003.33 141.814 7959.25 192.693 Q7915.18 243.249 7915.18 339.174 Q7915.18 434.775 7959.25 485.655 Q8003.33 536.21 8086.29 536.21 Q8128.42 536.21 8165.69 520.979 Q8203.28 505.747 8236.33 474.96 L8236.33 543.34 Q8201.98 566.673 8163.42 578.339 Q8125.18 590.006 8082.4 590.006 Q7972.54 590.006 7909.34 522.923 Q7846.15 455.516 7846.15 339.174 Q7846.15 222.508 7909.34 155.425 Q7972.54 88.018 8082.4 88.018 Q8125.82 88.018 8164.06 99.6847 Q8202.63 111.027 8236.33 134.036 Z" fill="#000000" fill-rule="evenodd" fill-opacity="1" /><path clip-path="url(#clip6500)" d="M 0 0 M8442.12 76.9996 Q8398.69 151.536 8377.63 224.453 Q8356.56 297.369 8356.56 372.229 Q8356.56 447.09 8377.63 520.655 Q8399.02 593.895 8442.12 668.108 L8390.27 668.108 Q8341.66 591.951 8317.35 518.386 Q8293.37 444.822 8293.37 372.229 Q8293.37 299.961 8317.35 226.721 Q8341.33 153.481 8390.27 76.9996 L8442.12 76.9996 Z" fill="#000000" fill-rule="evenodd" fill-opacity="1" /><path clip-path="url(#clip6500)" d="M 0 0 M8507.26 96.768 L8572.72 96.768 L8572.72 525.516 L8808.32 525.516 L8808.32 580.608 L8507.26 580.608 L8507.26 96.768 Z" fill="#000000" fill-rule="evenodd" fill-opacity="1" /><path clip-path="url(#clip6500)" d="M 0 0 M8861.47 76.9996 L8913.32 76.9996 Q8961.93 153.481 8985.91 226.721 Q9010.22 299.961 9010.22 372.229 Q9010.22 444.822 8985.91 518.386 Q8961.93 591.951 8913.32 668.108 L8861.47 668.108 Q8904.57 593.895 8925.63 520.655 Q8947.02 447.09 8947.02 372.229 Q8947.02 297.369 8925.63 224.453 Q8904.57 151.536 8861.47 76.9996 Z" fill="#000000" fill-rule="evenodd" fill-opacity="1" /><path clip-path="url(#clip6500)" d="M 0 0 M9240.96 217.647 L9304.15 217.647 L9417.58 522.275 L9531 217.647 L9594.2 217.647 L9458.09 580.608 L9377.07 580.608 L9240.96 217.647 Z" fill="#000000" fill-rule="evenodd" fill-opacity="1" /><path clip-path="url(#clip6500)" d="M 0 0 M9888.13 228.341 L9888.13 284.73 Q9862.85 271.767 9835.63 265.286 Q9808.41 258.804 9779.24 258.804 Q9734.84 258.804 9712.48 272.415 Q9690.45 286.026 9690.45 313.248 Q9690.45 333.989 9706.33 345.98 Q9722.2 357.646 9770.17 368.341 L9790.58 372.878 Q9854.1 386.489 9880.68 411.442 Q9907.57 436.072 9907.57 480.47 Q9907.57 531.025 9867.39 560.516 Q9827.53 590.006 9757.53 590.006 Q9728.36 590.006 9696.6 584.173 Q9665.17 578.664 9630.17 567.321 L9630.17 505.747 Q9663.22 522.923 9695.31 531.673 Q9727.39 540.099 9758.82 540.099 Q9800.95 540.099 9823.64 525.84 Q9846.32 511.257 9846.32 485.007 Q9846.32 460.701 9829.8 447.738 Q9813.59 434.775 9758.18 422.785 L9737.44 417.924 Q9682.02 406.257 9657.39 382.276 Q9632.76 357.97 9632.76 315.841 Q9632.76 264.637 9669.06 236.767 Q9705.35 208.897 9772.11 208.897 Q9805.17 208.897 9834.33 213.758 Q9863.5 218.619 9888.13 228.341 Z" fill="#000000" fill-rule="evenodd" fill-opacity="1" /><path clip-path="url(#clip6500)" d="M 0 0 M10183.7 96.768 L10249.1 96.768 L10249.1 525.516 L10484.7 525.516 L10484.7 580.608 L10183.7 580.608 L10183.7 96.768 Z" fill="#000000" fill-rule="evenodd" fill-opacity="1" /><path clip-path="url(#clip6500)" d="M 0 0 M10794.6 96.768 L10970.5 277.276 L10905.4 277.276 L10762.8 149.268 L10620.2 277.276 L10555.1 277.276 L10731 96.768 L10794.6 96.768 Z" fill="#000000" fill-rule="evenodd" fill-opacity="1" /><path clip-path="url(#clip6500)" d="M 0 0 M11002.9 372.229 L11177.6 372.229 L11177.6 425.377 L11002.9 425.377 L11002.9 372.229 Z" fill="#000000" fill-rule="evenodd" fill-opacity="1" /><path clip-path="url(#clip6500)" d="M 0 0 M11259.9 525.516 L11366.9 525.516 L11366.9 156.397 L11250.5 179.731 L11250.5 120.101 L11366.2 96.768 L11431.7 96.768 L11431.7 525.516 L11538.6 525.516 L11538.6 580.608 L11259.9 580.608 L11259.9 525.516 Z" fill="#000000" fill-rule="evenodd" fill-opacity="1" /><path clip-path="url(#clip6500)" d="M 0 0 M11995.9 76.3514 L11995.9 125.935 L11938.9 125.935 Q11906.8 125.935 11894.1 138.897 Q11881.8 151.86 11881.8 185.564 L11881.8 217.647 L11980 217.647 L11980 263.989 L11881.8 263.989 L11881.8 580.608 L11821.9 580.608 L11821.9 263.989 L11764.8 263.989 L11764.8 217.647 L11821.9 217.647 L11821.9 192.369 Q11821.9 131.768 11850.1 104.222 Q11878.3 76.3514 11939.5 76.3514 L11995.9 76.3514 Z" fill="#000000" fill-rule="evenodd" fill-opacity="1" /><path clip-path="url(#clip6500)" d="M 0 0 M12199.1 259.452 Q12151.1 259.452 12123.3 297.045 Q12095.4 334.313 12095.4 399.452 Q12095.4 464.59 12122.9 502.182 Q12150.8 539.451 12199.1 539.451 Q12246.7 539.451 12274.6 501.858 Q12302.5 464.266 12302.5 399.452 Q12302.5 334.961 12274.6 297.369 Q12246.7 259.452 12199.1 259.452 M12199.1 208.897 Q12276.9 208.897 12321.3 259.452 Q12365.7 310.008 12365.7 399.452 Q12365.7 488.571 12321.3 539.451 Q12276.9 590.006 12199.1 590.006 Q12121 590.006 12076.6 539.451 Q12032.5 488.571 12032.5 399.452 Q12032.5 310.008 12076.6 259.452 Q12121 208.897 12199.1 208.897 Z" fill="#000000" fill-rule="evenodd" fill-opacity="1" /><path clip-path="url(#clip6500)" d="M 0 0 M12638.5 273.387 Q12628.5 267.554 12616.5 264.962 Q12604.8 262.045 12590.6 262.045 Q12540 262.045 12512.8 295.1 Q12485.9 327.832 12485.9 389.405 L12485.9 580.608 L12425.9 580.608 L12425.9 217.647 L12485.9 217.647 L12485.9 274.036 Q12504.7 240.98 12534.8 225.101 Q12565 208.897 12608.1 208.897 Q12614.2 208.897 12621.7 209.869 Q12629.1 210.517 12638.2 212.138 L12638.5 273.387 Z" fill="#000000" fill-rule="evenodd" fill-opacity="1" /><path clip-path="url(#clip6500)" d="M 0 0 M13277 134.036 L13277 203.064 Q13243.9 172.277 13206.3 157.045 Q13169 141.814 13126.9 141.814 Q13043.9 141.814 12999.9 192.693 Q12955.8 243.249 12955.8 339.174 Q12955.8 434.775 12999.9 485.655 Q13043.9 536.21 13126.9 536.21 Q13169 536.21 13206.3 520.979 Q13243.9 505.747 13277 474.96 L13277 543.34 Q13242.6 566.673 13204 578.339 Q13165.8 590.006 13123 590.006 Q13013.2 590.006 12950 522.923 Q12886.8 455.516 12886.8 339.174 Q12886.8 222.508 12950 155.425 Q13013.2 88.018 13123 88.018 Q13166.4 88.018 13204.7 99.6847 Q13243.3 111.027 13277 134.036 Z" fill="#000000" fill-rule="evenodd" fill-opacity="1" /><path clip-path="url(#clip6500)" d="M 0 0 M9825.41 12068.2 L9876.85 12068.2 L9876.85 12405.1 L10062 12405.1 L10062 12448.4 L9825.41 12448.4 L9825.41 12068.2 Z" fill="#000000" fill-rule="evenodd" fill-opacity="1" /><path clip-path="url(#clip6500)" d="M 0 0 M10305.4 12068.2 L10443.6 12210 L10392.5 12210 L10280.4 12109.4 L10168.4 12210 L10117.2 12210 L10255.5 12068.2 L10305.4 12068.2 Z" fill="#000000" fill-rule="evenodd" fill-opacity="1" /><path clip-path="url(#clip6500)" d="M 0 0 M10469.1 12284.6 L10606.4 12284.6 L10606.4 12326.4 L10469.1 12326.4 L10469.1 12284.6 Z" fill="#000000" fill-rule="evenodd" fill-opacity="1" /><path clip-path="url(#clip6500)" d="M 0 0 M10671 12405.1 L10755.1 12405.1 L10755.1 12115 L10663.6 12133.4 L10663.6 12086.5 L10754.5 12068.2 L10806 12068.2 L10806 12405.1 L10890 12405.1 L10890 12448.4 L10671 12448.4 L10671 12405.1 Z" fill="#000000" fill-rule="evenodd" fill-opacity="1" /><path clip-path="url(#clip6500)" d="M 0 0 M323.873 6500.06 L323.873 6178.46 L367.16 6178.46 L367.16 6313.41 L704.033 6313.41 L704.033 6365.1 L367.16 6365.1 L367.16 6500.06 L323.873 6500.06 Z" fill="#000000" fill-rule="evenodd" fill-opacity="1" /><path clip-path="url(#clip6500)" d="M 0 0 M353.156 5873.16 L407.391 5873.16 Q383.202 5899.13 371.234 5928.67 Q359.267 5957.95 359.267 5991.05 Q359.267 6056.24 399.243 6090.87 Q438.965 6125.5 514.335 6125.5 Q589.451 6125.5 629.427 6090.87 Q669.149 6056.24 669.149 5991.05 Q669.149 5957.95 657.182 5928.67 Q645.214 5899.13 621.024 5873.16 L674.751 5873.16 Q693.084 5900.15 702.251 5930.45 Q711.417 5960.5 711.417 5994.11 Q711.417 6080.43 658.709 6130.08 Q605.747 6179.73 514.335 6179.73 Q422.669 6179.73 369.961 6130.08 Q316.998 6080.43 316.998 5994.11 Q316.998 5959.99 326.165 5929.94 Q335.077 5899.64 353.156 5873.16 Z" fill="#000000" fill-rule="evenodd" fill-opacity="1" /><circle clip-path="url(#clip6502)" cx="15681.2" cy="2611.72" r="57" fill="#009af9" fill-rule="evenodd" fill-opacity="1" stroke="#000000" stroke-opacity="1" stroke-width="7.68"/>
<circle clip-path="url(#clip6502)" cx="11245" cy="6281.57" r="57" fill="#009af9" fill-rule="evenodd" fill-opacity="1" stroke="#000000" stroke-opacity="1" stroke-width="7.68"/>
<circle clip-path="url(#clip6502)" cx="9026.84" cy="6893.21" r="57" fill="#009af9" fill-rule="evenodd" fill-opacity="1" stroke="#000000" stroke-opacity="1" stroke-width="7.68"/>
<circle clip-path="url(#clip6502)" cx="6808.72" cy="8116.49" r="57" fill="#009af9" fill-rule="evenodd" fill-opacity="1" stroke="#000000" stroke-opacity="1" stroke-width="7.68"/>
<polyline clip-path="url(#clip6502)" style="stroke:#e26f46; stroke-width:32; stroke-opacity:1; fill:none" points="
  2372.49,11091.2 2528.45,10995.4 3970.57,10109.6 4837.22,9577.32 5569.96,9127.26 6365.93,8638.38 7099.74,8187.67 7886.46,7704.46 8797.95,7144.62 9607.98,6647.1 
  10318.3,6210.81 11092.7,5735.15 11871.8,5256.66 12733.1,4727.62 13552.7,4224.26 14404.8,3700.88 15122.1,3260.31 15997.8,2722.41 16821.1,2216.78 18140,1406.72 
  18342.9,1282.05 
  "/>
<path clip-path="url(#clip6500)" d="
M2469.37 3107.46 L5970.66 3107.46 L5970.66 1655.94 L2469.37 1655.94  Z
  " fill="#ffffff" fill-rule="evenodd" fill-opacity="1"/>
<polyline clip-path="url(#clip6500)" style="stroke:#000000; stroke-width:32; stroke-opacity:1; fill:none" points="
  2469.37,3107.46 5970.66,3107.46 5970.66,1655.94 2469.37,1655.94 2469.37,3107.46 
  "/>
<circle clip-path="url(#clip6500)" cx="3333.37" cy="2139.78" r="172" fill="#009af9" fill-rule="evenodd" fill-opacity="1" stroke="#000000" stroke-opacity="1" stroke-width="7.68"/>
<path clip-path="url(#clip6500)" d="M 0 0 M4005.37 2001.54 L4239.26 2001.54 L4239.26 2033.02 L4141.11 2033.02 L4141.11 2278.02 L4103.52 2278.02 L4103.52 2033.02 L4005.37 2033.02 L4005.37 2001.54 Z" fill="#000000" fill-rule="evenodd" fill-opacity="1" /><path clip-path="url(#clip6500)" d="M 0 0 M4359.82 2078.57 L4359.82 2110.43 Q4345.37 2102.46 4330.74 2098.57 Q4316.3 2094.5 4301.48 2094.5 Q4268.34 2094.5 4250 2115.61 Q4231.67 2136.54 4231.67 2174.5 Q4231.67 2212.46 4250 2233.57 Q4268.34 2254.5 4301.48 2254.5 Q4316.3 2254.5 4330.74 2250.61 Q4345.37 2246.54 4359.82 2238.57 L4359.82 2270.05 Q4345.56 2276.72 4330.19 2280.05 Q4315 2283.39 4297.78 2283.39 Q4250.93 2283.39 4223.34 2253.94 Q4195.74 2224.5 4195.74 2174.5 Q4195.74 2123.76 4223.52 2094.68 Q4251.48 2065.61 4300 2065.61 Q4315.74 2065.61 4330.74 2068.94 Q4345.74 2072.09 4359.82 2078.57 Z" fill="#000000" fill-rule="evenodd" fill-opacity="1" /><polyline clip-path="url(#clip6500)" style="stroke:#e26f46; stroke-width:32; stroke-opacity:1; fill:none" points="
  2661.37,2623.62 3813.37,2623.62 
  "/>
<path clip-path="url(#clip6500)" d="M 0 0 M4005.37 2485.38 L4164.26 2485.38 L4164.26 2516.86 L4042.78 2516.86 L4042.78 2598.34 L4152.41 2598.34 L4152.41 2629.82 L4042.78 2629.82 L4042.78 2761.86 L4005.37 2761.86 L4005.37 2485.38 Z" fill="#000000" fill-rule="evenodd" fill-opacity="1" /><path clip-path="url(#clip6500)" d="M 0 0 M4172.41 2554.45 L4206.48 2554.45 L4206.48 2761.86 L4172.41 2761.86 L4172.41 2554.45 M4172.41 2473.71 L4206.48 2473.71 L4206.48 2516.86 L4172.41 2516.86 L4172.41 2473.71 Z" fill="#000000" fill-rule="evenodd" fill-opacity="1" /><path clip-path="url(#clip6500)" d="M 0 0 M4275.93 2495.56 L4275.93 2554.45 L4346.11 2554.45 L4346.11 2580.93 L4275.93 2580.93 L4275.93 2693.52 Q4275.93 2718.89 4282.78 2726.12 Q4289.82 2733.34 4311.11 2733.34 L4346.11 2733.34 L4346.11 2761.86 L4311.11 2761.86 Q4271.67 2761.86 4256.67 2747.23 Q4241.67 2732.41 4241.67 2693.52 L4241.67 2580.93 L4216.67 2580.93 L4216.67 2554.45 L4241.67 2554.45 L4241.67 2495.56 L4275.93 2495.56 Z" fill="#000000" fill-rule="evenodd" fill-opacity="1" /><path clip-path="url(#clip6500)" d="M 0 0 M4415.56 2495.56 L4415.56 2554.45 L4485.74 2554.45 L4485.74 2580.93 L4415.56 2580.93 L4415.56 2693.52 Q4415.56 2718.89 4422.41 2726.12 Q4429.45 2733.34 4450.74 2733.34 L4485.74 2733.34 L4485.74 2761.86 L4450.74 2761.86 Q4411.3 2761.86 4396.3 2747.23 Q4381.3 2732.41 4381.3 2693.52 L4381.3 2580.93 L4356.3 2580.93 L4356.3 2554.45 L4381.3 2554.45 L4381.3 2495.56 L4415.56 2495.56 Z" fill="#000000" fill-rule="evenodd" fill-opacity="1" /><path clip-path="url(#clip6500)" d="M 0 0 M4698.89 2649.64 L4698.89 2666.3 L4542.22 2666.3 Q4544.45 2701.49 4563.33 2720.01 Q4582.41 2738.34 4616.3 2738.34 Q4635.93 2738.34 4654.26 2733.52 Q4672.78 2728.71 4690.93 2719.08 L4690.93 2751.3 Q4672.59 2759.08 4653.33 2763.15 Q4634.07 2767.23 4614.26 2767.23 Q4564.63 2767.23 4535.56 2738.34 Q4506.67 2709.45 4506.67 2660.19 Q4506.67 2609.27 4534.07 2579.45 Q4561.67 2549.45 4608.33 2549.45 Q4650.19 2549.45 4674.44 2576.49 Q4698.89 2603.34 4698.89 2649.64 M4664.81 2639.64 Q4664.44 2611.67 4649.07 2595.01 Q4633.89 2578.34 4608.7 2578.34 Q4580.19 2578.34 4562.96 2594.45 Q4545.93 2610.56 4543.33 2639.82 L4664.81 2639.64 Z" fill="#000000" fill-rule="evenodd" fill-opacity="1" /><path clip-path="url(#clip6500)" d="M 0 0 M4871.11 2585.93 L4871.11 2473.71 L4905.18 2473.71 L4905.18 2761.86 L4871.11 2761.86 L4871.11 2730.75 Q4860.37 2749.26 4843.89 2758.34 Q4827.59 2767.23 4804.63 2767.23 Q4767.04 2767.23 4743.33 2737.23 Q4719.81 2707.23 4719.81 2658.34 Q4719.81 2609.45 4743.33 2579.45 Q4767.04 2549.45 4804.63 2549.45 Q4827.59 2549.45 4843.89 2558.52 Q4860.37 2567.41 4871.11 2585.93 M4755 2658.34 Q4755 2695.93 4770.37 2717.41 Q4785.93 2738.71 4812.96 2738.71 Q4840 2738.71 4855.55 2717.41 Q4871.11 2695.93 4871.11 2658.34 Q4871.11 2620.75 4855.55 2599.45 Q4840 2577.97 4812.96 2577.97 Q4785.93 2577.97 4770.37 2599.45 Q4755 2620.75 4755 2658.34 Z" fill="#000000" fill-rule="evenodd" fill-opacity="1" /><path clip-path="url(#clip6500)" d="M 0 0 M5061.48 2473.71 L5095.55 2473.71 L5095.55 2761.86 L5061.48 2761.86 L5061.48 2473.71 Z" fill="#000000" fill-rule="evenodd" fill-opacity="1" /><path clip-path="url(#clip6500)" d="M 0 0 M5131.29 2554.45 L5165.37 2554.45 L5165.37 2761.86 L5131.29 2761.86 L5131.29 2554.45 M5131.29 2473.71 L5165.37 2473.71 L5165.37 2516.86 L5131.29 2516.86 L5131.29 2473.71 Z" fill="#000000" fill-rule="evenodd" fill-opacity="1" /><path clip-path="url(#clip6500)" d="M 0 0 M5373.51 2636.67 L5373.51 2761.86 L5339.44 2761.86 L5339.44 2637.78 Q5339.44 2608.34 5327.96 2593.71 Q5316.48 2579.08 5293.52 2579.08 Q5265.92 2579.08 5250 2596.67 Q5234.07 2614.27 5234.07 2644.64 L5234.07 2761.86 L5199.81 2761.86 L5199.81 2554.45 L5234.07 2554.45 L5234.07 2586.67 Q5246.29 2567.97 5262.77 2558.71 Q5279.44 2549.45 5301.11 2549.45 Q5336.85 2549.45 5355.18 2571.67 Q5373.51 2593.71 5373.51 2636.67 Z" fill="#000000" fill-rule="evenodd" fill-opacity="1" /><path clip-path="url(#clip6500)" d="M 0 0 M5586.66 2649.64 L5586.66 2666.3 L5430 2666.3 Q5432.22 2701.49 5451.11 2720.01 Q5470.18 2738.34 5504.07 2738.34 Q5523.7 2738.34 5542.03 2733.52 Q5560.55 2728.71 5578.7 2719.08 L5578.7 2751.3 Q5560.37 2759.08 5541.11 2763.15 Q5521.85 2767.23 5502.03 2767.23 Q5452.4 2767.23 5423.33 2738.34 Q5394.44 2709.45 5394.44 2660.19 Q5394.44 2609.27 5421.85 2579.45 Q5449.44 2549.45 5496.11 2549.45 Q5537.96 2549.45 5562.22 2576.49 Q5586.66 2603.34 5586.66 2649.64 M5552.59 2639.64 Q5552.22 2611.67 5536.85 2595.01 Q5521.66 2578.34 5496.48 2578.34 Q5467.96 2578.34 5450.74 2594.45 Q5433.7 2610.56 5431.11 2639.82 L5552.59 2639.64 Z" fill="#000000" fill-rule="evenodd" fill-opacity="1" /></svg>
