<?xml version="1.0" encoding="utf-8"?>
<svg xmlns="http://www.w3.org/2000/svg" xmlns:xlink="http://www.w3.org/1999/xlink" width="4800" height="3200" viewBox="0 0 19200 12800">
<defs>
  <clipPath id="clip6900">
    <rect x="0" y="0" width="19200" height="12800"/>
  </clipPath>
</defs>
<path clip-path="url(#clip6900)" d="
M0 12800 L19200 12800 L19200 0 L0 0  Z
  " fill="#ffffff" fill-rule="evenodd" fill-opacity="1"/>
<defs>
  <clipPath id="clip6901">
    <rect x="3840" y="0" width="13441" height="12800"/>
  </clipPath>
</defs>
<path clip-path="url(#clip6900)" d="
M1915.41 11385.4 L18822 11385.4 L18822 987.777 L1915.41 987.777  Z
  " fill="#ffffff" fill-rule="evenodd" fill-opacity="1"/>
<defs>
  <clipPath id="clip6902">
    <rect x="1915" y="987" width="16908" height="10399"/>
  </clipPath>
</defs>
<polyline clip-path="url(#clip6902)" style="stroke:#000000; stroke-width:16; stroke-opacity:0.1; fill:none" points="
  3669.87,11385.4 3669.87,987.777 
  "/>
<polyline clip-path="url(#clip6902)" style="stroke:#000000; stroke-width:16; stroke-opacity:0.1; fill:none" points="
  7497.79,11385.4 7497.79,987.777 
  "/>
<polyline clip-path="url(#clip6902)" style="stroke:#000000; stroke-width:16; stroke-opacity:0.1; fill:none" points="
  11325.7,11385.4 11325.7,987.777 
  "/>
<polyline clip-path="url(#clip6902)" style="stroke:#000000; stroke-width:16; stroke-opacity:0.1; fill:none" points="
  15153.6,11385.4 15153.6,987.777 
  "/>
<polyline clip-path="url(#clip6902)" style="stroke:#000000; stroke-width:16; stroke-opacity:0.1; fill:none" points="
  1915.41,9518.31 18822,9518.31 
  "/>
<polyline clip-path="url(#clip6902)" style="stroke:#000000; stroke-width:16; stroke-opacity:0.1; fill:none" points="
  1915.41,7395.12 18822,7395.12 
  "/>
<polyline clip-path="url(#clip6902)" style="stroke:#000000; stroke-width:16; stroke-opacity:0.1; fill:none" points="
  1915.41,5271.94 18822,5271.94 
  "/>
<polyline clip-path="url(#clip6902)" style="stroke:#000000; stroke-width:16; stroke-opacity:0.1; fill:none" points="
  1915.41,3148.75 18822,3148.75 
  "/>
<polyline clip-path="url(#clip6902)" style="stroke:#000000; stroke-width:16; stroke-opacity:0.1; fill:none" points="
  1915.41,1025.57 18822,1025.57 
  "/>
<polyline clip-path="url(#clip6900)" style="stroke:#000000; stroke-width:32; stroke-opacity:1; fill:none" points="
  1915.41,11385.4 18822,11385.4 
  "/>
<polyline clip-path="url(#clip6900)" style="stroke:#000000; stroke-width:32; stroke-opacity:1; fill:none" points="
  1915.41,11385.4 1915.41,987.777 
  "/>
<polyline clip-path="url(#clip6900)" style="stroke:#000000; stroke-width:32; stroke-opacity:1; fill:none" points="
  3669.87,11385.4 3669.87,11260.7 
  "/>
<polyline clip-path="url(#clip6900)" style="stroke:#000000; stroke-width:32; stroke-opacity:1; fill:none" points="
  7497.79,11385.4 7497.79,11260.7 
  "/>
<polyline clip-path="url(#clip6900)" style="stroke:#000000; stroke-width:32; stroke-opacity:1; fill:none" points="
  11325.7,11385.4 11325.7,11260.7 
  "/>
<polyline clip-path="url(#clip6900)" style="stroke:#000000; stroke-width:32; stroke-opacity:1; fill:none" points="
  15153.6,11385.4 15153.6,11260.7 
  "/>
<polyline clip-path="url(#clip6900)" style="stroke:#000000; stroke-width:32; stroke-opacity:1; fill:none" points="
  1915.41,9518.31 2118.29,9518.31 
  "/>
<polyline clip-path="url(#clip6900)" style="stroke:#000000; stroke-width:32; stroke-opacity:1; fill:none" points="
  1915.41,7395.12 2118.29,7395.12 
  "/>
<polyline clip-path="url(#clip6900)" style="stroke:#000000; stroke-width:32; stroke-opacity:1; fill:none" points="
  1915.41,5271.94 2118.29,5271.94 
  "/>
<polyline clip-path="url(#clip6900)" style="stroke:#000000; stroke-width:32; stroke-opacity:1; fill:none" points="
  1915.41,3148.75 2118.29,3148.75 
  "/>
<polyline clip-path="url(#clip6900)" style="stroke:#000000; stroke-width:32; stroke-opacity:1; fill:none" points="
  1915.41,1025.57 2118.29,1025.57 
  "/>
<path clip-path="url(#clip6900)" d="M 0 0 M3484.13 11781.7 L3614.69 11781.7 L3614.69 11813.2 L3439.13 11813.2 L3439.13 11781.7 Q3460.43 11759.7 3497.1 11722.7 Q3533.95 11685.4 3543.39 11674.7 Q3561.36 11654.5 3568.39 11640.6 Q3575.61 11626.5 3575.61 11613 Q3575.61 11591 3560.06 11577.1 Q3544.69 11563.2 3519.87 11563.2 Q3502.28 11563.2 3482.65 11569.3 Q3463.21 11575.4 3440.99 11587.8 L3440.99 11550.1 Q3463.58 11541 3483.21 11536.4 Q3502.84 11531.7 3519.13 11531.7 Q3562.1 11531.7 3587.65 11553.2 Q3613.21 11574.7 3613.21 11610.6 Q3613.21 11627.7 3606.73 11643 Q3600.43 11658.2 3583.58 11679 Q3578.95 11684.3 3554.13 11710.1 Q3529.32 11735.6 3484.13 11781.7 Z" fill="#000000" fill-rule="evenodd" fill-opacity="1" /><path clip-path="url(#clip6900)" d="M 0 0 M3655.24 11766.2 L3694.32 11766.2 L3694.32 11813.2 L3655.24 11813.2 L3655.24 11766.2 Z" fill="#000000" fill-rule="evenodd" fill-opacity="1" /><path clip-path="url(#clip6900)" d="M 0 0 M3741.35 11781.7 L3802.46 11781.7 L3802.46 11570.8 L3735.98 11584.1 L3735.98 11550.1 L3802.09 11536.7 L3839.5 11536.7 L3839.5 11781.7 L3900.61 11781.7 L3900.61 11813.2 L3741.35 11813.2 L3741.35 11781.7 Z" fill="#000000" fill-rule="evenodd" fill-opacity="1" /><path clip-path="url(#clip6900)" d="M 0 0 M7305.2 11781.7 L7435.75 11781.7 L7435.75 11813.2 L7260.2 11813.2 L7260.2 11781.7 Q7281.5 11759.7 7318.16 11722.7 Q7355.01 11685.4 7364.46 11674.7 Q7382.42 11654.5 7389.46 11640.6 Q7396.68 11626.5 7396.68 11613 Q7396.68 11591 7381.12 11577.1 Q7365.75 11563.2 7340.94 11563.2 Q7323.35 11563.2 7303.72 11569.3 Q7284.27 11575.4 7262.05 11587.8 L7262.05 11550.1 Q7284.64 11541 7304.27 11536.4 Q7323.9 11531.7 7340.2 11531.7 Q7383.16 11531.7 7408.72 11553.2 Q7434.27 11574.7 7434.27 11610.6 Q7434.27 11627.7 7427.79 11643 Q7421.49 11658.2 7404.64 11679 Q7400.01 11684.3 7375.2 11710.1 Q7350.38 11735.6 7305.2 11781.7 Z" fill="#000000" fill-rule="evenodd" fill-opacity="1" /><path clip-path="url(#clip6900)" d="M 0 0 M7476.31 11766.2 L7515.38 11766.2 L7515.38 11813.2 L7476.31 11813.2 L7476.31 11766.2 Z" fill="#000000" fill-rule="evenodd" fill-opacity="1" /><path clip-path="url(#clip6900)" d="M 0 0 M7658.72 11569.3 L7564.27 11716.9 L7658.72 11716.9 L7658.72 11569.3 M7648.9 11536.7 L7695.94 11536.7 L7695.94 11716.9 L7735.38 11716.9 L7735.38 11748 L7695.94 11748 L7695.94 11813.2 L7658.72 11813.2 L7658.72 11748 L7533.9 11748 L7533.9 11711.9 L7648.9 11536.7 Z" fill="#000000" fill-rule="evenodd" fill-opacity="1" /><path clip-path="url(#clip6900)" d="M 0 0 M11138.7 11781.7 L11269.2 11781.7 L11269.2 11813.2 L11093.7 11813.2 L11093.7 11781.7 Q11115 11759.7 11151.6 11722.7 Q11188.5 11685.4 11197.9 11674.7 Q11215.9 11654.5 11222.9 11640.6 Q11230.2 11626.5 11230.2 11613 Q11230.2 11591 11214.6 11577.1 Q11199.2 11563.2 11174.4 11563.2 Q11156.8 11563.2 11137.2 11569.3 Q11117.7 11575.4 11095.5 11587.8 L11095.5 11550.1 Q11118.1 11541 11137.7 11536.4 Q11157.4 11531.7 11173.7 11531.7 Q11216.6 11531.7 11242.2 11553.2 Q11267.7 11574.7 11267.7 11610.6 Q11267.7 11627.7 11261.3 11643 Q11255 11658.2 11238.1 11679 Q11233.5 11684.3 11208.7 11710.1 Q11183.9 11735.6 11138.7 11781.7 Z" fill="#000000" fill-rule="evenodd" fill-opacity="1" /><path clip-path="url(#clip6900)" d="M 0 0 M11309.8 11766.2 L11348.9 11766.2 L11348.9 11813.2 L11309.8 11813.2 L11309.8 11766.2 Z" fill="#000000" fill-rule="evenodd" fill-opacity="1" /><path clip-path="url(#clip6900)" d="M 0 0 M11380 11536.7 L11557.7 11536.7 L11557.7 11552.7 L11457.4 11813.2 L11418.3 11813.2 L11512.7 11568.2 L11380 11568.2 L11380 11536.7 Z" fill="#000000" fill-rule="evenodd" fill-opacity="1" /><path clip-path="url(#clip6900)" d="M 0 0 M15039.7 11664.1 Q15066.6 11669.9 15081.6 11688 Q15096.8 11706.2 15096.8 11732.8 Q15096.8 11773.8 15068.6 11796.2 Q15040.5 11818.6 14988.6 11818.6 Q14971.2 11818.6 14952.7 11815.1 Q14934.4 11811.7 14914.7 11804.9 L14914.7 11768.8 Q14930.3 11777.8 14948.8 11782.5 Q14967.3 11787.1 14987.5 11787.1 Q15022.7 11787.1 15041 11773.2 Q15059.6 11759.3 15059.6 11732.8 Q15059.6 11708.4 15042.3 11694.7 Q15025.3 11680.8 14994.7 11680.8 L14962.5 11680.8 L14962.5 11650.1 L14996.2 11650.1 Q15023.8 11650.1 15038.4 11639.1 Q15053.1 11628 15053.1 11607.3 Q15053.1 11586 15037.9 11574.7 Q15022.9 11563.2 14994.7 11563.2 Q14979.4 11563.2 14961.8 11566.5 Q14944.2 11569.9 14923.1 11576.9 L14923.1 11543.6 Q14944.4 11537.7 14962.9 11534.7 Q14981.6 11531.7 14998.1 11531.7 Q15040.7 11531.7 15065.5 11551.2 Q15090.3 11570.4 15090.3 11603.4 Q15090.3 11626.4 15077.1 11642.3 Q15064 11658 15039.7 11664.1 Z" fill="#000000" fill-rule="evenodd" fill-opacity="1" /><path clip-path="url(#clip6900)" d="M 0 0 M15137.3 11766.2 L15176.4 11766.2 L15176.4 11813.2 L15137.3 11813.2 L15137.3 11766.2 Z" fill="#000000" fill-rule="evenodd" fill-opacity="1" /><path clip-path="url(#clip6900)" d="M 0 0 M15297 11561.4 Q15268.1 11561.4 15253.4 11589.9 Q15239 11618.2 15239 11675.3 Q15239 11732.1 15253.4 11760.6 Q15268.1 11789 15297 11789 Q15326 11789 15340.5 11760.6 Q15355.1 11732.1 15355.1 11675.3 Q15355.1 11618.2 15340.5 11589.9 Q15326 11561.4 15297 11561.4 M15297 11531.7 Q15343.4 11531.7 15367.9 11568.6 Q15392.5 11605.3 15392.5 11675.3 Q15392.5 11745.1 15367.9 11781.9 Q15343.4 11818.6 15297 11818.6 Q15250.5 11818.6 15225.8 11781.9 Q15201.4 11745.1 15201.4 11675.3 Q15201.4 11605.3 15225.8 11568.6 Q15250.5 11531.7 15297 11531.7 Z" fill="#000000" fill-rule="evenodd" fill-opacity="1" /><path clip-path="url(#clip6900)" d="M 0 0 M1154.52 9507.48 Q1181.38 9513.22 1196.38 9531.37 Q1211.56 9549.51 1211.56 9576.18 Q1211.56 9617.11 1183.41 9639.51 Q1155.27 9661.92 1103.41 9661.92 Q1086.01 9661.92 1067.49 9658.4 Q1049.16 9655.07 1029.53 9648.22 L1029.53 9612.11 Q1045.08 9621.18 1063.6 9625.81 Q1082.12 9630.44 1102.3 9630.44 Q1137.49 9630.44 1155.82 9616.55 Q1174.34 9602.66 1174.34 9576.18 Q1174.34 9551.74 1157.12 9538.03 Q1140.08 9524.14 1109.53 9524.14 L1077.3 9524.14 L1077.3 9493.4 L1111.01 9493.4 Q1138.6 9493.4 1153.23 9482.48 Q1167.86 9471.37 1167.86 9450.63 Q1167.86 9429.33 1152.67 9418.03 Q1137.67 9406.55 1109.53 9406.55 Q1094.15 9406.55 1076.56 9409.88 Q1058.97 9413.22 1037.86 9420.25 L1037.86 9386.92 Q1059.16 9381 1077.67 9378.03 Q1096.38 9375.07 1112.86 9375.07 Q1155.45 9375.07 1180.27 9394.51 Q1205.08 9413.77 1205.08 9446.74 Q1205.08 9469.7 1191.93 9485.62 Q1178.78 9501.37 1154.52 9507.48 Z" fill="#000000" fill-rule="evenodd" fill-opacity="1" /><path clip-path="url(#clip6900)" d="M 0 0 M1252.12 9609.51 L1291.19 9609.51 L1291.19 9656.55 L1252.12 9656.55 L1252.12 9609.51 Z" fill="#000000" fill-rule="evenodd" fill-opacity="1" /><path clip-path="url(#clip6900)" d="M 0 0 M1411.75 9404.7 Q1382.86 9404.7 1368.23 9433.22 Q1353.78 9461.55 1353.78 9518.59 Q1353.78 9575.44 1368.23 9603.96 Q1382.86 9632.29 1411.75 9632.29 Q1440.82 9632.29 1455.26 9603.96 Q1469.89 9575.44 1469.89 9518.59 Q1469.89 9461.55 1455.26 9433.22 Q1440.82 9404.7 1411.75 9404.7 M1411.75 9375.07 Q1458.23 9375.07 1482.67 9411.92 Q1507.3 9448.59 1507.3 9518.59 Q1507.3 9588.4 1482.67 9625.25 Q1458.23 9661.92 1411.75 9661.92 Q1365.26 9661.92 1340.64 9625.25 Q1316.19 9588.4 1316.19 9518.59 Q1316.19 9448.59 1340.64 9411.92 Q1365.26 9375.07 1411.75 9375.07 Z" fill="#000000" fill-rule="evenodd" fill-opacity="1" /><path clip-path="url(#clip6900)" d="M 0 0 M1627.86 9404.7 Q1598.97 9404.7 1584.34 9433.22 Q1569.89 9461.55 1569.89 9518.59 Q1569.89 9575.44 1584.34 9603.96 Q1598.97 9632.29 1627.86 9632.29 Q1656.93 9632.29 1671.37 9603.96 Q1686 9575.44 1686 9518.59 Q1686 9461.55 1671.37 9433.22 Q1656.93 9404.7 1627.86 9404.7 M1627.86 9375.07 Q1674.34 9375.07 1698.78 9411.92 Q1723.41 9448.59 1723.41 9518.59 Q1723.41 9588.4 1698.78 9625.25 Q1674.34 9661.92 1627.86 9661.92 Q1581.37 9661.92 1556.74 9625.25 Q1532.3 9588.4 1532.3 9518.59 Q1532.3 9448.59 1556.74 9411.92 Q1581.37 9375.07 1627.86 9375.07 Z" fill="#000000" fill-rule="evenodd" fill-opacity="1" /><path clip-path="url(#clip6900)" d="M 0 0 M1175.27 7384.29 Q1202.12 7390.03 1217.12 7408.18 Q1232.3 7426.33 1232.3 7452.99 Q1232.3 7493.92 1204.15 7516.33 Q1176.01 7538.74 1124.15 7538.74 Q1106.75 7538.74 1088.23 7535.22 Q1069.9 7531.88 1050.27 7525.03 L1050.27 7488.92 Q1065.82 7497.99 1084.34 7502.62 Q1102.86 7507.25 1123.04 7507.25 Q1158.23 7507.25 1176.56 7493.37 Q1195.08 7479.48 1195.08 7452.99 Q1195.08 7428.55 1177.86 7414.85 Q1160.82 7400.96 1130.27 7400.96 L1098.04 7400.96 L1098.04 7370.22 L1131.75 7370.22 Q1159.34 7370.22 1173.97 7359.29 Q1188.6 7348.18 1188.6 7327.44 Q1188.6 7306.14 1173.41 7294.85 Q1158.41 7283.37 1130.27 7283.37 Q1114.9 7283.37 1097.3 7286.7 Q1079.71 7290.03 1058.6 7297.07 L1058.6 7263.74 Q1079.9 7257.81 1098.41 7254.85 Q1117.12 7251.88 1133.6 7251.88 Q1176.19 7251.88 1201.01 7271.33 Q1225.82 7290.59 1225.82 7323.55 Q1225.82 7346.51 1212.67 7362.44 Q1199.52 7378.18 1175.27 7384.29 Z" fill="#000000" fill-rule="evenodd" fill-opacity="1" /><path clip-path="url(#clip6900)" d="M 0 0 M1272.86 7486.33 L1311.93 7486.33 L1311.93 7533.36 L1272.86 7533.36 L1272.86 7486.33 Z" fill="#000000" fill-rule="evenodd" fill-opacity="1" /><path clip-path="url(#clip6900)" d="M 0 0 M1384.71 7501.88 L1515.26 7501.88 L1515.26 7533.36 L1339.71 7533.36 L1339.71 7501.88 Q1361.01 7479.85 1397.67 7442.81 Q1434.52 7405.59 1443.97 7394.85 Q1461.93 7374.66 1468.97 7360.77 Q1476.19 7346.7 1476.19 7333.18 Q1476.19 7311.14 1460.63 7297.25 Q1445.26 7283.37 1420.45 7283.37 Q1402.86 7283.37 1383.23 7289.48 Q1363.78 7295.59 1341.56 7308 L1341.56 7270.22 Q1364.15 7261.14 1383.78 7256.51 Q1403.41 7251.88 1419.71 7251.88 Q1462.67 7251.88 1488.23 7273.37 Q1513.78 7294.85 1513.78 7330.77 Q1513.78 7347.81 1507.3 7363.18 Q1501 7378.37 1484.15 7399.11 Q1479.52 7404.48 1454.71 7430.22 Q1429.89 7455.77 1384.71 7501.88 Z" fill="#000000" fill-rule="evenodd" fill-opacity="1" /><path clip-path="url(#clip6900)" d="M 0 0 M1556.19 7256.88 L1703.04 7256.88 L1703.04 7288.37 L1590.45 7288.37 L1590.45 7356.14 Q1598.6 7353.37 1606.74 7352.07 Q1614.89 7350.59 1623.04 7350.59 Q1669.34 7350.59 1696.37 7375.96 Q1723.41 7401.33 1723.41 7444.66 Q1723.41 7489.29 1695.63 7514.11 Q1667.86 7538.74 1617.3 7538.74 Q1599.89 7538.74 1581.74 7535.77 Q1563.78 7532.81 1544.52 7526.88 L1544.52 7489.29 Q1561.19 7498.36 1578.97 7502.81 Q1596.74 7507.25 1616.56 7507.25 Q1648.6 7507.25 1667.3 7490.4 Q1686 7473.55 1686 7444.66 Q1686 7415.77 1667.3 7398.92 Q1648.6 7382.07 1616.56 7382.07 Q1601.56 7382.07 1586.56 7385.4 Q1571.74 7388.74 1556.19 7395.77 L1556.19 7256.88 Z" fill="#000000" fill-rule="evenodd" fill-opacity="1" /><path clip-path="url(#clip6900)" d="M 0 0 M1162.49 5261.11 Q1189.34 5266.85 1204.34 5285 Q1219.52 5303.14 1219.52 5329.81 Q1219.52 5370.74 1191.38 5393.14 Q1163.23 5415.55 1111.38 5415.55 Q1093.97 5415.55 1075.45 5412.03 Q1057.12 5408.7 1037.49 5401.85 L1037.49 5365.74 Q1053.04 5374.81 1071.56 5379.44 Q1090.08 5384.07 1110.27 5384.07 Q1145.45 5384.07 1163.78 5370.18 Q1182.3 5356.29 1182.3 5329.81 Q1182.3 5305.37 1165.08 5291.66 Q1148.04 5277.77 1117.49 5277.77 L1085.27 5277.77 L1085.27 5247.03 L1118.97 5247.03 Q1146.56 5247.03 1161.19 5236.11 Q1175.82 5225 1175.82 5204.25 Q1175.82 5182.96 1160.64 5171.66 Q1145.64 5160.18 1117.49 5160.18 Q1102.12 5160.18 1084.53 5163.51 Q1066.93 5166.85 1045.82 5173.88 L1045.82 5140.55 Q1067.12 5134.63 1085.64 5131.66 Q1104.34 5128.7 1120.82 5128.7 Q1163.41 5128.7 1188.23 5148.14 Q1213.04 5167.4 1213.04 5200.37 Q1213.04 5223.33 1199.9 5239.25 Q1186.75 5255 1162.49 5261.11 Z" fill="#000000" fill-rule="evenodd" fill-opacity="1" /><path clip-path="url(#clip6900)" d="M 0 0 M1260.08 5363.14 L1299.15 5363.14 L1299.15 5410.18 L1260.08 5410.18 L1260.08 5363.14 Z" fill="#000000" fill-rule="evenodd" fill-opacity="1" /><path clip-path="url(#clip6900)" d="M 0 0 M1340.08 5133.7 L1486.93 5133.7 L1486.93 5165.18 L1374.34 5165.18 L1374.34 5232.96 Q1382.49 5230.18 1390.63 5228.88 Q1398.78 5227.4 1406.93 5227.4 Q1453.23 5227.4 1480.26 5252.77 Q1507.3 5278.14 1507.3 5321.48 Q1507.3 5366.11 1479.52 5390.92 Q1451.75 5415.55 1401.19 5415.55 Q1383.78 5415.55 1365.63 5412.59 Q1347.67 5409.62 1328.41 5403.7 L1328.41 5366.11 Q1345.08 5375.18 1362.86 5379.62 Q1380.63 5384.07 1400.45 5384.07 Q1432.49 5384.07 1451.19 5367.22 Q1469.89 5350.37 1469.89 5321.48 Q1469.89 5292.59 1451.19 5275.74 Q1432.49 5258.88 1400.45 5258.88 Q1385.45 5258.88 1370.45 5262.22 Q1355.63 5265.55 1340.08 5272.59 L1340.08 5133.7 Z" fill="#000000" fill-rule="evenodd" fill-opacity="1" /><path clip-path="url(#clip6900)" d="M 0 0 M1627.86 5158.33 Q1598.97 5158.33 1584.34 5186.85 Q1569.89 5215.18 1569.89 5272.22 Q1569.89 5329.07 1584.34 5357.59 Q1598.97 5385.92 1627.86 5385.92 Q1656.93 5385.92 1671.37 5357.59 Q1686 5329.07 1686 5272.22 Q1686 5215.18 1671.37 5186.85 Q1656.93 5158.33 1627.86 5158.33 M1627.86 5128.7 Q1674.34 5128.7 1698.78 5165.55 Q1723.41 5202.22 1723.41 5272.22 Q1723.41 5342.03 1698.78 5378.88 Q1674.34 5415.55 1627.86 5415.55 Q1581.37 5415.55 1556.74 5378.88 Q1532.3 5342.03 1532.3 5272.22 Q1532.3 5202.22 1556.74 5165.55 Q1581.37 5128.7 1627.86 5128.7 Z" fill="#000000" fill-rule="evenodd" fill-opacity="1" /><path clip-path="url(#clip6900)" d="M 0 0 M1169.71 3137.92 Q1196.56 3143.66 1211.56 3161.81 Q1226.75 3179.96 1226.75 3206.62 Q1226.75 3247.55 1198.6 3269.96 Q1170.45 3292.37 1118.6 3292.37 Q1101.19 3292.37 1082.67 3288.85 Q1064.34 3285.51 1044.71 3278.66 L1044.71 3242.55 Q1060.27 3251.62 1078.78 3256.25 Q1097.3 3260.88 1117.49 3260.88 Q1152.67 3260.88 1171.01 3246.99 Q1189.52 3233.11 1189.52 3206.62 Q1189.52 3182.18 1172.3 3168.48 Q1155.27 3154.59 1124.71 3154.59 L1092.49 3154.59 L1092.49 3123.85 L1126.19 3123.85 Q1153.78 3123.85 1168.41 3112.92 Q1183.04 3101.81 1183.04 3081.07 Q1183.04 3059.77 1167.86 3048.48 Q1152.86 3037 1124.71 3037 Q1109.34 3037 1091.75 3040.33 Q1074.15 3043.66 1053.04 3050.7 L1053.04 3017.37 Q1074.34 3011.44 1092.86 3008.48 Q1111.56 3005.51 1128.04 3005.51 Q1170.64 3005.51 1195.45 3024.96 Q1220.27 3044.22 1220.27 3077.18 Q1220.27 3100.14 1207.12 3116.07 Q1193.97 3131.81 1169.71 3137.92 Z" fill="#000000" fill-rule="evenodd" fill-opacity="1" /><path clip-path="url(#clip6900)" d="M 0 0 M1267.3 3239.96 L1306.38 3239.96 L1306.38 3286.99 L1267.3 3286.99 L1267.3 3239.96 Z" fill="#000000" fill-rule="evenodd" fill-opacity="1" /><path clip-path="url(#clip6900)" d="M 0 0 M1337.49 3010.51 L1515.26 3010.51 L1515.26 3026.44 L1414.89 3286.99 L1375.82 3286.99 L1470.26 3042 L1337.49 3042 L1337.49 3010.51 Z" fill="#000000" fill-rule="evenodd" fill-opacity="1" /><path clip-path="url(#clip6900)" d="M 0 0 M1556.19 3010.51 L1703.04 3010.51 L1703.04 3042 L1590.45 3042 L1590.45 3109.77 Q1598.6 3107 1606.74 3105.7 Q1614.89 3104.22 1623.04 3104.22 Q1669.34 3104.22 1696.37 3129.59 Q1723.41 3154.96 1723.41 3198.29 Q1723.41 3242.92 1695.63 3267.74 Q1667.86 3292.37 1617.3 3292.37 Q1599.89 3292.37 1581.74 3289.4 Q1563.78 3286.44 1544.52 3280.51 L1544.52 3242.92 Q1561.19 3251.99 1578.97 3256.44 Q1596.74 3260.88 1616.56 3260.88 Q1648.6 3260.88 1667.3 3244.03 Q1686 3227.18 1686 3198.29 Q1686 3169.4 1667.3 3152.55 Q1648.6 3135.7 1616.56 3135.7 Q1601.56 3135.7 1586.56 3139.03 Q1571.74 3142.37 1556.19 3149.4 L1556.19 3010.51 Z" fill="#000000" fill-rule="evenodd" fill-opacity="1" /><path clip-path="url(#clip6900)" d="M 0 0 M1134.9 919.922 L1040.45 1067.51 L1134.9 1067.51 L1134.9 919.922 M1125.08 887.33 L1172.12 887.33 L1172.12 1067.51 L1211.56 1067.51 L1211.56 1098.62 L1172.12 1098.62 L1172.12 1163.81 L1134.9 1163.81 L1134.9 1098.62 L1010.08 1098.62 L1010.08 1062.51 L1125.08 887.33 Z" fill="#000000" fill-rule="evenodd" fill-opacity="1" /><path clip-path="url(#clip6900)" d="M 0 0 M1252.12 1116.77 L1291.19 1116.77 L1291.19 1163.81 L1252.12 1163.81 L1252.12 1116.77 Z" fill="#000000" fill-rule="evenodd" fill-opacity="1" /><path clip-path="url(#clip6900)" d="M 0 0 M1411.75 911.959 Q1382.86 911.959 1368.23 940.478 Q1353.78 968.811 1353.78 1025.85 Q1353.78 1082.7 1368.23 1111.22 Q1382.86 1139.55 1411.75 1139.55 Q1440.82 1139.55 1455.26 1111.22 Q1469.89 1082.7 1469.89 1025.85 Q1469.89 968.811 1455.26 940.478 Q1440.82 911.959 1411.75 911.959 M1411.75 882.33 Q1458.23 882.33 1482.67 919.181 Q1507.3 955.848 1507.3 1025.85 Q1507.3 1095.66 1482.67 1132.51 Q1458.23 1169.18 1411.75 1169.18 Q1365.26 1169.18 1340.64 1132.51 Q1316.19 1095.66 1316.19 1025.85 Q1316.19 955.848 1340.64 919.181 Q1365.26 882.33 1411.75 882.33 Z" fill="#000000" fill-rule="evenodd" fill-opacity="1" /><path clip-path="url(#clip6900)" d="M 0 0 M1627.86 911.959 Q1598.97 911.959 1584.34 940.478 Q1569.89 968.811 1569.89 1025.85 Q1569.89 1082.7 1584.34 1111.22 Q1598.97 1139.55 1627.86 1139.55 Q1656.93 1139.55 1671.37 1111.22 Q1686 1082.7 1686 1025.85 Q1686 968.811 1671.37 940.478 Q1656.93 911.959 1627.86 911.959 M1627.86 882.33 Q1674.34 882.33 1698.78 919.181 Q1723.41 955.848 1723.41 1025.85 Q1723.41 1095.66 1698.78 1132.51 Q1674.34 1169.18 1627.86 1169.18 Q1581.37 1169.18 1556.74 1132.51 Q1532.3 1095.66 1532.3 1025.85 Q1532.3 955.848 1556.74 919.181 Q1581.37 882.33 1627.86 882.33 Z" fill="#000000" fill-rule="evenodd" fill-opacity="1" /><path clip-path="url(#clip6900)" d="M 0 0 M8039.3 134.036 L8039.3 203.064 Q8006.24 172.277 7968.65 157.045 Q7931.38 141.814 7889.25 141.814 Q7806.29 141.814 7762.22 192.693 Q7718.14 243.249 7718.14 339.174 Q7718.14 434.775 7762.22 485.655 Q7806.29 536.21 7889.25 536.21 Q7931.38 536.21 7968.65 520.979 Q8006.24 505.747 8039.3 474.96 L8039.3 543.34 Q8004.95 566.673 7966.38 578.339 Q7928.14 590.006 7885.36 590.006 Q7775.5 590.006 7712.31 522.923 Q7649.11 455.516 7649.11 339.174 Q7649.11 222.508 7712.31 155.425 Q7775.5 88.018 7885.36 88.018 Q7928.79 88.018 7967.03 99.6847 Q8005.59 111.027 8039.3 134.036 Z" fill="#000000" fill-rule="evenodd" fill-opacity="1" /><path clip-path="url(#clip6900)" d="M 0 0 M8384.43 287.323 Q8406.8 247.138 8437.91 228.017 Q8469.02 208.897 8511.15 208.897 Q8567.86 208.897 8598.65 248.758 Q8629.43 288.295 8629.43 361.535 L8629.43 580.608 L8569.48 580.608 L8569.48 363.48 Q8569.48 311.304 8551.01 286.026 Q8532.54 260.749 8494.62 260.749 Q8448.28 260.749 8421.38 291.535 Q8394.48 322.322 8394.48 375.47 L8394.48 580.608 L8334.53 580.608 L8334.53 363.48 Q8334.53 310.98 8316.05 286.026 Q8297.58 260.749 8259.02 260.749 Q8213.32 260.749 8186.43 291.86 Q8159.53 322.646 8159.53 375.47 L8159.53 580.608 L8099.57 580.608 L8099.57 217.647 L8159.53 217.647 L8159.53 274.036 Q8179.94 240.656 8208.46 224.777 Q8236.98 208.897 8276.19 208.897 Q8315.73 208.897 8343.28 228.99 Q8371.15 249.082 8384.43 287.323 Z" fill="#000000" fill-rule="evenodd" fill-opacity="1" /><path clip-path="url(#clip6900)" d="M 0 0 M8856.93 398.155 Q8784.66 398.155 8756.79 414.683 Q8728.92 431.211 8728.92 471.072 Q8728.92 502.831 8749.66 521.627 Q8770.73 540.099 8806.7 540.099 Q8856.28 540.099 8886.1 505.099 Q8916.24 469.775 8916.24 411.442 L8916.24 398.155 L8856.93 398.155 M8975.87 373.526 L8975.87 580.608 L8916.24 580.608 L8916.24 525.516 Q8895.82 558.571 8865.36 574.451 Q8834.89 590.006 8790.82 590.006 Q8735.08 590.006 8702.02 558.895 Q8669.29 527.46 8669.29 474.96 Q8669.29 413.711 8710.13 382.6 Q8751.28 351.489 8832.63 351.489 L8916.24 351.489 L8916.24 345.656 Q8916.24 304.498 8889.01 282.137 Q8862.12 259.452 8813.18 259.452 Q8782.07 259.452 8752.58 266.906 Q8723.09 274.36 8695.87 289.267 L8695.87 234.175 Q8728.6 221.536 8759.39 215.378 Q8790.17 208.897 8819.34 208.897 Q8898.09 208.897 8936.98 249.73 Q8975.87 290.563 8975.87 373.526 Z" fill="#000000" fill-rule="evenodd" fill-opacity="1" /><path clip-path="url(#clip6900)" d="M 0 0 M9340.12 217.647 L9208.87 394.266 L9346.93 580.608 L9276.61 580.608 L9170.96 438.016 L9065.31 580.608 L8994.99 580.608 L9135.96 390.702 L9006.98 217.647 L9077.3 217.647 L9173.55 346.952 L9269.8 217.647 L9340.12 217.647 Z" fill="#000000" fill-rule="evenodd" fill-opacity="1" /><path clip-path="url(#clip6900)" d="M 0 0 M9552.71 76.9996 Q9509.29 151.536 9488.22 224.453 Q9467.16 297.369 9467.16 372.229 Q9467.16 447.09 9488.22 520.655 Q9509.61 593.895 9552.71 668.108 L9500.86 668.108 Q9452.25 591.951 9427.95 518.386 Q9403.97 444.822 9403.97 372.229 Q9403.97 299.961 9427.95 226.721 Q9451.93 153.481 9500.86 76.9996 L9552.71 76.9996 Z" fill="#000000" fill-rule="evenodd" fill-opacity="1" /><path clip-path="url(#clip6900)" d="M 0 0 M9617.85 96.768 L9683.32 96.768 L9683.32 525.516 L9918.92 525.516 L9918.92 580.608 L9617.85 580.608 L9617.85 96.768 Z" fill="#000000" fill-rule="evenodd" fill-opacity="1" /><path clip-path="url(#clip6900)" d="M 0 0 M9972.06 76.9996 L10023.9 76.9996 Q10072.5 153.481 10096.5 226.721 Q10120.8 299.961 10120.8 372.229 Q10120.8 444.822 10096.5 518.386 Q10072.5 591.951 10023.9 668.108 L9972.06 668.108 Q10015.2 593.895 10036.2 520.655 Q10057.6 447.09 10057.6 372.229 Q10057.6 297.369 10036.2 224.453 Q10015.2 151.536 9972.06 76.9996 Z" fill="#000000" fill-rule="evenodd" fill-opacity="1" /><path clip-path="url(#clip6900)" d="M 0 0 M10351.6 217.647 L10414.7 217.647 L10528.2 522.275 L10641.6 217.647 L10704.8 217.647 L10568.7 580.608 L10487.7 580.608 L10351.6 217.647 Z" fill="#000000" fill-rule="evenodd" fill-opacity="1" /><path clip-path="url(#clip6900)" d="M 0 0 M10998.7 228.341 L10998.7 284.73 Q10973.4 271.767 10946.2 265.286 Q10919 258.804 10889.8 258.804 Q10845.4 258.804 10823.1 272.415 Q10801 286.026 10801 313.248 Q10801 333.989 10816.9 345.98 Q10832.8 357.646 10880.8 368.341 L10901.2 372.878 Q10964.7 386.489 10991.3 411.442 Q11018.2 436.072 11018.2 480.47 Q11018.2 531.025 10978 560.516 Q10938.1 590.006 10868.1 590.006 Q10839 590.006 10807.2 584.173 Q10775.8 578.664 10740.8 567.321 L10740.8 505.747 Q10773.8 522.923 10805.9 531.673 Q10838 540.099 10869.4 540.099 Q10911.6 540.099 10934.2 525.84 Q10956.9 511.257 10956.9 485.007 Q10956.9 460.701 10940.4 447.738 Q10924.2 434.775 10868.8 422.785 L10848 417.924 Q10792.6 406.257 10768 382.276 Q10743.4 357.97 10743.4 315.841 Q10743.4 264.637 10779.7 236.767 Q10815.9 208.897 10882.7 208.897 Q10915.8 208.897 10944.9 213.758 Q10974.1 218.619 10998.7 228.341 Z" fill="#000000" fill-rule="evenodd" fill-opacity="1" /><path clip-path="url(#clip6900)" d="M 0 0 M11294.3 96.768 L11359.7 96.768 L11359.7 525.516 L11595.3 525.516 L11595.3 580.608 L11294.3 580.608 L11294.3 96.768 Z" fill="#000000" fill-rule="evenodd" fill-opacity="1" /><path clip-path="url(#clip6900)" d="M 0 0 M11786.9 259.452 Q11738.9 259.452 11711 297.045 Q11683.2 334.313 11683.2 399.452 Q11683.2 464.59 11710.7 502.182 Q11738.6 539.451 11786.9 539.451 Q11834.5 539.451 11862.4 501.858 Q11890.2 464.266 11890.2 399.452 Q11890.2 334.961 11862.4 297.369 Q11834.5 259.452 11786.9 259.452 M11786.9 208.897 Q11864.6 208.897 11909 259.452 Q11953.4 310.008 11953.4 399.452 Q11953.4 488.571 11909 539.451 Q11864.6 590.006 11786.9 590.006 Q11708.8 590.006 11664.4 539.451 Q11620.3 488.571 11620.3 399.452 Q11620.3 310.008 11664.4 259.452 Q11708.8 208.897 11786.9 208.897 Z" fill="#000000" fill-rule="evenodd" fill-opacity="1" /><path clip-path="url(#clip6900)" d="M 0 0 M12254.8 394.915 Q12254.8 330.1 12227.9 294.452 Q12201.4 258.804 12153.1 258.804 Q12105.1 258.804 12078.2 294.452 Q12051.6 330.1 12051.6 394.915 Q12051.6 459.405 12078.2 495.053 Q12105.1 530.701 12153.1 530.701 Q12201.4 530.701 12227.9 495.053 Q12254.8 459.405 12254.8 394.915 M12314.5 535.562 Q12314.5 628.247 12273.3 673.293 Q12232.1 718.663 12147.2 718.663 Q12115.8 718.663 12087.9 713.802 Q12060.1 709.265 12033.8 699.543 L12033.8 641.534 Q12060.1 655.793 12085.7 662.598 Q12111.3 669.404 12137.8 669.404 Q12196.5 669.404 12225.7 638.617 Q12254.8 608.154 12254.8 546.256 L12254.8 516.766 Q12236.4 548.849 12207.5 564.728 Q12178.7 580.608 12138.5 580.608 Q12071.7 580.608 12030.9 529.729 Q11990.1 478.849 11990.1 394.915 Q11990.1 310.656 12030.9 259.776 Q12071.7 208.897 12138.5 208.897 Q12178.7 208.897 12207.5 224.777 Q12236.4 240.656 12254.8 272.739 L12254.8 217.647 L12314.5 217.647 L12314.5 535.562 Z" fill="#000000" fill-rule="evenodd" fill-opacity="1" /><path clip-path="url(#clip6900)" d="M 0 0 M12520.2 76.9996 Q12476.8 151.536 12455.8 224.453 Q12434.7 297.369 12434.7 372.229 Q12434.7 447.09 12455.8 520.655 Q12477.1 593.895 12520.2 668.108 L12468.4 668.108 Q12419.8 591.951 12395.5 518.386 Q12371.5 444.822 12371.5 372.229 Q12371.5 299.961 12395.5 226.721 Q12419.5 153.481 12468.4 76.9996 L12520.2 76.9996 Z" fill="#000000" fill-rule="evenodd" fill-opacity="1" /><path clip-path="url(#clip6900)" d="M 0 0 M12585.4 96.768 L12650.8 96.768 L12650.8 525.516 L12886.4 525.516 L12886.4 580.608 L12585.4 580.608 L12585.4 96.768 Z" fill="#000000" fill-rule="evenodd" fill-opacity="1" /><path clip-path="url(#clip6900)" d="M 0 0 M12939.6 76.9996 L12991.4 76.9996 Q13040.1 153.481 13064 226.721 Q13088.3 299.961 13088.3 372.229 Q13088.3 444.822 13064 518.386 Q13040.1 591.951 12991.4 668.108 L12939.6 668.108 Q12982.7 593.895 13003.8 520.655 Q13025.1 447.09 13025.1 372.229 Q13025.1 297.369 13003.8 224.453 Q12982.7 151.536 12939.6 76.9996 Z" fill="#000000" fill-rule="evenodd" fill-opacity="1" /><path clip-path="url(#clip6900)" d="M 0 0 M9663.92 12068.2 L9715.35 12068.2 L9715.35 12405.1 L9900.47 12405.1 L9900.47 12448.4 L9663.92 12448.4 L9663.92 12068.2 Z" fill="#000000" fill-rule="evenodd" fill-opacity="1" /><path clip-path="url(#clip6900)" d="M 0 0 M10051 12196 Q10013.3 12196 9991.37 12225.6 Q9969.47 12254.8 9969.47 12306 Q9969.47 12357.2 9991.12 12386.7 Q10013 12416 10051 12416 Q10088.4 12416 10110.3 12386.5 Q10132.2 12356.9 10132.2 12306 Q10132.2 12255.3 10110.3 12225.8 Q10088.4 12196 10051 12196 M10051 12156.3 Q10112.1 12156.3 10146.9 12196 Q10181.8 12235.7 10181.8 12306 Q10181.8 12376 10146.9 12416 Q10112.1 12455.7 10051 12455.7 Q9989.59 12455.7 9954.7 12416 Q9920.07 12376 9920.07 12306 Q9920.07 12235.7 9954.7 12196 Q9989.59 12156.3 10051 12156.3 Z" fill="#000000" fill-rule="evenodd" fill-opacity="1" /><path clip-path="url(#clip6900)" d="M 0 0 M10418.6 12302.4 Q10418.6 12251.5 10397.5 12223.5 Q10376.6 12195.5 10338.7 12195.5 Q10301 12195.5 10279.9 12223.5 Q10259 12251.5 10259 12302.4 Q10259 12353.1 10279.9 12381.1 Q10301 12409.1 10338.7 12409.1 Q10376.6 12409.1 10397.5 12381.1 Q10418.6 12353.1 10418.6 12302.4 M10465.5 12413 Q10465.5 12485.8 10433.1 12521.2 Q10400.8 12556.8 10334.1 12556.8 Q10309.4 12556.8 10287.5 12553 Q10265.6 12549.4 10245 12541.8 L10245 12496.2 Q10265.6 12507.4 10285.7 12512.8 Q10305.8 12518.1 10326.7 12518.1 Q10372.8 12518.1 10395.7 12493.9 Q10418.6 12470 10418.6 12421.4 L10418.6 12398.2 Q10404.1 12423.4 10381.5 12435.9 Q10358.8 12448.4 10327.2 12448.4 Q10274.8 12448.4 10242.7 12408.4 Q10210.6 12368.4 10210.6 12302.4 Q10210.6 12236.2 10242.7 12196.3 Q10274.8 12156.3 10327.2 12156.3 Q10358.8 12156.3 10381.5 12168.8 Q10404.1 12181.2 10418.6 12206.5 L10418.6 12163.2 L10465.5 12163.2 L10465.5 12413 Z" fill="#000000" fill-rule="evenodd" fill-opacity="1" /><path clip-path="url(#clip6900)" d="M 0 0 M10627.2 12052.7 Q10593.1 12111.2 10576.5 12168.5 Q10560 12225.8 10560 12284.6 Q10560 12343.4 10576.5 12401.2 Q10593.3 12458.8 10627.2 12517.1 L10586.4 12517.1 Q10548.2 12457.3 10529.1 12399.5 Q10510.3 12341.7 10510.3 12284.6 Q10510.3 12227.8 10529.1 12170.3 Q10548 12112.8 10586.4 12052.7 L10627.2 12052.7 Z" fill="#000000" fill-rule="evenodd" fill-opacity="1" /><path clip-path="url(#clip6900)" d="M 0 0 M10678.4 12068.2 L10729.8 12068.2 L10729.8 12405.1 L10914.9 12405.1 L10914.9 12448.4 L10678.4 12448.4 L10678.4 12068.2 Z" fill="#000000" fill-rule="evenodd" fill-opacity="1" /><path clip-path="url(#clip6900)" d="M 0 0 M10956.7 12052.7 L10997.4 12052.7 Q11035.6 12112.8 11054.4 12170.3 Q11073.5 12227.8 11073.5 12284.6 Q11073.5 12341.7 11054.4 12399.5 Q11035.6 12457.3 10997.4 12517.1 L10956.7 12517.1 Q10990.5 12458.8 11007.1 12401.2 Q11023.9 12343.4 11023.9 12284.6 Q11023.9 12225.8 11007.1 12168.5 Q10990.5 12111.2 10956.7 12052.7 Z" fill="#000000" fill-rule="evenodd" fill-opacity="1" /><path clip-path="url(#clip6900)" d="M 0 0 M353.156 6547.03 L407.391 6547.03 Q383.202 6573.01 371.234 6602.54 Q359.267 6631.83 359.267 6664.93 Q359.267 6730.11 399.243 6764.74 Q438.965 6799.37 514.335 6799.37 Q589.451 6799.37 629.427 6764.74 Q669.149 6730.11 669.149 6664.93 Q669.149 6631.83 657.182 6602.54 Q645.214 6573.01 621.024 6547.03 L674.751 6547.03 Q693.084 6574.02 702.251 6604.33 Q711.417 6634.37 711.417 6667.98 Q711.417 6754.3 658.709 6803.95 Q605.747 6853.61 514.335 6853.61 Q422.669 6853.61 369.961 6803.95 Q316.998 6754.3 316.998 6667.98 Q316.998 6633.86 326.165 6603.82 Q335.077 6573.52 353.156 6547.03 Z" fill="#000000" fill-rule="evenodd" fill-opacity="1" /><path clip-path="url(#clip6900)" d="M 0 0 M473.595 6275.86 Q442.021 6258.29 426.998 6233.84 Q411.975 6209.4 411.975 6176.3 Q411.975 6131.74 443.294 6107.55 Q474.359 6083.36 531.905 6083.36 L704.033 6083.36 L704.033 6130.46 L533.432 6130.46 Q492.437 6130.46 472.576 6144.98 Q452.715 6159.49 452.715 6189.28 Q452.715 6225.69 476.905 6246.83 Q501.095 6267.96 542.854 6267.96 L704.033 6267.96 L704.033 6315.07 L533.432 6315.07 Q492.183 6315.07 472.576 6329.58 Q452.715 6344.1 452.715 6374.4 Q452.715 6410.3 477.159 6431.43 Q501.349 6452.57 542.854 6452.57 L704.033 6452.57 L704.033 6499.67 L418.85 6499.67 L418.85 6452.57 L463.155 6452.57 Q436.928 6436.53 424.451 6414.12 Q411.975 6391.71 411.975 6360.9 Q411.975 6329.84 427.762 6308.19 Q443.549 6286.29 473.595 6275.86 Z" fill="#000000" fill-rule="evenodd" fill-opacity="1" /><path clip-path="url(#clip6900)" d="M 0 0 M560.678 5904.61 Q560.678 5961.39 573.664 5983.29 Q586.65 6005.19 617.969 6005.19 Q642.922 6005.19 657.691 5988.89 Q672.205 5972.34 672.205 5944.07 Q672.205 5905.12 644.705 5881.69 Q616.95 5858.01 571.117 5858.01 L560.678 5858.01 L560.678 5904.61 M541.326 5811.16 L704.033 5811.16 L704.033 5858.01 L660.746 5858.01 Q686.719 5874.05 699.195 5897.99 Q711.417 5921.92 711.417 5956.55 Q711.417 6000.35 686.973 6026.32 Q662.274 6052.04 621.024 6052.04 Q572.9 6052.04 548.455 6019.95 Q524.011 5987.62 524.011 5923.7 L524.011 5858.01 L519.428 5858.01 Q487.09 5858.01 469.521 5879.4 Q451.697 5900.53 451.697 5938.98 Q451.697 5963.43 457.553 5986.6 Q463.41 6009.77 475.122 6031.16 L431.836 6031.16 Q421.905 6005.44 417.067 5981.25 Q411.975 5957.06 411.975 5934.14 Q411.975 5872.27 444.058 5841.71 Q476.141 5811.16 541.326 5811.16 Z" fill="#000000" fill-rule="evenodd" fill-opacity="1" /><path clip-path="url(#clip6900)" d="M 0 0 M418.85 5524.96 L557.622 5628.08 L704.033 5519.61 L704.033 5574.86 L591.997 5657.87 L704.033 5740.88 L704.033 5796.14 L554.821 5685.37 L418.85 5786.71 L418.85 5731.46 L520.446 5655.84 L418.85 5580.21 L418.85 5524.96 Z" fill="#000000" fill-rule="evenodd" fill-opacity="1" /><circle clip-path="url(#clip6902)" cx="3407.55" cy="10103.2" r="57" fill="#009af9" fill-rule="evenodd" fill-opacity="1" stroke="#000000" stroke-opacity="1" stroke-width="7.68"/>
<circle clip-path="url(#clip6902)" cx="8581.18" cy="8460.85" r="57" fill="#009af9" fill-rule="evenodd" fill-opacity="1" stroke="#000000" stroke-opacity="1" stroke-width="7.68"/>
<circle clip-path="url(#clip6902)" cx="12251.9" cy="3963.9" r="57" fill="#009af9" fill-rule="evenodd" fill-opacity="1" stroke="#000000" stroke-opacity="1" stroke-width="7.68"/>
<circle clip-path="url(#clip6902)" cx="17425.5" cy="2064.61" r="57" fill="#009af9" fill-rule="evenodd" fill-opacity="1" stroke="#000000" stroke-opacity="1" stroke-width="7.68"/>
<polyline clip-path="url(#clip6902)" style="stroke:#e26f46; stroke-width:32; stroke-opacity:1; fill:none" points="
  2393.9,11091.2 2549.66,10995.4 3989.9,10109.6 4855.43,9577.32 5587.22,9127.26 6382.14,8638.38 7115,8187.67 7900.69,7704.46 8811,7144.62 9619.97,6647.1 
  10329.4,6210.81 11102.8,5735.15 11880.8,5256.66 12741,4727.62 13559.5,4224.26 14410.5,3700.88 15126.9,3260.31 16001.5,2722.41 16823.7,2216.78 18140.9,1406.72 
  18343.6,1282.05 
  "/>
<path clip-path="url(#clip6900)" d="
M2491.41 3107.46 L5992.7 3107.46 L5992.7 1655.94 L2491.41 1655.94  Z
  " fill="#ffffff" fill-rule="evenodd" fill-opacity="1"/>
<polyline clip-path="url(#clip6900)" style="stroke:#000000; stroke-width:32; stroke-opacity:1; fill:none" points="
  2491.41,3107.46 5992.7,3107.46 5992.7,1655.94 2491.41,1655.94 2491.41,3107.46 
  "/>
<circle clip-path="url(#clip6900)" cx="3355.41" cy="2139.78" r="172" fill="#009af9" fill-rule="evenodd" fill-opacity="1" stroke="#000000" stroke-opacity="1" stroke-width="7.68"/>
<path clip-path="url(#clip6900)" d="M 0 0 M4250.37 2022.83 L4250.37 2062.28 Q4231.48 2044.68 4210 2035.98 Q4188.71 2027.28 4164.63 2027.28 Q4117.23 2027.28 4092.04 2056.35 Q4066.86 2085.24 4066.86 2140.05 Q4066.86 2194.68 4092.04 2223.76 Q4117.23 2252.65 4164.63 2252.65 Q4188.71 2252.65 4210 2243.94 Q4231.48 2235.24 4250.37 2217.65 L4250.37 2256.72 Q4230.74 2270.05 4208.71 2276.72 Q4186.85 2283.39 4162.41 2283.39 Q4099.63 2283.39 4063.52 2245.05 Q4027.41 2206.54 4027.41 2140.05 Q4027.41 2073.39 4063.52 2035.06 Q4099.63 1996.54 4162.41 1996.54 Q4187.22 1996.54 4209.08 2003.2 Q4231.11 2009.69 4250.37 2022.83 Z" fill="#000000" fill-rule="evenodd" fill-opacity="1" /><path clip-path="url(#clip6900)" d="M 0 0 M4447.59 2110.43 Q4460.37 2087.46 4478.15 2076.54 Q4495.93 2065.61 4520 2065.61 Q4552.41 2065.61 4570 2088.39 Q4587.59 2110.98 4587.59 2152.83 L4587.59 2278.02 L4553.33 2278.02 L4553.33 2153.94 Q4553.33 2124.13 4542.78 2109.68 Q4532.22 2095.24 4510.56 2095.24 Q4484.07 2095.24 4468.7 2112.83 Q4453.33 2130.43 4453.33 2160.8 L4453.33 2278.02 L4419.08 2278.02 L4419.08 2153.94 Q4419.08 2123.94 4408.52 2109.68 Q4397.96 2095.24 4375.93 2095.24 Q4349.82 2095.24 4334.45 2113.02 Q4319.08 2130.61 4319.08 2160.8 L4319.08 2278.02 L4284.82 2278.02 L4284.82 2070.61 L4319.08 2070.61 L4319.08 2102.83 Q4330.74 2083.76 4347.04 2074.68 Q4363.33 2065.61 4385.74 2065.61 Q4408.33 2065.61 4424.08 2077.09 Q4440 2088.57 4447.59 2110.43 Z" fill="#000000" fill-rule="evenodd" fill-opacity="1" /><path clip-path="url(#clip6900)" d="M 0 0 M4717.59 2173.76 Q4676.3 2173.76 4660.37 2183.2 Q4644.44 2192.65 4644.44 2215.42 Q4644.44 2233.57 4656.3 2244.31 Q4668.33 2254.87 4688.89 2254.87 Q4717.22 2254.87 4734.26 2234.87 Q4751.48 2214.68 4751.48 2181.35 L4751.48 2173.76 L4717.59 2173.76 M4785.55 2159.68 L4785.55 2278.02 L4751.48 2278.02 L4751.48 2246.54 Q4739.81 2265.42 4722.41 2274.5 Q4705 2283.39 4679.81 2283.39 Q4647.96 2283.39 4629.07 2265.61 Q4610.37 2247.65 4610.37 2217.65 Q4610.37 2182.65 4633.7 2164.87 Q4657.22 2147.09 4703.7 2147.09 L4751.48 2147.09 L4751.48 2143.76 Q4751.48 2120.24 4735.93 2107.46 Q4720.56 2094.5 4692.59 2094.5 Q4674.81 2094.5 4657.96 2098.76 Q4641.11 2103.02 4625.56 2111.54 L4625.56 2080.06 Q4644.26 2072.83 4661.85 2069.31 Q4679.44 2065.61 4696.11 2065.61 Q4741.11 2065.61 4763.33 2088.94 Q4785.55 2112.28 4785.55 2159.68 Z" fill="#000000" fill-rule="evenodd" fill-opacity="1" /><path clip-path="url(#clip6900)" d="M 0 0 M4993.7 2070.61 L4918.7 2171.54 L4997.59 2278.02 L4957.41 2278.02 L4897.04 2196.54 L4836.67 2278.02 L4796.48 2278.02 L4877.04 2169.5 L4803.33 2070.61 L4843.52 2070.61 L4898.52 2144.5 L4953.52 2070.61 L4993.7 2070.61 Z" fill="#000000" fill-rule="evenodd" fill-opacity="1" /><polyline clip-path="url(#clip6900)" style="stroke:#e26f46; stroke-width:32; stroke-opacity:1; fill:none" points="
  2683.41,2623.62 3835.41,2623.62 
  "/>
<path clip-path="url(#clip6900)" d="M 0 0 M4027.41 2485.38 L4186.3 2485.38 L4186.3 2516.86 L4064.82 2516.86 L4064.82 2598.34 L4174.45 2598.34 L4174.45 2629.82 L4064.82 2629.82 L4064.82 2761.86 L4027.41 2761.86 L4027.41 2485.38 Z" fill="#000000" fill-rule="evenodd" fill-opacity="1" /><path clip-path="url(#clip6900)" d="M 0 0 M4194.45 2554.45 L4228.52 2554.45 L4228.52 2761.86 L4194.45 2761.86 L4194.45 2554.45 M4194.45 2473.71 L4228.52 2473.71 L4228.52 2516.86 L4194.45 2516.86 L4194.45 2473.71 Z" fill="#000000" fill-rule="evenodd" fill-opacity="1" /><path clip-path="url(#clip6900)" d="M 0 0 M4297.96 2495.56 L4297.96 2554.45 L4368.15 2554.45 L4368.15 2580.93 L4297.96 2580.93 L4297.96 2693.52 Q4297.96 2718.89 4304.82 2726.12 Q4311.85 2733.34 4333.15 2733.34 L4368.15 2733.34 L4368.15 2761.86 L4333.15 2761.86 Q4293.71 2761.86 4278.71 2747.23 Q4263.71 2732.41 4263.71 2693.52 L4263.71 2580.93 L4238.71 2580.93 L4238.71 2554.45 L4263.71 2554.45 L4263.71 2495.56 L4297.96 2495.56 Z" fill="#000000" fill-rule="evenodd" fill-opacity="1" /><path clip-path="url(#clip6900)" d="M 0 0 M4437.59 2495.56 L4437.59 2554.45 L4507.78 2554.45 L4507.78 2580.93 L4437.59 2580.93 L4437.59 2693.52 Q4437.59 2718.89 4444.45 2726.12 Q4451.48 2733.34 4472.78 2733.34 L4507.78 2733.34 L4507.78 2761.86 L4472.78 2761.86 Q4433.33 2761.86 4418.33 2747.23 Q4403.33 2732.41 4403.33 2693.52 L4403.33 2580.93 L4378.33 2580.93 L4378.33 2554.45 L4403.33 2554.45 L4403.33 2495.56 L4437.59 2495.56 Z" fill="#000000" fill-rule="evenodd" fill-opacity="1" /><path clip-path="url(#clip6900)" d="M 0 0 M4720.93 2649.64 L4720.93 2666.3 L4564.26 2666.3 Q4566.48 2701.49 4585.37 2720.01 Q4604.44 2738.34 4638.33 2738.34 Q4657.96 2738.34 4676.3 2733.52 Q4694.81 2728.71 4712.96 2719.08 L4712.96 2751.3 Q4694.63 2759.08 4675.37 2763.15 Q4656.11 2767.23 4636.3 2767.23 Q4586.67 2767.23 4557.59 2738.34 Q4528.7 2709.45 4528.7 2660.19 Q4528.7 2609.27 4556.11 2579.45 Q4583.7 2549.45 4630.37 2549.45 Q4672.22 2549.45 4696.48 2576.49 Q4720.93 2603.34 4720.93 2649.64 M4686.85 2639.64 Q4686.48 2611.67 4671.11 2595.01 Q4655.93 2578.34 4630.74 2578.34 Q4602.22 2578.34 4585 2594.45 Q4567.96 2610.56 4565.37 2639.82 L4686.85 2639.64 Z" fill="#000000" fill-rule="evenodd" fill-opacity="1" /><path clip-path="url(#clip6900)" d="M 0 0 M4893.15 2585.93 L4893.15 2473.71 L4927.22 2473.71 L4927.22 2761.86 L4893.15 2761.86 L4893.15 2730.75 Q4882.41 2749.26 4865.92 2758.34 Q4849.63 2767.23 4826.67 2767.23 Q4789.07 2767.23 4765.37 2737.23 Q4741.85 2707.23 4741.85 2658.34 Q4741.85 2609.45 4765.37 2579.45 Q4789.07 2549.45 4826.67 2549.45 Q4849.63 2549.45 4865.92 2558.52 Q4882.41 2567.41 4893.15 2585.93 M4777.04 2658.34 Q4777.04 2695.93 4792.41 2717.41 Q4807.96 2738.71 4835 2738.71 Q4862.04 2738.71 4877.59 2717.41 Q4893.15 2695.93 4893.15 2658.34 Q4893.15 2620.75 4877.59 2599.45 Q4862.04 2577.97 4835 2577.97 Q4807.96 2577.97 4792.41 2599.45 Q4777.04 2620.75 4777.04 2658.34 Z" fill="#000000" fill-rule="evenodd" fill-opacity="1" /><path clip-path="url(#clip6900)" d="M 0 0 M5083.52 2473.71 L5117.59 2473.71 L5117.59 2761.86 L5083.52 2761.86 L5083.52 2473.71 Z" fill="#000000" fill-rule="evenodd" fill-opacity="1" /><path clip-path="url(#clip6900)" d="M 0 0 M5153.33 2554.45 L5187.4 2554.45 L5187.4 2761.86 L5153.33 2761.86 L5153.33 2554.45 M5153.33 2473.71 L5187.4 2473.71 L5187.4 2516.86 L5153.33 2516.86 L5153.33 2473.71 Z" fill="#000000" fill-rule="evenodd" fill-opacity="1" /><path clip-path="url(#clip6900)" d="M 0 0 M5395.55 2636.67 L5395.55 2761.86 L5361.48 2761.86 L5361.48 2637.78 Q5361.48 2608.34 5350 2593.71 Q5338.51 2579.08 5315.55 2579.08 Q5287.96 2579.08 5272.03 2596.67 Q5256.11 2614.27 5256.11 2644.64 L5256.11 2761.86 L5221.85 2761.86 L5221.85 2554.45 L5256.11 2554.45 L5256.11 2586.67 Q5268.33 2567.97 5284.81 2558.71 Q5301.48 2549.45 5323.14 2549.45 Q5358.89 2549.45 5377.22 2571.67 Q5395.55 2593.71 5395.55 2636.67 Z" fill="#000000" fill-rule="evenodd" fill-opacity="1" /><path clip-path="url(#clip6900)" d="M 0 0 M5608.7 2649.64 L5608.7 2666.3 L5452.03 2666.3 Q5454.25 2701.49 5473.14 2720.01 Q5492.22 2738.34 5526.11 2738.34 Q5545.74 2738.34 5564.07 2733.52 Q5582.59 2728.71 5600.74 2719.08 L5600.74 2751.3 Q5582.4 2759.08 5563.14 2763.15 Q5543.88 2767.23 5524.07 2767.23 Q5474.44 2767.23 5445.37 2738.34 Q5416.48 2709.45 5416.48 2660.19 Q5416.48 2609.27 5443.88 2579.45 Q5471.48 2549.45 5518.14 2549.45 Q5560 2549.45 5584.25 2576.49 Q5608.7 2603.34 5608.7 2649.64 M5574.62 2639.64 Q5574.25 2611.67 5558.88 2595.01 Q5543.7 2578.34 5518.51 2578.34 Q5490 2578.34 5472.77 2594.45 Q5455.74 2610.56 5453.14 2639.82 L5574.62 2639.64 Z" fill="#000000" fill-rule="evenodd" fill-opacity="1" /></svg>
