<?xml version="1.0" encoding="utf-8"?>
<svg xmlns="http://www.w3.org/2000/svg" xmlns:xlink="http://www.w3.org/1999/xlink" width="4800" height="3200" viewBox="0 0 19200 12800">
<defs>
  <clipPath id="clip6200">
    <rect x="0" y="0" width="19200" height="12800"/>
  </clipPath>
</defs>
<path clip-path="url(#clip6200)" d="
M0 12800 L19200 12800 L19200 0 L0 0  Z
  " fill="#ffffff" fill-rule="evenodd" fill-opacity="1"/>
<defs>
  <clipPath id="clip6201">
    <rect x="3840" y="0" width="13441" height="12800"/>
  </clipPath>
</defs>
<path clip-path="url(#clip6200)" d="
M1798.93 11385.4 L18822 11385.4 L18822 377.953 L1798.93 377.953  Z
  " fill="#ffffff" fill-rule="evenodd" fill-opacity="1"/>
<defs>
  <clipPath id="clip6202">
    <rect x="1798" y="377" width="17024" height="11008"/>
  </clipPath>
</defs>
<polyline clip-path="url(#clip6202)" style="stroke:#000000; stroke-width:16; stroke-opacity:0.1; fill:none" points="
  1952.97,11385.4 1952.97,377.953 
  "/>
<polyline clip-path="url(#clip6202)" style="stroke:#000000; stroke-width:16; stroke-opacity:0.1; fill:none" points="
  5230.43,11385.4 5230.43,377.953 
  "/>
<polyline clip-path="url(#clip6202)" style="stroke:#000000; stroke-width:16; stroke-opacity:0.1; fill:none" points="
  8507.89,11385.4 8507.89,377.953 
  "/>
<polyline clip-path="url(#clip6202)" style="stroke:#000000; stroke-width:16; stroke-opacity:0.1; fill:none" points="
  11785.3,11385.4 11785.3,377.953 
  "/>
<polyline clip-path="url(#clip6202)" style="stroke:#000000; stroke-width:16; stroke-opacity:0.1; fill:none" points="
  15062.8,11385.4 15062.8,377.953 
  "/>
<polyline clip-path="url(#clip6202)" style="stroke:#000000; stroke-width:16; stroke-opacity:0.1; fill:none" points="
  18340.3,11385.4 18340.3,377.953 
  "/>
<polyline clip-path="url(#clip6202)" style="stroke:#000000; stroke-width:16; stroke-opacity:0.1; fill:none" points="
  1798.93,10354.2 18822,10354.2 
  "/>
<polyline clip-path="url(#clip6202)" style="stroke:#000000; stroke-width:16; stroke-opacity:0.1; fill:none" points="
  1798.93,8323.82 18822,8323.82 
  "/>
<polyline clip-path="url(#clip6202)" style="stroke:#000000; stroke-width:16; stroke-opacity:0.1; fill:none" points="
  1798.93,6293.42 18822,6293.42 
  "/>
<polyline clip-path="url(#clip6202)" style="stroke:#000000; stroke-width:16; stroke-opacity:0.1; fill:none" points="
  1798.93,4263.01 18822,4263.01 
  "/>
<polyline clip-path="url(#clip6202)" style="stroke:#000000; stroke-width:16; stroke-opacity:0.1; fill:none" points="
  1798.93,2232.6 18822,2232.6 
  "/>
<polyline clip-path="url(#clip6200)" style="stroke:#000000; stroke-width:32; stroke-opacity:1; fill:none" points="
  1798.93,11385.4 18822,11385.4 
  "/>
<polyline clip-path="url(#clip6200)" style="stroke:#000000; stroke-width:32; stroke-opacity:1; fill:none" points="
  1798.93,11385.4 1798.93,377.953 
  "/>
<polyline clip-path="url(#clip6200)" style="stroke:#000000; stroke-width:32; stroke-opacity:1; fill:none" points="
  1952.97,11385.4 1952.97,11253.3 
  "/>
<polyline clip-path="url(#clip6200)" style="stroke:#000000; stroke-width:32; stroke-opacity:1; fill:none" points="
  5230.43,11385.4 5230.43,11253.3 
  "/>
<polyline clip-path="url(#clip6200)" style="stroke:#000000; stroke-width:32; stroke-opacity:1; fill:none" points="
  8507.89,11385.4 8507.89,11253.3 
  "/>
<polyline clip-path="url(#clip6200)" style="stroke:#000000; stroke-width:32; stroke-opacity:1; fill:none" points="
  11785.3,11385.4 11785.3,11253.3 
  "/>
<polyline clip-path="url(#clip6200)" style="stroke:#000000; stroke-width:32; stroke-opacity:1; fill:none" points="
  15062.8,11385.4 15062.8,11253.3 
  "/>
<polyline clip-path="url(#clip6200)" style="stroke:#000000; stroke-width:32; stroke-opacity:1; fill:none" points="
  18340.3,11385.4 18340.3,11253.3 
  "/>
<polyline clip-path="url(#clip6200)" style="stroke:#000000; stroke-width:32; stroke-opacity:1; fill:none" points="
  1798.93,10354.2 2003.21,10354.2 
  "/>
<polyline clip-path="url(#clip6200)" style="stroke:#000000; stroke-width:32; stroke-opacity:1; fill:none" points="
  1798.93,8323.82 2003.21,8323.82 
  "/>
<polyline clip-path="url(#clip6200)" style="stroke:#000000; stroke-width:32; stroke-opacity:1; fill:none" points="
  1798.93,6293.42 2003.21,6293.42 
  "/>
<polyline clip-path="url(#clip6200)" style="stroke:#000000; stroke-width:32; stroke-opacity:1; fill:none" points="
  1798.93,4263.01 2003.21,4263.01 
  "/>
<polyline clip-path="url(#clip6200)" style="stroke:#000000; stroke-width:32; stroke-opacity:1; fill:none" points="
  1798.93,2232.6 2003.21,2232.6 
  "/>
<path clip-path="url(#clip6200)" d="M 0 0 M1952.97 11561.4 Q1924.08 11561.4 1909.45 11589.9 Q1895.01 11618.2 1895.01 11675.3 Q1895.01 11732.1 1909.45 11760.6 Q1924.08 11789 1952.97 11789 Q1982.04 11789 1996.49 11760.6 Q2011.12 11732.1 2011.12 11675.3 Q2011.12 11618.2 1996.49 11589.9 Q1982.04 11561.4 1952.97 11561.4 M1952.97 11531.7 Q1999.45 11531.7 2023.9 11568.6 Q2048.53 11605.3 2048.53 11675.3 Q2048.53 11745.1 2023.9 11781.9 Q1999.45 11818.6 1952.97 11818.6 Q1906.49 11818.6 1881.86 11781.9 Q1857.42 11745.1 1857.42 11675.3 Q1857.42 11605.3 1881.86 11568.6 Q1906.49 11531.7 1952.97 11531.7 Z" fill="#000000" fill-rule="evenodd" fill-opacity="1" /><path clip-path="url(#clip6200)" d="M 0 0 M5153.48 11781.7 L5214.6 11781.7 L5214.6 11570.8 L5148.11 11584.1 L5148.11 11550.1 L5214.22 11536.7 L5251.63 11536.7 L5251.63 11781.7 L5312.74 11781.7 L5312.74 11813.2 L5153.48 11813.2 L5153.48 11781.7 Z" fill="#000000" fill-rule="evenodd" fill-opacity="1" /><path clip-path="url(#clip6200)" d="M 0 0 M8465.11 11781.7 L8595.66 11781.7 L8595.66 11813.2 L8420.11 11813.2 L8420.11 11781.7 Q8441.41 11759.7 8478.07 11722.7 Q8514.92 11685.4 8524.37 11674.7 Q8542.33 11654.5 8549.37 11640.6 Q8556.59 11626.5 8556.59 11613 Q8556.59 11591 8541.03 11577.1 Q8525.66 11563.2 8500.85 11563.2 Q8483.26 11563.2 8463.63 11569.3 Q8444.18 11575.4 8421.96 11587.8 L8421.96 11550.1 Q8444.55 11541 8464.18 11536.4 Q8483.81 11531.7 8500.11 11531.7 Q8543.07 11531.7 8568.63 11553.2 Q8594.18 11574.7 8594.18 11610.6 Q8594.18 11627.7 8587.7 11643 Q8581.4 11658.2 8564.55 11679 Q8559.92 11684.3 8535.11 11710.1 Q8510.29 11735.6 8465.11 11781.7 Z" fill="#000000" fill-rule="evenodd" fill-opacity="1" /><path clip-path="url(#clip6200)" d="M 0 0 M11819.3 11664.1 Q11846.2 11669.9 11861.2 11688 Q11876.4 11706.2 11876.4 11732.8 Q11876.4 11773.8 11848.2 11796.2 Q11820.1 11818.6 11768.2 11818.6 Q11750.8 11818.6 11732.3 11815.1 Q11714 11811.7 11694.3 11804.9 L11694.3 11768.8 Q11709.9 11777.8 11728.4 11782.5 Q11746.9 11787.1 11767.1 11787.1 Q11802.3 11787.1 11820.6 11773.2 Q11839.1 11759.3 11839.1 11732.8 Q11839.1 11708.4 11821.9 11694.7 Q11804.9 11680.8 11774.3 11680.8 L11742.1 11680.8 L11742.1 11650.1 L11775.8 11650.1 Q11803.4 11650.1 11818 11639.1 Q11832.7 11628 11832.7 11607.3 Q11832.7 11586 11817.5 11574.7 Q11802.5 11563.2 11774.3 11563.2 Q11759 11563.2 11741.4 11566.5 Q11723.8 11569.9 11702.7 11576.9 L11702.7 11543.6 Q11724 11537.7 11742.5 11534.7 Q11761.2 11531.7 11777.7 11531.7 Q11820.3 11531.7 11845.1 11551.2 Q11869.9 11570.4 11869.9 11603.4 Q11869.9 11626.4 11856.7 11642.3 Q11843.6 11658 11819.3 11664.1 Z" fill="#000000" fill-rule="evenodd" fill-opacity="1" /><path clip-path="url(#clip6200)" d="M 0 0 M15086.9 11569.3 L14992.4 11716.9 L15086.9 11716.9 L15086.9 11569.3 M15077.1 11536.7 L15124.1 11536.7 L15124.1 11716.9 L15163.5 11716.9 L15163.5 11748 L15124.1 11748 L15124.1 11813.2 L15086.9 11813.2 L15086.9 11748 L14962.1 11748 L14962.1 11711.9 L15077.1 11536.7 Z" fill="#000000" fill-rule="evenodd" fill-opacity="1" /><path clip-path="url(#clip6200)" d="M 0 0 M18262.5 11536.7 L18409.3 11536.7 L18409.3 11568.2 L18296.7 11568.2 L18296.7 11636 Q18304.9 11633.2 18313 11631.9 Q18321.2 11630.4 18329.3 11630.4 Q18375.6 11630.4 18402.7 11655.8 Q18429.7 11681.2 18429.7 11724.5 Q18429.7 11769.1 18401.9 11794 Q18374.1 11818.6 18323.6 11818.6 Q18306.2 11818.6 18288 11815.6 Q18270.1 11812.7 18250.8 11806.7 L18250.8 11769.1 Q18267.5 11778.2 18285.3 11782.7 Q18303 11787.1 18322.9 11787.1 Q18354.9 11787.1 18373.6 11770.3 Q18392.3 11753.4 18392.3 11724.5 Q18392.3 11695.6 18373.6 11678.8 Q18354.9 11661.9 18322.9 11661.9 Q18307.9 11661.9 18292.9 11665.3 Q18278 11668.6 18262.5 11675.6 L18262.5 11536.7 Z" fill="#000000" fill-rule="evenodd" fill-opacity="1" /><path clip-path="url(#clip6200)" d="M 0 0 M1268.23 10461 L1398.78 10461 L1398.78 10492.5 L1223.23 10492.5 L1223.23 10461 Q1244.52 10439 1281.19 10401.9 Q1318.04 10364.7 1327.49 10354 Q1345.45 10333.8 1352.49 10319.9 Q1359.71 10305.8 1359.71 10292.3 Q1359.71 10270.3 1344.15 10256.4 Q1328.78 10242.5 1303.97 10242.5 Q1286.38 10242.5 1266.75 10248.6 Q1247.3 10254.7 1225.08 10267.1 L1225.08 10229.3 Q1247.67 10220.3 1267.3 10215.6 Q1286.93 10211 1303.23 10211 Q1346.19 10211 1371.75 10232.5 Q1397.3 10254 1397.3 10289.9 Q1397.3 10306.9 1390.82 10322.3 Q1384.52 10337.5 1367.67 10358.2 Q1363.04 10363.6 1338.23 10389.3 Q1313.41 10414.9 1268.23 10461 Z" fill="#000000" fill-rule="evenodd" fill-opacity="1" /><path clip-path="url(#clip6200)" d="M 0 0 M1439.71 10216 L1586.56 10216 L1586.56 10247.5 L1473.97 10247.5 L1473.97 10315.3 Q1482.12 10312.5 1490.26 10311.2 Q1498.41 10309.7 1506.56 10309.7 Q1552.86 10309.7 1579.89 10335.1 Q1606.93 10360.4 1606.93 10403.8 Q1606.93 10448.4 1579.15 10473.2 Q1551.37 10497.8 1500.82 10497.8 Q1483.41 10497.8 1465.26 10494.9 Q1447.3 10491.9 1428.04 10486 L1428.04 10448.4 Q1444.71 10457.5 1462.49 10461.9 Q1480.26 10466.4 1500.08 10466.4 Q1532.12 10466.4 1550.82 10449.5 Q1569.52 10432.7 1569.52 10403.8 Q1569.52 10374.9 1550.82 10358 Q1532.12 10341.2 1500.08 10341.2 Q1485.08 10341.2 1470.08 10344.5 Q1455.26 10347.8 1439.71 10354.9 L1439.71 10216 Z" fill="#000000" fill-rule="evenodd" fill-opacity="1" /><path clip-path="url(#clip6200)" d="M 0 0 M1223.6 8185.58 L1370.45 8185.58 L1370.45 8217.07 L1257.86 8217.07 L1257.86 8284.84 Q1266.01 8282.07 1274.15 8280.77 Q1282.3 8279.29 1290.45 8279.29 Q1336.75 8279.29 1363.78 8304.66 Q1390.82 8330.03 1390.82 8373.36 Q1390.82 8417.99 1363.04 8442.81 Q1335.26 8467.43 1284.71 8467.43 Q1267.3 8467.43 1249.15 8464.47 Q1231.19 8461.51 1211.93 8455.58 L1211.93 8417.99 Q1228.6 8427.06 1246.38 8431.51 Q1264.15 8435.95 1283.97 8435.95 Q1316.01 8435.95 1334.71 8419.1 Q1353.41 8402.25 1353.41 8373.36 Q1353.41 8344.47 1334.71 8327.62 Q1316.01 8310.77 1283.97 8310.77 Q1268.97 8310.77 1253.97 8314.1 Q1239.15 8317.44 1223.6 8324.47 L1223.6 8185.58 Z" fill="#000000" fill-rule="evenodd" fill-opacity="1" /><path clip-path="url(#clip6200)" d="M 0 0 M1511.37 8210.21 Q1482.49 8210.21 1467.86 8238.73 Q1453.41 8267.07 1453.41 8324.1 Q1453.41 8380.95 1467.86 8409.47 Q1482.49 8437.81 1511.37 8437.81 Q1540.45 8437.81 1554.89 8409.47 Q1569.52 8380.95 1569.52 8324.1 Q1569.52 8267.07 1554.89 8238.73 Q1540.45 8210.21 1511.37 8210.21 M1511.37 8180.58 Q1557.86 8180.58 1582.3 8217.44 Q1606.93 8254.1 1606.93 8324.1 Q1606.93 8393.92 1582.3 8430.77 Q1557.86 8467.43 1511.37 8467.43 Q1464.89 8467.43 1440.26 8430.77 Q1415.82 8393.92 1415.82 8324.1 Q1415.82 8254.1 1440.26 8217.44 Q1464.89 8180.58 1511.37 8180.58 Z" fill="#000000" fill-rule="evenodd" fill-opacity="1" /><path clip-path="url(#clip6200)" d="M 0 0 M1221.01 6155.18 L1398.78 6155.18 L1398.78 6171.1 L1298.41 6431.66 L1259.34 6431.66 L1353.78 6186.66 L1221.01 6186.66 L1221.01 6155.18 Z" fill="#000000" fill-rule="evenodd" fill-opacity="1" /><path clip-path="url(#clip6200)" d="M 0 0 M1439.71 6155.18 L1586.56 6155.18 L1586.56 6186.66 L1473.97 6186.66 L1473.97 6254.43 Q1482.12 6251.66 1490.26 6250.36 Q1498.41 6248.88 1506.56 6248.88 Q1552.86 6248.88 1579.89 6274.25 Q1606.93 6299.62 1606.93 6342.95 Q1606.93 6387.58 1579.15 6412.4 Q1551.37 6437.03 1500.82 6437.03 Q1483.41 6437.03 1465.26 6434.06 Q1447.3 6431.1 1428.04 6425.17 L1428.04 6387.58 Q1444.71 6396.66 1462.49 6401.1 Q1480.26 6405.54 1500.08 6405.54 Q1532.12 6405.54 1550.82 6388.69 Q1569.52 6371.84 1569.52 6342.95 Q1569.52 6314.06 1550.82 6297.21 Q1532.12 6280.36 1500.08 6280.36 Q1485.08 6280.36 1470.08 6283.69 Q1455.26 6287.03 1439.71 6294.06 L1439.71 6155.18 Z" fill="#000000" fill-rule="evenodd" fill-opacity="1" /><path clip-path="url(#clip6200)" d="M 0 0 M1015.45 4369.76 L1076.56 4369.76 L1076.56 4158.84 L1010.08 4172.17 L1010.08 4138.1 L1076.19 4124.77 L1113.6 4124.77 L1113.6 4369.76 L1174.71 4369.76 L1174.71 4401.25 L1015.45 4401.25 L1015.45 4369.76 Z" fill="#000000" fill-rule="evenodd" fill-opacity="1" /><path clip-path="url(#clip6200)" d="M 0 0 M1295.26 4149.4 Q1266.38 4149.4 1251.75 4177.91 Q1237.3 4206.25 1237.3 4263.28 Q1237.3 4320.14 1251.75 4348.65 Q1266.38 4376.99 1295.26 4376.99 Q1324.34 4376.99 1338.78 4348.65 Q1353.41 4320.14 1353.41 4263.28 Q1353.41 4206.25 1338.78 4177.91 Q1324.34 4149.4 1295.26 4149.4 M1295.26 4119.77 Q1341.75 4119.77 1366.19 4156.62 Q1390.82 4193.28 1390.82 4263.28 Q1390.82 4333.1 1366.19 4369.95 Q1341.75 4406.62 1295.26 4406.62 Q1248.78 4406.62 1224.15 4369.95 Q1199.71 4333.1 1199.71 4263.28 Q1199.71 4193.28 1224.15 4156.62 Q1248.78 4119.77 1295.26 4119.77 Z" fill="#000000" fill-rule="evenodd" fill-opacity="1" /><path clip-path="url(#clip6200)" d="M 0 0 M1511.37 4149.4 Q1482.49 4149.4 1467.86 4177.91 Q1453.41 4206.25 1453.41 4263.28 Q1453.41 4320.14 1467.86 4348.65 Q1482.49 4376.99 1511.37 4376.99 Q1540.45 4376.99 1554.89 4348.65 Q1569.52 4320.14 1569.52 4263.28 Q1569.52 4206.25 1554.89 4177.91 Q1540.45 4149.4 1511.37 4149.4 M1511.37 4119.77 Q1557.86 4119.77 1582.3 4156.62 Q1606.93 4193.28 1606.93 4263.28 Q1606.93 4333.1 1582.3 4369.95 Q1557.86 4406.62 1511.37 4406.62 Q1464.89 4406.62 1440.26 4369.95 Q1415.82 4333.1 1415.82 4263.28 Q1415.82 4193.28 1440.26 4156.62 Q1464.89 4119.77 1511.37 4119.77 Z" fill="#000000" fill-rule="evenodd" fill-opacity="1" /><path clip-path="url(#clip6200)" d="M 0 0 M1036.19 2339.36 L1097.3 2339.36 L1097.3 2128.43 L1030.82 2141.76 L1030.82 2107.69 L1096.93 2094.36 L1134.34 2094.36 L1134.34 2339.36 L1195.45 2339.36 L1195.45 2370.84 L1036.19 2370.84 L1036.19 2339.36 Z" fill="#000000" fill-rule="evenodd" fill-opacity="1" /><path clip-path="url(#clip6200)" d="M 0 0 M1268.23 2339.36 L1398.78 2339.36 L1398.78 2370.84 L1223.23 2370.84 L1223.23 2339.36 Q1244.52 2317.32 1281.19 2280.28 Q1318.04 2243.06 1327.49 2232.32 Q1345.45 2212.13 1352.49 2198.24 Q1359.71 2184.17 1359.71 2170.65 Q1359.71 2148.62 1344.15 2134.73 Q1328.78 2120.84 1303.97 2120.84 Q1286.38 2120.84 1266.75 2126.95 Q1247.3 2133.06 1225.08 2145.47 L1225.08 2107.69 Q1247.67 2098.62 1267.3 2093.99 Q1286.93 2089.36 1303.23 2089.36 Q1346.19 2089.36 1371.75 2110.84 Q1397.3 2132.32 1397.3 2168.24 Q1397.3 2185.28 1390.82 2200.65 Q1384.52 2215.84 1367.67 2236.58 Q1363.04 2241.95 1338.23 2267.69 Q1313.41 2293.24 1268.23 2339.36 Z" fill="#000000" fill-rule="evenodd" fill-opacity="1" /><path clip-path="url(#clip6200)" d="M 0 0 M1439.71 2094.36 L1586.56 2094.36 L1586.56 2125.84 L1473.97 2125.84 L1473.97 2193.62 Q1482.12 2190.84 1490.26 2189.54 Q1498.41 2188.06 1506.56 2188.06 Q1552.86 2188.06 1579.89 2213.43 Q1606.93 2238.8 1606.93 2282.13 Q1606.93 2326.76 1579.15 2351.58 Q1551.37 2376.21 1500.82 2376.21 Q1483.41 2376.21 1465.26 2373.24 Q1447.3 2370.28 1428.04 2364.36 L1428.04 2326.76 Q1444.71 2335.84 1462.49 2340.28 Q1480.26 2344.73 1500.08 2344.73 Q1532.12 2344.73 1550.82 2327.87 Q1569.52 2311.02 1569.52 2282.13 Q1569.52 2253.24 1550.82 2236.39 Q1532.12 2219.54 1500.08 2219.54 Q1485.08 2219.54 1470.08 2222.87 Q1455.26 2226.21 1439.71 2233.24 L1439.71 2094.36 Z" fill="#000000" fill-rule="evenodd" fill-opacity="1" /><path clip-path="url(#clip6200)" d="M 0 0 M10149.7 12068.2 L10471.3 12068.2 L10471.3 12111.5 L10336.3 12111.5 L10336.3 12448.4 L10284.6 12448.4 L10284.6 12111.5 L10149.7 12111.5 L10149.7 12068.2 Z" fill="#000000" fill-rule="evenodd" fill-opacity="1" /><path clip-path="url(#clip6200)" d="M 0 0 M336.35 6317.36 L386.512 6317.36 Q372.507 6346.65 365.632 6372.62 Q358.757 6398.59 358.757 6422.78 Q358.757 6464.79 375.054 6487.71 Q391.35 6510.37 421.396 6510.37 Q446.604 6510.37 459.59 6495.35 Q472.322 6480.07 480.215 6437.8 L486.581 6406.74 Q497.53 6349.19 525.284 6321.95 Q552.784 6294.45 599.126 6294.45 Q654.381 6294.45 682.899 6331.62 Q711.417 6368.54 711.417 6440.1 Q711.417 6467.09 705.306 6497.64 Q699.195 6527.94 687.228 6560.53 L634.265 6560.53 Q651.834 6529.22 660.746 6499.17 Q669.658 6469.12 669.658 6440.1 Q669.658 6396.04 652.344 6372.11 Q635.029 6348.17 602.946 6348.17 Q574.937 6348.17 559.15 6365.49 Q543.363 6382.55 535.469 6421.76 L529.358 6453.08 Q517.9 6510.63 493.456 6536.35 Q469.011 6562.06 425.47 6562.06 Q375.054 6562.06 346.026 6526.67 Q316.998 6491.02 316.998 6428.64 Q316.998 6401.9 321.836 6374.15 Q326.674 6346.39 336.35 6317.36 Z" fill="#000000" fill-rule="evenodd" fill-opacity="1" /><path clip-path="url(#clip6200)" d="M 0 0 M790.607 6028.62 L827.019 6028.62 L827.019 6299.54 L790.607 6299.54 L790.607 6028.62 Z" fill="#000000" fill-rule="evenodd" fill-opacity="1" /><path clip-path="url(#clip6200)" d="M 0 0 M427.252 5797.67 L471.558 5797.67 Q461.373 5817.53 456.28 5838.92 Q451.187 5860.31 451.187 5883.22 Q451.187 5918.11 461.882 5935.68 Q472.576 5952.99 493.965 5952.99 Q510.261 5952.99 519.682 5940.51 Q528.849 5928.04 537.252 5890.35 L540.817 5874.31 Q551.511 5824.4 571.117 5803.52 Q590.469 5782.39 625.353 5782.39 Q665.075 5782.39 688.246 5813.96 Q711.417 5845.28 711.417 5900.28 Q711.417 5923.2 706.834 5948.15 Q702.505 5972.85 693.594 6000.35 L645.214 6000.35 Q658.709 5974.38 665.584 5949.17 Q672.205 5923.96 672.205 5899.27 Q672.205 5866.16 661.001 5848.34 Q649.543 5830.52 628.918 5830.52 Q609.821 5830.52 599.636 5843.5 Q589.451 5856.23 580.029 5899.77 L576.21 5916.07 Q567.043 5959.61 548.201 5978.96 Q529.104 5998.32 496.002 5998.32 Q455.771 5998.32 433.873 5969.8 Q411.975 5941.28 411.975 5888.83 Q411.975 5862.85 415.794 5839.94 Q419.613 5817.02 427.252 5797.67 Z" fill="#000000" fill-rule="evenodd" fill-opacity="1" /><path clip-path="url(#clip6200)" d="M 0 0 M418.85 5733.25 L418.85 5686.4 L704.033 5686.4 L704.033 5733.25 L418.85 5733.25 M307.832 5733.25 L307.832 5686.4 L367.16 5686.4 L367.16 5733.25 L307.832 5733.25 Z" fill="#000000" fill-rule="evenodd" fill-opacity="1" /><path clip-path="url(#clip6200)" d="M 0 0 M337.878 5590.91 L418.85 5590.91 L418.85 5494.41 L455.261 5494.41 L455.261 5590.91 L610.075 5590.91 Q644.96 5590.91 654.89 5581.49 Q664.821 5571.81 664.821 5542.53 L664.821 5494.41 L704.033 5494.41 L704.033 5542.53 Q704.033 5596.77 683.918 5617.39 Q663.547 5638.02 610.075 5638.02 L455.261 5638.02 L455.261 5672.39 L418.85 5672.39 L418.85 5638.02 L337.878 5638.02 L337.878 5590.91 Z" fill="#000000" fill-rule="evenodd" fill-opacity="1" /><path clip-path="url(#clip6200)" d="M 0 0 M549.729 5201.33 L572.645 5201.33 L572.645 5416.74 Q621.024 5413.69 646.487 5387.72 Q671.695 5361.49 671.695 5314.89 Q671.695 5287.9 665.075 5262.69 Q658.455 5237.23 645.214 5212.28 L689.519 5212.28 Q700.214 5237.49 705.816 5263.97 Q711.417 5290.45 711.417 5317.69 Q711.417 5385.93 671.695 5425.91 Q631.973 5465.63 564.242 5465.63 Q494.22 5465.63 453.224 5427.95 Q411.975 5390.01 411.975 5325.84 Q411.975 5268.3 449.15 5234.94 Q486.071 5201.33 549.729 5201.33 M535.979 5248.18 Q497.53 5248.69 474.613 5269.82 Q451.697 5290.7 451.697 5325.33 Q451.697 5364.55 473.849 5388.23 Q496.002 5411.65 536.233 5415.22 L535.979 5248.18 Z" fill="#000000" fill-rule="evenodd" fill-opacity="1" /><polyline clip-path="url(#clip6202)" style="stroke:#009af9; stroke-width:48; stroke-opacity:1; fill:none" points="
  2280.72,689.485 2320.97,689.485 2361.22,689.485 2401.46,689.485 2441.71,689.485 2481.96,689.485 2522.21,689.485 2562.46,689.485 2602.71,689.485 2642.96,689.485 
  2683.21,689.485 2723.46,689.485 2763.71,689.485 2803.96,689.485 2844.21,689.485 2884.46,689.485 2924.71,689.485 2964.96,689.485 3005.21,689.485 3045.46,689.485 
  3085.71,689.485 3125.96,689.485 3166.2,689.485 3206.45,689.485 3246.7,689.485 3286.95,689.485 3327.2,689.487 3367.45,689.485 3407.7,689.485 3447.95,689.485 
  3488.2,689.485 3528.45,689.494 3568.7,689.485 3608.95,689.485 3649.2,689.485 3689.45,689.488 3729.7,689.5 3769.95,689.485 3810.2,689.511 3850.45,689.499 
  3890.7,689.507 3930.95,689.501 3971.19,689.506 4011.44,689.485 4051.69,689.529 4091.94,689.54 4132.19,689.59 4172.44,689.611 4212.69,689.662 4252.94,689.775 
  4293.19,689.915 4333.44,689.948 4373.69,689.931 4413.94,689.85 4454.19,690.326 4494.44,690.31 4534.69,690.563 4574.94,690.49 4615.19,690.765 4655.44,691.115 
  4695.69,690.778 4735.93,691.067 4776.18,691.775 4816.43,692.692 4856.68,692.358 4896.93,692.752 4937.18,693.428 4977.43,694.004 5017.68,693.445 5057.93,694.852 
  5098.18,695.785 5138.43,695.687 5178.68,697.594 5218.93,697.542 5259.18,699.248 5299.43,699.216 5339.68,701.048 5379.93,702.097 5420.18,703.175 5460.43,704.35 
  5500.68,705.49 5540.92,706.439 5581.17,707.455 5621.42,709.119 5661.67,711.024 5701.92,715.102 5742.17,717.274 5782.42,718.252 5822.67,719.015 5862.92,722.041 
  5903.17,724.348 5943.42,727.703 5983.67,729.403 6023.92,734.591 6064.17,738.266 6104.42,740.273 6144.67,742.403 6184.92,747.049 6225.17,752.834 6265.42,756.051 
  6305.66,763.221 6345.91,762.226 6386.16,768.915 6426.41,776.483 6466.66,776.901 6506.91,783.085 6547.16,791.087 6587.41,798.783 6627.66,801.186 6667.91,808.38 
  6708.16,814.735 6748.41,819.855 6788.66,833.441 6828.91,840.583 6869.16,846.216 6909.41,853.971 6949.66,866.346 6989.91,876.939 7030.16,880.953 7070.41,896.663 
  7110.65,901.182 7150.9,910.364 7191.15,923.89 7231.4,934.916 7271.65,949.108 7311.9,964.153 7352.15,978.641 7392.4,995.356 7432.65,1009.48 7472.9,1020.5 
  7513.15,1041.63 7553.4,1067.88 7593.65,1080.97 7633.9,1081.31 7674.15,1098.88 7714.4,1110.67 7754.65,1142.05 7794.9,1170.06 7835.15,1183.1 7875.39,1195.29 
  7915.64,1241.62 7955.89,1308.2 7996.14,1251.56 8036.39,1330.32 8076.64,1336.26 8116.89,1386.11 8157.14,1388.39 8197.39,1413.05 8237.64,1468.96 8277.89,1518.59 
  8318.14,1490.33 8358.39,1583.8 8398.64,1641.9 8438.89,1649.55 8479.14,1697.82 8519.39,1736.85 8559.64,1790.17 8599.89,1805.85 8640.13,1826.25 8680.38,1972.81 
  8720.63,2004.02 8760.88,2060.44 8801.13,2236.5 8841.38,2238.72 8881.63,2339.88 8921.88,2409.39 8962.13,2605.38 9002.38,2524.12 9042.63,2609.66 9082.88,2950.87 
  9123.13,2917.6 9163.38,3055.73 9203.63,3234.43 9243.88,3356.25 9284.13,3514.37 9324.38,3432.36 9364.63,3579.49 9404.88,3806.64 9445.12,3736.78 9485.37,4289.88 
  9525.62,4188.86 9565.87,4364.81 9606.12,4458.42 9646.37,4716.24 9686.62,5131.6 9726.87,5286.8 9767.12,5013.91 9807.37,5122.63 9847.62,5767.23 9887.87,5627.53 
  9928.12,6132.08 9968.37,6050.34 10008.6,6213.99 10048.9,6353.08 10089.1,6523.03 10129.4,6808.27 10169.6,6862.09 10209.9,6771.35 10250.1,7288.55 10290.4,7114.63 
  10330.6,7171.16 10370.9,7501.62 10411.1,7708.64 10451.4,7958.79 10491.6,8040.39 10531.9,7998.63 10572.1,7928 10612.4,8056.47 10652.6,8244.57 10692.9,8301.6 
  10733.1,8500.24 10773.4,8459.47 10813.6,8462.15 10853.9,8655.24 10894.1,8555.88 10934.4,8610.89 10974.6,8796.24 11014.9,8955.93 11055.1,8816.99 11095.4,8863.88 
  11135.6,9021.46 11175.9,9159.41 11216.1,9132.71 11256.4,8982.69 11296.6,9284.5 11336.9,9309.96 11377.1,9327.14 11417.3,9469.32 11457.6,9469.78 11497.8,9440.47 
  11538.1,9506.32 11578.3,9463.98 11618.6,9538.7 11658.8,9490.57 11699.1,9597.88 11739.3,9631.8 11779.6,9597.46 11819.8,9695.34 11860.1,9684.95 11900.3,9739.36 
  11940.6,9879.62 11980.8,9883.73 12021.1,9826.41 12061.3,9909.63 12101.6,9899.05 12141.8,9908.13 12182.1,9934.34 12222.3,10060.5 12262.6,10146.4 12302.8,9982.29 
  12343.1,10048.2 12383.3,10003.4 12423.6,10053.9 12463.8,10102 12504.1,10149.2 12544.3,10039.1 12584.6,10162.8 12624.8,10073.9 12665.1,10165.6 12705.3,10225.4 
  12745.6,10278.3 12785.8,10203.1 12826.1,10243.5 12866.3,10173.9 12906.6,10278.4 12946.8,10250.1 12987.1,10348.7 13027.3,10323.2 13067.6,10395.7 13107.8,10286.8 
  13148.1,10369.7 13188.3,10411.5 13228.6,10321.7 13268.8,10409.1 13309.1,10389.3 13349.3,10442.9 13389.6,10444.5 13429.8,10480 13470.1,10401.9 13510.3,10502.4 
  13550.6,10490.2 13590.8,10511.2 13631.1,10477.1 13671.3,10529.7 13711.6,10476.4 13751.8,10515.3 13792.1,10496.3 13832.3,10550.2 13872.6,10542.3 13912.8,10579.3 
  13953.1,10577.4 13993.3,10608.9 14033.6,10608.4 14073.8,10562 14114.1,10636.4 14154.3,10610 14194.6,10602.7 14234.8,10620.4 14275.1,10645.9 14315.3,10663.5 
  14355.6,10666.3 14395.8,10629.5 14436.1,10681.2 14476.3,10691.3 14516.6,10662.4 14556.8,10683.4 14597.1,10681.8 14637.3,10689.3 14677.6,10655.4 14717.8,10702.6 
  14758.1,10739.5 14798.3,10728.9 14838.6,10749.2 14878.8,10713.2 14919.1,10773.4 14959.3,10758.4 14999.6,10752.2 15039.8,10744.6 15080.1,10792.8 15120.3,10781.8 
  15160.6,10779.1 15200.8,10812.6 15241.1,10806.8 15281.3,10803.8 15321.5,10808.5 15361.8,10791.9 15402,10790.4 15442.3,10799.1 15482.5,10814 15522.8,10834.2 
  15563,10825.6 15603.3,10850.8 15643.5,10854.4 15683.8,10833.4 15724,10871.1 15764.3,10880.3 15804.5,10880.9 15844.8,10865.9 15885,10883.9 15925.3,10859.1 
  15965.5,10850.4 16005.8,10896.8 16046,10881.9 16086.3,10893 16126.5,10894 16166.8,10916.7 16207,10927.1 16247.3,10922.6 16287.5,10890.5 16327.8,10879.8 
  16368,10905.4 16408.3,10905.4 16448.5,10923.2 16488.8,10922.8 16529,10960.5 16569.3,10939.4 16609.5,10967.5 16649.8,10960.5 16690,10971.1 16730.3,10948.7 
  16770.5,10939.6 16810.8,10964.3 16851,10979.1 16891.3,10945.3 16931.5,10969 16971.8,10972.7 17012,10991.3 17052.3,10966.5 17092.5,10986.1 17132.8,10974.2 
  17173,11003.3 17213.3,10983.3 17253.5,11013.2 17293.8,10976.7 17334,10993.5 17374.3,10976.6 17414.5,11011.8 17454.8,11023.5 17495,11021.5 17535.3,11024.7 
  17575.5,11021.2 17615.8,11012.3 17656,11021.4 17696.3,11004.2 17736.5,11055.3 17776.8,11022.9 17817,11028.3 17857.3,11057.8 17897.5,11052.6 17937.8,11048.4 
  17978,11055 18018.3,11055.7 18058.5,11060.2 18098.8,11036.2 18139,11058.9 18179.3,11048.3 18219.5,11060.2 18259.8,11073.9 18300,11071.1 18340.3,11055.5 
  
  "/>
<path clip-path="url(#clip6200)" d="
M15336.4 2013.79 L18246 2013.79 L18246 1046.11 L15336.4 1046.11  Z
  " fill="#ffffff" fill-rule="evenodd" fill-opacity="1"/>
<polyline clip-path="url(#clip6200)" style="stroke:#000000; stroke-width:32; stroke-opacity:1; fill:none" points="
  15336.4,2013.79 18246,2013.79 18246,1046.11 15336.4,1046.11 15336.4,2013.79 
  "/>
<polyline clip-path="url(#clip6200)" style="stroke:#009af9; stroke-width:48; stroke-opacity:1; fill:none" points="
  15528.4,1529.95 16680.4,1529.95 
  "/>
<path clip-path="url(#clip6200)" d="M 0 0 M17050.4 1400.79 L17050.4 1437.27 Q17029.1 1427.08 17010.2 1422.08 Q16991.3 1417.08 16973.7 1417.08 Q16943.2 1417.08 16926.5 1428.93 Q16910 1440.79 16910 1462.64 Q16910 1480.97 16920.9 1490.42 Q16932.1 1499.68 16962.8 1505.42 L16985.4 1510.05 Q17027.2 1518.01 17047.1 1538.19 Q17067.1 1558.19 17067.1 1591.9 Q17067.1 1632.08 17040 1652.82 Q17013.2 1673.56 16961.1 1673.56 Q16941.5 1673.56 16919.3 1669.12 Q16897.2 1664.67 16873.5 1655.97 L16873.5 1617.45 Q16896.3 1630.23 16918.2 1636.71 Q16940 1643.19 16961.1 1643.19 Q16993.2 1643.19 17010.6 1630.6 Q17028 1618.01 17028 1594.67 Q17028 1574.3 17015.4 1562.82 Q17003 1551.34 16974.5 1545.6 L16951.7 1541.16 Q16909.8 1532.82 16891.1 1515.05 Q16872.4 1497.27 16872.4 1465.6 Q16872.4 1428.93 16898.2 1407.82 Q16924.1 1386.71 16969.5 1386.71 Q16988.9 1386.71 17009.1 1390.23 Q17029.3 1393.75 17050.4 1400.79 Z" fill="#000000" fill-rule="evenodd" fill-opacity="1" /><path clip-path="url(#clip6200)" d="M 0 0 M17260.4 1731.16 L17260.4 1757.64 L17063.3 1757.64 L17063.3 1731.16 L17260.4 1731.16 Z" fill="#000000" fill-rule="evenodd" fill-opacity="1" /><path clip-path="url(#clip6200)" d="M 0 0 M17428.3 1466.9 L17428.3 1499.12 Q17413.9 1491.71 17398.3 1488.01 Q17382.8 1484.3 17366.1 1484.3 Q17340.8 1484.3 17328 1492.08 Q17315.4 1499.86 17315.4 1515.42 Q17315.4 1527.27 17324.5 1534.12 Q17333.5 1540.79 17360.9 1546.9 L17372.6 1549.49 Q17408.9 1557.27 17424.1 1571.53 Q17439.5 1585.6 17439.5 1610.97 Q17439.5 1639.86 17416.5 1656.71 Q17393.7 1673.56 17353.7 1673.56 Q17337.1 1673.56 17318.9 1670.23 Q17300.9 1667.08 17280.9 1660.6 L17280.9 1625.42 Q17299.8 1635.23 17318.2 1640.23 Q17336.5 1645.04 17354.5 1645.04 Q17378.5 1645.04 17391.5 1636.9 Q17404.5 1628.56 17404.5 1613.56 Q17404.5 1599.67 17395 1592.27 Q17385.8 1584.86 17354.1 1578.01 L17342.2 1575.23 Q17310.6 1568.56 17296.5 1554.86 Q17282.4 1540.97 17282.4 1516.9 Q17282.4 1487.64 17303.2 1471.71 Q17323.9 1455.79 17362 1455.79 Q17380.9 1455.79 17397.6 1458.56 Q17414.3 1461.34 17428.3 1466.9 Z" fill="#000000" fill-rule="evenodd" fill-opacity="1" /><path clip-path="url(#clip6200)" d="M 0 0 M17475.2 1460.79 L17509.3 1460.79 L17509.3 1668.19 L17475.2 1668.19 L17475.2 1460.79 M17475.2 1380.05 L17509.3 1380.05 L17509.3 1423.19 L17475.2 1423.19 L17475.2 1380.05 Z" fill="#000000" fill-rule="evenodd" fill-opacity="1" /><path clip-path="url(#clip6200)" d="M 0 0 M17578.7 1401.9 L17578.7 1460.79 L17648.9 1460.79 L17648.9 1487.27 L17578.7 1487.27 L17578.7 1599.86 Q17578.7 1625.23 17585.6 1632.45 Q17592.6 1639.67 17613.9 1639.67 L17648.9 1639.67 L17648.9 1668.19 L17613.9 1668.19 Q17574.5 1668.19 17559.5 1653.56 Q17544.5 1638.75 17544.5 1599.86 L17544.5 1487.27 L17519.5 1487.27 L17519.5 1460.79 L17544.5 1460.79 L17544.5 1401.9 L17578.7 1401.9 Z" fill="#000000" fill-rule="evenodd" fill-opacity="1" /><path clip-path="url(#clip6200)" d="M 0 0 M17862 1555.97 L17862 1572.64 L17705.4 1572.64 Q17707.6 1607.82 17726.5 1626.34 Q17745.6 1644.67 17779.5 1644.67 Q17799.1 1644.67 17817.4 1639.86 Q17835.9 1635.04 17854.1 1625.42 L17854.1 1657.64 Q17835.8 1665.41 17816.5 1669.49 Q17797.2 1673.56 17777.4 1673.56 Q17727.8 1673.56 17698.7 1644.67 Q17669.8 1615.79 17669.8 1566.53 Q17669.8 1515.6 17697.2 1485.79 Q17724.8 1455.79 17771.5 1455.79 Q17813.3 1455.79 17837.6 1482.82 Q17862 1509.68 17862 1555.97 M17828 1545.97 Q17827.6 1518.01 17812.2 1501.34 Q17797 1484.68 17771.9 1484.68 Q17743.3 1484.68 17726.1 1500.79 Q17709.1 1516.9 17706.5 1546.16 L17828 1545.97 Z" fill="#000000" fill-rule="evenodd" fill-opacity="1" /></svg>
