<?xml version="1.0" encoding="utf-8"?>
<svg xmlns="http://www.w3.org/2000/svg" xmlns:xlink="http://www.w3.org/1999/xlink" width="4800" height="3200" viewBox="0 0 19200 12800">
<defs>
  <clipPath id="clip8400">
    <rect x="0" y="0" width="19200" height="12800"/>
  </clipPath>
</defs>
<path clip-path="url(#clip8400)" d="
M0 12800 L19200 12800 L19200 0 L0 0  Z
  " fill="#ffffff" fill-rule="evenodd" fill-opacity="1"/>
<defs>
  <clipPath id="clip8401">
    <rect x="3840" y="0" width="13441" height="12800"/>
  </clipPath>
</defs>
<path clip-path="url(#clip8400)" d="
M1809.86 11385.4 L18822 11385.4 L18822 377.953 L1809.86 377.953  Z
  " fill="#ffffff" fill-rule="evenodd" fill-opacity="1"/>
<defs>
  <clipPath id="clip8402">
    <rect x="1809" y="377" width="17013" height="11008"/>
  </clipPath>
</defs>
<polyline clip-path="url(#clip8402)" style="stroke:#000000; stroke-width:16; stroke-opacity:0.1; fill:none" points="
  1963.8,11385.4 1963.8,377.953 
  "/>
<polyline clip-path="url(#clip8402)" style="stroke:#000000; stroke-width:16; stroke-opacity:0.1; fill:none" points="
  5239.15,11385.4 5239.15,377.953 
  "/>
<polyline clip-path="url(#clip8402)" style="stroke:#000000; stroke-width:16; stroke-opacity:0.1; fill:none" points="
  8514.51,11385.4 8514.51,377.953 
  "/>
<polyline clip-path="url(#clip8402)" style="stroke:#000000; stroke-width:16; stroke-opacity:0.1; fill:none" points="
  11789.9,11385.4 11789.9,377.953 
  "/>
<polyline clip-path="url(#clip8402)" style="stroke:#000000; stroke-width:16; stroke-opacity:0.1; fill:none" points="
  15065.2,11385.4 15065.2,377.953 
  "/>
<polyline clip-path="url(#clip8402)" style="stroke:#000000; stroke-width:16; stroke-opacity:0.1; fill:none" points="
  18340.6,11385.4 18340.6,377.953 
  "/>
<polyline clip-path="url(#clip8402)" style="stroke:#000000; stroke-width:16; stroke-opacity:0.1; fill:none" points="
  1809.86,9808.23 18822,9808.23 
  "/>
<polyline clip-path="url(#clip8402)" style="stroke:#000000; stroke-width:16; stroke-opacity:0.1; fill:none" points="
  1809.86,7594.94 18822,7594.94 
  "/>
<polyline clip-path="url(#clip8402)" style="stroke:#000000; stroke-width:16; stroke-opacity:0.1; fill:none" points="
  1809.86,5381.65 18822,5381.65 
  "/>
<polyline clip-path="url(#clip8402)" style="stroke:#000000; stroke-width:16; stroke-opacity:0.1; fill:none" points="
  1809.86,3168.37 18822,3168.37 
  "/>
<polyline clip-path="url(#clip8402)" style="stroke:#000000; stroke-width:16; stroke-opacity:0.1; fill:none" points="
  1809.86,955.08 18822,955.08 
  "/>
<polyline clip-path="url(#clip8400)" style="stroke:#000000; stroke-width:32; stroke-opacity:1; fill:none" points="
  1809.86,11385.4 18822,11385.4 
  "/>
<polyline clip-path="url(#clip8400)" style="stroke:#000000; stroke-width:32; stroke-opacity:1; fill:none" points="
  1809.86,11385.4 1809.86,377.953 
  "/>
<polyline clip-path="url(#clip8400)" style="stroke:#000000; stroke-width:32; stroke-opacity:1; fill:none" points="
  1963.8,11385.4 1963.8,11253.3 
  "/>
<polyline clip-path="url(#clip8400)" style="stroke:#000000; stroke-width:32; stroke-opacity:1; fill:none" points="
  5239.15,11385.4 5239.15,11253.3 
  "/>
<polyline clip-path="url(#clip8400)" style="stroke:#000000; stroke-width:32; stroke-opacity:1; fill:none" points="
  8514.51,11385.4 8514.51,11253.3 
  "/>
<polyline clip-path="url(#clip8400)" style="stroke:#000000; stroke-width:32; stroke-opacity:1; fill:none" points="
  11789.9,11385.4 11789.9,11253.3 
  "/>
<polyline clip-path="url(#clip8400)" style="stroke:#000000; stroke-width:32; stroke-opacity:1; fill:none" points="
  15065.2,11385.4 15065.2,11253.3 
  "/>
<polyline clip-path="url(#clip8400)" style="stroke:#000000; stroke-width:32; stroke-opacity:1; fill:none" points="
  18340.6,11385.4 18340.6,11253.3 
  "/>
<polyline clip-path="url(#clip8400)" style="stroke:#000000; stroke-width:32; stroke-opacity:1; fill:none" points="
  1809.86,9808.23 2014,9808.23 
  "/>
<polyline clip-path="url(#clip8400)" style="stroke:#000000; stroke-width:32; stroke-opacity:1; fill:none" points="
  1809.86,7594.94 2014,7594.94 
  "/>
<polyline clip-path="url(#clip8400)" style="stroke:#000000; stroke-width:32; stroke-opacity:1; fill:none" points="
  1809.86,5381.65 2014,5381.65 
  "/>
<polyline clip-path="url(#clip8400)" style="stroke:#000000; stroke-width:32; stroke-opacity:1; fill:none" points="
  1809.86,3168.37 2014,3168.37 
  "/>
<polyline clip-path="url(#clip8400)" style="stroke:#000000; stroke-width:32; stroke-opacity:1; fill:none" points="
  1809.86,955.08 2014,955.08 
  "/>
<path clip-path="url(#clip8400)" d="M 0 0 M1963.8 11561.4 Q1934.91 11561.4 1920.28 11589.9 Q1905.83 11618.2 1905.83 11675.3 Q1905.83 11732.1 1920.28 11760.6 Q1934.91 11789 1963.8 11789 Q1992.87 11789 2007.32 11760.6 Q2021.95 11732.1 2021.95 11675.3 Q2021.95 11618.2 2007.32 11589.9 Q1992.87 11561.4 1963.8 11561.4 M1963.8 11531.7 Q2010.28 11531.7 2034.72 11568.6 Q2059.35 11605.3 2059.35 11675.3 Q2059.35 11745.1 2034.72 11781.9 Q2010.28 11818.6 1963.8 11818.6 Q1917.32 11818.6 1892.69 11781.9 Q1868.24 11745.1 1868.24 11675.3 Q1868.24 11605.3 1892.69 11568.6 Q1917.32 11531.7 1963.8 11531.7 Z" fill="#000000" fill-rule="evenodd" fill-opacity="1" /><path clip-path="url(#clip8400)" d="M 0 0 M5162.21 11781.7 L5223.32 11781.7 L5223.32 11570.8 L5156.84 11584.1 L5156.84 11550.1 L5222.95 11536.7 L5260.36 11536.7 L5260.36 11781.7 L5321.47 11781.7 L5321.47 11813.2 L5162.21 11813.2 L5162.21 11781.7 Z" fill="#000000" fill-rule="evenodd" fill-opacity="1" /><path clip-path="url(#clip8400)" d="M 0 0 M8471.73 11781.7 L8602.28 11781.7 L8602.28 11813.2 L8426.73 11813.2 L8426.73 11781.7 Q8448.03 11759.7 8484.69 11722.7 Q8521.54 11685.4 8530.99 11674.7 Q8548.95 11654.5 8555.99 11640.6 Q8563.21 11626.5 8563.21 11613 Q8563.21 11591 8547.65 11577.1 Q8532.28 11563.2 8507.47 11563.2 Q8489.88 11563.2 8470.25 11569.3 Q8450.8 11575.4 8428.58 11587.8 L8428.58 11550.1 Q8451.17 11541 8470.8 11536.4 Q8490.43 11531.7 8506.73 11531.7 Q8549.69 11531.7 8575.25 11553.2 Q8600.8 11574.7 8600.8 11610.6 Q8600.8 11627.7 8594.32 11643 Q8588.02 11658.2 8571.17 11679 Q8566.54 11684.3 8541.73 11710.1 Q8516.91 11735.6 8471.73 11781.7 Z" fill="#000000" fill-rule="evenodd" fill-opacity="1" /><path clip-path="url(#clip8400)" d="M 0 0 M11823.8 11664.1 Q11850.7 11669.9 11865.7 11688 Q11880.9 11706.2 11880.9 11732.8 Q11880.9 11773.8 11852.7 11796.2 Q11824.6 11818.6 11772.7 11818.6 Q11755.3 11818.6 11736.8 11815.1 Q11718.5 11811.7 11698.8 11804.9 L11698.8 11768.8 Q11714.4 11777.8 11732.9 11782.5 Q11751.4 11787.1 11771.6 11787.1 Q11806.8 11787.1 11825.1 11773.2 Q11843.7 11759.3 11843.7 11732.8 Q11843.7 11708.4 11826.4 11694.7 Q11809.4 11680.8 11778.8 11680.8 L11746.6 11680.8 L11746.6 11650.1 L11780.3 11650.1 Q11807.9 11650.1 11822.5 11639.1 Q11837.2 11628 11837.2 11607.3 Q11837.2 11586 11822 11574.7 Q11807 11563.2 11778.8 11563.2 Q11763.5 11563.2 11745.9 11566.5 Q11728.3 11569.9 11707.2 11576.9 L11707.2 11543.6 Q11728.5 11537.7 11747 11534.7 Q11765.7 11531.7 11782.2 11531.7 Q11824.8 11531.7 11849.6 11551.2 Q11874.4 11570.4 11874.4 11603.4 Q11874.4 11626.4 11861.2 11642.3 Q11848.1 11658 11823.8 11664.1 Z" fill="#000000" fill-rule="evenodd" fill-opacity="1" /><path clip-path="url(#clip8400)" d="M 0 0 M15089.3 11569.3 L14994.8 11716.9 L15089.3 11716.9 L15089.3 11569.3 M15079.5 11536.7 L15126.5 11536.7 L15126.5 11716.9 L15166 11716.9 L15166 11748 L15126.5 11748 L15126.5 11813.2 L15089.3 11813.2 L15089.3 11748 L14964.5 11748 L14964.5 11711.9 L15079.5 11536.7 Z" fill="#000000" fill-rule="evenodd" fill-opacity="1" /><path clip-path="url(#clip8400)" d="M 0 0 M18262.8 11536.7 L18409.6 11536.7 L18409.6 11568.2 L18297.1 11568.2 L18297.1 11636 Q18305.2 11633.2 18313.3 11631.9 Q18321.5 11630.4 18329.6 11630.4 Q18375.9 11630.4 18403 11655.8 Q18430 11681.2 18430 11724.5 Q18430 11769.1 18402.2 11794 Q18374.5 11818.6 18323.9 11818.6 Q18306.5 11818.6 18288.3 11815.6 Q18270.4 11812.7 18251.1 11806.7 L18251.1 11769.1 Q18267.8 11778.2 18285.6 11782.7 Q18303.3 11787.1 18323.2 11787.1 Q18355.2 11787.1 18373.9 11770.3 Q18392.6 11753.4 18392.6 11724.5 Q18392.6 11695.6 18373.9 11678.8 Q18355.2 11661.9 18323.2 11661.9 Q18308.2 11661.9 18293.2 11665.3 Q18278.3 11668.6 18262.8 11675.6 L18262.8 11536.7 Z" fill="#000000" fill-rule="evenodd" fill-opacity="1" /><path clip-path="url(#clip8400)" d="M 0 0 M1234.52 9669.99 L1381.38 9669.99 L1381.38 9701.47 L1268.78 9701.47 L1268.78 9769.25 Q1276.93 9766.47 1285.08 9765.17 Q1293.23 9763.69 1301.38 9763.69 Q1347.67 9763.69 1374.71 9789.06 Q1401.75 9814.43 1401.75 9857.77 Q1401.75 9902.39 1373.97 9927.21 Q1346.19 9951.84 1295.64 9951.84 Q1278.23 9951.84 1260.08 9948.88 Q1242.12 9945.91 1222.86 9939.99 L1222.86 9902.39 Q1239.52 9911.47 1257.3 9915.91 Q1275.08 9920.36 1294.89 9920.36 Q1326.93 9920.36 1345.64 9903.51 Q1364.34 9886.65 1364.34 9857.77 Q1364.34 9828.88 1345.64 9812.02 Q1326.93 9795.17 1294.89 9795.17 Q1279.89 9795.17 1264.89 9798.51 Q1250.08 9801.84 1234.52 9808.88 L1234.52 9669.99 Z" fill="#000000" fill-rule="evenodd" fill-opacity="1" /><path clip-path="url(#clip8400)" d="M 0 0 M1522.3 9694.62 Q1493.41 9694.62 1478.78 9723.14 Q1464.34 9751.47 1464.34 9808.51 Q1464.34 9865.36 1478.78 9893.88 Q1493.41 9922.21 1522.3 9922.21 Q1551.37 9922.21 1565.82 9893.88 Q1580.45 9865.36 1580.45 9808.51 Q1580.45 9751.47 1565.82 9723.14 Q1551.37 9694.62 1522.3 9694.62 M1522.3 9664.99 Q1568.78 9664.99 1593.23 9701.84 Q1617.86 9738.51 1617.86 9808.51 Q1617.86 9878.32 1593.23 9915.17 Q1568.78 9951.84 1522.3 9951.84 Q1475.82 9951.84 1451.19 9915.17 Q1426.75 9878.32 1426.75 9808.51 Q1426.75 9738.51 1451.19 9701.84 Q1475.82 9664.99 1522.3 9664.99 Z" fill="#000000" fill-rule="evenodd" fill-opacity="1" /><path clip-path="url(#clip8400)" d="M 0 0 M1026.38 7701.7 L1087.49 7701.7 L1087.49 7490.78 L1021.01 7504.11 L1021.01 7470.03 L1087.12 7456.7 L1124.53 7456.7 L1124.53 7701.7 L1185.64 7701.7 L1185.64 7733.18 L1026.38 7733.18 L1026.38 7701.7 Z" fill="#000000" fill-rule="evenodd" fill-opacity="1" /><path clip-path="url(#clip8400)" d="M 0 0 M1306.19 7481.33 Q1277.3 7481.33 1262.67 7509.85 Q1248.23 7538.18 1248.23 7595.22 Q1248.23 7652.07 1262.67 7680.59 Q1277.3 7708.92 1306.19 7708.92 Q1335.26 7708.92 1349.71 7680.59 Q1364.34 7652.07 1364.34 7595.22 Q1364.34 7538.18 1349.71 7509.85 Q1335.26 7481.33 1306.19 7481.33 M1306.19 7451.7 Q1352.67 7451.7 1377.12 7488.55 Q1401.75 7525.22 1401.75 7595.22 Q1401.75 7665.03 1377.12 7701.89 Q1352.67 7738.55 1306.19 7738.55 Q1259.71 7738.55 1235.08 7701.89 Q1210.64 7665.03 1210.64 7595.22 Q1210.64 7525.22 1235.08 7488.55 Q1259.71 7451.7 1306.19 7451.7 Z" fill="#000000" fill-rule="evenodd" fill-opacity="1" /><path clip-path="url(#clip8400)" d="M 0 0 M1522.3 7481.33 Q1493.41 7481.33 1478.78 7509.85 Q1464.34 7538.18 1464.34 7595.22 Q1464.34 7652.07 1478.78 7680.59 Q1493.41 7708.92 1522.3 7708.92 Q1551.37 7708.92 1565.82 7680.59 Q1580.45 7652.07 1580.45 7595.22 Q1580.45 7538.18 1565.82 7509.85 Q1551.37 7481.33 1522.3 7481.33 M1522.3 7451.7 Q1568.78 7451.7 1593.23 7488.55 Q1617.86 7525.22 1617.86 7595.22 Q1617.86 7665.03 1593.23 7701.89 Q1568.78 7738.55 1522.3 7738.55 Q1475.82 7738.55 1451.19 7701.89 Q1426.75 7665.03 1426.75 7595.22 Q1426.75 7525.22 1451.19 7488.55 Q1475.82 7451.7 1522.3 7451.7 Z" fill="#000000" fill-rule="evenodd" fill-opacity="1" /><path clip-path="url(#clip8400)" d="M 0 0 M1034.34 5488.41 L1095.45 5488.41 L1095.45 5277.49 L1028.97 5290.82 L1028.97 5256.75 L1095.08 5243.41 L1132.49 5243.41 L1132.49 5488.41 L1193.6 5488.41 L1193.6 5519.89 L1034.34 5519.89 L1034.34 5488.41 Z" fill="#000000" fill-rule="evenodd" fill-opacity="1" /><path clip-path="url(#clip8400)" d="M 0 0 M1234.52 5243.41 L1381.38 5243.41 L1381.38 5274.9 L1268.78 5274.9 L1268.78 5342.67 Q1276.93 5339.9 1285.08 5338.6 Q1293.23 5337.12 1301.38 5337.12 Q1347.67 5337.12 1374.71 5362.49 Q1401.75 5387.86 1401.75 5431.19 Q1401.75 5475.82 1373.97 5500.64 Q1346.19 5525.26 1295.64 5525.26 Q1278.23 5525.26 1260.08 5522.3 Q1242.12 5519.34 1222.86 5513.41 L1222.86 5475.82 Q1239.52 5484.89 1257.3 5489.34 Q1275.08 5493.78 1294.89 5493.78 Q1326.93 5493.78 1345.64 5476.93 Q1364.34 5460.08 1364.34 5431.19 Q1364.34 5402.3 1345.64 5385.45 Q1326.93 5368.6 1294.89 5368.6 Q1279.89 5368.6 1264.89 5371.93 Q1250.08 5375.27 1234.52 5382.3 L1234.52 5243.41 Z" fill="#000000" fill-rule="evenodd" fill-opacity="1" /><path clip-path="url(#clip8400)" d="M 0 0 M1522.3 5268.04 Q1493.41 5268.04 1478.78 5296.56 Q1464.34 5324.9 1464.34 5381.93 Q1464.34 5438.78 1478.78 5467.3 Q1493.41 5495.64 1522.3 5495.64 Q1551.37 5495.64 1565.82 5467.3 Q1580.45 5438.78 1580.45 5381.93 Q1580.45 5324.9 1565.82 5296.56 Q1551.37 5268.04 1522.3 5268.04 M1522.3 5238.41 Q1568.78 5238.41 1593.23 5275.27 Q1617.86 5311.93 1617.86 5381.93 Q1617.86 5451.75 1593.23 5488.6 Q1568.78 5525.26 1522.3 5525.26 Q1475.82 5525.26 1451.19 5488.6 Q1426.75 5451.75 1426.75 5381.93 Q1426.75 5311.93 1451.19 5275.27 Q1475.82 5238.41 1522.3 5238.41 Z" fill="#000000" fill-rule="evenodd" fill-opacity="1" /><path clip-path="url(#clip8400)" d="M 0 0 M1055.08 3275.13 L1185.64 3275.13 L1185.64 3306.61 L1010.08 3306.61 L1010.08 3275.13 Q1031.38 3253.09 1068.04 3216.05 Q1104.9 3178.83 1114.34 3168.09 Q1132.3 3147.9 1139.34 3134.02 Q1146.56 3119.94 1146.56 3106.42 Q1146.56 3084.39 1131.01 3070.5 Q1115.64 3056.61 1090.82 3056.61 Q1073.23 3056.61 1053.6 3062.72 Q1034.16 3068.83 1011.93 3081.24 L1011.93 3043.46 Q1034.53 3034.39 1054.16 3029.76 Q1073.78 3025.13 1090.08 3025.13 Q1133.04 3025.13 1158.6 3046.61 Q1184.15 3068.09 1184.15 3104.02 Q1184.15 3121.05 1177.67 3136.42 Q1171.38 3151.61 1154.52 3172.35 Q1149.9 3177.72 1125.08 3203.46 Q1100.27 3229.01 1055.08 3275.13 Z" fill="#000000" fill-rule="evenodd" fill-opacity="1" /><path clip-path="url(#clip8400)" d="M 0 0 M1306.19 3054.76 Q1277.3 3054.76 1262.67 3083.27 Q1248.23 3111.61 1248.23 3168.64 Q1248.23 3225.5 1262.67 3254.01 Q1277.3 3282.35 1306.19 3282.35 Q1335.26 3282.35 1349.71 3254.01 Q1364.34 3225.5 1364.34 3168.64 Q1364.34 3111.61 1349.71 3083.27 Q1335.26 3054.76 1306.19 3054.76 M1306.19 3025.13 Q1352.67 3025.13 1377.12 3061.98 Q1401.75 3098.65 1401.75 3168.64 Q1401.75 3238.46 1377.12 3275.31 Q1352.67 3311.98 1306.19 3311.98 Q1259.71 3311.98 1235.08 3275.31 Q1210.64 3238.46 1210.64 3168.64 Q1210.64 3098.65 1235.08 3061.98 Q1259.71 3025.13 1306.19 3025.13 Z" fill="#000000" fill-rule="evenodd" fill-opacity="1" /><path clip-path="url(#clip8400)" d="M 0 0 M1522.3 3054.76 Q1493.41 3054.76 1478.78 3083.27 Q1464.34 3111.61 1464.34 3168.64 Q1464.34 3225.5 1478.78 3254.01 Q1493.41 3282.35 1522.3 3282.35 Q1551.37 3282.35 1565.82 3254.01 Q1580.45 3225.5 1580.45 3168.64 Q1580.45 3111.61 1565.82 3083.27 Q1551.37 3054.76 1522.3 3054.76 M1522.3 3025.13 Q1568.78 3025.13 1593.23 3061.98 Q1617.86 3098.65 1617.86 3168.64 Q1617.86 3238.46 1593.23 3275.31 Q1568.78 3311.98 1522.3 3311.98 Q1475.82 3311.98 1451.19 3275.31 Q1426.75 3238.46 1426.75 3168.64 Q1426.75 3098.65 1451.19 3061.98 Q1475.82 3025.13 1522.3 3025.13 Z" fill="#000000" fill-rule="evenodd" fill-opacity="1" /><path clip-path="url(#clip8400)" d="M 0 0 M1063.04 1061.84 L1193.6 1061.84 L1193.6 1093.32 L1018.04 1093.32 L1018.04 1061.84 Q1039.34 1039.8 1076.01 1002.76 Q1112.86 965.543 1122.3 954.802 Q1140.27 934.617 1147.3 920.728 Q1154.52 906.654 1154.52 893.136 Q1154.52 871.099 1138.97 857.21 Q1123.6 843.321 1098.78 843.321 Q1081.19 843.321 1061.56 849.432 Q1042.12 855.543 1019.9 867.951 L1019.9 830.173 Q1042.49 821.099 1062.12 816.469 Q1081.75 811.84 1098.04 811.84 Q1141.01 811.84 1166.56 833.321 Q1192.12 854.803 1192.12 890.728 Q1192.12 907.765 1185.64 923.136 Q1179.34 938.321 1162.49 959.061 Q1157.86 964.432 1133.04 990.172 Q1108.23 1015.73 1063.04 1061.84 Z" fill="#000000" fill-rule="evenodd" fill-opacity="1" /><path clip-path="url(#clip8400)" d="M 0 0 M1234.52 816.84 L1381.38 816.84 L1381.38 848.321 L1268.78 848.321 L1268.78 916.099 Q1276.93 913.321 1285.08 912.025 Q1293.23 910.543 1301.38 910.543 Q1347.67 910.543 1374.71 935.913 Q1401.75 961.284 1401.75 1004.62 Q1401.75 1049.25 1373.97 1074.06 Q1346.19 1098.69 1295.64 1098.69 Q1278.23 1098.69 1260.08 1095.73 Q1242.12 1092.76 1222.86 1086.84 L1222.86 1049.25 Q1239.52 1058.32 1257.3 1062.76 Q1275.08 1067.21 1294.89 1067.21 Q1326.93 1067.21 1345.64 1050.36 Q1364.34 1033.51 1364.34 1004.62 Q1364.34 975.728 1345.64 958.876 Q1326.93 942.024 1294.89 942.024 Q1279.89 942.024 1264.89 945.358 Q1250.08 948.691 1234.52 955.728 L1234.52 816.84 Z" fill="#000000" fill-rule="evenodd" fill-opacity="1" /><path clip-path="url(#clip8400)" d="M 0 0 M1522.3 841.469 Q1493.41 841.469 1478.78 869.988 Q1464.34 898.321 1464.34 955.358 Q1464.34 1012.21 1478.78 1040.73 Q1493.41 1069.06 1522.3 1069.06 Q1551.37 1069.06 1565.82 1040.73 Q1580.45 1012.21 1580.45 955.358 Q1580.45 898.321 1565.82 869.988 Q1551.37 841.469 1522.3 841.469 M1522.3 811.84 Q1568.78 811.84 1593.23 848.692 Q1617.86 885.358 1617.86 955.358 Q1617.86 1025.17 1593.23 1062.02 Q1568.78 1098.69 1522.3 1098.69 Q1475.82 1098.69 1451.19 1062.02 Q1426.75 1025.17 1426.75 955.358 Q1426.75 885.358 1451.19 848.692 Q1475.82 811.84 1522.3 811.84 Z" fill="#000000" fill-rule="evenodd" fill-opacity="1" /><path clip-path="url(#clip8400)" d="M 0 0 M10155.2 12068.2 L10476.7 12068.2 L10476.7 12111.5 L10341.8 12111.5 L10341.8 12448.4 L10290.1 12448.4 L10290.1 12111.5 L10155.2 12111.5 L10155.2 12068.2 Z" fill="#000000" fill-rule="evenodd" fill-opacity="1" /><path clip-path="url(#clip8400)" d="M 0 0 M336.35 6317.36 L386.512 6317.36 Q372.507 6346.65 365.632 6372.62 Q358.757 6398.59 358.757 6422.78 Q358.757 6464.79 375.054 6487.71 Q391.35 6510.37 421.396 6510.37 Q446.604 6510.37 459.59 6495.35 Q472.322 6480.07 480.215 6437.8 L486.581 6406.74 Q497.53 6349.19 525.284 6321.95 Q552.784 6294.45 599.126 6294.45 Q654.381 6294.45 682.899 6331.62 Q711.417 6368.54 711.417 6440.1 Q711.417 6467.09 705.306 6497.64 Q699.195 6527.94 687.228 6560.53 L634.265 6560.53 Q651.834 6529.22 660.746 6499.17 Q669.658 6469.12 669.658 6440.1 Q669.658 6396.04 652.344 6372.11 Q635.029 6348.17 602.946 6348.17 Q574.937 6348.17 559.15 6365.49 Q543.363 6382.55 535.469 6421.76 L529.358 6453.08 Q517.9 6510.63 493.456 6536.35 Q469.011 6562.06 425.47 6562.06 Q375.054 6562.06 346.026 6526.67 Q316.998 6491.02 316.998 6428.64 Q316.998 6401.9 321.836 6374.15 Q326.674 6346.39 336.35 6317.36 Z" fill="#000000" fill-rule="evenodd" fill-opacity="1" /><path clip-path="url(#clip8400)" d="M 0 0 M790.607 6028.62 L827.019 6028.62 L827.019 6299.54 L790.607 6299.54 L790.607 6028.62 Z" fill="#000000" fill-rule="evenodd" fill-opacity="1" /><path clip-path="url(#clip8400)" d="M 0 0 M427.252 5797.67 L471.558 5797.67 Q461.373 5817.53 456.28 5838.92 Q451.187 5860.31 451.187 5883.22 Q451.187 5918.11 461.882 5935.68 Q472.576 5952.99 493.965 5952.99 Q510.261 5952.99 519.682 5940.51 Q528.849 5928.04 537.252 5890.35 L540.817 5874.31 Q551.511 5824.4 571.117 5803.52 Q590.469 5782.39 625.353 5782.39 Q665.075 5782.39 688.246 5813.96 Q711.417 5845.28 711.417 5900.28 Q711.417 5923.2 706.834 5948.15 Q702.505 5972.85 693.594 6000.35 L645.214 6000.35 Q658.709 5974.38 665.584 5949.17 Q672.205 5923.96 672.205 5899.27 Q672.205 5866.16 661.001 5848.34 Q649.543 5830.52 628.918 5830.52 Q609.821 5830.52 599.636 5843.5 Q589.451 5856.23 580.029 5899.77 L576.21 5916.07 Q567.043 5959.61 548.201 5978.96 Q529.104 5998.32 496.002 5998.32 Q455.771 5998.32 433.873 5969.8 Q411.975 5941.28 411.975 5888.83 Q411.975 5862.85 415.794 5839.94 Q419.613 5817.02 427.252 5797.67 Z" fill="#000000" fill-rule="evenodd" fill-opacity="1" /><path clip-path="url(#clip8400)" d="M 0 0 M418.85 5733.25 L418.85 5686.4 L704.033 5686.4 L704.033 5733.25 L418.85 5733.25 M307.832 5733.25 L307.832 5686.4 L367.16 5686.4 L367.16 5733.25 L307.832 5733.25 Z" fill="#000000" fill-rule="evenodd" fill-opacity="1" /><path clip-path="url(#clip8400)" d="M 0 0 M337.878 5590.91 L418.85 5590.91 L418.85 5494.41 L455.261 5494.41 L455.261 5590.91 L610.075 5590.91 Q644.96 5590.91 654.89 5581.49 Q664.821 5571.81 664.821 5542.53 L664.821 5494.41 L704.033 5494.41 L704.033 5542.53 Q704.033 5596.77 683.918 5617.39 Q663.547 5638.02 610.075 5638.02 L455.261 5638.02 L455.261 5672.39 L418.85 5672.39 L418.85 5638.02 L337.878 5638.02 L337.878 5590.91 Z" fill="#000000" fill-rule="evenodd" fill-opacity="1" /><path clip-path="url(#clip8400)" d="M 0 0 M549.729 5201.33 L572.645 5201.33 L572.645 5416.74 Q621.024 5413.69 646.487 5387.72 Q671.695 5361.49 671.695 5314.89 Q671.695 5287.9 665.075 5262.69 Q658.455 5237.23 645.214 5212.28 L689.519 5212.28 Q700.214 5237.49 705.816 5263.97 Q711.417 5290.45 711.417 5317.69 Q711.417 5385.93 671.695 5425.91 Q631.973 5465.63 564.242 5465.63 Q494.22 5465.63 453.224 5427.95 Q411.975 5390.01 411.975 5325.84 Q411.975 5268.3 449.15 5234.94 Q486.071 5201.33 549.729 5201.33 M535.979 5248.18 Q497.53 5248.69 474.613 5269.82 Q451.697 5290.7 451.697 5325.33 Q451.697 5364.55 473.849 5388.23 Q496.002 5411.65 536.233 5415.22 L535.979 5248.18 Z" fill="#000000" fill-rule="evenodd" fill-opacity="1" /><polyline clip-path="url(#clip8402)" style="stroke:#009af9; stroke-width:48; stroke-opacity:1; fill:none" points="
  2291.33,689.485 2331.56,689.485 2371.78,689.485 2412,689.485 2452.23,689.485 2492.45,689.485 2532.67,689.485 2572.9,689.485 2613.12,689.485 2653.35,689.485 
  2693.57,689.485 2733.79,689.485 2774.02,689.485 2814.24,689.485 2854.46,689.485 2894.69,689.485 2934.91,689.485 2975.13,689.485 3015.36,689.485 3055.58,689.485 
  3095.81,689.485 3136.03,689.485 3176.25,689.485 3216.48,689.485 3256.7,689.485 3296.92,689.485 3337.15,689.485 3377.37,689.485 3417.6,689.485 3457.82,689.485 
  3498.04,689.485 3538.27,689.485 3578.49,689.485 3618.71,689.49 3658.94,689.495 3699.16,689.493 3739.38,689.491 3779.61,689.499 3819.83,689.546 3860.06,689.502 
  3900.28,689.539 3940.5,689.509 3980.73,689.543 4020.95,689.52 4061.17,689.594 4101.4,689.577 4141.62,689.638 4181.84,689.678 4222.07,689.766 4262.29,689.74 
  4302.52,689.744 4342.74,689.901 4382.96,689.943 4423.19,689.991 4463.41,690.036 4503.63,690.223 4543.86,690.415 4584.08,690.433 4624.3,690.861 4664.53,691.096 
  4704.75,691.226 4744.98,691.326 4785.2,691.814 4825.42,691.883 4865.65,692.643 4905.87,693.075 4946.09,693.123 4986.32,693.461 5026.54,693.951 5066.76,694.776 
  5106.99,695.201 5147.21,696.664 5187.44,696.995 5227.66,697.968 5267.88,698.781 5308.11,699.008 5348.33,700.244 5388.55,701.592 5428.78,702.982 5469,704.339 
  5509.23,705.548 5549.45,707.122 5589.67,708.472 5629.9,709.809 5670.12,710.977 5710.34,713.003 5750.57,714.533 5790.79,716.407 5831.01,719.827 5871.24,720.967 
  5911.46,723.865 5951.69,725.755 5991.91,728.399 6032.13,732.924 6072.36,736.434 6112.58,740.561 6152.8,739.98 6193.03,747.91 6233.25,746.807 6273.47,754.223 
  6313.7,758.459 6353.92,760.544 6394.15,766.158 6434.37,770.181 6474.59,777.661 6514.82,782.254 6555.04,789.664 6595.26,792.291 6635.49,800.194 6675.71,804.323 
  6715.93,811.68 6756.16,820.383 6796.38,828.582 6836.61,839.898 6876.83,840.961 6917.05,850.489 6957.28,859.456 6997.5,867.849 7037.72,878.882 7077.95,891.162 
  7118.17,894.317 7158.39,905.422 7198.62,919.016 7238.84,933.787 7279.07,940.699 7319.29,958.024 7359.51,968.029 7399.74,982.338 7439.96,1004.74 7480.18,1005.81 
  7520.41,1019.98 7560.63,1048.31 7600.85,1054.51 7641.08,1079.62 7681.3,1086.58 7721.53,1109.97 7761.75,1125.62 7801.97,1130.7 7842.2,1186.71 7882.42,1190.84 
  7922.64,1210.28 7962.87,1225.1 8003.09,1269.25 8043.32,1283.11 8083.54,1311.64 8123.76,1333.75 8163.99,1381.4 8204.21,1409.8 8244.43,1411.93 8284.66,1449.03 
  8324.88,1499.12 8365.1,1528.59 8405.33,1588.99 8445.55,1597.98 8485.78,1655.59 8526,1709.64 8566.22,1736.13 8606.45,1895.85 8646.67,1855.32 8686.89,1884.65 
  8727.12,1999.99 8767.34,2008.89 8807.56,2113.92 8847.79,2239.25 8888.01,2221.86 8928.24,2227.18 8968.46,2367.3 9008.68,2607.89 9048.91,2691.8 9089.13,2691.01 
  9129.35,2778.46 9169.58,3040.91 9209.8,2837.34 9250.02,3177.43 9290.25,3402.63 9330.47,3643.79 9370.7,4028.17 9410.92,3747.63 9451.14,4306.47 9491.37,4200.74 
  9531.59,4348.18 9571.81,4541.76 9612.04,5027.21 9652.26,5366.4 9692.48,5365.36 9732.71,5889.98 9772.93,6165.24 9813.16,6186.45 9853.38,6416.44 9893.6,6464.98 
  9933.83,6494.07 9974.05,7218.16 10014.3,7159.38 10054.5,6973.59 10094.7,7320.61 10134.9,7524.77 10175.2,7659.91 10215.4,7894.7 10255.6,7692.75 10295.8,8112.27 
  10336.1,8319.09 10376.3,8354.08 10416.5,8319.55 10456.7,8574.47 10497,8663.1 10537.2,8721.53 10577.4,8638.58 10617.6,8842.24 10657.9,9087.72 10698.1,8918.93 
  10738.3,9077.49 10778.5,9132.12 10818.7,9192.33 10859,9224.71 10899.2,9155.81 10939.4,9254.88 10979.6,9431.72 11019.9,9595.86 11060.1,9557.7 11100.3,9498.85 
  11140.5,9517.94 11180.8,9652.08 11221,9655.96 11261.2,9787.16 11301.4,9732.51 11341.7,9829.44 11381.9,9789.57 11422.1,9932.45 11462.3,9873.02 11502.5,9761.03 
  11542.8,9958.19 11583,9980.48 11623.2,10017.1 11663.4,10091.6 11703.7,9988.31 11743.9,10094.4 11784.1,9997.98 11824.3,10068.5 11864.6,10081.1 11904.8,10084.8 
  11945,10183.9 11985.2,10218.9 12025.5,10242.9 12065.7,10285.3 12105.9,10211 12146.1,10172.6 12186.4,10198.1 12226.6,10268.3 12266.8,10325.5 12307,10308.7 
  12347.2,10373.4 12387.5,10305.4 12427.7,10331 12467.9,10351.9 12508.1,10356.4 12548.4,10398.1 12588.6,10368.3 12628.8,10419.4 12669,10460.3 12709.3,10456.8 
  12749.5,10459 12789.7,10476.5 12829.9,10497.7 12870.2,10448.6 12910.4,10503.9 12950.6,10513.2 12990.8,10554.4 13031,10524.6 13071.3,10530.7 13111.5,10543.9 
  13151.7,10590.7 13191.9,10530 13232.2,10569.5 13272.4,10595.1 13312.6,10584.6 13352.8,10615.9 13393.1,10625.4 13433.3,10628.3 13473.5,10624.4 13513.7,10631.8 
  13554,10646.8 13594.2,10629.2 13634.4,10641.8 13674.6,10645.1 13714.9,10661.8 13755.1,10629.5 13795.3,10690.2 13835.5,10699.2 13875.7,10676.1 13916,10696.8 
  13956.2,10691.7 13996.4,10674.8 14036.6,10745.2 14076.9,10726.6 14117.1,10743.8 14157.3,10739.8 14197.5,10742.3 14237.8,10737.4 14278,10774.1 14318.2,10747.1 
  14358.4,10786.5 14398.7,10765.9 14438.9,10779.2 14479.1,10798 14519.3,10803.5 14559.5,10790.4 14599.8,10797.5 14640,10792.2 14680.2,10782.9 14720.4,10818.7 
  14760.7,10814.7 14800.9,10842.6 14841.1,10822.5 14881.3,10851.8 14921.6,10838.7 14961.8,10826.2 15002,10857.7 15042.2,10818 15082.5,10845.6 15122.7,10868.8 
  15162.9,10860.1 15203.1,10847.9 15243.3,10859.7 15283.6,10878.8 15323.8,10853.9 15364,10895.4 15404.2,10873.9 15444.5,10893.2 15484.7,10881.1 15524.9,10875 
  15565.1,10866.8 15605.4,10916.6 15645.6,10906.8 15685.8,10908.5 15726,10881.6 15766.3,10923.6 15806.5,10907.3 15846.7,10914.4 15886.9,10938.8 15927.2,10940.2 
  15967.4,10909.8 16007.6,10915.2 16047.8,10947 16088,10945.6 16128.3,10949.1 16168.5,10927.4 16208.7,10967.3 16248.9,10937.9 16289.2,10953 16329.4,10944.5 
  16369.6,10951.7 16409.8,10977 16450.1,10985.3 16490.3,10978.9 16530.5,10952.7 16570.7,10986.3 16611,10975.1 16651.2,10982.5 16691.4,10986.2 16731.6,10980.5 
  16771.8,10992.6 16812.1,10995.8 16852.3,11001.1 16892.5,11020.2 16932.7,10967.7 16973,11011.4 17013.2,10986.5 17053.4,10991.3 17093.6,11022 17133.9,10987.9 
  17174.1,11015 17214.3,11021.8 17254.5,11020.6 17294.8,11015.3 17335,11011.3 17375.2,11008.5 17415.4,11026 17455.6,11028.8 17495.9,11028 17536.1,11042.2 
  17576.3,11014.5 17616.5,11026.2 17656.8,11026.5 17697,11049.8 17737.2,11051.7 17777.4,11062.7 17817.7,11037.3 17857.9,11052 17898.1,11046.7 17938.3,11048.5 
  17978.6,11045.1 18018.8,11040.5 18059,11042.3 18099.2,11043.8 18139.5,11068.7 18179.7,11063.5 18219.9,11073.9 18260.1,11062.8 18300.3,11070.9 18340.6,11050.2 
  
  "/>
<path clip-path="url(#clip8400)" d="
M15336.4 2013.79 L18246 2013.79 L18246 1046.11 L15336.4 1046.11  Z
  " fill="#ffffff" fill-rule="evenodd" fill-opacity="1"/>
<polyline clip-path="url(#clip8400)" style="stroke:#000000; stroke-width:32; stroke-opacity:1; fill:none" points="
  15336.4,2013.79 18246,2013.79 18246,1046.11 15336.4,1046.11 15336.4,2013.79 
  "/>
<polyline clip-path="url(#clip8400)" style="stroke:#009af9; stroke-width:48; stroke-opacity:1; fill:none" points="
  15528.4,1529.95 16680.4,1529.95 
  "/>
<path clip-path="url(#clip8400)" d="M 0 0 M17050.4 1400.79 L17050.4 1437.27 Q17029.1 1427.08 17010.2 1422.08 Q16991.3 1417.08 16973.7 1417.08 Q16943.2 1417.08 16926.5 1428.93 Q16910 1440.79 16910 1462.64 Q16910 1480.97 16920.9 1490.42 Q16932.1 1499.68 16962.8 1505.42 L16985.4 1510.05 Q17027.2 1518.01 17047.1 1538.19 Q17067.1 1558.19 17067.1 1591.9 Q17067.1 1632.08 17040 1652.82 Q17013.2 1673.56 16961.1 1673.56 Q16941.5 1673.56 16919.3 1669.12 Q16897.2 1664.67 16873.5 1655.97 L16873.5 1617.45 Q16896.3 1630.23 16918.2 1636.71 Q16940 1643.19 16961.1 1643.19 Q16993.2 1643.19 17010.6 1630.6 Q17028 1618.01 17028 1594.67 Q17028 1574.3 17015.4 1562.82 Q17003 1551.34 16974.5 1545.6 L16951.7 1541.16 Q16909.8 1532.82 16891.1 1515.05 Q16872.4 1497.27 16872.4 1465.6 Q16872.4 1428.93 16898.2 1407.82 Q16924.1 1386.71 16969.5 1386.71 Q16988.9 1386.71 17009.1 1390.23 Q17029.3 1393.75 17050.4 1400.79 Z" fill="#000000" fill-rule="evenodd" fill-opacity="1" /><path clip-path="url(#clip8400)" d="M 0 0 M17260.4 1731.16 L17260.4 1757.64 L17063.3 1757.64 L17063.3 1731.16 L17260.4 1731.16 Z" fill="#000000" fill-rule="evenodd" fill-opacity="1" /><path clip-path="url(#clip8400)" d="M 0 0 M17428.3 1466.9 L17428.3 1499.12 Q17413.9 1491.71 17398.3 1488.01 Q17382.8 1484.3 17366.1 1484.3 Q17340.8 1484.3 17328 1492.08 Q17315.4 1499.86 17315.4 1515.42 Q17315.4 1527.27 17324.5 1534.12 Q17333.5 1540.79 17360.9 1546.9 L17372.6 1549.49 Q17408.9 1557.27 17424.1 1571.53 Q17439.5 1585.6 17439.5 1610.97 Q17439.5 1639.86 17416.5 1656.71 Q17393.7 1673.56 17353.7 1673.56 Q17337.1 1673.56 17318.9 1670.23 Q17300.9 1667.08 17280.9 1660.6 L17280.9 1625.42 Q17299.8 1635.23 17318.2 1640.23 Q17336.5 1645.04 17354.5 1645.04 Q17378.5 1645.04 17391.5 1636.9 Q17404.5 1628.56 17404.5 1613.56 Q17404.5 1599.67 17395 1592.27 Q17385.8 1584.86 17354.1 1578.01 L17342.2 1575.23 Q17310.6 1568.56 17296.5 1554.86 Q17282.4 1540.97 17282.4 1516.9 Q17282.4 1487.64 17303.2 1471.71 Q17323.9 1455.79 17362 1455.79 Q17380.9 1455.79 17397.6 1458.56 Q17414.3 1461.34 17428.3 1466.9 Z" fill="#000000" fill-rule="evenodd" fill-opacity="1" /><path clip-path="url(#clip8400)" d="M 0 0 M17475.2 1460.79 L17509.3 1460.79 L17509.3 1668.19 L17475.2 1668.19 L17475.2 1460.79 M17475.2 1380.05 L17509.3 1380.05 L17509.3 1423.19 L17475.2 1423.19 L17475.2 1380.05 Z" fill="#000000" fill-rule="evenodd" fill-opacity="1" /><path clip-path="url(#clip8400)" d="M 0 0 M17578.7 1401.9 L17578.7 1460.79 L17648.9 1460.79 L17648.9 1487.27 L17578.7 1487.27 L17578.7 1599.86 Q17578.7 1625.23 17585.6 1632.45 Q17592.6 1639.67 17613.9 1639.67 L17648.9 1639.67 L17648.9 1668.19 L17613.9 1668.19 Q17574.5 1668.19 17559.5 1653.56 Q17544.5 1638.75 17544.5 1599.86 L17544.5 1487.27 L17519.5 1487.27 L17519.5 1460.79 L17544.5 1460.79 L17544.5 1401.9 L17578.7 1401.9 Z" fill="#000000" fill-rule="evenodd" fill-opacity="1" /><path clip-path="url(#clip8400)" d="M 0 0 M17862 1555.97 L17862 1572.64 L17705.4 1572.64 Q17707.6 1607.82 17726.5 1626.34 Q17745.6 1644.67 17779.5 1644.67 Q17799.1 1644.67 17817.4 1639.86 Q17835.9 1635.04 17854.1 1625.42 L17854.1 1657.64 Q17835.8 1665.41 17816.5 1669.49 Q17797.2 1673.56 17777.4 1673.56 Q17727.8 1673.56 17698.7 1644.67 Q17669.8 1615.79 17669.8 1566.53 Q17669.8 1515.6 17697.2 1485.79 Q17724.8 1455.79 17771.5 1455.79 Q17813.3 1455.79 17837.6 1482.82 Q17862 1509.68 17862 1555.97 M17828 1545.97 Q17827.6 1518.01 17812.2 1501.34 Q17797 1484.68 17771.9 1484.68 Q17743.3 1484.68 17726.1 1500.79 Q17709.1 1516.9 17706.5 1546.16 L17828 1545.97 Z" fill="#000000" fill-rule="evenodd" fill-opacity="1" /></svg>
