<?xml version="1.0" encoding="utf-8"?>
<svg xmlns="http://www.w3.org/2000/svg" xmlns:xlink="http://www.w3.org/1999/xlink" width="4800" height="3200" viewBox="0 0 19200 12800">
<defs>
  <clipPath id="clip0600">
    <rect x="0" y="0" width="19200" height="12800"/>
  </clipPath>
</defs>
<path clip-path="url(#clip0600)" d="
M0 12800 L19200 12800 L19200 0 L0 0  Z
  " fill="#ffffff" fill-rule="evenodd" fill-opacity="1"/>
<defs>
  <clipPath id="clip0601">
    <rect x="3840" y="0" width="13441" height="12800"/>
  </clipPath>
</defs>
<path clip-path="url(#clip0600)" d="
M1835.78 11385.4 L18822 11385.4 L18822 377.953 L1835.78 377.953  Z
  " fill="#ffffff" fill-rule="evenodd" fill-opacity="1"/>
<defs>
  <clipPath id="clip0602">
    <rect x="1835" y="377" width="16987" height="11008"/>
  </clipPath>
</defs>
<polyline clip-path="url(#clip0602)" style="stroke:#000000; stroke-width:16; stroke-opacity:0.1; fill:none" points="
  1989.49,11385.4 1989.49,377.953 
  "/>
<polyline clip-path="url(#clip0602)" style="stroke:#000000; stroke-width:16; stroke-opacity:0.1; fill:none" points="
  5259.85,11385.4 5259.85,377.953 
  "/>
<polyline clip-path="url(#clip0602)" style="stroke:#000000; stroke-width:16; stroke-opacity:0.1; fill:none" points="
  8530.21,11385.4 8530.21,377.953 
  "/>
<polyline clip-path="url(#clip0602)" style="stroke:#000000; stroke-width:16; stroke-opacity:0.1; fill:none" points="
  11800.6,11385.4 11800.6,377.953 
  "/>
<polyline clip-path="url(#clip0602)" style="stroke:#000000; stroke-width:16; stroke-opacity:0.1; fill:none" points="
  15070.9,11385.4 15070.9,377.953 
  "/>
<polyline clip-path="url(#clip0602)" style="stroke:#000000; stroke-width:16; stroke-opacity:0.1; fill:none" points="
  18341.3,11385.4 18341.3,377.953 
  "/>
<polyline clip-path="url(#clip0602)" style="stroke:#000000; stroke-width:16; stroke-opacity:0.1; fill:none" points="
  1835.78,9780.17 18822,9780.17 
  "/>
<polyline clip-path="url(#clip0602)" style="stroke:#000000; stroke-width:16; stroke-opacity:0.1; fill:none" points="
  1835.78,7870.36 18822,7870.36 
  "/>
<polyline clip-path="url(#clip0602)" style="stroke:#000000; stroke-width:16; stroke-opacity:0.1; fill:none" points="
  1835.78,5960.55 18822,5960.55 
  "/>
<polyline clip-path="url(#clip0602)" style="stroke:#000000; stroke-width:16; stroke-opacity:0.1; fill:none" points="
  1835.78,4050.75 18822,4050.75 
  "/>
<polyline clip-path="url(#clip0602)" style="stroke:#000000; stroke-width:16; stroke-opacity:0.1; fill:none" points="
  1835.78,2140.94 18822,2140.94 
  "/>
<polyline clip-path="url(#clip0600)" style="stroke:#000000; stroke-width:32; stroke-opacity:1; fill:none" points="
  1835.78,11385.4 18822,11385.4 
  "/>
<polyline clip-path="url(#clip0600)" style="stroke:#000000; stroke-width:32; stroke-opacity:1; fill:none" points="
  1835.78,11385.4 1835.78,377.953 
  "/>
<polyline clip-path="url(#clip0600)" style="stroke:#000000; stroke-width:32; stroke-opacity:1; fill:none" points="
  1989.49,11385.4 1989.49,11253.3 
  "/>
<polyline clip-path="url(#clip0600)" style="stroke:#000000; stroke-width:32; stroke-opacity:1; fill:none" points="
  5259.85,11385.4 5259.85,11253.3 
  "/>
<polyline clip-path="url(#clip0600)" style="stroke:#000000; stroke-width:32; stroke-opacity:1; fill:none" points="
  8530.21,11385.4 8530.21,11253.3 
  "/>
<polyline clip-path="url(#clip0600)" style="stroke:#000000; stroke-width:32; stroke-opacity:1; fill:none" points="
  11800.6,11385.4 11800.6,11253.3 
  "/>
<polyline clip-path="url(#clip0600)" style="stroke:#000000; stroke-width:32; stroke-opacity:1; fill:none" points="
  15070.9,11385.4 15070.9,11253.3 
  "/>
<polyline clip-path="url(#clip0600)" style="stroke:#000000; stroke-width:32; stroke-opacity:1; fill:none" points="
  18341.3,11385.4 18341.3,11253.3 
  "/>
<polyline clip-path="url(#clip0600)" style="stroke:#000000; stroke-width:32; stroke-opacity:1; fill:none" points="
  1835.78,9780.17 2039.62,9780.17 
  "/>
<polyline clip-path="url(#clip0600)" style="stroke:#000000; stroke-width:32; stroke-opacity:1; fill:none" points="
  1835.78,7870.36 2039.62,7870.36 
  "/>
<polyline clip-path="url(#clip0600)" style="stroke:#000000; stroke-width:32; stroke-opacity:1; fill:none" points="
  1835.78,5960.55 2039.62,5960.55 
  "/>
<polyline clip-path="url(#clip0600)" style="stroke:#000000; stroke-width:32; stroke-opacity:1; fill:none" points="
  1835.78,4050.75 2039.62,4050.75 
  "/>
<polyline clip-path="url(#clip0600)" style="stroke:#000000; stroke-width:32; stroke-opacity:1; fill:none" points="
  1835.78,2140.94 2039.62,2140.94 
  "/>
<path clip-path="url(#clip0600)" d="M 0 0 M1989.49 11561.4 Q1960.6 11561.4 1945.97 11589.9 Q1931.53 11618.2 1931.53 11675.3 Q1931.53 11732.1 1945.97 11760.6 Q1960.6 11789 1989.49 11789 Q2018.56 11789 2033.01 11760.6 Q2047.64 11732.1 2047.64 11675.3 Q2047.64 11618.2 2033.01 11589.9 Q2018.56 11561.4 1989.49 11561.4 M1989.49 11531.7 Q2035.97 11531.7 2060.41 11568.6 Q2085.04 11605.3 2085.04 11675.3 Q2085.04 11745.1 2060.41 11781.9 Q2035.97 11818.6 1989.49 11818.6 Q1943.01 11818.6 1918.38 11781.9 Q1893.93 11745.1 1893.93 11675.3 Q1893.93 11605.3 1918.38 11568.6 Q1943.01 11531.7 1989.49 11531.7 Z" fill="#000000" fill-rule="evenodd" fill-opacity="1" /><path clip-path="url(#clip0600)" d="M 0 0 M5182.91 11781.7 L5244.02 11781.7 L5244.02 11570.8 L5177.54 11584.1 L5177.54 11550.1 L5243.65 11536.7 L5281.06 11536.7 L5281.06 11781.7 L5342.17 11781.7 L5342.17 11813.2 L5182.91 11813.2 L5182.91 11781.7 Z" fill="#000000" fill-rule="evenodd" fill-opacity="1" /><path clip-path="url(#clip0600)" d="M 0 0 M8487.44 11781.7 L8617.99 11781.7 L8617.99 11813.2 L8442.44 11813.2 L8442.44 11781.7 Q8463.73 11759.7 8500.4 11722.7 Q8537.25 11685.4 8546.7 11674.7 Q8564.66 11654.5 8571.7 11640.6 Q8578.92 11626.5 8578.92 11613 Q8578.92 11591 8563.36 11577.1 Q8547.99 11563.2 8523.18 11563.2 Q8505.59 11563.2 8485.96 11569.3 Q8466.51 11575.4 8444.29 11587.8 L8444.29 11550.1 Q8466.88 11541 8486.51 11536.4 Q8506.14 11531.7 8522.44 11531.7 Q8565.4 11531.7 8590.96 11553.2 Q8616.51 11574.7 8616.51 11610.6 Q8616.51 11627.7 8610.03 11643 Q8603.73 11658.2 8586.88 11679 Q8582.25 11684.3 8557.44 11710.1 Q8532.62 11735.6 8487.44 11781.7 Z" fill="#000000" fill-rule="evenodd" fill-opacity="1" /><path clip-path="url(#clip0600)" d="M 0 0 M11834.6 11664.1 Q11861.4 11669.9 11876.4 11688 Q11891.6 11706.2 11891.6 11732.8 Q11891.6 11773.8 11863.4 11796.2 Q11835.3 11818.6 11783.4 11818.6 Q11766 11818.6 11747.5 11815.1 Q11729.2 11811.7 11709.6 11804.9 L11709.6 11768.8 Q11725.1 11777.8 11743.6 11782.5 Q11762.2 11787.1 11782.3 11787.1 Q11817.5 11787.1 11835.9 11773.2 Q11854.4 11759.3 11854.4 11732.8 Q11854.4 11708.4 11837.2 11694.7 Q11820.1 11680.8 11789.6 11680.8 L11757.3 11680.8 L11757.3 11650.1 L11791 11650.1 Q11818.6 11650.1 11833.3 11639.1 Q11847.9 11628 11847.9 11607.3 Q11847.9 11586 11832.7 11574.7 Q11817.7 11563.2 11789.6 11563.2 Q11774.2 11563.2 11756.6 11566.5 Q11739 11569.9 11717.9 11576.9 L11717.9 11543.6 Q11739.2 11537.7 11757.7 11534.7 Q11776.4 11531.7 11792.9 11531.7 Q11835.5 11531.7 11860.3 11551.2 Q11885.1 11570.4 11885.1 11603.4 Q11885.1 11626.4 11872 11642.3 Q11858.8 11658 11834.6 11664.1 Z" fill="#000000" fill-rule="evenodd" fill-opacity="1" /><path clip-path="url(#clip0600)" d="M 0 0 M15095 11569.3 L15000.6 11716.9 L15095 11716.9 L15095 11569.3 M15085.2 11536.7 L15132.2 11536.7 L15132.2 11716.9 L15171.7 11716.9 L15171.7 11748 L15132.2 11748 L15132.2 11813.2 L15095 11813.2 L15095 11748 L14970.2 11748 L14970.2 11711.9 L15085.2 11536.7 Z" fill="#000000" fill-rule="evenodd" fill-opacity="1" /><path clip-path="url(#clip0600)" d="M 0 0 M18263.5 11536.7 L18410.4 11536.7 L18410.4 11568.2 L18297.8 11568.2 L18297.8 11636 Q18305.9 11633.2 18314.1 11631.9 Q18322.2 11630.4 18330.4 11630.4 Q18376.7 11630.4 18403.7 11655.8 Q18430.7 11681.2 18430.7 11724.5 Q18430.7 11769.1 18403 11794 Q18375.2 11818.6 18324.6 11818.6 Q18307.2 11818.6 18289.1 11815.6 Q18271.1 11812.7 18251.9 11806.7 L18251.9 11769.1 Q18268.5 11778.2 18286.3 11782.7 Q18304.1 11787.1 18323.9 11787.1 Q18355.9 11787.1 18374.6 11770.3 Q18393.3 11753.4 18393.3 11724.5 Q18393.3 11695.6 18374.6 11678.8 Q18355.9 11661.9 18323.9 11661.9 Q18308.9 11661.9 18293.9 11665.3 Q18279.1 11668.6 18263.5 11675.6 L18263.5 11536.7 Z" fill="#000000" fill-rule="evenodd" fill-opacity="1" /><path clip-path="url(#clip0600)" d="M 0 0 M1052.3 9886.92 L1113.41 9886.92 L1113.41 9676 L1046.93 9689.33 L1046.93 9655.26 L1113.04 9641.93 L1150.45 9641.93 L1150.45 9886.92 L1211.56 9886.92 L1211.56 9918.41 L1052.3 9918.41 L1052.3 9886.92 Z" fill="#000000" fill-rule="evenodd" fill-opacity="1" /><path clip-path="url(#clip0600)" d="M 0 0 M1332.12 9666.56 Q1303.23 9666.56 1288.6 9695.07 Q1274.15 9723.41 1274.15 9780.44 Q1274.15 9837.3 1288.6 9865.81 Q1303.23 9894.15 1332.12 9894.15 Q1361.19 9894.15 1375.63 9865.81 Q1390.26 9837.3 1390.26 9780.44 Q1390.26 9723.41 1375.63 9695.07 Q1361.19 9666.56 1332.12 9666.56 M1332.12 9636.93 Q1378.6 9636.93 1403.04 9673.78 Q1427.67 9710.44 1427.67 9780.44 Q1427.67 9850.26 1403.04 9887.11 Q1378.6 9923.78 1332.12 9923.78 Q1285.64 9923.78 1261.01 9887.11 Q1236.56 9850.26 1236.56 9780.44 Q1236.56 9710.44 1261.01 9673.78 Q1285.64 9636.93 1332.12 9636.93 Z" fill="#000000" fill-rule="evenodd" fill-opacity="1" /><path clip-path="url(#clip0600)" d="M 0 0 M1548.23 9666.56 Q1519.34 9666.56 1504.71 9695.07 Q1490.26 9723.41 1490.26 9780.44 Q1490.26 9837.3 1504.71 9865.81 Q1519.34 9894.15 1548.23 9894.15 Q1577.3 9894.15 1591.74 9865.81 Q1606.37 9837.3 1606.37 9780.44 Q1606.37 9723.41 1591.74 9695.07 Q1577.3 9666.56 1548.23 9666.56 M1548.23 9636.93 Q1594.71 9636.93 1619.15 9673.78 Q1643.78 9710.44 1643.78 9780.44 Q1643.78 9850.26 1619.15 9887.11 Q1594.71 9923.78 1548.23 9923.78 Q1501.75 9923.78 1477.12 9887.11 Q1452.67 9850.26 1452.67 9780.44 Q1452.67 9710.44 1477.12 9673.78 Q1501.75 9636.93 1548.23 9636.93 Z" fill="#000000" fill-rule="evenodd" fill-opacity="1" /><path clip-path="url(#clip0600)" d="M 0 0 M1081.01 7977.12 L1211.56 7977.12 L1211.56 8008.6 L1036.01 8008.6 L1036.01 7977.12 Q1057.3 7955.08 1093.97 7918.04 Q1130.82 7880.82 1140.27 7870.08 Q1158.23 7849.9 1165.27 7836.01 Q1172.49 7821.93 1172.49 7808.41 Q1172.49 7786.38 1156.93 7772.49 Q1141.56 7758.6 1116.75 7758.6 Q1099.15 7758.6 1079.53 7764.71 Q1060.08 7770.82 1037.86 7783.23 L1037.86 7745.45 Q1060.45 7736.38 1080.08 7731.75 Q1099.71 7727.12 1116.01 7727.12 Q1158.97 7727.12 1184.52 7748.6 Q1210.08 7770.08 1210.08 7806.01 Q1210.08 7823.04 1203.6 7838.41 Q1197.3 7853.6 1180.45 7874.34 Q1175.82 7879.71 1151.01 7905.45 Q1126.19 7931.01 1081.01 7977.12 Z" fill="#000000" fill-rule="evenodd" fill-opacity="1" /><path clip-path="url(#clip0600)" d="M 0 0 M1332.12 7756.75 Q1303.23 7756.75 1288.6 7785.27 Q1274.15 7813.6 1274.15 7870.64 Q1274.15 7927.49 1288.6 7956.01 Q1303.23 7984.34 1332.12 7984.34 Q1361.19 7984.34 1375.63 7956.01 Q1390.26 7927.49 1390.26 7870.64 Q1390.26 7813.6 1375.63 7785.27 Q1361.19 7756.75 1332.12 7756.75 M1332.12 7727.12 Q1378.6 7727.12 1403.04 7763.97 Q1427.67 7800.64 1427.67 7870.64 Q1427.67 7940.45 1403.04 7977.3 Q1378.6 8013.97 1332.12 8013.97 Q1285.64 8013.97 1261.01 7977.3 Q1236.56 7940.45 1236.56 7870.64 Q1236.56 7800.64 1261.01 7763.97 Q1285.64 7727.12 1332.12 7727.12 Z" fill="#000000" fill-rule="evenodd" fill-opacity="1" /><path clip-path="url(#clip0600)" d="M 0 0 M1548.23 7756.75 Q1519.34 7756.75 1504.71 7785.27 Q1490.26 7813.6 1490.26 7870.64 Q1490.26 7927.49 1504.71 7956.01 Q1519.34 7984.34 1548.23 7984.34 Q1577.3 7984.34 1591.74 7956.01 Q1606.37 7927.49 1606.37 7870.64 Q1606.37 7813.6 1591.74 7785.27 Q1577.3 7756.75 1548.23 7756.75 M1548.23 7727.12 Q1594.71 7727.12 1619.15 7763.97 Q1643.78 7800.64 1643.78 7870.64 Q1643.78 7940.45 1619.15 7977.3 Q1594.71 8013.97 1548.23 8013.97 Q1501.75 8013.97 1477.12 7977.3 Q1452.67 7940.45 1452.67 7870.64 Q1452.67 7800.64 1477.12 7763.97 Q1501.75 7727.12 1548.23 7727.12 Z" fill="#000000" fill-rule="evenodd" fill-opacity="1" /><path clip-path="url(#clip0600)" d="M 0 0 M1154.52 5949.72 Q1181.38 5955.46 1196.38 5973.61 Q1211.56 5991.76 1211.56 6018.42 Q1211.56 6059.35 1183.41 6081.76 Q1155.27 6104.16 1103.41 6104.16 Q1086.01 6104.16 1067.49 6100.64 Q1049.16 6097.31 1029.53 6090.46 L1029.53 6054.35 Q1045.08 6063.42 1063.6 6068.05 Q1082.12 6072.68 1102.3 6072.68 Q1137.49 6072.68 1155.82 6058.79 Q1174.34 6044.9 1174.34 6018.42 Q1174.34 5993.98 1157.12 5980.27 Q1140.08 5966.39 1109.53 5966.39 L1077.3 5966.39 L1077.3 5935.64 L1111.01 5935.64 Q1138.6 5935.64 1153.23 5924.72 Q1167.86 5913.61 1167.86 5892.87 Q1167.86 5871.57 1152.67 5860.27 Q1137.67 5848.79 1109.53 5848.79 Q1094.15 5848.79 1076.56 5852.13 Q1058.97 5855.46 1037.86 5862.5 L1037.86 5829.16 Q1059.16 5823.24 1077.67 5820.28 Q1096.38 5817.31 1112.86 5817.31 Q1155.45 5817.31 1180.27 5836.76 Q1205.08 5856.02 1205.08 5888.98 Q1205.08 5911.94 1191.93 5927.87 Q1178.78 5943.61 1154.52 5949.72 Z" fill="#000000" fill-rule="evenodd" fill-opacity="1" /><path clip-path="url(#clip0600)" d="M 0 0 M1332.12 5846.94 Q1303.23 5846.94 1288.6 5875.46 Q1274.15 5903.79 1274.15 5960.83 Q1274.15 6017.68 1288.6 6046.2 Q1303.23 6074.53 1332.12 6074.53 Q1361.19 6074.53 1375.63 6046.2 Q1390.26 6017.68 1390.26 5960.83 Q1390.26 5903.79 1375.63 5875.46 Q1361.19 5846.94 1332.12 5846.94 M1332.12 5817.31 Q1378.6 5817.31 1403.04 5854.16 Q1427.67 5890.83 1427.67 5960.83 Q1427.67 6030.64 1403.04 6067.5 Q1378.6 6104.16 1332.12 6104.16 Q1285.64 6104.16 1261.01 6067.5 Q1236.56 6030.64 1236.56 5960.83 Q1236.56 5890.83 1261.01 5854.16 Q1285.64 5817.31 1332.12 5817.31 Z" fill="#000000" fill-rule="evenodd" fill-opacity="1" /><path clip-path="url(#clip0600)" d="M 0 0 M1548.23 5846.94 Q1519.34 5846.94 1504.71 5875.46 Q1490.26 5903.79 1490.26 5960.83 Q1490.26 6017.68 1504.71 6046.2 Q1519.34 6074.53 1548.23 6074.53 Q1577.3 6074.53 1591.74 6046.2 Q1606.37 6017.68 1606.37 5960.83 Q1606.37 5903.79 1591.74 5875.46 Q1577.3 5846.94 1548.23 5846.94 M1548.23 5817.31 Q1594.71 5817.31 1619.15 5854.16 Q1643.78 5890.83 1643.78 5960.83 Q1643.78 6030.64 1619.15 6067.5 Q1594.71 6104.16 1548.23 6104.16 Q1501.75 6104.16 1477.12 6067.5 Q1452.67 6030.64 1452.67 5960.83 Q1452.67 5890.83 1477.12 5854.16 Q1501.75 5817.31 1548.23 5817.31 Z" fill="#000000" fill-rule="evenodd" fill-opacity="1" /><path clip-path="url(#clip0600)" d="M 0 0 M1134.9 3945.1 L1040.45 4092.69 L1134.9 4092.69 L1134.9 3945.1 M1125.08 3912.51 L1172.12 3912.51 L1172.12 4092.69 L1211.56 4092.69 L1211.56 4123.8 L1172.12 4123.8 L1172.12 4188.99 L1134.9 4188.99 L1134.9 4123.8 L1010.08 4123.8 L1010.08 4087.69 L1125.08 3912.51 Z" fill="#000000" fill-rule="evenodd" fill-opacity="1" /><path clip-path="url(#clip0600)" d="M 0 0 M1332.12 3937.13 Q1303.23 3937.13 1288.6 3965.65 Q1274.15 3993.99 1274.15 4051.02 Q1274.15 4107.87 1288.6 4136.39 Q1303.23 4164.73 1332.12 4164.73 Q1361.19 4164.73 1375.63 4136.39 Q1390.26 4107.87 1390.26 4051.02 Q1390.26 3993.99 1375.63 3965.65 Q1361.19 3937.13 1332.12 3937.13 M1332.12 3907.51 Q1378.6 3907.51 1403.04 3944.36 Q1427.67 3981.02 1427.67 4051.02 Q1427.67 4120.84 1403.04 4157.69 Q1378.6 4194.36 1332.12 4194.36 Q1285.64 4194.36 1261.01 4157.69 Q1236.56 4120.84 1236.56 4051.02 Q1236.56 3981.02 1261.01 3944.36 Q1285.64 3907.51 1332.12 3907.51 Z" fill="#000000" fill-rule="evenodd" fill-opacity="1" /><path clip-path="url(#clip0600)" d="M 0 0 M1548.23 3937.13 Q1519.34 3937.13 1504.71 3965.65 Q1490.26 3993.99 1490.26 4051.02 Q1490.26 4107.87 1504.71 4136.39 Q1519.34 4164.73 1548.23 4164.73 Q1577.3 4164.73 1591.74 4136.39 Q1606.37 4107.87 1606.37 4051.02 Q1606.37 3993.99 1591.74 3965.65 Q1577.3 3937.13 1548.23 3937.13 M1548.23 3907.51 Q1594.71 3907.51 1619.15 3944.36 Q1643.78 3981.02 1643.78 4051.02 Q1643.78 4120.84 1619.15 4157.69 Q1594.71 4194.36 1548.23 4194.36 Q1501.75 4194.36 1477.12 4157.69 Q1452.67 4120.84 1452.67 4051.02 Q1452.67 3981.02 1477.12 3944.36 Q1501.75 3907.51 1548.23 3907.51 Z" fill="#000000" fill-rule="evenodd" fill-opacity="1" /><path clip-path="url(#clip0600)" d="M 0 0 M1044.34 2002.7 L1191.19 2002.7 L1191.19 2034.18 L1078.6 2034.18 L1078.6 2101.96 Q1086.75 2099.18 1094.9 2097.88 Q1103.04 2096.4 1111.19 2096.4 Q1157.49 2096.4 1184.52 2121.77 Q1211.56 2147.14 1211.56 2190.48 Q1211.56 2235.1 1183.78 2259.92 Q1156.01 2284.55 1105.45 2284.55 Q1088.04 2284.55 1069.9 2281.59 Q1051.93 2278.62 1032.67 2272.7 L1032.67 2235.1 Q1049.34 2244.18 1067.12 2248.62 Q1084.9 2253.07 1104.71 2253.07 Q1136.75 2253.07 1155.45 2236.22 Q1174.15 2219.36 1174.15 2190.48 Q1174.15 2161.59 1155.45 2144.73 Q1136.75 2127.88 1104.71 2127.88 Q1089.71 2127.88 1074.71 2131.22 Q1059.9 2134.55 1044.34 2141.59 L1044.34 2002.7 Z" fill="#000000" fill-rule="evenodd" fill-opacity="1" /><path clip-path="url(#clip0600)" d="M 0 0 M1332.12 2027.33 Q1303.23 2027.33 1288.6 2055.85 Q1274.15 2084.18 1274.15 2141.22 Q1274.15 2198.07 1288.6 2226.59 Q1303.23 2254.92 1332.12 2254.92 Q1361.19 2254.92 1375.63 2226.59 Q1390.26 2198.07 1390.26 2141.22 Q1390.26 2084.18 1375.63 2055.85 Q1361.19 2027.33 1332.12 2027.33 M1332.12 1997.7 Q1378.6 1997.7 1403.04 2034.55 Q1427.67 2071.22 1427.67 2141.22 Q1427.67 2211.03 1403.04 2247.88 Q1378.6 2284.55 1332.12 2284.55 Q1285.64 2284.55 1261.01 2247.88 Q1236.56 2211.03 1236.56 2141.22 Q1236.56 2071.22 1261.01 2034.55 Q1285.64 1997.7 1332.12 1997.7 Z" fill="#000000" fill-rule="evenodd" fill-opacity="1" /><path clip-path="url(#clip0600)" d="M 0 0 M1548.23 2027.33 Q1519.34 2027.33 1504.71 2055.85 Q1490.26 2084.18 1490.26 2141.22 Q1490.26 2198.07 1504.71 2226.59 Q1519.34 2254.92 1548.23 2254.92 Q1577.3 2254.92 1591.74 2226.59 Q1606.37 2198.07 1606.37 2141.22 Q1606.37 2084.18 1591.74 2055.85 Q1577.3 2027.33 1548.23 2027.33 M1548.23 1997.7 Q1594.71 1997.7 1619.15 2034.55 Q1643.78 2071.22 1643.78 2141.22 Q1643.78 2211.03 1619.15 2247.88 Q1594.71 2284.55 1548.23 2284.55 Q1501.75 2284.55 1477.12 2247.88 Q1452.67 2211.03 1452.67 2141.22 Q1452.67 2071.22 1477.12 2034.55 Q1501.75 1997.7 1548.23 1997.7 Z" fill="#000000" fill-rule="evenodd" fill-opacity="1" /><path clip-path="url(#clip0600)" d="M 0 0 M10168.1 12068.2 L10489.7 12068.2 L10489.7 12111.5 L10354.8 12111.5 L10354.8 12448.4 L10303.1 12448.4 L10303.1 12111.5 L10168.1 12111.5 L10168.1 12068.2 Z" fill="#000000" fill-rule="evenodd" fill-opacity="1" /><path clip-path="url(#clip0600)" d="M 0 0 M336.35 6317.36 L386.512 6317.36 Q372.507 6346.65 365.632 6372.62 Q358.757 6398.59 358.757 6422.78 Q358.757 6464.79 375.054 6487.71 Q391.35 6510.37 421.396 6510.37 Q446.604 6510.37 459.59 6495.35 Q472.322 6480.07 480.215 6437.8 L486.581 6406.74 Q497.53 6349.19 525.284 6321.95 Q552.784 6294.45 599.126 6294.45 Q654.381 6294.45 682.899 6331.62 Q711.417 6368.54 711.417 6440.1 Q711.417 6467.09 705.306 6497.64 Q699.195 6527.94 687.228 6560.53 L634.265 6560.53 Q651.834 6529.22 660.746 6499.17 Q669.658 6469.12 669.658 6440.1 Q669.658 6396.04 652.344 6372.11 Q635.029 6348.17 602.946 6348.17 Q574.937 6348.17 559.15 6365.49 Q543.363 6382.55 535.469 6421.76 L529.358 6453.08 Q517.9 6510.63 493.456 6536.35 Q469.011 6562.06 425.47 6562.06 Q375.054 6562.06 346.026 6526.67 Q316.998 6491.02 316.998 6428.64 Q316.998 6401.9 321.836 6374.15 Q326.674 6346.39 336.35 6317.36 Z" fill="#000000" fill-rule="evenodd" fill-opacity="1" /><path clip-path="url(#clip0600)" d="M 0 0 M790.607 6028.62 L827.019 6028.62 L827.019 6299.54 L790.607 6299.54 L790.607 6028.62 Z" fill="#000000" fill-rule="evenodd" fill-opacity="1" /><path clip-path="url(#clip0600)" d="M 0 0 M427.252 5797.67 L471.558 5797.67 Q461.373 5817.53 456.28 5838.92 Q451.187 5860.31 451.187 5883.22 Q451.187 5918.11 461.882 5935.68 Q472.576 5952.99 493.965 5952.99 Q510.261 5952.99 519.682 5940.51 Q528.849 5928.04 537.252 5890.35 L540.817 5874.31 Q551.511 5824.4 571.117 5803.52 Q590.469 5782.39 625.353 5782.39 Q665.075 5782.39 688.246 5813.96 Q711.417 5845.28 711.417 5900.28 Q711.417 5923.2 706.834 5948.15 Q702.505 5972.85 693.594 6000.35 L645.214 6000.35 Q658.709 5974.38 665.584 5949.17 Q672.205 5923.96 672.205 5899.27 Q672.205 5866.16 661.001 5848.34 Q649.543 5830.52 628.918 5830.52 Q609.821 5830.52 599.636 5843.5 Q589.451 5856.23 580.029 5899.77 L576.21 5916.07 Q567.043 5959.61 548.201 5978.96 Q529.104 5998.32 496.002 5998.32 Q455.771 5998.32 433.873 5969.8 Q411.975 5941.28 411.975 5888.83 Q411.975 5862.85 415.794 5839.94 Q419.613 5817.02 427.252 5797.67 Z" fill="#000000" fill-rule="evenodd" fill-opacity="1" /><path clip-path="url(#clip0600)" d="M 0 0 M418.85 5733.25 L418.85 5686.4 L704.033 5686.4 L704.033 5733.25 L418.85 5733.25 M307.832 5733.25 L307.832 5686.4 L367.16 5686.4 L367.16 5733.25 L307.832 5733.25 Z" fill="#000000" fill-rule="evenodd" fill-opacity="1" /><path clip-path="url(#clip0600)" d="M 0 0 M337.878 5590.91 L418.85 5590.91 L418.85 5494.41 L455.261 5494.41 L455.261 5590.91 L610.075 5590.91 Q644.96 5590.91 654.89 5581.49 Q664.821 5571.81 664.821 5542.53 L664.821 5494.41 L704.033 5494.41 L704.033 5542.53 Q704.033 5596.77 683.918 5617.39 Q663.547 5638.02 610.075 5638.02 L455.261 5638.02 L455.261 5672.39 L418.85 5672.39 L418.85 5638.02 L337.878 5638.02 L337.878 5590.91 Z" fill="#000000" fill-rule="evenodd" fill-opacity="1" /><path clip-path="url(#clip0600)" d="M 0 0 M549.729 5201.33 L572.645 5201.33 L572.645 5416.74 Q621.024 5413.69 646.487 5387.72 Q671.695 5361.49 671.695 5314.89 Q671.695 5287.9 665.075 5262.69 Q658.455 5237.23 645.214 5212.28 L689.519 5212.28 Q700.214 5237.49 705.816 5263.97 Q711.417 5290.45 711.417 5317.69 Q711.417 5385.93 671.695 5425.91 Q631.973 5465.63 564.242 5465.63 Q494.22 5465.63 453.224 5427.95 Q411.975 5390.01 411.975 5325.84 Q411.975 5268.3 449.15 5234.94 Q486.071 5201.33 549.729 5201.33 M535.979 5248.18 Q497.53 5248.69 474.613 5269.82 Q451.697 5290.7 451.697 5325.33 Q451.697 5364.55 473.849 5388.23 Q496.002 5411.65 536.233 5415.22 L535.979 5248.18 Z" fill="#000000" fill-rule="evenodd" fill-opacity="1" /><polyline clip-path="url(#clip0602)" style="stroke:#009af9; stroke-width:48; stroke-opacity:1; fill:none" points="
  2316.52,689.485 2356.69,689.485 2396.85,689.485 2437.01,689.485 2477.17,689.485 2517.34,689.485 2557.5,689.485 2597.66,689.485 2637.82,689.485 2677.99,689.485 
  2718.15,689.485 2758.31,689.485 2798.47,689.485 2838.64,689.485 2878.8,689.485 2918.96,689.485 2959.12,689.485 2999.28,689.485 3039.45,689.485 3079.61,689.485 
  3119.77,689.485 3159.93,689.485 3200.1,689.485 3240.26,689.485 3280.42,689.485 3320.58,689.485 3360.75,689.485 3400.91,689.485 3441.07,689.485 3481.23,689.485 
  3521.4,689.491 3561.56,689.487 3601.72,689.485 3641.88,689.491 3682.04,689.489 3722.21,689.485 3762.37,689.488 3802.53,689.493 3842.69,689.493 3882.86,689.51 
  3923.02,689.495 3963.18,689.561 4003.34,689.547 4043.51,689.534 4083.67,689.567 4123.83,689.576 4163.99,689.605 4204.16,689.641 4244.32,689.673 4284.48,689.721 
  4324.64,689.721 4364.8,689.821 4404.97,689.935 4445.13,689.924 4485.29,690.155 4525.45,690.134 4565.62,690.434 4605.78,690.453 4645.94,690.707 4686.1,690.903 
  4726.27,691 4766.43,691.467 4806.59,691.591 4846.75,691.891 4886.92,692.2 4927.08,692.754 4967.24,693.011 5007.4,693.19 5047.56,694.012 5087.73,694.597 
  5127.89,695.057 5168.05,695.444 5208.21,696.484 5248.38,696.985 5288.54,697.988 5328.7,698.944 5368.86,699.877 5409.03,701.025 5449.19,702.188 5489.35,702.907 
  5529.51,704.765 5569.68,705.64 5609.84,707.124 5650,708.976 5690.16,710.922 5730.32,711.835 5770.49,713.713 5810.65,716.155 5850.81,719.62 5890.97,721.534 
  5931.14,723.909 5971.3,725.9 6011.46,728.146 6051.62,730.849 6091.79,734.964 6131.95,738.128 6172.11,742.183 6212.27,745.001 6252.44,747.456 6292.6,751.656 
  6332.76,755.943 6372.92,759.874 6413.08,764.624 6453.25,767.814 6493.41,773.529 6533.57,779.816 6573.73,784.294 6613.9,789.554 6654.06,796.848 6694.22,803.642 
  6734.38,809.378 6774.55,814.467 6814.71,822.081 6854.87,832.118 6895.03,838.851 6935.2,845.406 6975.36,854.324 7015.52,863.324 7055.68,872.251 7095.84,884.55 
  7136.01,895.13 7176.17,902.395 7216.33,910.433 7256.49,920.055 7296.66,931.702 7336.82,945.935 7376.98,954.732 7417.14,968.706 7457.31,986.075 7497.47,999.445 
  7537.63,1013.5 7577.79,1030.16 7617.96,1050.99 7658.12,1065.13 7698.28,1093.1 7738.44,1094.69 7778.6,1122.2 7818.77,1142.04 7858.93,1160.28 7899.09,1177.81 
  7939.25,1186.23 7979.42,1220.81 8019.58,1247.04 8059.74,1265.58 8099.9,1284.95 8140.07,1322.47 8180.23,1354.63 8220.39,1373.38 8260.55,1411.4 8300.72,1446.88 
  8340.88,1475.36 8381.04,1527.43 8421.2,1535.24 8461.36,1594.43 8501.53,1598.76 8541.69,1692.25 8581.85,1726.41 8622.01,1781.74 8662.18,1834.89 8702.34,1917.39 
  8742.5,1954.34 8782.66,2059.23 8822.83,2007.21 8862.99,2137.53 8903.15,2303.62 8943.31,2279.09 8983.48,2368.52 9023.64,2435.52 9063.8,2750.38 9103.96,2778.66 
  9144.12,2862.05 9184.29,2898.37 9224.45,2998.87 9264.61,3339.53 9304.77,3971.45 9344.94,4169.36 9385.1,3867.85 9425.26,4924.89 9465.42,4577.7 9505.59,4665.07 
  9545.75,4889.42 9585.91,5148.4 9626.07,6070.53 9666.24,6166.72 9706.4,6451.84 9746.56,6852.34 9786.72,7345.16 9826.88,7438.02 9867.05,7410.13 9907.21,7605.86 
  9947.37,7492.05 9987.53,8279.64 10027.7,8397.62 10067.9,8388.33 10108,8697.05 10148.2,8769.78 10188.3,8843.78 10228.5,8684.35 10268.7,8777.23 10308.8,9058.52 
  10349,9322.41 10389.2,9513.91 10429.3,9469.89 10469.5,9537.49 10509.6,9466.98 10549.8,9313.86 10590,9516.78 10630.1,9670.89 10670.3,9722.78 10710.5,9720.52 
  10750.6,9879.38 10790.8,9860.97 10830.9,9882.21 10871.1,9844.04 10911.3,9938.57 10951.4,10005.1 10991.6,10034.4 11031.8,10001.1 11071.9,10132.5 11112.1,10053.3 
  11152.2,10119.5 11192.4,10199.5 11232.6,10214.1 11272.7,10154.9 11312.9,10218.5 11353.1,10156.3 11393.2,10276 11433.4,10249.6 11473.5,10273.4 11513.7,10347 
  11553.9,10333.6 11594,10380.4 11634.2,10437.7 11674.4,10332.7 11714.5,10416 11754.7,10433.9 11794.8,10483.6 11835,10387.8 11875.2,10471.2 11915.3,10501.2 
  11955.5,10499.4 11995.7,10468.1 12035.8,10491.9 12076,10529.2 12116.1,10521.3 12156.3,10522.8 12196.5,10549.8 12236.6,10534.7 12276.8,10578.1 12317,10605.6 
  12357.1,10641.7 12397.3,10564.2 12437.4,10595.3 12477.6,10634.1 12517.8,10598.3 12557.9,10653 12598.1,10655 12638.2,10656.1 12678.4,10657.9 12718.6,10701.1 
  12758.7,10649.3 12798.9,10698.8 12839.1,10695.5 12879.2,10708.8 12919.4,10686.6 12959.5,10713.8 12999.7,10717.2 13039.9,10706.3 13080,10744.3 13120.2,10730.6 
  13160.4,10768.6 13200.5,10784.5 13240.7,10743.1 13280.8,10761.6 13321,10760.3 13361.2,10775.6 13401.3,10783.9 13441.5,10768.7 13481.7,10780 13521.8,10802.6 
  13562,10760.3 13602.1,10804.4 13642.3,10814 13682.5,10823.2 13722.6,10808.7 13762.8,10807.7 13803,10791.7 13843.1,10846.3 13883.3,10826.6 13923.4,10850.4 
  13963.6,10846.3 14003.8,10861.8 14043.9,10848.2 14084.1,10861 14124.3,10850.2 14164.4,10873.9 14204.6,10863.5 14244.7,10856 14284.9,10886.8 14325.1,10888.1 
  14365.2,10886.7 14405.4,10872.5 14445.6,10868.1 14485.7,10869 14525.9,10886.8 14566,10890.8 14606.2,10900.9 14646.4,10901.8 14686.5,10892.2 14726.7,10905.1 
  14766.9,10931.5 14807,10908.7 14847.2,10918.4 14887.3,10912.6 14927.5,10933 14967.7,10914.7 15007.8,10934.5 15048,10942.1 15088.2,10921.4 15128.3,10943.9 
  15168.5,10931.5 15208.6,10933.9 15248.8,10940.1 15289,10932.3 15329.1,10956 15369.3,10949 15409.5,10956.9 15449.6,10957.4 15489.8,10964.2 15529.9,10966.8 
  15570.1,10960.7 15610.3,10968 15650.4,10968.9 15690.6,10974.5 15730.8,10970.1 15770.9,10981 15811.1,10960.7 15851.2,10970.4 15891.4,10981.8 15931.6,10971.6 
  15971.7,10964.4 16011.9,10987.3 16052,10982.4 16092.2,10990.5 16132.4,10995.9 16172.5,10981.1 16212.7,10975.8 16252.9,10987.8 16293,11004.6 16333.2,11015.5 
  16373.3,11007.7 16413.5,11000 16453.7,11033.5 16493.8,11009.2 16534,11016.2 16574.2,11010.3 16614.3,11016.9 16654.5,11018 16694.6,11015.2 16734.8,11009.3 
  16775,11011.1 16815.1,11013.3 16855.3,11036.7 16895.5,11017.3 16935.6,11018.7 16975.8,11008.7 17015.9,11032.2 17056.1,11028.9 17096.3,11031.1 17136.4,11041.5 
  17176.6,11039.8 17216.8,11033.4 17256.9,11039 17297.1,11032 17337.2,11029.2 17377.4,11032.5 17417.6,11031.7 17457.7,11040 17497.9,11040.2 17538.1,11046.5 
  17578.2,11049.4 17618.4,11046.7 17658.5,11041.7 17698.7,11050 17738.9,11051.1 17779,11061.4 17819.2,11056.4 17859.4,11048.7 17899.5,11056.7 17939.7,11063.5 
  17979.8,11065 18020,11059.7 18060.2,11066.6 18100.3,11072.4 18140.5,11069.1 18180.7,11062 18220.8,11066.8 18261,11073.9 18301.1,11065.9 18341.3,11064.4 
  
  "/>
<path clip-path="url(#clip0600)" d="
M15336.4 2013.79 L18246 2013.79 L18246 1046.11 L15336.4 1046.11  Z
  " fill="#ffffff" fill-rule="evenodd" fill-opacity="1"/>
<polyline clip-path="url(#clip0600)" style="stroke:#000000; stroke-width:32; stroke-opacity:1; fill:none" points="
  15336.4,2013.79 18246,2013.79 18246,1046.11 15336.4,1046.11 15336.4,2013.79 
  "/>
<polyline clip-path="url(#clip0600)" style="stroke:#009af9; stroke-width:48; stroke-opacity:1; fill:none" points="
  15528.4,1529.95 16680.4,1529.95 
  "/>
<path clip-path="url(#clip0600)" d="M 0 0 M17050.4 1400.79 L17050.4 1437.27 Q17029.1 1427.08 17010.2 1422.08 Q16991.3 1417.08 16973.7 1417.08 Q16943.2 1417.08 16926.5 1428.93 Q16910 1440.79 16910 1462.64 Q16910 1480.97 16920.9 1490.42 Q16932.1 1499.68 16962.8 1505.42 L16985.4 1510.05 Q17027.2 1518.01 17047.1 1538.19 Q17067.1 1558.19 17067.1 1591.9 Q17067.1 1632.08 17040 1652.82 Q17013.2 1673.56 16961.1 1673.56 Q16941.5 1673.56 16919.3 1669.12 Q16897.2 1664.67 16873.5 1655.97 L16873.5 1617.45 Q16896.3 1630.23 16918.2 1636.71 Q16940 1643.19 16961.1 1643.19 Q16993.2 1643.19 17010.6 1630.6 Q17028 1618.01 17028 1594.67 Q17028 1574.3 17015.4 1562.82 Q17003 1551.34 16974.5 1545.6 L16951.7 1541.16 Q16909.8 1532.82 16891.1 1515.05 Q16872.4 1497.27 16872.4 1465.6 Q16872.4 1428.93 16898.2 1407.82 Q16924.1 1386.71 16969.5 1386.71 Q16988.9 1386.71 17009.1 1390.23 Q17029.3 1393.75 17050.4 1400.79 Z" fill="#000000" fill-rule="evenodd" fill-opacity="1" /><path clip-path="url(#clip0600)" d="M 0 0 M17260.4 1731.16 L17260.4 1757.64 L17063.3 1757.64 L17063.3 1731.16 L17260.4 1731.16 Z" fill="#000000" fill-rule="evenodd" fill-opacity="1" /><path clip-path="url(#clip0600)" d="M 0 0 M17428.3 1466.9 L17428.3 1499.12 Q17413.9 1491.71 17398.3 1488.01 Q17382.8 1484.3 17366.1 1484.3 Q17340.8 1484.3 17328 1492.08 Q17315.4 1499.86 17315.4 1515.42 Q17315.4 1527.27 17324.5 1534.12 Q17333.5 1540.79 17360.9 1546.9 L17372.6 1549.49 Q17408.9 1557.27 17424.1 1571.53 Q17439.5 1585.6 17439.5 1610.97 Q17439.5 1639.86 17416.5 1656.71 Q17393.7 1673.56 17353.7 1673.56 Q17337.1 1673.56 17318.9 1670.23 Q17300.9 1667.08 17280.9 1660.6 L17280.9 1625.42 Q17299.8 1635.23 17318.2 1640.23 Q17336.5 1645.04 17354.5 1645.04 Q17378.5 1645.04 17391.5 1636.9 Q17404.5 1628.56 17404.5 1613.56 Q17404.5 1599.67 17395 1592.27 Q17385.8 1584.86 17354.1 1578.01 L17342.2 1575.23 Q17310.6 1568.56 17296.5 1554.86 Q17282.4 1540.97 17282.4 1516.9 Q17282.4 1487.64 17303.2 1471.71 Q17323.9 1455.79 17362 1455.79 Q17380.9 1455.79 17397.6 1458.56 Q17414.3 1461.34 17428.3 1466.9 Z" fill="#000000" fill-rule="evenodd" fill-opacity="1" /><path clip-path="url(#clip0600)" d="M 0 0 M17475.2 1460.79 L17509.3 1460.79 L17509.3 1668.19 L17475.2 1668.19 L17475.2 1460.79 M17475.2 1380.05 L17509.3 1380.05 L17509.3 1423.19 L17475.2 1423.19 L17475.2 1380.05 Z" fill="#000000" fill-rule="evenodd" fill-opacity="1" /><path clip-path="url(#clip0600)" d="M 0 0 M17578.7 1401.9 L17578.7 1460.79 L17648.9 1460.79 L17648.9 1487.27 L17578.7 1487.27 L17578.7 1599.86 Q17578.7 1625.23 17585.6 1632.45 Q17592.6 1639.67 17613.9 1639.67 L17648.9 1639.67 L17648.9 1668.19 L17613.9 1668.19 Q17574.5 1668.19 17559.5 1653.56 Q17544.5 1638.75 17544.5 1599.86 L17544.5 1487.27 L17519.5 1487.27 L17519.5 1460.79 L17544.5 1460.79 L17544.5 1401.9 L17578.7 1401.9 Z" fill="#000000" fill-rule="evenodd" fill-opacity="1" /><path clip-path="url(#clip0600)" d="M 0 0 M17862 1555.97 L17862 1572.64 L17705.4 1572.64 Q17707.6 1607.82 17726.5 1626.34 Q17745.6 1644.67 17779.5 1644.67 Q17799.1 1644.67 17817.4 1639.86 Q17835.9 1635.04 17854.1 1625.42 L17854.1 1657.64 Q17835.8 1665.41 17816.5 1669.49 Q17797.2 1673.56 17777.4 1673.56 Q17727.8 1673.56 17698.7 1644.67 Q17669.8 1615.79 17669.8 1566.53 Q17669.8 1515.6 17697.2 1485.79 Q17724.8 1455.79 17771.5 1455.79 Q17813.3 1455.79 17837.6 1482.82 Q17862 1509.68 17862 1555.97 M17828 1545.97 Q17827.6 1518.01 17812.2 1501.34 Q17797 1484.68 17771.9 1484.68 Q17743.3 1484.68 17726.1 1500.79 Q17709.1 1516.9 17706.5 1546.16 L17828 1545.97 Z" fill="#000000" fill-rule="evenodd" fill-opacity="1" /></svg>
