<?xml version="1.0" encoding="utf-8"?>
<svg xmlns="http://www.w3.org/2000/svg" xmlns:xlink="http://www.w3.org/1999/xlink" width="4800" height="3200" viewBox="0 0 19200 12800">
<defs>
  <clipPath id="clip4000">
    <rect x="0" y="0" width="19200" height="12800"/>
  </clipPath>
</defs>
<path clip-path="url(#clip4000)" d="
M0 12800 L19200 12800 L19200 0 L0 0  Z
  " fill="#ffffff" fill-rule="evenodd" fill-opacity="1"/>
<defs>
  <clipPath id="clip4001">
    <rect x="3840" y="0" width="13441" height="12800"/>
  </clipPath>
</defs>
<path clip-path="url(#clip4000)" d="
M1619.67 11385.4 L18822 11385.4 L18822 377.953 L1619.67 377.953  Z
  " fill="#ffffff" fill-rule="evenodd" fill-opacity="1"/>
<defs>
  <clipPath id="clip4002">
    <rect x="1619" y="377" width="17203" height="11008"/>
  </clipPath>
</defs>
<polyline clip-path="url(#clip4002)" style="stroke:#000000; stroke-width:16; stroke-opacity:0.1; fill:none" points="
  1775.33,11385.4 1775.33,377.953 
  "/>
<polyline clip-path="url(#clip4002)" style="stroke:#000000; stroke-width:16; stroke-opacity:0.1; fill:none" points="
  5087.3,11385.4 5087.3,377.953 
  "/>
<polyline clip-path="url(#clip4002)" style="stroke:#000000; stroke-width:16; stroke-opacity:0.1; fill:none" points="
  8399.28,11385.4 8399.28,377.953 
  "/>
<polyline clip-path="url(#clip4002)" style="stroke:#000000; stroke-width:16; stroke-opacity:0.1; fill:none" points="
  11711.2,11385.4 11711.2,377.953 
  "/>
<polyline clip-path="url(#clip4002)" style="stroke:#000000; stroke-width:16; stroke-opacity:0.1; fill:none" points="
  15023.2,11385.4 15023.2,377.953 
  "/>
<polyline clip-path="url(#clip4002)" style="stroke:#000000; stroke-width:16; stroke-opacity:0.1; fill:none" points="
  18335.2,11385.4 18335.2,377.953 
  "/>
<polyline clip-path="url(#clip4002)" style="stroke:#000000; stroke-width:16; stroke-opacity:0.1; fill:none" points="
  1619.67,11236.6 18822,11236.6 
  "/>
<polyline clip-path="url(#clip4002)" style="stroke:#000000; stroke-width:16; stroke-opacity:0.1; fill:none" points="
  1619.67,9283.44 18822,9283.44 
  "/>
<polyline clip-path="url(#clip4002)" style="stroke:#000000; stroke-width:16; stroke-opacity:0.1; fill:none" points="
  1619.67,7330.27 18822,7330.27 
  "/>
<polyline clip-path="url(#clip4002)" style="stroke:#000000; stroke-width:16; stroke-opacity:0.1; fill:none" points="
  1619.67,5377.1 18822,5377.1 
  "/>
<polyline clip-path="url(#clip4002)" style="stroke:#000000; stroke-width:16; stroke-opacity:0.1; fill:none" points="
  1619.67,3423.92 18822,3423.92 
  "/>
<polyline clip-path="url(#clip4002)" style="stroke:#000000; stroke-width:16; stroke-opacity:0.1; fill:none" points="
  1619.67,1470.75 18822,1470.75 
  "/>
<polyline clip-path="url(#clip4000)" style="stroke:#000000; stroke-width:32; stroke-opacity:1; fill:none" points="
  1619.67,11385.4 18822,11385.4 
  "/>
<polyline clip-path="url(#clip4000)" style="stroke:#000000; stroke-width:32; stroke-opacity:1; fill:none" points="
  1619.67,11385.4 1619.67,377.953 
  "/>
<polyline clip-path="url(#clip4000)" style="stroke:#000000; stroke-width:32; stroke-opacity:1; fill:none" points="
  1775.33,11385.4 1775.33,11253.3 
  "/>
<polyline clip-path="url(#clip4000)" style="stroke:#000000; stroke-width:32; stroke-opacity:1; fill:none" points="
  5087.3,11385.4 5087.3,11253.3 
  "/>
<polyline clip-path="url(#clip4000)" style="stroke:#000000; stroke-width:32; stroke-opacity:1; fill:none" points="
  8399.28,11385.4 8399.28,11253.3 
  "/>
<polyline clip-path="url(#clip4000)" style="stroke:#000000; stroke-width:32; stroke-opacity:1; fill:none" points="
  11711.2,11385.4 11711.2,11253.3 
  "/>
<polyline clip-path="url(#clip4000)" style="stroke:#000000; stroke-width:32; stroke-opacity:1; fill:none" points="
  15023.2,11385.4 15023.2,11253.3 
  "/>
<polyline clip-path="url(#clip4000)" style="stroke:#000000; stroke-width:32; stroke-opacity:1; fill:none" points="
  18335.2,11385.4 18335.2,11253.3 
  "/>
<polyline clip-path="url(#clip4000)" style="stroke:#000000; stroke-width:32; stroke-opacity:1; fill:none" points="
  1619.67,11236.6 1826.1,11236.6 
  "/>
<polyline clip-path="url(#clip4000)" style="stroke:#000000; stroke-width:32; stroke-opacity:1; fill:none" points="
  1619.67,9283.44 1826.1,9283.44 
  "/>
<polyline clip-path="url(#clip4000)" style="stroke:#000000; stroke-width:32; stroke-opacity:1; fill:none" points="
  1619.67,7330.27 1826.1,7330.27 
  "/>
<polyline clip-path="url(#clip4000)" style="stroke:#000000; stroke-width:32; stroke-opacity:1; fill:none" points="
  1619.67,5377.1 1826.1,5377.1 
  "/>
<polyline clip-path="url(#clip4000)" style="stroke:#000000; stroke-width:32; stroke-opacity:1; fill:none" points="
  1619.67,3423.92 1826.1,3423.92 
  "/>
<polyline clip-path="url(#clip4000)" style="stroke:#000000; stroke-width:32; stroke-opacity:1; fill:none" points="
  1619.67,1470.75 1826.1,1470.75 
  "/>
<path clip-path="url(#clip4000)" d="M 0 0 M1775.33 11561.4 Q1746.45 11561.4 1731.82 11589.9 Q1717.37 11618.2 1717.37 11675.3 Q1717.37 11732.1 1731.82 11760.6 Q1746.45 11789 1775.33 11789 Q1804.41 11789 1818.85 11760.6 Q1833.48 11732.1 1833.48 11675.3 Q1833.48 11618.2 1818.85 11589.9 Q1804.41 11561.4 1775.33 11561.4 M1775.33 11531.7 Q1821.82 11531.7 1846.26 11568.6 Q1870.89 11605.3 1870.89 11675.3 Q1870.89 11745.1 1846.26 11781.9 Q1821.82 11818.6 1775.33 11818.6 Q1728.85 11818.6 1704.22 11781.9 Q1679.78 11745.1 1679.78 11675.3 Q1679.78 11605.3 1704.22 11568.6 Q1728.85 11531.7 1775.33 11531.7 Z" fill="#000000" fill-rule="evenodd" fill-opacity="1" /><path clip-path="url(#clip4000)" d="M 0 0 M5010.36 11781.7 L5071.47 11781.7 L5071.47 11570.8 L5004.99 11584.1 L5004.99 11550.1 L5071.1 11536.7 L5108.51 11536.7 L5108.51 11781.7 L5169.62 11781.7 L5169.62 11813.2 L5010.36 11813.2 L5010.36 11781.7 Z" fill="#000000" fill-rule="evenodd" fill-opacity="1" /><path clip-path="url(#clip4000)" d="M 0 0 M8356.5 11781.7 L8487.05 11781.7 L8487.05 11813.2 L8311.5 11813.2 L8311.5 11781.7 Q8332.79 11759.7 8369.46 11722.7 Q8406.31 11685.4 8415.76 11674.7 Q8433.72 11654.5 8440.76 11640.6 Q8447.98 11626.5 8447.98 11613 Q8447.98 11591 8432.42 11577.1 Q8417.05 11563.2 8392.24 11563.2 Q8374.65 11563.2 8355.02 11569.3 Q8335.57 11575.4 8313.35 11587.8 L8313.35 11550.1 Q8335.94 11541 8355.57 11536.4 Q8375.2 11531.7 8391.5 11531.7 Q8434.46 11531.7 8460.02 11553.2 Q8485.57 11574.7 8485.57 11610.6 Q8485.57 11627.7 8479.09 11643 Q8472.79 11658.2 8455.94 11679 Q8451.31 11684.3 8426.5 11710.1 Q8401.68 11735.6 8356.5 11781.7 Z" fill="#000000" fill-rule="evenodd" fill-opacity="1" /><path clip-path="url(#clip4000)" d="M 0 0 M11745.2 11664.1 Q11772.1 11669.9 11787.1 11688 Q11802.3 11706.2 11802.3 11732.8 Q11802.3 11773.8 11774.1 11796.2 Q11746 11818.6 11694.1 11818.6 Q11676.7 11818.6 11658.2 11815.1 Q11639.9 11811.7 11620.2 11804.9 L11620.2 11768.8 Q11635.8 11777.8 11654.3 11782.5 Q11672.8 11787.1 11693 11787.1 Q11728.2 11787.1 11746.5 11773.2 Q11765 11759.3 11765 11732.8 Q11765 11708.4 11747.8 11694.7 Q11730.8 11680.8 11700.2 11680.8 L11668 11680.8 L11668 11650.1 L11701.7 11650.1 Q11729.3 11650.1 11743.9 11639.1 Q11758.6 11628 11758.6 11607.3 Q11758.6 11586 11743.4 11574.7 Q11728.4 11563.2 11700.2 11563.2 Q11684.9 11563.2 11667.3 11566.5 Q11649.7 11569.9 11628.6 11576.9 L11628.6 11543.6 Q11649.9 11537.7 11668.4 11534.7 Q11687.1 11531.7 11703.6 11531.7 Q11746.2 11531.7 11771 11551.2 Q11795.8 11570.4 11795.8 11603.4 Q11795.8 11626.4 11782.6 11642.3 Q11769.5 11658 11745.2 11664.1 Z" fill="#000000" fill-rule="evenodd" fill-opacity="1" /><path clip-path="url(#clip4000)" d="M 0 0 M15047.3 11569.3 L14952.8 11716.9 L15047.3 11716.9 L15047.3 11569.3 M15037.5 11536.7 L15084.5 11536.7 L15084.5 11716.9 L15124 11716.9 L15124 11748 L15084.5 11748 L15084.5 11813.2 L15047.3 11813.2 L15047.3 11748 L14922.5 11748 L14922.5 11711.9 L15037.5 11536.7 Z" fill="#000000" fill-rule="evenodd" fill-opacity="1" /><path clip-path="url(#clip4000)" d="M 0 0 M18257.4 11536.7 L18404.3 11536.7 L18404.3 11568.2 L18291.7 11568.2 L18291.7 11636 Q18299.8 11633.2 18308 11631.9 Q18316.1 11630.4 18324.3 11630.4 Q18370.6 11630.4 18397.6 11655.8 Q18424.6 11681.2 18424.6 11724.5 Q18424.6 11769.1 18396.9 11794 Q18369.1 11818.6 18318.5 11818.6 Q18301.1 11818.6 18283 11815.6 Q18265 11812.7 18245.7 11806.7 L18245.7 11769.1 Q18262.4 11778.2 18280.2 11782.7 Q18298 11787.1 18317.8 11787.1 Q18349.8 11787.1 18368.5 11770.3 Q18387.2 11753.4 18387.2 11724.5 Q18387.2 11695.6 18368.5 11678.8 Q18349.8 11661.9 18317.8 11661.9 Q18302.8 11661.9 18287.8 11665.3 Q18273 11668.6 18257.4 11675.6 L18257.4 11536.7 Z" fill="#000000" fill-rule="evenodd" fill-opacity="1" /><path clip-path="url(#clip4000)" d="M 0 0 M1052.3 11343.4 L1113.41 11343.4 L1113.41 11132.4 L1046.93 11145.8 L1046.93 11111.7 L1113.04 11098.4 L1150.45 11098.4 L1150.45 11343.4 L1211.56 11343.4 L1211.56 11374.8 L1052.3 11374.8 L1052.3 11343.4 Z" fill="#000000" fill-rule="evenodd" fill-opacity="1" /><path clip-path="url(#clip4000)" d="M 0 0 M1332.12 11123 Q1303.23 11123 1288.6 11151.5 Q1274.15 11179.8 1274.15 11236.9 Q1274.15 11293.7 1288.6 11322.3 Q1303.23 11350.6 1332.12 11350.6 Q1361.19 11350.6 1375.63 11322.3 Q1390.26 11293.7 1390.26 11236.9 Q1390.26 11179.8 1375.63 11151.5 Q1361.19 11123 1332.12 11123 M1332.12 11093.4 Q1378.6 11093.4 1403.04 11130.2 Q1427.67 11166.9 1427.67 11236.9 Q1427.67 11306.7 1403.04 11343.6 Q1378.6 11380.2 1332.12 11380.2 Q1285.64 11380.2 1261.01 11343.6 Q1236.56 11306.7 1236.56 11236.9 Q1236.56 11166.9 1261.01 11130.2 Q1285.64 11093.4 1332.12 11093.4 Z" fill="#000000" fill-rule="evenodd" fill-opacity="1" /><path clip-path="url(#clip4000)" d="M 0 0 M1081.01 9390.2 L1211.56 9390.2 L1211.56 9421.68 L1036.01 9421.68 L1036.01 9390.2 Q1057.3 9368.16 1093.97 9331.12 Q1130.82 9293.9 1140.27 9283.16 Q1158.23 9262.97 1165.27 9249.09 Q1172.49 9235.01 1172.49 9221.49 Q1172.49 9199.46 1156.93 9185.57 Q1141.56 9171.68 1116.75 9171.68 Q1099.15 9171.68 1079.53 9177.79 Q1060.08 9183.9 1037.86 9196.31 L1037.86 9158.53 Q1060.45 9149.46 1080.08 9144.83 Q1099.71 9140.2 1116.01 9140.2 Q1158.97 9140.2 1184.52 9161.68 Q1210.08 9183.16 1210.08 9219.09 Q1210.08 9236.12 1203.6 9251.49 Q1197.3 9266.68 1180.45 9287.42 Q1175.82 9292.79 1151.01 9318.53 Q1126.19 9344.08 1081.01 9390.2 Z" fill="#000000" fill-rule="evenodd" fill-opacity="1" /><path clip-path="url(#clip4000)" d="M 0 0 M1332.12 9169.83 Q1303.23 9169.83 1288.6 9198.34 Q1274.15 9226.68 1274.15 9283.71 Q1274.15 9340.57 1288.6 9369.08 Q1303.23 9397.42 1332.12 9397.42 Q1361.19 9397.42 1375.63 9369.08 Q1390.26 9340.57 1390.26 9283.71 Q1390.26 9226.68 1375.63 9198.34 Q1361.19 9169.83 1332.12 9169.83 M1332.12 9140.2 Q1378.6 9140.2 1403.04 9177.05 Q1427.67 9213.71 1427.67 9283.71 Q1427.67 9353.53 1403.04 9390.38 Q1378.6 9427.05 1332.12 9427.05 Q1285.64 9427.05 1261.01 9390.38 Q1236.56 9353.53 1236.56 9283.71 Q1236.56 9213.71 1261.01 9177.05 Q1285.64 9140.2 1332.12 9140.2 Z" fill="#000000" fill-rule="evenodd" fill-opacity="1" /><path clip-path="url(#clip4000)" d="M 0 0 M1154.52 7319.43 Q1181.38 7325.17 1196.38 7343.32 Q1211.56 7361.47 1211.56 7388.14 Q1211.56 7429.06 1183.41 7451.47 Q1155.27 7473.88 1103.41 7473.88 Q1086.01 7473.88 1067.49 7470.36 Q1049.16 7467.02 1029.53 7460.17 L1029.53 7424.06 Q1045.08 7433.14 1063.6 7437.77 Q1082.12 7442.4 1102.3 7442.4 Q1137.49 7442.4 1155.82 7428.51 Q1174.34 7414.62 1174.34 7388.14 Q1174.34 7363.69 1157.12 7349.99 Q1140.08 7336.1 1109.53 7336.1 L1077.3 7336.1 L1077.3 7305.36 L1111.01 7305.36 Q1138.6 7305.36 1153.23 7294.43 Q1167.86 7283.32 1167.86 7262.58 Q1167.86 7241.29 1152.67 7229.99 Q1137.67 7218.51 1109.53 7218.51 Q1094.15 7218.51 1076.56 7221.84 Q1058.97 7225.17 1037.86 7232.21 L1037.86 7198.88 Q1059.16 7192.95 1077.67 7189.99 Q1096.38 7187.03 1112.86 7187.03 Q1155.45 7187.03 1180.27 7206.47 Q1205.08 7225.73 1205.08 7258.69 Q1205.08 7281.66 1191.93 7297.58 Q1178.78 7313.32 1154.52 7319.43 Z" fill="#000000" fill-rule="evenodd" fill-opacity="1" /><path clip-path="url(#clip4000)" d="M 0 0 M1332.12 7216.66 Q1303.23 7216.66 1288.6 7245.17 Q1274.15 7273.51 1274.15 7330.54 Q1274.15 7387.4 1288.6 7415.91 Q1303.23 7444.25 1332.12 7444.25 Q1361.19 7444.25 1375.63 7415.91 Q1390.26 7387.4 1390.26 7330.54 Q1390.26 7273.51 1375.63 7245.17 Q1361.19 7216.66 1332.12 7216.66 M1332.12 7187.03 Q1378.6 7187.03 1403.04 7223.88 Q1427.67 7260.54 1427.67 7330.54 Q1427.67 7400.36 1403.04 7437.21 Q1378.6 7473.88 1332.12 7473.88 Q1285.64 7473.88 1261.01 7437.21 Q1236.56 7400.36 1236.56 7330.54 Q1236.56 7260.54 1261.01 7223.88 Q1285.64 7187.03 1332.12 7187.03 Z" fill="#000000" fill-rule="evenodd" fill-opacity="1" /><path clip-path="url(#clip4000)" d="M 0 0 M1134.9 5271.45 L1040.45 5419.04 L1134.9 5419.04 L1134.9 5271.45 M1125.08 5238.86 L1172.12 5238.86 L1172.12 5419.04 L1211.56 5419.04 L1211.56 5450.15 L1172.12 5450.15 L1172.12 5515.34 L1134.9 5515.34 L1134.9 5450.15 L1010.08 5450.15 L1010.08 5414.04 L1125.08 5238.86 Z" fill="#000000" fill-rule="evenodd" fill-opacity="1" /><path clip-path="url(#clip4000)" d="M 0 0 M1332.12 5263.48 Q1303.23 5263.48 1288.6 5292 Q1274.15 5320.34 1274.15 5377.37 Q1274.15 5434.22 1288.6 5462.74 Q1303.23 5491.08 1332.12 5491.08 Q1361.19 5491.08 1375.63 5462.74 Q1390.26 5434.22 1390.26 5377.37 Q1390.26 5320.34 1375.63 5292 Q1361.19 5263.48 1332.12 5263.48 M1332.12 5233.86 Q1378.6 5233.86 1403.04 5270.71 Q1427.67 5307.37 1427.67 5377.37 Q1427.67 5447.19 1403.04 5484.04 Q1378.6 5520.71 1332.12 5520.71 Q1285.64 5520.71 1261.01 5484.04 Q1236.56 5447.19 1236.56 5377.37 Q1236.56 5307.37 1261.01 5270.71 Q1285.64 5233.86 1332.12 5233.86 Z" fill="#000000" fill-rule="evenodd" fill-opacity="1" /><path clip-path="url(#clip4000)" d="M 0 0 M1044.34 3285.68 L1191.19 3285.68 L1191.19 3317.17 L1078.6 3317.17 L1078.6 3384.94 Q1086.75 3382.17 1094.9 3380.87 Q1103.04 3379.39 1111.19 3379.39 Q1157.49 3379.39 1184.52 3404.76 Q1211.56 3430.13 1211.56 3473.46 Q1211.56 3518.09 1183.78 3542.91 Q1156.01 3567.53 1105.45 3567.53 Q1088.04 3567.53 1069.9 3564.57 Q1051.93 3561.61 1032.67 3555.68 L1032.67 3518.09 Q1049.34 3527.16 1067.12 3531.61 Q1084.9 3536.05 1104.71 3536.05 Q1136.75 3536.05 1155.45 3519.2 Q1174.15 3502.35 1174.15 3473.46 Q1174.15 3444.57 1155.45 3427.72 Q1136.75 3410.87 1104.71 3410.87 Q1089.71 3410.87 1074.71 3414.2 Q1059.9 3417.54 1044.34 3424.57 L1044.34 3285.68 Z" fill="#000000" fill-rule="evenodd" fill-opacity="1" /><path clip-path="url(#clip4000)" d="M 0 0 M1332.12 3310.31 Q1303.23 3310.31 1288.6 3338.83 Q1274.15 3367.17 1274.15 3424.2 Q1274.15 3481.05 1288.6 3509.57 Q1303.23 3537.91 1332.12 3537.91 Q1361.19 3537.91 1375.63 3509.57 Q1390.26 3481.05 1390.26 3424.2 Q1390.26 3367.17 1375.63 3338.83 Q1361.19 3310.31 1332.12 3310.31 M1332.12 3280.68 Q1378.6 3280.68 1403.04 3317.54 Q1427.67 3354.2 1427.67 3424.2 Q1427.67 3494.02 1403.04 3530.87 Q1378.6 3567.53 1332.12 3567.53 Q1285.64 3567.53 1261.01 3530.87 Q1236.56 3494.02 1236.56 3424.2 Q1236.56 3354.2 1261.01 3317.54 Q1285.64 3280.68 1332.12 3280.68 Z" fill="#000000" fill-rule="evenodd" fill-opacity="1" /><path clip-path="url(#clip4000)" d="M 0 0 M1119.34 1455.85 Q1094.15 1455.85 1079.34 1473.07 Q1064.71 1490.29 1064.71 1520.29 Q1064.71 1550.11 1079.34 1567.51 Q1094.15 1584.73 1119.34 1584.73 Q1144.52 1584.73 1159.15 1567.51 Q1173.97 1550.11 1173.97 1520.29 Q1173.97 1490.29 1159.15 1473.07 Q1144.52 1455.85 1119.34 1455.85 M1193.6 1338.62 L1193.6 1372.7 Q1179.52 1366.03 1165.08 1362.51 Q1150.82 1359 1136.75 1359 Q1099.71 1359 1080.08 1383.99 Q1060.64 1408.99 1057.86 1459.55 Q1068.78 1443.44 1085.27 1434.92 Q1101.75 1426.22 1121.56 1426.22 Q1163.23 1426.22 1187.3 1451.59 Q1211.56 1476.77 1211.56 1520.29 Q1211.56 1562.88 1186.38 1588.62 Q1161.19 1614.36 1119.34 1614.36 Q1071.38 1614.36 1046.01 1577.7 Q1020.64 1540.85 1020.64 1471.03 Q1020.64 1405.48 1051.75 1366.59 Q1082.86 1327.51 1135.27 1327.51 Q1149.34 1327.51 1163.6 1330.29 Q1178.04 1333.07 1193.6 1338.62 Z" fill="#000000" fill-rule="evenodd" fill-opacity="1" /><path clip-path="url(#clip4000)" d="M 0 0 M1332.12 1357.14 Q1303.23 1357.14 1288.6 1385.66 Q1274.15 1413.99 1274.15 1471.03 Q1274.15 1527.88 1288.6 1556.4 Q1303.23 1584.73 1332.12 1584.73 Q1361.19 1584.73 1375.63 1556.4 Q1390.26 1527.88 1390.26 1471.03 Q1390.26 1413.99 1375.63 1385.66 Q1361.19 1357.14 1332.12 1357.14 M1332.12 1327.51 Q1378.6 1327.51 1403.04 1364.37 Q1427.67 1401.03 1427.67 1471.03 Q1427.67 1540.85 1403.04 1577.7 Q1378.6 1614.36 1332.12 1614.36 Q1285.64 1614.36 1261.01 1577.7 Q1236.56 1540.85 1236.56 1471.03 Q1236.56 1401.03 1261.01 1364.37 Q1285.64 1327.51 1332.12 1327.51 Z" fill="#000000" fill-rule="evenodd" fill-opacity="1" /><path clip-path="url(#clip4000)" d="M 0 0 M10060.1 12068.2 L10381.7 12068.2 L10381.7 12111.5 L10246.7 12111.5 L10246.7 12448.4 L10195 12448.4 L10195 12111.5 L10060.1 12111.5 L10060.1 12068.2 Z" fill="#000000" fill-rule="evenodd" fill-opacity="1" /><path clip-path="url(#clip4000)" d="M 0 0 M336.35 6317.36 L386.512 6317.36 Q372.507 6346.65 365.632 6372.62 Q358.757 6398.59 358.757 6422.78 Q358.757 6464.79 375.054 6487.71 Q391.35 6510.37 421.396 6510.37 Q446.604 6510.37 459.59 6495.35 Q472.322 6480.07 480.215 6437.8 L486.581 6406.74 Q497.53 6349.19 525.284 6321.95 Q552.784 6294.45 599.126 6294.45 Q654.381 6294.45 682.899 6331.62 Q711.417 6368.54 711.417 6440.1 Q711.417 6467.09 705.306 6497.64 Q699.195 6527.94 687.228 6560.53 L634.265 6560.53 Q651.834 6529.22 660.746 6499.17 Q669.658 6469.12 669.658 6440.1 Q669.658 6396.04 652.344 6372.11 Q635.029 6348.17 602.946 6348.17 Q574.937 6348.17 559.15 6365.49 Q543.363 6382.55 535.469 6421.76 L529.358 6453.08 Q517.9 6510.63 493.456 6536.35 Q469.011 6562.06 425.47 6562.06 Q375.054 6562.06 346.026 6526.67 Q316.998 6491.02 316.998 6428.64 Q316.998 6401.9 321.836 6374.15 Q326.674 6346.39 336.35 6317.36 Z" fill="#000000" fill-rule="evenodd" fill-opacity="1" /><path clip-path="url(#clip4000)" d="M 0 0 M790.607 6028.62 L827.019 6028.62 L827.019 6299.54 L790.607 6299.54 L790.607 6028.62 Z" fill="#000000" fill-rule="evenodd" fill-opacity="1" /><path clip-path="url(#clip4000)" d="M 0 0 M427.252 5797.67 L471.558 5797.67 Q461.373 5817.53 456.28 5838.92 Q451.187 5860.31 451.187 5883.22 Q451.187 5918.11 461.882 5935.68 Q472.576 5952.99 493.965 5952.99 Q510.261 5952.99 519.682 5940.51 Q528.849 5928.04 537.252 5890.35 L540.817 5874.31 Q551.511 5824.4 571.117 5803.52 Q590.469 5782.39 625.353 5782.39 Q665.075 5782.39 688.246 5813.96 Q711.417 5845.28 711.417 5900.28 Q711.417 5923.2 706.834 5948.15 Q702.505 5972.85 693.594 6000.35 L645.214 6000.35 Q658.709 5974.38 665.584 5949.17 Q672.205 5923.96 672.205 5899.27 Q672.205 5866.16 661.001 5848.34 Q649.543 5830.52 628.918 5830.52 Q609.821 5830.52 599.636 5843.5 Q589.451 5856.23 580.029 5899.77 L576.21 5916.07 Q567.043 5959.61 548.201 5978.96 Q529.104 5998.32 496.002 5998.32 Q455.771 5998.32 433.873 5969.8 Q411.975 5941.28 411.975 5888.83 Q411.975 5862.85 415.794 5839.94 Q419.613 5817.02 427.252 5797.67 Z" fill="#000000" fill-rule="evenodd" fill-opacity="1" /><path clip-path="url(#clip4000)" d="M 0 0 M418.85 5733.25 L418.85 5686.4 L704.033 5686.4 L704.033 5733.25 L418.85 5733.25 M307.832 5733.25 L307.832 5686.4 L367.16 5686.4 L367.16 5733.25 L307.832 5733.25 Z" fill="#000000" fill-rule="evenodd" fill-opacity="1" /><path clip-path="url(#clip4000)" d="M 0 0 M337.878 5590.91 L418.85 5590.91 L418.85 5494.41 L455.261 5494.41 L455.261 5590.91 L610.075 5590.91 Q644.96 5590.91 654.89 5581.49 Q664.821 5571.81 664.821 5542.53 L664.821 5494.41 L704.033 5494.41 L704.033 5542.53 Q704.033 5596.77 683.918 5617.39 Q663.547 5638.02 610.075 5638.02 L455.261 5638.02 L455.261 5672.39 L418.85 5672.39 L418.85 5638.02 L337.878 5638.02 L337.878 5590.91 Z" fill="#000000" fill-rule="evenodd" fill-opacity="1" /><path clip-path="url(#clip4000)" d="M 0 0 M549.729 5201.33 L572.645 5201.33 L572.645 5416.74 Q621.024 5413.69 646.487 5387.72 Q671.695 5361.49 671.695 5314.89 Q671.695 5287.9 665.075 5262.69 Q658.455 5237.23 645.214 5212.28 L689.519 5212.28 Q700.214 5237.49 705.816 5263.97 Q711.417 5290.45 711.417 5317.69 Q711.417 5385.93 671.695 5425.91 Q631.973 5465.63 564.242 5465.63 Q494.22 5465.63 453.224 5427.95 Q411.975 5390.01 411.975 5325.84 Q411.975 5268.3 449.15 5234.94 Q486.071 5201.33 549.729 5201.33 M535.979 5248.18 Q497.53 5248.69 474.613 5269.82 Q451.697 5290.7 451.697 5325.33 Q451.697 5364.55 473.849 5388.23 Q496.002 5411.65 536.233 5415.22 L535.979 5248.18 Z" fill="#000000" fill-rule="evenodd" fill-opacity="1" /><polyline clip-path="url(#clip4002)" style="stroke:#009af9; stroke-width:48; stroke-opacity:1; fill:none" points="
  2106.53,689.485 2147.2,689.485 2187.88,689.485 2228.55,689.485 2269.22,689.485 2309.9,689.485 2350.57,689.485 2391.24,689.485 2431.92,689.485 2472.59,689.485 
  2513.26,689.485 2553.94,689.485 2594.61,689.485 2635.28,689.485 2675.96,689.485 2716.63,689.485 2757.3,689.485 2797.98,689.485 2838.65,689.485 2879.32,689.485 
  2920,689.485 2960.67,689.485 3001.34,689.485 3042.02,689.485 3082.69,689.485 3123.36,689.485 3164.04,689.485 3204.71,689.485 3245.38,689.485 3286.06,689.485 
  3326.73,689.485 3367.4,689.485 3408.08,689.485 3448.75,689.485 3489.42,689.485 3530.1,689.488 3570.77,689.485 3611.44,689.513 3652.12,689.519 3692.79,689.507 
  3733.46,689.558 3774.14,689.487 3814.81,689.552 3855.48,689.492 3896.16,689.712 3936.83,689.596 3977.5,689.794 4018.18,689.573 4058.85,689.669 4099.52,689.571 
  4140.2,690.113 4180.87,690.015 4221.54,690.174 4262.22,690.464 4302.89,690.116 4343.56,690.123 4384.24,690.742 4424.91,690.345 4465.58,690.359 4506.26,691.074 
  4546.93,691.095 4587.6,691.179 4628.28,691.843 4668.95,691.519 4709.62,691.9 4750.3,693.737 4790.97,692.475 4831.64,693.449 4872.32,694.301 4912.99,696.293 
  4953.66,696.538 4994.34,696.289 5035.01,697.44 5075.68,699.112 5116.36,700.639 5157.03,699.077 5197.7,700.589 5238.38,700.544 5279.05,703.644 5319.72,704.877 
  5360.4,707.107 5401.07,708.67 5441.74,709.86 5482.42,711.947 5523.09,712.318 5563.76,718.413 5604.44,717.04 5645.11,720.685 5685.78,719.521 5726.46,725.637 
  5767.13,730.09 5807.8,730.267 5848.48,734.108 5889.15,735.825 5929.82,741.017 5970.5,744.817 6011.17,746.503 6051.84,752.397 6092.52,758.597 6133.19,758.302 
  6173.86,765.345 6214.54,772.373 6255.21,775.977 6295.88,776.643 6336.56,788.633 6377.23,799.671 6417.9,802.585 6458.58,804.191 6499.25,815.462 6539.92,819.845 
  6580.6,823.699 6621.27,836.15 6661.94,847.57 6702.62,854.612 6743.29,867.379 6783.96,867.843 6824.64,873.422 6865.31,887.516 6905.98,897.347 6946.66,910.764 
  6987.33,922.972 7028,919.996 7068.68,940.328 7109.35,957.216 7150.02,970.273 7190.7,977.627 7231.37,995.361 7272.04,1007.15 7312.72,1033.41 7353.39,1038.69 
  7394.06,1066.98 7434.74,1091.92 7475.41,1096.31 7516.08,1118.91 7556.76,1119.98 7597.43,1146.98 7638.1,1160.19 7678.78,1202.68 7719.45,1206.84 7760.12,1268.52 
  7800.8,1244.97 7841.47,1302.14 7882.14,1310.68 7922.82,1310.61 7963.49,1383.62 8004.16,1393.66 8044.84,1397.84 8085.51,1446.73 8126.18,1536.69 8166.86,1549.16 
  8207.53,1618.24 8248.2,1717.43 8288.88,1663.53 8329.55,1703.31 8370.22,1741.04 8410.9,1771.61 8451.57,1774.68 8492.24,1932.86 8532.92,1891.51 8573.59,1938.91 
  8614.26,2132.83 8654.94,2049.85 8695.61,2252.36 8736.28,2230.44 8776.96,2256.88 8817.63,2492.53 8858.3,2433.23 8898.98,2635.15 8939.65,2657.29 8980.32,2730.64 
  9021,2696.22 9061.67,2845.67 9102.34,3016.82 9143.02,3278.5 9183.69,3008.66 9224.36,3360.73 9265.04,3429.3 9305.71,3504.5 9346.38,3654.09 9387.06,3749.08 
  9427.73,3802.65 9468.4,3869.82 9509.08,4046.94 9549.75,4068.38 9590.42,4054.28 9631.1,4492.24 9671.77,4635.22 9712.44,4775.65 9753.12,4903.01 9793.79,4801.09 
  9834.46,4973.88 9875.14,5008.05 9915.81,5164.04 9956.48,5386.4 9997.16,5427.14 10037.8,5476.44 10078.5,5706.52 10119.2,5776.91 10159.8,5691.1 10200.5,6107.03 
  10241.2,6212.45 10281.9,6343.15 10322.5,6349.12 10363.2,6560.17 10403.9,6474.33 10444.6,6731.8 10485.2,6779.65 10525.9,6830.43 10566.6,6939.85 10607.3,7112.07 
  10647.9,7199.24 10688.6,7132.87 10729.3,7301.8 10769.9,7400.32 10810.6,7648.35 10851.3,7658.76 10892,7652.46 10932.6,7647.71 10973.3,7753.25 11014,7819.44 
  11054.7,7893.71 11095.3,7917.64 11136,8072.06 11176.7,8100.34 11217.4,8215.98 11258,8399.23 11298.7,8374.45 11339.4,8347.24 11380,8282.51 11420.7,8647.82 
  11461.4,8504.66 11502.1,8464.01 11542.7,8666.39 11583.4,8774.69 11624.1,8778.8 11664.8,8935.08 11705.4,8748.86 11746.1,8950.89 11786.8,8977.99 11827.5,8932.11 
  11868.1,8971.76 11908.8,9062.82 11949.5,9190.93 11990.1,9105.1 12030.8,9343.35 12071.5,9169.48 12112.2,9259.63 12152.8,9333.78 12193.5,9286.34 12234.2,9312.45 
  12274.9,9437.67 12315.5,9378.92 12356.2,9341.86 12396.9,9487.75 12437.6,9470.11 12478.2,9507.36 12518.9,9712.36 12559.6,9568.58 12600.2,9687.23 12640.9,9659.83 
  12681.6,9726.95 12722.3,9754.19 12762.9,9711.77 12803.6,9779.83 12844.3,9855.73 12885,9843.71 12925.6,9861.43 12966.3,9857.66 13007,9825.61 13047.7,9838.18 
  13088.3,9941.62 13129,10010.5 13169.7,9956.79 13210.3,10028.1 13251,10086.8 13291.7,10037.1 13332.4,10079.3 13373,9999.63 13413.7,10042.9 13454.4,10021.9 
  13495.1,10098.8 13535.7,10189.4 13576.4,10120.4 13617.1,10164.7 13657.8,10162.4 13698.4,10180.8 13739.1,10172.1 13779.8,10146.7 13820.4,10273.1 13861.1,10223 
  13901.8,10277.7 13942.5,10316.1 13983.1,10262.1 14023.8,10342.9 14064.5,10327.7 14105.2,10397.4 14145.8,10353.8 14186.5,10322.3 14227.2,10294.2 14267.9,10320.8 
  14308.5,10395.6 14349.2,10330.6 14389.9,10351.5 14430.5,10408.8 14471.2,10443.7 14511.9,10449.6 14552.6,10488 14593.2,10464.6 14633.9,10477.5 14674.6,10474.5 
  14715.3,10556.4 14755.9,10489.8 14796.6,10568.4 14837.3,10480.7 14878,10581.2 14918.6,10491.6 14959.3,10535.5 15000,10618.6 15040.6,10570.3 15081.3,10600.7 
  15122,10564.2 15162.7,10605.4 15203.3,10657.3 15244,10602.1 15284.7,10589.2 15325.4,10678.9 15366,10713.1 15406.7,10674.7 15447.4,10631.7 15488.1,10666.2 
  15528.7,10735.5 15569.4,10700.3 15610.1,10672.4 15650.7,10635.2 15691.4,10694.5 15732.1,10727.2 15772.8,10748.9 15813.4,10762.1 15854.1,10755 15894.8,10777.6 
  15935.5,10795.1 15976.1,10775.7 16016.8,10787.3 16057.5,10793.6 16098.2,10800 16138.8,10743.1 16179.5,10823.2 16220.2,10798.8 16260.8,10838.3 16301.5,10826.6 
  16342.2,10808.6 16382.9,10810.4 16423.5,10832.6 16464.2,10810.4 16504.9,10865.1 16545.6,10907.7 16586.2,10871.1 16626.9,10825.8 16667.6,10887.4 16708.3,10892.8 
  16748.9,10908.8 16789.6,10908 16830.3,10911 16870.9,10909.2 16911.6,10915.6 16952.3,10928.4 16993,10952 17033.6,10938.7 17074.3,10905 17115,10970.1 
  17155.7,10920.9 17196.3,10938.4 17237,10952.2 17277.7,10961.1 17318.4,10953.2 17359,10979.3 17399.7,10940.7 17440.4,10961.8 17481,10966.6 17521.7,10963.1 
  17562.4,11005.3 17603.1,11045.9 17643.7,10996.7 17684.4,11020.8 17725.1,11019.2 17765.8,11026.5 17806.4,11012.6 17847.1,11034.8 17887.8,11039.2 17928.5,11017 
  17969.1,11001.5 18009.8,11048.5 18050.5,11009 18091.1,11049.6 18131.8,11054.7 18172.5,11061.3 18213.2,11073.9 18253.8,11053.5 18294.5,11063.5 18335.2,11061.2 
  
  "/>
<path clip-path="url(#clip4000)" d="
M15336.4 2013.79 L18246 2013.79 L18246 1046.11 L15336.4 1046.11  Z
  " fill="#ffffff" fill-rule="evenodd" fill-opacity="1"/>
<polyline clip-path="url(#clip4000)" style="stroke:#000000; stroke-width:32; stroke-opacity:1; fill:none" points="
  15336.4,2013.79 18246,2013.79 18246,1046.11 15336.4,1046.11 15336.4,2013.79 
  "/>
<polyline clip-path="url(#clip4000)" style="stroke:#009af9; stroke-width:48; stroke-opacity:1; fill:none" points="
  15528.4,1529.95 16680.4,1529.95 
  "/>
<path clip-path="url(#clip4000)" d="M 0 0 M17050.4 1400.79 L17050.4 1437.27 Q17029.1 1427.08 17010.2 1422.08 Q16991.3 1417.08 16973.7 1417.08 Q16943.2 1417.08 16926.5 1428.93 Q16910 1440.79 16910 1462.64 Q16910 1480.97 16920.9 1490.42 Q16932.1 1499.68 16962.8 1505.42 L16985.4 1510.05 Q17027.2 1518.01 17047.1 1538.19 Q17067.1 1558.19 17067.1 1591.9 Q17067.1 1632.08 17040 1652.82 Q17013.2 1673.56 16961.1 1673.56 Q16941.5 1673.56 16919.3 1669.12 Q16897.2 1664.67 16873.5 1655.97 L16873.5 1617.45 Q16896.3 1630.23 16918.2 1636.71 Q16940 1643.19 16961.1 1643.19 Q16993.2 1643.19 17010.6 1630.6 Q17028 1618.01 17028 1594.67 Q17028 1574.3 17015.4 1562.82 Q17003 1551.34 16974.5 1545.6 L16951.7 1541.16 Q16909.8 1532.82 16891.1 1515.05 Q16872.4 1497.27 16872.4 1465.6 Q16872.4 1428.93 16898.2 1407.82 Q16924.1 1386.71 16969.5 1386.71 Q16988.9 1386.71 17009.1 1390.23 Q17029.3 1393.75 17050.4 1400.79 Z" fill="#000000" fill-rule="evenodd" fill-opacity="1" /><path clip-path="url(#clip4000)" d="M 0 0 M17260.4 1731.16 L17260.4 1757.64 L17063.3 1757.64 L17063.3 1731.16 L17260.4 1731.16 Z" fill="#000000" fill-rule="evenodd" fill-opacity="1" /><path clip-path="url(#clip4000)" d="M 0 0 M17428.3 1466.9 L17428.3 1499.12 Q17413.9 1491.71 17398.3 1488.01 Q17382.8 1484.3 17366.1 1484.3 Q17340.8 1484.3 17328 1492.08 Q17315.4 1499.86 17315.4 1515.42 Q17315.4 1527.27 17324.5 1534.12 Q17333.5 1540.79 17360.9 1546.9 L17372.6 1549.49 Q17408.9 1557.27 17424.1 1571.53 Q17439.5 1585.6 17439.5 1610.97 Q17439.5 1639.86 17416.5 1656.71 Q17393.7 1673.56 17353.7 1673.56 Q17337.1 1673.56 17318.9 1670.23 Q17300.9 1667.08 17280.9 1660.6 L17280.9 1625.42 Q17299.8 1635.23 17318.2 1640.23 Q17336.5 1645.04 17354.5 1645.04 Q17378.5 1645.04 17391.5 1636.9 Q17404.5 1628.56 17404.5 1613.56 Q17404.5 1599.67 17395 1592.27 Q17385.8 1584.86 17354.1 1578.01 L17342.2 1575.23 Q17310.6 1568.56 17296.5 1554.86 Q17282.4 1540.97 17282.4 1516.9 Q17282.4 1487.64 17303.2 1471.71 Q17323.9 1455.79 17362 1455.79 Q17380.9 1455.79 17397.6 1458.56 Q17414.3 1461.34 17428.3 1466.9 Z" fill="#000000" fill-rule="evenodd" fill-opacity="1" /><path clip-path="url(#clip4000)" d="M 0 0 M17475.2 1460.79 L17509.3 1460.79 L17509.3 1668.19 L17475.2 1668.19 L17475.2 1460.79 M17475.2 1380.05 L17509.3 1380.05 L17509.3 1423.19 L17475.2 1423.19 L17475.2 1380.05 Z" fill="#000000" fill-rule="evenodd" fill-opacity="1" /><path clip-path="url(#clip4000)" d="M 0 0 M17578.7 1401.9 L17578.7 1460.79 L17648.9 1460.79 L17648.9 1487.27 L17578.7 1487.27 L17578.7 1599.86 Q17578.7 1625.23 17585.6 1632.45 Q17592.6 1639.67 17613.9 1639.67 L17648.9 1639.67 L17648.9 1668.19 L17613.9 1668.19 Q17574.5 1668.19 17559.5 1653.56 Q17544.5 1638.75 17544.5 1599.86 L17544.5 1487.27 L17519.5 1487.27 L17519.5 1460.79 L17544.5 1460.79 L17544.5 1401.9 L17578.7 1401.9 Z" fill="#000000" fill-rule="evenodd" fill-opacity="1" /><path clip-path="url(#clip4000)" d="M 0 0 M17862 1555.97 L17862 1572.64 L17705.4 1572.64 Q17707.6 1607.82 17726.5 1626.34 Q17745.6 1644.67 17779.5 1644.67 Q17799.1 1644.67 17817.4 1639.86 Q17835.9 1635.04 17854.1 1625.42 L17854.1 1657.64 Q17835.8 1665.41 17816.5 1669.49 Q17797.2 1673.56 17777.4 1673.56 Q17727.8 1673.56 17698.7 1644.67 Q17669.8 1615.79 17669.8 1566.53 Q17669.8 1515.6 17697.2 1485.79 Q17724.8 1455.79 17771.5 1455.79 Q17813.3 1455.79 17837.6 1482.82 Q17862 1509.68 17862 1555.97 M17828 1545.97 Q17827.6 1518.01 17812.2 1501.34 Q17797 1484.68 17771.9 1484.68 Q17743.3 1484.68 17726.1 1500.79 Q17709.1 1516.9 17706.5 1546.16 L17828 1545.97 Z" fill="#000000" fill-rule="evenodd" fill-opacity="1" /></svg>
