<?xml version="1.0" encoding="utf-8"?>
<svg xmlns="http://www.w3.org/2000/svg" xmlns:xlink="http://www.w3.org/1999/xlink" width="4800" height="3200" viewBox="0 0 19200 12800">
<defs>
  <clipPath id="clip4500">
    <rect x="0" y="0" width="19200" height="12800"/>
  </clipPath>
</defs>
<path clip-path="url(#clip4500)" d="
M0 12800 L19200 12800 L19200 0 L0 0  Z
  " fill="#ffffff" fill-rule="evenodd" fill-opacity="1"/>
<defs>
  <clipPath id="clip4501">
    <rect x="3840" y="0" width="13441" height="12800"/>
  </clipPath>
</defs>
<path clip-path="url(#clip4500)" d="
M1893.37 11385.4 L18822 11385.4 L18822 987.777 L1893.37 987.777  Z
  " fill="#ffffff" fill-rule="evenodd" fill-opacity="1"/>
<defs>
  <clipPath id="clip4502">
    <rect x="1893" y="987" width="16930" height="10399"/>
  </clipPath>
</defs>
<polyline clip-path="url(#clip4502)" style="stroke:#000000; stroke-width:16; stroke-opacity:0.1; fill:none" points="
  2372.49,11385.4 2372.49,987.777 
  "/>
<polyline clip-path="url(#clip4502)" style="stroke:#000000; stroke-width:16; stroke-opacity:0.1; fill:none" points="
  7695.97,11385.4 7695.97,987.777 
  "/>
<polyline clip-path="url(#clip4502)" style="stroke:#000000; stroke-width:16; stroke-opacity:0.1; fill:none" points="
  13019.5,11385.4 13019.5,987.777 
  "/>
<polyline clip-path="url(#clip4502)" style="stroke:#000000; stroke-width:16; stroke-opacity:0.1; fill:none" points="
  18342.9,11385.4 18342.9,987.777 
  "/>
<polyline clip-path="url(#clip4502)" style="stroke:#000000; stroke-width:16; stroke-opacity:0.1; fill:none" points="
  1893.37,10190.2 18822,10190.2 
  "/>
<polyline clip-path="url(#clip4502)" style="stroke:#000000; stroke-width:16; stroke-opacity:0.1; fill:none" points="
  1893.37,8636.94 18822,8636.94 
  "/>
<polyline clip-path="url(#clip4502)" style="stroke:#000000; stroke-width:16; stroke-opacity:0.1; fill:none" points="
  1893.37,7083.64 18822,7083.64 
  "/>
<polyline clip-path="url(#clip4502)" style="stroke:#000000; stroke-width:16; stroke-opacity:0.1; fill:none" points="
  1893.37,5530.34 18822,5530.34 
  "/>
<polyline clip-path="url(#clip4502)" style="stroke:#000000; stroke-width:16; stroke-opacity:0.1; fill:none" points="
  1893.37,3977.03 18822,3977.03 
  "/>
<polyline clip-path="url(#clip4502)" style="stroke:#000000; stroke-width:16; stroke-opacity:0.1; fill:none" points="
  1893.37,2423.73 18822,2423.73 
  "/>
<polyline clip-path="url(#clip4500)" style="stroke:#000000; stroke-width:32; stroke-opacity:1; fill:none" points="
  1893.37,11385.4 18822,11385.4 
  "/>
<polyline clip-path="url(#clip4500)" style="stroke:#000000; stroke-width:32; stroke-opacity:1; fill:none" points="
  1893.37,11385.4 1893.37,987.777 
  "/>
<polyline clip-path="url(#clip4500)" style="stroke:#000000; stroke-width:32; stroke-opacity:1; fill:none" points="
  2372.49,11385.4 2372.49,11260.7 
  "/>
<polyline clip-path="url(#clip4500)" style="stroke:#000000; stroke-width:32; stroke-opacity:1; fill:none" points="
  7695.97,11385.4 7695.97,11260.7 
  "/>
<polyline clip-path="url(#clip4500)" style="stroke:#000000; stroke-width:32; stroke-opacity:1; fill:none" points="
  13019.5,11385.4 13019.5,11260.7 
  "/>
<polyline clip-path="url(#clip4500)" style="stroke:#000000; stroke-width:32; stroke-opacity:1; fill:none" points="
  18342.9,11385.4 18342.9,11260.7 
  "/>
<polyline clip-path="url(#clip4500)" style="stroke:#000000; stroke-width:32; stroke-opacity:1; fill:none" points="
  1893.37,10190.2 2096.52,10190.2 
  "/>
<polyline clip-path="url(#clip4500)" style="stroke:#000000; stroke-width:32; stroke-opacity:1; fill:none" points="
  1893.37,8636.94 2096.52,8636.94 
  "/>
<polyline clip-path="url(#clip4500)" style="stroke:#000000; stroke-width:32; stroke-opacity:1; fill:none" points="
  1893.37,7083.64 2096.52,7083.64 
  "/>
<polyline clip-path="url(#clip4500)" style="stroke:#000000; stroke-width:32; stroke-opacity:1; fill:none" points="
  1893.37,5530.34 2096.52,5530.34 
  "/>
<polyline clip-path="url(#clip4500)" style="stroke:#000000; stroke-width:32; stroke-opacity:1; fill:none" points="
  1893.37,3977.03 2096.52,3977.03 
  "/>
<polyline clip-path="url(#clip4500)" style="stroke:#000000; stroke-width:32; stroke-opacity:1; fill:none" points="
  1893.37,2423.73 2096.52,2423.73 
  "/>
<path clip-path="url(#clip4500)" d="M 0 0 M2116.56 11561.4 Q2087.67 11561.4 2073.04 11589.9 Q2058.6 11618.2 2058.6 11675.3 Q2058.6 11732.1 2073.04 11760.6 Q2087.67 11789 2116.56 11789 Q2145.64 11789 2160.08 11760.6 Q2174.71 11732.1 2174.71 11675.3 Q2174.71 11618.2 2160.08 11589.9 Q2145.64 11561.4 2116.56 11561.4 M2116.56 11531.7 Q2163.04 11531.7 2187.49 11568.6 Q2212.12 11605.3 2212.12 11675.3 Q2212.12 11745.1 2187.49 11781.9 Q2163.04 11818.6 2116.56 11818.6 Q2070.08 11818.6 2045.45 11781.9 Q2021.01 11745.1 2021.01 11675.3 Q2021.01 11605.3 2045.45 11568.6 Q2070.08 11531.7 2116.56 11531.7 Z" fill="#000000" fill-rule="evenodd" fill-opacity="1" /><path clip-path="url(#clip4500)" d="M 0 0 M2252.67 11766.2 L2291.75 11766.2 L2291.75 11813.2 L2252.67 11813.2 L2252.67 11766.2 Z" fill="#000000" fill-rule="evenodd" fill-opacity="1" /><path clip-path="url(#clip4500)" d="M 0 0 M2412.3 11561.4 Q2383.41 11561.4 2368.78 11589.9 Q2354.34 11618.2 2354.34 11675.3 Q2354.34 11732.1 2368.78 11760.6 Q2383.41 11789 2412.3 11789 Q2441.38 11789 2455.82 11760.6 Q2470.45 11732.1 2470.45 11675.3 Q2470.45 11618.2 2455.82 11589.9 Q2441.38 11561.4 2412.3 11561.4 M2412.3 11531.7 Q2458.78 11531.7 2483.23 11568.6 Q2507.86 11605.3 2507.86 11675.3 Q2507.86 11745.1 2483.23 11781.9 Q2458.78 11818.6 2412.3 11818.6 Q2365.82 11818.6 2341.19 11781.9 Q2316.75 11745.1 2316.75 11675.3 Q2316.75 11605.3 2341.19 11568.6 Q2365.82 11531.7 2412.3 11531.7 Z" fill="#000000" fill-rule="evenodd" fill-opacity="1" /><path clip-path="url(#clip4500)" d="M 0 0 M2628.41 11561.4 Q2599.52 11561.4 2584.89 11589.9 Q2570.45 11618.2 2570.45 11675.3 Q2570.45 11732.1 2584.89 11760.6 Q2599.52 11789 2628.41 11789 Q2657.49 11789 2671.93 11760.6 Q2686.56 11732.1 2686.56 11675.3 Q2686.56 11618.2 2671.93 11589.9 Q2657.49 11561.4 2628.41 11561.4 M2628.41 11531.7 Q2674.89 11531.7 2699.34 11568.6 Q2723.97 11605.3 2723.97 11675.3 Q2723.97 11745.1 2699.34 11781.9 Q2674.89 11818.6 2628.41 11818.6 Q2581.93 11818.6 2557.3 11781.9 Q2532.86 11745.1 2532.86 11675.3 Q2532.86 11605.3 2557.3 11568.6 Q2581.93 11531.7 2628.41 11531.7 Z" fill="#000000" fill-rule="evenodd" fill-opacity="1" /><path clip-path="url(#clip4500)" d="M 0 0 M7444.03 11561.4 Q7415.14 11561.4 7400.51 11589.9 Q7386.06 11618.2 7386.06 11675.3 Q7386.06 11732.1 7400.51 11760.6 Q7415.14 11789 7444.03 11789 Q7473.1 11789 7487.54 11760.6 Q7502.17 11732.1 7502.17 11675.3 Q7502.17 11618.2 7487.54 11589.9 Q7473.1 11561.4 7444.03 11561.4 M7444.03 11531.7 Q7490.51 11531.7 7514.95 11568.6 Q7539.58 11605.3 7539.58 11675.3 Q7539.58 11745.1 7514.95 11781.9 Q7490.51 11818.6 7444.03 11818.6 Q7397.55 11818.6 7372.92 11781.9 Q7348.47 11745.1 7348.47 11675.3 Q7348.47 11605.3 7372.92 11568.6 Q7397.55 11531.7 7444.03 11531.7 Z" fill="#000000" fill-rule="evenodd" fill-opacity="1" /><path clip-path="url(#clip4500)" d="M 0 0 M7580.14 11766.2 L7619.21 11766.2 L7619.21 11813.2 L7580.14 11813.2 L7580.14 11766.2 Z" fill="#000000" fill-rule="evenodd" fill-opacity="1" /><path clip-path="url(#clip4500)" d="M 0 0 M7739.77 11561.4 Q7710.88 11561.4 7696.25 11589.9 Q7681.8 11618.2 7681.8 11675.3 Q7681.8 11732.1 7696.25 11760.6 Q7710.88 11789 7739.77 11789 Q7768.84 11789 7783.28 11760.6 Q7797.91 11732.1 7797.91 11675.3 Q7797.91 11618.2 7783.28 11589.9 Q7768.84 11561.4 7739.77 11561.4 M7739.77 11531.7 Q7786.25 11531.7 7810.69 11568.6 Q7835.32 11605.3 7835.32 11675.3 Q7835.32 11745.1 7810.69 11781.9 Q7786.25 11818.6 7739.77 11818.6 Q7693.28 11818.6 7668.65 11781.9 Q7644.21 11745.1 7644.21 11675.3 Q7644.21 11605.3 7668.65 11568.6 Q7693.28 11531.7 7739.77 11531.7 Z" fill="#000000" fill-rule="evenodd" fill-opacity="1" /><path clip-path="url(#clip4500)" d="M 0 0 M7876.25 11536.7 L8023.1 11536.7 L8023.1 11568.2 L7910.51 11568.2 L7910.51 11636 Q7918.65 11633.2 7926.8 11631.9 Q7934.95 11630.4 7943.1 11630.4 Q7989.39 11630.4 8016.43 11655.8 Q8043.47 11681.2 8043.47 11724.5 Q8043.47 11769.1 8015.69 11794 Q7987.91 11818.6 7937.36 11818.6 Q7919.95 11818.6 7901.8 11815.6 Q7883.84 11812.7 7864.58 11806.7 L7864.58 11769.1 Q7881.25 11778.2 7899.02 11782.7 Q7916.8 11787.1 7936.62 11787.1 Q7968.65 11787.1 7987.36 11770.3 Q8006.06 11753.4 8006.06 11724.5 Q8006.06 11695.6 7987.36 11678.8 Q7968.65 11661.9 7936.62 11661.9 Q7921.62 11661.9 7906.62 11665.3 Q7891.8 11668.6 7876.25 11675.6 L7876.25 11536.7 Z" fill="#000000" fill-rule="evenodd" fill-opacity="1" /><path clip-path="url(#clip4500)" d="M 0 0 M12768.4 11561.4 Q12739.5 11561.4 12724.9 11589.9 Q12710.5 11618.2 12710.5 11675.3 Q12710.5 11732.1 12724.9 11760.6 Q12739.5 11789 12768.4 11789 Q12797.5 11789 12812 11760.6 Q12826.6 11732.1 12826.6 11675.3 Q12826.6 11618.2 12812 11589.9 Q12797.5 11561.4 12768.4 11561.4 M12768.4 11531.7 Q12814.9 11531.7 12839.4 11568.6 Q12864 11605.3 12864 11675.3 Q12864 11745.1 12839.4 11781.9 Q12814.9 11818.6 12768.4 11818.6 Q12722 11818.6 12697.3 11781.9 Q12672.9 11745.1 12672.9 11675.3 Q12672.9 11605.3 12697.3 11568.6 Q12722 11531.7 12768.4 11531.7 Z" fill="#000000" fill-rule="evenodd" fill-opacity="1" /><path clip-path="url(#clip4500)" d="M 0 0 M12904.5 11766.2 L12943.6 11766.2 L12943.6 11813.2 L12904.5 11813.2 L12904.5 11766.2 Z" fill="#000000" fill-rule="evenodd" fill-opacity="1" /><path clip-path="url(#clip4500)" d="M 0 0 M12990.7 11781.7 L13051.8 11781.7 L13051.8 11570.8 L12985.3 11584.1 L12985.3 11550.1 L13051.4 11536.7 L13088.8 11536.7 L13088.8 11781.7 L13149.9 11781.7 L13149.9 11813.2 L12990.7 11813.2 L12990.7 11781.7 Z" fill="#000000" fill-rule="evenodd" fill-opacity="1" /><path clip-path="url(#clip4500)" d="M 0 0 M13270.5 11561.4 Q13241.6 11561.4 13227 11589.9 Q13212.5 11618.2 13212.5 11675.3 Q13212.5 11732.1 13227 11760.6 Q13241.6 11789 13270.5 11789 Q13299.5 11789 13314 11760.6 Q13328.6 11732.1 13328.6 11675.3 Q13328.6 11618.2 13314 11589.9 Q13299.5 11561.4 13270.5 11561.4 M13270.5 11531.7 Q13317 11531.7 13341.4 11568.6 Q13366 11605.3 13366 11675.3 Q13366 11745.1 13341.4 11781.9 Q13317 11818.6 13270.5 11818.6 Q13224 11818.6 13199.4 11781.9 Q13174.9 11745.1 13174.9 11675.3 Q13174.9 11605.3 13199.4 11568.6 Q13224 11531.7 13270.5 11531.7 Z" fill="#000000" fill-rule="evenodd" fill-opacity="1" /><path clip-path="url(#clip4500)" d="M 0 0 M18095.9 11561.4 Q18067 11561.4 18052.4 11589.9 Q18037.9 11618.2 18037.9 11675.3 Q18037.9 11732.1 18052.4 11760.6 Q18067 11789 18095.9 11789 Q18125 11789 18139.4 11760.6 Q18154 11732.1 18154 11675.3 Q18154 11618.2 18139.4 11589.9 Q18125 11561.4 18095.9 11561.4 M18095.9 11531.7 Q18142.4 11531.7 18166.8 11568.6 Q18191.5 11605.3 18191.5 11675.3 Q18191.5 11745.1 18166.8 11781.9 Q18142.4 11818.6 18095.9 11818.6 Q18049.4 11818.6 18024.8 11781.9 Q18000.3 11745.1 18000.3 11675.3 Q18000.3 11605.3 18024.8 11568.6 Q18049.4 11531.7 18095.9 11531.7 Z" fill="#000000" fill-rule="evenodd" fill-opacity="1" /><path clip-path="url(#clip4500)" d="M 0 0 M18232 11766.2 L18271.1 11766.2 L18271.1 11813.2 L18232 11813.2 L18232 11766.2 Z" fill="#000000" fill-rule="evenodd" fill-opacity="1" /><path clip-path="url(#clip4500)" d="M 0 0 M18318.1 11781.7 L18379.2 11781.7 L18379.2 11570.8 L18312.7 11584.1 L18312.7 11550.1 L18378.9 11536.7 L18416.3 11536.7 L18416.3 11781.7 L18477.4 11781.7 L18477.4 11813.2 L18318.1 11813.2 L18318.1 11781.7 Z" fill="#000000" fill-rule="evenodd" fill-opacity="1" /><path clip-path="url(#clip4500)" d="M 0 0 M18518.3 11536.7 L18665.2 11536.7 L18665.2 11568.2 L18552.6 11568.2 L18552.6 11636 Q18560.7 11633.2 18568.9 11631.9 Q18577 11630.4 18585.2 11630.4 Q18631.5 11630.4 18658.5 11655.8 Q18685.5 11681.2 18685.5 11724.5 Q18685.5 11769.1 18657.7 11794 Q18630 11818.6 18579.4 11818.6 Q18562 11818.6 18543.9 11815.6 Q18525.9 11812.7 18506.6 11806.7 L18506.6 11769.1 Q18523.3 11778.2 18541.1 11782.7 Q18558.9 11787.1 18578.7 11787.1 Q18610.7 11787.1 18629.4 11770.3 Q18648.1 11753.4 18648.1 11724.5 Q18648.1 11695.6 18629.4 11678.8 Q18610.7 11661.9 18578.7 11661.9 Q18563.7 11661.9 18548.7 11665.3 Q18533.9 11668.6 18518.3 11675.6 L18518.3 11536.7 Z" fill="#000000" fill-rule="evenodd" fill-opacity="1" /><path clip-path="url(#clip4500)" d="M 0 0 M1064.16 10297 L1194.71 10297 L1194.71 10328.5 L1019.16 10328.5 L1019.16 10297 Q1040.45 10275 1077.12 10237.9 Q1113.97 10200.7 1123.41 10190 Q1141.38 10169.8 1148.41 10155.9 Q1155.64 10141.8 1155.64 10128.3 Q1155.64 10106.3 1140.08 10092.4 Q1124.71 10078.5 1099.9 10078.5 Q1082.3 10078.5 1062.67 10084.6 Q1043.23 10090.7 1021.01 10103.1 L1021.01 10065.3 Q1043.6 10056.3 1063.23 10051.6 Q1082.86 10047 1099.15 10047 Q1142.12 10047 1167.67 10068.5 Q1193.23 10090 1193.23 10125.9 Q1193.23 10142.9 1186.75 10158.3 Q1180.45 10173.5 1163.6 10194.2 Q1158.97 10199.6 1134.15 10225.3 Q1109.34 10250.9 1064.16 10297 Z" fill="#000000" fill-rule="evenodd" fill-opacity="1" /><path clip-path="url(#clip4500)" d="M 0 0 M1235.27 10281.5 L1274.34 10281.5 L1274.34 10328.5 L1235.27 10328.5 L1235.27 10281.5 Z" fill="#000000" fill-rule="evenodd" fill-opacity="1" /><path clip-path="url(#clip4500)" d="M 0 0 M1428.23 10179.4 Q1455.08 10185.2 1470.08 10203.3 Q1485.26 10221.5 1485.26 10248.1 Q1485.26 10289 1457.12 10311.5 Q1428.97 10333.9 1377.12 10333.9 Q1359.71 10333.9 1341.19 10330.3 Q1322.86 10327 1303.23 10320.2 L1303.23 10284 Q1318.78 10293.1 1337.3 10297.7 Q1355.82 10302.4 1376.01 10302.4 Q1411.19 10302.4 1429.52 10288.5 Q1448.04 10274.6 1448.04 10248.1 Q1448.04 10223.7 1430.82 10210 Q1413.78 10196.1 1383.23 10196.1 L1351.01 10196.1 L1351.01 10165.3 L1384.71 10165.3 Q1412.3 10165.3 1426.93 10154.4 Q1441.56 10143.3 1441.56 10122.6 Q1441.56 10101.3 1426.38 10090 Q1411.38 10078.5 1383.23 10078.5 Q1367.86 10078.5 1350.26 10081.8 Q1332.67 10085.2 1311.56 10092.2 L1311.56 10058.9 Q1332.86 10052.9 1351.38 10050 Q1370.08 10047 1386.56 10047 Q1429.15 10047 1453.97 10066.5 Q1478.78 10085.7 1478.78 10118.7 Q1478.78 10141.6 1465.63 10157.6 Q1452.49 10173.3 1428.23 10179.4 Z" fill="#000000" fill-rule="evenodd" fill-opacity="1" /><path clip-path="url(#clip4500)" d="M 0 0 M1605.82 10076.6 Q1576.93 10076.6 1562.3 10105.2 Q1547.86 10133.5 1547.86 10190.5 Q1547.86 10247.4 1562.3 10275.9 Q1576.93 10304.2 1605.82 10304.2 Q1634.89 10304.2 1649.34 10275.9 Q1663.97 10247.4 1663.97 10190.5 Q1663.97 10133.5 1649.34 10105.2 Q1634.89 10076.6 1605.82 10076.6 M1605.82 10047 Q1652.3 10047 1676.74 10083.9 Q1701.37 10120.5 1701.37 10190.5 Q1701.37 10260.3 1676.74 10297.2 Q1652.3 10333.9 1605.82 10333.9 Q1559.34 10333.9 1534.71 10297.2 Q1510.26 10260.3 1510.26 10190.5 Q1510.26 10120.5 1534.71 10083.9 Q1559.34 10047 1605.82 10047 Z" fill="#000000" fill-rule="evenodd" fill-opacity="1" /><path clip-path="url(#clip4500)" d="M 0 0 M1072.12 8743.7 L1202.67 8743.7 L1202.67 8775.18 L1027.12 8775.18 L1027.12 8743.7 Q1048.41 8721.67 1085.08 8684.63 Q1121.93 8647.41 1131.38 8636.67 Q1149.34 8616.48 1156.38 8602.59 Q1163.6 8588.52 1163.6 8575 Q1163.6 8552.96 1148.04 8539.08 Q1132.67 8525.19 1107.86 8525.19 Q1090.27 8525.19 1070.64 8531.3 Q1051.19 8537.41 1028.97 8549.82 L1028.97 8512.04 Q1051.56 8502.96 1071.19 8498.33 Q1090.82 8493.7 1107.12 8493.7 Q1150.08 8493.7 1175.64 8515.19 Q1201.19 8536.67 1201.19 8572.59 Q1201.19 8589.63 1194.71 8605 Q1188.41 8620.19 1171.56 8640.93 Q1166.93 8646.3 1142.12 8672.04 Q1117.3 8697.59 1072.12 8743.7 Z" fill="#000000" fill-rule="evenodd" fill-opacity="1" /><path clip-path="url(#clip4500)" d="M 0 0 M1243.23 8728.15 L1282.3 8728.15 L1282.3 8775.18 L1243.23 8775.18 L1243.23 8728.15 Z" fill="#000000" fill-rule="evenodd" fill-opacity="1" /><path clip-path="url(#clip4500)" d="M 0 0 M1436.19 8626.11 Q1463.04 8631.85 1478.04 8650 Q1493.23 8668.15 1493.23 8694.82 Q1493.23 8735.74 1465.08 8758.15 Q1436.93 8780.56 1385.08 8780.56 Q1367.67 8780.56 1349.15 8777.04 Q1330.82 8773.7 1311.19 8766.85 L1311.19 8730.74 Q1326.75 8739.81 1345.26 8744.44 Q1363.78 8749.07 1383.97 8749.07 Q1419.15 8749.07 1437.49 8735.19 Q1456 8721.3 1456 8694.82 Q1456 8670.37 1438.78 8656.67 Q1421.75 8642.78 1391.19 8642.78 L1358.97 8642.78 L1358.97 8612.04 L1392.67 8612.04 Q1420.26 8612.04 1434.89 8601.11 Q1449.52 8590 1449.52 8569.26 Q1449.52 8547.96 1434.34 8536.67 Q1419.34 8525.19 1391.19 8525.19 Q1375.82 8525.19 1358.23 8528.52 Q1340.64 8531.85 1319.52 8538.89 L1319.52 8505.56 Q1340.82 8499.63 1359.34 8496.67 Q1378.04 8493.7 1394.52 8493.7 Q1437.12 8493.7 1461.93 8513.15 Q1486.75 8532.41 1486.75 8565.37 Q1486.75 8588.33 1473.6 8604.26 Q1460.45 8620 1436.19 8626.11 Z" fill="#000000" fill-rule="evenodd" fill-opacity="1" /><path clip-path="url(#clip4500)" d="M 0 0 M1534.15 8498.7 L1681 8498.7 L1681 8530.19 L1568.41 8530.19 L1568.41 8597.96 Q1576.56 8595.19 1584.71 8593.89 Q1592.86 8592.41 1601 8592.41 Q1647.3 8592.41 1674.34 8617.78 Q1701.37 8643.15 1701.37 8686.48 Q1701.37 8731.11 1673.6 8755.93 Q1645.82 8780.56 1595.26 8780.56 Q1577.86 8780.56 1559.71 8777.59 Q1541.75 8774.63 1522.49 8768.7 L1522.49 8731.11 Q1539.15 8740.19 1556.93 8744.63 Q1574.71 8749.07 1594.52 8749.07 Q1626.56 8749.07 1645.26 8732.22 Q1663.97 8715.37 1663.97 8686.48 Q1663.97 8657.59 1645.26 8640.74 Q1626.56 8623.89 1594.52 8623.89 Q1579.52 8623.89 1564.52 8627.22 Q1549.71 8630.56 1534.15 8637.59 L1534.15 8498.7 Z" fill="#000000" fill-rule="evenodd" fill-opacity="1" /><path clip-path="url(#clip4500)" d="M 0 0 M1055.08 7190.4 L1185.64 7190.4 L1185.64 7221.88 L1010.08 7221.88 L1010.08 7190.4 Q1031.38 7168.36 1068.04 7131.33 Q1104.9 7094.1 1114.34 7083.36 Q1132.3 7063.18 1139.34 7049.29 Q1146.56 7035.22 1146.56 7021.7 Q1146.56 6999.66 1131.01 6985.77 Q1115.64 6971.88 1090.82 6971.88 Q1073.23 6971.88 1053.6 6977.99 Q1034.16 6984.1 1011.93 6996.51 L1011.93 6958.73 Q1034.53 6949.66 1054.16 6945.03 Q1073.78 6940.4 1090.08 6940.4 Q1133.04 6940.4 1158.6 6961.88 Q1184.15 6983.36 1184.15 7019.29 Q1184.15 7036.33 1177.67 7051.7 Q1171.38 7066.88 1154.52 7087.62 Q1149.9 7092.99 1125.08 7118.73 Q1100.27 7144.29 1055.08 7190.4 Z" fill="#000000" fill-rule="evenodd" fill-opacity="1" /><path clip-path="url(#clip4500)" d="M 0 0 M1226.19 7174.84 L1265.27 7174.84 L1265.27 7221.88 L1226.19 7221.88 L1226.19 7174.84 Z" fill="#000000" fill-rule="evenodd" fill-opacity="1" /><path clip-path="url(#clip4500)" d="M 0 0 M1408.6 6977.99 L1314.15 7125.59 L1408.6 7125.59 L1408.6 6977.99 M1398.78 6945.4 L1445.82 6945.4 L1445.82 7125.59 L1485.26 7125.59 L1485.26 7156.7 L1445.82 7156.7 L1445.82 7221.88 L1408.6 7221.88 L1408.6 7156.7 L1283.78 7156.7 L1283.78 7120.59 L1398.78 6945.4 Z" fill="#000000" fill-rule="evenodd" fill-opacity="1" /><path clip-path="url(#clip4500)" d="M 0 0 M1605.82 6970.03 Q1576.93 6970.03 1562.3 6998.55 Q1547.86 7026.88 1547.86 7083.92 Q1547.86 7140.77 1562.3 7169.29 Q1576.93 7197.62 1605.82 7197.62 Q1634.89 7197.62 1649.34 7169.29 Q1663.97 7140.77 1663.97 7083.92 Q1663.97 7026.88 1649.34 6998.55 Q1634.89 6970.03 1605.82 6970.03 M1605.82 6940.4 Q1652.3 6940.4 1676.74 6977.25 Q1701.37 7013.92 1701.37 7083.92 Q1701.37 7153.73 1676.74 7190.58 Q1652.3 7227.25 1605.82 7227.25 Q1559.34 7227.25 1534.71 7190.58 Q1510.26 7153.73 1510.26 7083.92 Q1510.26 7013.92 1534.71 6977.25 Q1559.34 6940.4 1605.82 6940.4 Z" fill="#000000" fill-rule="evenodd" fill-opacity="1" /><path clip-path="url(#clip4500)" d="M 0 0 M1063.04 5637.1 L1193.6 5637.1 L1193.6 5668.58 L1018.04 5668.58 L1018.04 5637.1 Q1039.34 5615.06 1076.01 5578.02 Q1112.86 5540.8 1122.3 5530.06 Q1140.27 5509.87 1147.3 5495.99 Q1154.52 5481.91 1154.52 5468.39 Q1154.52 5446.36 1138.97 5432.47 Q1123.6 5418.58 1098.78 5418.58 Q1081.19 5418.58 1061.56 5424.69 Q1042.12 5430.8 1019.9 5443.21 L1019.9 5405.43 Q1042.49 5396.36 1062.12 5391.73 Q1081.75 5387.1 1098.04 5387.1 Q1141.01 5387.1 1166.56 5408.58 Q1192.12 5430.06 1192.12 5465.99 Q1192.12 5483.02 1185.64 5498.39 Q1179.34 5513.58 1162.49 5534.32 Q1157.86 5539.69 1133.04 5565.43 Q1108.23 5590.98 1063.04 5637.1 Z" fill="#000000" fill-rule="evenodd" fill-opacity="1" /><path clip-path="url(#clip4500)" d="M 0 0 M1234.15 5621.54 L1273.23 5621.54 L1273.23 5668.58 L1234.15 5668.58 L1234.15 5621.54 Z" fill="#000000" fill-rule="evenodd" fill-opacity="1" /><path clip-path="url(#clip4500)" d="M 0 0 M1416.56 5424.69 L1322.12 5572.28 L1416.56 5572.28 L1416.56 5424.69 M1406.75 5392.1 L1453.78 5392.1 L1453.78 5572.28 L1493.23 5572.28 L1493.23 5603.39 L1453.78 5603.39 L1453.78 5668.58 L1416.56 5668.58 L1416.56 5603.39 L1291.75 5603.39 L1291.75 5567.28 L1406.75 5392.1 Z" fill="#000000" fill-rule="evenodd" fill-opacity="1" /><path clip-path="url(#clip4500)" d="M 0 0 M1534.15 5392.1 L1681 5392.1 L1681 5423.58 L1568.41 5423.58 L1568.41 5491.36 Q1576.56 5488.58 1584.71 5487.28 Q1592.86 5485.8 1601 5485.8 Q1647.3 5485.8 1674.34 5511.17 Q1701.37 5536.54 1701.37 5579.87 Q1701.37 5624.5 1673.6 5649.32 Q1645.82 5673.95 1595.26 5673.95 Q1577.86 5673.95 1559.71 5670.98 Q1541.75 5668.02 1522.49 5662.1 L1522.49 5624.5 Q1539.15 5633.58 1556.93 5638.02 Q1574.71 5642.47 1594.52 5642.47 Q1626.56 5642.47 1645.26 5625.61 Q1663.97 5608.76 1663.97 5579.87 Q1663.97 5550.98 1645.26 5534.13 Q1626.56 5517.28 1594.52 5517.28 Q1579.52 5517.28 1564.52 5520.61 Q1549.71 5523.95 1534.15 5530.99 L1534.15 5392.1 Z" fill="#000000" fill-rule="evenodd" fill-opacity="1" /><path clip-path="url(#clip4500)" d="M 0 0 M1066.93 4083.79 L1197.49 4083.79 L1197.49 4115.27 L1021.93 4115.27 L1021.93 4083.79 Q1043.23 4061.75 1079.9 4024.72 Q1116.75 3987.5 1126.19 3976.76 Q1144.15 3956.57 1151.19 3942.68 Q1158.41 3928.61 1158.41 3915.09 Q1158.41 3893.05 1142.86 3879.16 Q1127.49 3865.27 1102.67 3865.27 Q1085.08 3865.27 1065.45 3871.39 Q1046.01 3877.5 1023.78 3889.9 L1023.78 3852.13 Q1046.38 3843.05 1066.01 3838.42 Q1085.64 3833.79 1101.93 3833.79 Q1144.9 3833.79 1170.45 3855.27 Q1196.01 3876.76 1196.01 3912.68 Q1196.01 3929.72 1189.52 3945.09 Q1183.23 3960.27 1166.38 3981.01 Q1161.75 3986.38 1136.93 4012.13 Q1112.12 4037.68 1066.93 4083.79 Z" fill="#000000" fill-rule="evenodd" fill-opacity="1" /><path clip-path="url(#clip4500)" d="M 0 0 M1238.04 4068.24 L1277.12 4068.24 L1277.12 4115.27 L1238.04 4115.27 L1238.04 4068.24 Z" fill="#000000" fill-rule="evenodd" fill-opacity="1" /><path clip-path="url(#clip4500)" d="M 0 0 M1318.04 3838.79 L1464.89 3838.79 L1464.89 3870.27 L1352.3 3870.27 L1352.3 3938.05 Q1360.45 3935.27 1368.6 3933.98 Q1376.75 3932.5 1384.89 3932.5 Q1431.19 3932.5 1458.23 3957.87 Q1485.26 3983.24 1485.26 4026.57 Q1485.26 4071.2 1457.49 4096.01 Q1429.71 4120.64 1379.15 4120.64 Q1361.75 4120.64 1343.6 4117.68 Q1325.64 4114.72 1306.38 4108.79 L1306.38 4071.2 Q1323.04 4080.27 1340.82 4084.72 Q1358.6 4089.16 1378.41 4089.16 Q1410.45 4089.16 1429.15 4072.31 Q1447.86 4055.46 1447.86 4026.57 Q1447.86 3997.68 1429.15 3980.83 Q1410.45 3963.98 1378.41 3963.98 Q1363.41 3963.98 1348.41 3967.31 Q1333.6 3970.64 1318.04 3977.68 L1318.04 3838.79 Z" fill="#000000" fill-rule="evenodd" fill-opacity="1" /><path clip-path="url(#clip4500)" d="M 0 0 M1605.82 3863.42 Q1576.93 3863.42 1562.3 3891.94 Q1547.86 3920.27 1547.86 3977.31 Q1547.86 4034.16 1562.3 4062.68 Q1576.93 4091.01 1605.82 4091.01 Q1634.89 4091.01 1649.34 4062.68 Q1663.97 4034.16 1663.97 3977.31 Q1663.97 3920.27 1649.34 3891.94 Q1634.89 3863.42 1605.82 3863.42 M1605.82 3833.79 Q1652.3 3833.79 1676.74 3870.64 Q1701.37 3907.31 1701.37 3977.31 Q1701.37 4047.13 1676.74 4083.98 Q1652.3 4120.64 1605.82 4120.64 Q1559.34 4120.64 1534.71 4083.98 Q1510.26 4047.13 1510.26 3977.31 Q1510.26 3907.31 1534.71 3870.64 Q1559.34 3833.79 1605.82 3833.79 Z" fill="#000000" fill-rule="evenodd" fill-opacity="1" /><path clip-path="url(#clip4500)" d="M 0 0 M1074.9 2530.49 L1205.45 2530.49 L1205.45 2561.97 L1029.9 2561.97 L1029.9 2530.49 Q1051.19 2508.45 1087.86 2471.41 Q1124.71 2434.19 1134.15 2423.45 Q1152.12 2403.27 1159.15 2389.38 Q1166.38 2375.3 1166.38 2361.78 Q1166.38 2339.75 1150.82 2325.86 Q1135.45 2311.97 1110.64 2311.97 Q1093.04 2311.97 1073.41 2318.08 Q1053.97 2324.19 1031.75 2336.6 L1031.75 2298.82 Q1054.34 2289.75 1073.97 2285.12 Q1093.6 2280.49 1109.9 2280.49 Q1152.86 2280.49 1178.41 2301.97 Q1203.97 2323.45 1203.97 2359.38 Q1203.97 2376.41 1197.49 2391.78 Q1191.19 2406.97 1174.34 2427.71 Q1169.71 2433.08 1144.9 2458.82 Q1120.08 2484.38 1074.9 2530.49 Z" fill="#000000" fill-rule="evenodd" fill-opacity="1" /><path clip-path="url(#clip4500)" d="M 0 0 M1246.01 2514.93 L1285.08 2514.93 L1285.08 2561.97 L1246.01 2561.97 L1246.01 2514.93 Z" fill="#000000" fill-rule="evenodd" fill-opacity="1" /><path clip-path="url(#clip4500)" d="M 0 0 M1326.01 2285.49 L1472.86 2285.49 L1472.86 2316.97 L1360.26 2316.97 L1360.26 2384.75 Q1368.41 2381.97 1376.56 2380.67 Q1384.71 2379.19 1392.86 2379.19 Q1439.15 2379.19 1466.19 2404.56 Q1493.23 2429.93 1493.23 2473.27 Q1493.23 2517.9 1465.45 2542.71 Q1437.67 2567.34 1387.12 2567.34 Q1369.71 2567.34 1351.56 2564.38 Q1333.6 2561.41 1314.34 2555.49 L1314.34 2517.9 Q1331.01 2526.97 1348.78 2531.41 Q1366.56 2535.86 1386.38 2535.86 Q1418.41 2535.86 1437.12 2519.01 Q1455.82 2502.15 1455.82 2473.27 Q1455.82 2444.38 1437.12 2427.53 Q1418.41 2410.67 1386.38 2410.67 Q1371.38 2410.67 1356.38 2414.01 Q1341.56 2417.34 1326.01 2424.38 L1326.01 2285.49 Z" fill="#000000" fill-rule="evenodd" fill-opacity="1" /><path clip-path="url(#clip4500)" d="M 0 0 M1534.15 2285.49 L1681 2285.49 L1681 2316.97 L1568.41 2316.97 L1568.41 2384.75 Q1576.56 2381.97 1584.71 2380.67 Q1592.86 2379.19 1601 2379.19 Q1647.3 2379.19 1674.34 2404.56 Q1701.37 2429.93 1701.37 2473.27 Q1701.37 2517.9 1673.6 2542.71 Q1645.82 2567.34 1595.26 2567.34 Q1577.86 2567.34 1559.71 2564.38 Q1541.75 2561.41 1522.49 2555.49 L1522.49 2517.9 Q1539.15 2526.97 1556.93 2531.41 Q1574.71 2535.86 1594.52 2535.86 Q1626.56 2535.86 1645.26 2519.01 Q1663.97 2502.15 1663.97 2473.27 Q1663.97 2444.38 1645.26 2427.53 Q1626.56 2410.67 1594.52 2410.67 Q1579.52 2410.67 1564.52 2414.01 Q1549.71 2417.34 1534.15 2424.38 L1534.15 2285.49 Z" fill="#000000" fill-rule="evenodd" fill-opacity="1" /><path clip-path="url(#clip4500)" d="M 0 0 M7195.25 96.768 L7604.55 96.768 L7604.55 151.86 L7432.8 151.86 L7432.8 580.608 L7367.01 580.608 L7367.01 151.86 L7195.25 151.86 L7195.25 96.768 Z" fill="#000000" fill-rule="evenodd" fill-opacity="1" /><path clip-path="url(#clip4500)" d="M 0 0 M7993.12 134.036 L7993.12 203.064 Q7960.06 172.277 7922.47 157.045 Q7885.2 141.814 7843.07 141.814 Q7760.11 141.814 7716.03 192.693 Q7671.96 243.249 7671.96 339.174 Q7671.96 434.775 7716.03 485.655 Q7760.11 536.21 7843.07 536.21 Q7885.2 536.21 7922.47 520.979 Q7960.06 505.747 7993.12 474.96 L7993.12 543.34 Q7958.77 566.673 7920.2 578.339 Q7881.96 590.006 7839.18 590.006 Q7729.32 590.006 7666.13 522.923 Q7602.93 455.516 7602.93 339.174 Q7602.93 222.508 7666.13 155.425 Q7729.32 88.018 7839.18 88.018 Q7882.61 88.018 7920.85 99.6847 Q7959.41 111.027 7993.12 134.036 Z" fill="#000000" fill-rule="evenodd" fill-opacity="1" /><path clip-path="url(#clip4500)" d="M 0 0 M8198.9 76.9996 Q8155.48 151.536 8134.41 224.453 Q8113.35 297.369 8113.35 372.229 Q8113.35 447.09 8134.41 520.655 Q8155.8 593.895 8198.9 668.108 L8147.05 668.108 Q8098.44 591.951 8074.13 518.386 Q8050.15 444.822 8050.15 372.229 Q8050.15 299.961 8074.13 226.721 Q8098.12 153.481 8147.05 76.9996 L8198.9 76.9996 Z" fill="#000000" fill-rule="evenodd" fill-opacity="1" /><path clip-path="url(#clip4500)" d="M 0 0 M8264.04 96.768 L8329.5 96.768 L8329.5 525.516 L8565.1 525.516 L8565.1 580.608 L8264.04 580.608 L8264.04 96.768 Z" fill="#000000" fill-rule="evenodd" fill-opacity="1" /><path clip-path="url(#clip4500)" d="M 0 0 M8618.25 76.9996 L8670.1 76.9996 Q8718.71 153.481 8742.7 226.721 Q8767 299.961 8767 372.229 Q8767 444.822 8742.7 518.386 Q8718.71 591.951 8670.1 668.108 L8618.25 668.108 Q8661.35 593.895 8682.42 520.655 Q8703.81 447.09 8703.81 372.229 Q8703.81 297.369 8682.42 224.453 Q8661.35 151.536 8618.25 76.9996 Z" fill="#000000" fill-rule="evenodd" fill-opacity="1" /><path clip-path="url(#clip4500)" d="M 0 0 M8997.74 217.647 L9060.94 217.647 L9174.36 522.275 L9287.79 217.647 L9350.98 217.647 L9214.87 580.608 L9133.85 580.608 L8997.74 217.647 Z" fill="#000000" fill-rule="evenodd" fill-opacity="1" /><path clip-path="url(#clip4500)" d="M 0 0 M9644.91 228.341 L9644.91 284.73 Q9619.64 271.767 9592.41 265.286 Q9565.19 258.804 9536.03 258.804 Q9491.63 258.804 9469.27 272.415 Q9447.23 286.026 9447.23 313.248 Q9447.23 333.989 9463.11 345.98 Q9478.99 357.646 9526.95 368.341 L9547.37 372.878 Q9610.89 386.489 9637.46 411.442 Q9664.36 436.072 9664.36 480.47 Q9664.36 531.025 9624.17 560.516 Q9584.31 590.006 9514.31 590.006 Q9485.15 590.006 9453.39 584.173 Q9421.95 578.664 9386.95 567.321 L9386.95 505.747 Q9420.01 522.923 9452.09 531.673 Q9484.17 540.099 9515.61 540.099 Q9557.74 540.099 9580.42 525.84 Q9603.11 511.257 9603.11 485.007 Q9603.11 460.701 9586.58 447.738 Q9570.38 434.775 9514.96 422.785 L9494.22 417.924 Q9438.8 406.257 9414.17 382.276 Q9389.54 357.97 9389.54 315.841 Q9389.54 264.637 9425.84 236.767 Q9462.14 208.897 9528.9 208.897 Q9561.95 208.897 9591.12 213.758 Q9620.28 218.619 9644.91 228.341 Z" fill="#000000" fill-rule="evenodd" fill-opacity="1" /><path clip-path="url(#clip4500)" d="M 0 0 M9940.47 96.768 L10005.9 96.768 L10005.9 525.516 L10241.5 525.516 L10241.5 580.608 L9940.47 580.608 L9940.47 96.768 Z" fill="#000000" fill-rule="evenodd" fill-opacity="1" /><path clip-path="url(#clip4500)" d="M 0 0 M10551.3 96.768 L10727.3 277.276 L10662.2 277.276 L10519.6 149.268 L10377 277.276 L10311.9 277.276 L10487.8 96.768 L10551.3 96.768 Z" fill="#000000" fill-rule="evenodd" fill-opacity="1" /><path clip-path="url(#clip4500)" d="M 0 0 M10759.7 372.229 L10934.4 372.229 L10934.4 425.377 L10759.7 425.377 L10759.7 372.229 Z" fill="#000000" fill-rule="evenodd" fill-opacity="1" /><path clip-path="url(#clip4500)" d="M 0 0 M11016.7 525.516 L11123.7 525.516 L11123.7 156.397 L11007.3 179.731 L11007.3 120.101 L11123 96.768 L11188.5 96.768 L11188.5 525.516 L11295.4 525.516 L11295.4 580.608 L11016.7 580.608 L11016.7 525.516 Z" fill="#000000" fill-rule="evenodd" fill-opacity="1" /><path clip-path="url(#clip4500)" d="M 0 0 M11752.7 76.3514 L11752.7 125.935 L11695.6 125.935 Q11663.6 125.935 11650.9 138.897 Q11638.6 151.86 11638.6 185.564 L11638.6 217.647 L11736.8 217.647 L11736.8 263.989 L11638.6 263.989 L11638.6 580.608 L11578.7 580.608 L11578.7 263.989 L11521.6 263.989 L11521.6 217.647 L11578.7 217.647 L11578.7 192.369 Q11578.7 131.768 11606.8 104.222 Q11635 76.3514 11696.3 76.3514 L11752.7 76.3514 Z" fill="#000000" fill-rule="evenodd" fill-opacity="1" /><path clip-path="url(#clip4500)" d="M 0 0 M11955.9 259.452 Q11907.9 259.452 11880 297.045 Q11852.2 334.313 11852.2 399.452 Q11852.2 464.59 11879.7 502.182 Q11907.6 539.451 11955.9 539.451 Q12003.5 539.451 12031.4 501.858 Q12059.3 464.266 12059.3 399.452 Q12059.3 334.961 12031.4 297.369 Q12003.5 259.452 11955.9 259.452 M11955.9 208.897 Q12033.7 208.897 12078 259.452 Q12122.4 310.008 12122.4 399.452 Q12122.4 488.571 12078 539.451 Q12033.7 590.006 11955.9 590.006 Q11877.8 590.006 11833.4 539.451 Q11789.3 488.571 11789.3 399.452 Q11789.3 310.008 11833.4 259.452 Q11877.8 208.897 11955.9 208.897 Z" fill="#000000" fill-rule="evenodd" fill-opacity="1" /><path clip-path="url(#clip4500)" d="M 0 0 M12395.3 273.387 Q12385.3 267.554 12373.3 264.962 Q12361.6 262.045 12347.4 262.045 Q12296.8 262.045 12269.6 295.1 Q12242.7 327.832 12242.7 389.405 L12242.7 580.608 L12182.7 580.608 L12182.7 217.647 L12242.7 217.647 L12242.7 274.036 Q12261.5 240.98 12291.6 225.101 Q12321.8 208.897 12364.9 208.897 Q12371 208.897 12378.5 209.869 Q12385.9 210.517 12395 212.138 L12395.3 273.387 Z" fill="#000000" fill-rule="evenodd" fill-opacity="1" /><path clip-path="url(#clip4500)" d="M 0 0 M13033.7 134.036 L13033.7 203.064 Q13000.7 172.277 12963.1 157.045 Q12925.8 141.814 12883.7 141.814 Q12800.7 141.814 12756.7 192.693 Q12712.6 243.249 12712.6 339.174 Q12712.6 434.775 12756.7 485.655 Q12800.7 536.21 12883.7 536.21 Q12925.8 536.21 12963.1 520.979 Q13000.7 505.747 13033.7 474.96 L13033.7 543.34 Q12999.4 566.673 12960.8 578.339 Q12922.6 590.006 12879.8 590.006 Q12769.9 590.006 12706.7 522.923 Q12643.6 455.516 12643.6 339.174 Q12643.6 222.508 12706.7 155.425 Q12769.9 88.018 12879.8 88.018 Q12923.2 88.018 12961.5 99.6847 Q13000 111.027 13033.7 134.036 Z" fill="#000000" fill-rule="evenodd" fill-opacity="1" /><path clip-path="url(#clip4500)" d="M 0 0 M13398 361.535 L13398 580.608 L13338.4 580.608 L13338.4 363.48 Q13338.4 311.952 13318.3 286.35 Q13298.2 260.749 13258 260.749 Q13209.7 260.749 13181.8 291.535 Q13154 322.322 13154 375.47 L13154 580.608 L13094 580.608 L13094 76.3514 L13154 76.3514 L13154 274.036 Q13175.4 241.304 13204.2 225.101 Q13233.4 208.897 13271.3 208.897 Q13333.8 208.897 13365.9 247.786 Q13398 286.35 13398 361.535 Z" fill="#000000" fill-rule="evenodd" fill-opacity="1" /><path clip-path="url(#clip4500)" d="M 0 0 M13460.5 217.647 L13520.2 217.647 L13520.2 580.608 L13460.5 580.608 L13460.5 217.647 M13460.5 76.3514 L13520.2 76.3514 L13520.2 151.86 L13460.5 151.86 L13460.5 76.3514 Z" fill="#000000" fill-rule="evenodd" fill-opacity="1" /><path clip-path="url(#clip4500)" d="M 0 0 M9825.41 12068.2 L9876.85 12068.2 L9876.85 12405.1 L10062 12405.1 L10062 12448.4 L9825.41 12448.4 L9825.41 12068.2 Z" fill="#000000" fill-rule="evenodd" fill-opacity="1" /><path clip-path="url(#clip4500)" d="M 0 0 M10305.4 12068.2 L10443.6 12210 L10392.5 12210 L10280.4 12109.4 L10168.4 12210 L10117.2 12210 L10255.5 12068.2 L10305.4 12068.2 Z" fill="#000000" fill-rule="evenodd" fill-opacity="1" /><path clip-path="url(#clip4500)" d="M 0 0 M10469.1 12284.6 L10606.4 12284.6 L10606.4 12326.4 L10469.1 12326.4 L10469.1 12284.6 Z" fill="#000000" fill-rule="evenodd" fill-opacity="1" /><path clip-path="url(#clip4500)" d="M 0 0 M10671 12405.1 L10755.1 12405.1 L10755.1 12115 L10663.6 12133.4 L10663.6 12086.5 L10754.5 12068.2 L10806 12068.2 L10806 12405.1 L10890 12405.1 L10890 12448.4 L10671 12448.4 L10671 12405.1 Z" fill="#000000" fill-rule="evenodd" fill-opacity="1" /><path clip-path="url(#clip4500)" d="M 0 0 M323.873 6500.06 L323.873 6178.46 L367.16 6178.46 L367.16 6313.41 L704.033 6313.41 L704.033 6365.1 L367.16 6365.1 L367.16 6500.06 L323.873 6500.06 Z" fill="#000000" fill-rule="evenodd" fill-opacity="1" /><path clip-path="url(#clip4500)" d="M 0 0 M353.156 5873.16 L407.391 5873.16 Q383.202 5899.13 371.234 5928.67 Q359.267 5957.95 359.267 5991.05 Q359.267 6056.24 399.243 6090.87 Q438.965 6125.5 514.335 6125.5 Q589.451 6125.5 629.427 6090.87 Q669.149 6056.24 669.149 5991.05 Q669.149 5957.95 657.182 5928.67 Q645.214 5899.13 621.024 5873.16 L674.751 5873.16 Q693.084 5900.15 702.251 5930.45 Q711.417 5960.5 711.417 5994.11 Q711.417 6080.43 658.709 6130.08 Q605.747 6179.73 514.335 6179.73 Q422.669 6179.73 369.961 6130.08 Q316.998 6080.43 316.998 5994.11 Q316.998 5959.99 326.165 5929.94 Q335.077 5899.64 353.156 5873.16 Z" fill="#000000" fill-rule="evenodd" fill-opacity="1" /><circle clip-path="url(#clip4502)" cx="15681.2" cy="2614.49" r="57" fill="#009af9" fill-rule="evenodd" fill-opacity="1" stroke="#000000" stroke-opacity="1" stroke-width="7.68"/>
<circle clip-path="url(#clip4502)" cx="11245" cy="6048.1" r="57" fill="#009af9" fill-rule="evenodd" fill-opacity="1" stroke="#000000" stroke-opacity="1" stroke-width="7.68"/>
<circle clip-path="url(#clip4502)" cx="9026.84" cy="7192.64" r="57" fill="#009af9" fill-rule="evenodd" fill-opacity="1" stroke="#000000" stroke-opacity="1" stroke-width="7.68"/>
<circle clip-path="url(#clip4502)" cx="6808.72" cy="7955.67" r="57" fill="#009af9" fill-rule="evenodd" fill-opacity="1" stroke="#000000" stroke-opacity="1" stroke-width="7.68"/>
<polyline clip-path="url(#clip4502)" style="stroke:#e26f46; stroke-width:32; stroke-opacity:1; fill:none" points="
  2372.49,11091.2 2528.45,10995.4 3970.57,10109.6 4837.22,9577.32 5569.96,9127.26 6365.93,8638.38 7099.74,8187.67 7886.46,7704.46 8797.95,7144.62 9607.98,6647.1 
  10318.3,6210.81 11092.7,5735.15 11871.8,5256.66 12733.1,4727.62 13552.7,4224.26 14404.8,3700.88 15122.1,3260.31 15997.8,2722.41 16821.1,2216.78 18140,1406.72 
  18342.9,1282.05 
  "/>
<path clip-path="url(#clip4500)" d="
M2469.37 3107.46 L5970.66 3107.46 L5970.66 1655.94 L2469.37 1655.94  Z
  " fill="#ffffff" fill-rule="evenodd" fill-opacity="1"/>
<polyline clip-path="url(#clip4500)" style="stroke:#000000; stroke-width:32; stroke-opacity:1; fill:none" points="
  2469.37,3107.46 5970.66,3107.46 5970.66,1655.94 2469.37,1655.94 2469.37,3107.46 
  "/>
<circle clip-path="url(#clip4500)" cx="3333.37" cy="2139.78" r="172" fill="#009af9" fill-rule="evenodd" fill-opacity="1" stroke="#000000" stroke-opacity="1" stroke-width="7.68"/>
<path clip-path="url(#clip4500)" d="M 0 0 M4005.37 2001.54 L4239.26 2001.54 L4239.26 2033.02 L4141.11 2033.02 L4141.11 2278.02 L4103.52 2278.02 L4103.52 2033.02 L4005.37 2033.02 L4005.37 2001.54 Z" fill="#000000" fill-rule="evenodd" fill-opacity="1" /><path clip-path="url(#clip4500)" d="M 0 0 M4359.82 2078.57 L4359.82 2110.43 Q4345.37 2102.46 4330.74 2098.57 Q4316.3 2094.5 4301.48 2094.5 Q4268.34 2094.5 4250 2115.61 Q4231.67 2136.54 4231.67 2174.5 Q4231.67 2212.46 4250 2233.57 Q4268.34 2254.5 4301.48 2254.5 Q4316.3 2254.5 4330.74 2250.61 Q4345.37 2246.54 4359.82 2238.57 L4359.82 2270.05 Q4345.56 2276.72 4330.19 2280.05 Q4315 2283.39 4297.78 2283.39 Q4250.93 2283.39 4223.34 2253.94 Q4195.74 2224.5 4195.74 2174.5 Q4195.74 2123.76 4223.52 2094.68 Q4251.48 2065.61 4300 2065.61 Q4315.74 2065.61 4330.74 2068.94 Q4345.74 2072.09 4359.82 2078.57 Z" fill="#000000" fill-rule="evenodd" fill-opacity="1" /><polyline clip-path="url(#clip4500)" style="stroke:#e26f46; stroke-width:32; stroke-opacity:1; fill:none" points="
  2661.37,2623.62 3813.37,2623.62 
  "/>
<path clip-path="url(#clip4500)" d="M 0 0 M4005.37 2485.38 L4164.26 2485.38 L4164.26 2516.86 L4042.78 2516.86 L4042.78 2598.34 L4152.41 2598.34 L4152.41 2629.82 L4042.78 2629.82 L4042.78 2761.86 L4005.37 2761.86 L4005.37 2485.38 Z" fill="#000000" fill-rule="evenodd" fill-opacity="1" /><path clip-path="url(#clip4500)" d="M 0 0 M4172.41 2554.45 L4206.48 2554.45 L4206.48 2761.86 L4172.41 2761.86 L4172.41 2554.45 M4172.41 2473.71 L4206.48 2473.71 L4206.48 2516.86 L4172.41 2516.86 L4172.41 2473.71 Z" fill="#000000" fill-rule="evenodd" fill-opacity="1" /><path clip-path="url(#clip4500)" d="M 0 0 M4275.93 2495.56 L4275.93 2554.45 L4346.11 2554.45 L4346.11 2580.93 L4275.93 2580.93 L4275.93 2693.52 Q4275.93 2718.89 4282.78 2726.12 Q4289.82 2733.34 4311.11 2733.34 L4346.11 2733.34 L4346.11 2761.86 L4311.11 2761.86 Q4271.67 2761.86 4256.67 2747.23 Q4241.67 2732.41 4241.67 2693.52 L4241.67 2580.93 L4216.67 2580.93 L4216.67 2554.45 L4241.67 2554.45 L4241.67 2495.56 L4275.93 2495.56 Z" fill="#000000" fill-rule="evenodd" fill-opacity="1" /><path clip-path="url(#clip4500)" d="M 0 0 M4415.56 2495.56 L4415.56 2554.45 L4485.74 2554.45 L4485.74 2580.93 L4415.56 2580.93 L4415.56 2693.52 Q4415.56 2718.89 4422.41 2726.12 Q4429.45 2733.34 4450.74 2733.34 L4485.74 2733.34 L4485.74 2761.86 L4450.74 2761.86 Q4411.3 2761.86 4396.3 2747.23 Q4381.3 2732.41 4381.3 2693.52 L4381.3 2580.93 L4356.3 2580.93 L4356.3 2554.45 L4381.3 2554.45 L4381.3 2495.56 L4415.56 2495.56 Z" fill="#000000" fill-rule="evenodd" fill-opacity="1" /><path clip-path="url(#clip4500)" d="M 0 0 M4698.89 2649.64 L4698.89 2666.3 L4542.22 2666.3 Q4544.45 2701.49 4563.33 2720.01 Q4582.41 2738.34 4616.3 2738.34 Q4635.93 2738.34 4654.26 2733.52 Q4672.78 2728.71 4690.93 2719.08 L4690.93 2751.3 Q4672.59 2759.08 4653.33 2763.15 Q4634.07 2767.23 4614.26 2767.23 Q4564.63 2767.23 4535.56 2738.34 Q4506.67 2709.45 4506.67 2660.19 Q4506.67 2609.27 4534.07 2579.45 Q4561.67 2549.45 4608.33 2549.45 Q4650.19 2549.45 4674.44 2576.49 Q4698.89 2603.34 4698.89 2649.64 M4664.81 2639.64 Q4664.44 2611.67 4649.07 2595.01 Q4633.89 2578.34 4608.7 2578.34 Q4580.19 2578.34 4562.96 2594.45 Q4545.93 2610.56 4543.33 2639.82 L4664.81 2639.64 Z" fill="#000000" fill-rule="evenodd" fill-opacity="1" /><path clip-path="url(#clip4500)" d="M 0 0 M4871.11 2585.93 L4871.11 2473.71 L4905.18 2473.71 L4905.18 2761.86 L4871.11 2761.86 L4871.11 2730.75 Q4860.37 2749.26 4843.89 2758.34 Q4827.59 2767.23 4804.63 2767.23 Q4767.04 2767.23 4743.33 2737.23 Q4719.81 2707.23 4719.81 2658.34 Q4719.81 2609.45 4743.33 2579.45 Q4767.04 2549.45 4804.63 2549.45 Q4827.59 2549.45 4843.89 2558.52 Q4860.37 2567.41 4871.11 2585.93 M4755 2658.34 Q4755 2695.93 4770.37 2717.41 Q4785.93 2738.71 4812.96 2738.71 Q4840 2738.71 4855.55 2717.41 Q4871.11 2695.93 4871.11 2658.34 Q4871.11 2620.75 4855.55 2599.45 Q4840 2577.97 4812.96 2577.97 Q4785.93 2577.97 4770.37 2599.45 Q4755 2620.75 4755 2658.34 Z" fill="#000000" fill-rule="evenodd" fill-opacity="1" /><path clip-path="url(#clip4500)" d="M 0 0 M5061.48 2473.71 L5095.55 2473.71 L5095.55 2761.86 L5061.48 2761.86 L5061.48 2473.71 Z" fill="#000000" fill-rule="evenodd" fill-opacity="1" /><path clip-path="url(#clip4500)" d="M 0 0 M5131.29 2554.45 L5165.37 2554.45 L5165.37 2761.86 L5131.29 2761.86 L5131.29 2554.45 M5131.29 2473.71 L5165.37 2473.71 L5165.37 2516.86 L5131.29 2516.86 L5131.29 2473.71 Z" fill="#000000" fill-rule="evenodd" fill-opacity="1" /><path clip-path="url(#clip4500)" d="M 0 0 M5373.51 2636.67 L5373.51 2761.86 L5339.44 2761.86 L5339.44 2637.78 Q5339.44 2608.34 5327.96 2593.71 Q5316.48 2579.08 5293.52 2579.08 Q5265.92 2579.08 5250 2596.67 Q5234.07 2614.27 5234.07 2644.64 L5234.07 2761.86 L5199.81 2761.86 L5199.81 2554.45 L5234.07 2554.45 L5234.07 2586.67 Q5246.29 2567.97 5262.77 2558.71 Q5279.44 2549.45 5301.11 2549.45 Q5336.85 2549.45 5355.18 2571.67 Q5373.51 2593.71 5373.51 2636.67 Z" fill="#000000" fill-rule="evenodd" fill-opacity="1" /><path clip-path="url(#clip4500)" d="M 0 0 M5586.66 2649.64 L5586.66 2666.3 L5430 2666.3 Q5432.22 2701.49 5451.11 2720.01 Q5470.18 2738.34 5504.07 2738.34 Q5523.7 2738.34 5542.03 2733.52 Q5560.55 2728.71 5578.7 2719.08 L5578.7 2751.3 Q5560.37 2759.08 5541.11 2763.15 Q5521.85 2767.23 5502.03 2767.23 Q5452.4 2767.23 5423.33 2738.34 Q5394.44 2709.45 5394.44 2660.19 Q5394.44 2609.27 5421.85 2579.45 Q5449.44 2549.45 5496.11 2549.45 Q5537.96 2549.45 5562.22 2576.49 Q5586.66 2603.34 5586.66 2649.64 M5552.59 2639.64 Q5552.22 2611.67 5536.85 2595.01 Q5521.66 2578.34 5496.48 2578.34 Q5467.96 2578.34 5450.74 2594.45 Q5433.7 2610.56 5431.11 2639.82 L5552.59 2639.64 Z" fill="#000000" fill-rule="evenodd" fill-opacity="1" /></svg>
